<?xml version="1.0" encoding="utf-8" ?>
<svg xmlns="http://www.w3.org/2000/svg" xmlns:xlink="http://www.w3.org/1999/xlink" width="1978" height="1245">
	<path fill="#009BC5" d="M1377.33 255.878L1378.38 255.245C1381.05 253.513 1382.66 250.011 1384.72 247.619L1407.06 220.612L1527.71 76.3033L1557.18 41.0921C1560.65 36.983 1563.79 31.5529 1568.01 28.2171C1572.9 24.3466 1578.85 22.5454 1585.02 23.4808C1590.95 24.3809 1596.17 28.6109 1599.52 33.4352C1602.6 37.8607 1603.84 43.2284 1602.83 48.5416L1503.82 447.82L1769.14 487.903L1876.54 501.971C1892.99 504.116 1910.7 505.282 1926.86 508.778C1931.38 509.757 1935.64 512.499 1938.42 516.209C1941.47 520.28 1944.06 528.727 1943.02 533.772C1941.69 540.208 1937.25 544.449 1931.78 547.708C1923.58 552.592 1914.07 556.192 1905.33 560.001L1832.24 589.349L1646.32 673.477L1570 708.142C1559.75 712.879 1548.54 716.859 1538.74 722.348L1628.51 984.216L1656.27 1064.63C1661.34 1079.23 1667.38 1094.2 1670.92 1109.24C1672.05 1114.03 1672.32 1118.3 1670.07 1122.81C1667.62 1127.7 1663.21 1131.46 1657.97 1133.05C1650.37 1135.36 1642.95 1133.32 1636.23 1129.58L1300.13 944.071L1159.86 1094.24L1114.46 1142.84C1107.77 1149.99 1101.22 1158.48 1093.76 1164.73C1089.71 1168.13 1085.41 1169.12 1080.32 1170.02C1076.72 1169.01 1070.08 1167.63 1068.03 1164.1C1065 1158.87 1064.1 1151.79 1062.62 1145.96L1053.95 1112.2L1023.8 991.46C1021.09 979.244 1017.3 966.854 1015.9 954.408C980.839 973.874 941.787 988.433 904.473 1003.13C885.821 1010.48 866.716 1019.41 847.072 1023.7C840.759 1025.07 833.098 1025.52 826.803 1023.82C817.613 1021.33 810.894 1015.66 806.389 1007.33C801.905 999.036 800.949 987.984 800.383 978.728C800.178 975.38 800.5 970.876 799.453 967.718C776.112 988.468 728.933 1034.4 697.302 1032.95C688.946 1032.57 680.427 1028.62 674.958 1022.26C667.667 1013.77 665.404 1000.64 665.279 989.834C648.503 1005.66 631.001 1020.82 612.023 1033.96C595.4 1045.46 576.219 1056.62 555.324 1055.82C544.25 1055.39 533.139 1050.07 525.588 1041.99C512.86 1028.37 510.505 1012.38 506.885 995.055C452.606 1043.22 386.239 1076.62 318.152 1100.6C302.671 1106.05 283.534 1113.83 267.002 1112.79C254.581 1112 244.074 1101.36 236.451 1092.38L224.52 1076.09L239.772 1077.16C306.853 1078.27 419.063 1013.23 472.531 974.27C490.219 961.381 506.709 947.011 522.385 931.759C529.865 943.097 535.833 956.079 544.309 966.659C549.54 973.189 556.23 977.122 564.595 977.876C579.231 979.197 596.638 971.486 609.654 965.313C646.669 947.759 681.351 924.084 712.35 897.357C714.617 905.006 716.587 913.755 721.795 919.997C724.623 923.386 728.643 925.854 733.083 926.242C743.278 927.131 752.636 924.121 761.97 920.368C785.662 910.843 807.141 895.949 826.788 879.867L831.112 907.22C831.753 910.885 832.517 913.604 835.865 915.688C840.875 918.805 847.82 918.763 853.486 918.273C879.409 916.029 906.549 907.341 931.641 900.727L1032.46 875.345C1042.55 879.382 1043.82 891.128 1047.17 900.25C1048.31 903.367 1050.48 906.302 1051.38 909.362C1055.68 924.043 1058.03 939.983 1061.53 954.952L1086.28 1058.83L1091.14 1079.21C1092.52 1085 1092.98 1090.44 1097.17 1094.81C1100.1 1095.09 1100.74 1095.04 1103.18 1093.06C1109.72 1087.75 1115.78 1080.38 1121.7 1074.3L1159.8 1035.1L1284.42 906.867L1306.24 884.347C1307.16 883.39 1311.38 878.351 1312.3 878.09C1312.39 878.063 1316.88 880.576 1317.29 880.797L1479.27 968.184L1528.7 994.893C1536.79 999.268 1545.27 1004.72 1553.73 1008.2C1555.28 1008.84 1556.73 1008.8 1558.35 1008.44C1560.34 1007.09 1561.63 1005.38 1562.67 1003.24C1563.75 1001.01 1563.94 999.261 1563.4 996.847C1561.38 987.823 1557.68 978.702 1554.92 969.841L1533.71 902.849L1466.41 690.773L1686.32 590.259L1746.35 562.829C1755.61 558.588 1766.59 554.758 1774.99 549.094C1776.32 546.59 1776.22 546.155 1775.92 543.299C1774.77 541.998 1773.6 541.091 1771.92 540.637C1762.03 537.98 1751.18 536.757 1741.08 534.949L1684.87 524.724L1519.05 494.612L1453.21 482.482L1499.24 255.954L1510.08 203.063C1510.91 198.924 1513.48 190.938 1513.04 186.895C1512.93 185.93 1512.05 184.369 1511.68 183.413C1509.28 181.502 1508.73 181.185 1505.71 180.729C1499.88 183.446 1494.11 191.791 1489.71 196.722L1461.42 228.39L1363.54 337.766L1371.43 287.828C1373.34 277.487 1376.77 266.328 1377.33 255.878Z"/>
	<path fill="#FED272" d="M224.52 1076.09C218.608 1069.52 212.057 1063.29 206.64 1056.3C193.605 1039.48 181.859 1019.21 172.307 1000.15C170.288 996.124 167.331 991.998 166.025 987.717C162.563 976.374 165.67 960.532 168.398 949.448C175.108 922.185 187.106 894.566 197.361 868.432L254.836 733.408C231.189 747.518 205.609 759.602 178.194 764.158C169.797 765.553 162.041 765.303 155.016 760.096C138.046 747.52 127.45 727.599 117.358 709.529C100.82 679.917 85.3157 650.729 80.7312 616.621C78.3664 599.027 79.9155 581.988 84.3109 564.846C92.5494 532.715 108.317 502.08 123.578 472.791C165.496 392.343 214.89 317.015 269.753 244.847L341.611 156.488C356.353 139.492 371.335 122.156 387.294 106.3C391.262 102.358 395.879 96.0329 400.422 93.025C402.428 91.6968 406.708 91.5501 409.153 91.2226C447.18 86.1281 488.082 91.3186 525.958 95.6773C537.549 97.0113 560.144 97.7902 569.339 105.038C574.992 109.494 579.308 116.012 582.242 122.51C590.425 140.63 594.203 161.976 598.291 181.356C604.866 212.528 610.945 244.342 614.567 276.01C644.32 266.152 675.562 262.35 706.69 266.731C720.12 268.621 732.814 272.745 741.23 283.848C762.746 269.695 785.327 260.126 810.81 255.749C844.702 249.926 879.36 252.311 908.109 272.615L923.157 255.077C934.57 243.683 951.796 227.071 968.977 227.449C975.268 227.587 979.891 229.705 984.218 234.226C995.382 245.893 997.824 265.45 997.466 280.873C1000.71 278.379 1004.01 275.54 1007.66 273.663C1011.62 271.626 1017.41 269.262 1021.8 270.768L1022.8 271.135C1030.55 273.461 1033.93 277.402 1039.15 283.343C1045.51 272.251 1053.57 254.505 1065.89 249.077C1072.05 246.364 1079.78 246.436 1086.39 246.832C1103.13 247.838 1123.74 251.074 1139.31 257.52C1151.16 262.426 1157.82 268.855 1162.81 280.581C1167.34 278.124 1171.99 275.413 1176.93 273.86C1199.11 266.874 1220.97 274.094 1240.67 284.467L1240.48 252.144L1241.75 180.801C1242.24 165.107 1241.71 146.271 1246.47 131.211C1247.38 128.337 1249.32 125.398 1251.52 123.356C1255 120.126 1260.17 118.01 1264.45 115.965L1286.96 105.53C1314.17 93.0835 1341.46 80.4553 1369.59 70.194C1380.53 66.2016 1395.92 60.0761 1407.68 60.9602C1411.74 61.2652 1416.02 62.8457 1418.55 66.1618C1422.42 71.2402 1420.59 83.4622 1419.57 89.3344C1412.89 127.76 1400.42 165.765 1390.62 203.54L1382.49 236.578C1380.95 243.031 1379.88 249.73 1377.33 255.878C1376.77 266.328 1373.34 277.487 1371.43 287.828L1363.54 337.766L1461.42 228.39L1489.71 196.722C1494.11 191.791 1499.88 183.446 1505.71 180.729C1508.73 181.185 1509.28 181.502 1511.68 183.413C1512.05 184.369 1512.93 185.93 1513.04 186.895C1513.48 190.938 1510.91 198.924 1510.08 203.063L1499.24 255.954L1453.21 482.482L1519.05 494.612L1684.87 524.724L1741.08 534.949C1751.18 536.757 1762.03 537.98 1771.92 540.637C1773.6 541.091 1774.77 541.998 1775.92 543.299C1776.22 546.155 1776.32 546.59 1774.99 549.094C1766.59 554.758 1755.61 558.588 1746.35 562.829L1686.32 590.259L1466.41 690.773L1533.71 902.849L1554.92 969.841C1557.68 978.702 1561.38 987.823 1563.4 996.847C1563.94 999.261 1563.75 1001.01 1562.67 1003.24C1561.63 1005.38 1560.34 1007.09 1558.35 1008.44C1556.73 1008.8 1555.28 1008.84 1553.73 1008.2C1545.27 1004.72 1536.79 999.268 1528.7 994.893L1479.27 968.184L1317.29 880.797C1316.88 880.576 1312.39 878.063 1312.3 878.09C1311.38 878.351 1307.16 883.39 1306.24 884.347L1284.42 906.867L1159.8 1035.1L1121.7 1074.3C1115.78 1080.38 1109.72 1087.75 1103.18 1093.06C1100.74 1095.04 1100.1 1095.09 1097.17 1094.81C1092.98 1090.44 1092.52 1085 1091.14 1079.21L1086.28 1058.83L1061.53 954.952C1058.03 939.983 1055.68 924.043 1051.38 909.362C1050.48 906.302 1048.31 903.367 1047.17 900.25C1043.82 891.128 1042.55 879.382 1032.46 875.345L931.641 900.727C906.549 907.341 879.409 916.029 853.486 918.273C847.82 918.763 840.875 918.805 835.865 915.688C832.517 913.604 831.753 910.885 831.112 907.22L826.788 879.867C807.141 895.949 785.662 910.843 761.97 920.368C752.636 924.121 743.278 927.131 733.083 926.242C728.643 925.854 724.623 923.386 721.795 919.997C716.587 913.755 714.617 905.006 712.35 897.357C681.351 924.084 646.669 947.759 609.654 965.313C596.638 971.486 579.231 979.197 564.595 977.876C556.23 977.122 549.54 973.189 544.309 966.659C535.833 956.079 529.865 943.097 522.385 931.759C506.709 947.011 490.219 961.381 472.531 974.27C419.063 1013.23 306.853 1078.27 239.772 1077.16L224.52 1076.09Z"/>
	<path fill="#0A1632" d="M1399.17 70.9879C1402.72 70.4438 1406.04 70.5408 1409.61 70.6901C1410 71.2193 1411.08 72.3599 1411.24 72.9228C1413.55 81.1208 1405.61 107.3 1403.24 116.44L1371.36 238.649L1354.15 330.137C1347.62 366.384 1341.09 401.67 1339.17 438.567C1338.23 456.673 1339.3 474.528 1339.6 492.609C1333.69 503.632 1323.34 510.379 1313.01 516.862L1264.52 544.34C1258.55 547.59 1249.31 553.734 1242.66 554.952C1241.81 555.106 1239.49 554.585 1238.66 554.315C1238.06 554.118 1236.16 553.218 1235.77 552.699C1233.36 549.506 1232.65 543.494 1232.08 539.674C1229.34 521.44 1229.73 502.177 1230.4 483.753C1230.64 477.01 1232.92 460.707 1229.51 454.852C1228.63 453.326 1227.37 452.709 1225.63 452.41C1208.04 449.4 1150.89 478.596 1133.87 486.927C1127.91 489.849 1120.22 492.353 1115.04 496.336C1113.99 499.454 1114.02 499.351 1115.46 502.316C1118.49 503.732 1119.44 504.315 1122.77 503.251C1131.53 500.449 1140.66 494.845 1148.97 490.794C1172.07 479.526 1195.73 467.619 1220.82 461.499C1221.1 490.786 1216.71 522.34 1225.05 550.93C1226.5 555.914 1228.21 559.69 1233 562.308L1233.57 562.616C1235.76 563.82 1238.01 565.067 1240.56 565.254C1252.58 566.14 1316.31 526.995 1328.56 517.924C1336.06 512.376 1341.74 505.467 1348.86 499.541C1350.4 491.351 1349.39 483.326 1349.19 475.041L1349.23 440.889C1349.76 417.931 1352.83 394.379 1356.32 371.699C1356.87 368.092 1357 361.771 1358.39 358.553C1359.41 356.193 1364.05 352.203 1365.88 350.155L1389.74 323.468L1462.1 242.605C1474.61 228.627 1486.76 213.388 1500.29 200.47L1444.95 476.27C1444.02 480.547 1442.02 485.65 1444.76 489.523C1446.8 492.403 1449.39 493.898 1452.75 494.702C1463.58 497.297 1475.35 497.631 1486.4 499.219L1534.7 507.61L1754.79 547.615C1746.56 552.434 1737.04 556.051 1728.32 560.036L1678.83 582.671L1520.52 654.971L1479.88 673.543C1472.57 676.864 1463.65 679.885 1457.26 684.653C1455.93 687.651 1455.49 688.337 1456.28 691.614C1458.91 702.626 1463.36 713.869 1466.77 724.696L1490.89 800.897L1553.04 996.648L1310.14 865.964L1101.68 1080.54L1072.59 957.908C1066.68 933.063 1062.01 907.207 1054.61 882.804C1053.06 877.659 1051.28 870.838 1047.33 866.961C1044.01 863.694 1039.81 862.863 1035.29 863.036C1031.14 863.195 1027.05 864.717 1023.03 865.683L1001.7 870.824L921.661 891.268L877.711 902.733C868.323 905.045 856.995 908.185 847.292 907.781C844.993 907.686 842.674 907.612 841.194 905.498C840.092 903.925 839.651 899.74 839.294 897.785C837.782 889.486 837.331 873.921 831.825 867.971C828.099 867.294 826 868.682 822.79 870.613C816.229 874.558 810.468 880.262 804.24 884.769C791.08 894.293 776.993 902.497 762.268 909.344C755.379 912.547 747.227 916.139 739.637 916.679C737.377 916.84 734.16 917.051 732.049 916.124C725.521 913.256 722.325 898.115 720.361 891.789C719.256 888.232 718.65 884.827 715.683 882.318C712.908 881.724 712.859 882.012 710.473 883.284C709.746 885.431 708.51 886.87 706.94 888.44C682.698 912.671 601.002 968.562 566.252 967.921C562.299 967.848 559.294 967.062 556.085 964.735C551.499 961.41 548.204 955.706 545.281 950.953C539.144 940.974 533.339 929.131 525.22 920.735C521.488 920.021 519.712 920.059 516.815 922.856C461.552 976.197 392.418 1018.04 321.281 1046.95C297.768 1056.51 270.719 1066.95 245.075 1067.95C241.254 1068.09 236.212 1068.58 232.7 1066.95L231.797 1066.5L230.836 1066.08C227.571 1064.54 225.01 1061.51 222.567 1058.92C214.648 1050.52 208.639 1041.32 202.339 1031.69C193.408 1018.04 182.281 1002.74 176.668 987.31C173.841 979.538 174.947 968.353 176.556 960.492C181.662 935.558 192.191 911.243 201.177 887.496L254.447 757.001C259.695 745.415 264.536 731.732 271.963 721.436C272.57 720.595 272.236 718.706 272.221 717.638C270.591 715.806 269.379 714.27 266.566 714.724C264.758 715.016 261.488 717.309 259.906 718.268L242.715 728.745C225.234 739.122 207.195 746.662 187.612 752.065C181.108 753.86 173.841 756.106 167.036 755.596C142.857 739.625 130.931 712.801 117.275 688.119C122.304 688.44 126.868 688.926 131.9 688.08C145.07 685.864 157.627 680.759 169.803 675.437C188.524 667.256 206.639 657.615 224.418 647.572L359.37 563.726L410.673 527.777C409.376 531.907 407.282 537.008 407.18 541.367C407.084 545.476 408.363 546.824 410.957 549.649C414.989 551.604 418.554 551.044 422.829 550.263C437.917 547.51 452.904 542.916 467.782 539.148L531.001 523.357C536.861 521.808 542.824 519.919 548.778 518.796C553.368 517.929 560.772 518.593 564.711 516.315C569.035 513.815 572.239 506.752 575.315 502.706C591.094 481.949 611.881 463.62 637.889 458.177C637.673 471.991 639.065 486.771 644.891 499.431C649.266 508.939 656.142 516.367 666.121 519.983C676.169 523.623 687.665 522.571 697.986 520.714C715.792 517.511 733.39 510.629 749.893 503.386C773.663 492.954 796.567 480.66 818.695 467.104L859.212 441.597C867.754 436.229 875.691 430.77 884.882 426.526C891.681 448.842 895.813 471.512 904.004 493.557C906.626 500.612 909.71 509.589 915.115 514.934C917.495 517.288 920.37 518.821 923.787 518.606C936.688 517.793 970.778 479.073 980.489 468.097C985.766 484.082 992.208 503.191 1002.41 516.738C1004.81 519.923 1007.9 522.843 1012.08 523.198C1015.4 523.48 1018.4 521.717 1020.74 519.529C1025.79 514.803 1033.24 505.652 1033.42 498.869C1031.58 496.735 1031.34 496.598 1028.61 495.912C1023.4 497.62 1016.49 509.134 1012.62 513.652C1003.42 503.138 997.251 487.468 992.569 474.416C991.197 470.593 989.463 462.23 986.988 459.269C986.091 458.197 984.232 457.044 983.112 456.14C980.414 455.739 979.336 455.358 977.003 457.157C972.429 460.682 968.133 466.929 964.141 471.296C952.578 483.943 937.691 500.388 923.075 509.23C912.667 495.17 907.486 474.154 902.642 457.529L896.45 433.971C895.538 430.053 895.019 424.274 891.775 421.575L890.969 420.973C887.967 418.636 884.861 417.492 881.073 418.679C868.686 422.56 856.563 433.152 845.37 439.794C810.091 460.729 775.018 482.204 737.005 497.903C721.668 504.238 704.117 510.734 687.473 512.005C678.135 512.719 668.171 512.156 660.833 505.63C647.509 493.783 648.561 473.794 647.06 457.82C646.783 454.878 645.196 452.778 642.753 451.163C639.622 449.094 632.832 449.691 629.291 450.453C600.849 456.574 574.995 484.28 559.741 507.502C545.299 507.428 530.597 513.105 516.664 516.665L461.397 530.371C446.518 534.246 431.54 538.978 416.374 541.56L425.664 514.323C424.775 511.188 424.75 511.098 422.063 509.264C420.224 509.37 418.354 509.451 416.76 510.468C411.435 513.865 406.392 519.043 401.184 522.86L363.068 549.151L253.039 619.259C223.979 636.719 194.096 654.144 162.92 667.508C152.771 671.859 133.837 680.487 122.871 678.724C118.693 678.053 113.876 675.553 109.917 673.97C94.3454 641.747 84.5642 607.63 93.2709 571.846C102.507 533.887 121.658 497.904 140.061 463.706C199.176 353.85 271.816 252.73 353.355 158.46L385.554 122.313C390.671 116.733 396.243 109.376 402.746 105.493C405.248 103.999 407.218 102.131 410.142 101.44C417.039 99.8081 425.311 100.013 432.401 99.7952C461.958 98.8884 491.824 101.794 521.198 104.808C532.505 105.968 551.886 105.96 561.315 112.161C565.542 114.941 568.782 118.469 571.171 122.925C578.485 136.57 581.873 154.312 585.227 169.379L601.006 249.678C603.024 261.32 604.117 273.422 606.549 284.93C608.173 286.771 608.878 288.037 611.614 287.876C617.747 287.514 626.828 282.639 633.228 281.019C659.81 274.291 697.554 270.388 723.265 281.836C727.199 283.588 731.042 285.857 732.543 290.116C733.273 292.184 734.017 293.445 735.405 295.138C737.861 295.633 740.559 295.994 742.932 294.944C747.472 292.935 751.689 289.085 755.98 286.497C765.035 281.036 774.862 276.542 784.833 273.028C815.776 262.123 855.54 258.038 886.351 271.443C894.294 274.898 899.822 280.979 907.211 284.535C909.248 284.233 910.245 284.33 911.826 282.83C914.709 280.095 916.961 276.295 919.669 273.285C926.995 265.145 934.889 257.429 943.301 250.415C950.218 244.649 960.63 236.244 970.264 237.618C973.768 238.118 976.632 240.593 978.622 243.391C988.749 257.624 987.645 275.925 985.472 292.174C984.986 295.809 984.886 297.487 987.068 300.418C988.877 301.06 990.59 301.632 992.38 300.315C1000.17 294.586 1004.67 283.529 1015.27 280.983C1029.55 277.549 1030.33 295.048 1038.74 300.159C1041.76 298.868 1043.21 295.479 1044.99 292.737C1051.26 283.076 1060.66 261.439 1071.91 257.804C1077.3 256.06 1085.18 256.796 1090.83 257.32C1106.59 258.78 1135.18 262.165 1146.93 273.008C1152.93 278.556 1154.12 290.87 1159.95 293.889C1166.98 293.105 1173.73 285.54 1181.26 283.166C1197.83 277.944 1217.18 282.655 1232.12 290.615C1235.69 292.518 1238.63 295.57 1242.15 297.309C1244.64 298.533 1244.82 298.189 1247.36 297.324C1250.31 293.568 1251.01 292.019 1251.42 287.099C1252.12 278.611 1250.78 269.126 1250.76 260.474L1251.81 191.105C1252.32 171.954 1251.85 150.854 1257.02 132.34C1265.59 124.581 1280.99 119.524 1291.53 114.712C1326.65 98.6697 1362 81.6998 1399.17 70.9879Z"/>
	<path fill="#009BC5" d="M1066.51 666.585C1069.01 667.136 1069.88 667.85 1071.58 669.741C1073.71 677.101 1064.84 694.048 1062.43 701.753L1044.59 759.161C1038.88 776.729 1032.45 794.488 1028.19 812.46L976.658 826.838C975.127 827.013 973.626 826.76 972.098 826.604L970.395 824.366C970.464 814.632 973.394 805.804 975.905 796.495L984.653 763.39L1005.46 685.195L1066.51 666.585Z"/>
	<path fill="#009BC5" d="M1055.47 470.845L1056.05 471.053C1058.04 471.805 1059.93 472.649 1061.16 474.467C1064.58 479.53 1067.02 486.609 1069.6 492.186L1087.56 531.415L1148.84 526.586C1151.49 527.602 1152.82 528.456 1154.52 530.743C1154.42 531.725 1154.46 533.223 1154.15 534.123C1152.92 537.728 1110.39 572.877 1104.5 578.075L1113.14 638.402C1113.23 641.926 1111.74 645.206 1109.47 647.815C1108.62 647.902 1107.14 648.268 1106.35 648.134C1102.41 647.472 1065.85 616.349 1059.44 611.179C1057.89 609.994 1057.09 608.8 1054.97 609.768C1052.54 610.874 1049.23 614.414 1047.08 616.158C1040.89 621.17 1007.52 650.651 1001.56 650.765C999.354 649.665 997.493 648.877 996.891 646.164C996.392 643.917 997.902 637.89 998.292 635.29L1004.4 595.507C1004.61 594.123 1006.24 586.769 1005.84 585.867C1005.48 585.039 1000.72 582.006 999.778 581.295L973.081 561.009C969.311 558.091 964.348 555.099 961.823 551.026C961.907 550.457 962.015 548.325 962.276 547.961C964.536 544.815 1014.83 535.646 1022.23 534.068C1023.41 533.819 1030.41 532.786 1030.98 532.2C1031.82 531.336 1033.27 525.012 1033.78 523.483L1045.38 490.882C1047.94 483.943 1049.78 475.888 1055.47 470.845Z"/>
	<path fill="#FED272" d="M1241.97 624.075C1245.93 629.988 1244.03 666.162 1243.07 674.71C1214.29 681.944 1186.68 692.949 1162.11 709.797C1154.2 724.103 1132.76 773.182 1137.28 787.683C1138.29 790.914 1139.87 793.009 1143.05 794.286C1146.99 795.869 1151.92 795.297 1156.03 794.888C1184.67 792.032 1208.9 772.732 1235.12 761.89C1233.97 772.913 1232.05 783.945 1229.94 794.819C1228.69 801.236 1227.39 809.183 1223.79 814.707C1218.91 822.18 1206.25 823.793 1198.06 825.641C1186.46 828.014 1094.18 844.277 1086.28 840.578C1084.32 838.223 1082.82 835.897 1081.83 832.975C1079.54 826.258 1080.89 818.76 1081.72 811.885C1084.04 792.881 1089.65 774.889 1095.58 756.748C1102.43 735.773 1109.8 715.302 1119.47 695.423C1123.17 687.828 1128.27 675.056 1134.29 669.413C1140.79 663.311 1152.5 659.399 1160.62 655.872L1241.97 624.075Z"/>
	<path fill="#DB0F00" d="M952.173 281.726C952.954 281.743 953.945 281.698 954.713 281.929C956.765 282.547 957.245 283.702 958.162 285.413L957.545 290.547C956.87 298.622 957.82 307.014 957.912 315.136L958.329 356.027C958.377 359.592 957.771 367.712 959.084 370.892C959.337 371.504 960.439 372.493 960.903 373.042C966.401 373.574 998.725 325.861 1011.7 323.81C1013.51 324.315 1015.25 324.436 1016.45 326.056C1017.86 327.967 1018.51 331.588 1019.18 333.924L1024.14 351.651C1025.67 357.717 1026.5 366.423 1031.68 370.409C1041.6 364.343 1047.29 349.158 1052.87 339.342C1063.46 320.705 1074.03 303.392 1081.85 283.278L1131.23 299.742L1078.41 389.617L1039 456.751C1035.81 462.171 1032.93 471.449 1028.12 475.138C1026.88 475.264 1024.87 475.774 1023.73 475.365C1015.3 472.362 999.156 419.997 994.119 409.302L954.363 454.616C951.895 457.53 949.204 460.439 947.006 463.562C944.83 466.652 943.102 470.336 939.932 472.575C937.775 474.098 935.754 473.894 933.274 473.434C931.68 473.138 929.856 471.389 929.061 470.015C925.148 463.263 924.309 451.457 922.854 443.567C916.573 409.528 911.299 374.811 909.878 340.198C909.614 333.771 908.561 326.078 909.948 319.842C912.208 309.686 942.429 287.774 952.173 281.726Z"/>
	<path fill="#DB0F00" d="M573.502 276.105C574.204 275.998 574.914 275.868 575.629 275.914C578.905 276.129 579.236 276.735 581.262 279.135C582.206 286.348 579.453 295.179 578.138 302.378L570.055 345.298L571.413 344.315C605.253 319.899 647.222 298.766 690.095 301.22C693.296 301.403 696.639 300.726 699.792 301.343C701.556 301.688 701.803 302.832 702.76 304.252C704.884 313.238 683.71 364.049 679.286 376.08C671.849 372.718 664.165 369.74 655.83 370.296C625.6 372.31 595.396 395.913 576.327 418.028C561.731 436.404 552.029 455.694 546.112 478.392L454.849 487.244C462.386 472.516 468.361 456.55 474.6 441.222C491.488 399.725 506.979 357.085 517.722 313.538C533.847 298.718 554.056 286.141 573.502 276.105Z"/>
	<path fill="#DB0F00" d="M833.089 290.082C843.892 288.494 856.967 289.871 866.649 295.007C874.516 299.18 880.763 305.891 883.266 314.571C888.438 332.505 882.285 352.249 873.589 368.011C855.68 400.475 822.844 425.199 792.091 444.663C770.707 458.198 747.902 470.6 723.523 477.755L711.854 480.501C702.934 482.068 690.669 483.214 682.905 477.466C677.866 473.736 675.501 467.884 674.625 461.855C671.059 437.293 686.59 412.724 698.822 392.886L720.92 360.112C745.869 326.827 791.468 296.085 833.089 290.082Z"/>
	<path fill="#0A1632" d="M802.498 345.979C805.631 345.89 809.654 346.385 812.503 347.7C816.478 349.535 819.188 352.624 820.664 356.682C822.804 362.566 821.967 366.737 819.254 372.432C811.327 389.075 793.929 402.609 776.835 408.503C771.951 408.745 767.856 408.727 763.598 405.837C760.136 403.486 758.147 399.829 757.444 395.758C756.093 387.94 760.914 379.47 765.199 373.307C774.306 360.208 786.299 348.872 802.498 345.979Z"/>
	<path fill="#FED272" d="M692.986 649.414C695.143 649.18 697.555 649.455 699.737 649.504C702.219 651.388 702.97 652.195 703.646 655.334C706.878 670.351 703.564 689.06 700.596 703.924C694.454 734.691 685.377 764.448 674.508 793.865C670.638 804.336 667.449 815.792 661.386 825.25C646.004 849.242 569.177 870.555 540.123 876.776L531.684 877.711L529.752 875.98C527.081 867.314 528.15 856.922 529.138 848.029C531.641 825.497 537.319 803.432 542.13 781.318C548.427 752.369 554.04 722.976 563.463 694.844C571.064 688.088 584.646 683.221 594.041 679.42L631.995 665.572C651.749 658.617 672.123 651.916 692.986 649.414Z"/>
	<path fill="#0A1632" d="M630.23 709.058C633.235 708.838 636.916 708.46 639.823 709.299C644.113 710.536 647.952 714.134 649.905 718.121C653.895 726.26 651.114 736.577 648.159 744.622C641.386 763.063 628.974 786.142 610.523 794.729C606.89 795.652 603.704 795.845 600.093 794.651C595.969 793.288 592.382 790.031 590.624 786.049C585.881 775.305 591.023 761.012 594.812 750.682C598.825 739.743 607.344 722.454 617.178 715.526C620.943 712.873 626.035 711.006 630.23 709.058Z"/>
	<path fill="#FED272" d="M788.772 638.299C792.454 638.552 792.897 638.552 795.744 640.851C798.389 646.593 796.697 657.382 796.241 663.718L794.096 698.703L832.315 660.104C838.927 654.379 847.785 645.981 857.166 646.97C859.689 647.236 861.874 648.517 863.435 650.51C872.947 662.656 864.54 689.023 862.822 702.987C862.514 705.485 862.14 706.536 863.779 708.58C866.537 708.884 868.349 709.518 870.687 707.641C872.353 706.304 873.672 703.807 875.074 702.152L884.755 690.889C894.335 679.846 904.805 669.298 915.66 659.522C923.076 652.843 931.084 645.736 940.07 641.231C944.161 639.181 949.782 637.193 954.307 639.042C957.105 640.186 959.102 642.603 960.142 645.378C967.858 665.959 938.764 771.584 931.844 799.812L926.483 821.724C925.855 824.355 925.879 827.651 924.753 830.026C924.074 831.456 922.715 834.723 921.594 835.752C919.8 837.396 915.865 838.294 913.541 839.114L891.696 846.569L881.922 849.688C878.147 850.66 876.175 850.081 872.962 848.133C870.435 844.822 869.86 841.96 869.817 837.829C869.747 831.197 871.586 823.639 872.373 816.974C874.508 798.878 876.513 780.791 875.17 762.573C863.124 769.271 855.681 778.422 845.964 787.985C841.854 792.03 838.114 796.654 831.807 796.301C828.985 796.143 823.324 795.231 821.43 792.991C819.944 791.233 819.024 786.799 818.363 784.563C815.367 774.435 813.132 755.662 806.164 747.883C803.289 746.761 803.121 746.667 800.182 747.553C796.239 751.481 796.239 762.201 795.474 767.857L788.841 828.93L739.149 851.501L737.601 849.478C736.37 843.554 736.984 837.296 737.208 831.288L738.272 803.6L742.081 704.003L743.054 675.537C743.229 671.473 742.934 666.125 744.124 662.319C745.593 657.624 749.619 656.003 753.614 653.91C765.125 647.881 777.27 644.245 788.772 638.299Z"/>
	<path fill="#DB0F00" d="M1373.79 101.893L1376.83 101.821C1374.77 110.429 1370.13 119.26 1366.89 127.562L1350.1 173.971C1330.47 232.931 1317.55 292.552 1310.53 354.261C1306.47 389.899 1305.23 427.159 1306.37 463.034L1307.82 486.71C1308.03 488.722 1309.15 493.381 1308.28 494.901C1302.87 504.341 1290.56 510.016 1281.28 514.611C1269.71 520.337 1258.22 526.087 1245.62 529.148C1242.89 509.757 1246.22 487.711 1247.71 468.126C1248.54 457.207 1251.09 441.925 1247.02 431.561C1245.71 428.209 1242.67 425.009 1239.3 423.715C1236.29 422.558 1232.34 422.704 1229.3 423.607C1220.98 426.08 1212.58 431.877 1204.86 435.999L1167.4 455.346C1154.5 461.967 1108.62 486.7 1095.72 483.669C1095.4 482.508 1095.21 481.573 1095.3 480.357C1096.53 463.583 1104.59 445.913 1111.88 430.989C1124.85 404.421 1140.4 378.959 1156.9 354.445C1165.14 342.207 1174.34 326.925 1185.87 317.531C1196.41 308.931 1244.95 330.941 1259.43 331.23C1261.66 331.275 1263.74 330.145 1265.35 328.655C1266.73 327.387 1267.75 325.938 1267.98 324.048C1268.62 318.895 1268.07 313.318 1268.2 308.111L1270.07 278.652L1279.84 144.861C1304.2 135.726 1327.71 125.436 1351.08 113.958C1358.29 110.417 1366.9 107.05 1373.32 102.257L1373.79 101.893Z"/>
	<path fill="#0A1632" d="M1200.32 361.341C1203.98 360.766 1208.37 360.501 1211.98 361.41C1216.2 362.47 1219.57 365.135 1221.81 368.813C1224.23 372.776 1224.4 378.399 1223.25 382.803C1219.58 396.851 1205.8 408.048 1193.88 415.052C1190.3 416.057 1186.38 417.15 1182.65 416.297C1178.86 415.433 1175.02 412.535 1173.05 409.162C1170.87 405.445 1171.01 399.963 1172.13 395.903C1175.78 382.576 1188.67 368.144 1200.32 361.341Z"/>
	<path fill="#FED272" d="M529.562 551.879C531.868 552.063 534.394 552.252 536.543 553.17C539.011 554.223 541.526 556.969 542.327 559.544C545.114 568.493 537.641 581.753 534.408 590.146C532.438 595.26 530.881 600.685 528.14 605.458C524.286 612.169 522.234 617.346 516.921 623.178C513.905 626.489 509.37 628.052 505.247 629.612C491.252 634.908 476.532 636.26 462.459 640.711C449.684 644.752 438.458 649.521 426.386 655.249C423.91 656.424 421.108 656.825 418.683 658.068C411.37 661.818 404.126 667.823 397.757 672.978C395.374 674.907 392.568 676.234 390.191 678.148C383.532 683.509 376.17 691.415 370.392 697.728C351.422 718.454 333.85 745.71 322.504 771.326C319.47 778.178 317.593 785.296 315.014 792.301C310.928 803.397 306.258 815.167 306.703 827.204C307.017 835.671 309.297 843.166 315.823 848.921C346.149 875.663 422.045 807.615 442.738 787.412L466.598 763.075C470.975 758.288 475.075 752.661 479.902 748.39C482.225 746.335 485.111 744.815 488.222 744.599L489.067 745.606C490.958 748.12 491.112 750.707 490.689 753.707C488.485 769.338 484.144 785.263 480.569 800.639C478.285 810.465 476.858 823.643 471.635 832.36C467.775 838.803 460.539 844.349 455 849.416C439.266 863.81 423.127 877.396 406.046 890.184C355.746 927.744 298.83 959.256 239.869 980.752C230.951 984.004 219.666 989.257 210.139 989.921C206.03 990.207 203.793 988.65 200.828 986.125C199.196 984.734 197.481 985.355 195.579 983.931C195.177 982.374 194.478 980.512 194.781 978.91C195.026 977.611 195.073 976.505 195.152 975.181C195.912 962.443 200.294 949.477 203.944 937.372C223.762 871.642 252.899 808.301 283.755 746.978L319.534 676.106L340.003 636.505C341.438 633.837 342.544 629.464 344.871 627.526C347.67 625.195 350.073 622.257 353.004 620.126C360.658 614.56 370.25 610.084 378.655 605.664C415.504 586.284 454.446 570.704 494.686 559.905C506.226 556.808 517.689 553.407 529.562 551.879Z"/>
	<path fill="#DB0F00" d="M501.151 125.093C517.233 124.016 535.711 124.469 551.179 129.024C552.448 133.505 554.786 138.503 553.015 142.971C546.707 158.879 536.892 173.895 526.572 187.445C520.641 195.232 511.641 208.09 503.06 212.841C500.369 214.331 495.823 214.378 492.775 214.855L465.873 218.993C450.19 221.468 432.71 224.346 418.14 230.826C406.76 235.888 396.746 243.185 387.58 251.557C371.745 266.021 357.776 282.726 344.291 299.35C320.553 328.614 298.737 359.385 278.325 391.049C266.917 408.746 253.988 427.637 246.651 447.499C243.857 455.062 241.21 465.665 244.835 473.321C246.98 477.849 250.411 481.387 255.257 482.927C261.911 485.042 269.373 483.262 275.742 480.954C293.991 474.34 311.855 462.903 328.548 453.018L384.655 419.603L430.74 392.335C430.988 411.442 426.401 430.403 420.914 448.582C418.733 455.808 417.151 462.894 412.373 468.927C406.309 476.583 394.119 482.13 385.731 487.339L338.505 516.569C316.813 530.931 292.734 542.829 269.887 555.344L197.331 594.103L163.828 610.439C155.018 614.46 144.464 619.12 134.765 619.833C129.087 620.25 123.298 619.614 118.885 615.667C114.411 611.666 113.29 605.4 113.131 599.664C112.806 587.918 116.281 575.233 119.604 564.065C136.787 506.327 170.924 453.923 204.173 404.22L322.752 241.376L366.276 185.653C377.355 171.577 387.898 157.452 400.407 144.563C415.708 128.798 432.888 128.313 453.237 126.728L501.151 125.093Z"/>
</svg>
