<?xml version="1.0" encoding="UTF-8"?><svg id="Layer_2" xmlns="http://www.w3.org/2000/svg" viewBox="0 0 157.07 57.73"><defs><style>.cls-1{fill:#fff;stroke:#000;stroke-miterlimit:10;stroke-width:3px;}</style></defs><g id="bw"><g id="our_team_-_small.svg"><g id="Layer_29_Image"><path class="cls-1" d="M149.02,42.72c-1.57.21-3.49.55-4.93.55-1.15,2.52-1.49,5.18-2.84,8.13-1.13-.66-2.27-1.33-3.98-2.33-.61,1.24-1.31,2.64-2.39,4.82-1.53-4.34-2.62-7.44-3.75-10.66H17.07c-1.02,2.23-2.24,4.9-3.7,8.06-.73-1.3-1.45-2.59-2.14-3.83-2.51.53-4.53.96-6.58,1.4,1-4.43,2.59-8.71.04-13.29-.74-1.32-.11-3.7-.11-5.6V11.34c-.48-.61-.94-1.2-1.74-2.21l3.61-.42.12-4.81s4.96,3.39,7.94,3.39c43.78-.04,87.56-.03,131.34-.04.43,0,.86-.14,1.29-.22.81-.96,1.62-1.91,2.62-3.09l.13,3.39,2.94,1.06c-.88.35-1.15.45-1.94.77-.67,2.23-2.04,4.15-1.96,7.04.24,8.65.09,17.32.09,26.53Z"/></g></g></g></svg>