<?xml version="1.0" encoding="UTF-8"?><svg id="Layer_2" xmlns="http://www.w3.org/2000/svg" viewBox="0 0 353.56 254.66"><defs><style>.cls-1{fill:#fff;stroke-width:0px;}.cls-2{fill:none;stroke:#000;stroke-miterlimit:10;stroke-width:3px;}</style></defs><g id="bw"><g id="our_team_-_small.svg"><g id="Layer_29_Image"><polygon class="cls-1" points="351.78 235.76 350.22 235.78 348.76 235.89 347.31 236 345.85 236.06 344.4 235.85 342.94 236.1 341.48 236.05 340.02 235.99 338.57 235.96 337.11 235.99 335.66 235.75 334.2 235.78 332.75 235.77 331.3 235.91 329.84 235.85 328.39 235.95 326.93 235.85 325.48 236.04 324.06 236.43 322.59 236.35 321.15 236.6 319.69 236.85 318.94 238.09 318.09 239.22 317.19 240.31 316.48 241.55 315.62 242.67 314.76 243.8 313.9 244.79 312.92 243.95 311.74 243.18 310.63 242.32 309.67 241.27 308.57 240.29 307.14 240.98 305.72 241.47 304.3 242.17 303.45 240.97 302.46 240.03 301.61 238.95 300.62 238 299.63 237.07 298.75 236.07 297.34 235.96 295.9 236.08 294.46 235.98 293.02 235.91 291.59 236.07 290.15 235.96 288.71 236.14 287.27 235.95 285.83 235.91 284.39 235.95 282.95 236.08 281.51 235.96 280.07 236.15 278.64 236.12 277.2 236.15 275.76 236 274.32 236.16 272.88 235.95 271.44 236.14 270 235.94 268.57 236.07 267.13 236.11 265.69 235.87 264.25 235.9 262.81 235.97 261.37 235.88 259.94 236 258.5 236.06 257.06 235.98 255.62 235.85 254.18 235.97 252.74 235.9 251.3 235.91 249.87 236.12 248.43 236.15 246.99 235.89 245.55 235.88 244.11 235.85 242.67 235.87 241.23 235.99 239.8 236.12 238.36 236.03 236.92 235.86 235.48 236.04 234.04 236.02 232.61 236.15 231.17 236.16 229.73 235.83 228.29 235.98 226.85 236.07 225.42 236.11 223.98 236.16 222.54 235.93 221.1 235.98 219.66 235.9 218.23 236.09 216.79 236.02 215.35 235.91 213.91 235.99 212.47 235.98 211.04 235.86 209.6 236.02 208.16 236.12 206.72 236.04 205.29 235.84 203.85 236 202.41 236.15 200.97 235.88 199.54 235.97 198.1 235.98 196.66 236.13 195.22 236.01 193.79 236.16 192.35 236.08 190.91 235.91 189.47 235.88 188.04 236.13 186.6 235.93 185.16 236.17 183.73 236.13 182.29 236.13 180.85 236.09 179.41 236.14 177.98 235.97 176.54 236.17 175.1 236.05 173.67 236.13 172.23 236.06 170.79 236.13 169.36 235.89 167.92 236.12 166.48 235.88 165.04 235.83 163.61 235.92 162.17 235.89 160.73 235.96 159.3 235.93 157.86 235.91 156.42 236.08 154.99 235.83 153.55 236.1 152.11 235.84 150.68 235.92 149.24 235.89 147.8 236.09 146.36 235.85 144.93 236.01 143.49 236.09 142.05 236.16 140.62 236.16 139.18 235.88 137.74 235.88 136.3 235.94 134.87 236.14 133.43 236.11 131.99 236.02 130.55 235.83 129.11 235.83 127.68 236.07 126.24 236.1 124.8 236.08 123.36 236.06 121.95 236.05 121.13 237.29 120.12 238.41 119.17 239.67 117.96 238.99 117.18 237.69 115.91 236.89 114.58 236.16 113.09 235.87 111.57 235.93 110.14 235.86 108.71 235.94 107.29 235.86 105.86 235.92 104.43 236 103 235.97 101.57 236 100.14 235.76 98.71 235.99 97.29 236.08 95.86 236 94.43 235.9 93 235.83 91.57 235.82 90.14 235.97 88.72 235.79 87.29 235.85 85.86 235.86 84.43 235.83 83 235.87 81.57 235.99 80.14 236.08 78.72 235.95 77.29 235.76 75.86 235.88 74.43 236.03 73 235.94 71.57 235.96 70.14 235.91 68.72 235.91 67.29 236.02 65.86 235.93 64.43 235.76 63 236.06 61.57 235.85 60.15 236.09 58.72 235.99 57.29 235.81 55.86 235.9 54.43 235.96 53 236.08 51.57 236 50.15 236.11 48.72 236.02 47.29 235.9 45.86 235.92 44.43 235.84 43 236.08 41.57 236.04 40.15 236.02 38.72 235.91 37.29 235.87 35.86 236.1 34.52 235.97 33.25 236.43 31.92 236.59 30.65 237 29.4 237.46 28.19 238.01 26.87 238.65 25.71 239.57 24.34 240.11 23.05 240.78 21.78 241.5 20.49 242.18 19.3 243.05 17.88 243.49 16.64 244.27 15.38 245 14.15 245.79 12.79 246.33 11.58 247.17 10.33 247.91 8.96 248.45 7.63 249.06 6.36 249.79 5.14 250.59 4.08 251.19 2.92 251.59 1.95 252.06 2.15 250.87 2.43 249.57 3.01 248.36 3.62 247.09 3.84 245.66 4.44 244.38 5.21 243.17 5.51 241.77 6.22 240.54 6.54 239.14 7.15 237.87 7.72 236.58 8.28 235.29 8.91 234.02 9.36 232.68 9.72 231.3 10.22 229.98 11.04 228.8 11.52 227.47 12.05 226.16 12.41 224.79 12.93 223.48 13.63 222.23 13.76 220.79 14.47 219.52 14.49 218.09 14.71 216.69 14.62 215.25 14.84 213.81 14.81 212.37 14.88 210.93 14.76 209.49 14.74 208.05 14.86 206.61 14.91 205.17 14.71 203.73 14.64 202.29 14.9 200.85 14.79 199.41 14.93 197.97 14.69 196.53 14.59 195.09 14.83 193.65 14.77 192.21 14.92 190.77 14.78 189.33 14.67 187.89 14.88 186.45 14.64 185.01 14.82 183.57 14.75 182.12 14.66 180.68 14.72 179.24 14.86 177.8 14.77 176.36 14.75 174.93 14.83 173.49 14.78 172.05 14.82 170.61 14.8 169.17 14.72 167.75 13.74 166.64 12.75 165.52 11.84 164.33 10.81 163.29 11.74 162.3 12.59 161.22 13.33 160.02 14.43 159.06 14.52 157.51 14.44 155.98 14.47 154.46 14.78 152.96 14.6 151.43 14.69 150 14.6 148.56 14.92 147.12 14.92 145.68 14.88 144.24 14.7 142.81 14.89 141.37 14.81 139.93 14.77 138.49 14.78 137.05 14.83 135.62 14.65 134.18 14.86 132.74 14.77 131.3 14.78 129.87 14.81 128.43 14.9 126.99 14.67 125.55 14.65 124.11 14.93 122.68 14.76 121.24 14.71 119.8 14.89 118.36 14.84 116.92 14.71 115.49 14.67 114.05 14.7 112.61 14.76 111.17 14.82 109.73 14.87 108.3 14.87 106.86 14.9 105.42 14.94 103.98 14.93 102.54 14.68 101.1 14.63 99.67 14.76 98.23 14.73 96.79 14.76 95.35 14.68 93.91 14.84 92.48 14.72 91.04 14.62 89.6 14.79 88.16 14.83 86.72 14.93 85.28 14.86 83.84 14.71 82.4 14.83 80.96 14.62 79.52 14.62 78.09 14.71 76.65 14.81 75.21 14.93 73.77 14.76 72.32 14.82 70.88 14.9 69.44 14.82 68 14.91 66.51 14.02 65.44 13.39 64.24 12.58 63.17 11.77 62.09 11.08 60.98 11.44 59.74 12.11 58.6 12.82 57.48 13.1 56.23 12.36 55.13 11.58 53.96 10.55 52.94 11.49 51.76 12.33 50.55 13.18 49.3 12.3 48 11.68 46.61 11.07 45.24 12.08 44.44 12.83 43.32 13.91 42.54 14.94 41.66 14.99 40.2 14.95 38.78 15.02 37.35 14.72 35.93 14.9 34.5 14.71 33.07 15 31.65 14.9 30.22 14.84 28.79 14.8 27.36 14.73 25.93 14.99 24.51 14.87 23.08 14.82 21.65 15.05 20.22 14.87 18.79 14.91 17.36 14.77 15.93 14.89 14.5 14.98 13.07 14.94 11.63 14.74 10.2 15.04 8.76 14.8 7.25 16.33 7.26 17.78 7.2 19.23 7.27 20.68 7.33 22.13 7.29 23.59 7.22 25.04 7.45 26.49 7.32 27.94 7.4 29.39 7.32 30.85 7.31 32.3 7.29 33.75 7.23 35.2 7.28 36.65 7.26 38.1 7.36 39.55 7.15 41 7.33 42.46 7.36 43.91 7.29 45.36 7.38 46.81 7.33 48.26 7.37 49.71 7.3 51.16 7.42 52.61 7.36 54.06 7.25 55.52 7.42 56.97 7.15 58.42 7.42 59.87 7.18 61.32 7.44 62.77 7.32 64.22 7.19 65.67 7.37 67.12 7.4 68.57 7.41 70.02 7.27 71.47 7.44 72.92 7.34 74.37 7.34 75.82 7.3 77.27 7.17 78.72 7.42 80.17 7.17 81.62 7.3 83.07 7.44 84.52 7.17 85.97 7.34 87.42 7.32 88.86 7.43 90.31 7.23 91.76 7.15 93.21 7.42 94.66 7.34 96.11 7.33 97.55 7.21 99 7.35 100.45 7.36 101.89 7.23 103.34 7.47 104.78 7.27 106.27 7.4 107.02 6.18 107.86 5.08 108.9 4.14 109.69 3.04 110.81 4.25 111.76 5.61 112.6 7.09 114.08 7.1 115.52 6.95 116.95 7.09 118.39 6.94 119.83 6.86 121.27 7.1 122.71 6.91 124.14 6.99 125.58 6.87 127.02 6.86 128.46 7.08 129.89 7.1 131.33 7.14 132.77 6.98 134.21 6.98 135.64 7.18 137.08 7.03 138.52 6.89 139.95 6.99 141.39 6.93 142.83 6.85 144.27 7.01 145.7 7.08 147.14 6.9 148.58 7.02 150.02 7.16 151.45 7.06 152.89 7.02 154.33 6.89 155.76 7.09 157.2 6.85 158.64 7.14 160.08 7.11 161.51 6.93 162.95 6.92 164.39 7.04 165.82 6.91 167.26 6.94 168.7 7.18 170.13 7.11 171.57 7.03 173.01 7.06 174.44 7.08 175.88 7.05 177.32 6.9 178.75 6.97 180.19 7.1 181.62 6.93 183.06 6.9 184.5 7.12 185.93 7.15 187.37 7.02 188.8 7.02 190.24 6.94 191.68 7.07 193.11 7.11 194.55 7.14 195.98 7 197.42 6.89 198.85 7.03 200.29 6.94 201.72 7.04 203.16 7.16 204.6 6.99 206.03 7.17 207.47 7.11 208.9 7.07 210.34 7.01 211.77 7.06 213.21 7.17 214.64 7.11 216.08 6.88 217.52 7.06 218.95 7.13 220.39 6.99 221.82 6.86 223.26 7.05 224.69 6.91 226.13 6.87 227.56 7.16 229 7.16 230.44 7.13 231.87 6.99 233.31 7.15 234.74 6.94 236.18 7.15 237.61 6.92 239.05 7.16 240.49 6.84 241.92 6.96 243.36 6.95 244.8 7.08 246.23 7.03 247.67 7.12 249.1 6.96 250.54 6.97 251.98 6.87 253.41 6.92 254.85 6.92 256.28 7.18 257.72 7.1 259.16 7.08 260.59 6.86 262.03 6.96 263.47 7 264.91 7.05 266.34 6.97 267.78 7.14 269.22 6.92 270.66 6.96 272.11 7.04 273.01 5.81 274.06 4.72 274.87 3.44 275.74 2.23 276.72 3.1 277.68 4.01 278.72 4.82 279.84 5.69 280.88 4.73 281.82 3.77 282.85 2.93 283.96 2.17 284.84 3.26 285.7 4.33 286.75 5.21 287.42 6.45 288.4 7.48 289.88 7.53 291.32 7.54 292.76 7.44 294.2 7.43 295.63 7.31 297.07 7.52 298.51 7.34 299.94 7.38 301.38 7.24 302.82 7.53 304.25 7.4 305.69 7.36 307.13 7.4 308.56 7.43 310 7.33 311.43 7.47 312.87 7.4 314.31 7.37 315.74 7.3 317.18 7.53 318.62 7.39 320.05 7.42 321.49 7.34 322.92 7.51 324.36 7.24 325.79 7.23 327.23 7.26 328.66 7.38 330.1 7.2 331.54 7.42 332.97 7.42 334.41 7.28 335.84 7.22 337.28 7.32 338.72 7.36 340.16 7.53 341.59 7.37 343.03 7.39 344.47 7.38 345.91 7.53 347.34 7.37 348.78 7.48 350.22 7.43 351.78 7.26 351.67 8.81 351.62 10.24 351.53 11.68 351.59 13.12 351.62 14.55 351.58 15.99 351.72 17.43 351.72 18.86 351.75 20.3 351.62 21.74 351.71 23.17 351.72 24.61 351.55 26.04 351.55 27.48 351.78 28.92 351.65 30.35 351.53 31.79 351.82 33.23 351.79 34.66 351.8 36.1 351.55 37.54 351.62 38.97 351.68 40.41 351.53 41.84 351.59 43.28 351.49 44.72 351.81 46.15 351.79 47.59 351.74 49.02 351.82 50.46 351.53 51.9 351.67 53.33 351.8 54.77 351.82 56.21 351.68 57.64 351.65 59.08 351.51 60.52 351.61 61.95 351.5 63.39 351.72 64.82 351.57 66.26 351.84 67.7 351.63 69.13 351.65 70.57 351.52 72 351.62 73.44 351.7 74.88 351.71 76.31 351.76 77.75 351.7 79.18 351.68 80.62 351.74 82.06 351.68 83.49 351.83 84.93 351.76 86.36 351.73 87.8 351.56 89.24 351.83 90.67 351.83 92.11 351.55 93.54 351.81 94.98 351.64 96.41 351.8 97.85 351.7 99.28 351.49 100.72 351.74 102.16 351.63 103.59 351.61 105.03 351.76 106.46 351.69 107.9 351.83 109.33 351.8 110.77 351.82 112.2 351.71 113.64 351.82 115.07 351.74 116.51 351.54 117.94 351.54 119.38 351.66 120.82 351.66 122.25 351.78 123.69 351.74 125.12 351.62 126.56 351.56 127.99 351.83 129.43 351.56 130.86 351.5 132.3 351.59 133.73 351.52 135.17 351.83 136.6 351.75 138.04 351.84 139.47 351.73 140.91 351.77 142.34 351.59 143.78 351.8 145.21 351.5 146.65 351.78 148.08 351.52 149.52 351.6 150.95 351.52 152.39 351.74 153.82 351.5 155.26 351.65 156.69 351.69 158.13 351.58 159.56 351.61 161 351.59 162.43 351.49 163.87 351.54 165.3 351.6 166.74 351.8 168.17 351.73 169.61 351.58 171.04 351.55 172.48 351.53 173.91 351.67 175.35 351.8 176.78 351.68 178.22 351.72 179.66 351.65 181.09 351.59 182.53 351.55 183.96 351.56 185.4 351.76 186.83 351.59 188.27 351.58 189.7 351.6 191.14 351.74 192.57 351.52 194.01 351.8 195.44 351.66 196.88 351.71 198.32 351.69 199.75 351.55 201.19 351.77 202.62 351.64 204.06 351.62 205.49 351.65 206.93 351.82 208.36 351.67 209.8 351.52 211.23 351.56 212.67 351.8 214.1 351.67 215.54 351.74 216.98 351.75 218.41 351.84 219.85 351.63 221.28 351.78 222.72 351.51 224.16 351.78 225.59 351.65 227.03 351.71 228.47 351.53 229.9 351.62 231.34 351.53 232.78 351.52 234.21 351.78 235.76"/><polygon class="cls-2" points="351.78 235.76 350.22 235.78 348.76 235.89 347.31 236 345.85 236.06 344.4 235.85 342.94 236.1 341.48 236.05 340.02 235.99 338.57 235.96 337.11 235.99 335.66 235.75 334.2 235.78 332.75 235.77 331.3 235.91 329.84 235.85 328.39 235.95 326.93 235.85 325.48 236.04 324.06 236.43 322.59 236.35 321.15 236.6 319.69 236.85 318.94 238.09 318.09 239.22 317.19 240.31 316.48 241.55 315.62 242.67 314.76 243.8 313.9 244.79 312.92 243.95 311.74 243.18 310.63 242.32 309.67 241.27 308.57 240.29 307.14 240.98 305.72 241.47 304.3 242.17 303.45 240.97 302.46 240.03 301.61 238.95 300.62 238 299.63 237.07 298.75 236.07 297.34 235.96 295.9 236.08 294.46 235.98 293.02 235.91 291.59 236.07 290.15 235.96 288.71 236.14 287.27 235.95 285.83 235.91 284.39 235.95 282.95 236.08 281.51 235.96 280.07 236.15 278.64 236.12 277.2 236.15 275.76 236 274.32 236.16 272.88 235.95 271.44 236.14 270 235.94 268.57 236.07 267.13 236.11 265.69 235.87 264.25 235.9 262.81 235.97 261.37 235.88 259.94 236 258.5 236.06 257.06 235.98 255.62 235.85 254.18 235.97 252.74 235.9 251.3 235.91 249.87 236.12 248.43 236.15 246.99 235.89 245.55 235.88 244.11 235.85 242.67 235.87 241.23 235.99 239.8 236.12 238.36 236.03 236.92 235.86 235.48 236.04 234.04 236.02 232.61 236.15 231.17 236.16 229.73 235.83 228.29 235.98 226.85 236.07 225.42 236.11 223.98 236.16 222.54 235.93 221.1 235.98 219.66 235.9 218.23 236.09 216.79 236.02 215.35 235.91 213.91 235.99 212.47 235.98 211.04 235.86 209.6 236.02 208.16 236.12 206.72 236.04 205.29 235.84 203.85 236 202.41 236.15 200.97 235.88 199.54 235.97 198.1 235.98 196.66 236.13 195.22 236.01 193.79 236.16 192.35 236.08 190.91 235.91 189.47 235.88 188.04 236.13 186.6 235.93 185.16 236.17 183.73 236.13 182.29 236.13 180.85 236.09 179.41 236.14 177.98 235.97 176.54 236.17 175.1 236.05 173.67 236.13 172.23 236.06 170.79 236.13 169.36 235.89 167.92 236.12 166.48 235.88 165.04 235.83 163.61 235.92 162.17 235.89 160.73 235.96 159.3 235.93 157.86 235.91 156.42 236.08 154.99 235.83 153.55 236.1 152.11 235.84 150.68 235.92 149.24 235.89 147.8 236.09 146.36 235.85 144.93 236.01 143.49 236.09 142.05 236.16 140.62 236.16 139.18 235.88 137.74 235.88 136.3 235.94 134.87 236.14 133.43 236.11 131.99 236.02 130.55 235.83 129.11 235.83 127.68 236.07 126.24 236.1 124.8 236.08 123.36 236.06 121.95 236.05 121.13 237.29 120.12 238.41 119.17 239.67 117.96 238.99 117.18 237.69 115.91 236.89 114.58 236.16 113.09 235.87 111.57 235.93 110.14 235.86 108.71 235.94 107.29 235.86 105.86 235.92 104.43 236 103 235.97 101.57 236 100.14 235.76 98.71 235.99 97.29 236.08 95.86 236 94.43 235.9 93 235.83 91.57 235.82 90.14 235.97 88.72 235.79 87.29 235.85 85.86 235.86 84.43 235.83 83 235.87 81.57 235.99 80.14 236.08 78.72 235.95 77.29 235.76 75.86 235.88 74.43 236.03 73 235.94 71.57 235.96 70.14 235.91 68.72 235.91 67.29 236.02 65.86 235.93 64.43 235.76 63 236.06 61.57 235.85 60.15 236.09 58.72 235.99 57.29 235.81 55.86 235.9 54.43 235.96 53 236.08 51.57 236 50.15 236.11 48.72 236.02 47.29 235.9 45.86 235.92 44.43 235.84 43 236.08 41.57 236.04 40.15 236.02 38.72 235.91 37.29 235.87 35.86 236.1 34.52 235.97 33.25 236.43 31.92 236.59 30.65 237 29.4 237.46 28.19 238.01 26.87 238.65 25.71 239.57 24.34 240.11 23.05 240.78 21.78 241.5 20.49 242.18 19.3 243.05 17.88 243.49 16.64 244.27 15.38 245 14.15 245.79 12.79 246.33 11.58 247.17 10.33 247.91 8.96 248.45 7.63 249.06 6.36 249.79 5.14 250.59 4.08 251.19 2.92 251.59 1.95 252.06 2.15 250.87 2.43 249.57 3.01 248.36 3.62 247.09 3.84 245.66 4.44 244.38 5.21 243.17 5.51 241.77 6.22 240.54 6.54 239.14 7.15 237.87 7.72 236.58 8.28 235.29 8.91 234.02 9.36 232.68 9.72 231.3 10.22 229.98 11.04 228.8 11.52 227.47 12.05 226.16 12.41 224.79 12.93 223.48 13.63 222.23 13.76 220.79 14.47 219.52 14.49 218.09 14.71 216.69 14.62 215.25 14.84 213.81 14.81 212.37 14.88 210.93 14.76 209.49 14.74 208.05 14.86 206.61 14.91 205.17 14.71 203.73 14.64 202.29 14.9 200.85 14.79 199.41 14.93 197.97 14.69 196.53 14.59 195.09 14.83 193.65 14.77 192.21 14.92 190.77 14.78 189.33 14.67 187.89 14.88 186.45 14.64 185.01 14.82 183.57 14.75 182.12 14.66 180.68 14.72 179.24 14.86 177.8 14.77 176.36 14.75 174.93 14.83 173.49 14.78 172.05 14.82 170.61 14.8 169.17 14.72 167.75 13.74 166.64 12.75 165.52 11.84 164.33 10.81 163.29 11.74 162.3 12.59 161.22 13.33 160.02 14.43 159.06 14.52 157.51 14.44 155.98 14.47 154.46 14.78 152.96 14.6 151.43 14.69 150 14.6 148.56 14.92 147.12 14.92 145.68 14.88 144.24 14.7 142.81 14.89 141.37 14.81 139.93 14.77 138.49 14.78 137.05 14.83 135.62 14.65 134.18 14.86 132.74 14.77 131.3 14.78 129.87 14.81 128.43 14.9 126.99 14.67 125.55 14.65 124.11 14.93 122.68 14.76 121.24 14.71 119.8 14.89 118.36 14.84 116.92 14.71 115.49 14.67 114.05 14.7 112.61 14.76 111.17 14.82 109.73 14.87 108.3 14.87 106.86 14.9 105.42 14.94 103.98 14.93 102.54 14.68 101.1 14.63 99.67 14.76 98.23 14.73 96.79 14.76 95.35 14.68 93.91 14.84 92.48 14.72 91.04 14.62 89.6 14.79 88.16 14.83 86.72 14.93 85.28 14.86 83.84 14.71 82.4 14.83 80.96 14.62 79.52 14.62 78.09 14.71 76.65 14.81 75.21 14.93 73.77 14.76 72.32 14.82 70.88 14.9 69.44 14.82 68 14.91 66.51 14.02 65.44 13.39 64.24 12.58 63.17 11.77 62.09 11.08 60.98 11.44 59.74 12.11 58.6 12.82 57.48 13.1 56.23 12.36 55.13 11.58 53.96 10.55 52.94 11.49 51.76 12.33 50.55 13.18 49.3 12.3 48 11.68 46.61 11.07 45.24 12.08 44.44 12.83 43.32 13.91 42.54 14.94 41.66 14.99 40.2 14.95 38.78 15.02 37.35 14.72 35.93 14.9 34.5 14.71 33.07 15 31.65 14.9 30.22 14.84 28.79 14.8 27.36 14.73 25.93 14.99 24.51 14.87 23.08 14.82 21.65 15.05 20.22 14.87 18.79 14.91 17.36 14.77 15.93 14.89 14.5 14.98 13.07 14.94 11.63 14.74 10.2 15.04 8.76 14.8 7.25 16.33 7.26 17.78 7.2 19.23 7.27 20.68 7.33 22.13 7.29 23.59 7.22 25.04 7.45 26.49 7.32 27.94 7.4 29.39 7.32 30.85 7.31 32.3 7.29 33.75 7.23 35.2 7.28 36.65 7.26 38.1 7.36 39.55 7.15 41 7.33 42.46 7.36 43.91 7.29 45.36 7.38 46.81 7.33 48.26 7.37 49.71 7.3 51.16 7.42 52.61 7.36 54.06 7.25 55.52 7.42 56.97 7.15 58.42 7.42 59.87 7.18 61.32 7.44 62.77 7.32 64.22 7.19 65.67 7.37 67.12 7.4 68.57 7.41 70.02 7.27 71.47 7.44 72.92 7.34 74.37 7.34 75.82 7.3 77.27 7.17 78.72 7.42 80.17 7.17 81.62 7.3 83.07 7.44 84.52 7.17 85.97 7.34 87.42 7.32 88.86 7.43 90.31 7.23 91.76 7.15 93.21 7.42 94.66 7.34 96.11 7.33 97.55 7.21 99 7.35 100.45 7.36 101.89 7.23 103.34 7.47 104.78 7.27 106.27 7.4 107.02 6.18 107.86 5.08 108.9 4.14 109.69 3.04 110.81 4.25 111.76 5.61 112.6 7.09 114.08 7.1 115.52 6.95 116.95 7.09 118.39 6.94 119.83 6.86 121.27 7.1 122.71 6.91 124.14 6.99 125.58 6.87 127.02 6.86 128.46 7.08 129.89 7.1 131.33 7.14 132.77 6.98 134.21 6.98 135.64 7.18 137.08 7.03 138.52 6.89 139.95 6.99 141.39 6.93 142.83 6.85 144.27 7.01 145.7 7.08 147.14 6.9 148.58 7.02 150.02 7.16 151.45 7.06 152.89 7.02 154.33 6.89 155.76 7.09 157.2 6.85 158.64 7.14 160.08 7.11 161.51 6.93 162.95 6.92 164.39 7.04 165.82 6.91 167.26 6.94 168.7 7.18 170.13 7.11 171.57 7.03 173.01 7.06 174.44 7.08 175.88 7.05 177.32 6.9 178.75 6.97 180.19 7.1 181.62 6.93 183.06 6.9 184.5 7.12 185.93 7.15 187.37 7.02 188.8 7.02 190.24 6.94 191.68 7.07 193.11 7.11 194.55 7.14 195.98 7 197.42 6.89 198.85 7.03 200.29 6.94 201.72 7.04 203.16 7.16 204.6 6.99 206.03 7.17 207.47 7.11 208.9 7.07 210.34 7.01 211.77 7.06 213.21 7.17 214.64 7.11 216.08 6.88 217.52 7.06 218.95 7.13 220.39 6.99 221.82 6.86 223.26 7.05 224.69 6.91 226.13 6.87 227.56 7.16 229 7.16 230.44 7.13 231.87 6.99 233.31 7.15 234.74 6.94 236.18 7.15 237.61 6.92 239.05 7.16 240.49 6.84 241.92 6.96 243.36 6.95 244.8 7.08 246.23 7.03 247.67 7.12 249.1 6.96 250.54 6.97 251.98 6.87 253.41 6.92 254.85 6.92 256.28 7.18 257.72 7.1 259.16 7.08 260.59 6.86 262.03 6.96 263.47 7 264.91 7.05 266.34 6.97 267.78 7.14 269.22 6.92 270.66 6.96 272.11 7.04 273.01 5.81 274.06 4.72 274.87 3.44 275.74 2.23 276.72 3.1 277.68 4.01 278.72 4.82 279.84 5.69 280.88 4.73 281.82 3.77 282.85 2.93 283.96 2.17 284.84 3.26 285.7 4.33 286.75 5.21 287.42 6.45 288.4 7.48 289.88 7.53 291.32 7.54 292.76 7.44 294.2 7.43 295.63 7.31 297.07 7.52 298.51 7.34 299.94 7.38 301.38 7.24 302.82 7.53 304.25 7.4 305.69 7.36 307.13 7.4 308.56 7.43 310 7.33 311.43 7.47 312.87 7.4 314.31 7.37 315.74 7.3 317.18 7.53 318.62 7.39 320.05 7.42 321.49 7.34 322.92 7.51 324.36 7.24 325.79 7.23 327.23 7.26 328.66 7.38 330.1 7.2 331.54 7.42 332.97 7.42 334.41 7.28 335.84 7.22 337.28 7.32 338.72 7.36 340.16 7.53 341.59 7.37 343.03 7.39 344.47 7.38 345.91 7.53 347.34 7.37 348.78 7.48 350.22 7.43 351.78 7.26 351.67 8.81 351.62 10.24 351.53 11.68 351.59 13.12 351.62 14.55 351.58 15.99 351.72 17.43 351.72 18.86 351.75 20.3 351.62 21.74 351.71 23.17 351.72 24.61 351.55 26.04 351.55 27.48 351.78 28.92 351.65 30.35 351.53 31.79 351.82 33.23 351.79 34.66 351.8 36.1 351.55 37.54 351.62 38.97 351.68 40.41 351.53 41.84 351.59 43.28 351.49 44.72 351.81 46.15 351.79 47.59 351.74 49.02 351.82 50.46 351.53 51.9 351.67 53.33 351.8 54.77 351.82 56.21 351.68 57.64 351.65 59.08 351.51 60.52 351.61 61.95 351.5 63.39 351.72 64.82 351.57 66.26 351.84 67.7 351.63 69.13 351.65 70.57 351.52 72 351.62 73.44 351.7 74.88 351.71 76.31 351.76 77.75 351.7 79.18 351.68 80.62 351.74 82.06 351.68 83.49 351.83 84.93 351.76 86.36 351.73 87.8 351.56 89.24 351.83 90.67 351.83 92.11 351.55 93.54 351.81 94.98 351.64 96.41 351.8 97.85 351.7 99.28 351.49 100.72 351.74 102.16 351.63 103.59 351.61 105.03 351.76 106.46 351.69 107.9 351.83 109.33 351.8 110.77 351.82 112.2 351.71 113.64 351.82 115.07 351.74 116.51 351.54 117.94 351.54 119.38 351.66 120.82 351.66 122.25 351.78 123.69 351.74 125.12 351.62 126.56 351.56 127.99 351.83 129.43 351.56 130.86 351.5 132.3 351.59 133.73 351.52 135.17 351.83 136.6 351.75 138.04 351.84 139.47 351.73 140.91 351.77 142.34 351.59 143.78 351.8 145.21 351.5 146.65 351.78 148.08 351.52 149.52 351.6 150.95 351.52 152.39 351.74 153.82 351.5 155.26 351.65 156.69 351.69 158.13 351.58 159.56 351.61 161 351.59 162.43 351.49 163.87 351.54 165.3 351.6 166.74 351.8 168.17 351.73 169.61 351.58 171.04 351.55 172.48 351.53 173.91 351.67 175.35 351.8 176.78 351.68 178.22 351.72 179.66 351.65 181.09 351.59 182.53 351.55 183.96 351.56 185.4 351.76 186.83 351.59 188.27 351.58 189.7 351.6 191.14 351.74 192.57 351.52 194.01 351.8 195.44 351.66 196.88 351.71 198.32 351.69 199.75 351.55 201.19 351.77 202.62 351.64 204.06 351.62 205.49 351.65 206.93 351.82 208.36 351.67 209.8 351.52 211.23 351.56 212.67 351.8 214.1 351.67 215.54 351.74 216.98 351.75 218.41 351.84 219.85 351.63 221.28 351.78 222.72 351.51 224.16 351.78 225.59 351.65 227.03 351.71 228.47 351.53 229.9 351.62 231.34 351.53 232.78 351.52 234.21 351.78 235.76"/></g></g></g></svg>