<?xml version="1.0" encoding="UTF-8"?><svg id="Layer_2" xmlns="http://www.w3.org/2000/svg" viewBox="0 0 154.4 53.63"><defs><style>.cls-1{fill:#fff;stroke-width:0px;}.cls-2{fill:none;stroke:#000;stroke-miterlimit:10;stroke-width:3px;}</style></defs><g id="bw"><g id="our_team_-_small.svg"><g id="Layer_29_Image"><polygon class="cls-1" points="123.19 46.93 124.6 47.22 126.03 47.38 127.44 47.63 128.87 47.78 130.29 48.03 131.7 48.3 133.11 48.55 134.53 48.79 135.96 48.96 137.38 49.21 138.79 49.43 140.2 49.74 141.63 49.88 143.03 50.22 144.46 50.38 145.87 50.68 147.3 50.84 148.72 51.11 150.15 51.3 151.55 51.56 150.84 50.28 150.18 48.96 149.39 47.7 148.7 46.39 148.03 45.07 147.27 43.8 146.58 42.48 145.83 41.2 145.19 39.86 144.53 38.53 143.76 37.25 143.1 35.92 142.26 34.66 142.29 33.21 142.37 31.77 142.28 30.34 142.33 28.9 142.38 27.47 142.24 26.03 142.36 24.6 142.28 23.16 142.33 21.72 142.3 20.28 142.25 18.85 142.36 17.41 142.25 15.97 142.29 14.54 142.28 13.1 142.31 11.66 142.3 10.23 142.21 8.79 142.25 7.35 142.26 5.91 142.32 4.47 142.29 3.02 142.28 1.55 140.82 1.52 139.39 1.51 137.95 1.56 136.52 1.64 135.09 1.6 133.66 1.53 132.23 1.55 130.79 1.63 129.36 1.62 127.92 1.62 126.49 1.6 125.05 1.52 123.62 1.54 122.19 1.53 120.75 1.59 119.32 1.62 117.89 1.51 116.46 1.56 115.03 1.58 113.59 1.58 112.16 1.59 110.73 1.58 109.3 1.57 107.87 1.51 106.43 1.55 105 1.64 103.56 1.6 102.13 1.62 100.69 1.62 99.26 1.58 97.82 1.55 96.39 1.55 94.95 1.56 93.52 1.53 92.09 1.65 90.65 1.53 89.22 1.57 87.79 1.52 86.35 1.57 84.92 1.62 83.48 1.55 82.04 1.64 80.61 1.6 79.17 1.63 77.74 1.59 76.3 1.63 74.87 1.58 73.44 1.58 72 1.6 70.56 1.65 69.13 1.64 67.69 1.51 66.25 1.59 64.82 1.62 63.38 1.65 61.95 1.59 60.51 1.54 59.08 1.57 57.64 1.53 56.2 1.52 54.77 1.61 53.33 1.58 51.89 1.63 50.46 1.54 49.03 1.61 47.6 1.56 46.17 1.65 44.73 1.63 43.29 1.5 41.86 1.6 40.42 1.52 38.99 1.51 37.55 1.59 36.12 1.51 34.68 1.59 33.24 1.6 31.81 1.53 30.37 1.63 28.93 1.64 27.5 1.63 26.06 1.53 24.62 1.61 23.18 1.52 21.74 1.51 20.3 1.6 18.86 1.61 17.42 1.54 15.98 1.64 14.55 1.63 13.11 1.6 11.67 1.53 10.23 1.53 8.79 1.64 7.35 1.65 5.91 1.55 4.46 1.62 3.02 1.51 1.59 1.6 1.6 3.03 1.64 4.49 1.56 5.95 1.57 7.41 1.57 8.86 1.54 10.32 1.63 11.77 1.59 13.23 1.55 14.69 1.51 16.15 1.61 17.6 1.52 19.06 1.62 20.52 1.58 21.98 1.59 23.44 1.64 24.9 1.63 26.36 1.62 27.82 1.55 29.28 1.6 30.74 1.58 32.2 1.57 33.66 1.5 35.11 1.62 36.58 1.62 38.04 1.58 39.5 1.63 40.96 1.63 42.42 1.56 43.89 1.64 45.35 1.58 46.81 3.01 46.78 4.46 46.8 5.9 46.86 7.35 46.8 8.79 46.79 10.23 46.76 11.68 46.82 13.12 46.76 14.57 46.78 16.01 46.84 17.46 46.81 18.9 46.8 20.35 46.76 21.8 46.83 23.25 46.77 24.69 46.87 26.14 46.81 27.59 46.79 29.03 46.79 30.48 46.78 31.92 46.86 33.37 46.9 34.81 46.77 36.26 46.9 37.7 46.92 39.15 46.81 40.6 46.82 42.05 46.92 43.5 46.84 44.94 46.79 46.39 46.9 47.84 46.82 49.28 46.79 50.73 46.9 52.18 46.83 53.62 46.9 55.07 46.86 56.52 46.83 57.97 46.9 59.42 46.84 60.86 46.86 62.31 46.82 63.76 46.82 65.21 46.9 66.66 46.86 68.11 46.92 69.55 46.84 71 46.83 72.45 46.88 73.89 46.82 75.33 46.9 76.78 46.91 78.22 46.88 79.67 46.89 81.12 46.87 82.57 46.87 84.02 46.84 85.46 46.9 86.91 46.83 88.36 46.9 89.81 46.9 91.26 46.89 92.71 46.9 94.15 46.92 95.6 46.95 97.05 46.95 98.5 46.97 99.95 46.88 101.4 46.96 102.85 46.93 104.31 46.93 105.76 46.96 107.21 46.95 108.66 46.97 110.11 46.85 111.56 46.92 113.01 46.91 114.46 46.98 115.92 46.84 117.37 46.98 118.82 46.9 120.28 46.9 121.74 46.92 123.19 46.93"/><polygon class="cls-2" points="123.19 46.93 124.6 47.22 126.03 47.38 127.44 47.63 128.87 47.78 130.29 48.03 131.7 48.3 133.11 48.55 134.53 48.79 135.96 48.96 137.38 49.21 138.79 49.43 140.2 49.74 141.63 49.88 143.03 50.22 144.46 50.38 145.87 50.68 147.3 50.84 148.72 51.11 150.15 51.3 151.55 51.56 150.84 50.28 150.18 48.96 149.39 47.7 148.7 46.39 148.03 45.07 147.27 43.8 146.58 42.48 145.83 41.2 145.19 39.86 144.53 38.53 143.76 37.25 143.1 35.92 142.26 34.66 142.29 33.21 142.37 31.77 142.28 30.34 142.33 28.9 142.38 27.47 142.24 26.03 142.36 24.6 142.28 23.16 142.33 21.72 142.3 20.28 142.25 18.85 142.36 17.41 142.25 15.97 142.29 14.54 142.28 13.1 142.31 11.66 142.3 10.23 142.21 8.79 142.25 7.35 142.26 5.91 142.32 4.47 142.29 3.02 142.28 1.55 140.82 1.52 139.39 1.51 137.95 1.56 136.52 1.64 135.09 1.6 133.66 1.53 132.23 1.55 130.79 1.63 129.36 1.62 127.92 1.62 126.49 1.6 125.05 1.52 123.62 1.54 122.19 1.53 120.75 1.59 119.32 1.62 117.89 1.51 116.46 1.56 115.03 1.58 113.59 1.58 112.16 1.59 110.73 1.58 109.3 1.57 107.87 1.51 106.43 1.55 105 1.64 103.56 1.6 102.13 1.62 100.69 1.62 99.26 1.58 97.82 1.55 96.39 1.55 94.95 1.56 93.52 1.53 92.09 1.65 90.65 1.53 89.22 1.57 87.79 1.52 86.35 1.57 84.92 1.62 83.48 1.55 82.04 1.64 80.61 1.6 79.17 1.63 77.74 1.59 76.3 1.63 74.87 1.58 73.44 1.58 72 1.6 70.56 1.65 69.13 1.64 67.69 1.51 66.25 1.59 64.82 1.62 63.38 1.65 61.95 1.59 60.51 1.54 59.08 1.57 57.64 1.53 56.2 1.52 54.77 1.61 53.33 1.58 51.89 1.63 50.46 1.54 49.03 1.61 47.6 1.56 46.17 1.65 44.73 1.63 43.29 1.5 41.86 1.6 40.42 1.52 38.99 1.51 37.55 1.59 36.12 1.51 34.68 1.59 33.24 1.6 31.81 1.53 30.37 1.63 28.93 1.64 27.5 1.63 26.06 1.53 24.62 1.61 23.18 1.52 21.74 1.51 20.3 1.6 18.86 1.61 17.42 1.54 15.98 1.64 14.55 1.63 13.11 1.6 11.67 1.53 10.23 1.53 8.79 1.64 7.35 1.65 5.91 1.55 4.46 1.62 3.02 1.51 1.59 1.6 1.6 3.03 1.64 4.49 1.56 5.95 1.57 7.41 1.57 8.86 1.54 10.32 1.63 11.77 1.59 13.23 1.55 14.69 1.51 16.15 1.61 17.6 1.52 19.06 1.62 20.52 1.58 21.98 1.59 23.44 1.64 24.9 1.63 26.36 1.62 27.82 1.55 29.28 1.6 30.74 1.58 32.2 1.57 33.66 1.5 35.11 1.62 36.58 1.62 38.04 1.58 39.5 1.63 40.96 1.63 42.42 1.56 43.89 1.64 45.35 1.58 46.81 3.01 46.78 4.46 46.8 5.9 46.86 7.35 46.8 8.79 46.79 10.23 46.76 11.68 46.82 13.12 46.76 14.57 46.78 16.01 46.84 17.46 46.81 18.9 46.8 20.35 46.76 21.8 46.83 23.25 46.77 24.69 46.87 26.14 46.81 27.59 46.79 29.03 46.79 30.48 46.78 31.92 46.86 33.37 46.9 34.81 46.77 36.26 46.9 37.7 46.92 39.15 46.81 40.6 46.82 42.05 46.92 43.5 46.84 44.94 46.79 46.39 46.9 47.84 46.82 49.28 46.79 50.73 46.9 52.18 46.83 53.62 46.9 55.07 46.86 56.52 46.83 57.97 46.9 59.42 46.84 60.86 46.86 62.31 46.82 63.76 46.82 65.21 46.9 66.66 46.86 68.11 46.92 69.55 46.84 71 46.83 72.45 46.88 73.89 46.82 75.33 46.9 76.78 46.91 78.22 46.88 79.67 46.89 81.12 46.87 82.57 46.87 84.02 46.84 85.46 46.9 86.91 46.83 88.36 46.9 89.81 46.9 91.26 46.89 92.71 46.9 94.15 46.92 95.6 46.95 97.05 46.95 98.5 46.97 99.95 46.88 101.4 46.96 102.85 46.93 104.31 46.93 105.76 46.96 107.21 46.95 108.66 46.97 110.11 46.85 111.56 46.92 113.01 46.91 114.46 46.98 115.92 46.84 117.37 46.98 118.82 46.9 120.28 46.9 121.74 46.92 123.19 46.93"/></g></g></g></svg>