<?xml version="1.0" encoding="UTF-8"?><svg id="Layer_2" xmlns="http://www.w3.org/2000/svg" viewBox="0 0 154.32 53.52"><defs><style>.cls-1{fill:#fff;stroke-width:0px;}.cls-2{fill:none;stroke:#000;stroke-miterlimit:10;stroke-width:3px;}</style></defs><g id="bw"><g id="our_team_-_small.svg"><g id="Layer_29_Image"><polygon class="cls-1" points="31.12 46.95 29.7 47.12 28.29 47.43 26.87 47.64 25.47 47.95 24.05 48.17 22.63 48.36 21.21 48.58 19.79 48.81 18.38 49.1 16.96 49.32 15.54 49.57 14.11 49.72 12.71 50.05 11.28 50.17 9.87 50.47 8.43 50.64 7.03 50.95 5.6 51.15 4.18 51.43 2.73 51.63 3.45 50.3 4.2 49.03 4.84 47.69 5.56 46.39 6.31 45.12 6.97 43.79 7.7 42.5 8.38 41.18 9.16 39.91 9.92 38.63 10.58 37.3 11.34 36.02 11.93 34.66 11.97 33.24 12.05 31.81 11.97 30.38 12.03 28.94 12.09 27.5 11.95 26.07 12.08 24.63 12 23.2 12.06 21.76 12.04 20.32 11.99 18.88 12.11 17.45 12.01 16.01 12.05 14.57 12.05 13.14 12.09 11.7 12.09 10.26 12 8.82 12.05 7.38 12.07 5.94 12.14 4.5 12.12 3.06 12.11 1.65 13.5 1.67 14.93 1.68 16.37 1.63 17.8 1.55 19.23 1.59 20.66 1.67 22.09 1.64 23.53 1.56 24.96 1.57 26.4 1.57 27.83 1.59 29.27 1.67 30.7 1.65 32.13 1.66 33.57 1.61 35 1.57 36.43 1.68 37.86 1.64 39.29 1.61 40.73 1.62 42.16 1.6 43.59 1.61 45.02 1.62 46.45 1.68 47.89 1.65 49.32 1.56 50.76 1.59 52.19 1.57 53.63 1.57 55.07 1.61 56.5 1.64 57.93 1.64 59.37 1.64 60.8 1.67 62.23 1.55 63.67 1.66 65.1 1.62 66.53 1.67 67.97 1.62 69.4 1.57 70.84 1.65 72.28 1.55 73.71 1.59 75.15 1.56 76.58 1.6 78.02 1.56 79.45 1.61 80.89 1.61 82.32 1.59 83.76 1.55 85.19 1.55 86.63 1.68 88.07 1.6 89.5 1.57 90.94 1.54 92.37 1.6 93.81 1.65 95.24 1.62 96.68 1.66 98.12 1.67 99.55 1.58 100.99 1.61 102.43 1.57 103.86 1.65 105.29 1.58 106.72 1.63 108.15 1.54 109.59 1.56 111.03 1.69 112.46 1.6 113.9 1.68 115.33 1.68 116.77 1.61 118.2 1.69 119.64 1.6 121.08 1.59 122.51 1.66 123.95 1.56 125.39 1.56 126.82 1.56 128.26 1.66 129.7 1.58 131.14 1.68 132.58 1.69 134.02 1.59 135.46 1.59 136.9 1.65 138.34 1.55 139.77 1.56 141.21 1.59 142.65 1.66 144.09 1.66 145.53 1.56 146.97 1.55 148.41 1.64 149.86 1.57 151.3 1.68 152.77 1.59 152.78 3.07 152.82 4.53 152.74 5.99 152.75 7.44 152.75 8.9 152.72 10.35 152.81 11.81 152.77 13.27 152.73 14.73 152.69 16.18 152.79 17.64 152.7 19.1 152.8 20.56 152.76 22.02 152.77 23.47 152.82 24.93 152.81 26.39 152.8 27.85 152.73 29.31 152.78 30.77 152.76 32.24 152.75 33.69 152.68 35.15 152.8 36.61 152.8 38.07 152.76 39.53 152.81 41 152.81 42.46 152.74 43.92 152.82 45.39 152.76 46.87 151.31 46.91 149.86 46.89 148.42 46.83 146.97 46.89 145.53 46.9 144.09 46.93 142.64 46.88 141.2 46.94 139.75 46.92 138.31 46.86 136.86 46.9 135.42 46.9 133.97 46.95 132.52 46.88 131.07 46.95 129.63 46.85 128.18 46.91 126.74 46.93 125.29 46.93 123.84 46.94 122.4 46.87 120.95 46.83 119.51 46.96 118.06 46.83 116.62 46.81 115.17 46.93 113.72 46.92 112.27 46.82 110.82 46.91 109.38 46.96 107.93 46.85 106.48 46.94 105.04 46.97 103.59 46.86 102.14 46.94 100.7 46.86 99.25 46.9 97.8 46.94 96.35 46.87 94.9 46.93 93.46 46.91 92.01 46.96 90.56 46.96 89.11 46.88 87.66 46.93 86.21 46.87 84.77 46.95 83.32 46.96 81.87 46.91 80.43 46.98 78.99 46.9 77.54 46.89 76.1 46.92 74.65 46.91 73.2 46.94 71.75 46.94 70.3 46.97 68.86 46.91 67.41 46.99 65.96 46.92 64.51 46.92 63.06 46.94 61.61 46.93 60.17 46.9 58.72 46.88 57.27 46.88 55.82 46.86 54.37 46.96 52.92 46.88 51.47 46.91 50.01 46.92 48.56 46.88 47.11 46.9 45.66 46.88 44.21 47.01 42.76 46.94 41.31 46.95 39.86 46.89 38.4 47.02 36.95 46.89 35.5 46.96 34.04 46.98 32.58 46.95 31.12 46.95"/><polygon class="cls-2" points="31.12 46.95 29.7 47.12 28.29 47.43 26.87 47.64 25.47 47.95 24.05 48.17 22.63 48.36 21.21 48.58 19.79 48.81 18.38 49.1 16.96 49.32 15.54 49.57 14.11 49.72 12.71 50.05 11.28 50.17 9.87 50.47 8.43 50.64 7.03 50.95 5.6 51.15 4.18 51.43 2.73 51.63 3.45 50.3 4.2 49.03 4.84 47.69 5.56 46.39 6.31 45.12 6.97 43.79 7.7 42.5 8.38 41.18 9.16 39.91 9.92 38.63 10.58 37.3 11.34 36.02 11.93 34.66 11.97 33.24 12.05 31.81 11.97 30.38 12.03 28.94 12.09 27.5 11.95 26.07 12.08 24.63 12 23.2 12.06 21.76 12.04 20.32 11.99 18.88 12.11 17.45 12.01 16.01 12.05 14.57 12.05 13.14 12.09 11.7 12.09 10.26 12 8.82 12.05 7.38 12.07 5.94 12.14 4.5 12.12 3.06 12.11 1.65 13.5 1.67 14.93 1.68 16.37 1.63 17.8 1.55 19.23 1.59 20.66 1.67 22.09 1.64 23.53 1.56 24.96 1.57 26.4 1.57 27.83 1.59 29.27 1.67 30.7 1.65 32.13 1.66 33.57 1.61 35 1.57 36.43 1.68 37.86 1.64 39.29 1.61 40.73 1.62 42.16 1.6 43.59 1.61 45.02 1.62 46.45 1.68 47.89 1.65 49.32 1.56 50.76 1.59 52.19 1.57 53.63 1.57 55.07 1.61 56.5 1.64 57.93 1.64 59.37 1.64 60.8 1.67 62.23 1.55 63.67 1.66 65.1 1.62 66.53 1.67 67.97 1.62 69.4 1.57 70.84 1.65 72.28 1.55 73.71 1.59 75.15 1.56 76.58 1.6 78.02 1.56 79.45 1.61 80.89 1.61 82.32 1.59 83.76 1.55 85.19 1.55 86.63 1.68 88.07 1.6 89.5 1.57 90.94 1.54 92.37 1.6 93.81 1.65 95.24 1.62 96.68 1.66 98.12 1.67 99.55 1.58 100.99 1.61 102.43 1.57 103.86 1.65 105.29 1.58 106.72 1.63 108.15 1.54 109.59 1.56 111.03 1.69 112.46 1.6 113.9 1.68 115.33 1.68 116.77 1.61 118.2 1.69 119.64 1.6 121.08 1.59 122.51 1.66 123.95 1.56 125.39 1.56 126.82 1.56 128.26 1.66 129.7 1.58 131.14 1.68 132.58 1.69 134.02 1.59 135.46 1.59 136.9 1.65 138.34 1.55 139.77 1.56 141.21 1.59 142.65 1.66 144.09 1.66 145.53 1.56 146.97 1.55 148.41 1.64 149.86 1.57 151.3 1.68 152.77 1.59 152.78 3.07 152.82 4.53 152.74 5.99 152.75 7.44 152.75 8.9 152.72 10.35 152.81 11.81 152.77 13.27 152.73 14.73 152.69 16.18 152.79 17.64 152.7 19.1 152.8 20.56 152.76 22.02 152.77 23.47 152.82 24.93 152.81 26.39 152.8 27.85 152.73 29.31 152.78 30.77 152.76 32.24 152.75 33.69 152.68 35.15 152.8 36.61 152.8 38.07 152.76 39.53 152.81 41 152.81 42.46 152.74 43.92 152.82 45.39 152.76 46.87 151.31 46.91 149.86 46.89 148.42 46.83 146.97 46.89 145.53 46.9 144.09 46.93 142.64 46.88 141.2 46.94 139.75 46.92 138.31 46.86 136.86 46.9 135.42 46.9 133.97 46.95 132.52 46.88 131.07 46.95 129.63 46.85 128.18 46.91 126.74 46.93 125.29 46.93 123.84 46.94 122.4 46.87 120.95 46.83 119.51 46.96 118.06 46.83 116.62 46.81 115.17 46.93 113.72 46.92 112.27 46.82 110.82 46.91 109.38 46.96 107.93 46.85 106.48 46.94 105.04 46.97 103.59 46.86 102.14 46.94 100.7 46.86 99.25 46.9 97.8 46.94 96.35 46.87 94.9 46.93 93.46 46.91 92.01 46.96 90.56 46.96 89.11 46.88 87.66 46.93 86.21 46.87 84.77 46.95 83.32 46.96 81.87 46.91 80.43 46.98 78.99 46.9 77.54 46.89 76.1 46.92 74.65 46.91 73.2 46.94 71.75 46.94 70.3 46.97 68.86 46.91 67.41 46.99 65.96 46.92 64.51 46.92 63.06 46.94 61.61 46.93 60.17 46.9 58.72 46.88 57.27 46.88 55.82 46.86 54.37 46.96 52.92 46.88 51.47 46.91 50.01 46.92 48.56 46.88 47.11 46.9 45.66 46.88 44.21 47.01 42.76 46.94 41.31 46.95 39.86 46.89 38.4 47.02 36.95 46.89 35.5 46.96 34.04 46.98 32.58 46.95 31.12 46.95"/></g></g></g></svg>