<?xml version="1.0" encoding="UTF-8"?><svg id="Layer_2" xmlns="http://www.w3.org/2000/svg" viewBox="0 0 354.3 255.15"><defs><style>.cls-1{fill:#fff;stroke-width:0px;}.cls-2{fill:none;stroke:#000;stroke-miterlimit:10;stroke-width:3px;}</style></defs><g id="bw"><g id="our_team_-_small.svg"><g id="Layer_29_Image"><polygon class="cls-1" points="22.25 145.25 22.07 143.8 22.13 142.36 22.1 140.93 22.28 139.49 22.21 138.05 22.26 136.61 22.21 135.18 22.39 133.74 22.4 132.3 22.07 130.87 22.05 129.43 22.32 127.99 22.1 126.56 22.17 125.12 22.15 123.68 22.39 122.25 22.38 120.81 22.07 119.37 22.4 117.94 22.12 116.5 22.06 115.07 22.35 113.63 22.38 112.19 22.39 110.76 22.28 109.32 22.26 107.88 22.35 106.45 22.33 105.01 22.06 103.57 22.37 102.14 22.28 100.7 22.11 99.27 22.15 97.83 22.2 96.4 22.13 94.96 22.26 93.53 22.32 92.09 22.36 90.66 22.14 89.22 22.26 87.78 22.06 86.35 22.06 84.91 22.23 83.48 22.1 82.04 22.23 80.61 22.2 79.18 22.27 77.74 22.24 76.31 22.08 74.87 22.35 73.44 22.08 72 22.23 70.57 22.18 69.14 22.18 67.7 22.24 66.27 22.23 64.84 22.1 63.4 22.23 61.97 22.35 60.54 22.19 59.1 22.33 57.67 22.14 56.24 22.11 54.81 22.1 53.37 22.4 51.94 22.37 50.61 22.29 49.27 22.56 47.95 22.54 46.62 22.62 45.29 22.55 43.95 22.52 42.65 22.04 41.44 21.54 40.25 21.16 38.89 19.81 39.85 18.51 40.65 17.07 41.21 15.76 41.99 14.47 42.79 13.1 43.48 11.79 44.18 11.93 42.75 12.01 41.28 11.91 39.81 11.98 38.34 12.24 36.86 11.43 35.57 10.25 34.65 8.77 34.44 7.34 34.09 5.89 33.83 4.42 33.71 2.92 33.13 4.18 32.05 4.95 30.71 6.07 29.67 7.06 28.52 8.01 27.33 9.01 26.19 9.93 24.98 9.13 23.88 8.51 22.63 7.68 21.53 6.71 20.52 6.1 19.26 5.32 18.13 4.38 17.1 3.61 15.87 5.17 16.04 6.64 16.41 8.13 16.65 9.64 16.68 11.1 17.14 12.61 17.25 14.09 17.5 15.58 17.71 17.1 17.66 18.64 18.17 18.98 16.71 19.54 15.42 19.82 14.04 20.25 12.71 20.59 11.36 21.2 10.09 21.56 8.74 21.85 7.37 22.27 6.04 22.53 4.66 23.11 3.48 23.69 4.74 24.61 5.93 25.2 7.29 25.98 8.55 26.49 9.97 27.44 11.13 28.16 12.42 28.63 13.84 29.56 15.02 30.21 16.22 31.55 16.02 32.87 15.43 34.23 14.96 35.53 14.34 36.84 13.73 38.18 13.21 39.59 12.86 40.94 12.36 42.29 11.89 43.55 11.18 44.82 10.83 45.07 12.25 44.64 13.74 43.66 14.95 43 16.33 42.23 17.64 41.49 18.99 41.44 20.54 41.48 22.07 42.26 23.36 43.61 23.33 45 23.44 46.38 23.46 47.77 23.31 49.21 23.36 50.65 23.59 52.08 23.46 53.52 23.31 54.96 23.31 56.4 23.53 57.83 23.46 59.27 23.26 60.71 23.28 62.14 23.31 63.58 23.55 65.02 23.44 66.45 23.34 67.89 23.25 69.33 23.54 70.76 23.27 72.2 23.4 73.64 23.44 75.07 23.26 76.51 23.4 77.95 23.43 79.38 23.24 80.82 23.21 82.26 23.52 83.69 23.29 85.13 23.54 86.57 23.42 88 23.25 89.44 23.41 90.88 23.34 92.31 23.49 93.75 23.26 95.19 23.39 96.62 23.37 98.06 23.33 99.5 23.39 100.94 23.26 102.37 23.55 103.81 23.49 105.24 23.54 106.68 23.4 108.12 23.36 109.55 23.59 110.99 23.67 112.41 23.65 113.82 23.49 115.19 23.13 116.58 22.91 117.9 22.41 119.22 21.92 120.48 21.26 121.55 20.34 122.49 19.28 123.58 18.44 124.68 17.47 125.65 18.64 126.53 19.74 127.62 20.62 128.64 21.58 129.47 22.73 130.46 23.87 131.85 23.05 133.27 22.46 134.5 21.52 135.91 20.79 137.28 21.59 138.54 22.44 139.79 23.26 141.21 23.43 142.65 23.4 144.08 23.45 145.51 23.15 146.95 23.22 148.38 23.34 149.82 23.29 151.25 23.48 152.69 23.36 154.12 23.39 155.56 23.43 156.99 23.34 158.43 23.36 159.86 23.31 161.29 23.31 162.73 23.47 164.16 23.19 165.6 23.33 167.03 23.23 168.47 23.21 169.9 23.21 171.34 23.38 172.77 23.14 174.21 23.43 175.64 23.24 177.08 23.37 178.51 23.24 179.94 23.24 181.38 23.33 182.81 23.45 184.25 23.14 185.68 23.46 187.12 23.46 188.55 23.39 189.99 23.47 191.42 23.38 192.86 23.18 194.29 23.46 195.73 23.15 197.16 23.2 198.6 23.36 200.03 23.26 201.46 23.14 202.9 23.33 204.33 23.16 205.77 23.14 207.2 23.36 208.64 23.35 210.07 23.3 211.51 23.45 212.94 23.48 214.38 23.39 215.81 23.23 217.25 23.42 218.68 23.48 220.12 23.42 221.55 23.23 222.99 23.47 224.42 23.36 225.86 23.19 227.29 23.38 228.73 23.28 230.16 23.21 231.6 23.21 233.03 23.23 234.47 23.35 235.9 23.44 237.34 23.19 238.77 23.28 240.21 23.18 241.64 23.44 243.08 23.25 244.51 23.16 245.95 23.46 247.38 23.46 248.81 23.3 250.25 23.33 251.68 23.24 253.12 23.44 254.55 23.38 255.99 23.19 257.42 23.46 258.86 23.15 260.29 23.23 261.73 23.17 263.17 23.41 264.6 23.4 266.04 23.47 267.47 23.3 268.91 23.39 270.34 23.25 271.78 23.18 273.21 23.37 274.65 23.29 276.08 23.29 277.52 23.32 278.96 23.41 280.39 23.28 281.83 23.21 283.26 23.35 284.7 23.47 286.13 23.34 287.57 23.19 289 23.28 290.44 23.46 291.88 23.41 293.31 23.21 294.75 23.16 296.19 23.27 297.62 23.14 299.06 23.45 300.5 23.37 301.93 23.48 303.37 23.15 304.81 23.43 306.25 23.46 307.65 23.21 308.64 22.47 309.63 21.7 310.78 21.1 311.71 20.15 313.12 20.98 314.49 21.81 315.87 22.61 317.18 23.62 318.64 23.47 320.07 23.5 321.49 23.46 322.92 23.38 324.35 23.67 325.78 23.43 327.21 23.65 328.64 23.65 330.07 23.38 331.5 23.44 332.93 23.55 334.36 23.33 335.79 23.38 337.22 23.37 338.65 23.59 340.09 23.4 341.52 23.42 342.96 23.5 344.39 23.37 345.83 23.54 347.26 23.54 348.7 23.49 350.13 23.46 351.56 23.49 351.76 24.92 351.82 26.35 351.88 27.78 351.73 29.22 351.76 30.66 352.03 32.08 352 33.52 352.11 34.95 352.13 36.38 352.12 37.81 352.06 39.25 352.26 40.68 352.2 42.12 351.96 43.55 352.04 44.99 352.03 46.42 352.28 47.86 352.03 49.3 352.23 50.73 352.05 52.17 352.29 53.6 352.22 55.04 352.17 56.48 352.43 57.91 352.24 59.35 352.24 60.79 352.15 62.23 352.3 63.67 352.5 65.1 352.33 66.54 352.46 67.98 352.51 69.41 352.35 70.84 352.51 72.27 352.43 73.7 352.44 75.13 352.34 76.57 352.55 78 352.6 79.43 352.39 80.86 352.28 82.3 352.41 83.73 352.34 85.17 352.4 86.6 352.32 88.03 352.47 89.47 352.53 90.9 352.47 92.34 352.52 93.77 352.5 95.21 352.55 96.64 352.58 98.08 352.54 99.52 352.72 100.95 352.4 102.39 352.66 103.83 352.68 105.26 352.62 106.69 352.67 108.13 352.68 109.56 352.55 111 352.66 112.43 352.58 113.87 352.56 115.3 352.76 116.74 352.49 118.18 352.67 119.61 352.52 121.05 352.77 122.49 352.48 123.93 352.64 125.36 352.49 126.8 352.57 128.24 352.56 129.68 352.59 131.13 352.61 132.57 352.46 134.01 352.74 135.45 352.49 136.89 352.69 138.33 352.71 139.77 352.51 141.21 352.66 142.65 352.66 144.09 352.54 145.54 352.67 146.98 352.53 148.42 352.73 149.86 352.7 151.3 352.61 152.75 352.77 154.19 352.61 155.63 352.61 157.07 352.64 158.52 352.75 159.96 352.53 161.4 352.74 162.85 352.64 164.29 352.63 165.73 352.57 167.17 352.49 168.62 352.56 170.06 352.63 171.5 352.58 172.94 352.66 174.39 352.61 175.83 352.74 177.27 352.57 178.71 352.76 180.16 352.63 181.6 352.77 183.04 352.54 184.48 352.64 185.92 352.55 187.36 352.56 188.8 352.59 190.24 352.62 191.68 352.58 193.12 352.45 194.56 352.61 196 352.66 197.44 352.49 198.88 352.61 200.32 352.4 201.75 352.59 203.19 352.47 204.63 352.35 206.06 352.66 207.5 352.63 208.93 352.43 210.36 352.38 211.8 352.32 213.24 352.41 214.67 352.38 216.11 352.58 217.55 352.5 218.98 352.55 220.42 352.38 221.85 352.46 223.28 352.17 224.71 352.45 226.16 352.25 227.59 352.31 229.02 352.19 230.45 351.98 231.88 351.99 233.3 352.03 234.84 350.54 234.79 349.11 234.84 347.68 234.85 346.25 234.68 344.81 234.77 343.38 235.01 341.95 234.79 340.52 234.94 339.09 234.76 337.66 234.74 336.23 234.84 334.79 235.05 333.36 234.78 331.93 235.03 330.5 234.85 329.06 234.75 327.63 234.8 326.2 235.03 324.76 234.99 323.33 234.93 321.9 234.69 320.46 234.83 319.01 234.81 317.57 234.92 316.12 235.01 314.67 234.89 313.22 234.98 311.77 234.77 310.32 235.05 308.87 234.82 307.42 234.98 305.98 234.84 304.53 234.97 303.08 234.75 301.63 235.02 300.18 234.7 298.73 234.97 297.28 235.02 295.84 234.94 294.39 234.94 292.94 234.94 291.49 234.8 290.04 234.97 288.59 234.84 287.12 235.03 285.65 235.01 284.18 234.74 282.7 234.71 281.23 234.88 279.76 234.92 278.29 234.92 276.81 234.88 275.34 234.72 273.87 234.75 272.4 234.82 270.92 234.74 269.45 234.71 267.98 235 266.51 234.71 265.03 234.84 263.56 234.76 262.09 234.81 260.62 235.02 259.14 234.78 257.67 234.84 256.2 234.73 254.75 234.74 253.3 234.92 251.85 234.78 250.4 234.88 248.96 234.8 247.51 234.96 246.06 234.8 244.61 234.79 243.16 234.89 241.71 234.93 240.26 234.71 238.82 234.85 237.37 235 235.92 234.91 234.47 234.93 233.02 234.82 231.57 234.69 230.12 234.91 228.68 234.97 227.23 234.74 225.78 234.72 224.33 234.72 222.9 234.75 221.46 234.81 220.03 234.8 218.59 234.96 217.16 234.75 215.72 234.83 214.29 234.88 212.85 234.87 211.42 235.03 209.98 234.88 208.55 234.77 207.12 234.94 205.68 234.77 204.25 235.01 202.81 234.84 201.38 234.83 199.95 234.87 198.51 234.97 197.08 234.98 195.65 234.77 194.22 234.98 192.82 234.94 191.87 235.91 190.8 236.83 190.31 238.15 189.72 239.43 189.66 240.84 189.51 242.23 189.54 243.62 189.56 245.02 189.49 246.43 189.21 247.82 188.58 249.2 187.66 247.94 186.63 246.88 185.87 245.63 185.19 244.34 184.48 243.07 183.69 241.84 182.84 240.63 181.55 239.89 180.47 238.91 179.14 238.32 178.01 238.88 176.85 239.41 175.87 240.24 174.74 240.8 174 239.45 173.11 238.2 172.07 237.1 170.64 236.85 169.24 237.35 167.9 237.95 166.9 239.05 166.13 240.31 165.21 241.48 164.5 242.8 163.32 243.57 162.5 242.73 161.66 241.77 160.91 240.74 160.19 239.67 159.8 238.25 158.95 237.05 157.65 236.36 156.5 235.46 155.07 235.22 153.66 234.96 152.23 234.65 150.79 234.98 149.32 234.66 147.87 234.8 146.41 234.78 144.96 235 143.5 235.04 142.04 235.02 140.58 234.92 139.13 234.76 137.67 234.97 136.21 235.02 134.75 235.07 133.3 234.79 131.84 235 130.38 234.91 128.92 234.81 127.47 234.94 126.01 235 124.55 234.85 123.1 234.84 121.65 234.76 120.21 234.81 118.77 234.78 117.33 234.84 115.89 234.74 114.45 234.69 113.01 234.86 111.57 234.88 110.13 234.87 108.69 234.72 107.25 234.81 105.81 234.81 104.37 235.01 102.93 234.7 101.49 235 100.05 234.89 98.61 234.95 97.17 234.86 95.73 234.98 94.29 234.79 92.85 234.94 91.41 234.73 89.97 234.95 88.53 234.74 87.09 234.99 85.65 235 84.21 234.95 82.77 234.71 81.33 234.81 79.89 234.96 78.45 234.98 77.01 235 75.57 234.89 74.13 235.02 72.69 234.94 71.25 234.96 69.8 234.87 68.35 235 66.87 234.95 65.45 235.36 64.01 235.61 62.57 235.87 61.15 236.24 59.77 236.61 58.45 237.17 57 237.3 55.72 238.01 54.28 238.19 52.94 238.67 51.52 238.93 50.19 239.46 48.85 239.96 47.43 240.18 46.05 240.56 44.74 241.16 43.41 241.69 41.94 241.77 40.62 242.34 39.21 242.61 37.91 243.25 36.53 243.62 35.13 243.91 33.82 244.51 32.45 244.91 31.02 245.12 29.68 245.62 28.29 245.96 26.92 246.37 25.55 246.75 24.26 247.42 22.84 247.67 21.49 248.15 20.07 248.38 18.78 249.06 17.38 249.35 15.98 249.65 14.65 250.19 13.24 250.44 11.87 250.86 10.5 251.26 9.21 251.92 7.86 252.08 6.58 252.49 5.26 252.74 3.99 253.19 2.7 253.34 3.32 252.2 4.15 251.14 5.02 250.11 5.71 248.96 6.62 247.81 7.25 246.49 8.22 245.39 9.09 244.23 9.69 242.88 10.71 241.82 11.41 240.54 12.1 239.25 13.13 238.2 13.95 237 14.57 235.67 15.56 234.58 16.32 233.34 17.13 232.14 17.78 230.83 18.72 229.71 19.5 228.48 20.21 227.21 21.01 225.9 21.33 224.38 21.79 222.94 22.19 221.44 22.04 219.98 22.2 218.52 22.21 217.06 22.15 215.6 22.1 214.15 21.97 212.69 21.95 211.23 22.25 209.77 22.14 208.32 22.18 206.86 21.97 205.4 22.26 203.94 21.95 202.49 22.22 201.03 22.26 199.57 22.03 198.11 22.12 196.65 22.21 195.2 22.21 193.74 22.18 192.28 22.16 190.82 22.08 189.36 22.22 187.91 22.16 186.45 22.15 184.99 22.11 183.53 21.96 182.08 21.96 180.62 22.22 179.16 22.16 177.7 22 176.24 22.23 174.78 22.22 173.32 21.98 171.86 22.14 170.4 22.2 168.93 22.1 167.47 21.02 166.67 19.82 166.03 18.74 165.23 17.57 164.55 16.6 163.71 17.54 162.84 18.49 161.87 19.39 160.85 20.36 159.91 21.21 158.84 22.04 157.77 23.06 156.87 24.15 155.86 23.16 154.8 22.22 153.88 21.22 153.01 20.31 152.07 19.32 151.18 18.47 150.19 19.44 148.99 20.29 147.67 21.42 146.58 22.25 145.25"/><polygon class="cls-2" points="22.25 145.25 22.07 143.8 22.13 142.36 22.1 140.93 22.28 139.49 22.21 138.05 22.26 136.61 22.21 135.18 22.39 133.74 22.4 132.3 22.07 130.87 22.05 129.43 22.32 127.99 22.1 126.56 22.17 125.12 22.15 123.68 22.39 122.25 22.38 120.81 22.07 119.37 22.4 117.94 22.12 116.5 22.06 115.07 22.35 113.63 22.38 112.19 22.39 110.76 22.28 109.32 22.26 107.88 22.35 106.45 22.33 105.01 22.06 103.57 22.37 102.14 22.28 100.7 22.11 99.27 22.15 97.83 22.2 96.4 22.13 94.96 22.26 93.53 22.32 92.09 22.36 90.66 22.14 89.22 22.26 87.78 22.06 86.35 22.06 84.91 22.23 83.48 22.1 82.04 22.23 80.61 22.2 79.18 22.27 77.74 22.24 76.31 22.08 74.87 22.35 73.44 22.08 72 22.23 70.57 22.18 69.14 22.18 67.7 22.24 66.27 22.23 64.84 22.1 63.4 22.23 61.97 22.35 60.54 22.19 59.1 22.33 57.67 22.14 56.24 22.11 54.81 22.1 53.37 22.4 51.94 22.37 50.61 22.29 49.27 22.56 47.95 22.54 46.62 22.62 45.29 22.55 43.95 22.52 42.65 22.04 41.44 21.54 40.25 21.16 38.89 19.81 39.85 18.51 40.65 17.07 41.21 15.76 41.99 14.47 42.79 13.1 43.48 11.79 44.18 11.93 42.75 12.01 41.28 11.91 39.81 11.98 38.34 12.24 36.86 11.43 35.57 10.25 34.65 8.77 34.44 7.34 34.09 5.89 33.83 4.42 33.71 2.92 33.13 4.18 32.05 4.95 30.71 6.07 29.67 7.06 28.52 8.01 27.33 9.01 26.19 9.93 24.98 9.13 23.88 8.51 22.63 7.68 21.53 6.71 20.52 6.1 19.26 5.32 18.13 4.38 17.1 3.61 15.87 5.17 16.04 6.64 16.41 8.13 16.65 9.64 16.68 11.1 17.14 12.61 17.25 14.09 17.5 15.58 17.71 17.1 17.66 18.64 18.17 18.98 16.71 19.54 15.42 19.82 14.04 20.25 12.71 20.59 11.36 21.2 10.09 21.56 8.74 21.85 7.37 22.27 6.04 22.53 4.66 23.11 3.48 23.69 4.74 24.61 5.93 25.2 7.29 25.98 8.55 26.49 9.97 27.44 11.13 28.16 12.42 28.63 13.84 29.56 15.02 30.21 16.22 31.55 16.02 32.87 15.43 34.23 14.96 35.53 14.34 36.84 13.73 38.18 13.21 39.59 12.86 40.94 12.36 42.29 11.89 43.55 11.18 44.82 10.83 45.07 12.25 44.64 13.74 43.66 14.95 43 16.33 42.23 17.64 41.49 18.99 41.44 20.54 41.48 22.07 42.26 23.36 43.61 23.33 45 23.44 46.38 23.46 47.77 23.31 49.21 23.36 50.65 23.59 52.08 23.46 53.52 23.31 54.96 23.31 56.4 23.53 57.83 23.46 59.27 23.26 60.71 23.28 62.14 23.31 63.58 23.55 65.02 23.44 66.45 23.34 67.89 23.25 69.33 23.54 70.76 23.27 72.2 23.4 73.64 23.44 75.07 23.26 76.51 23.4 77.95 23.43 79.38 23.24 80.82 23.21 82.26 23.52 83.69 23.29 85.13 23.54 86.57 23.42 88 23.25 89.44 23.41 90.88 23.34 92.31 23.49 93.75 23.26 95.19 23.39 96.62 23.37 98.06 23.33 99.5 23.39 100.94 23.26 102.37 23.55 103.81 23.49 105.24 23.54 106.68 23.4 108.12 23.36 109.55 23.59 110.99 23.67 112.41 23.65 113.82 23.49 115.19 23.13 116.58 22.91 117.9 22.41 119.22 21.92 120.48 21.26 121.55 20.34 122.49 19.28 123.58 18.44 124.68 17.47 125.65 18.64 126.53 19.74 127.62 20.62 128.64 21.58 129.47 22.73 130.46 23.87 131.85 23.05 133.27 22.46 134.5 21.52 135.91 20.79 137.28 21.59 138.54 22.44 139.79 23.26 141.21 23.43 142.65 23.4 144.08 23.45 145.51 23.15 146.95 23.22 148.38 23.34 149.82 23.29 151.25 23.48 152.69 23.36 154.12 23.39 155.56 23.43 156.99 23.34 158.43 23.36 159.86 23.31 161.29 23.31 162.73 23.47 164.16 23.19 165.6 23.33 167.03 23.23 168.47 23.21 169.9 23.21 171.34 23.38 172.77 23.14 174.21 23.43 175.64 23.24 177.08 23.37 178.51 23.24 179.94 23.24 181.38 23.33 182.81 23.45 184.25 23.14 185.68 23.46 187.12 23.46 188.55 23.39 189.99 23.47 191.42 23.38 192.86 23.18 194.29 23.46 195.73 23.15 197.16 23.2 198.6 23.36 200.03 23.26 201.46 23.14 202.9 23.33 204.33 23.16 205.77 23.14 207.2 23.36 208.64 23.35 210.07 23.3 211.51 23.45 212.94 23.48 214.38 23.39 215.81 23.23 217.25 23.42 218.68 23.48 220.12 23.42 221.55 23.23 222.99 23.47 224.42 23.36 225.86 23.19 227.29 23.38 228.73 23.28 230.16 23.21 231.6 23.21 233.03 23.23 234.47 23.35 235.9 23.44 237.34 23.19 238.77 23.28 240.21 23.18 241.64 23.44 243.08 23.25 244.51 23.16 245.95 23.46 247.38 23.46 248.81 23.3 250.25 23.33 251.68 23.24 253.12 23.44 254.55 23.38 255.99 23.19 257.42 23.46 258.86 23.15 260.29 23.23 261.73 23.17 263.17 23.41 264.6 23.4 266.04 23.47 267.47 23.3 268.91 23.39 270.34 23.25 271.78 23.18 273.21 23.37 274.65 23.29 276.08 23.29 277.52 23.32 278.96 23.41 280.39 23.28 281.83 23.21 283.26 23.35 284.7 23.47 286.13 23.34 287.57 23.19 289 23.28 290.44 23.46 291.88 23.41 293.31 23.21 294.75 23.16 296.19 23.27 297.62 23.14 299.06 23.45 300.5 23.37 301.93 23.48 303.37 23.15 304.81 23.43 306.25 23.46 307.65 23.21 308.64 22.47 309.63 21.7 310.78 21.1 311.71 20.15 313.12 20.98 314.49 21.81 315.87 22.61 317.18 23.62 318.64 23.47 320.07 23.5 321.49 23.46 322.92 23.38 324.35 23.67 325.78 23.43 327.21 23.65 328.64 23.65 330.07 23.38 331.5 23.44 332.93 23.55 334.36 23.33 335.79 23.38 337.22 23.37 338.65 23.59 340.09 23.4 341.52 23.42 342.96 23.5 344.39 23.37 345.83 23.54 347.26 23.54 348.7 23.49 350.13 23.46 351.56 23.49 351.76 24.92 351.82 26.35 351.88 27.78 351.73 29.22 351.76 30.66 352.03 32.08 352 33.52 352.11 34.95 352.13 36.38 352.12 37.81 352.06 39.25 352.26 40.68 352.2 42.12 351.96 43.55 352.04 44.99 352.03 46.42 352.28 47.86 352.03 49.3 352.23 50.73 352.05 52.17 352.29 53.6 352.22 55.04 352.17 56.48 352.43 57.91 352.24 59.35 352.24 60.79 352.15 62.23 352.3 63.67 352.5 65.1 352.33 66.54 352.46 67.98 352.51 69.41 352.35 70.84 352.51 72.27 352.43 73.7 352.44 75.13 352.34 76.57 352.55 78 352.6 79.43 352.39 80.86 352.28 82.3 352.41 83.73 352.34 85.17 352.4 86.6 352.32 88.03 352.47 89.47 352.53 90.9 352.47 92.34 352.52 93.77 352.5 95.21 352.55 96.64 352.58 98.08 352.54 99.52 352.72 100.95 352.4 102.39 352.66 103.83 352.68 105.26 352.62 106.69 352.67 108.13 352.68 109.56 352.55 111 352.66 112.43 352.58 113.87 352.56 115.3 352.76 116.74 352.49 118.18 352.67 119.61 352.52 121.05 352.77 122.49 352.48 123.93 352.64 125.36 352.49 126.8 352.57 128.24 352.56 129.68 352.59 131.13 352.61 132.57 352.46 134.01 352.74 135.45 352.49 136.89 352.69 138.33 352.71 139.77 352.51 141.21 352.66 142.65 352.66 144.09 352.54 145.54 352.67 146.98 352.53 148.42 352.73 149.86 352.7 151.3 352.61 152.75 352.77 154.19 352.61 155.63 352.61 157.07 352.64 158.52 352.75 159.96 352.53 161.4 352.74 162.85 352.64 164.29 352.63 165.73 352.57 167.17 352.49 168.62 352.56 170.06 352.63 171.5 352.58 172.94 352.66 174.39 352.61 175.83 352.74 177.27 352.57 178.71 352.76 180.16 352.63 181.6 352.77 183.04 352.54 184.48 352.64 185.92 352.55 187.36 352.56 188.8 352.59 190.24 352.62 191.68 352.58 193.12 352.45 194.56 352.61 196 352.66 197.44 352.49 198.88 352.61 200.32 352.4 201.75 352.59 203.19 352.47 204.63 352.35 206.06 352.66 207.5 352.63 208.93 352.43 210.36 352.38 211.8 352.32 213.24 352.41 214.67 352.38 216.11 352.58 217.55 352.5 218.98 352.55 220.42 352.38 221.85 352.46 223.28 352.17 224.71 352.45 226.16 352.25 227.59 352.31 229.02 352.19 230.45 351.98 231.88 351.99 233.3 352.03 234.84 350.54 234.79 349.11 234.84 347.68 234.85 346.25 234.68 344.81 234.77 343.38 235.01 341.95 234.79 340.52 234.94 339.09 234.76 337.66 234.74 336.23 234.84 334.79 235.05 333.36 234.78 331.93 235.03 330.5 234.85 329.06 234.75 327.63 234.8 326.2 235.03 324.76 234.99 323.33 234.93 321.9 234.69 320.46 234.83 319.01 234.81 317.57 234.92 316.12 235.01 314.67 234.89 313.22 234.98 311.77 234.77 310.32 235.05 308.87 234.82 307.42 234.98 305.98 234.84 304.53 234.97 303.08 234.75 301.63 235.02 300.18 234.7 298.73 234.97 297.28 235.02 295.84 234.94 294.39 234.94 292.94 234.94 291.49 234.8 290.04 234.97 288.59 234.84 287.12 235.03 285.65 235.01 284.18 234.74 282.7 234.71 281.23 234.88 279.76 234.92 278.29 234.92 276.81 234.88 275.34 234.72 273.87 234.75 272.4 234.82 270.92 234.74 269.45 234.71 267.98 235 266.51 234.71 265.03 234.84 263.56 234.76 262.09 234.81 260.62 235.02 259.14 234.78 257.67 234.84 256.2 234.73 254.75 234.74 253.3 234.92 251.85 234.78 250.4 234.88 248.96 234.8 247.51 234.96 246.06 234.8 244.61 234.79 243.16 234.89 241.71 234.93 240.26 234.71 238.82 234.85 237.37 235 235.92 234.91 234.47 234.93 233.02 234.82 231.57 234.69 230.12 234.91 228.68 234.97 227.23 234.74 225.78 234.72 224.33 234.72 222.9 234.75 221.46 234.81 220.03 234.8 218.59 234.96 217.16 234.75 215.72 234.83 214.29 234.88 212.85 234.87 211.42 235.03 209.98 234.88 208.55 234.77 207.12 234.94 205.68 234.77 204.25 235.01 202.81 234.84 201.38 234.83 199.95 234.87 198.51 234.97 197.08 234.98 195.65 234.77 194.22 234.98 192.82 234.94 191.87 235.91 190.8 236.83 190.31 238.15 189.72 239.43 189.66 240.84 189.51 242.23 189.54 243.62 189.56 245.02 189.49 246.43 189.21 247.82 188.58 249.2 187.66 247.94 186.63 246.88 185.87 245.63 185.19 244.34 184.48 243.07 183.69 241.84 182.84 240.63 181.55 239.89 180.47 238.91 179.14 238.32 178.01 238.88 176.85 239.41 175.87 240.24 174.74 240.8 174 239.45 173.11 238.2 172.07 237.1 170.64 236.85 169.24 237.35 167.9 237.95 166.9 239.05 166.13 240.31 165.21 241.48 164.5 242.8 163.32 243.57 162.5 242.73 161.66 241.77 160.91 240.74 160.19 239.67 159.8 238.25 158.95 237.05 157.65 236.36 156.5 235.46 155.07 235.22 153.66 234.96 152.23 234.65 150.79 234.98 149.32 234.66 147.87 234.8 146.41 234.78 144.96 235 143.5 235.04 142.04 235.02 140.58 234.92 139.13 234.76 137.67 234.97 136.21 235.02 134.75 235.07 133.3 234.79 131.84 235 130.38 234.91 128.92 234.81 127.47 234.94 126.01 235 124.55 234.85 123.1 234.84 121.65 234.76 120.21 234.81 118.77 234.78 117.33 234.84 115.89 234.74 114.45 234.69 113.01 234.86 111.57 234.88 110.13 234.87 108.69 234.72 107.25 234.81 105.81 234.81 104.37 235.01 102.93 234.7 101.49 235 100.05 234.89 98.61 234.95 97.17 234.86 95.73 234.98 94.29 234.79 92.85 234.94 91.41 234.73 89.97 234.95 88.53 234.74 87.09 234.99 85.65 235 84.21 234.95 82.77 234.71 81.33 234.81 79.89 234.96 78.45 234.98 77.01 235 75.57 234.89 74.13 235.02 72.69 234.94 71.25 234.96 69.8 234.87 68.35 235 66.87 234.95 65.45 235.36 64.01 235.61 62.57 235.87 61.15 236.24 59.77 236.61 58.45 237.17 57 237.3 55.72 238.01 54.28 238.19 52.94 238.67 51.52 238.93 50.19 239.46 48.85 239.96 47.43 240.18 46.05 240.56 44.74 241.16 43.41 241.69 41.94 241.77 40.62 242.34 39.21 242.61 37.91 243.25 36.53 243.62 35.13 243.91 33.82 244.51 32.45 244.91 31.02 245.12 29.68 245.62 28.29 245.96 26.92 246.37 25.55 246.75 24.26 247.42 22.84 247.67 21.49 248.15 20.07 248.38 18.78 249.06 17.38 249.35 15.98 249.65 14.65 250.19 13.24 250.44 11.87 250.86 10.5 251.26 9.21 251.92 7.86 252.08 6.58 252.49 5.26 252.74 3.99 253.19 2.7 253.34 3.32 252.2 4.15 251.14 5.02 250.11 5.71 248.96 6.62 247.81 7.25 246.49 8.22 245.39 9.09 244.23 9.69 242.88 10.71 241.82 11.41 240.54 12.1 239.25 13.13 238.2 13.95 237 14.57 235.67 15.56 234.58 16.32 233.34 17.13 232.14 17.78 230.83 18.72 229.71 19.5 228.48 20.21 227.21 21.01 225.9 21.33 224.38 21.79 222.94 22.19 221.44 22.04 219.98 22.2 218.52 22.21 217.06 22.15 215.6 22.1 214.15 21.97 212.69 21.95 211.23 22.25 209.77 22.14 208.32 22.18 206.86 21.97 205.4 22.26 203.94 21.95 202.49 22.22 201.03 22.26 199.57 22.03 198.11 22.12 196.65 22.21 195.2 22.21 193.74 22.18 192.28 22.16 190.82 22.08 189.36 22.22 187.91 22.16 186.45 22.15 184.99 22.11 183.53 21.96 182.08 21.96 180.62 22.22 179.16 22.16 177.7 22 176.24 22.23 174.78 22.22 173.32 21.98 171.86 22.14 170.4 22.2 168.93 22.1 167.47 21.02 166.67 19.82 166.03 18.74 165.23 17.57 164.55 16.6 163.71 17.54 162.84 18.49 161.87 19.39 160.85 20.36 159.91 21.21 158.84 22.04 157.77 23.06 156.87 24.15 155.86 23.16 154.8 22.22 153.88 21.22 153.01 20.31 152.07 19.32 151.18 18.47 150.19 19.44 148.99 20.29 147.67 21.42 146.58 22.25 145.25"/></g></g></g></svg>