<?xml version="1.0" encoding="utf-8" ?>
<svg xmlns="http://www.w3.org/2000/svg" xmlns:xlink="http://www.w3.org/1999/xlink" width="600" height="400">
	<path fill="#020202" d="M204.037 29.8877C205.598 29.9648 206.909 30.1729 208.13 31.2396C213.388 35.8342 217.999 42.5899 222.833 47.8188C229.508 55.0377 236.867 61.462 243.728 68.4739L261.725 86.5389C265.275 90.0816 268.773 94.1191 272.78 97.1309C275.573 93.3224 278.969 89.9082 282.004 86.2865C288.092 79.0225 294.015 71.3994 300.49 64.4847C304.355 60.3577 308.673 56.6688 312.649 52.6568C315.082 50.2014 316.787 46.9352 320.104 45.58C321.448 45.7012 322.922 47.0313 323.873 47.9108C327.09 50.8867 329.582 54.6228 332.161 58.1398C334.518 61.3532 337.036 64.4486 339.365 67.6818C341.247 70.2939 342.962 73.0454 344.928 75.5937C348.375 80.0605 352.682 83.7828 355.787 88.5406C356.844 90.1605 357.216 91.1887 357.302 93.1211C361.952 90.0542 366.008 87.4291 371.203 85.3112C377.231 82.8538 383.409 80.8364 389.535 78.6477C393.847 77.1067 398.079 75.3635 402.422 73.9023C415.509 69.4992 428.786 65.6444 441.935 61.4251C462.068 54.9644 482.278 47.9105 502.782 42.7243C505.122 42.1325 507.517 41.9306 509.848 41.3756C511.797 40.9115 514.075 39.7565 516.077 40.0445C516.654 40.5353 516.913 40.7733 517.043 41.5734C517.499 44.3824 511.39 59.4456 510.159 62.287C505.943 72.0227 500.429 81.0682 495.832 90.6037L479.252 125.836C477.179 130.197 474.977 136.386 471.975 140.107C489.339 135.142 507.537 133.524 525.415 131.583C530.671 131.012 536.822 129.667 542.042 130.34C543.053 130.471 544.062 130.64 544.673 131.548C545.22 132.363 545.217 133.357 545.06 134.289C544.607 136.992 542.589 139.059 540.864 141.05C538.083 144.262 534.934 147.203 531.927 150.205C528.589 153.537 525.421 157.032 522.094 160.366C519.785 162.681 517.34 164.835 515.088 167.213C508.386 174.287 502.052 181.68 495.388 188.797C493.104 191.237 490.724 194.404 488.001 196.327C497.921 197.424 509.779 205.894 518.766 210.362C525.905 213.91 533.24 216.858 540.16 220.877C546.604 224.619 552.377 229.232 558.628 233.243C565 237.333 571.695 240.823 577.89 245.222C581.043 247.462 584.402 250.176 585.03 254.221C585.316 256.067 585.173 258.665 583.966 260.169C583.194 261.131 581.798 261.994 580.612 262.312C577.32 263.193 573.259 263.117 569.852 263.514C564.465 264.14 559.102 265.048 553.748 265.906C528.157 270.005 503.073 276.229 478.087 283.042C472.591 284.54 467.045 286.056 461.626 287.811C456.494 289.472 451.634 291.583 446.25 292.329C446.457 292.502 446.636 292.66 446.806 292.871C451.866 299.166 456.557 321.38 459.608 330.32C462.074 337.544 465.264 344.822 468.652 351.654C470.061 354.494 472.905 358.725 472.374 361.968C472.236 362.809 471.849 363.57 471.131 364.052C470.302 364.607 469.574 364.67 468.618 364.332C464.663 362.934 453.096 352.289 448.846 349.029C445.346 346.344 441.557 344.223 437.865 341.829C429.889 336.658 421.876 331.6 413.799 326.594C410.638 324.635 402.53 319.048 399.377 318.492C399.247 318.469 399.115 318.453 398.985 318.433C397.245 316.412 383.049 310.442 379.5 308.614C373.589 305.568 368.971 300.473 363.207 297.191C361.413 298.537 360.155 301.017 358.636 302.709C355.419 306.296 351.925 309.632 348.715 313.226C343.904 318.613 338.66 325.405 334.511 331.338C331.781 335.241 329.962 343.248 325.47 345.285C323.942 345.978 322.142 345.828 320.595 345.277C311.229 341.941 298.971 316.474 293.921 307.304C291.344 302.624 288.45 298.312 286.126 293.469C283.291 297.42 279.581 300.999 276.269 304.558C273.185 307.873 270.391 311.436 267.311 314.751C264.438 317.843 261.272 320.669 258.45 323.804C256.432 326.046 254.635 328.493 252.654 330.773L233.912 352.252C230.126 356.603 226.028 360.735 222.173 365.036C218.6 369.021 214.974 372.863 211.328 376.774C209.344 378.903 207.402 381.292 205.191 383.189C204.356 383.905 203.574 384.408 202.49 384.675C200.784 385.094 198.798 384.753 197.309 383.829C193.99 381.768 192.436 375.797 191.442 372.176C190.053 367.122 189.476 361.992 188.58 356.844Q185.027 336.201 182.808 315.372C182.158 309.748 181.881 304.075 181.117 298.46C180.58 294.512 179.577 290.651 178.633 286.786C177.885 288.136 177.138 289.248 175.759 290.011C172.388 291.876 168.667 293.247 165.128 294.771Q157.983 297.806 151.028 301.255L114.434 319.1C111.857 320.349 109.578 322.147 106.949 323.298C103.485 324.815 96.3813 327.964 92.7431 326.35C92.0161 326.028 91.575 325.537 91.3424 324.775C88.6865 316.082 119.584 273.772 125.22 263.485C117.989 262.18 111.881 258.49 105.498 255.072C102.3 253.36 98.8574 252.11 95.7101 250.33C89.8107 246.994 84.2014 243.122 78.1752 240.013C72.5206 237.097 66.4759 235.245 60.7204 232.601C54.2126 229.612 48.0606 225.89 41.5943 222.834C37.8093 221.045 33.7284 219.696 29.7045 218.57C25.4158 217.368 20.48 216.442 16.6145 214.146C15.3509 213.395 13.9585 212.31 13.6389 210.795C13.4443 209.873 13.7419 208.945 14.2529 208.173C16.1151 205.357 34.2551 201.55 38.0765 200.454C46.3146 198.093 54.4104 195.303 62.6727 193.013C70.0512 190.968 77.5927 189.438 84.9063 187.184C90.4044 185.49 95.9802 183.651 101.393 181.708C106.267 179.958 111.005 178.057 116.045 176.792C109.157 169.913 105.685 162.184 101.622 153.505Q98.1512 146.252 94.5431 139.067C92.6031 135.251 90.1255 131.764 88.0461 128.031C85.5208 123.498 83.5054 118.683 80.8498 114.21C78.8435 110.83 76.3136 107.724 73.9883 104.562C71.0912 100.623 66.0163 92.39 66.9232 87.4223C67.0571 86.6889 67.2667 86.0919 67.8976 85.6769C73.1677 82.2101 97.8369 89.2159 104.301 90.5831C112.245 92.263 120.282 93.5329 128.209 95.3098C134.69 96.7627 141.032 98.697 147.553 100.013C158.502 102.221 169.675 103.299 180.599 105.651C180.966 100.353 182.921 94.7457 184.226 89.5763C187.126 78.08 189.754 66.7781 193.805 55.6071C195.796 50.117 198.852 44.3798 200.621 39.2045C201.21 37.4822 201.321 35.5716 201.76 33.8026C202.145 32.2501 202.591 30.7402 204.037 29.8877Z"/>
	<path fill="#AB2218" d="M207.983 40.3124C209.749 42.0906 211.23 44.5894 212.803 46.5704Q217.422 52.468 222.641 57.8416C227.479 62.8088 232.713 67.2936 237.755 72.0408C241.327 75.4027 244.504 79.1632 248.039 82.5583C251.341 85.7283 255.025 88.5361 258.426 91.6058C261.946 94.7824 265.323 98.8307 269.173 101.546C269.822 102.004 270.374 102.211 271.161 102.3C279.822 100.177 297.141 77.1029 304.317 69.9272C309.856 64.3877 316.07 59.64 321.623 54.1079C325.477 59.9849 329.736 65.4765 333.865 71.1472C336.096 74.2116 338.089 77.4908 340.499 80.4186C342.802 83.2178 345.533 85.6397 347.896 88.3883C350.613 91.5496 352.708 94.8869 356.045 97.489C361.353 95.6992 366.231 92.9231 371.524 91.1347C401.609 80.9685 431.957 71.6321 462.104 61.6501L491.241 52.2113C496.809 50.4496 505.853 47.9026 510.938 45.3948C510.995 45.6668 511.02 45.9396 511.024 46.2182C511.084 50.8133 489.679 87.404 485.815 94.6464C482.308 101.22 479.096 107.92 475.841 114.618C473.607 119.218 471.287 123.805 469.287 128.512C467.986 131.575 467.044 134.867 465.582 137.844C465.089 138.848 464.58 139.757 463.744 140.519C464.877 141.584 465.573 143.019 465.999 144.496C469.065 144.755 472.079 144.515 475.131 144.188C482.462 143.401 489.713 141.93 497.02 140.953C503.425 140.097 533.788 137.123 537.424 135.439C537.312 136.498 536.47 137.273 535.789 138.032C533.411 140.681 530.784 143.109 528.275 145.632L511.997 161.939C506.513 167.435 501.444 173.251 496.099 178.862C493.197 181.908 490.043 184.792 487.267 187.948C485.299 190.185 484.295 192.846 482.628 195.244C482.588 195.3 482.548 195.356 482.508 195.412C483.925 196.361 484.57 197.858 485.767 199.001C487.928 201.064 492.015 201.967 494.723 203.218C500.541 205.906 505.525 210.338 511.002 213.642C518.015 217.872 525.623 220.93 532.641 225.11C540.44 229.756 547.209 235.6 554.703 240.608C560.932 244.771 567.686 248.103 573.822 252.453C575.053 253.326 576.926 254.42 577.452 255.851C562.663 258.833 547.629 260.807 532.792 263.609C521.735 265.697 510.641 268.521 499.741 271.304C488.109 274.275 476.572 277.359 465.109 280.936C456.953 283.48 449.051 286.702 440.662 288.442C441.57 290.202 441.381 292.961 441.953 294.967C443.246 299.499 445.006 303.9 446.276 308.461C448.639 316.945 450.537 325.613 453.262 333.989C454.368 337.387 460.438 349.214 460.559 351.269C460.576 351.552 460.562 351.819 460.525 352.099C459.139 349.146 446.717 341.328 443.385 339.116C440.569 337.246 438.505 334.456 435.744 332.621C431.761 329.973 427.277 327.755 423.143 325.321C418.827 322.78 414.626 320.042 410.266 317.578C403.312 313.648 395.916 310.109 388.55 307.021C382.64 304.674 377.317 301.742 371.892 298.45C370.764 297.766 369.212 297.037 368.247 296.15C367.445 295.414 367.56 293.937 366.652 293.219C365.853 292.588 364.735 292.544 363.776 292.725C355.078 294.361 334.398 321.021 328.99 329.143C326.765 332.485 325.301 336.279 323.006 339.591C312.928 328.928 306.435 315.78 298.25 303.764C295.751 300.095 292.37 296.969 289.67 293.434C288.561 291.982 287.803 289.63 286.219 288.678C284.418 288.605 282.903 289.898 281.628 291.017C274.694 297.096 269.16 304.706 263.117 311.617C260.283 314.857 257.109 317.76 254.2 320.925C249.042 326.535 243.64 332.984 238.671 338.825C236.072 341.879 233.672 345.099 231.08 348.16Q220.864 360.068 210.123 371.505C207.149 374.647 204.264 378.086 200.958 380.879C198.667 377.945 197.529 374.46 196.686 370.879C195.39 365.369 195.131 359.691 194.363 354.095C192.459 340.215 190.859 326.289 188.584 312.465C187.732 307.293 187.001 302.036 185.749 296.945C185.209 294.747 183.793 288.519 181.621 287.643C180.729 287.284 179.847 287.938 178.917 287.373C178.467 286.644 178.097 286.057 177.421 285.512C170.77 284.019 143.281 299.616 135.935 303.319C129.354 306.635 122.63 309.694 116.021 312.962C109.561 316.156 103.446 319.664 96.5958 322.009C102.361 306.01 113.122 292.18 121.967 277.817C124.33 273.981 125.893 269.377 128.398 265.719C129.262 264.458 130.733 263.834 131.567 262.518C131.652 261.609 131.36 260.878 130.829 260.138C129.933 258.89 128.574 258.023 127.245 257.301C124.176 255.631 120.807 254.489 117.666 252.951C111.984 250.169 106.418 246.991 100.787 244.087C94.2182 240.7 88.0257 236.697 81.3392 233.506C74.7144 230.346 67.8412 227.959 61.1458 224.994C54.314 221.969 47.6616 218.382 40.6838 215.718C34.482 213.349 27.7599 211.899 21.2438 210.68C27.373 208.718 33.588 207.1 39.7531 205.263C47.4471 202.97 55.1046 200.485 62.8434 198.352C69.9242 196.401 77.0948 194.674 84.1236 192.548C92.4935 190.017 100.967 186.92 109.082 183.679C112.565 182.288 116.21 181.013 119.565 179.34C120.299 178.974 121.629 178.311 121.864 177.484C122.737 174.418 114.452 164.574 112.659 161.381C108.307 153.629 105.234 145.181 100.885 137.383C98.7636 133.578 96.482 129.863 94.3583 126.058C91.4445 120.837 88.6688 115.516 85.4487 110.475C81.654 104.535 77.3554 99.2962 73.5238 93.0659C80.0523 94.5071 86.8409 94.8392 93.421 96.2327C105.258 98.7395 116.801 102.584 128.655 105.135C135.3 106.565 141.981 107.403 148.683 108.48C153.69 109.285 158.782 110.413 163.829 110.861C167.318 111.171 170.854 110.822 174.342 111.14C175.923 111.285 183.528 112.722 184.555 112.048C186.85 110.542 186.693 105.58 187.546 103.152C189.721 96.9597 192.646 91.1204 194.624 84.8324C197.452 75.8433 199.248 66.5412 202.083 57.5465C203.889 51.819 206.733 46.1683 207.983 40.3124Z"/>
</svg>
