<?xml version="1.0" encoding="UTF-8"?>
<svg version="1.1" xmlns="http://www.w3.org/2000/svg" width="587" height="268">
<path d="M0 0 C5.18817845 0.64252857 10.40015529 0.54204845 15.55078125 -0.30078125 C19.56211533 -0.79340122 23.08799 -0.42211334 27.08984375 0 C34.26608442 0.62119913 41.451584 0.49037981 48.61328125 -0.23828125 C57.89487329 -1.16913859 66.54343649 -1.00403663 75.6796875 0.87890625 C79.00778116 1.4024266 81.83789023 0.96817564 85.11328125 0.26171875 C89.72211592 -0.64678535 94.17979509 -0.89334214 98.86328125 -0.86328125 C99.59554932 -0.86207275 100.32781738 -0.86086426 101.08227539 -0.85961914 C107.35822737 -0.81632753 113.59610765 -0.43621608 119.85668945 -0.02392578 C124.64083229 0.26265041 129.11744399 0.08889015 133.875 -0.55078125 C136.30594212 -0.75442038 138.44420221 -0.54304711 140.86328125 -0.23828125 C146.56147902 0.40832275 152.09394752 0.08713176 157.80078125 -0.23828125 C165.74832473 -0.68810431 173.39204096 -0.66983759 181.3125 0.10546875 C184.39749707 0.23229288 187.09779095 0.11578451 190.1484375 -0.19921875 C197.05436992 -0.90229937 203.92727089 -0.88457913 210.86328125 -0.86328125 C212.13816406 -0.86714844 213.41304688 -0.87101562 214.7265625 -0.875 C216.58087891 -0.87306641 216.58087891 -0.87306641 218.47265625 -0.87109375 C219.58092773 -0.86996582 220.68919922 -0.86883789 221.83105469 -0.86767578 C225.31408457 -0.73036502 228.66552055 -0.23538735 232.11328125 0.26171875 C234.28815159 0.30010125 234.28815159 0.30010125 236.234375 0.10546875 C236.94271484 0.05261719 237.65105469 -0.00023438 238.38085938 -0.0546875 C239.82359551 -0.17675518 241.26630407 -0.29914925 242.70898438 -0.421875 C243.41861328 -0.47472656 244.12824219 -0.52757813 244.859375 -0.58203125 C245.48513428 -0.63552734 246.11089355 -0.68902344 246.75561523 -0.74414062 C249.11328125 -0.73828125 249.11328125 -0.73828125 252.88867188 -0.22119141 C256.96260447 0.32111637 260.87501735 0.16078996 264.9609375 -0.16796875 C276.00219898 -0.91085519 287.0339525 -0.88919458 298.09594727 -0.86865234 C301.59721037 -0.86320907 305.09834973 -0.86867433 308.59960938 -0.875 C310.83203153 -0.87434054 313.06445361 -0.87306213 315.296875 -0.87109375 C316.86229286 -0.8741301 316.86229286 -0.8741301 318.45933533 -0.87722778 C319.42206863 -0.87407562 320.38480194 -0.87092346 321.37670898 -0.86767578 C322.22176498 -0.86688019 323.06682098 -0.86608459 323.93748474 -0.86526489 C326.11328125 -0.73828125 326.11328125 -0.73828125 329.11328125 0.26171875 C329.77328125 -0.06828125 330.43328125 -0.39828125 331.11328125 -0.73828125 C333.40198099 -0.83617576 335.6935835 -0.86905788 337.984375 -0.87109375 C338.66250748 -0.87205048 339.34063995 -0.8730072 340.0393219 -0.87399292 C341.47421359 -0.87467365 342.90910836 -0.87282679 344.34399414 -0.86865234 C346.53864484 -0.86331079 348.73309012 -0.86859659 350.92773438 -0.875 C352.32161503 -0.87433904 353.71549557 -0.8730575 355.109375 -0.87109375 C356.37966553 -0.86996582 357.64995605 -0.86883789 358.95874023 -0.86767578 C362.11328125 -0.73828125 362.11328125 -0.73828125 365.11328125 0.26171875 C367.83684503 0.17246877 370.52327824 0.02656111 373.23828125 -0.17578125 C374.78243715 -0.27779658 376.32670882 -0.37807524 377.87109375 -0.4765625 C378.60875977 -0.52377441 379.34642578 -0.57098633 380.10644531 -0.61962891 C386.11515808 -0.97488857 391.82887731 -0.7824129 397.77734375 0.140625 C400.26406773 0.34783267 400.26406773 0.34783267 403.29882812 -0.22021484 C409.12679088 -1.01174947 414.94887833 -0.92424906 420.81884766 -0.92358398 C422.97578735 -0.9257686 425.13221306 -0.94396227 427.2890625 -0.96289062 C445.68992847 -1.04046639 445.68992847 -1.04046639 450.61328125 3.63671875 C453.03951177 7.88262216 453.25043684 11.39948333 453.23828125 16.26171875 C453.24085938 17.29296875 453.2434375 18.32421875 453.24609375 19.38671875 C453.11328125 22.26171875 453.11328125 22.26171875 452.48046875 24.44921875 C452.35929688 25.04734375 452.238125 25.64546875 452.11328125 26.26171875 C452.77328125 27.25171875 453.43328125 28.24171875 454.11328125 29.26171875 C454.28226425 31.80505612 454.34671533 34.22325668 454.30078125 36.76171875 C454.30013672 37.43847656 454.29949219 38.11523438 454.29882812 38.8125 C454.27149728 41.89177478 454.09360634 44.32074349 453.11328125 47.26171875 C453.42915134 49.26455104 453.76464708 51.26432912 454.11328125 53.26171875 C454.13890332 55.2851968 454.10789409 57.30999477 454.02734375 59.33203125 C453.96160156 61.0490625 453.96160156 61.0490625 453.89453125 62.80078125 C453.84296875 63.98414062 453.79140625 65.1675 453.73828125 66.38671875 C453.67253906 68.12695312 453.67253906 68.12695312 453.60546875 69.90234375 C453.33431088 76.63609759 452.89036068 83.32137192 452.21240234 90.02685547 C452.17969238 90.76436035 452.14698242 91.50186523 452.11328125 92.26171875 C452.44328125 92.59171875 452.77328125 92.92171875 453.11328125 93.26171875 C453.11328125 95.26565927 453.11015548 97.26975298 453.078125 99.2734375 C453.03494721 101.30762914 453.03494721 101.30762914 453.67578125 103.38671875 C454.3140758 106.12226682 453.58977926 108.52185519 453.11328125 111.26171875 C453.44328125 111.92171875 453.77328125 112.58171875 454.11328125 113.26171875 C454.21176776 115.89768119 454.25227453 118.50131731 454.23828125 121.13671875 C454.24214844 121.85730469 454.24601563 122.57789062 454.25 123.3203125 C454.24358181 126.80539141 454.04132583 129.90828034 453.11328125 133.26171875 C453.34785319 134.87021204 453.58656333 136.47827002 453.8515625 138.08203125 C454.69368699 145.09554568 454.32114537 152.26318201 453.234375 159.2265625 C453.01833053 161.30733331 453.01833053 161.30733331 453.59741211 163.47900391 C454.18452094 166.64600173 454.24291108 169.59922195 454.24609375 172.8203125 C454.24738281 174.09455078 454.24867188 175.36878906 454.25 176.68164062 C454.24685791 177.67442017 454.24685791 177.67442017 454.24365234 178.68725586 C454.23838077 180.66194071 454.24408482 182.6366451 454.25 184.61132812 C454.2423202 192.27193064 453.93098309 199.82381408 453.22998047 207.45336914 C452.9432583 210.3438883 452.9432583 210.3438883 454.11328125 213.26171875 C454.38835664 218.08563572 454.42659193 222.90872083 454.46337891 227.73974609 C454.47994481 229.33429554 454.50724382 230.92877053 454.54541016 232.52294922 C454.60029372 234.82949065 454.62206537 237.13429911 454.63671875 239.44140625 C454.65938812 240.14989716 454.6820575 240.85838806 454.70541382 241.58834839 C454.69015436 245.17906579 454.16355963 247.18346054 452.21411133 250.21777344 C447.7835568 253.13822084 444.17344576 252.90971832 438.9765625 252.78515625 C437.48638863 252.77810165 437.48638863 252.77810165 435.96611023 252.77090454 C432.7852923 252.74959529 429.60614875 252.6931707 426.42578125 252.63671875 C424.33660478 252.62019584 422.24740988 252.60585186 420.15820312 252.59375 C409.9336753 252.51030252 399.73901835 252.26221212 389.53962708 251.5105896 C386.36376403 251.29227841 384.17080709 251.24254347 381.11328125 252.26171875 C379.44604066 252.35371706 377.77533705 252.38800287 376.1055603 252.38870239 C375.07108765 252.39152222 374.03661499 252.39434204 372.97079468 252.39724731 C371.83622833 252.39522308 370.70166199 252.39319885 369.53271484 252.39111328 C367.73957855 252.39374176 367.73957855 252.39374176 365.91021729 252.39642334 C362.62888994 252.40007501 359.34760282 252.39921174 356.06627607 252.39604425 C352.62716049 252.39351164 349.18804758 252.39586103 345.74893188 252.39743042 C339.9668937 252.39925095 334.18486828 252.3968504 328.40283203 252.39208984 C321.73474898 252.38666287 315.06669658 252.38839893 308.39861429 252.39391625 C302.66512459 252.39846917 296.93164407 252.39908682 291.19815314 252.39647758 C287.7779138 252.39492478 284.35768881 252.39469325 280.93745041 252.39801407 C277.11501776 252.40056308 273.29264319 252.39666756 269.47021484 252.39111328 C268.34779388 252.39313751 267.22537292 252.39516174 266.06893921 252.39724731 C260.64843126 252.38270955 255.40169451 252.1957348 250.0382328 251.37826347 C247.8609911 251.24644404 246.20060123 251.6655518 244.11328125 252.26171875 C242.77194205 252.35326344 241.42695811 252.39948592 240.08251953 252.40698242 C239.30135773 252.41336227 238.52019592 252.41974213 237.71536255 252.42631531 C236.46213699 252.42798454 236.46213699 252.42798454 235.18359375 252.4296875 C234.31564178 252.4330159 233.44768982 252.4363443 232.55343628 252.43977356 C230.71938608 252.44482998 228.8853267 252.44718228 227.05126953 252.44702148 C224.25537843 252.4492054 221.4598837 252.46736756 218.6640625 252.48632812 C216.87890759 252.48926288 215.09375082 252.49124713 213.30859375 252.4921875 C212.47715851 252.49937302 211.64572327 252.50655853 210.78909302 252.51396179 C207.11334675 252.49960065 204.41458473 252.36901185 200.91357422 251.12231445 C197.24119216 249.99370532 195.73975486 251.03706229 192.11328125 252.26171875 C188.12004977 252.56774291 184.13206163 252.51797106 180.12890625 252.4921875 C178.95930359 252.49172928 177.78970093 252.49127106 176.58465576 252.49079895 C174.10671984 252.4877808 171.62878575 252.47990758 169.15087891 252.4675293 C165.4182232 252.44948436 161.68581942 252.44701846 157.953125 252.44726562 C146.81746891 252.42949695 135.70943115 252.39716263 124.60235596 251.52006531 C121.70821846 251.30753427 119.12095875 251.26041779 116.25253296 251.74647522 C113.22024222 252.24416331 110.42380456 252.38859479 107.35498047 252.39111328 C105.69328323 252.39584152 105.69328323 252.39584152 103.99801636 252.40066528 C102.81660065 252.39864105 101.63518494 252.39661682 100.41796875 252.39453125 C99.19296661 252.39548798 97.96796448 252.3964447 96.70584106 252.39743042 C94.12209013 252.39810966 91.53833748 252.39627327 88.95458984 252.39208984 C84.99572941 252.38672884 81.03698196 252.39204828 77.078125 252.3984375 C74.566406 252.39777685 72.05468707 252.39649597 69.54296875 252.39453125 C68.35750458 252.39655548 67.17204041 252.39857971 65.95065308 252.40066528 C64.84915924 252.39751312 63.74766541 252.39436096 62.61279297 252.39111328 C61.64493866 252.39031769 60.67708435 252.38952209 59.67990112 252.38870239 C57.11328125 252.26171875 57.11328125 252.26171875 54.89456177 251.69113159 C53.02412651 251.03780713 53.02412651 251.03780713 51.11328125 252.26171875 C48.444261 252.36103636 45.80201524 252.40151355 43.1328125 252.39453125 C42.32776779 252.39548798 41.52272308 252.3964447 40.69328308 252.39743042 C38.9791964 252.3981124 37.26510715 252.39625685 35.55102539 252.39208984 C32.98121978 252.38683217 30.41159635 252.39198633 27.84179688 252.3984375 C20.21717931 252.4004712 12.66560161 252.29071295 5.0625 251.69140625 C-0.13737034 251.29257343 -4.94239454 251.41403387 -10.11230469 252.01269531 C-16.71603454 252.60542714 -23.41408123 252.21570507 -30.03515625 252.046875 C-36.14117263 251.97089516 -40.99352224 252.32095386 -46.68359375 254.53564453 C-51.68238801 256.18307518 -57.11473357 256.10854487 -62.33398438 256.43359375 C-67.60777856 256.831905 -71.19137936 257.66215316 -75.88671875 260.26171875 C-78.88671875 260.9921875 -78.88671875 260.9921875 -81.88671875 261.44921875 C-82.87671875 261.60777344 -83.86671875 261.76632812 -84.88671875 261.9296875 C-87.88671875 262.26171875 -87.88671875 262.26171875 -90.9375 262.2265625 C-93.9394642 262.2623475 -96.21390973 262.76261524 -99.07421875 263.63671875 C-120.13515173 269.65820501 -120.13515173 269.65820501 -128.88671875 266.01171875 C-131.06113462 264.10910486 -131.88289274 262.9527265 -132.88671875 260.26171875 C-132.59160786 254.60402143 -131.48616125 248.76102187 -127.88671875 244.26171875 C-127.22671875 243.93171875 -126.56671875 243.60171875 -125.88671875 243.26171875 C-125.63921875 242.10671875 -125.39171875 240.95171875 -125.13671875 239.76171875 C-124.13451524 235.32677092 -122.08153948 232.30433842 -119.47265625 228.6328125 C-117.32197363 225.41738306 -115.70141975 222.02092604 -114.0625 218.5234375 C-112.86777878 216.22528605 -111.44287774 214.32541207 -109.88671875 212.26171875 C-108.87142334 209.9350001 -107.87183677 207.60137405 -106.88671875 205.26171875 C-104.4180539 200.73583319 -104.4180539 200.73583319 -102.36328125 198.90234375 C-100.5441549 196.88109225 -100.24858289 195.41734131 -99.76171875 192.76171875 C-99.26456721 190.14513172 -98.7327851 187.7999178 -97.88671875 185.26171875 C-98.20501272 182.7062307 -98.20501272 182.7062307 -98.82421875 179.94921875 C-100.63765916 170.66146312 -100.63765916 170.66146312 -99.34765625 166.5390625 C-98.70480264 163.36292986 -99.05211409 160.48666286 -99.32421875 157.26171875 C-100.62639273 140.34999258 -100.62639273 140.34999258 -99.3515625 135.02734375 C-98.79080069 131.69104658 -99.03399737 128.80102997 -99.31640625 125.42578125 C-100.20722369 112.92886504 -100.03772656 100.39582099 -100.01708984 87.87451172 C-100.0113378 84.3187221 -100.0147208 80.7630071 -100.02066231 77.20722008 C-100.02428534 74.43787071 -100.02312228 71.66853891 -100.02053452 68.899189 C-100.01955471 66.95666708 -100.02256111 65.01414444 -100.02566528 63.07162476 C-99.99969849 53.30255116 -99.99969849 53.30255116 -99.31591797 49.03369141 C-98.62062193 46.31157451 -98.62062193 46.31157451 -99.88671875 44.26171875 C-100.17096653 39.197071 -100.20049058 34.13144127 -100.23681641 29.05957031 C-100.25334934 27.36802385 -100.28060456 25.67654648 -100.31884766 23.98535156 C-100.3738224 21.54064876 -100.39552179 19.09758275 -100.41015625 16.65234375 C-100.43282562 15.90212952 -100.455495 15.15191528 -100.47885132 14.37896729 C-100.46184713 10.11998963 -99.89402083 6.59534727 -96.85758972 3.43486023 C-88.73100283 -1.40241035 -76.28785403 -0.00355546 -67.140625 0.1015625 C-65.25935158 0.10936485 -65.25935158 0.10936485 -63.34007263 0.11732483 C-59.37632944 0.13494201 -55.41285982 0.16605729 -51.44921875 0.19921875 C-46.22137382 0.23598278 -40.9935488 0.26611097 -35.765625 0.2890625 C-33.90820427 0.29792229 -33.90820427 0.29792229 -32.01325989 0.30696106 C-24.50140775 0.32105853 -17.07862707 0.12844344 -9.59863281 -0.56005859 C-6.30768353 -0.77633452 -3.25236099 -0.47162297 0 0 Z " fill="#101A37" transform="translate(132.88671875,0.73828125)"/>
<path d="M0 0 C5.18817845 0.64252857 10.40015529 0.54204845 15.55078125 -0.30078125 C19.56211533 -0.79340122 23.08799 -0.42211334 27.08984375 0 C34.26608442 0.62119913 41.451584 0.49037981 48.61328125 -0.23828125 C57.89487329 -1.16913859 66.54343649 -1.00403663 75.6796875 0.87890625 C79.00778116 1.4024266 81.83789023 0.96817564 85.11328125 0.26171875 C89.72211592 -0.64678535 94.17979509 -0.89334214 98.86328125 -0.86328125 C99.59554932 -0.86207275 100.32781738 -0.86086426 101.08227539 -0.85961914 C107.35822737 -0.81632753 113.59610765 -0.43621608 119.85668945 -0.02392578 C124.64083229 0.26265041 129.11744399 0.08889015 133.875 -0.55078125 C136.30594212 -0.75442038 138.44420221 -0.54304711 140.86328125 -0.23828125 C146.56147902 0.40832275 152.09394752 0.08713176 157.80078125 -0.23828125 C165.74832473 -0.68810431 173.39204096 -0.66983759 181.3125 0.10546875 C184.39749707 0.23229288 187.09779095 0.11578451 190.1484375 -0.19921875 C197.05436992 -0.90229937 203.92727089 -0.88457913 210.86328125 -0.86328125 C212.13816406 -0.86714844 213.41304688 -0.87101562 214.7265625 -0.875 C216.58087891 -0.87306641 216.58087891 -0.87306641 218.47265625 -0.87109375 C219.58092773 -0.86996582 220.68919922 -0.86883789 221.83105469 -0.86767578 C225.31408457 -0.73036502 228.66552055 -0.23538735 232.11328125 0.26171875 C234.28815159 0.30010125 234.28815159 0.30010125 236.234375 0.10546875 C236.94271484 0.05261719 237.65105469 -0.00023438 238.38085938 -0.0546875 C239.82359551 -0.17675518 241.26630407 -0.29914925 242.70898438 -0.421875 C243.41861328 -0.47472656 244.12824219 -0.52757813 244.859375 -0.58203125 C245.48513428 -0.63552734 246.11089355 -0.68902344 246.75561523 -0.74414062 C249.11328125 -0.73828125 249.11328125 -0.73828125 252.88867188 -0.22119141 C256.96260447 0.32111637 260.87501735 0.16078996 264.9609375 -0.16796875 C276.00219898 -0.91085519 287.0339525 -0.88919458 298.09594727 -0.86865234 C301.59721037 -0.86320907 305.09834973 -0.86867433 308.59960938 -0.875 C310.83203153 -0.87434054 313.06445361 -0.87306213 315.296875 -0.87109375 C316.86229286 -0.8741301 316.86229286 -0.8741301 318.45933533 -0.87722778 C319.42206863 -0.87407562 320.38480194 -0.87092346 321.37670898 -0.86767578 C322.22176498 -0.86688019 323.06682098 -0.86608459 323.93748474 -0.86526489 C326.11328125 -0.73828125 326.11328125 -0.73828125 329.11328125 0.26171875 C329.77328125 -0.06828125 330.43328125 -0.39828125 331.11328125 -0.73828125 C333.40198099 -0.83617576 335.6935835 -0.86905788 337.984375 -0.87109375 C338.66250748 -0.87205048 339.34063995 -0.8730072 340.0393219 -0.87399292 C341.47421359 -0.87467365 342.90910836 -0.87282679 344.34399414 -0.86865234 C346.53864484 -0.86331079 348.73309012 -0.86859659 350.92773438 -0.875 C352.32161503 -0.87433904 353.71549557 -0.8730575 355.109375 -0.87109375 C356.37966553 -0.86996582 357.64995605 -0.86883789 358.95874023 -0.86767578 C362.11328125 -0.73828125 362.11328125 -0.73828125 365.11328125 0.26171875 C367.83684503 0.17246877 370.52327824 0.02656111 373.23828125 -0.17578125 C374.78243715 -0.27779658 376.32670882 -0.37807524 377.87109375 -0.4765625 C378.60875977 -0.52377441 379.34642578 -0.57098633 380.10644531 -0.61962891 C386.11515808 -0.97488857 391.82887731 -0.7824129 397.77734375 0.140625 C400.26406773 0.34783267 400.26406773 0.34783267 403.29882812 -0.22021484 C409.12679088 -1.01174947 414.94887833 -0.92424906 420.81884766 -0.92358398 C422.97578735 -0.9257686 425.13221306 -0.94396227 427.2890625 -0.96289062 C445.68992847 -1.04046639 445.68992847 -1.04046639 450.61328125 3.63671875 C453.03951177 7.88262216 453.25043684 11.39948333 453.23828125 16.26171875 C453.24085938 17.29296875 453.2434375 18.32421875 453.24609375 19.38671875 C453.11328125 22.26171875 453.11328125 22.26171875 452.48046875 24.44921875 C452.35929688 25.04734375 452.238125 25.64546875 452.11328125 26.26171875 C452.77328125 27.25171875 453.43328125 28.24171875 454.11328125 29.26171875 C454.28226425 31.80505612 454.34671533 34.22325668 454.30078125 36.76171875 C454.30013672 37.43847656 454.29949219 38.11523438 454.29882812 38.8125 C454.27149728 41.89177478 454.09360634 44.32074349 453.11328125 47.26171875 C453.42915134 49.26455104 453.76464708 51.26432912 454.11328125 53.26171875 C454.13890332 55.2851968 454.10789409 57.30999477 454.02734375 59.33203125 C453.96160156 61.0490625 453.96160156 61.0490625 453.89453125 62.80078125 C453.84296875 63.98414062 453.79140625 65.1675 453.73828125 66.38671875 C453.67253906 68.12695312 453.67253906 68.12695312 453.60546875 69.90234375 C453.33431088 76.63609759 452.89036068 83.32137192 452.21240234 90.02685547 C452.17969238 90.76436035 452.14698242 91.50186523 452.11328125 92.26171875 C452.44328125 92.59171875 452.77328125 92.92171875 453.11328125 93.26171875 C453.11328125 95.26565927 453.11015548 97.26975298 453.078125 99.2734375 C453.03494721 101.30762914 453.03494721 101.30762914 453.67578125 103.38671875 C454.3140758 106.12226682 453.58977926 108.52185519 453.11328125 111.26171875 C453.44328125 111.92171875 453.77328125 112.58171875 454.11328125 113.26171875 C454.21176776 115.89768119 454.25227453 118.50131731 454.23828125 121.13671875 C454.24214844 121.85730469 454.24601563 122.57789062 454.25 123.3203125 C454.24358181 126.80539141 454.04132583 129.90828034 453.11328125 133.26171875 C453.34785319 134.87021204 453.58656333 136.47827002 453.8515625 138.08203125 C454.69368699 145.09554568 454.32114537 152.26318201 453.234375 159.2265625 C453.01833053 161.30733331 453.01833053 161.30733331 453.59741211 163.47900391 C454.18452094 166.64600173 454.24291108 169.59922195 454.24609375 172.8203125 C454.24738281 174.09455078 454.24867188 175.36878906 454.25 176.68164062 C454.24685791 177.67442017 454.24685791 177.67442017 454.24365234 178.68725586 C454.23838077 180.66194071 454.24408482 182.6366451 454.25 184.61132812 C454.2423202 192.27193064 453.93098309 199.82381408 453.22998047 207.45336914 C452.9432583 210.3438883 452.9432583 210.3438883 454.11328125 213.26171875 C454.38835664 218.08563572 454.42659193 222.90872083 454.46337891 227.73974609 C454.47994481 229.33429554 454.50724382 230.92877053 454.54541016 232.52294922 C454.60029372 234.82949065 454.62206537 237.13429911 454.63671875 239.44140625 C454.65938812 240.14989716 454.6820575 240.85838806 454.70541382 241.58834839 C454.69015436 245.17906579 454.16355963 247.18346054 452.21411133 250.21777344 C447.7835568 253.13822084 444.17344576 252.90971832 438.9765625 252.78515625 C437.48638863 252.77810165 437.48638863 252.77810165 435.96611023 252.77090454 C432.7852923 252.74959529 429.60614875 252.6931707 426.42578125 252.63671875 C424.33660478 252.62019584 422.24740988 252.60585186 420.15820312 252.59375 C409.9336753 252.51030252 399.73901835 252.26221212 389.53962708 251.5105896 C386.36376403 251.29227841 384.17080709 251.24254347 381.11328125 252.26171875 C379.44604066 252.35371706 377.77533705 252.38800287 376.1055603 252.38870239 C375.07108765 252.39152222 374.03661499 252.39434204 372.97079468 252.39724731 C371.83622833 252.39522308 370.70166199 252.39319885 369.53271484 252.39111328 C367.73957855 252.39374176 367.73957855 252.39374176 365.91021729 252.39642334 C362.62888994 252.40007501 359.34760282 252.39921174 356.06627607 252.39604425 C352.62716049 252.39351164 349.18804758 252.39586103 345.74893188 252.39743042 C339.9668937 252.39925095 334.18486828 252.3968504 328.40283203 252.39208984 C321.73474898 252.38666287 315.06669658 252.38839893 308.39861429 252.39391625 C302.66512459 252.39846917 296.93164407 252.39908682 291.19815314 252.39647758 C287.7779138 252.39492478 284.35768881 252.39469325 280.93745041 252.39801407 C277.11501776 252.40056308 273.29264319 252.39666756 269.47021484 252.39111328 C268.34779388 252.39313751 267.22537292 252.39516174 266.06893921 252.39724731 C260.64843126 252.38270955 255.40169451 252.1957348 250.0382328 251.37826347 C247.8609911 251.24644404 246.20060123 251.6655518 244.11328125 252.26171875 C242.77194205 252.35326344 241.42695811 252.39948592 240.08251953 252.40698242 C239.30135773 252.41336227 238.52019592 252.41974213 237.71536255 252.42631531 C236.46213699 252.42798454 236.46213699 252.42798454 235.18359375 252.4296875 C234.31564178 252.4330159 233.44768982 252.4363443 232.55343628 252.43977356 C230.71938608 252.44482998 228.8853267 252.44718228 227.05126953 252.44702148 C224.25537843 252.4492054 221.4598837 252.46736756 218.6640625 252.48632812 C216.87890759 252.48926288 215.09375082 252.49124713 213.30859375 252.4921875 C212.47715851 252.49937302 211.64572327 252.50655853 210.78909302 252.51396179 C207.11334675 252.49960065 204.41458473 252.36901185 200.91357422 251.12231445 C197.24119216 249.99370532 195.73975486 251.03706229 192.11328125 252.26171875 C188.12004977 252.56774291 184.13206163 252.51797106 180.12890625 252.4921875 C178.95930359 252.49172928 177.78970093 252.49127106 176.58465576 252.49079895 C174.10671984 252.4877808 171.62878575 252.47990758 169.15087891 252.4675293 C165.4182232 252.44948436 161.68581942 252.44701846 157.953125 252.44726562 C146.81746891 252.42949695 135.70943115 252.39716263 124.60235596 251.52006531 C121.70821846 251.30753427 119.12095875 251.26041779 116.25253296 251.74647522 C113.22024222 252.24416331 110.42380456 252.38859479 107.35498047 252.39111328 C105.69328323 252.39584152 105.69328323 252.39584152 103.99801636 252.40066528 C102.81660065 252.39864105 101.63518494 252.39661682 100.41796875 252.39453125 C99.19296661 252.39548798 97.96796448 252.3964447 96.70584106 252.39743042 C94.12209013 252.39810966 91.53833748 252.39627327 88.95458984 252.39208984 C84.99572941 252.38672884 81.03698196 252.39204828 77.078125 252.3984375 C74.566406 252.39777685 72.05468707 252.39649597 69.54296875 252.39453125 C68.35750458 252.39655548 67.17204041 252.39857971 65.95065308 252.40066528 C64.84915924 252.39751312 63.74766541 252.39436096 62.61279297 252.39111328 C61.64493866 252.39031769 60.67708435 252.38952209 59.67990112 252.38870239 C57.11328125 252.26171875 57.11328125 252.26171875 54.89456177 251.69113159 C53.02412651 251.03780713 53.02412651 251.03780713 51.11328125 252.26171875 C48.444261 252.36103636 45.80201524 252.40151355 43.1328125 252.39453125 C42.32776779 252.39548798 41.52272308 252.3964447 40.69328308 252.39743042 C38.9791964 252.3981124 37.26510715 252.39625685 35.55102539 252.39208984 C32.98121978 252.38683217 30.41159635 252.39198633 27.84179688 252.3984375 C20.21717931 252.4004712 12.66560161 252.29071295 5.0625 251.69140625 C-0.13737034 251.29257343 -4.94239454 251.41403387 -10.11230469 252.01269531 C-16.71603454 252.60542714 -23.41408123 252.21570507 -30.03515625 252.046875 C-36.14117263 251.97089516 -40.99352224 252.32095386 -46.68359375 254.53564453 C-51.68238801 256.18307518 -57.11473357 256.10854487 -62.33398438 256.43359375 C-67.60777856 256.831905 -71.19137936 257.66215316 -75.88671875 260.26171875 C-78.88671875 260.9921875 -78.88671875 260.9921875 -81.88671875 261.44921875 C-82.87671875 261.60777344 -83.86671875 261.76632812 -84.88671875 261.9296875 C-87.88671875 262.26171875 -87.88671875 262.26171875 -90.9375 262.2265625 C-93.9394642 262.2623475 -96.21390973 262.76261524 -99.07421875 263.63671875 C-120.13515173 269.65820501 -120.13515173 269.65820501 -128.88671875 266.01171875 C-131.06113462 264.10910486 -131.88289274 262.9527265 -132.88671875 260.26171875 C-132.59160786 254.60402143 -131.48616125 248.76102187 -127.88671875 244.26171875 C-127.22671875 243.93171875 -126.56671875 243.60171875 -125.88671875 243.26171875 C-125.63921875 242.10671875 -125.39171875 240.95171875 -125.13671875 239.76171875 C-124.13451524 235.32677092 -122.08153948 232.30433842 -119.47265625 228.6328125 C-117.32197363 225.41738306 -115.70141975 222.02092604 -114.0625 218.5234375 C-112.86777878 216.22528605 -111.44287774 214.32541207 -109.88671875 212.26171875 C-108.87142334 209.9350001 -107.87183677 207.60137405 -106.88671875 205.26171875 C-104.4180539 200.73583319 -104.4180539 200.73583319 -102.36328125 198.90234375 C-100.5441549 196.88109225 -100.24858289 195.41734131 -99.76171875 192.76171875 C-99.26456721 190.14513172 -98.7327851 187.7999178 -97.88671875 185.26171875 C-98.20501272 182.7062307 -98.20501272 182.7062307 -98.82421875 179.94921875 C-100.63765916 170.66146312 -100.63765916 170.66146312 -99.34765625 166.5390625 C-98.70480264 163.36292986 -99.05211409 160.48666286 -99.32421875 157.26171875 C-100.62639273 140.34999258 -100.62639273 140.34999258 -99.3515625 135.02734375 C-98.79080069 131.69104658 -99.03399737 128.80102997 -99.31640625 125.42578125 C-100.20722369 112.92886504 -100.03772656 100.39582099 -100.01708984 87.87451172 C-100.0113378 84.3187221 -100.0147208 80.7630071 -100.02066231 77.20722008 C-100.02428534 74.43787071 -100.02312228 71.66853891 -100.02053452 68.899189 C-100.01955471 66.95666708 -100.02256111 65.01414444 -100.02566528 63.07162476 C-99.99969849 53.30255116 -99.99969849 53.30255116 -99.31591797 49.03369141 C-98.62062193 46.31157451 -98.62062193 46.31157451 -99.88671875 44.26171875 C-100.17096653 39.197071 -100.20049058 34.13144127 -100.23681641 29.05957031 C-100.25334934 27.36802385 -100.28060456 25.67654648 -100.31884766 23.98535156 C-100.3738224 21.54064876 -100.39552179 19.09758275 -100.41015625 16.65234375 C-100.43282562 15.90212952 -100.455495 15.15191528 -100.47885132 14.37896729 C-100.46184713 10.11998963 -99.89402083 6.59534727 -96.85758972 3.43486023 C-88.73100283 -1.40241035 -76.28785403 -0.00355546 -67.140625 0.1015625 C-65.25935158 0.10936485 -65.25935158 0.10936485 -63.34007263 0.11732483 C-59.37632944 0.13494201 -55.41285982 0.16605729 -51.44921875 0.19921875 C-46.22137382 0.23598278 -40.9935488 0.26611097 -35.765625 0.2890625 C-33.90820427 0.29792229 -33.90820427 0.29792229 -32.01325989 0.30696106 C-24.50140775 0.32105853 -17.07862707 0.12844344 -9.59863281 -0.56005859 C-6.30768353 -0.77633452 -3.25236099 -0.47162297 0 0 Z M77.43139648 16.24731445 C73.20420198 17.53963975 69.41522741 17.53057722 65.0234375 17.4921875 C64.1606871 17.49172928 63.29793671 17.49127106 62.40904236 17.49079895 C60.59112161 17.48778879 58.77320315 17.47993969 56.95532227 17.4675293 C54.1882197 17.44930069 51.4214532 17.44701972 48.65429688 17.44726562 C46.88150755 17.44234836 45.10872048 17.43651913 43.3359375 17.4296875 C42.51593765 17.42857468 41.69593781 17.42746185 40.85108948 17.42631531 C37.19555806 17.39645143 33.7928697 17.21525561 30.16186523 16.6887207 C27.20309827 15.98057785 27.20309827 15.98057785 25.11328125 17.26171875 C22.47443377 17.36000631 19.86199767 17.39801921 17.22290039 17.39111328 C16.00074074 17.39374176 16.00074074 17.39374176 14.75389099 17.39642334 C12.05205169 17.40083588 9.3502775 17.39790568 6.6484375 17.39453125 C4.77518196 17.39520453 2.9019265 17.39617475 1.02867126 17.39743042 C-2.9013858 17.39890664 -6.83142017 17.39675551 -10.76147461 17.39208984 C-15.80341114 17.38639653 -20.8452944 17.38966953 -25.88722897 17.39566231 C-29.75704857 17.39927331 -33.62685551 17.39812677 -37.49667549 17.39553452 C-39.35585092 17.39486654 -41.21502749 17.39568917 -43.07420158 17.39801407 C-45.6718132 17.40054897 -48.26933821 17.39668792 -50.86694336 17.39111328 C-51.63847748 17.39313751 -52.4100116 17.39516174 -53.20492554 17.39724731 C-56.36858028 17.3846475 -58.86233917 17.26984528 -61.88671875 16.26171875 C-63.8897012 16.57663525 -65.88938121 16.91278629 -67.88671875 17.26171875 C-70.17755164 17.32694748 -72.47007669 17.34760285 -74.76171875 17.32421875 C-75.91414063 17.31519531 -77.0665625 17.30617188 -78.25390625 17.296875 C-79.12273437 17.28527344 -79.9915625 17.27367187 -80.88671875 17.26171875 C-81.68637455 20.76021289 -81.99580432 23.9500082 -81.94921875 27.53515625 C-81.94148438 28.52515625 -81.93375 29.51515625 -81.92578125 30.53515625 C-81.89983796 32.59505332 -81.87379704 34.65494917 -81.84765625 36.71484375 C-81.81488015 40.92111014 -81.83029682 44.88165433 -82.44921875 49.05078125 C-82.94652667 52.70066618 -82.4120347 55.62082562 -81.88671875 59.26171875 C-81.80059392 61.45609091 -81.75890395 63.65257176 -81.75732422 65.84863281 C-81.75417206 67.11394836 -81.7510199 68.37926392 -81.74777222 69.68292236 C-81.74956313 71.04772985 -81.75161436 72.41253701 -81.75390625 73.77734375 C-81.75323126 75.19830339 -81.75225961 76.61926292 -81.75100708 78.04022217 C-81.74953739 81.01234033 -81.75165989 83.98442833 -81.75634766 86.95654297 C-81.76202361 90.73642528 -81.75877486 94.51623622 -81.75277519 98.29611588 C-81.74913198 101.23035197 -81.75032564 104.16457165 -81.75290298 107.09880829 C-81.75356298 108.49084227 -81.75277685 109.88287782 -81.75042343 111.27490997 C-81.74074995 118.6081336 -81.88603276 125.80636474 -82.77029419 133.0914917 C-83.02949769 135.44437182 -83.02949769 135.44437182 -81.88671875 138.26171875 C-81.44088562 146.05068581 -82.03680432 153.88033242 -82.61865234 161.64892578 C-83.0056397 165.57563113 -83.0056397 165.57563113 -81.88671875 169.26171875 C-81.94996741 171.55592029 -82.08569467 173.8484057 -82.26171875 176.13671875 C-82.35195312 177.37164062 -82.4421875 178.6065625 -82.53515625 179.87890625 C-82.88671875 183.26171875 -82.88671875 183.26171875 -83.55078125 185.45703125 C-84.01342145 187.94237742 -83.06535336 189.0734294 -81.88671875 191.26171875 C-81.35600446 194.33427516 -81.35096874 197.18792072 -81.88671875 200.26171875 C-84.13671875 203.13671875 -84.13671875 203.13671875 -85.52734375 204.53515625 C-87.30497251 206.79294909 -87.99109741 209.03814895 -88.88671875 211.76171875 C-90.03022704 215.18761403 -91.02498172 217.81973017 -93.44921875 220.51171875 C-96.17978752 223.59236044 -97.36607315 226.46010476 -98.88671875 230.26171875 C-99.88007076 231.93235622 -100.88103633 233.59847474 -101.88671875 235.26171875 C-105.35646153 240.98543601 -105.35646153 240.98543601 -106.88671875 247.26171875 C-101.89522535 246.95951978 -97.27184333 246.55170581 -92.57421875 244.76171875 C-87.77144633 243.00127192 -83.08116623 242.73322888 -78 242.47265625 C-72.96671314 242.13163054 -68.28546166 241.16556285 -63.44921875 239.76171875 C-56.15627077 237.74243477 -48.98991673 237.07198109 -41.4609375 236.54296875 C-38.9022708 236.41425486 -38.9022708 236.41425486 -36.88671875 235.26171875 C-34.77913824 235.16411147 -32.66843228 235.13094671 -30.55859375 235.12890625 C-28.64626953 235.12697266 -28.64626953 235.12697266 -26.6953125 235.125 C-26.02870605 235.12709473 -25.36209961 235.12918945 -24.67529297 235.13134766 C-22.65845077 235.13666149 -20.64183493 235.13141832 -18.625 235.125 C-16.70494141 235.12693359 -16.70494141 235.12693359 -14.74609375 235.12890625 C-12.98990723 235.13059814 -12.98990723 235.13059814 -11.19824219 235.13232422 C-8.00672418 235.25702966 -5.03064776 235.72927266 -1.88671875 236.26171875 C0.43589414 236.31143076 0.43589414 236.31143076 2.7109375 236.140625 C3.58129639 236.09212402 4.45165527 236.04362305 5.34838867 235.99365234 C6.28142822 235.93773926 7.21446777 235.88182617 8.17578125 235.82421875 C17.72033595 235.33057542 27.24365822 235.14567799 36.80078125 235.13671875 C38.6890564 235.13007202 38.6890564 235.13007202 40.61547852 235.12329102 C41.79424561 235.12514404 42.9730127 235.12699707 44.1875 235.12890625 C45.23510498 235.13003418 46.28270996 235.13116211 47.36206055 235.13232422 C50.11328125 235.26171875 50.11328125 235.26171875 52.35864258 235.83251953 C54.20600901 236.48490706 54.20600901 236.48490706 56.11328125 235.26171875 C57.85279751 235.16592628 59.59598352 235.13376315 61.33813477 235.13232422 C62.43009659 235.12917206 63.52205841 235.1260199 64.64710999 235.12277222 C65.83348557 235.12479645 67.01986115 235.12682068 68.2421875 235.12890625 C69.46099106 235.12794952 70.67979462 235.1269928 71.93553162 235.12600708 C74.52220715 235.1253252 77.10888438 235.12718 79.69555664 235.13134766 C83.63496819 235.13666368 87.57426404 235.13141959 91.51367188 235.125 C94.027344 235.12566141 96.54101605 235.12694387 99.0546875 235.12890625 C100.22689346 235.12688202 101.39909943 235.12485779 102.60682678 235.12277222 C107.39342094 235.13631598 112.08545029 235.1864183 116.83666992 235.79663086 C121.47932065 236.38726111 125.93936686 236.14650333 130.59765625 235.8359375 C141.78036858 235.20247456 152.93931792 235.07556179 164.13818359 235.07641602 C167.40214404 235.07419227 170.66578471 235.0558339 173.9296875 235.03710938 C176.03775929 235.03418055 178.14583264 235.03219234 180.25390625 235.03125 C181.21339172 235.02406448 182.1728772 235.01687897 183.16143799 235.00947571 C188.46762662 235.02736522 193.1313023 235.52612517 198.2333374 237.02763367 C200.44688687 237.51111382 200.44688687 237.51111382 203.11328125 235.26171875 C205.994286 235.077241 208.77616389 235.00577926 211.65625 235.03125 C212.91989128 235.03193733 212.91989128 235.03193733 214.20906067 235.03263855 C215.99363612 235.03566009 217.77820896 235.04354348 219.56274414 235.0559082 C222.27304614 235.07403327 224.9830034 235.07641865 227.69335938 235.07617188 C229.43099249 235.0810927 231.16862332 235.08692347 232.90625 235.09375 C233.70862595 235.09486282 234.51100189 235.09597565 235.33769226 235.09712219 C239.05517153 235.12790258 242.63371213 235.29149483 246.3137207 235.8347168 C249.90601995 236.42597325 249.90601995 236.42597325 252.60072327 235.79649353 C257.76952584 235.00956125 262.89283302 235.12298519 268.11376953 235.13232422 C269.31766327 235.1305719 270.52155701 235.12881958 271.76193237 235.12701416 C275.05101064 235.12337539 278.34004844 235.12421644 281.62912607 235.12739325 C285.07590219 235.12993161 288.52267568 235.1275753 291.9694519 235.12600708 C297.75454186 235.12419019 303.53961902 235.12657962 309.32470703 235.13134766 C316.01056126 235.1367945 322.69638501 235.13502263 329.38223851 235.12952125 C335.12844927 235.12498259 340.87465086 235.12434311 346.62086284 235.12695992 C350.0503997 235.12851788 353.47992223 235.12872951 356.90945816 235.12542343 C360.73018724 235.12289026 364.55085735 235.12674675 368.37158203 235.13232422 C369.50726624 235.13029999 370.64295044 235.12827576 371.81304932 235.12619019 C372.85323212 235.12901001 373.89341492 235.13182983 374.96511841 235.13473511 C376.31952624 235.13530065 376.31952624 235.13530065 377.70129585 235.13587761 C379.98475922 235.25501334 381.91080214 235.6881279 384.11328125 236.26171875 C386.32451622 236.16983097 388.53313887 236.01223615 390.73828125 235.82421875 C401.74108486 234.99594078 412.77026197 235.20991895 423.79541016 235.29907227 C424.90150131 235.305364 424.90150131 235.305364 426.02993774 235.31178284 C428.06946511 235.32360261 430.10895574 235.34132649 432.1484375 235.359375 C434.99925608 235.60355905 434.99925608 235.60355905 436.11328125 234.26171875 C436.18820257 232.66177398 436.19648741 231.0585954 436.17578125 229.45703125 C436.16804687 228.48121094 436.1603125 227.50539062 436.15234375 226.5 C436.12640009 224.43229043 436.10035917 222.36458209 436.07421875 220.296875 C436.06648437 219.31847656 436.05875 218.34007812 436.05078125 217.33203125 C436.03917969 216.43242676 436.02757812 215.53282227 436.015625 214.60595703 C436.11328125 212.26171875 436.11328125 212.26171875 437.11328125 209.26171875 C437.1289607 207.74433573 437.08056982 206.2258255 436.9921875 204.7109375 C436.94368652 203.79497803 436.89518555 202.87901855 436.84521484 201.93530273 C436.78930176 200.94989502 436.73338867 199.9644873 436.67578125 198.94921875 C436.26283179 190.69612883 435.99880308 182.4630609 435.98828125 174.19921875 C435.98163452 172.83639771 435.98163452 172.83639771 435.97485352 171.44604492 C435.98466654 166.91200288 436.36068358 162.73935868 437.11328125 158.26171875 C437.03106503 156.19570469 436.88278516 154.13147979 436.67578125 152.07421875 C435.3157269 136.65438179 435.3157269 136.65438179 437.11328125 131.26171875 C436.87936203 129.39036501 436.64122489 127.51937544 436.375 125.65234375 C435.73187349 119.77781507 435.66838658 113.99231795 437.11328125 108.26171875 C436.94828125 107.43671875 436.78328125 106.61171875 436.61328125 105.76171875 C436.07412308 103.06592791 436.40378979 101.86318745 437.11328125 99.26171875 C437.11328125 98.33359375 437.11328125 97.40546875 437.11328125 96.44921875 C437.11328125 93.26171875 437.11328125 93.26171875 437.67578125 89.82421875 C438.05604823 86.72775909 437.86406031 84.56195545 437.39135742 81.53881836 C436.75270218 76.30902256 436.68083576 71.02298746 436.48828125 65.76171875 C436.43671875 64.56417969 436.38515625 63.36664063 436.33203125 62.1328125 C436.11374065 56.33527091 436.12373771 50.97302121 437.11328125 45.26171875 C436.80465655 42.92498891 436.46871552 40.59178786 436.11328125 38.26171875 C435.61221906 29.39570161 435.61221906 29.39570161 437.30078125 25.57421875 C438.57303839 21.9531792 436.66201205 19.61275088 435.11328125 16.26171875 C433.69063965 16.26957397 433.69063965 16.26957397 432.23925781 16.27758789 C428.71320994 16.2946522 425.1872061 16.30717985 421.66113281 16.31665039 C420.13638618 16.3216724 418.61164434 16.32849125 417.08691406 16.3371582 C414.89256606 16.34931724 412.69828185 16.35496843 410.50390625 16.359375 C408.52438965 16.36723022 408.52438965 16.36723022 406.50488281 16.37524414 C403.75666989 16.28325458 401.72541164 15.93736644 399.11328125 15.26171875 C396.91969073 15.31892822 396.91969073 15.31892822 394.62109375 15.63671875 C393.31398438 15.78367187 393.31398438 15.78367187 391.98046875 15.93359375 C390.19084891 16.14773629 388.40174925 16.36628525 386.61328125 16.58984375 C380.27112418 17.2924734 374.32400519 17.06745438 367.97314453 16.52832031 C361.43109829 16.07645981 354.89054536 16.11353862 348.33544922 16.13134766 C345.98398443 16.13672858 343.63270921 16.13135397 341.28125 16.125 C334.89175954 16.12281488 328.57289916 16.14121144 322.2109375 16.80078125 C313.71660749 17.62125631 305.18816081 17.07043697 296.67578125 16.76171875 C294.09742373 16.669557 291.51908887 16.57955408 288.94041443 16.4967041 C287.3486437 16.44551251 285.75702995 16.38907759 284.16566467 16.32653809 C280.31056216 16.2019448 276.86453545 16.36613729 273.11328125 17.26171875 C271.078125 17.140625 271.078125 17.140625 269.05078125 16.82421875 C262.31590567 15.9584668 255.45530649 15.72792305 248.73828125 16.80078125 C244.1550337 17.38356488 239.81837788 16.9999595 235.25 16.578125 C231.7418201 16.29774415 228.49031408 16.26805105 224.99609375 16.72265625 C218.63566072 17.53462642 212.26534526 17.4067252 205.86328125 17.38671875 C204.6103125 17.39058594 203.35734375 17.39445312 202.06640625 17.3984375 C200.2565625 17.39650391 200.2565625 17.39650391 198.41015625 17.39453125 C197.32057617 17.39340332 196.23099609 17.39227539 195.10839844 17.39111328 C192.32518271 17.27087328 189.82529739 16.86761043 187.11328125 16.26171875 C182.53267793 15.97277531 178.02939931 16.23866003 173.48046875 16.80078125 C168.06600553 17.36167385 162.84592383 17.12013899 157.42578125 16.76171875 C149.5659969 16.31133926 142.07618628 16.38750387 134.23046875 17.07421875 C130.78739489 17.28132094 127.69314517 16.94542838 124.296875 16.453125 C121.78319646 16.23278466 119.49839174 16.43632339 116.98828125 16.69921875 C110.67414493 17.32324263 104.39040693 17.41442872 98.05078125 17.44921875 C97.02645996 17.46202881 96.00213867 17.47483887 94.94677734 17.48803711 C93.97949707 17.48940674 93.0122168 17.49077637 92.015625 17.4921875 C91.14413818 17.49629639 90.27265137 17.50040527 89.37475586 17.50463867 C87.11328125 17.26171875 87.11328125 17.26171875 84.11328125 15.26171875 C80.26282073 15.03175543 80.26282073 15.03175543 77.43139648 16.24731445 Z " fill="#009BC7" transform="translate(132.88671875,0.73828125)"/>
</svg>
