<?xml version="1.0" encoding="UTF-8"?><svg id="Layer_2" xmlns="http://www.w3.org/2000/svg" viewBox="0 0 353.94 255.87"><defs><style>.cls-1{fill:#fff;stroke-width:0px;}.cls-2{fill:none;stroke:#000;stroke-miterlimit:10;stroke-width:3px;}</style></defs><g id="bw"><g id="our_team_-_small.svg"><g id="Layer_29_Image"><polygon class="cls-1" points="342.21 187.76 342.2 189.22 342.22 190.69 342.3 192.16 342.11 193.62 342.11 195.09 342.01 196.55 342.27 198.02 342.08 199.48 342.22 200.95 342.19 202.42 342.06 203.88 342.01 205.34 342.26 206.81 342.32 208.27 342.22 209.73 342.18 211.19 342.15 212.65 342.06 214.12 342.15 215.57 342.18 217.03 342.23 218.49 342.13 219.95 342.3 221.5 342.59 223.03 343.13 224.49 343.48 226 343.98 227.4 344.37 228.83 345.09 230.15 345.3 231.64 345.73 233.06 346.23 234.46 346.75 235.85 347.31 237.22 347.86 238.6 348.12 240.08 348.54 241.5 349.03 242.9 349.59 244.28 350.16 245.65 350.57 247.07 350.76 248.43 351.07 249.74 351.58 251.05 350.12 250.82 348.7 250.53 347.27 250.33 345.82 250.03 344.41 249.59 343.04 249 341.57 248.82 340.18 248.31 338.76 247.91 337.33 247.53 335.84 247.41 334.42 247.03 332.99 246.67 331.6 246.13 330.15 245.87 328.73 245.46 327.28 245.21 325.91 244.58 324.46 244.3 323.02 243.99 321.6 243.62 320.18 243.31 318.73 243.17 317.34 242.69 315.87 242.79 314.45 242.46 313.01 242.27 311.56 242.24 310.11 242.21 308.67 242.34 307.23 242.41 305.78 242.32 304.34 242.27 302.9 242.45 301.45 242.32 300.01 242.51 298.57 242.29 297.12 242.16 295.68 242.26 294.24 242.35 292.79 242.31 291.35 242.31 289.91 242.17 288.46 242.16 287.02 242.18 285.58 242.31 284.13 242.17 282.69 242.49 281.25 242.45 279.8 242.46 278.36 242.22 276.92 242.34 275.47 242.39 274.03 242.37 272.59 242.23 271.14 242.47 269.7 242.19 268.26 242.21 266.81 242.39 265.37 242.18 263.93 242.45 262.48 242.17 261.04 242.24 259.6 242.4 258.15 242.2 256.71 242.45 255.27 242.33 253.82 242.32 252.38 242.3 250.94 242.26 249.49 242.3 248.05 242.25 246.61 242.45 245.16 242.29 243.72 242.27 242.28 242.29 240.83 242.3 239.39 242.42 237.95 242.33 236.5 242.4 235.06 242.35 233.62 242.29 232.17 242.29 230.73 242.31 229.29 242.19 227.84 242.17 226.4 242.34 224.96 242.16 223.51 242.46 222.07 242.23 220.63 242.23 219.19 242.15 217.74 242.32 216.3 242.21 214.86 242.43 213.41 242.16 211.97 242.29 210.53 242.38 209.08 242.44 207.64 242.4 206.2 242.33 204.75 242.23 203.31 242.13 201.87 242.27 200.42 242.42 198.98 242.36 197.54 242.39 196.09 242.29 194.65 242.42 193.21 242.39 191.76 242.17 190.32 242.3 188.88 242.45 187.43 242.16 185.99 242.17 184.55 242.46 183.1 242.16 181.66 242.28 180.22 242.17 178.77 242.13 177.33 242.41 175.89 242.14 174.44 242.26 173 242.22 171.56 242.18 170.11 242.19 168.67 242.21 167.23 242.15 165.78 242.27 164.34 242.4 162.9 242.35 161.45 242.35 160.01 242.38 158.57 242.43 157.12 242.29 155.68 242.41 154.24 242.37 152.79 242.15 151.35 242.2 149.91 242.12 148.46 242.3 147.02 242.27 145.58 242.26 144.13 242.43 142.69 242.31 141.25 242.3 139.8 242.29 138.36 242.16 136.92 242.23 135.47 242.19 134.03 242.41 132.59 242.26 131.14 242.2 129.7 242.17 128.26 242.38 126.81 242.3 125.37 242.22 123.93 242.14 122.48 242.45 121.04 242.3 119.6 242.24 118.15 242.12 116.71 242.19 115.27 242.39 113.82 242.3 112.38 242.14 110.94 242.21 109.49 242.39 108.05 242.44 106.61 242.14 105.16 242.17 103.72 242.37 102.28 242.23 100.83 242.44 99.39 242.4 98.02 242.4 96.65 242.23 95.28 242.39 93.91 242.16 92.54 242.44 91.16 242.16 89.84 242.37 88.98 243.58 88.35 244.97 87.44 246.2 86.68 247.52 85.81 248.77 84.97 250.04 84.14 251.32 83.5 252.83 82.6 251.58 81.68 250.5 80.68 249.47 79.75 248.4 78.92 247.24 77.97 246.14 76.69 246.69 75.63 247.57 74.41 248.14 73.22 248.81 72.42 247.56 71.94 246.18 71.31 244.88 70.45 243.69 69.87 242.39 68.46 242.24 67.02 242.38 65.59 242.25 64.15 242.19 62.72 242.33 61.28 242.48 59.85 242.5 58.41 242.32 56.98 242.33 55.54 242.34 54.11 242.39 52.68 242.27 51.24 242.51 49.81 242.37 48.38 242.33 46.94 242.2 45.51 242.35 44.08 242.33 42.64 242.39 41.21 242.35 39.78 242.34 38.35 242.51 36.91 242.27 35.48 242.49 34.05 242.43 32.61 242.23 31.18 242.46 29.74 242.25 28.31 242.23 26.88 242.3 25.44 242.3 24.01 242.29 22.57 242.23 21.14 242.44 19.7 242.31 18.27 242.41 16.83 242.3 15.4 242.49 13.96 242.3 12.53 242.39 11.09 242.37 9.65 242.29 8.21 242.35 6.77 242.51 5.43 242.24 5.15 240.93 5.41 239.51 5.23 238.1 5.07 236.69 5.27 235.27 5.13 233.86 5.18 232.45 5.14 231.04 5.19 229.62 5.28 228.21 5.21 226.8 5.09 225.39 5.01 223.97 5.29 222.56 5.22 221.15 5.32 219.74 5.07 218.33 5.06 216.92 5.05 215.51 5.15 214.11 5.33 212.7 5.17 211.29 5.35 209.88 5.04 208.48 5.14 207.01 5.31 205.55 5.11 204.09 5.27 202.62 5.32 201.16 5.04 199.69 5.31 198.23 5.26 196.76 5.24 195.3 5.19 193.84 5.3 192.37 5.06 190.91 5.17 189.44 5.06 187.98 5.02 186.51 5.2 185.05 5.26 183.58 5.3 182.12 5.32 180.66 5.26 179.19 5.24 177.73 5.24 176.26 5.05 174.8 5.31 173.36 5.32 171.91 5.15 170.47 5.25 169.03 5.25 167.59 5.28 166.15 5.25 164.71 5.3 163.26 5.07 161.82 5.09 160.38 5.08 158.94 5.32 157.5 5.18 156.05 5.12 154.61 5.31 153.17 5.24 151.73 5.28 150.29 5.06 148.85 5.11 147.4 5.31 145.96 5.05 144.52 5.16 143.08 5.1 141.64 5.22 140.17 5.33 138.7 5.24 137.23 5.3 135.76 5.23 134.29 5.02 132.82 5.12 131.35 5.2 129.88 5.23 128.42 5.11 126.95 5.01 125.48 5.19 124.01 5.34 122.54 5.07 121.07 5.2 119.61 5.27 118.14 5.02 116.66 5.29 115.2 5.27 113.73 5.19 112.25 5.06 110.78 5.22 109.31 5.11 107.85 4.2 106.77 3.47 105.52 2.61 104.36 1.75 103.32 2.34 101.99 3.19 100.7 3.85 99.31 4.6 97.97 5.57 96.7 5.52 95.22 5.34 93.77 5.34 92.33 5.36 90.88 5.28 89.44 5.55 87.99 5.26 86.55 5.4 85.1 5.44 83.66 5.39 82.21 5.41 80.76 5.59 79.32 5.56 77.87 5.38 76.43 5.28 74.98 5.55 73.53 5.44 72.09 5.41 70.64 5.47 69.19 5.57 67.75 5.43 66.3 5.35 64.85 5.36 63.41 5.38 61.96 5.47 60.51 5.5 59.07 5.43 57.62 5.48 56.17 5.3 54.73 5.4 53.28 5.28 51.84 5.34 50.39 5.57 48.94 5.52 47.5 5.27 46.05 5.26 44.6 5.57 43.15 5.52 41.7 5.56 40.26 5.6 38.81 5.32 37.36 5.57 35.91 5.55 34.46 5.41 33.02 5.56 31.57 5.52 30.12 5.41 28.67 5.59 27.22 5.35 25.77 5.29 24.32 5.35 22.87 5.55 21.42 5.57 19.97 5.51 18.52 5.31 17.07 5.43 15.62 5.42 14.17 5.31 12.71 5.48 11.31 6.86 11.36 8.29 11.17 9.72 11.4 11.15 11.41 12.58 11.16 14.01 11.28 15.45 11.19 16.88 11.23 18.31 11.16 19.74 11.18 21.17 11.3 22.6 11.17 24.03 11.35 25.46 11.39 26.88 11.17 28.31 11.29 29.74 11.13 31.17 11.38 32.6 11.1 34.03 11.41 35.46 11.09 36.89 11.16 38.31 11.25 39.74 11.41 41.17 11.15 42.6 11.34 44.03 11.17 45.46 11.36 46.89 11.29 48.31 11.31 49.74 11.42 51.17 11.19 52.6 11.16 54.03 11.34 55.46 11.26 56.88 11.18 58.31 11.3 59.74 11.12 61.17 11.21 62.6 11.22 64.03 11.2 65.46 11.38 66.89 11.16 68.32 11.35 69.74 11.14 71.17 11.4 72.6 11.22 74.03 11.35 75.46 11.25 76.89 11.15 78.32 11.09 79.75 11.11 81.18 11.34 82.61 11.17 84.04 11.35 85.48 11.24 86.91 11.12 88.4 11.37 89.21 10.06 90.18 8.97 91.09 7.82 92.04 6.66 92.86 7.74 93.52 8.91 94.39 9.92 95.14 11.05 96.61 10.85 98.05 11.07 99.5 10.86 100.94 11.14 102.38 11.14 103.83 11.05 105.27 10.91 106.71 11.06 108.16 11.02 109.6 10.9 111.04 10.96 112.48 11.01 113.93 11.12 115.37 10.87 116.81 10.92 118.25 11.06 119.7 10.99 121.14 11.04 122.58 11.06 124.02 10.91 125.46 11.1 126.91 10.97 128.35 10.87 129.79 11.04 131.23 10.91 132.67 11 134.12 11.05 135.56 10.83 137 10.9 138.44 10.93 139.88 11.06 141.32 11.05 142.76 10.99 144.21 10.87 145.65 10.88 147.09 10.95 148.53 11.03 149.97 11.08 151.41 10.88 152.85 10.95 154.29 11.06 155.73 11.04 157.17 11.02 158.61 11.16 160.05 11.1 161.49 10.93 162.93 11.07 164.37 11.07 165.81 10.96 167.25 10.99 168.69 10.92 170.13 10.84 171.57 10.83 173.01 10.9 174.45 10.87 175.89 11.11 177.33 11.12 178.77 11.05 180.22 11.1 181.66 11.05 183.1 10.84 184.54 11.07 185.98 10.84 187.42 11.07 188.86 11.09 190.3 11.03 191.74 10.88 193.18 11.09 194.62 11.07 196.06 11.11 197.5 11.03 198.94 11.15 200.38 11.08 201.82 10.91 203.26 11.03 204.7 10.96 206.14 10.83 207.58 10.97 209.02 10.92 210.46 10.83 211.9 11.11 213.35 11.14 214.79 11.09 216.23 10.98 217.67 10.99 219.11 11.13 220.55 10.92 222 11.08 223.44 11.07 224.88 11.06 226.33 10.9 227.78 10.99 228.88 9.85 229.85 8.59 230.83 7.27 232.2 8.16 233.42 9.18 234.87 9.86 236.18 10.67 237.29 9.98 238.52 9.39 239.61 8.58 240.67 7.72 241.92 8.53 243.25 9.19 244.63 9.73 245.96 10.29 246.69 9.2 247.76 8.32 248.53 7.19 249.45 6.18 250.31 5.14 251.18 4.08 251.93 2.83 252.77 4.13 253.58 5.36 254.05 6.76 254.87 8.05 255.75 9.24 256.95 10.1 258.28 10.82 259.78 11.09 261.3 10.92 262.76 11.13 264.21 10.95 265.66 11.01 267.11 11.02 268.56 11.09 270.01 10.95 271.47 11.18 272.92 11.01 274.37 11.05 275.82 11.15 277.27 10.94 278.72 11.15 280.18 10.92 281.63 11.04 283.08 10.89 284.53 10.87 285.98 11.12 287.43 10.87 288.89 10.9 290.34 10.96 291.79 11.14 293.24 11.1 294.69 10.83 296.14 11.06 297.59 10.85 299.05 10.84 300.5 10.98 301.95 11.04 303.4 10.83 304.85 10.98 306.3 10.81 307.76 10.94 309.21 10.92 310.66 10.94 312.11 11.15 313.56 11.08 315.01 11.12 316.46 11.14 317.92 10.83 319.37 11.04 320.82 10.97 322.27 10.94 323.72 11.04 325.17 11 326.63 10.96 328.08 10.88 329.53 10.85 330.98 11.05 332.43 10.85 333.88 10.99 335.34 10.81 336.79 11.07 338.11 11 339.43 11.25 340.76 11.09 341.97 11.34 341.96 12.69 342.19 14.14 342.23 15.59 342.3 17.04 342.16 18.5 342.22 19.95 342.28 21.4 342.3 22.85 342.15 24.3 342.24 25.75 342.27 27.2 342.31 28.65 342.3 30.1 342.19 31.55 342.11 33 342.15 34.46 342.25 35.91 342.31 37.36 342.02 38.81 342.24 40.25 342.24 41.7 342.26 43.15 342.2 44.6 342.26 46.05 342.05 47.5 342.31 48.95 342.02 50.4 342.12 51.84 342.31 53.29 342.08 54.74 342.01 56.19 342.16 57.63 342.28 59.08 342.1 60.53 342.3 61.97 342.05 63.41 342.25 64.85 342.32 66.28 342.07 67.72 342.05 69.16 342.23 70.59 342.25 72.03 342.15 73.46 342.21 74.9 342.09 76.34 342.29 77.77 342.01 79.21 342.09 80.64 342.27 82.08 342.25 83.52 342.01 84.95 342.19 86.39 342.24 87.82 342.23 89.26 342.2 90.7 342.03 92.13 342.34 93.57 342.15 95 342.06 96.44 342.26 97.88 342.04 99.31 342.14 100.75 342.27 102.18 342.02 103.62 342.14 105.06 342.23 106.49 342.04 107.93 342 109.36 342.28 110.8 342.01 112.24 342.04 113.69 342.26 115.15 342.09 116.61 342.22 118.07 342.27 119.53 342.33 120.99 342.17 122.44 342.12 123.9 342.25 125.36 342.14 126.82 342.21 128.28 342.12 129.73 342.29 131.19 342.16 132.65 342.26 134.11 342.28 135.57 342.1 137.02 342.1 138.48 342.1 139.94 342.26 141.4 342.26 142.86 342.28 144.32 342.17 145.77 342.29 147.23 342.1 148.69 342.16 150.15 342.07 151.61 342.07 153.07 342.04 154.53 342.07 155.99 342.25 157.45 342.26 158.91 342.14 160.37 342.11 161.84 342.11 163.33 343.25 164.06 344.27 164.9 345.1 165.95 346.12 166.8 347.17 167.59 346.3 168.83 345.28 169.96 344.15 170.99 343.25 172.23 343.81 173.72 344.54 175.13 345.2 176.59 344.42 178.01 343.83 179.51 342.98 180.86 343.5 182.02 344.08 183.17 344.88 184.2 345.58 185.34 344.32 186 343.37 187.04 342.21 187.76"/><polygon class="cls-2" points="342.21 187.76 342.2 189.22 342.22 190.69 342.3 192.16 342.11 193.62 342.11 195.09 342.01 196.55 342.27 198.02 342.08 199.48 342.22 200.95 342.19 202.42 342.06 203.88 342.01 205.34 342.26 206.81 342.32 208.27 342.22 209.73 342.18 211.19 342.15 212.65 342.06 214.12 342.15 215.57 342.18 217.03 342.23 218.49 342.13 219.95 342.3 221.5 342.59 223.03 343.13 224.49 343.48 226 343.98 227.4 344.37 228.83 345.09 230.15 345.3 231.64 345.73 233.06 346.23 234.46 346.75 235.85 347.31 237.22 347.86 238.6 348.12 240.08 348.54 241.5 349.03 242.9 349.59 244.28 350.16 245.65 350.57 247.07 350.76 248.43 351.07 249.74 351.58 251.05 350.12 250.82 348.7 250.53 347.27 250.33 345.82 250.03 344.41 249.59 343.04 249 341.57 248.82 340.18 248.31 338.76 247.91 337.33 247.53 335.84 247.41 334.42 247.03 332.99 246.67 331.6 246.13 330.15 245.87 328.73 245.46 327.28 245.21 325.91 244.58 324.46 244.3 323.02 243.99 321.6 243.62 320.18 243.31 318.73 243.17 317.34 242.69 315.87 242.79 314.45 242.46 313.01 242.27 311.56 242.24 310.11 242.21 308.67 242.34 307.23 242.41 305.78 242.32 304.34 242.27 302.9 242.45 301.45 242.32 300.01 242.51 298.57 242.29 297.12 242.16 295.68 242.26 294.24 242.35 292.79 242.31 291.35 242.31 289.91 242.17 288.46 242.16 287.02 242.18 285.58 242.31 284.13 242.17 282.69 242.49 281.25 242.45 279.8 242.46 278.36 242.22 276.92 242.34 275.47 242.39 274.03 242.37 272.59 242.23 271.14 242.47 269.7 242.19 268.26 242.21 266.81 242.39 265.37 242.18 263.93 242.45 262.48 242.17 261.04 242.24 259.6 242.4 258.15 242.2 256.71 242.45 255.27 242.33 253.82 242.32 252.38 242.3 250.94 242.26 249.49 242.3 248.05 242.25 246.61 242.45 245.16 242.29 243.72 242.27 242.28 242.29 240.83 242.3 239.39 242.42 237.95 242.33 236.5 242.4 235.06 242.35 233.62 242.29 232.17 242.29 230.73 242.31 229.29 242.19 227.84 242.17 226.4 242.34 224.96 242.16 223.51 242.46 222.07 242.23 220.63 242.23 219.19 242.15 217.74 242.32 216.3 242.21 214.86 242.43 213.41 242.16 211.97 242.29 210.53 242.38 209.08 242.44 207.64 242.4 206.2 242.33 204.75 242.23 203.31 242.13 201.87 242.27 200.42 242.42 198.98 242.36 197.54 242.39 196.09 242.29 194.65 242.42 193.21 242.39 191.76 242.17 190.32 242.3 188.88 242.45 187.43 242.16 185.99 242.17 184.55 242.46 183.1 242.16 181.66 242.28 180.22 242.17 178.77 242.13 177.33 242.41 175.89 242.14 174.44 242.26 173 242.22 171.56 242.18 170.11 242.19 168.67 242.21 167.23 242.15 165.78 242.27 164.34 242.4 162.9 242.35 161.45 242.35 160.01 242.38 158.57 242.43 157.12 242.29 155.68 242.41 154.24 242.37 152.79 242.15 151.35 242.2 149.91 242.12 148.46 242.3 147.02 242.27 145.58 242.26 144.13 242.43 142.69 242.31 141.25 242.3 139.8 242.29 138.36 242.16 136.92 242.23 135.47 242.19 134.03 242.41 132.59 242.26 131.14 242.2 129.7 242.17 128.26 242.38 126.81 242.3 125.37 242.22 123.93 242.14 122.48 242.45 121.04 242.3 119.6 242.24 118.15 242.12 116.71 242.19 115.27 242.39 113.82 242.3 112.38 242.14 110.94 242.21 109.49 242.39 108.05 242.44 106.61 242.14 105.16 242.17 103.72 242.37 102.28 242.23 100.83 242.44 99.39 242.4 98.02 242.4 96.65 242.23 95.28 242.39 93.91 242.16 92.54 242.44 91.16 242.16 89.84 242.37 88.98 243.58 88.35 244.97 87.44 246.2 86.68 247.52 85.81 248.77 84.97 250.04 84.14 251.32 83.5 252.83 82.6 251.58 81.68 250.5 80.68 249.47 79.75 248.4 78.92 247.24 77.97 246.14 76.69 246.69 75.63 247.57 74.41 248.14 73.22 248.81 72.42 247.56 71.94 246.18 71.31 244.88 70.45 243.69 69.87 242.39 68.46 242.24 67.02 242.38 65.59 242.25 64.15 242.19 62.72 242.33 61.28 242.48 59.85 242.5 58.41 242.32 56.98 242.33 55.54 242.34 54.11 242.39 52.68 242.27 51.24 242.51 49.81 242.37 48.38 242.33 46.94 242.2 45.51 242.35 44.08 242.33 42.64 242.39 41.21 242.35 39.78 242.34 38.35 242.51 36.91 242.27 35.48 242.49 34.05 242.43 32.61 242.23 31.18 242.46 29.74 242.25 28.31 242.23 26.88 242.3 25.44 242.3 24.01 242.29 22.57 242.23 21.14 242.44 19.7 242.31 18.27 242.41 16.83 242.3 15.4 242.49 13.96 242.3 12.53 242.39 11.09 242.37 9.65 242.29 8.21 242.35 6.77 242.51 5.43 242.24 5.15 240.93 5.41 239.51 5.23 238.1 5.07 236.69 5.27 235.27 5.13 233.86 5.18 232.45 5.14 231.04 5.19 229.62 5.28 228.21 5.21 226.8 5.09 225.39 5.01 223.97 5.29 222.56 5.22 221.15 5.32 219.74 5.07 218.33 5.06 216.92 5.05 215.51 5.15 214.11 5.33 212.7 5.17 211.29 5.35 209.88 5.04 208.48 5.14 207.01 5.31 205.55 5.11 204.09 5.27 202.62 5.32 201.16 5.04 199.69 5.31 198.23 5.26 196.76 5.24 195.3 5.19 193.84 5.3 192.37 5.06 190.91 5.17 189.44 5.06 187.98 5.02 186.51 5.2 185.05 5.26 183.58 5.3 182.12 5.32 180.66 5.26 179.19 5.24 177.73 5.24 176.26 5.05 174.8 5.31 173.36 5.32 171.91 5.15 170.47 5.25 169.03 5.25 167.59 5.28 166.15 5.25 164.71 5.3 163.26 5.07 161.82 5.09 160.38 5.08 158.94 5.32 157.5 5.18 156.05 5.12 154.61 5.31 153.17 5.24 151.73 5.28 150.29 5.06 148.85 5.11 147.4 5.31 145.96 5.05 144.52 5.16 143.08 5.1 141.64 5.22 140.17 5.33 138.7 5.24 137.23 5.3 135.76 5.23 134.29 5.02 132.82 5.12 131.35 5.2 129.88 5.23 128.42 5.11 126.95 5.01 125.48 5.19 124.01 5.34 122.54 5.07 121.07 5.2 119.61 5.27 118.14 5.02 116.66 5.29 115.2 5.27 113.73 5.19 112.25 5.06 110.78 5.22 109.31 5.11 107.85 4.2 106.77 3.47 105.52 2.61 104.36 1.75 103.32 2.34 101.99 3.19 100.7 3.85 99.31 4.6 97.97 5.57 96.7 5.52 95.22 5.34 93.77 5.34 92.33 5.36 90.88 5.28 89.44 5.55 87.99 5.26 86.55 5.4 85.1 5.44 83.66 5.39 82.21 5.41 80.76 5.59 79.32 5.56 77.87 5.38 76.43 5.28 74.98 5.55 73.53 5.44 72.09 5.41 70.64 5.47 69.19 5.57 67.75 5.43 66.3 5.35 64.85 5.36 63.41 5.38 61.96 5.47 60.51 5.5 59.07 5.43 57.62 5.48 56.17 5.3 54.73 5.4 53.28 5.28 51.84 5.34 50.39 5.57 48.94 5.52 47.5 5.27 46.05 5.26 44.6 5.57 43.15 5.52 41.7 5.56 40.26 5.6 38.81 5.32 37.36 5.57 35.91 5.55 34.46 5.41 33.02 5.56 31.57 5.52 30.12 5.41 28.67 5.59 27.22 5.35 25.77 5.29 24.32 5.35 22.87 5.55 21.42 5.57 19.97 5.51 18.52 5.31 17.07 5.43 15.62 5.42 14.17 5.31 12.71 5.48 11.31 6.86 11.36 8.29 11.17 9.72 11.4 11.15 11.41 12.58 11.16 14.01 11.28 15.45 11.19 16.88 11.23 18.31 11.16 19.74 11.18 21.17 11.3 22.6 11.17 24.03 11.35 25.46 11.39 26.88 11.17 28.31 11.29 29.74 11.13 31.17 11.38 32.6 11.1 34.03 11.41 35.46 11.09 36.89 11.16 38.31 11.25 39.74 11.41 41.17 11.15 42.6 11.34 44.03 11.17 45.46 11.36 46.89 11.29 48.31 11.31 49.74 11.42 51.17 11.19 52.6 11.16 54.03 11.34 55.46 11.26 56.88 11.18 58.31 11.3 59.74 11.12 61.17 11.21 62.6 11.22 64.03 11.2 65.46 11.38 66.89 11.16 68.32 11.35 69.74 11.14 71.17 11.4 72.6 11.22 74.03 11.35 75.46 11.25 76.89 11.15 78.32 11.09 79.75 11.11 81.18 11.34 82.61 11.17 84.04 11.35 85.48 11.24 86.91 11.12 88.4 11.37 89.21 10.06 90.18 8.97 91.09 7.82 92.04 6.66 92.86 7.74 93.52 8.91 94.39 9.92 95.14 11.05 96.61 10.85 98.05 11.07 99.5 10.86 100.94 11.14 102.38 11.14 103.83 11.05 105.27 10.91 106.71 11.06 108.16 11.02 109.6 10.9 111.04 10.96 112.48 11.01 113.93 11.12 115.37 10.87 116.81 10.92 118.25 11.06 119.7 10.99 121.14 11.04 122.58 11.06 124.02 10.91 125.46 11.1 126.91 10.97 128.35 10.87 129.79 11.04 131.23 10.91 132.67 11 134.12 11.05 135.56 10.83 137 10.9 138.44 10.93 139.88 11.06 141.32 11.05 142.76 10.99 144.21 10.87 145.65 10.88 147.09 10.95 148.53 11.03 149.97 11.08 151.41 10.88 152.85 10.95 154.29 11.06 155.73 11.04 157.17 11.02 158.61 11.16 160.05 11.1 161.49 10.93 162.93 11.07 164.37 11.07 165.81 10.96 167.25 10.99 168.69 10.92 170.13 10.84 171.57 10.83 173.01 10.9 174.45 10.87 175.89 11.11 177.33 11.12 178.77 11.05 180.22 11.1 181.66 11.05 183.1 10.84 184.54 11.07 185.98 10.84 187.42 11.07 188.86 11.09 190.3 11.03 191.74 10.88 193.18 11.09 194.62 11.07 196.06 11.11 197.5 11.03 198.94 11.15 200.38 11.08 201.82 10.91 203.26 11.03 204.7 10.96 206.14 10.83 207.58 10.97 209.02 10.92 210.46 10.83 211.9 11.11 213.35 11.14 214.79 11.09 216.23 10.98 217.67 10.99 219.11 11.13 220.55 10.92 222 11.08 223.44 11.07 224.88 11.06 226.33 10.9 227.78 10.99 228.88 9.85 229.85 8.59 230.83 7.27 232.2 8.16 233.42 9.18 234.87 9.86 236.18 10.67 237.29 9.98 238.52 9.39 239.61 8.58 240.67 7.72 241.92 8.53 243.25 9.19 244.63 9.73 245.96 10.29 246.69 9.2 247.76 8.32 248.53 7.19 249.45 6.18 250.31 5.14 251.18 4.08 251.93 2.83 252.77 4.13 253.58 5.36 254.05 6.76 254.87 8.05 255.75 9.24 256.95 10.1 258.28 10.82 259.78 11.09 261.3 10.92 262.76 11.13 264.21 10.95 265.66 11.01 267.11 11.02 268.56 11.09 270.01 10.95 271.47 11.18 272.92 11.01 274.37 11.05 275.82 11.15 277.27 10.94 278.72 11.15 280.18 10.92 281.63 11.04 283.08 10.89 284.53 10.87 285.98 11.12 287.43 10.87 288.89 10.9 290.34 10.96 291.79 11.14 293.24 11.1 294.69 10.83 296.14 11.06 297.59 10.85 299.05 10.84 300.5 10.98 301.95 11.04 303.4 10.83 304.85 10.98 306.3 10.81 307.76 10.94 309.21 10.92 310.66 10.94 312.11 11.15 313.56 11.08 315.01 11.12 316.46 11.14 317.92 10.83 319.37 11.04 320.82 10.97 322.27 10.94 323.72 11.04 325.17 11 326.63 10.96 328.08 10.88 329.53 10.85 330.98 11.05 332.43 10.85 333.88 10.99 335.34 10.81 336.79 11.07 338.11 11 339.43 11.25 340.76 11.09 341.97 11.34 341.96 12.69 342.19 14.14 342.23 15.59 342.3 17.04 342.16 18.5 342.22 19.95 342.28 21.4 342.3 22.85 342.15 24.3 342.24 25.75 342.27 27.2 342.31 28.65 342.3 30.1 342.19 31.55 342.11 33 342.15 34.46 342.25 35.91 342.31 37.36 342.02 38.81 342.24 40.25 342.24 41.7 342.26 43.15 342.2 44.6 342.26 46.05 342.05 47.5 342.31 48.95 342.02 50.4 342.12 51.84 342.31 53.29 342.08 54.74 342.01 56.19 342.16 57.63 342.28 59.08 342.1 60.53 342.3 61.97 342.05 63.41 342.25 64.85 342.32 66.28 342.07 67.72 342.05 69.16 342.23 70.59 342.25 72.03 342.15 73.46 342.21 74.9 342.09 76.34 342.29 77.77 342.01 79.21 342.09 80.64 342.27 82.08 342.25 83.52 342.01 84.95 342.19 86.39 342.24 87.82 342.23 89.26 342.2 90.7 342.03 92.13 342.34 93.57 342.15 95 342.06 96.44 342.26 97.88 342.04 99.31 342.14 100.75 342.27 102.18 342.02 103.62 342.14 105.06 342.23 106.49 342.04 107.93 342 109.36 342.28 110.8 342.01 112.24 342.04 113.69 342.26 115.15 342.09 116.61 342.22 118.07 342.27 119.53 342.33 120.99 342.17 122.44 342.12 123.9 342.25 125.36 342.14 126.82 342.21 128.28 342.12 129.73 342.29 131.19 342.16 132.65 342.26 134.11 342.28 135.57 342.1 137.02 342.1 138.48 342.1 139.94 342.26 141.4 342.26 142.86 342.28 144.32 342.17 145.77 342.29 147.23 342.1 148.69 342.16 150.15 342.07 151.61 342.07 153.07 342.04 154.53 342.07 155.99 342.25 157.45 342.26 158.91 342.14 160.37 342.11 161.84 342.11 163.33 343.25 164.06 344.27 164.9 345.1 165.95 346.12 166.8 347.17 167.59 346.3 168.83 345.28 169.96 344.15 170.99 343.25 172.23 343.81 173.72 344.54 175.13 345.2 176.59 344.42 178.01 343.83 179.51 342.98 180.86 343.5 182.02 344.08 183.17 344.88 184.2 345.58 185.34 344.32 186 343.37 187.04 342.21 187.76"/></g></g></g></svg>