<?xml version="1.0" encoding="UTF-8"?><svg id="Layer_2" xmlns="http://www.w3.org/2000/svg" viewBox="0 0 178.07 128.07"><defs><style>.cls-1{fill:#fff;stroke-width:0px;}.cls-2{fill:none;stroke:#000;stroke-miterlimit:10;stroke-width:3px;}</style></defs><g id="bw"><g id="our_team_-_small.svg"><g id="Layer_29_Image"><path class="cls-1" d="M176.57,125.51c0,.55-.21.95-.49.95-.72,0-.72-.01-1.43-.01s-.72.07-1.43.07-.72-.04-1.44-.04-.72,0-1.44,0-.72-.02-1.44-.02-.72,0-1.44,0-.72-.04-1.44-.04-.72,0-1.44,0-.72.04-1.44.04-.72.07-1.44.07-.72-.06-1.44-.06-.72.08-1.43.08-.72-.09-1.43-.09-.72-.03-1.43-.03-.72.09-1.43.09-.72,0-1.43,0-.72-.11-1.43-.11-.72.14-1.43.14-.72-.03-1.43-.03-.72-.01-1.43-.01-.72-.1-1.43-.1-.72,0-1.43,0-.72.02-1.43.02-.72.06-1.43.06-.72-.02-1.43-.02-.72-.07-1.43-.07-.72.08-1.43.08-.72-.03-1.44-.03-.72.1-1.44.1-.72-.01-1.44-.01-.72-.05-1.44-.05-.72-.01-1.44-.01-.72,0-1.44,0-.72.07-1.44.07-.72-.02-1.44-.02-.72.02-1.44.02-.72-.1-1.44-.1-.72.12-1.44.12-.72-.13-1.44-.13-.72.08-1.44.08-.72-.08-1.44-.08-.72.09-1.43.09-.72-.04-1.43-.04-.72.05-1.44.05-.72-.02-1.44-.02-.72,0-1.44,0-.72-.06-1.44-.06-.72.1-1.44.1-.72-.02-1.44-.02-.72-.06-1.44-.06-.72.07-1.44.07-.72-.03-1.44-.03-.72.05-1.44.05-.72-.1-1.44-.1-.72-.06-1.44-.06-.72.07-1.44.07-.72-.07-1.44-.07-.72.16-1.44.16-.72-.04-1.44-.04-.72-.09-1.44-.09-.72.1-1.44.1-.72-.06-1.44-.06-.72-.07-1.44-.07-.72.16-1.44.16-.72-.14-1.44-.14-.72.09-1.44.09-.72-.06-1.44-.06-.72.03-1.44.03-.72.06-1.44.06-.72-.13-1.44-.13-.72.13-1.44.13-.72-.05-1.44-.05-.72,0-1.44,0-.72-.03-1.44-.03-.72,0-1.44,0-.72.11-1.44.11-.72-.06-1.44-.06-.72-.02-1.44-.02-.72-.07-1.44-.07-.72.03-1.44.03-.72,0-1.44,0-.72-.01-1.44-.01-.72,0-1.44,0-.72.05-1.44.05-.72.09-1.44.09-.72-.04-1.44-.04-.72-.09-1.43-.09-.72.03-1.43.03-.72.1-1.44.1-.72-.02-1.44-.02-.72,0-1.44,0-.72-.02-1.44-.02-.72-.09-1.44-.09-.72.03-1.44.03-.72-.01-1.44-.01-.72.06-1.44.06-.72.04-1.44.04-.72-.12-1.44-.12-.72.05-1.44.05-.72.03-1.44.03-.72,0-1.44,0-.72.02-1.44.02-.72,0-1.44,0-.72-.01-1.44-.01-.72-.07-1.44-.07-.72.04-1.44.04-.72.11-1.44.11-.72-.04-1.44-.04-.72.03-1.44.03-.72,0-1.44,0-.72-.05-1.44-.05-.72-.04-1.44-.04-.72,0-1.44,0-.72,0-1.44,0-.72-.04-1.44-.04-.72.14-1.44.14-.72-.13-1.45-.13-.72.04-1.44.04-.72-.06-1.45-.06-.72.06-1.45.06-.72.06-1.45.06c-.28,0-.46-.5-.46-1.05,0-.72-.11-.72-.11-1.44s.05-.72.05-1.44-.04-.72-.04-1.44.05-.72.05-1.44-.05-.72-.05-1.44.06-.72.06-1.44,0-.72,0-1.44-.02-.72-.02-1.44-.05-.72-.05-1.44,0-.72,0-1.44.16-.72.16-1.44-.09-.72-.09-1.44-.04-.72-.04-1.45-.04-.72-.04-1.45.07-.72.07-1.45.06-.72.06-1.45-.04-.72-.04-1.45.05-.72.05-1.45,0-.72,0-1.44-.1-.72-.1-1.44.03-.72.03-1.44-.05-.72-.05-1.44.1-.72.1-1.44-.07-.72-.07-1.44.06-.72.06-1.45-.11-.72-.11-1.45.02-.72.02-1.45.15-.72.15-1.45-.11-.72-.11-1.45.09-.72.09-1.45,0-.72,0-1.45-.09-.72-.09-1.45.09-.72.09-1.45-.1-.72-.1-1.45-.01-.72-.01-1.45.08-.72.08-1.45-.12-.72-.12-1.45,0-.72,0-1.45,0-.72,0-1.45.12-.72.12-1.45-.1-.72-.1-1.45.11-.72.11-1.45.01-.72.01-1.45-.11-.72-.11-1.45,0-.72,0-1.45.08-.72.08-1.45-.12-.72-.12-1.45.02-.72.02-1.45.03-.72.03-1.45.09-.72.09-1.45,0-.72,0-1.44-.12-.72-.12-1.44-.01-.72-.01-1.44.11-.72.11-1.44-.09-.72-.09-1.45.13-.72.13-1.45-.11-.72-.11-1.45,0-.72,0-1.45-.05-.72-.05-1.44.08-.72.08-1.45,0-.72,0-1.45,0-.72,0-1.45.03-.73.03-1.45-.11-.72-.11-1.45.06-.72.06-1.45.04-.72.04-1.45.05-.73.05-1.45-.12-.72-.12-1.45.1-.72.1-1.45-.11-.72-.11-1.45.05-.73.05-1.45,0-.72,0-1.45-.06-.73-.06-1.45.01-.73.01-1.45.01-.73.01-1.45.08-.72.08-1.45-.06-.72-.06-1.45.03-.73.03-1.45,0-.73,0-1.45.08-.73.08-1.45-.14-.73-.14-1.45,0-.73,0-1.45.04-.73.04-1.46-.06-.73-.06-1.46,0-.73,0-1.46c0-.55.29-.99.57-.99.62.36.63.34,1.22.76s.55.47,1.13.88.6.38,1.19.8.57.43,1.15.85.54.47,1.13.88.62.36,1.2.78.59.4,1.18.82.6.39,1.18.8.55.47,1.13.88.63.35,1.21.77.57.44,1.15.85.55.47,1.13.88.6.38,1.19.8.59.41,1.17.82.61.37,1.19.79.54.48,1.12.89.63.35,1.21.77.52.51,1.1.92.62.36,1.2.77.6.39,1.18.81.58.41,1.17.83.59.41,1.17.82.53.49,1.12.9.56.45,1.14.87.67.29,1.25.71.5.54,1.08.95.57.43,1.16.85.66.3,1.25.72.57.43,1.16.85.52.51,1.1.92.64.34,1.23.75.62.36,1.21.78.51.52,1.1.94.64.34,1.23.76.61.39,1.19.81.51.52,1.1.93.64.35,1.22.76.53.49,1.12.9.61.37,1.2.79.61.38,1.19.8.54.48,1.12.9.62.36,1.21.78.57.43,1.16.85.62.37,1.2.78.58.42,1.17.83.53.5,1.11.91.62.37,1.2.78.54.47,1.13.89.64.34,1.22.75.59.4,1.18.82.55.47,1.13.88.63.35,1.22.76.53.5,1.11.91.58.42,1.17.84.61.39,1.19.8.58.43,1.16.84.6.39,1.19.81.59.41,1.17.83.6.39,1.19.81.55.47,1.13.89.64.34,1.23.76.54.48,1.13.9.58.42,1.17.84.59.4,1.18.82.58.42,1.16.84.57.44,1.15.85.56.44,1.15.86.59.41,1.17.83.57.43,1.16.85.65.33,1.23.74.54.49,1.12.9.6.39,1.19.81.59.41,1.18.82.56.45,1.15.87.59.4,1.18.82.57.43,1.16.85.67.3,1.26.71.54.48,1.13.9.59.41,1.18.82.54.48,1.13.9.68.29,1.26.71.5.54,1.08.96.64.35,1.22.76.59.41,1.18.82.57.44,1.16.85.58.42,1.17.84.64.34,1.22.76.57.44,1.15.86.59.4,1.18.82.53.49,1.12.91.61.39,1.2.8.57.44,1.16.86.6.4,1.19.81.53.49,1.12.91.58.42,1.17.84.68.28,1.27.7.59.41,1.18.83.51.52,1.1.94.65.33,1.24.74.56.45,1.15.86.59.41,1.18.82.52.51,1.11.93.59.41,1.18.83.68.29,1.26.71.49.55,1.08.97.67.3,1.25.72.6.39,1.19.81.5.54,1.09.95.58.43,1.17.84.58.43,1.17.84.62.37,1.21.78.59.41,1.18.82.56.45,1.14.87.59.41,1.18.82.66.31,1.25.72.49.54,1.08.96.61.38,1.2.79.64.35,1.22.76.58.43,1.16.85.57.44,1.16.86.61.39,1.19.81.55.47,1.13.89.57.44,1.16.85.57.43,1.16.85.65.33,1.23.75.55.46,1.14.88.65.34,1.23.75.59.42,1.17.84.54.49,1.12.9.62.36,1.21.78.55.47,1.14.89.6.4,1.19.82.57.45,1.15.86.6.41,1.18.82.64.35,1.22.77.51.53,1.1.94.66.31,1.25.72.54.48,1.13.9.6.4,1.19.81.59.42,1.17.84.57.44,1.16.86.59.41,1.18.83.63.36,1.22.78.55.47,1.14.89.55.47,1.14.89.64.35,1.23.77.55.48,1.14.9.62.38,1.24.76.67.35,1.14.9Z"/><path class="cls-2" d="M176.57,125.51c0,.55-.21.95-.49.95-.72,0-.72-.01-1.43-.01s-.72.07-1.43.07-.72-.04-1.44-.04-.72,0-1.44,0-.72-.02-1.44-.02-.72,0-1.44,0-.72-.04-1.44-.04-.72,0-1.44,0-.72.04-1.44.04-.72.07-1.44.07-.72-.06-1.44-.06-.72.08-1.43.08-.72-.09-1.43-.09-.72-.03-1.43-.03-.72.09-1.43.09-.72,0-1.43,0-.72-.11-1.43-.11-.72.14-1.43.14-.72-.03-1.43-.03-.72-.01-1.43-.01-.72-.1-1.43-.1-.72,0-1.43,0-.72.02-1.43.02-.72.06-1.43.06-.72-.02-1.43-.02-.72-.07-1.43-.07-.72.08-1.43.08-.72-.03-1.44-.03-.72.1-1.44.1-.72-.01-1.44-.01-.72-.05-1.44-.05-.72-.01-1.44-.01-.72,0-1.44,0-.72.07-1.44.07-.72-.02-1.44-.02-.72.02-1.44.02-.72-.1-1.44-.1-.72.12-1.44.12-.72-.13-1.44-.13-.72.08-1.44.08-.72-.08-1.44-.08-.72.09-1.43.09-.72-.04-1.43-.04-.72.05-1.44.05-.72-.02-1.44-.02-.72,0-1.44,0-.72-.06-1.44-.06-.72.1-1.44.1-.72-.02-1.44-.02-.72-.06-1.44-.06-.72.07-1.44.07-.72-.03-1.44-.03-.72.05-1.44.05-.72-.1-1.44-.1-.72-.06-1.44-.06-.72.07-1.44.07-.72-.07-1.44-.07-.72.16-1.44.16-.72-.04-1.44-.04-.72-.09-1.44-.09-.72.1-1.44.1-.72-.06-1.44-.06-.72-.07-1.44-.07-.72.16-1.44.16-.72-.14-1.44-.14-.72.09-1.44.09-.72-.06-1.44-.06-.72.03-1.44.03-.72.06-1.44.06-.72-.13-1.44-.13-.72.13-1.44.13-.72-.05-1.44-.05-.72,0-1.44,0-.72-.03-1.44-.03-.72,0-1.44,0-.72.11-1.44.11-.72-.06-1.44-.06-.72-.02-1.44-.02-.72-.07-1.44-.07-.72.03-1.44.03-.72,0-1.44,0-.72-.01-1.44-.01-.72,0-1.44,0-.72.05-1.44.05-.72.09-1.44.09-.72-.04-1.44-.04-.72-.09-1.43-.09-.72.03-1.43.03-.72.1-1.44.1-.72-.02-1.44-.02-.72,0-1.44,0-.72-.02-1.44-.02-.72-.09-1.44-.09-.72.03-1.44.03-.72-.01-1.44-.01-.72.06-1.44.06-.72.04-1.44.04-.72-.12-1.44-.12-.72.05-1.44.05-.72.03-1.44.03-.72,0-1.44,0-.72.02-1.44.02-.72,0-1.44,0-.72-.01-1.44-.01-.72-.07-1.44-.07-.72.04-1.44.04-.72.11-1.44.11-.72-.04-1.44-.04-.72.03-1.44.03-.72,0-1.44,0-.72-.05-1.44-.05-.72-.04-1.44-.04-.72,0-1.44,0-.72,0-1.44,0-.72-.04-1.44-.04-.72.14-1.44.14-.72-.13-1.45-.13-.72.04-1.44.04-.72-.06-1.45-.06-.72.06-1.45.06-.72.06-1.45.06c-.28,0-.46-.5-.46-1.05,0-.72-.11-.72-.11-1.44s.05-.72.05-1.44-.04-.72-.04-1.44.05-.72.05-1.44-.05-.72-.05-1.44.06-.72.06-1.44,0-.72,0-1.44-.02-.72-.02-1.44-.05-.72-.05-1.44,0-.72,0-1.44.16-.72.16-1.44-.09-.72-.09-1.44-.04-.72-.04-1.45-.04-.72-.04-1.45.07-.72.07-1.45.06-.72.06-1.45-.04-.72-.04-1.45.05-.72.05-1.45,0-.72,0-1.44-.1-.72-.1-1.44.03-.72.03-1.44-.05-.72-.05-1.44.1-.72.1-1.44-.07-.72-.07-1.44.06-.72.06-1.45-.11-.72-.11-1.45.02-.72.02-1.45.15-.72.15-1.45-.11-.72-.11-1.45.09-.72.09-1.45,0-.72,0-1.45-.09-.72-.09-1.45.09-.72.09-1.45-.1-.72-.1-1.45-.01-.72-.01-1.45.08-.72.08-1.45-.12-.72-.12-1.45,0-.72,0-1.45,0-.72,0-1.45.12-.72.12-1.45-.1-.72-.1-1.45.11-.72.11-1.45.01-.72.01-1.45-.11-.72-.11-1.45,0-.72,0-1.45.08-.72.08-1.45-.12-.72-.12-1.45.02-.72.02-1.45.03-.72.03-1.45.09-.72.09-1.45,0-.72,0-1.44-.12-.72-.12-1.44-.01-.72-.01-1.44.11-.72.11-1.44-.09-.72-.09-1.45.13-.72.13-1.45-.11-.72-.11-1.45,0-.72,0-1.45-.05-.72-.05-1.44.08-.72.08-1.45,0-.72,0-1.45,0-.72,0-1.45.03-.73.03-1.45-.11-.72-.11-1.45.06-.72.06-1.45.04-.72.04-1.45.05-.73.05-1.45-.12-.72-.12-1.45.1-.72.1-1.45-.11-.72-.11-1.45.05-.73.05-1.45,0-.72,0-1.45-.06-.73-.06-1.45.01-.73.01-1.45.01-.73.01-1.45.08-.72.08-1.45-.06-.72-.06-1.45.03-.73.03-1.45,0-.73,0-1.45.08-.73.08-1.45-.14-.73-.14-1.45,0-.73,0-1.45.04-.73.04-1.46-.06-.73-.06-1.46,0-.73,0-1.46c0-.55.29-.99.57-.99.62.36.63.34,1.22.76s.55.47,1.13.88.6.38,1.19.8.57.43,1.15.85.54.47,1.13.88.62.36,1.2.78.59.4,1.18.82.6.39,1.18.8.55.47,1.13.88.63.35,1.21.77.57.44,1.15.85.55.47,1.13.88.6.38,1.19.8.59.41,1.17.82.61.37,1.19.79.54.48,1.12.89.63.35,1.21.77.52.51,1.1.92.62.36,1.2.77.6.39,1.18.81.58.41,1.17.83.59.41,1.17.82.53.49,1.12.9.56.45,1.14.87.67.29,1.25.71.5.54,1.08.95.57.43,1.16.85.66.3,1.25.72.57.43,1.16.85.52.51,1.1.92.64.34,1.23.75.62.36,1.21.78.51.52,1.1.94.64.34,1.23.76.61.39,1.19.81.51.52,1.1.93.64.35,1.22.76.53.49,1.12.9.61.37,1.2.79.61.38,1.19.8.54.48,1.12.9.62.36,1.21.78.57.43,1.16.85.62.37,1.2.78.58.42,1.17.83.53.5,1.11.91.62.37,1.2.78.54.47,1.13.89.64.34,1.22.75.59.4,1.18.82.55.47,1.13.88.63.35,1.22.76.53.5,1.11.91.58.42,1.17.84.61.39,1.19.8.58.43,1.16.84.6.39,1.19.81.59.41,1.17.83.6.39,1.19.81.55.47,1.13.89.64.34,1.23.76.54.48,1.13.9.58.42,1.17.84.59.4,1.18.82.58.42,1.16.84.57.44,1.15.85.56.44,1.15.86.59.41,1.17.83.57.43,1.16.85.65.33,1.23.74.54.49,1.12.9.6.39,1.19.81.59.41,1.18.82.56.45,1.15.87.59.4,1.18.82.57.43,1.16.85.67.3,1.26.71.54.48,1.13.9.59.41,1.18.82.54.48,1.13.9.68.29,1.26.71.5.54,1.08.96.64.35,1.22.76.59.41,1.18.82.57.44,1.16.85.58.42,1.17.84.64.34,1.22.76.57.44,1.15.86.59.4,1.18.82.53.49,1.12.91.61.39,1.2.8.57.44,1.16.86.6.4,1.19.81.53.49,1.12.91.58.42,1.17.84.68.28,1.27.7.59.41,1.18.83.51.52,1.1.94.65.33,1.24.74.56.45,1.15.86.59.41,1.18.82.52.51,1.11.93.59.41,1.18.83.68.29,1.26.71.49.55,1.08.97.67.3,1.25.72.6.39,1.19.81.5.54,1.09.95.58.43,1.17.84.58.43,1.17.84.62.37,1.21.78.59.41,1.18.82.56.45,1.14.87.59.41,1.18.82.66.31,1.25.72.49.54,1.08.96.61.38,1.2.79.64.35,1.22.76.58.43,1.16.85.57.44,1.16.86.61.39,1.19.81.55.47,1.13.89.57.44,1.16.85.57.43,1.16.85.65.33,1.23.75.55.46,1.14.88.65.34,1.23.75.59.42,1.17.84.54.49,1.12.9.62.36,1.21.78.55.47,1.14.89.6.4,1.19.82.57.45,1.15.86.6.41,1.18.82.64.35,1.22.77.51.53,1.1.94.66.31,1.25.72.54.48,1.13.9.6.4,1.19.81.59.42,1.17.84.57.44,1.16.86.59.41,1.18.83.63.36,1.22.78.55.47,1.14.89.55.47,1.14.89.64.35,1.23.77.55.48,1.14.9.62.38,1.24.76.67.35,1.14.9Z"/></g></g></g></svg>