<?xml version="1.0" encoding="UTF-8"?><svg id="Layer_2" xmlns="http://www.w3.org/2000/svg" viewBox="0 0 178.1 128.09"><defs><style>.cls-1{fill:#fff;stroke-width:0px;}.cls-2{fill:none;stroke:#000;stroke-miterlimit:10;stroke-width:3px;}</style></defs><g id="bw"><g id="our_team_-_small.svg"><g id="Layer_29_Image"><path class="cls-1" d="M1.5,125.49c0,.55.24,1.05.51,1.05.72,0,.72.01,1.43.01s.72-.07,1.43-.07.72.04,1.44.04.72,0,1.44,0,.72.02,1.44.02.72,0,1.44,0,.72.04,1.44.04.72,0,1.44,0,.72-.04,1.44-.04.72-.07,1.44-.07.72.06,1.44.06.72-.08,1.43-.08.72.09,1.43.09.72.03,1.43.03.72-.09,1.43-.09.72,0,1.43,0,.72.11,1.43.11.72-.14,1.43-.14.72.03,1.43.03.72.01,1.43.01.72.1,1.43.1.72,0,1.43,0,.72-.02,1.43-.02.72-.06,1.43-.06.72.02,1.43.02.72.07,1.43.07.72-.08,1.43-.08.72.03,1.44.03.72-.1,1.44-.1.72.01,1.44.01.72.05,1.44.05.72.01,1.44.01.72,0,1.44,0,.72-.07,1.44-.07.72.02,1.44.02.72-.02,1.44-.02.72.1,1.44.1.72-.12,1.44-.12.72.13,1.44.13.72-.08,1.44-.08.72.08,1.44.08.72-.09,1.43-.09.72.04,1.43.04.72-.05,1.44-.05.72.02,1.44.02.72,0,1.44,0,.72.06,1.44.06.72-.1,1.44-.1.72.02,1.44.02.72.06,1.44.06.72-.07,1.44-.07.72.03,1.44.03.72-.05,1.44-.05.72.1,1.44.1.72.06,1.44.06.72-.07,1.44-.07.72.07,1.44.07.72-.16,1.44-.16.72.04,1.44.04.72.09,1.44.09.72-.1,1.44-.1.72.06,1.44.06.72.07,1.44.07.72-.16,1.44-.16.72.14,1.44.14.72-.09,1.44-.09.72.06,1.44.06.72-.03,1.44-.03.72-.06,1.44-.06.72.13,1.44.13.72-.13,1.44-.13.72.05,1.44.05.72,0,1.44,0,.72.03,1.44.03.72,0,1.44,0,.72-.11,1.44-.11.72.06,1.44.06.72.02,1.44.02.72.07,1.44.07.72-.03,1.44-.03.72,0,1.44,0,.72.01,1.44.01.72,0,1.44,0,.72-.05,1.44-.05.72-.09,1.44-.09.72.04,1.44.04.72.09,1.43.09.72-.03,1.43-.03.72-.1,1.44-.1.72.02,1.44.02.72,0,1.44,0,.72.02,1.44.02.72.09,1.44.09.72-.03,1.44-.03.72.01,1.44.01.72-.06,1.44-.06.72-.04,1.44-.04.72.12,1.44.12.72-.05,1.44-.05.72-.03,1.44-.03.72,0,1.44,0,.72-.02,1.44-.02.72,0,1.44,0,.72.01,1.44.01.72.07,1.44.07.72-.04,1.44-.04.72-.11,1.44-.11.72.04,1.44.04.72-.03,1.44-.03.72,0,1.44,0,.72.05,1.44.05.72.04,1.44.04.72,0,1.44,0,.72,0,1.44,0,.72.04,1.44.04.72-.14,1.44-.14.72.13,1.45.13.72-.04,1.44-.04.72.06,1.45.06.72-.06,1.45-.06.72-.06,1.45-.06c.28,0,.54-.39.54-.95,0-.72-.11-.72-.11-1.44s.05-.72.05-1.44-.04-.72-.04-1.44.05-.72.05-1.44-.05-.72-.05-1.44.06-.72.06-1.44,0-.72,0-1.44-.02-.72-.02-1.44-.05-.72-.05-1.44,0-.72,0-1.44.16-.72.16-1.44-.09-.72-.09-1.44-.04-.72-.04-1.45-.04-.72-.04-1.45.07-.72.07-1.45.06-.72.06-1.45-.04-.72-.04-1.45.05-.72.05-1.45,0-.72,0-1.44-.1-.72-.1-1.44.03-.72.03-1.44-.05-.72-.05-1.44.1-.72.1-1.44-.07-.72-.07-1.44.06-.72.06-1.45-.11-.72-.11-1.45.02-.72.02-1.45.15-.72.15-1.45-.11-.72-.11-1.45.09-.72.09-1.45,0-.72,0-1.45-.09-.72-.09-1.45.09-.72.09-1.45-.1-.72-.1-1.45-.01-.72-.01-1.45.08-.72.08-1.45-.12-.72-.12-1.45,0-.72,0-1.45,0-.72,0-1.45.12-.72.12-1.45-.1-.72-.1-1.45.11-.72.11-1.45.01-.72.01-1.45-.11-.72-.11-1.45,0-.72,0-1.45.08-.72.08-1.45-.12-.72-.12-1.45.02-.72.02-1.45.03-.72.03-1.45.09-.72.09-1.45,0-.72,0-1.44-.12-.72-.12-1.44-.01-.72-.01-1.44.11-.72.11-1.44-.09-.72-.09-1.45.13-.72.13-1.45-.11-.72-.11-1.45,0-.72,0-1.45-.05-.72-.05-1.44.08-.72.08-1.45,0-.72,0-1.45,0-.72,0-1.45.03-.73.03-1.45-.11-.72-.11-1.45.06-.72.06-1.45.04-.72.04-1.45.05-.73.05-1.45-.12-.72-.12-1.45.1-.72.1-1.45-.11-.72-.11-1.45.05-.73.05-1.45,0-.72,0-1.45-.06-.73-.06-1.45.01-.73.01-1.45.01-.73.01-1.45.08-.72.08-1.45-.06-.72-.06-1.45.03-.73.03-1.45,0-.73,0-1.45.08-.73.08-1.45-.14-.73-.14-1.45,0-.73,0-1.45.04-.73.04-1.46-.06-.73-.06-1.46,0-.73,0-1.46c0-.55-.16-1.01-.43-1.01-.62.36-.53.49-1.12.9s-.62.36-1.21.78-.56.44-1.15.86-.6.4-1.18.81-.62.36-1.21.77-.55.47-1.13.88-.57.43-1.16.84-.56.44-1.15.85-.62.36-1.2.78-.54.47-1.12.89-.6.39-1.18.81-.62.36-1.2.78-.56.44-1.14.86-.58.42-1.16.83-.55.45-1.14.87-.63.35-1.21.76-.54.47-1.12.89-.65.32-1.23.73-.54.47-1.13.88-.57.44-1.15.85-.58.42-1.16.83-.58.42-1.16.84-.63.34-1.22.76-.61.38-1.19.79-.5.54-1.08.95-.67.29-1.26.71-.6.4-1.18.81-.5.53-1.09.94-.6.4-1.18.82-.65.32-1.23.74-.53.49-1.11.91-.55.47-1.13.88-.66.31-1.25.73-.53.49-1.12.91-.57.44-1.15.86-.66.32-1.24.73-.54.49-1.12.9-.64.34-1.22.76-.56.46-1.14.87-.56.45-1.15.86-.63.35-1.22.77-.55.47-1.13.88-.6.4-1.18.81-.55.46-1.13.88-.58.41-1.17.83-.64.33-1.23.75-.55.46-1.13.88-.63.36-1.21.77-.53.49-1.11.91-.57.43-1.16.84-.62.36-1.21.78-.54.48-1.12.9-.64.34-1.23.75-.59.41-1.17.83-.56.44-1.15.86-.59.4-1.18.82-.57.44-1.15.85-.58.42-1.17.84-.57.44-1.15.86-.63.36-1.21.78-.53.49-1.12.91-.63.35-1.22.77-.59.41-1.17.83-.58.43-1.16.84-.59.41-1.18.82-.6.39-1.19.81-.61.39-1.19.8-.58.42-1.17.84-.6.4-1.18.81-.52.5-1.11.92-.63.35-1.22.76-.57.44-1.15.85-.58.42-1.16.84-.61.38-1.19.8-.58.43-1.16.84-.6.4-1.18.81-.5.54-1.09.95-.63.35-1.22.77-.58.43-1.17.84-.63.35-1.22.77-.5.54-1.08.96-.68.29-1.26.71-.54.49-1.12.9-.58.43-1.16.84-.6.39-1.19.81-.59.41-1.18.82-.53.49-1.12.91-.6.39-1.19.81-.58.43-1.16.85-.64.34-1.23.76-.56.45-1.15.87-.6.4-1.19.81-.57.44-1.16.85-.64.34-1.23.76-.59.41-1.17.83-.49.55-1.08.97-.58.42-1.17.84-.66.31-1.25.73-.52.51-1.11.92-.61.39-1.2.8-.58.43-1.17.84-.66.32-1.24.74-.58.42-1.17.84-.5.54-1.08.96-.68.28-1.27.7-.51.53-1.09.95-.57.44-1.16.86-.67.3-1.26.72-.59.41-1.18.83-.59.41-1.18.83-.55.47-1.14.88-.58.42-1.17.84-.61.38-1.2.79-.58.42-1.16.84-.51.53-1.09.94-.68.29-1.26.7-.56.45-1.14.87-.54.49-1.12.9-.6.4-1.19.82-.6.4-1.19.81-.57.45-1.15.86-.62.36-1.21.78-.6.4-1.19.81-.6.4-1.18.82-.53.5-1.11.92-.62.37-1.21.79-.53.5-1.12.92-.59.42-1.18.83-.64.35-1.22.76-.55.47-1.14.89-.62.37-1.21.78-.58.43-1.17.85-.61.39-1.19.81-.58.43-1.17.85-.54.48-1.13.9-.67.31-1.25.73-.51.53-1.09.94-.63.35-1.22.77-.57.44-1.16.86-.59.42-1.18.83-.6.39-1.19.81-.59.42-1.18.84-.55.47-1.14.89-.63.37-1.22.78-.63.37-1.22.79-.54.49-1.13.9-.63.36-1.22.78-.5.56-1.13.92-.75.23-1.22.78Z"/><path class="cls-2" d="M1.5,125.49c0,.55.24,1.05.51,1.05.72,0,.72.01,1.43.01s.72-.07,1.43-.07.72.04,1.44.04.72,0,1.44,0,.72.02,1.44.02.72,0,1.44,0,.72.04,1.44.04.72,0,1.44,0,.72-.04,1.44-.04.72-.07,1.44-.07.72.06,1.44.06.72-.08,1.43-.08.72.09,1.43.09.72.03,1.43.03.72-.09,1.43-.09.72,0,1.43,0,.72.11,1.43.11.72-.14,1.43-.14.72.03,1.43.03.72.01,1.43.01.72.1,1.43.1.72,0,1.43,0,.72-.02,1.43-.02.72-.06,1.43-.06.72.02,1.43.02.72.07,1.43.07.72-.08,1.43-.08.72.03,1.44.03.72-.1,1.44-.1.72.01,1.44.01.72.05,1.44.05.72.01,1.44.01.72,0,1.44,0,.72-.07,1.44-.07.72.02,1.44.02.72-.02,1.44-.02.72.1,1.44.1.72-.12,1.44-.12.72.13,1.44.13.72-.08,1.44-.08.72.08,1.44.08.72-.09,1.43-.09.72.04,1.43.04.72-.05,1.44-.05.72.02,1.44.02.72,0,1.44,0,.72.06,1.44.06.72-.1,1.44-.1.72.02,1.44.02.72.06,1.44.06.72-.07,1.44-.07.72.03,1.44.03.72-.05,1.44-.05.72.1,1.44.1.72.06,1.44.06.72-.07,1.44-.07.72.07,1.44.07.72-.16,1.44-.16.72.04,1.44.04.72.09,1.44.09.72-.1,1.44-.1.72.06,1.44.06.72.07,1.44.07.72-.16,1.44-.16.72.14,1.44.14.72-.09,1.44-.09.72.06,1.44.06.72-.03,1.44-.03.72-.06,1.44-.06.72.13,1.44.13.72-.13,1.44-.13.72.05,1.44.05.72,0,1.44,0,.72.03,1.44.03.72,0,1.44,0,.72-.11,1.44-.11.72.06,1.44.06.72.02,1.44.02.72.07,1.44.07.72-.03,1.44-.03.72,0,1.44,0,.72.01,1.44.01.72,0,1.44,0,.72-.05,1.44-.05.72-.09,1.44-.09.72.04,1.44.04.72.09,1.43.09.72-.03,1.43-.03.72-.1,1.44-.1.72.02,1.44.02.72,0,1.44,0,.72.02,1.44.02.72.09,1.44.09.72-.03,1.44-.03.72.01,1.44.01.72-.06,1.44-.06.72-.04,1.44-.04.72.12,1.44.12.72-.05,1.44-.05.72-.03,1.44-.03.72,0,1.44,0,.72-.02,1.44-.02.72,0,1.44,0,.72.01,1.44.01.72.07,1.44.07.72-.04,1.44-.04.72-.11,1.44-.11.72.04,1.44.04.72-.03,1.44-.03.72,0,1.44,0,.72.05,1.44.05.72.04,1.44.04.72,0,1.44,0,.72,0,1.44,0,.72.04,1.44.04.72-.14,1.44-.14.72.13,1.45.13.72-.04,1.44-.04.72.06,1.45.06.72-.06,1.45-.06.72-.06,1.45-.06c.28,0,.54-.39.54-.95,0-.72-.11-.72-.11-1.44s.05-.72.05-1.44-.04-.72-.04-1.44.05-.72.05-1.44-.05-.72-.05-1.44.06-.72.06-1.44,0-.72,0-1.44-.02-.72-.02-1.44-.05-.72-.05-1.44,0-.72,0-1.44.16-.72.16-1.44-.09-.72-.09-1.44-.04-.72-.04-1.45-.04-.72-.04-1.45.07-.72.07-1.45.06-.72.06-1.45-.04-.72-.04-1.45.05-.72.05-1.45,0-.72,0-1.44-.1-.72-.1-1.44.03-.72.03-1.44-.05-.72-.05-1.44.1-.72.1-1.44-.07-.72-.07-1.44.06-.72.06-1.45-.11-.72-.11-1.45.02-.72.02-1.45.15-.72.15-1.45-.11-.72-.11-1.45.09-.72.09-1.45,0-.72,0-1.45-.09-.72-.09-1.45.09-.72.09-1.45-.1-.72-.1-1.45-.01-.72-.01-1.45.08-.72.08-1.45-.12-.72-.12-1.45,0-.72,0-1.45,0-.72,0-1.45.12-.72.12-1.45-.1-.72-.1-1.45.11-.72.11-1.45.01-.72.01-1.45-.11-.72-.11-1.45,0-.72,0-1.45.08-.72.08-1.45-.12-.72-.12-1.45.02-.72.02-1.45.03-.72.03-1.45.09-.72.09-1.45,0-.72,0-1.44-.12-.72-.12-1.44-.01-.72-.01-1.44.11-.72.11-1.44-.09-.72-.09-1.45.13-.72.13-1.45-.11-.72-.11-1.45,0-.72,0-1.45-.05-.72-.05-1.44.08-.72.08-1.45,0-.72,0-1.45,0-.72,0-1.45.03-.73.03-1.45-.11-.72-.11-1.45.06-.72.06-1.45.04-.72.04-1.45.05-.73.05-1.45-.12-.72-.12-1.45.1-.72.1-1.45-.11-.72-.11-1.45.05-.73.05-1.45,0-.72,0-1.45-.06-.73-.06-1.45.01-.73.01-1.45.01-.73.01-1.45.08-.72.08-1.45-.06-.72-.06-1.45.03-.73.03-1.45,0-.73,0-1.45.08-.73.08-1.45-.14-.73-.14-1.45,0-.73,0-1.45.04-.73.04-1.46-.06-.73-.06-1.46,0-.73,0-1.46c0-.55-.16-1.01-.43-1.01-.62.36-.53.49-1.12.9s-.62.36-1.21.78-.56.44-1.15.86-.6.4-1.18.81-.62.36-1.21.77-.55.47-1.13.88-.57.43-1.16.84-.56.44-1.15.85-.62.36-1.2.78-.54.47-1.12.89-.6.39-1.18.81-.62.36-1.2.78-.56.44-1.14.86-.58.42-1.16.83-.55.45-1.14.87-.63.35-1.21.76-.54.47-1.12.89-.65.32-1.23.73-.54.47-1.13.88-.57.44-1.15.85-.58.42-1.16.83-.58.42-1.16.84-.63.34-1.22.76-.61.38-1.19.79-.5.54-1.08.95-.67.29-1.26.71-.6.4-1.18.81-.5.53-1.09.94-.6.4-1.18.82-.65.32-1.23.74-.53.49-1.11.91-.55.47-1.13.88-.66.31-1.25.73-.53.49-1.12.91-.57.44-1.15.86-.66.32-1.24.73-.54.49-1.12.9-.64.34-1.22.76-.56.46-1.14.87-.56.45-1.15.86-.63.35-1.22.77-.55.47-1.13.88-.6.4-1.18.81-.55.46-1.13.88-.58.41-1.17.83-.64.33-1.23.75-.55.46-1.13.88-.63.36-1.21.77-.53.49-1.11.91-.57.43-1.16.84-.62.36-1.21.78-.54.48-1.12.9-.64.34-1.23.75-.59.41-1.17.83-.56.44-1.15.86-.59.4-1.18.82-.57.44-1.15.85-.58.42-1.17.84-.57.44-1.15.86-.63.36-1.21.78-.53.49-1.12.91-.63.35-1.22.77-.59.41-1.17.83-.58.43-1.16.84-.59.41-1.18.82-.6.39-1.19.81-.61.39-1.19.8-.58.42-1.17.84-.6.4-1.18.81-.52.5-1.11.92-.63.35-1.22.76-.57.44-1.15.85-.58.42-1.16.84-.61.38-1.19.8-.58.43-1.16.84-.6.4-1.18.81-.5.54-1.09.95-.63.35-1.22.77-.58.43-1.17.84-.63.35-1.22.77-.5.54-1.08.96-.68.29-1.26.71-.54.49-1.12.9-.58.43-1.16.84-.6.39-1.19.81-.59.41-1.18.82-.53.49-1.12.91-.6.39-1.19.81-.58.43-1.16.85-.64.34-1.23.76-.56.45-1.15.87-.6.4-1.19.81-.57.44-1.16.85-.64.34-1.23.76-.59.41-1.17.83-.49.55-1.08.97-.58.42-1.17.84-.66.31-1.25.73-.52.51-1.11.92-.61.39-1.2.8-.58.43-1.17.84-.66.32-1.24.74-.58.42-1.17.84-.5.54-1.08.96-.68.28-1.27.7-.51.53-1.09.95-.57.44-1.16.86-.67.3-1.26.72-.59.41-1.18.83-.59.41-1.18.83-.55.47-1.14.88-.58.42-1.17.84-.61.38-1.2.79-.58.42-1.16.84-.51.53-1.09.94-.68.29-1.26.7-.56.45-1.14.87-.54.49-1.12.9-.6.4-1.19.82-.6.4-1.19.81-.57.45-1.15.86-.62.36-1.21.78-.6.4-1.19.81-.6.4-1.18.82-.53.5-1.11.92-.62.37-1.21.79-.53.5-1.12.92-.59.42-1.18.83-.64.35-1.22.76-.55.47-1.14.89-.62.37-1.21.78-.58.43-1.17.85-.61.39-1.19.81-.58.43-1.17.85-.54.48-1.13.9-.67.31-1.25.73-.51.53-1.09.94-.63.35-1.22.77-.57.44-1.16.86-.59.42-1.18.83-.6.39-1.19.81-.59.42-1.18.84-.55.47-1.14.89-.63.37-1.22.78-.63.37-1.22.79-.54.49-1.13.9-.63.36-1.22.78-.5.56-1.13.92-.75.23-1.22.78Z"/></g></g></g></svg>