<?xml version="1.0" encoding="UTF-8"?>
<svg version="1.1" xmlns="http://www.w3.org/2000/svg" width="635" height="306">
<path d="M0 0 C2.2076452 0.01768556 4.41534106 0.02990171 6.62304688 0.03662109 C14.72864148 0.0990497 22.83315261 0.26658596 30.9375 0.421875 C49.0875 0.669375 67.2375 0.916875 85.9375 1.171875 C85.9375 50.671875 85.9375 100.171875 85.9375 151.171875 C75.18062827 154.75749891 64.46411786 158.30400778 53.6171875 161.578125 C52.29483685 161.97933862 50.97255838 162.3807902 49.65034485 162.78245544 C46.83854312 163.63618047 44.02631327 164.48847331 41.2137146 165.33956909 C36.68895952 166.70885847 32.16529851 168.08173777 27.6418457 169.45532227 C26.86796163 169.69031087 26.09407755 169.92529947 25.29674244 170.16740894 C23.71739651 170.64698029 22.13805369 171.12656187 20.55871391 171.60615349 C18.15485677 172.33601231 15.75090769 173.06556762 13.34693909 173.7950592 C-2.65562448 178.65172692 -18.64949619 183.53670786 -34.64192581 188.4266243 C-38.39133721 189.57298714 -42.14086665 190.71896374 -45.89038086 191.86499023 C-54.94789568 194.63348815 -64.00521151 197.40263675 -73.0625 200.171875 C-85.12483999 203.85989855 -97.18728207 207.54758775 -109.25 211.234375 C-110.36730185 211.57587145 -110.36730185 211.57587145 -111.50717545 211.92426682 C-135.60661909 219.28995812 -159.71241451 226.63459548 -183.82189941 233.96734619 C-204.06235961 240.12349273 -224.29830939 246.2942349 -244.53002262 252.47906876 C-249.88338178 254.11551751 -255.23713303 255.75067849 -260.59106445 257.38525391 C-263.53469707 258.28408442 -266.47829786 259.18301908 -269.421875 260.08203125 C-270.49347398 260.40929955 -270.49347398 260.40929955 -271.58672142 260.74317932 C-280.12302889 263.35065897 -288.65614102 265.96807428 -297.18455505 268.60127258 C-301.54517809 269.94715387 -305.90725736 271.28827255 -310.26956177 272.62869263 C-312.23102658 273.23296028 -314.19172393 273.8397257 -316.15158081 274.44918823 C-318.78018423 275.26658057 -321.41120538 276.0756637 -324.04296875 276.8828125 C-324.79447205 277.11910873 -325.54597534 277.35540497 -326.32025146 277.59886169 C-329.99629364 278.71679436 -333.21199052 279.44748249 -337.0625 279.171875 C-337.7225 277.851875 -338.3825 276.531875 -339.0625 275.171875 C-335.34997639 271.31951999 -331.4414507 267.92929147 -327.25 264.609375 C-326.69119141 264.16013672 -326.13238281 263.71089844 -325.55664062 263.24804688 C-318.19403736 257.38158759 -310.60561417 251.80266732 -303.0625 246.171875 C-308.52126145 247.80700383 -313.97983012 249.44277423 -319.43823242 251.07910156 C-321.28941845 251.63395909 -323.14065414 252.18865094 -324.99194336 252.74316406 C-326.79029071 253.28184178 -328.58856007 253.82077993 -330.38674927 254.35998535 C-332.15253014 254.88931995 -333.91854071 255.41788891 -335.68478394 255.94567871 C-339.49555232 257.08708879 -343.30098708 258.23810874 -347.08837891 259.45507812 C-348.23097168 259.82052734 -349.37356445 260.18597656 -350.55078125 260.5625 C-351.51153564 260.87735352 -352.47229004 261.19220703 -353.4621582 261.51660156 C-356.1027925 262.18202851 -358.35156668 262.29837908 -361.0625 262.171875 C-361.7225 260.851875 -362.3825 259.531875 -363.0625 258.171875 C-359.40028267 254.37935406 -355.56490588 251.01037532 -351.4375 247.734375 C-350.79143799 247.2192334 -350.14537598 246.7040918 -349.47973633 246.17333984 C-343.53903283 241.47564678 -337.44615731 236.99580452 -331.33032227 232.5300293 C-325.77077755 228.46069484 -320.2993766 224.29448537 -314.875 220.046875 C-308.73923559 215.24220555 -302.55833938 210.51062809 -296.31176758 205.85107422 C-290.70030327 201.66160363 -285.1284838 197.4215349 -279.5625 193.171875 C-273.4148532 188.47939367 -267.25723523 183.80203434 -261.0625 179.171875 C-254.95120604 174.60401846 -248.87673621 169.9895013 -242.8125 165.359375 C-235.75469358 159.97064442 -228.67275705 154.61620519 -221.5625 149.296875 C-215.20706352 144.5411228 -208.88302913 139.7515603 -202.6015625 134.8984375 C-191.58191225 126.39307465 -180.49528061 117.97222833 -169.34375 109.640625 C-164.72862776 106.17928332 -160.14902975 102.67094302 -155.5625 99.171875 C-150.07632408 94.98646603 -144.59047214 90.80196913 -139.0625 86.671875 C-133.61799431 82.60405146 -128.21531111 78.48237128 -122.8125 74.359375 C-116.5813204 69.60469494 -110.34068475 64.86433267 -104.0625 60.171875 C-97.95120221 55.60402358 -91.87673617 50.98950126 -85.8125 46.359375 C-77.91645073 40.33063468 -69.98417946 34.35268417 -62.02929688 28.40185547 C-57.43279336 24.95997166 -52.85665315 21.49501811 -48.3125 17.984375 C-47.38455627 17.29082413 -46.45661255 16.59727325 -45.50054932 15.88270569 C-43.14473847 14.08172476 -40.99683052 12.18112039 -38.8684082 10.11810303 C-26.98689141 -0.81293363 -15.50921844 -0.41827501 0 0 Z " fill="#FFD172" transform="translate(549.0625,-1.171875)"/>
<path d="M0 0 C1.15681799 0.00056958 1.15681799 0.00056958 2.33700603 0.00115067 C3.22377956 -0.00084038 4.11055308 -0.00283143 5.02419853 -0.00488281 C6.00958656 -0.00196997 6.99497458 0.00094287 8.01022285 0.00394398 C9.04829958 0.00308955 10.0863763 0.00223513 11.1559099 0.00135481 C14.66298294 -0.0003031 18.17000901 0.00522645 21.67707771 0.01067311 C24.17965643 0.01095494 26.68223524 0.01079732 29.18481392 0.0102306 C34.58742896 0.01000228 39.99002865 0.01285374 45.39264053 0.01846844 C53.20399405 0.02658118 61.01534173 0.02919843 68.82669901 0.03045643 C81.49883376 0.03264731 94.17096208 0.03930836 106.84309334 0.04875904 C119.15591853 0.05793224 131.46874198 0.06501352 143.7815699 0.06926686 C144.54000405 0.06952958 145.2984382 0.0697923 146.07985521 0.07006299 C149.88453866 0.07136799 153.68922213 0.0726317 157.4939056 0.07387489 C189.07832376 0.08424861 220.66273394 0.10194201 252.24714607 0.1241985 C249.43431679 2.95827987 246.68366985 5.70250269 243.52448982 8.147636 C242.83129646 8.68614186 242.1381031 9.22464772 241.42390388 9.77947193 C240.6849488 10.3469817 239.94599373 10.91449147 239.18464607 11.4991985 C238.40315193 12.10280201 237.62165779 12.70640553 236.81648201 13.32830006 C224.86699321 22.53077994 212.84276992 31.64145851 200.53205818 40.35662037 C193.18332995 45.56627716 185.95898458 50.94599887 178.71589607 56.30095631 C176.27025605 58.10713112 173.8217597 59.90935491 171.37214607 61.710136 C163.97331779 67.15016472 156.58625 72.60378006 149.24714607 78.1241985 C141.09725657 84.25448371 132.88691997 90.30130108 124.67048591 96.34197193 C120.69392096 99.2665059 116.72064199 102.19549682 112.74714607 105.1241985 C107.96365934 108.64991134 103.17942656 112.17458775 98.39167732 115.694511 C90.98695144 121.14056745 83.59290241 126.59877616 76.24714607 132.1241985 C68.09725657 138.25448371 59.88691997 144.30130108 51.67048591 150.34197193 C47.69392096 153.2665059 43.72064199 156.19549682 39.74714607 159.1241985 C34.96365934 162.64991134 30.17942656 166.17458775 25.39167732 169.694511 C17.98695144 175.14056745 10.59290241 180.59877616 3.24714607 186.1241985 C-4.89689327 192.25008326 -13.10135379 198.29251746 -21.31193596 204.32878834 C-24.57359237 206.72789028 -27.83252283 209.13067768 -31.0909887 211.53411061 C-32.6855978 212.70936609 -34.28112353 213.883379 -35.87760979 215.05608326 C-39.63775988 217.81892319 -43.38521393 220.59547796 -47.10441643 223.413261 C-47.7853637 223.92477711 -48.46631096 224.43629322 -49.16789299 224.96330982 C-50.43303388 225.91437176 -51.693208 226.87209396 -52.94718987 227.83782154 C-56.12710348 230.2163787 -58.71218457 231.97427967 -62.75285393 232.1241985 C-63.41285393 231.4641985 -64.07285393 230.8041985 -64.75285393 230.1241985 C-64.40217419 225.26126031 -62.67043519 220.99262937 -60.81144768 216.538261 C-60.52431404 215.83647724 -60.23718041 215.13469349 -59.94134575 214.41164356 C-59.03015435 212.18839046 -58.11041037 209.96879553 -57.19035393 207.7491985 C-56.56803916 206.23510973 -55.94628843 204.72078899 -55.32511955 203.20622975 C-53.80754367 199.50950365 -52.28229155 195.81603195 -50.75285393 192.1241985 C-53.99505451 193.60657269 -56.6446045 195.45838235 -59.45597893 197.64372975 C-60.80369377 198.68303639 -60.80369377 198.68303639 -62.17863518 199.74333912 C-64.04602423 201.19360047 -65.91321513 202.64411701 -67.78019768 204.09490162 C-71.84295156 207.22745294 -75.91202149 210.34113907 -80.17472893 213.19841725 C-80.77382073 213.60020191 -81.37291252 214.00198658 -81.99015862 214.41594654 C-84.25966411 215.32783511 -85.48671244 214.91560387 -87.75285393 214.1241985 C-89.4177357 209.23583486 -87.76241902 205.77730301 -85.79972893 201.28435475 C-85.47288613 200.50707524 -85.14604332 199.72979573 -84.80929619 198.92896229 C-83.71896903 196.34302872 -82.61070309 193.76516814 -81.50285393 191.1866985 C-80.72803735 189.35609851 -79.95470967 187.52486771 -79.18278557 185.69304615 C-77.5490689 181.81823987 -75.90971331 177.94588815 -74.26701409 174.07488209 C-70.58131045 165.3716899 -66.98304426 156.63244835 -63.38304192 147.89354664 C-62.18274328 144.9807294 -60.98052998 142.06870936 -59.77775627 139.15691334 C-54.70860525 126.88301223 -49.66219479 114.59991172 -44.62785393 102.3116985 C-37.48138051 84.8684477 -30.27010167 67.45251267 -23.0385595 50.04437977 C-20.7360501 44.49927757 -18.44090304 38.95117619 -16.15029961 33.40114552 C-14.56742687 29.56604531 -12.98279212 25.7316742 -11.39808708 21.89733082 C-10.63804036 20.0569107 -9.87885664 18.21613393 -9.12056023 16.37499195 C-8.07313974 13.83213249 -7.02271146 11.29053564 -5.97160393 8.7491985 C-5.65892067 7.9877956 -5.34623741 7.22639271 -5.02407891 6.441917 C-2.42468426 0.17180105 -2.42468426 0.17180105 0 0 Z " fill="#009BC7" transform="translate(88.75285392999649,-0.12419849634170532)"/>
<path d="M0 0 C-4.41013178 4.7270817 -9.40387966 8.49755327 -14.5625 12.375 C-15.48708008 13.07471924 -16.41166016 13.77443848 -17.36425781 14.49536133 C-24.47969883 19.87425274 -31.61896389 25.22165456 -38.76025391 30.56616211 C-46.11705147 36.075425 -53.41828565 41.65511164 -60.71191406 47.24755859 C-71.34925449 55.39468083 -82.00057064 63.52328349 -92.734375 71.54296875 C-97.26096425 74.93791069 -101.75193217 78.37993192 -106.25 81.8125 C-112.4811796 86.56718006 -118.72181525 91.30754233 -125 96 C-131.11129779 100.56785142 -137.18576383 105.18237374 -143.25 109.8125 C-150.30780642 115.20123058 -157.38974295 120.55566981 -164.5 125.875 C-170.85543648 130.6307522 -177.17947087 135.4203147 -183.4609375 140.2734375 C-194.48574606 148.78278172 -205.57771337 157.2073487 -216.734375 165.54296875 C-221.26096425 168.93791069 -225.75193217 172.37993192 -230.25 175.8125 C-236.4811796 180.56718006 -242.72181525 185.30754233 -249 190 C-255.11129798 194.56785156 -261.18574932 199.18239258 -267.25 203.8125 C-274.22515798 209.13781856 -281.22303807 214.43073038 -288.25 219.6875 C-295.0160791 224.7503914 -301.7566523 229.84393359 -308.4597168 234.98999023 C-312.53686348 238.1198382 -316.62586378 241.23307659 -320.7265625 244.33203125 C-321.69537354 245.06558838 -322.66418457 245.79914551 -323.66235352 246.55493164 C-325.57241485 248.00062248 -327.48431815 249.44388343 -329.39819336 250.88452148 C-330.68802124 251.86207397 -330.68802124 251.86207397 -332.00390625 252.859375 C-332.77549072 253.44170898 -333.5470752 254.02404297 -334.34204102 254.62402344 C-334.88916748 255.0780957 -335.43629395 255.53216797 -336 256 C-336 256.33 -336 256.66 -336 257 C-305.59279464 247.78704868 -275.19605458 238.54062353 -244.8125 229.25 C-221.04681289 221.98301565 -197.27662339 214.7311232 -173.5 207.5 C-149.99451741 200.35121376 -126.49490244 193.18348145 -103 186 C-78.09158665 178.3843427 -53.17735633 170.78809127 -28.25753784 163.20983887 C-11.74251992 158.18741616 4.76994525 153.1567907 21.27734375 148.109375 C22.48401388 147.74045135 22.48401388 147.74045135 23.71506119 147.36407471 C30.78266226 145.20322072 37.85023659 143.04227979 44.91699219 140.87866211 C53.92269422 138.12143067 62.93006454 135.36977188 71.94026947 132.62728882 C74.06598219 131.97990519 76.19136059 131.33143196 78.31671143 130.68286133 C81.84508599 129.60667496 85.37483974 128.53512608 88.9056263 127.4668808 C90.22952192 127.06565244 91.55299143 126.66301504 92.87600517 126.25888824 C94.69096829 125.70481364 96.5076749 125.15645973 98.32446289 124.60839844 C99.35197159 124.2965863 100.37948029 123.98477417 101.43812561 123.66351318 C104 123 104 123 107 123 C107 131.91 107 140.82 107 150 C91.47017434 155.2969948 75.79471019 160.07670308 60.09209824 164.82865524 C56.29557449 165.97825532 52.49996789 167.13087466 48.7043457 168.28344727 C47.93046163 168.51843587 47.15657755 168.75342447 46.35924244 168.99553394 C44.77989651 169.47510529 43.20055369 169.95468687 41.62121391 170.43427849 C39.21735677 171.16413731 36.81340769 171.89369262 34.40943909 172.6231842 C18.40687552 177.47985192 2.41300381 182.36483286 -13.57942581 187.2547493 C-17.32883721 188.40111214 -21.07836665 189.54708874 -24.82788086 190.69311523 C-33.88539568 193.46161315 -42.94271151 196.23076175 -52 199 C-64.06233999 202.68802355 -76.12478207 206.37571275 -88.1875 210.0625 C-89.30480185 210.40399645 -89.30480185 210.40399645 -90.44467545 210.75239182 C-114.54411909 218.11808312 -138.64991451 225.46272048 -162.75939941 232.79547119 C-182.99985961 238.95161773 -203.23580939 245.1223599 -223.46752262 251.30719376 C-228.82088178 252.94364251 -234.17463303 254.57880349 -239.52856445 256.21337891 C-242.47219707 257.11220942 -245.41579786 258.01114408 -248.359375 258.91015625 C-249.43097398 259.23742455 -249.43097398 259.23742455 -250.52422142 259.57130432 C-259.06052889 262.17878397 -267.59364102 264.79619928 -276.12205505 267.42939758 C-280.48267809 268.77527887 -284.84475736 270.11639755 -289.20706177 271.45681763 C-291.16852658 272.06108528 -293.12922393 272.6678507 -295.08908081 273.27731323 C-297.71768423 274.09470557 -300.34870538 274.9037887 -302.98046875 275.7109375 C-303.73197205 275.94723373 -304.48347534 276.18352997 -305.25775146 276.42698669 C-308.93379364 277.54491936 -312.14949052 278.27560749 -316 278 C-316.66 276.68 -317.32 275.36 -318 274 C-314.28747639 270.14764499 -310.3789507 266.75741647 -306.1875 263.4375 C-305.62869141 262.98826172 -305.06988281 262.53902344 -304.49414062 262.07617188 C-297.13153736 256.20971259 -289.54311417 250.63079232 -282 245 C-287.45876145 246.63512883 -292.91733012 248.27089923 -298.37573242 249.90722656 C-300.22691845 250.46208409 -302.07815414 251.01677594 -303.92944336 251.57128906 C-305.72779071 252.10996678 -307.52606007 252.64890493 -309.32424927 253.18811035 C-311.09003014 253.71744495 -312.85604071 254.24601391 -314.62228394 254.77380371 C-318.43305232 255.91521379 -322.23848708 257.06623374 -326.02587891 258.28320312 C-327.16847168 258.64865234 -328.31106445 259.01410156 -329.48828125 259.390625 C-330.44903564 259.70547852 -331.40979004 260.02033203 -332.3996582 260.34472656 C-335.0402925 261.01015351 -337.28906668 261.12650408 -340 261 C-340.66 259.68 -341.32 258.36 -342 257 C-338.33778267 253.20747906 -334.50240588 249.83850032 -330.375 246.5625 C-329.72893799 246.0473584 -329.08287598 245.5322168 -328.41723633 245.00146484 C-322.47653283 240.30377178 -316.38365731 235.82392952 -310.26782227 231.3581543 C-304.70827755 227.28881984 -299.2368766 223.12261037 -293.8125 218.875 C-287.67673559 214.07033055 -281.49583938 209.33875309 -275.24926758 204.67919922 C-269.63780327 200.48972863 -264.0659838 196.2496599 -258.5 192 C-252.3523532 187.30751867 -246.19473523 182.63015934 -240 178 C-233.88870604 173.43214346 -227.81423621 168.8176263 -221.75 164.1875 C-214.69219358 158.79876942 -207.61025705 153.44433019 -200.5 148.125 C-194.14456352 143.3692478 -187.82052913 138.5796853 -181.5390625 133.7265625 C-170.51941225 125.22119965 -159.43278061 116.80035333 -148.28125 108.46875 C-143.66612776 105.00740832 -139.08652975 101.49906802 -134.5 98 C-129.01382408 93.81459103 -123.52797214 89.63009413 -118 85.5 C-112.55549431 81.43217646 -107.15281111 77.31049628 -101.75 73.1875 C-95.5188204 68.43281994 -89.27818475 63.69245767 -83 59 C-76.88870221 54.43214858 -70.81423617 49.81762626 -64.75 45.1875 C-56.85395073 39.15875968 -48.92167946 33.18080917 -40.96679688 27.22998047 C-36.37029136 23.78809516 -31.79392859 20.32345742 -27.25 16.8125 C-26.25484375 16.04808594 -25.2596875 15.28367187 -24.234375 14.49609375 C-22.47653424 13.14437865 -20.7259851 11.78467416 -18.98242188 10.41455078 C-16.82976829 8.72394682 -14.66566307 7.04889142 -12.5 5.375 C-11.49308105 4.57412964 -11.49308105 4.57412964 -10.46582031 3.75708008 C-4.57930995 -0.75734742 -4.57930995 -0.75734742 0 0 Z " fill="#000000" transform="translate(528,0)"/>
<path d="M0 0 C0.99 0 1.98 0 3 0 C1.01180429 6.23432923 -1.26027625 12.28733192 -3.78125 18.32421875 C-4.14691574 19.20704529 -4.51258148 20.08987183 -4.889328 20.99945068 C-6.09006157 23.89664751 -7.29506586 26.79204798 -8.5 29.6875 C-9.35034903 31.7375736 -10.20035928 33.78778775 -11.05004883 35.83813477 C-12.81669283 40.10032998 -14.58479184 44.36191704 -16.35400391 48.62304688 C-20.07977292 57.59897225 -23.79086953 66.58095324 -27.50054932 75.5635376 C-28.69260987 78.44987253 -29.8851161 81.33602309 -31.07763672 84.22216797 C-36.44025132 97.20414231 -41.77622844 110.1968732 -47.10079956 123.19448853 C-54.01975389 140.08060782 -61.00981393 156.93699423 -68.00776672 173.79049683 C-71.36574767 181.87851628 -74.71519789 189.97005624 -78.0625 198.0625 C-78.57454427 199.30029297 -79.08658854 200.53808594 -79.59863281 201.77587891 C-80.73255476 204.51719768 -81.86635893 207.25856507 -83 210 C-80.26432641 208.69957587 -77.82714986 207.26380731 -75.375 205.48828125 C-74.67898682 204.98562744 -73.98297363 204.48297363 -73.26586914 203.96508789 C-72.14426392 203.14705688 -72.14426392 203.14705688 -71 202.3125 C-70.21036865 201.73943115 -69.4207373 201.1663623 -68.60717773 200.57592773 C-61.86863192 195.66909112 -55.19694954 190.67482951 -48.53735352 185.66162109 C-40.52024655 179.62770543 -32.44498554 173.67486502 -24.35888672 167.73388672 C-20.40320388 164.82628379 -16.45178908 161.91289158 -12.5 159 C-7.71652547 155.47427063 -2.93228047 151.94961073 1.85546875 148.4296875 C9.26019463 142.98363105 16.65424366 137.52542234 24 132 C32.1498895 125.86971479 40.3602261 119.82289741 48.57666016 113.78222656 C52.55322511 110.8576926 56.52650408 107.92870168 60.5 105 C65.28348673 101.47428716 70.06771951 97.94961075 74.85546875 94.4296875 C82.26019463 88.98363105 89.65424366 83.52542234 97 78 C105.1498895 71.86971479 113.3602261 65.82289741 121.57666016 59.78222656 C125.55322511 56.8576926 129.52650408 53.92870168 133.5 51 C138.28348673 47.47428716 143.06771951 43.94961075 147.85546875 40.4296875 C155.90500618 34.50938255 163.93489128 28.56581631 171.91796875 22.55615234 C178.11674637 17.8961777 184.3631023 13.30148651 190.61914062 8.71875 C191.75706055 7.8834375 191.75706055 7.8834375 192.91796875 7.03125 C193.58594482 6.54205078 194.2539209 6.05285156 194.94213867 5.54882812 C197.1013823 4.01798708 197.1013823 4.01798708 199.01367188 1.83496094 C203.73836203 -1.06814331 208.43112466 -0.49151076 213.86328125 -0.390625 C215.01040085 -0.38496521 216.15752045 -0.37930542 217.33940125 -0.37347412 C220.99752813 -0.35111197 224.65466994 -0.30091327 228.3125 -0.25 C230.79490771 -0.22993491 233.2773308 -0.21168416 235.75976562 -0.1953125 C241.84017895 -0.15124759 247.92001909 -0.08433594 254 0 C251.20420997 2.84967679 248.4352375 5.57929975 245.27734375 8.0234375 C244.58415039 8.56194336 243.89095703 9.10044922 243.17675781 9.65527344 C242.43780273 10.2227832 241.69884766 10.79029297 240.9375 11.375 C240.15600586 11.97860352 239.37451172 12.58220703 238.56933594 13.20410156 C226.61984714 22.40658144 214.59562385 31.51726001 202.28491211 40.23242188 C194.93618388 45.44207867 187.71183851 50.82180037 180.46875 56.17675781 C178.02310998 57.98293262 175.57461363 59.78515642 173.125 61.5859375 C165.72617172 67.02596622 158.33910393 72.47958156 151 78 C142.8501105 84.13028521 134.6397739 90.17710259 126.42333984 96.21777344 C122.44677489 99.1423074 118.47349592 102.07129832 114.5 105 C109.71651327 108.52571284 104.93228049 112.05038925 100.14453125 115.5703125 C92.73980537 121.01636895 85.34575634 126.47457766 78 132 C69.8501105 138.13028521 61.6397739 144.17710259 53.42333984 150.21777344 C49.44677489 153.1423074 45.47349592 156.07129832 41.5 159 C36.71651327 162.52571284 31.93228049 166.05038925 27.14453125 169.5703125 C19.73980537 175.01636895 12.34575634 180.47457766 5 186 C-3.14403934 192.12588477 -11.34849986 198.16831896 -19.55908203 204.20458984 C-22.82073844 206.60369178 -26.0796689 209.00647918 -29.33813477 211.40991211 C-30.93274387 212.58516759 -32.5282696 213.75918051 -34.12475586 214.93188477 C-37.88490595 217.6947247 -41.63236 220.47127947 -45.3515625 223.2890625 C-46.03250977 223.80057861 -46.71345703 224.31209473 -47.41503906 224.83911133 C-48.68017995 225.79017327 -49.94035407 226.74789547 -51.19433594 227.71362305 C-54.37424955 230.0921802 -56.95933064 231.85008117 -61 232 C-61.66 231.34 -62.32 230.68 -63 230 C-62.64932026 225.13706182 -60.91758126 220.86843087 -59.05859375 216.4140625 C-58.77146011 215.71227875 -58.48432648 215.010495 -58.18849182 214.28744507 C-57.27730042 212.06419196 -56.35755644 209.84459703 -55.4375 207.625 C-54.81518523 206.11091123 -54.1934345 204.5965905 -53.57226562 203.08203125 C-52.05468974 199.38530515 -50.52943762 195.69183346 -49 192 C-52.24220058 193.48237419 -54.89175057 195.33418385 -57.703125 197.51953125 C-59.05083984 198.55883789 -59.05083984 198.55883789 -60.42578125 199.61914062 C-62.2931703 201.06940197 -64.1603612 202.51991851 -66.02734375 203.97070312 C-70.09009763 207.10325444 -74.15916756 210.21694057 -78.421875 213.07421875 C-79.0209668 213.47600342 -79.62005859 213.87778809 -80.23730469 214.29174805 C-82.50681018 215.20363661 -83.73385851 214.79140538 -86 214 C-87.66488177 209.11163636 -86.00956509 205.65310452 -84.046875 201.16015625 C-83.7200322 200.38287674 -83.39318939 199.60559723 -83.05644226 198.80476379 C-81.9661151 196.21883023 -80.85784916 193.64096964 -79.75 191.0625 C-78.97518342 189.23190002 -78.20185574 187.40066921 -77.42993164 185.56884766 C-75.79621497 181.69404137 -74.15685938 177.82168966 -72.51416016 173.95068359 C-68.82845652 165.24749141 -65.23019033 156.50824986 -61.63018799 147.76934814 C-60.42988935 144.8565309 -59.22767605 141.94451086 -58.02490234 139.03271484 C-52.95575132 126.75881373 -47.90934086 114.47571323 -42.875 102.1875 C-35.72852658 84.7442492 -28.51724774 67.32831418 -21.28570557 49.92018127 C-18.98319617 44.37507907 -16.68804911 38.8269777 -14.39744568 33.27694702 C-12.81457294 29.44184681 -11.22993819 25.6074757 -9.64523315 21.77313232 C-8.88518643 19.93271221 -8.12600271 18.09193544 -7.3677063 16.25079346 C-6.32028581 13.70793399 -5.26985753 11.16633715 -4.21875 8.625 C-3.90606674 7.86359711 -3.59338348 7.10219421 -3.27122498 6.31771851 C-1.11387271 1.11387271 -1.11387271 1.11387271 0 0 Z " fill="#000000" transform="translate(87,0)"/>
<path d="M0 0 C0 31.35 0 62.7 0 95 C-43.23 95 -86.46 95 -131 95 C-131.66 93.68 -132.32 92.36 -133 91 C-128.36641764 84.04962646 -118.61756247 82.42790311 -111 79 C-132.78 78.505 -132.78 78.505 -155 78 C-155.66 76.68 -156.32 75.36 -157 74 C-154.73725571 70.60588357 -153.51857299 70.07041514 -149.875 68.42578125 C-148.25295654 67.6843689 -148.25295654 67.6843689 -146.59814453 66.92797852 C-144.81706299 66.12831665 -144.81706299 66.12831665 -143 65.3125 C-141.09739085 64.44619751 -139.19628944 63.57664014 -137.29519653 62.70701599 C-135.95244147 62.09305423 -134.60922977 61.48009029 -133.26559448 60.86805725 C-126.23789817 57.66432609 -119.25212054 54.37336072 -112.26855469 51.07479858 C-108.66198376 49.37158725 -105.05371716 47.67197848 -101.4453125 45.97265625 C-100.73409241 45.63768631 -100.02287231 45.30271637 -99.2901001 44.95759583 C-91.59289375 41.33438016 -83.88223494 37.74015632 -76.17059326 34.14779663 C-66.74533184 29.75650661 -57.33419362 25.33592099 -47.9289856 20.90185547 C-42.29630192 18.2474313 -36.66078893 15.59902351 -31.02484131 12.95153809 C-29.02222469 12.0104441 -27.02012945 11.06824752 -25.01806641 10.12597656 C-21.36965469 8.40988985 -17.71645531 6.70425096 -14.0625 5 C-12.9787207 4.48937012 -11.89494141 3.97874023 -10.77832031 3.45263672 C-9.79057617 2.9938916 -8.80283203 2.53514648 -7.78515625 2.0625 C-6.92801025 1.66160156 -6.07086426 1.26070312 -5.18774414 0.84765625 C-3 0 -3 0 0 0 Z " fill="#D91811" transform="translate(635,211)"/>
<path d="M0 0 C0 0.99 0 1.98 0 3 C-14.57128608 10.07053644 -29.1770529 17.04703455 -43.87988281 23.84057617 C-53.61128949 28.34192003 -63.30866324 32.913101 -73 37.5 C-83.73317951 42.57876313 -94.47697766 47.63112746 -105.25 52.625 C-120.5208809 59.70513569 -135.75899509 66.85577895 -151 74 C-76.255 74.495 -76.255 74.495 0 75 C0 81.6 0 88.2 0 95 C-43.23 95 -86.46 95 -131 95 C-131.66 93.68 -132.32 92.36 -133 91 C-128.36641764 84.04962646 -118.61756247 82.42790311 -111 79 C-132.78 78.505 -132.78 78.505 -155 78 C-155.66 76.68 -156.32 75.36 -157 74 C-154.73725571 70.60588357 -153.51857299 70.07041514 -149.875 68.42578125 C-148.25295654 67.6843689 -148.25295654 67.6843689 -146.59814453 66.92797852 C-144.81706299 66.12831665 -144.81706299 66.12831665 -143 65.3125 C-141.09739085 64.44619751 -139.19628944 63.57664014 -137.29519653 62.70701599 C-135.95244147 62.09305423 -134.60922977 61.48009029 -133.26559448 60.86805725 C-126.23789817 57.66432609 -119.25212054 54.37336072 -112.26855469 51.07479858 C-108.66198376 49.37158725 -105.05371716 47.67197848 -101.4453125 45.97265625 C-100.73409241 45.63768631 -100.02287231 45.30271637 -99.2901001 44.95759583 C-91.59289375 41.33438016 -83.88223494 37.74015632 -76.17059326 34.14779663 C-66.74533184 29.75650661 -57.33419362 25.33592099 -47.9289856 20.90185547 C-42.29630192 18.2474313 -36.66078893 15.59902351 -31.02484131 12.95153809 C-29.02222469 12.0104441 -27.02012945 11.06824752 -25.01806641 10.12597656 C-21.36965469 8.40988985 -17.71645531 6.70425096 -14.0625 5 C-12.9787207 4.48937012 -11.89494141 3.97874023 -10.77832031 3.45263672 C-9.79057617 2.9938916 -8.80283203 2.53514648 -7.78515625 2.0625 C-6.92801025 1.66160156 -6.07086426 1.26070312 -5.18774414 0.84765625 C-3 0 -3 0 0 0 Z " fill="#000000" transform="translate(635,211)"/>
</svg>
