<?xml version="1.0" encoding="UTF-8"?>
<svg version="1.1" xmlns="http://www.w3.org/2000/svg" width="647" height="361">
<path d="M0 0 C15.98777603 7.99388801 15.98777603 7.99388801 21.875 11.5625 C23.3212608 12.42507263 24.76789818 13.28701406 26.21484375 14.1484375 C26.98038574 14.60573242 27.74592773 15.06302734 28.53466797 15.53417969 C33.15258437 18.27986894 37.79605512 20.98184144 42.4375 23.6875 C43.45078369 24.27877686 44.46406738 24.87005371 45.50805664 25.47924805 C52.927679 29.80441426 60.36776423 34.09325145 67.8125 38.375 C76.70896312 43.49287568 85.55646685 48.68657491 94.375 53.9375 C104.76038225 60.11909609 115.21761037 66.15853218 125.72119141 72.13598633 C136.21665164 78.11024791 146.65147527 84.18492884 157.07324219 90.28662109 C162.0050806 93.17381178 166.93955816 96.05647417 171.875 98.9375 C172.86016602 99.51258301 173.84533203 100.08766602 174.86035156 100.68017578 C182.2272234 104.97612199 189.61066141 109.2428357 197 113.5 C210.35009178 121.19128838 223.65733042 128.9548291 236.95898438 136.72949219 C248.28852891 143.35021812 259.62976603 149.94935227 271 156.5 C284.35009178 164.19128838 297.65733042 171.9548291 310.95898438 179.72949219 C313.93065505 181.46606836 316.90269374 183.20201192 319.875 184.9375 C321.35577026 185.80217896 321.35577026 185.80217896 322.86645508 186.68432617 C330.16611349 190.94201655 337.48700606 195.16196052 344.8125 199.375 C353.70897061 204.49286212 362.55646714 209.68657508 371.375 214.9375 C381.76038225 221.11909609 392.21761037 227.15853218 402.72119141 233.13598633 C413.19330878 239.09696061 423.60462621 245.15847548 434.00292969 251.24707031 C437.15870305 253.09282241 440.3172587 254.93373534 443.4765625 256.7734375 C444.54745117 257.39718262 445.61833984 258.02092773 446.72167969 258.66357422 C448.75075757 259.84526544 450.78003814 261.02660872 452.80957031 262.20751953 C454.64834924 263.27912791 456.48502581 264.35435382 458.31933594 265.43359375 C460.15182069 266.50437901 461.99419953 267.55836266 463.84472656 268.59765625 C464.74416992 269.11199219 465.64361328 269.62632812 466.5703125 270.15625 C467.37484863 270.60806641 468.17938477 271.05988281 469.00830078 271.52539062 C471.21255405 273.15737025 471.99891584 274.47734902 473 277 C472 278.5625 472 278.5625 470 280 C464.42012465 279.54351975 459.07237451 278.43893441 453.6328125 277.15234375 C452.49161453 276.88811363 452.49161453 276.88811363 451.32736206 276.61854553 C448.92567192 276.06199762 446.52526656 275.50015299 444.125 274.9375 C441.70316545 274.37194058 439.28107279 273.80756269 436.85836792 273.2457428 C435.35760123 272.89751889 433.85735554 272.54704029 432.35769653 272.19407654 C428.7173831 271.30920914 428.7173831 271.30920914 425 271 C425.70906494 271.40726318 426.41812988 271.81452637 427.14868164 272.23413086 C433.43972316 275.84963093 439.72585417 279.47337768 446.00454712 283.11027527 C449.32977079 285.03601335 452.66082495 286.95110526 455.99609375 288.859375 C457.33120146 289.63460384 458.66588538 290.41056336 460 291.1875 C461.134375 291.84105469 462.26875 292.49460937 463.4375 293.16796875 C465.98781296 294.99128701 466.96611099 296.08572536 468 299 C467 300.5625 467 300.5625 465 302 C459.16020294 301.53227063 453.55649315 300.32391882 447.86108398 298.99169922 C446.97151599 298.7870445 446.08194799 298.58238977 445.16542339 298.37153339 C442.19143062 297.68635004 439.21878704 296.99548506 436.24609375 296.3046875 C434.09756822 295.80857687 431.94895531 295.31284454 429.80026245 294.81745911 C425.14419748 293.7432328 420.48870995 292.66654956 415.83364868 291.58798218 C408.30369275 289.84340355 400.772455 288.10440528 393.2409668 286.36645508 C390.62092159 285.76181375 388.00088234 285.15714659 385.38084412 284.55247498 C384.72387568 284.40086098 384.06690725 284.24924698 383.39003068 284.09303862 C378.63777736 282.99625881 373.88569993 281.89871889 369.13368225 280.80091858 C349.72526672 276.31757514 330.31316491 271.85045894 310.8984375 267.39453125 C310.21146137 267.23685618 309.52448523 267.07918112 308.81669164 266.91672802 C301.13239491 265.15304671 293.44800664 263.38976452 285.76358032 261.62664795 C271.55168697 258.36584068 257.34024701 255.10305841 243.12890625 251.83984375 C242.4227967 251.67771047 241.71668714 251.51557718 240.98918033 251.34853077 C219.10457922 246.32345289 197.22155726 241.29154288 175.33984375 236.25390625 C173.9470858 235.93327476 172.55432775 235.61264374 171.1615696 235.29201317 C159.23608018 232.54657524 147.31064634 229.80089595 135.38565063 227.05331421 C90.26714601 216.65793345 45.13323856 206.33170521 0 196 C0 131.32 0 66.64 0 0 Z " fill="#D81710" transform="translate(0,11)"/>
<path d="M0 0 C51.15 0 102.3 0 155 0 C166.81748138 30.95054646 178.62565062 61.90320962 190.38671875 92.875 C194.53544731 103.78911886 198.70679561 114.69443822 202.88717651 125.59646606 C203.9897719 128.47331327 205.09095914 131.35069526 206.19165039 134.22827148 C206.92720668 136.15089398 207.6628026 138.07350132 208.3984375 139.99609375 C208.76507004 140.95430527 209.13170258 141.91251678 209.50944519 142.89976501 C211.99086969 149.37952959 214.48753366 155.85328106 216.99053955 162.32473755 C218.77645506 166.9474628 220.55423007 171.57329361 222.33056641 176.19970703 C223.18697923 178.42457128 224.04695197 180.6480688 224.91064453 182.87011719 C226.10847615 185.95293041 227.29385194 189.04026636 228.4765625 192.12890625 C228.83497223 193.04229263 229.19338196 193.95567902 229.56265259 194.89674377 C231.26856526 199.38979599 232.56559597 203.10744836 232 208 C231 209 231 209 228.67578125 209.3125 C225.15875678 208.90175262 224.35976889 207.72598449 222.1875 205 C221.58292969 204.2575 220.97835937 203.515 220.35546875 202.75 C219.90816406 202.1725 219.46085938 201.595 219 201 C220.90051384 207.8449401 223.27451716 214.36551013 226.01171875 220.921875 C227.0482051 224.15014079 227.26097087 226.63199855 227 230 C226 231 226 231 223.65380859 231.26196289 C220.39877985 230.94065233 219.68130811 230.21665398 217.5390625 227.80859375 C216.5953479 226.77303345 216.5953479 226.77303345 215.63256836 225.71655273 C214.9700708 224.96446533 214.30757324 224.21237793 213.625 223.4375 C212.20404235 221.87298134 210.78081254 220.31052374 209.35546875 218.75 C208.63407715 217.9559375 207.91268555 217.161875 207.16943359 216.34375 C203.29186262 212.15461188 199.21596051 208.16744975 195.13720703 204.17553711 C192.17426708 201.25387651 189.34226215 198.28500451 186.62890625 195.12890625 C182.64798123 190.51769122 178.34178519 186.26893645 174 182 C165.43436166 173.57808043 165.43436166 173.57808043 161.53125 169.03125 C157.43797243 164.26833486 152.97353063 159.90285874 148.5 155.5 C143.40015869 150.48072491 138.44816517 145.43954375 133.78710938 140.00976562 C130.36999116 136.1669081 126.66541335 132.60391313 123 129 C118.07089282 124.15359596 113.31027789 119.27002381 108.8046875 114.02734375 C105.37990169 110.18001943 101.67145474 106.60985315 98 103 C93.07089282 98.15359596 88.31027789 93.27002381 83.8046875 88.02734375 C80.37990169 84.18001943 76.67145474 80.60985315 73 77 C64.43436166 68.57808043 64.43436166 68.57808043 60.53125 64.03125 C56.43797243 59.26833486 51.97353063 54.90285874 47.5 50.5 C38.39804786 41.54183858 38.39804786 41.54183858 34.83203125 37.328125 C31.42691263 33.35961223 27.75447162 29.69413118 24.04296875 26.015625 C23.40984772 25.3880127 22.77672668 24.76040039 22.12442017 24.11376953 C19.47229533 21.48940369 16.81658894 18.8687289 14.15649414 16.25244141 C12.19760552 14.32371145 10.24495014 12.38884158 8.29296875 10.453125 C7.6909111 9.86452698 7.08885345 9.27592896 6.46855164 8.66949463 C5.91069473 8.11501648 5.35283783 7.56053833 4.77807617 6.98925781 C4.28844894 6.50708801 3.79882172 6.02491821 3.2943573 5.52813721 C2 4 2 4 0 0 Z " fill="#FFD172" transform="translate(415,0)"/>
<path d="M0 0 C9.82641311 4.70297426 19.18770048 9.95078804 28.53466797 15.53417969 C33.15258437 18.27986894 37.79605512 20.98184144 42.4375 23.6875 C43.45078369 24.27877686 44.46406738 24.87005371 45.50805664 25.47924805 C52.927679 29.80441426 60.36776423 34.09325145 67.8125 38.375 C76.70896312 43.49287568 85.55646685 48.68657491 94.375 53.9375 C104.76038225 60.11909609 115.21761037 66.15853218 125.72119141 72.13598633 C136.21665164 78.11024791 146.65147527 84.18492884 157.07324219 90.28662109 C162.0050806 93.17381178 166.93955816 96.05647417 171.875 98.9375 C172.86016602 99.51258301 173.84533203 100.08766602 174.86035156 100.68017578 C182.2272234 104.97612199 189.61066141 109.2428357 197 113.5 C210.35009178 121.19128838 223.65733042 128.9548291 236.95898438 136.72949219 C248.28852891 143.35021812 259.62976603 149.94935227 271 156.5 C284.35009178 164.19128838 297.65733042 171.9548291 310.95898438 179.72949219 C313.93065505 181.46606836 316.90269374 183.20201192 319.875 184.9375 C321.35577026 185.80217896 321.35577026 185.80217896 322.86645508 186.68432617 C330.16611349 190.94201655 337.48700606 195.16196052 344.8125 199.375 C353.70897061 204.49286212 362.55646714 209.68657508 371.375 214.9375 C381.76038225 221.11909609 392.21761037 227.15853218 402.72119141 233.13598633 C413.19330878 239.09696061 423.60462621 245.15847548 434.00292969 251.24707031 C437.15870305 253.09282241 440.3172587 254.93373534 443.4765625 256.7734375 C444.54745117 257.39718262 445.61833984 258.02092773 446.72167969 258.66357422 C448.75075757 259.84526544 450.78003814 261.02660872 452.80957031 262.20751953 C454.64834924 263.27912791 456.48502581 264.35435382 458.31933594 265.43359375 C460.15182069 266.50437901 461.99419953 267.55836266 463.84472656 268.59765625 C464.74416992 269.11199219 465.64361328 269.62632812 466.5703125 270.15625 C467.37484863 270.60806641 468.17938477 271.05988281 469.00830078 271.52539062 C471.21255405 273.15737025 471.99891584 274.47734902 473 277 C472 278.5625 472 278.5625 470 280 C464.42012465 279.54351975 459.07237451 278.43893441 453.6328125 277.15234375 C452.49161453 276.88811363 452.49161453 276.88811363 451.32736206 276.61854553 C448.92567192 276.06199762 446.52526656 275.50015299 444.125 274.9375 C441.70316545 274.37194058 439.28107279 273.80756269 436.85836792 273.2457428 C435.35760123 272.89751889 433.85735554 272.54704029 432.35769653 272.19407654 C428.7173831 271.30920914 428.7173831 271.30920914 425 271 C425.70906494 271.40726318 426.41812988 271.81452637 427.14868164 272.23413086 C433.43972316 275.84963093 439.72585417 279.47337768 446.00454712 283.11027527 C449.32977079 285.03601335 452.66082495 286.95110526 455.99609375 288.859375 C457.33120146 289.63460384 458.66588538 290.41056336 460 291.1875 C461.134375 291.84105469 462.26875 292.49460937 463.4375 293.16796875 C465.98781296 294.99128701 466.96611099 296.08572536 468 299 C467 300.5625 467 300.5625 465 302 C459.16020294 301.53227063 453.55649315 300.32391882 447.86108398 298.99169922 C446.97151599 298.7870445 446.08194799 298.58238977 445.16542339 298.37153339 C442.19143062 297.68635004 439.21878704 296.99548506 436.24609375 296.3046875 C434.09756822 295.80857687 431.94895531 295.31284454 429.80026245 294.81745911 C425.14419748 293.7432328 420.48870995 292.66654956 415.83364868 291.58798218 C408.30369275 289.84340355 400.772455 288.10440528 393.2409668 286.36645508 C390.62092159 285.76181375 388.00088234 285.15714659 385.38084412 284.55247498 C384.72387568 284.40086098 384.06690725 284.24924698 383.39003068 284.09303862 C378.63777736 282.99625881 373.88569993 281.89871889 369.13368225 280.80091858 C349.72526672 276.31757514 330.31316491 271.85045894 310.8984375 267.39453125 C310.21146137 267.23685618 309.52448523 267.07918112 308.81669164 266.91672802 C301.13239491 265.15304671 293.44800664 263.38976452 285.76358032 261.62664795 C271.55168697 258.36584068 257.34024701 255.10305841 243.12890625 251.83984375 C242.4227967 251.67771047 241.71668714 251.51557718 240.98918033 251.34853077 C219.1045793 246.32345291 197.22153223 241.29165139 175.33984375 236.25390625 C174.6552983 236.09630687 173.97075284 235.93870749 173.26546359 235.77633238 C162.43128793 233.2820112 151.59720865 230.78727143 140.76314116 228.29248047 C93.85086504 217.48988684 46.93066841 206.72240791 0 196 C0 187.09 0 178.18 0 169 C7.82104835 170.30350806 15.34674525 171.70909813 23 173.625 C33.55210448 176.21436901 44.1387917 178.60628359 54.75 180.9375 C65.7808152 183.36328069 76.78027366 185.8717121 87.75 188.5625 C97.80246804 191.02818655 107.88275663 193.31949686 118 195.5 C128.1172504 197.68050465 138.19745593 199.97211043 148.25 202.4375 C159.01350867 205.07468552 169.80383273 207.55111367 180.625 209.9375 C183.68101195 210.61187785 186.73701462 211.28629768 189.79296875 211.9609375 C190.55372208 212.1288681 191.3144754 212.29679871 192.09828186 212.46981812 C200.38535488 214.30181 208.66326001 216.17346051 216.9375 218.0625 C218.02984451 218.31178253 218.02984451 218.31178253 219.14425659 218.56610107 C230.19329583 221.09148166 241.21050857 223.73497469 252.22045898 226.42602539 C261.79399753 228.74862326 271.4064882 230.86319937 281.03561401 232.93878174 C291.65726971 235.23117493 302.22275941 237.71377296 312.77636719 240.30249023 C322.5725018 242.69038112 332.40287717 244.8961895 342.25 247.0625 C353.33606687 249.50150989 364.39246073 252.01921156 375.41992188 254.71337891 C384.50229114 256.91601596 393.62315153 258.92944551 402.75 260.9375 C415.26685975 263.69157057 427.73907452 266.57827713 440.18920898 269.62109375 C449.43229324 271.87765849 458.69922841 273.99541603 468 276 C467.42894531 275.67950684 466.85789062 275.35901367 466.26953125 275.02880859 C452.10414573 267.07063195 438.02580708 258.97562043 424.00732422 250.76171875 C419.04930249 247.85726309 414.08761895 244.95909225 409.125 242.0625 C408.14023682 241.48765869 407.15547363 240.91281738 406.14086914 240.32055664 C398.7736093 236.02433377 391.38974972 231.75740115 384 227.5 C370.64990822 219.80871162 357.34266958 212.0451709 344.04101562 204.27050781 C332.71147109 197.64978188 321.37023397 191.05064773 310 184.5 C296.64990822 176.80871162 283.34266958 169.0451709 270.04101562 161.27050781 C258.71147109 154.64978188 247.37023397 148.05064773 236 141.5 C222.64990822 133.80871162 209.34266958 126.0451709 196.04101562 118.27050781 C193.06934495 116.53393164 190.09730626 114.79798808 187.125 113.0625 C186.13781982 112.48604736 185.15063965 111.90959473 184.13354492 111.31567383 C176.83388651 107.05798345 169.51299394 102.83803948 162.1875 98.625 C153.29102939 93.50713788 144.44353286 88.31342492 135.625 83.0625 C125.23961775 76.88090391 114.78238963 70.84146782 104.27880859 64.86401367 C93.78334836 58.88975209 83.34852473 52.81507116 72.92675781 46.71337891 C67.99491927 43.82618814 63.06038304 40.94362675 58.125 38.0625 C57.14273438 37.48886719 56.16046875 36.91523437 55.1484375 36.32421875 C48.80351223 32.62301234 42.44383215 28.94832911 36.07519531 25.28808594 C31.74947805 22.79936931 27.43041391 20.29925202 23.11230469 17.79736328 C21.04836146 16.60543121 18.98132289 15.41884197 16.91113281 14.23779297 C14.05780161 12.60937667 11.21548539 10.96319135 8.375 9.3125 C7.52131836 8.83151855 6.66763672 8.35053711 5.78808594 7.85498047 C5.02012695 7.40396973 4.25216797 6.95295898 3.4609375 6.48828125 C2.78853027 6.10196533 2.11612305 5.71564941 1.42333984 5.31762695 C0.9536377 4.88281006 0.48393555 4.44799316 0 4 C0 2.68 0 1.36 0 0 Z " fill="#020000" transform="translate(0,11)"/>
<path d="M0 0 C5.89497667 1.30999482 11.04090358 2.58012005 16.546875 4.7734375 C17.25437393 5.04868256 17.96187286 5.32392761 18.69081116 5.60751343 C20.23183633 6.20758559 21.7717656 6.8104782 23.31069946 7.41589355 C27.63770854 9.11722647 31.97375873 10.79529303 36.30859375 12.4765625 C37.24100388 12.83878906 38.173414 13.20101563 39.13407898 13.57421875 C50.66323977 18.04623002 62.23896381 22.39446664 73.8125 26.75 C78.36349756 28.46426995 82.9142135 30.17928652 87.46484375 31.89453125 C88.59571411 32.32074265 89.72658447 32.74695404 90.89172363 33.18608093 C109.8113881 40.31923756 128.70846105 47.51192187 147.60449219 54.70739746 C151.22564746 56.08589952 154.8471644 57.46344934 158.46875 58.84082031 C164.23591575 61.03427808 170.0024167 63.22947454 175.76820564 65.42654896 C178.8636352 66.60604999 181.95937596 67.7847214 185.05560303 68.96212769 C188.48313681 70.26574735 191.90965883 71.57199203 195.3359375 72.87890625 C196.35949341 73.26756866 197.38304932 73.65623108 198.43762207 74.05667114 C199.37908081 74.41639008 200.32053955 74.77610901 201.29052734 75.14672852 C202.10790375 75.45804214 202.92528015 75.76935577 203.76742554 76.09010315 C208.13749742 77.87114773 208.13749742 77.87114773 210 79 C210.33 79.99 210.66 80.98 211 82 C209.3853804 83.94700642 208.5014923 84.91092828 205.96882629 85.36076355 C205.19383286 85.35410172 204.41883942 85.34743988 203.62036133 85.34057617 C202.73967484 85.34034958 201.85898834 85.34012299 200.95161438 85.33988953 C200.00465195 85.32440567 199.05768951 85.30892181 198.08203125 85.29296875 C197.10965012 85.28872391 196.13726898 85.28447906 195.13542175 85.28010559 C192.02750034 85.26330315 188.92022566 85.22564779 185.8125 85.1875 C183.70638957 85.1724552 181.60026898 85.15876644 179.49414062 85.14648438 C174.32917762 85.11339444 169.16469849 85.06160109 164 85 C165.09989258 85.41362793 166.19978516 85.82725586 167.33300781 86.25341797 C171.41895095 87.79063578 175.50382263 89.33068337 179.58837891 90.87158203 C181.35534091 91.53771795 183.12259139 92.2030892 184.89013672 92.86767578 C187.43273174 93.82382871 189.97427191 94.78273932 192.515625 95.7421875 C193.30430969 96.03809784 194.09299438 96.33400818 194.90557861 96.6388855 C195.64604431 96.91902496 196.38651001 97.19916443 197.14941406 97.48779297 C197.79783264 97.73206024 198.44625122 97.97632751 199.11431885 98.22799683 C203.09803169 99.85894008 203.09803169 99.85894008 205 101 C205.33 101.99 205.66 102.98 206 104 C203.56253178 106.86768984 203.17179322 106.98506987 199.11224365 107.33787537 C197.36341943 107.33155177 195.61461593 107.30614301 193.86621094 107.26733398 C192.37087641 107.25016531 192.37087641 107.25016531 190.8453331 107.2326498 C187.22933432 107.17924961 183.61518735 107.09342434 180 107 C179.3044935 106.98205714 178.60898701 106.96411427 177.89240456 106.94562769 C165.93468727 106.6322093 153.97999761 106.23185684 142.02528477 105.82135701 C138.12995926 105.68807558 134.23455174 105.55728204 130.33914256 105.4264726 C121.16168485 105.11826804 111.98436496 104.80618597 102.80712891 104.49145508 C93.34848822 104.16713161 83.88965445 103.84896398 74.43070436 103.533804 C66.27558436 103.26190317 58.12058681 102.98653237 49.96568084 102.70828623 C45.10847153 102.54257507 40.25122828 102.37812112 35.39386749 102.21690559 C30.84631104 102.06579953 26.29892341 101.91035797 21.75163078 101.75151634 C20.08231539 101.69392907 18.41294616 101.63787918 16.74352455 101.58345795 C14.47071681 101.50912253 12.19816733 101.42929667 9.92559814 101.34803772 C8.65297749 101.30471345 7.38035683 101.26138918 6.06917191 101.21675205 C3 101 3 101 0 100 C0 67 0 34 0 0 Z " fill="#009BC7" transform="translate(0,254)"/>
<path d="M0 0 C28.48342935 -2.60006962 28.48342935 -2.60006962 36.15234375 3.05859375 C39.3636127 6.05881133 42.03094086 9.37947597 44.55273438 12.97070312 C49.69703034 20.18382527 56.20853711 26.30792831 62.5 32.5 C67.59984131 37.51927509 72.55183483 42.56045625 77.21289062 47.99023438 C80.63000884 51.8330919 84.33458665 55.39608687 88 59 C92.92910718 63.84640404 97.68972211 68.72997619 102.1953125 73.97265625 C105.62009831 77.81998057 109.32854526 81.39014685 113 85 C117.92910718 89.84640404 122.68972211 94.72997619 127.1953125 99.97265625 C130.62009831 103.81998057 134.32854526 107.39014685 138 111 C146.56563834 119.42191957 146.56563834 119.42191957 150.46875 123.96875 C154.56202757 128.73166514 159.02646937 133.09714126 163.5 137.5 C168.59984131 142.51927509 173.55183483 147.56045625 178.21289062 152.99023438 C181.63000884 156.8330919 185.33458665 160.39608687 189 164 C193.92510165 168.84246572 198.68413364 173.72138977 203.18652344 178.95947266 C206.66065533 182.86857259 210.40834704 186.51091046 214.125 190.1875 C214.91003906 190.96802734 215.69507813 191.74855469 216.50390625 192.55273438 C217.96513162 194.00533531 219.42739326 195.45689526 220.89111328 196.90698242 C223.2670523 199.26504276 225.63414669 201.6318247 228 204 C219.43132527 181.24920047 210.83295492 158.51040217 202.125 135.8125 C195.16557451 117.6717198 188.24596811 99.51621732 181.35424805 81.34960938 C177.23324341 70.48990766 173.09895342 59.63544313 168.94145775 48.78966141 C168.20760662 46.87497421 167.47413368 44.9601426 166.74079895 43.04525757 C166.50091846 42.418906 166.26103796 41.79255444 166.01388836 41.14722252 C165.53266119 39.89068721 165.05144534 38.63414757 164.57024097 37.37760353 C163.39465118 34.30854037 162.21749546 31.24008988 161.03842163 28.17236328 C159.73006434 24.76823613 158.42526183 21.3627651 157.12109375 17.95703125 C156.73242126 16.94892899 156.34374878 15.94082672 155.94329834 14.9021759 C154.06093196 9.97684026 152.34486538 5.0995208 151 0 C152.32 0 153.64 0 155 0 C158.1049902 8.12468544 161.2090296 16.24973391 164.3125 24.375 C164.66621359 25.30105545 164.66621359 25.30105545 165.02707291 26.24581909 C171.93184852 44.3237397 178.81983551 62.40794179 185.6875 80.5 C191.39723671 95.54121411 197.12700303 110.57449244 202.88717651 125.59646606 C203.9897719 128.47331327 205.09095914 131.35069526 206.19165039 134.22827148 C206.92720668 136.15089398 207.6628026 138.07350132 208.3984375 139.99609375 C208.76507004 140.95430527 209.13170258 141.91251678 209.50944519 142.89976501 C211.99086969 149.37952959 214.48753366 155.85328106 216.99053955 162.32473755 C218.77645506 166.9474628 220.55423007 171.57329361 222.33056641 176.19970703 C223.18697923 178.42457128 224.04695197 180.6480688 224.91064453 182.87011719 C226.10847615 185.95293041 227.29385194 189.04026636 228.4765625 192.12890625 C228.83497223 193.04229263 229.19338196 193.95567902 229.56265259 194.89674377 C231.26856526 199.38979599 232.56559597 203.10744836 232 208 C231 209 231 209 228.67578125 209.3125 C225.15875678 208.90175262 224.35976889 207.72598449 222.1875 205 C221.58292969 204.2575 220.97835937 203.515 220.35546875 202.75 C219.90816406 202.1725 219.46085938 201.595 219 201 C220.90051384 207.8449401 223.27451716 214.36551013 226.01171875 220.921875 C227.0482051 224.15014079 227.26097087 226.63199855 227 230 C226 231 226 231 223.65380859 231.26196289 C220.39877985 230.94065233 219.68130811 230.21665398 217.5390625 227.80859375 C216.5953479 226.77303345 216.5953479 226.77303345 215.63256836 225.71655273 C214.9700708 224.96446533 214.30757324 224.21237793 213.625 223.4375 C212.20404235 221.87298134 210.78081254 220.31052374 209.35546875 218.75 C208.63407715 217.9559375 207.91268555 217.161875 207.16943359 216.34375 C203.29186262 212.15461188 199.21596051 208.16744975 195.13720703 204.17553711 C192.17426708 201.25387651 189.34226215 198.28500451 186.62890625 195.12890625 C182.64798123 190.51769122 178.34178519 186.26893645 174 182 C165.43436166 173.57808043 165.43436166 173.57808043 161.53125 169.03125 C157.43797243 164.26833486 152.97353063 159.90285874 148.5 155.5 C143.40015869 150.48072491 138.44816517 145.43954375 133.78710938 140.00976562 C130.36999116 136.1669081 126.66541335 132.60391313 123 129 C118.07089282 124.15359596 113.31027789 119.27002381 108.8046875 114.02734375 C105.37990169 110.18001943 101.67145474 106.60985315 98 103 C93.07089282 98.15359596 88.31027789 93.27002381 83.8046875 88.02734375 C80.37990169 84.18001943 76.67145474 80.60985315 73 77 C64.43436166 68.57808043 64.43436166 68.57808043 60.53125 64.03125 C56.43797243 59.26833486 51.97353063 54.90285874 47.5 50.5 C38.39804786 41.54183858 38.39804786 41.54183858 34.83203125 37.328125 C31.42691263 33.35961223 27.75447162 29.69413118 24.04296875 26.015625 C23.40984772 25.3880127 22.77672668 24.76040039 22.12442017 24.11376953 C19.47229533 21.48940369 16.81658894 18.8687289 14.15649414 16.25244141 C12.19760552 14.32371145 10.24495014 12.38884158 8.29296875 10.453125 C7.6909111 9.86452698 7.08885345 9.27592896 6.46855164 8.66949463 C5.91069473 8.11501648 5.35283783 7.56053833 4.77807617 6.98925781 C4.28844894 6.50708801 3.79882172 6.02491821 3.2943573 5.52813721 C1.83367454 3.80363372 0.93442558 2.05025985 0 0 Z " fill="#000000" transform="translate(415,0)"/>
<path d="M0 0 C8.16537947 1.42247561 15.63513687 4.39633335 23.31069946 7.41589355 C27.63770854 9.11722647 31.97375873 10.79529303 36.30859375 12.4765625 C37.24100388 12.83878906 38.173414 13.20101563 39.13407898 13.57421875 C50.66323977 18.04623002 62.23896381 22.39446664 73.8125 26.75 C78.36349756 28.46426995 82.9142135 30.17928652 87.46484375 31.89453125 C88.59571411 32.32074265 89.72658447 32.74695404 90.89172363 33.18608093 C109.8113881 40.31923756 128.70846105 47.51192187 147.60449219 54.70739746 C151.22564746 56.08589952 154.8471644 57.46344934 158.46875 58.84082031 C164.23591575 61.03427808 170.0024167 63.22947454 175.76820564 65.42654896 C178.8636352 66.60604999 181.95937596 67.7847214 185.05560303 68.96212769 C188.48313681 70.26574735 191.90965883 71.57199203 195.3359375 72.87890625 C196.35949341 73.26756866 197.38304932 73.65623108 198.43762207 74.05667114 C199.37908081 74.41639008 200.32053955 74.77610901 201.29052734 75.14672852 C202.10790375 75.45804214 202.92528015 75.76935577 203.76742554 76.09010315 C208.13749742 77.87114773 208.13749742 77.87114773 210 79 C210.33 79.99 210.66 80.98 211 82 C209.3853804 83.94700642 208.5014923 84.91092828 205.96882629 85.36076355 C205.19383286 85.35410172 204.41883942 85.34743988 203.62036133 85.34057617 C202.73967484 85.34034958 201.85898834 85.34012299 200.95161438 85.33988953 C200.00465195 85.32440567 199.05768951 85.30892181 198.08203125 85.29296875 C197.10965012 85.28872391 196.13726898 85.28447906 195.13542175 85.28010559 C192.02750034 85.26330315 188.92022566 85.22564779 185.8125 85.1875 C183.70638957 85.1724552 181.60026898 85.15876644 179.49414062 85.14648438 C174.32917762 85.11339444 169.16469849 85.06160109 164 85 C165.09989258 85.41362793 166.19978516 85.82725586 167.33300781 86.25341797 C171.41895095 87.79063578 175.50382263 89.33068337 179.58837891 90.87158203 C181.35534091 91.53771795 183.12259139 92.2030892 184.89013672 92.86767578 C187.43273174 93.82382871 189.97427191 94.78273932 192.515625 95.7421875 C193.30430969 96.03809784 194.09299438 96.33400818 194.90557861 96.6388855 C195.64604431 96.91902496 196.38651001 97.19916443 197.14941406 97.48779297 C197.79783264 97.73206024 198.44625122 97.97632751 199.11431885 98.22799683 C203.09803169 99.85894008 203.09803169 99.85894008 205 101 C205.33 101.99 205.66 102.98 206 104 C203.56253178 106.86768984 203.17179322 106.98506987 199.11224365 107.33787537 C197.36341943 107.33155177 195.61461593 107.30614301 193.86621094 107.26733398 C192.37087641 107.25016531 192.37087641 107.25016531 190.8453331 107.2326498 C187.22933432 107.17924961 183.61518735 107.09342434 180 107 C179.3044935 106.98205714 178.60898701 106.96411427 177.89240456 106.94562769 C165.93468727 106.6322093 153.97999761 106.23185684 142.02528477 105.82135701 C138.12995926 105.68807558 134.23455174 105.55728204 130.33914256 105.4264726 C121.16168485 105.11826804 111.98436496 104.80618597 102.80712891 104.49145508 C93.34848822 104.16713161 83.88965445 103.84896398 74.43070436 103.533804 C66.27558436 103.26190317 58.12058681 102.98653237 49.96568084 102.70828623 C45.10847153 102.54257507 40.25122828 102.37812112 35.39386749 102.21690559 C30.84631104 102.06579953 26.29892341 101.91035797 21.75163078 101.75151634 C20.08231539 101.69392907 18.41294616 101.63787918 16.74352455 101.58345795 C14.47071681 101.50912253 12.19816733 101.42929667 9.92559814 101.34803772 C8.65297749 101.30471345 7.38035683 101.26138918 6.06917191 101.21675205 C3 101 3 101 0 100 C0 91.75 0 83.5 0 75 C24.77213551 75.53990552 49.53407421 76.33376822 74.296875 77.19140625 C75.89668242 77.24670688 77.49649016 77.30199834 79.09629822 77.35728073 C94.03227727 77.87368065 108.96809849 78.39458318 123.90380859 78.91870117 C131.35266156 79.1800655 138.80159469 79.43901982 146.25061727 79.69550556 C150.15360375 79.83001275 154.05653906 79.9657304 157.95937347 80.10458565 C173.64078692 80.66204898 189.3058323 81.19412757 205 81 C204.40216705 80.77323578 203.80433411 80.54647156 203.18838501 80.31283569 C139.49511718 56.15332031 139.49511718 56.15332031 135.86256409 54.77545166 C133.47107768 53.86833858 131.07958802 52.96123408 128.68809509 52.05413818 C122.73314893 49.79540848 116.77826041 47.53652707 110.82348633 45.27734375 C99.04685883 40.80958915 87.26946095 36.34388588 75.490242 31.8829689 C24.20054609 12.45803741 24.20054609 12.45803741 0 3 C0 2.01 0 1.02 0 0 Z " fill="#000000" transform="translate(0,254)"/>
</svg>
