<?xml version="1.0" encoding="UTF-8"?>
<svg version="1.1" xmlns="http://www.w3.org/2000/svg" width="644" height="289">
<path d="M0 0 C0.66 1.32 1.32 2.64 2 4 C-1.66221733 7.79252094 -5.49759412 11.16149968 -9.625 14.4375 C-10.27106201 14.9526416 -10.91712402 15.4677832 -11.58276367 15.99853516 C-17.5218292 20.69493298 -23.61218466 25.17485076 -29.7277832 29.63745117 C-35.33773498 33.74156488 -40.84605447 37.95698608 -46.3125 42.25 C-53.71912533 48.06433472 -61.27846244 53.61230337 -69 59 C-64.70609512 57.77859909 -60.41488947 56.5479193 -56.125 55.3125 C-55.45704407 55.12035919 -54.78908813 54.92821838 -54.10089111 54.73025513 C-44.95596085 52.09333619 -35.8482619 49.35210662 -26.765625 46.5078125 C-25.82012787 46.21220932 -24.87463074 45.91660614 -23.90048218 45.61204529 C-19.19880176 44.14048273 -14.50025388 42.65972628 -9.80517578 41.16723633 C-8.06549908 40.62038467 -6.32575607 40.07374388 -4.5859375 39.52734375 C-3.39402802 39.14360092 -3.39402802 39.14360092 -2.17803955 38.75210571 C1.65865365 37.5541357 4.92703804 36.67231952 9 37 C9.66 38.32 10.32 39.64 11 41 C7.33778267 44.79252094 3.50240588 48.16149968 -0.625 51.4375 C-1.27106201 51.9526416 -1.91712402 52.4677832 -2.58276367 52.99853516 C-8.52346717 57.69622822 -14.61634269 62.17607048 -20.73217773 66.6418457 C-26.29172245 70.71118016 -31.7631234 74.87738963 -37.1875 79.125 C-43.32326441 83.92966945 -49.50416062 88.66124691 -55.75073242 93.32080078 C-61.36219673 97.51027137 -66.9340162 101.7503401 -72.5 106 C-78.6476468 110.69248133 -84.80526477 115.36984066 -91 120 C-97.11129396 124.56785654 -103.18576379 129.1823737 -109.25 133.8125 C-116.30780642 139.20123058 -123.38974295 144.55566981 -130.5 149.875 C-136.85543648 154.6307522 -143.17947087 159.4203147 -149.4609375 164.2734375 C-160.48058775 172.77880035 -171.56721939 181.19964667 -182.71875 189.53125 C-187.33387224 192.99259168 -191.91347025 196.50093198 -196.5 200 C-201.98617592 204.18540897 -207.47202786 208.36990587 -213 212.5 C-218.44450569 216.56782354 -223.84718889 220.68950372 -229.25 224.8125 C-239.42989865 232.58023649 -239.42989865 232.58023649 -244.171875 236.13671875 C-244.76830905 236.58517151 -245.3647431 237.03362427 -245.97925091 237.4956665 C-247.25168871 238.44292454 -248.53207629 239.37968456 -249.82333851 240.30111694 C-253.52594051 242.97817593 -256.80934079 245.752394 -259.99552917 249.03100586 C-273.84866925 262.47005643 -287.01857986 263.03116186 -305.29841614 262.81274414 C-308.01824951 262.75686406 -310.737676 262.6908233 -313.45721841 262.62230301 C-318.16528321 262.52106242 -322.87357992 262.51278985 -327.58256531 262.49389648 C-336.4657317 262.44451469 -345.34568048 262.3137154 -354.22744101 262.15230465 C-366.25278509 261.93859266 -378.27903323 261.85337707 -390.30580235 261.76026917 C-409.20627009 261.6106172 -428.09995388 261.29167363 -447 261 C-447 219.42 -447 177.84 -447 135 C-412.8542422 124.43440691 -378.70965937 113.87722709 -344.50073242 103.51879883 C-326.36159021 98.02566659 -308.23403724 92.4953426 -290.11000061 86.95261765 C-283.1945657 84.83775136 -276.27899415 82.72333206 -269.36328125 80.609375 C-268.5989616 80.37574186 -267.83464195 80.14210873 -267.0471611 79.9013958 C-250.20256985 74.75292255 -233.3517233 69.62507118 -216.5 64.5 C-192.24434552 57.12306195 -167.99523043 49.72499213 -143.75050354 42.31222153 C-126.29985417 36.97679718 -108.84792322 31.6456668 -91.390625 26.33203125 C-90.62904587 26.10021212 -89.86746674 25.86839298 -89.08280945 25.62954903 C-81.61877601 23.35768648 -74.15441506 21.08690706 -66.68912506 18.81917667 C-63.19369709 17.75736654 -59.69837759 16.69519979 -56.203125 15.6328125 C-55.53515396 15.4297946 -54.86718292 15.2267767 -54.17897034 15.01760674 C-45.73172791 12.44941693 -37.2913373 9.8601364 -28.859375 7.2421875 C-27.13120507 6.70721022 -25.40301602 6.17229468 -23.67480469 5.63745117 C-20.68858831 4.71306091 -17.70526809 3.78011092 -14.72363281 2.84106445 C-13.47420898 2.45394287 -12.22478516 2.06682129 -10.9375 1.66796875 C-9.37322266 1.17719849 -9.37322266 1.17719849 -7.77734375 0.67651367 C-5.06681594 0.01627523 -2.77636875 -0.13595292 0 0 Z " fill="#009BC7" transform="translate(447,28)"/>
<path d="M0 0 C0.81791016 0.35771484 0.81791016 0.35771484 1.65234375 0.72265625 C3.63661275 6.02795076 1.24836617 10.05630259 -0.86328125 14.93359375 C-1.42073029 16.26313583 -1.42073029 16.26313583 -1.98944092 17.61953735 C-3.17995911 20.45091805 -4.38849468 23.27419421 -5.59765625 26.09765625 C-6.39702958 27.99038064 -7.19522004 29.88360506 -7.9921875 31.77734375 C-10.09537275 36.76570709 -12.21629294 41.74627494 -14.34765625 46.72265625 C-14.65070679 47.43029114 -14.95375732 48.13792603 -15.26599121 48.86700439 C-15.95952522 50.48570688 -16.65353058 52.1042074 -17.34765625 53.72265625 C-16.79827393 53.31426514 -16.2488916 52.90587402 -15.68286133 52.48510742 C-13.17703596 50.62442971 -10.6686268 48.7672661 -8.16015625 46.91015625 C-7.29583984 46.26755859 -6.43152344 45.62496094 -5.54101562 44.96289062 C-4.69990234 44.34091797 -3.85878906 43.71894531 -2.9921875 43.078125 C-2.22237549 42.50731201 -1.45256348 41.93649902 -0.65942383 41.34838867 C6.03661764 36.63945002 6.03661764 36.63945002 8.96484375 37.03515625 C9.80015625 37.37546875 9.80015625 37.37546875 10.65234375 37.72265625 C12.31722552 42.61101989 10.66190884 46.06955173 8.69921875 50.5625 C8.37237595 51.33977951 8.04553314 52.11705902 7.70878601 52.91789246 C6.61845885 55.50382602 5.51019291 58.08168661 4.40234375 60.66015625 C3.62752717 62.49075623 2.85419949 64.32198704 2.08227539 66.15380859 C0.44855872 70.02861488 -1.19079687 73.90096659 -2.83349609 77.77197266 C-6.51919973 86.47516484 -10.11746592 95.21440639 -13.71746826 103.95330811 C-14.9177669 106.86612535 -16.1199802 109.77814539 -17.32275391 112.68994141 C-22.71592285 125.74838491 -28.08279177 138.8174854 -33.43783569 151.89160156 C-39.5626162 166.84259111 -45.74391336 181.76989628 -51.94189453 196.69067383 C-52.2891156 197.52676682 -52.63633667 198.3628598 -52.99407959 199.22428894 C-53.64157753 200.7831924 -54.28938317 202.34196811 -54.93756104 203.90058899 C-55.22677429 204.59677841 -55.51598755 205.29296783 -55.81396484 206.01025391 C-56.06326752 206.60987946 -56.31257019 207.209505 -56.56942749 207.82730103 C-57.51063905 210.11959648 -58.42734913 212.42188846 -59.34765625 214.72265625 C-135.57765625 214.72265625 -211.80765625 214.72265625 -290.34765625 214.72265625 C-286.97441376 209.10058543 -286.97441376 209.10058543 -283.6796875 206.8125 C-282.95982666 206.30404541 -282.23996582 205.79559082 -281.49829102 205.27172852 C-280.72670654 204.73990967 -279.95512207 204.20809082 -279.16015625 203.66015625 C-277.5186101 202.50260728 -275.8780023 201.34372661 -274.23828125 200.18359375 C-273.41392578 199.60319336 -272.58957031 199.02279297 -271.74023438 198.42480469 C-268.24892064 195.94098434 -264.82671679 193.3703682 -261.41015625 190.78515625 C-253.24411597 184.62750946 -245.01107417 178.5629366 -236.77099609 172.50488281 C-232.79443114 169.58034885 -228.82115217 166.65135793 -224.84765625 163.72265625 C-220.06416952 160.19694341 -215.27993674 156.672267 -210.4921875 153.15234375 C-203.08746162 147.7062873 -195.69341259 142.24807859 -188.34765625 136.72265625 C-180.19776675 130.59237104 -171.98743015 124.54555366 -163.77099609 118.50488281 C-159.79443114 115.58034885 -155.82115217 112.65135793 -151.84765625 109.72265625 C-147.06416952 106.19694341 -142.27993674 102.672267 -137.4921875 99.15234375 C-130.08746162 93.7062873 -122.69341259 88.24807859 -115.34765625 82.72265625 C-107.19776675 76.59237104 -98.98743015 70.54555366 -90.77099609 64.50488281 C-86.79443114 61.58034885 -82.82115217 58.65135793 -78.84765625 55.72265625 C-74.06416952 52.19694341 -69.27993674 48.672267 -64.4921875 45.15234375 C-57.08745774 39.70628444 -49.69362998 34.24779371 -42.34765625 28.72265625 C-34.12181893 22.53978988 -25.86619542 16.39866475 -17.55273438 10.33398438 C-16.13445459 9.29759747 -14.71885669 8.25752509 -13.30664062 7.21289062 C-11.51662644 5.89094961 -9.71580883 4.58561391 -7.91015625 3.28515625 C-6.42708984 2.20427734 -6.42708984 2.20427734 -4.9140625 1.1015625 C-2.34765625 -0.27734375 -2.34765625 -0.27734375 0 0 Z " fill="#FFD172" transform="translate(632.34765625,74.27734375)"/>
<path d="M0 0 C0.66 1.32 1.32 2.64 2 4 C-1.66221733 7.79252094 -5.49759412 11.16149968 -9.625 14.4375 C-10.27106201 14.9526416 -10.91712402 15.4677832 -11.58276367 15.99853516 C-17.5218292 20.69493298 -23.61218466 25.17485076 -29.7277832 29.63745117 C-35.33773498 33.74156488 -40.84605447 37.95698608 -46.3125 42.25 C-53.71912533 48.06433472 -61.27846244 53.61230337 -69 59 C-64.70609512 57.77859909 -60.41488947 56.5479193 -56.125 55.3125 C-55.45704407 55.12035919 -54.78908813 54.92821838 -54.10089111 54.73025513 C-44.95596085 52.09333619 -35.8482619 49.35210662 -26.765625 46.5078125 C-25.82012787 46.21220932 -24.87463074 45.91660614 -23.90048218 45.61204529 C-19.19880176 44.14048273 -14.50025388 42.65972628 -9.80517578 41.16723633 C-8.06549908 40.62038467 -6.32575607 40.07374388 -4.5859375 39.52734375 C-3.39402802 39.14360092 -3.39402802 39.14360092 -2.17803955 38.75210571 C1.65865365 37.5541357 4.92703804 36.67231952 9 37 C9.66 38.32 10.32 39.64 11 41 C7.33778267 44.79252094 3.50240588 48.16149968 -0.625 51.4375 C-1.27106201 51.9526416 -1.91712402 52.4677832 -2.58276367 52.99853516 C-8.52346717 57.69622822 -14.61634269 62.17607048 -20.73217773 66.6418457 C-26.29172245 70.71118016 -31.7631234 74.87738963 -37.1875 79.125 C-43.32326441 83.92966945 -49.50416062 88.66124691 -55.75073242 93.32080078 C-61.36219673 97.51027137 -66.9340162 101.7503401 -72.5 106 C-78.6476468 110.69248133 -84.80526477 115.36984066 -91 120 C-97.11129396 124.56785654 -103.18576379 129.1823737 -109.25 133.8125 C-116.30780642 139.20123058 -123.38974295 144.55566981 -130.5 149.875 C-136.85543648 154.6307522 -143.17947087 159.4203147 -149.4609375 164.2734375 C-160.48058775 172.77880035 -171.56721939 181.19964667 -182.71875 189.53125 C-187.33387224 192.99259168 -191.91347025 196.50093198 -196.5 200 C-201.98617592 204.18540897 -207.47202786 208.36990587 -213 212.5 C-218.44450569 216.56782354 -223.84718889 220.68950372 -229.25 224.8125 C-239.42989865 232.58023649 -239.42989865 232.58023649 -244.171875 236.13671875 C-245.06730263 236.80946587 -245.06730263 236.80946587 -245.9808197 237.49580383 C-247.24934449 238.44079627 -248.5245876 239.37690369 -249.80921936 240.29988098 C-253.53475853 243.00742194 -256.92263594 245.83419362 -260.22143555 249.05078125 C-273.03373345 260.95982558 -284.44140452 262.96349527 -301.24023438 262.40625 C-303.37606649 262.31158734 -305.5111594 262.20650447 -307.6463623 262.09863281 C-311.30631558 261.93198067 -314.96816978 261.86127137 -318.63085938 261.78125 C-325.75837569 261.61199053 -332.87843904 261.34071543 -340 261 C-337.01501596 257.93809182 -334.03277816 255.11627502 -330.62109375 252.5390625 C-329.79254883 251.91040283 -328.96400391 251.28174316 -328.11035156 250.6340332 C-327.22831055 249.97105225 -326.34626953 249.30807129 -325.4375 248.625 C-324.51291992 247.92528076 -323.58833984 247.22556152 -322.63574219 246.50463867 C-315.52030117 241.12574726 -308.38103611 235.77834544 -301.23974609 230.43383789 C-293.88294853 224.924575 -286.58171435 219.34488836 -279.28808594 213.75244141 C-268.65074551 205.60531917 -257.99942936 197.47671651 -247.265625 189.45703125 C-242.73903575 186.06208931 -238.24806783 182.62006808 -233.75 179.1875 C-227.5188204 174.43281994 -221.27818475 169.69245767 -215 165 C-208.88870221 160.43214858 -202.81423617 155.81762626 -196.75 151.1875 C-189.69219358 145.79876942 -182.61025705 140.44433019 -175.5 135.125 C-169.14456352 130.3692478 -162.82052913 125.5796853 -156.5390625 120.7265625 C-145.51425394 112.21721828 -134.42228663 103.7926513 -123.265625 95.45703125 C-118.73903575 92.06208931 -114.24806783 88.62006808 -109.75 85.1875 C-103.5188204 80.43281994 -97.27818475 75.69245767 -91 71 C-84.88870202 66.43214844 -78.81425068 61.81760742 -72.75 57.1875 C-65.77484202 51.86218144 -58.77696193 46.56926962 -51.75 41.3125 C-44.9839209 36.2496086 -38.2433477 31.15606641 -31.5402832 26.01000977 C-27.46313652 22.8801618 -23.37413622 19.76692341 -19.2734375 16.66796875 C-18.30462646 15.93441162 -17.33581543 15.20085449 -16.33764648 14.44506836 C-14.42758515 12.99937752 -12.51568185 11.55611657 -10.60180664 10.11547852 C-9.74192139 9.46377686 -8.88203613 8.8120752 -7.99609375 8.140625 C-7.22450928 7.55829102 -6.4529248 6.97595703 -5.65795898 6.37597656 C-4.83726929 5.69486816 -4.83726929 5.69486816 -4 5 C-4 4.67 -4 4.34 -4 4 C-34.40720536 13.21295132 -64.80394542 22.45937647 -95.1875 31.75 C-118.95318711 39.01698435 -142.72337661 46.2688768 -166.5 53.5 C-190.00548259 60.64878624 -213.50509756 67.81651855 -237 75 C-261.90841335 82.6156573 -286.82264367 90.21190873 -311.74246216 97.79016113 C-328.25748008 102.81258384 -344.76994525 107.8432093 -361.27734375 112.890625 C-362.0817905 113.1365741 -362.88623726 113.38252319 -363.71506119 113.63592529 C-370.78266226 115.79677928 -377.85023659 117.95772021 -384.91699219 120.12133789 C-393.92269422 122.87856933 -402.93006454 125.63022812 -411.94026947 128.37271118 C-414.06598219 129.02009481 -416.19136059 129.66856804 -418.31671143 130.31713867 C-421.84508599 131.39332504 -425.37483974 132.46487392 -428.9056263 133.5331192 C-430.22952192 133.93434756 -431.55299143 134.33698496 -432.87600517 134.74111176 C-434.69096829 135.29518636 -436.5076749 135.84354027 -438.32446289 136.39160156 C-439.86572594 136.85931976 -439.86572594 136.85931976 -441.43812561 137.33648682 C-444 138 -444 138 -447 138 C-447 137.01 -447 136.02 -447 135 C-412.85796392 124.42548684 -378.70911539 113.87706237 -344.50073242 103.51879883 C-326.36159021 98.02566659 -308.23403724 92.4953426 -290.11000061 86.95261765 C-283.1945657 84.83775136 -276.27899415 82.72333206 -269.36328125 80.609375 C-268.5989616 80.37574186 -267.83464195 80.14210873 -267.0471611 79.9013958 C-250.20256985 74.75292255 -233.3517233 69.62507118 -216.5 64.5 C-192.24434552 57.12306195 -167.99523043 49.72499213 -143.75050354 42.31222153 C-126.29985417 36.97679718 -108.84792322 31.6456668 -91.390625 26.33203125 C-90.62904587 26.10021212 -89.86746674 25.86839298 -89.08280945 25.62954903 C-81.61877601 23.35768648 -74.15441506 21.08690706 -66.68912506 18.81917667 C-63.19369709 17.75736654 -59.69837759 16.69519979 -56.203125 15.6328125 C-55.53515396 15.4297946 -54.86718292 15.2267767 -54.17897034 15.01760674 C-45.73172791 12.44941693 -37.2913373 9.8601364 -28.859375 7.2421875 C-27.13120507 6.70721022 -25.40301602 6.17229468 -23.67480469 5.63745117 C-20.68858831 4.71306091 -17.70526809 3.78011092 -14.72363281 2.84106445 C-13.47420898 2.45394287 -12.22478516 2.06682129 -10.9375 1.66796875 C-9.37322266 1.17719849 -9.37322266 1.17719849 -7.77734375 0.67651367 C-5.06681594 0.01627523 -2.77636875 -0.13595292 0 0 Z " fill="#000000" transform="translate(447,28)"/>
<path d="M0 0 C51.15 0 102.3 0 155 0 C155.99 1.98 155.99 1.98 157 4 C154.73725571 7.39411643 153.51857299 7.92958486 149.875 9.57421875 C148.7912207 10.06962158 147.70744141 10.56502441 146.59082031 11.07543945 C145.40584961 11.60741943 144.22087891 12.13939941 143 12.6875 C141.12897951 13.53906862 139.25944903 14.39385322 137.38995361 15.24876404 C136.06092633 15.85630612 134.73144678 16.46285965 133.40155029 17.0684967 C124.98197579 20.90692681 116.61834543 24.86398665 108.25 28.8125 C103.2175 31.184375 98.185 33.55625 93 36 C116.43 36.33 139.86 36.66 164 37 C164.99 38.98 164.99 38.98 166 41 C163.73725571 44.39411643 162.51857299 44.92958486 158.875 46.57421875 C157.7936377 47.06849365 156.71227539 47.56276855 155.59814453 48.07202148 C154.41075684 48.60512939 153.22336914 49.1382373 152 49.6875 C150.09739085 50.55380249 148.19628944 51.42335986 146.29519653 52.29298401 C144.95244147 52.90694577 143.60922977 53.51990971 142.26559448 54.13194275 C135.23789817 57.33567391 128.25212054 60.62663928 121.26855469 63.92520142 C117.66198376 65.62841275 114.05371716 67.32802152 110.4453125 69.02734375 C109.73409241 69.36231369 109.02287231 69.69728363 108.2901001 70.04240417 C100.59425328 73.66497989 92.88512438 77.25894138 85.17462158 80.85018921 C76.41071796 84.93257039 67.65985836 89.04182425 58.91601562 93.16699219 C47.80017258 98.41106615 36.68325777 103.6507158 25.5 108.75 C24.66533203 109.13188477 23.83066406 109.51376953 22.97070312 109.90722656 C15.43560088 113.32185999 7.85055985 116.38314672 0 119 C0 79.73 0 40.46 0 0 Z " fill="#000000" transform="translate(0,0)"/>
<path d="M0 0 C0.81791016 0.35771484 0.81791016 0.35771484 1.65234375 0.72265625 C3.63661275 6.02795076 1.24836617 10.05630259 -0.86328125 14.93359375 C-1.42073029 16.26313583 -1.42073029 16.26313583 -1.98944092 17.61953735 C-3.17995911 20.45091805 -4.38849468 23.27419421 -5.59765625 26.09765625 C-6.39702958 27.99038064 -7.19522004 29.88360506 -7.9921875 31.77734375 C-10.09537275 36.76570709 -12.21629294 41.74627494 -14.34765625 46.72265625 C-14.65070679 47.43029114 -14.95375732 48.13792603 -15.26599121 48.86700439 C-15.95952522 50.48570688 -16.65353058 52.1042074 -17.34765625 53.72265625 C-16.79827393 53.31426514 -16.2488916 52.90587402 -15.68286133 52.48510742 C-13.17703596 50.62442971 -10.6686268 48.7672661 -8.16015625 46.91015625 C-7.29583984 46.26755859 -6.43152344 45.62496094 -5.54101562 44.96289062 C-4.69990234 44.34091797 -3.85878906 43.71894531 -2.9921875 43.078125 C-2.22237549 42.50731201 -1.45256348 41.93649902 -0.65942383 41.34838867 C6.03661764 36.63945002 6.03661764 36.63945002 8.96484375 37.03515625 C9.80015625 37.37546875 9.80015625 37.37546875 10.65234375 37.72265625 C12.31722552 42.61101989 10.66190884 46.06955173 8.69921875 50.5625 C8.37237595 51.33977951 8.04553314 52.11705902 7.70878601 52.91789246 C6.61845885 55.50382602 5.51019291 58.08168661 4.40234375 60.66015625 C3.62752717 62.49075623 2.85419949 64.32198704 2.08227539 66.15380859 C0.44855872 70.02861488 -1.19079687 73.90096659 -2.83349609 77.77197266 C-6.51919973 86.47516484 -10.11746592 95.21440639 -13.71746826 103.95330811 C-14.9177669 106.86612535 -16.1199802 109.77814539 -17.32275391 112.68994141 C-22.71592285 125.74838491 -28.08279177 138.8174854 -33.43783569 151.89160156 C-39.5626162 166.84259111 -45.74391336 181.76989628 -51.94189453 196.69067383 C-52.2891156 197.52676682 -52.63633667 198.3628598 -52.99407959 199.22428894 C-53.64157753 200.7831924 -54.28938317 202.34196811 -54.93756104 203.90058899 C-55.22677429 204.59677841 -55.51598755 205.29296783 -55.81396484 206.01025391 C-56.06326752 206.60987946 -56.31257019 207.209505 -56.56942749 207.82730103 C-57.51063905 210.11959648 -58.42734913 212.42188846 -59.34765625 214.72265625 C-68.58765625 214.72265625 -77.82765625 214.72265625 -87.34765625 214.72265625 C-83.97278428 204.59804034 -83.97278428 204.59804034 -82.56445312 201.20825195 C-82.2448613 200.43463318 -81.92526947 199.6610144 -81.59599304 198.86395264 C-81.2562294 198.05033264 -80.91646576 197.23671265 -80.56640625 196.3984375 C-80.20074051 195.51561096 -79.83507477 194.63278442 -79.45832825 193.72320557 C-78.25759468 190.82600874 -77.05259039 187.93060827 -75.84765625 185.03515625 C-74.99730722 182.98508265 -74.14729697 180.9348685 -73.29760742 178.88452148 C-71.53096342 174.62232627 -69.76286441 170.36073921 -67.99365234 166.09960938 C-64.26788333 157.123684 -60.55678672 148.14170301 -56.84710693 139.15911865 C-55.65504638 136.27278372 -54.46254015 133.38663316 -53.27001953 130.50048828 C-47.90740493 117.51851394 -42.57142781 104.52578305 -37.24685669 91.52816772 C-30.32790236 74.64204843 -23.33784232 57.78566202 -16.33988953 40.93215942 C-12.98190858 32.84413997 -9.63245836 24.75260001 -6.28515625 16.66015625 C-5.77311198 15.42236328 -5.26106771 14.18457031 -4.74902344 12.94677734 C-3.61510149 10.20545857 -2.48129732 7.46409118 -1.34765625 4.72265625 C-4.08332984 6.02308038 -6.52050639 7.45884894 -8.97265625 9.234375 C-9.66866943 9.73702881 -10.36468262 10.23968262 -11.08178711 10.75756836 C-12.20339233 11.57559937 -12.20339233 11.57559937 -13.34765625 12.41015625 C-14.1372876 12.9832251 -14.92691895 13.55629395 -15.74047852 14.14672852 C-22.47902433 19.05356513 -29.15070671 24.04782674 -35.81030273 29.06103516 C-43.8274097 35.09495082 -51.90267071 41.04779123 -59.98876953 46.98876953 C-63.94445237 49.89637246 -67.89586717 52.80976467 -71.84765625 55.72265625 C-76.63113078 59.24838562 -81.41537578 62.77304552 -86.203125 66.29296875 C-93.60785088 71.7390252 -101.00189991 77.19723391 -108.34765625 82.72265625 C-116.49754575 88.85294146 -124.70788235 94.89975884 -132.92431641 100.94042969 C-136.90088136 103.86496365 -140.87416033 106.79395457 -144.84765625 109.72265625 C-149.63114298 113.24836909 -154.41537576 116.7730455 -159.203125 120.29296875 C-166.60785088 125.7390252 -174.00189991 131.19723391 -181.34765625 136.72265625 C-189.49754575 142.85294146 -197.70788235 148.89975884 -205.92431641 154.94042969 C-209.90088136 157.86496365 -213.87416033 160.79395457 -217.84765625 163.72265625 C-222.63114298 167.24836909 -227.41537576 170.7730455 -232.203125 174.29296875 C-240.25266243 180.2132737 -248.28254753 186.15683994 -256.265625 192.16650391 C-262.46440262 196.82647855 -268.71075855 201.42116974 -274.96679688 206.00390625 C-275.72541016 206.56078125 -276.48402344 207.11765625 -277.265625 207.69140625 C-277.97678467 208.2131543 -278.68794434 208.73490234 -279.4206543 209.27246094 C-281.0700876 210.51376764 -282.66804137 211.82297719 -284.25390625 213.14453125 C-286.34765625 214.72265625 -286.34765625 214.72265625 -288.66015625 214.47265625 C-289.49546875 214.10140625 -289.49546875 214.10140625 -290.34765625 213.72265625 C-286.99641756 210.25564749 -283.55811277 207.20475837 -279.72265625 204.28515625 C-278.89338623 203.65335449 -278.89338623 203.65335449 -278.04736328 203.00878906 C-270.69981239 197.4356127 -263.25483498 191.99194783 -255.81933594 186.53710938 C-251.82461888 183.60459879 -247.83639537 180.66328964 -243.84765625 177.72265625 C-242.26435566 176.55594514 -240.68102229 175.38927853 -239.09765625 174.22265625 C-238.31390625 173.64515625 -237.53015625 173.06765625 -236.72265625 172.47265625 C-229.59765625 167.22265625 -229.59765625 167.22265625 -227.22192383 165.47216797 C-225.64096642 164.30721776 -224.06007433 163.14217891 -222.47924805 161.97705078 C-218.48509797 159.03338645 -214.48977195 156.09134279 -210.4921875 153.15234375 C-203.08746162 147.7062873 -195.69341259 142.24807859 -188.34765625 136.72265625 C-180.19776675 130.59237104 -171.98743015 124.54555366 -163.77099609 118.50488281 C-159.79443114 115.58034885 -155.82115217 112.65135793 -151.84765625 109.72265625 C-147.06416952 106.19694341 -142.27993674 102.672267 -137.4921875 99.15234375 C-130.08746162 93.7062873 -122.69341259 88.24807859 -115.34765625 82.72265625 C-107.19776675 76.59237104 -98.98743015 70.54555366 -90.77099609 64.50488281 C-86.79443114 61.58034885 -82.82115217 58.65135793 -78.84765625 55.72265625 C-74.06416952 52.19694341 -69.27993674 48.672267 -64.4921875 45.15234375 C-57.08745774 39.70628444 -49.69362998 34.24779371 -42.34765625 28.72265625 C-34.12181893 22.53978988 -25.86619542 16.39866475 -17.55273438 10.33398438 C-16.13445459 9.29759747 -14.71885669 8.25752509 -13.30664062 7.21289062 C-11.51662644 5.89094961 -9.71580883 4.58561391 -7.91015625 3.28515625 C-6.42708984 2.20427734 -6.42708984 2.20427734 -4.9140625 1.1015625 C-2.34765625 -0.27734375 -2.34765625 -0.27734375 0 0 Z " fill="#000000" transform="translate(632.34765625,74.27734375)"/>
<path d="M0 0 C50.49 0 100.98 0 153 0 C149.22889843 2.82832618 145.51433347 4.79685047 141.28125 6.7734375 C140.51992767 7.13322189 139.75860535 7.49300629 138.97421265 7.86369324 C136.48488699 9.03859839 133.99251872 10.20688608 131.5 11.375 C129.76173259 12.19361289 128.02361538 13.0125448 126.28564453 13.83178711 C115.39592776 18.95974596 104.48564326 24.04308203 93.56054688 29.09521484 C84.01634856 33.51305938 74.50633699 38.00139768 65 42.5 C52.81483623 48.26604001 40.61291342 53.99254335 28.37744141 59.65112305 C23.43036913 61.93950216 18.48776887 64.2348801 13.56640625 66.578125 C12.76162842 66.960896 11.95685059 67.34366699 11.12768555 67.73803711 C9.68088828 68.42811566 8.23559917 69.1213701 6.79223633 69.81860352 C2.21903661 72 2.21903661 72 0 72 C0 48.24 0 24.48 0 0 Z " fill="#D91811" transform="translate(0,3)"/>
</svg>
