<?xml version="1.0" encoding="UTF-8"?>
<svg version="1.1" xmlns="http://www.w3.org/2000/svg" width="666" height="339">
<path d="M0 0 C3.83621844 0.66860785 7.62036852 1.51760578 11.4113636 2.40436172 C12.74571559 2.71134381 12.74571559 2.71134381 14.10702419 3.02452755 C17.08101696 3.70971091 20.05366054 4.40057588 23.02635384 5.09137344 C25.17487937 5.58748408 27.32349228 6.0832164 29.47218513 6.57860184 C34.12825011 7.65282815 38.78373763 8.72951139 43.4387989 9.80807877 C50.96875484 11.55265739 58.49999259 13.29165567 66.03148079 15.02960587 C68.651526 15.63424719 71.27156525 16.23891436 73.89160347 16.84358597 C74.5485719 16.99519997 75.20554034 17.14681396 75.8824169 17.30302233 C80.63467023 18.39980214 85.38674766 19.49734205 90.13876534 20.59514236 C109.54718085 25.0784858 128.95928057 29.5456112 148.37401009 34.00152969 C149.0609494 34.15919555 149.74788871 34.31686141 150.45564437 34.47930503 C157.43769758 36.08179948 164.41981907 37.68399627 171.40198797 39.2859866 C186.32141235 42.70910938 201.24034849 46.13435833 216.15916634 49.56012344 C217.21870691 49.80341743 217.21870691 49.80341743 218.29965234 50.05162644 C240.13165019 55.06477388 261.96241265 60.08327306 283.79197884 65.10699844 C284.81447511 65.34230668 284.81447511 65.34230668 285.85762787 65.58236861 C299.92703637 68.82021444 313.99621808 72.05904399 328.06497765 75.29970837 C334.44008848 76.76817749 340.81524092 78.23646593 347.19041634 79.70465469 C349.04072205 80.13079024 349.04072205 80.13079024 350.92840767 80.56553459 C367.34921602 84.34691561 383.77259112 88.11690875 400.19872093 91.8751049 C403.391098 92.60564346 406.5833677 93.33664902 409.7755909 94.06785965 C410.79493155 94.30134896 411.81427219 94.53483828 412.86450195 94.77540302 C414.87295711 95.23547873 416.88140677 95.69557848 418.88985062 96.15570354 C424.58841053 97.46090284 430.28769699 98.76286617 435.98757839 100.06228161 C439.39571565 100.83998119 442.80318139 101.62058994 446.21045685 102.40205574 C447.76926079 102.75889347 449.32835921 103.11444756 450.88776779 103.46863365 C452.98332083 103.94471678 455.07782206 104.42517232 457.17210579 104.90680313 C458.33538902 105.17241043 459.49867226 105.43801773 460.6972065 105.71167374 C463.27244759 106.39606094 463.27244759 106.39606094 464.27244759 107.39606094 C464.3700873 109.76153613 464.40242046 112.09777029 464.3927021 114.46370316 C464.39398374 115.58591992 464.39398374 115.58591992 464.39529127 116.73080772 C464.39694831 119.25670042 464.39142106 121.7825278 464.38597298 124.30841446 C464.38569113 126.11149468 464.38584879 127.91457502 464.38641548 129.71765518 C464.38670354 134.62860633 464.38080542 139.53953329 464.37384152 144.45047879 C464.36760942 149.57678306 464.3670043 154.70308782 464.36581612 159.82939529 C464.36270238 169.5439672 464.35448841 179.25852791 464.34446663 188.97309488 C464.33330681 200.02973812 464.32779537 211.08638187 464.32277119 222.14302933 C464.31230583 244.89404609 464.29470557 267.64505289 464.27244759 290.39606094 C458.40850177 290.5616908 452.54596108 290.68091652 446.68020821 290.75998306 C444.69133938 290.79299242 442.70262734 290.83796816 440.71432686 290.89584732 C422.88696912 291.40123391 412.63430363 288.20182071 398.1625843 277.46979141 C393.38184181 274.03951377 388.26384081 271.22708623 383.14744759 268.33356094 C381.16119324 267.17793091 379.17680512 266.01908714 377.19432259 264.85699844 C376.21656868 264.28562149 375.23881477 263.71424454 374.23143196 263.12555313 C372.25877571 261.97255834 370.28611946 260.81956355 368.31346321 259.66656876 C365.34179254 257.92999258 362.36975384 256.19404902 359.39744759 254.45856094 C357.91667732 253.59388199 357.91667732 253.59388199 356.40599251 252.71173477 C349.10633409 248.45404439 341.78544153 244.23410043 334.45994759 240.02106094 C325.56347698 234.90319882 316.71598045 229.70948587 307.89744759 224.45856094 C297.51206534 218.27696485 287.05483722 212.23752876 276.55125618 206.26007462 C266.05579595 200.28581303 255.62097232 194.2111321 245.1992054 188.10943985 C240.26736699 185.22224916 235.33288942 182.33958677 230.39744759 179.45856094 C229.41228157 178.88347794 228.42711555 178.30839493 227.41209602 177.71588516 C220.04522419 173.41993895 212.66178618 169.15322524 205.27244759 164.89606094 C191.9223558 157.20477256 178.61511717 149.44123184 165.31346321 141.66656876 C153.98391867 135.04584283 142.64268156 128.44670868 131.27244759 121.89606094 C117.9223558 114.20477256 104.61511717 106.44123184 91.31346321 98.66656876 C88.34179254 96.92999258 85.36975384 95.19404902 82.39744759 93.45856094 C81.41026741 92.88210831 80.42308723 92.30565567 79.40599251 91.71173477 C72.10633409 87.45404439 64.78544153 83.23410043 57.45994759 79.02106094 C48.56347974 73.90320041 39.71587819 68.70965489 30.89744759 63.45856094 C22.09217675 58.21541949 13.24454475 53.06036945 4.33799934 47.99185562 C0.31873482 45.70435012 -3.69690118 43.4104778 -7.71290398 41.11725235 C-9.59952777 40.04009834 -11.48679448 38.96406873 -13.37501335 37.88971329 C-15.54081181 36.65281359 -17.69820498 35.40276361 -19.85255241 34.14606094 C-20.96888054 33.50152969 -22.08520866 32.85699844 -23.23536491 32.19293594 C-25.73868745 30.38803255 -26.69957892 29.26423391 -27.72755241 26.39606094 C-26.72755241 24.83356094 -26.72755241 24.83356094 -24.72755241 23.39606094 C-16.94294242 23.88133379 -9.36914127 25.99559026 -1.79786491 27.77496719 C-0.35687102 28.11025887 1.08422162 28.4451264 2.52540779 28.77959061 C6.2966483 29.65569 10.06683246 30.53624449 13.83671761 31.41815567 C19.89088752 32.8340309 25.94626125 34.24471597 32.00237083 35.65226936 C34.11565453 36.14438292 36.22823899 36.63941784 38.34077644 37.13472366 C40.25384087 37.58034904 40.25384087 37.58034904 42.20555305 38.03497696 C43.33170021 38.29843414 44.45784737 38.56189133 45.61812019 38.83333206 C48.14631299 39.46519254 48.14631299 39.46519254 50.27244759 39.39606094 C49.63033333 39.04003799 48.98821907 38.68401505 48.3266468 38.31720352 C34.01254808 30.36958682 19.77726845 22.31409352 5.74949837 13.86871719 C4.01020062 12.83466989 2.25716633 11.82354868 0.49461555 10.82965469 C-0.85479118 10.05815079 -0.85479118 10.05815079 -2.23145866 9.27106094 C-3.0455822 8.81473282 -3.85970573 8.35840469 -4.69849968 7.88824844 C-6.93011342 6.24709537 -7.72083681 4.9448119 -8.72755241 2.39606094 C-6.35237076 -1.31516039 -4.00816266 -0.58876219 0 0 Z " fill="#009BC7" transform="translate(201.72755241394043,48.603939056396484)"/>
<path d="M0 0 C3.61739254 1.8221466 6.33836867 4.09081583 9.1796875 6.94921875 C10.32630859 8.09874023 10.32630859 8.09874023 11.49609375 9.27148438 C12.28113281 10.06876953 13.06617188 10.86605469 13.875 11.6875 C14.65230469 12.46544922 15.42960937 13.24339844 16.23046875 14.04492188 C19.76085885 17.6020124 23.21051801 21.18611964 26.4765625 24.98828125 C30.57045996 29.74086495 35.0317222 34.10231111 39.5 38.5 C44.59984131 43.51927509 49.55183483 48.56045625 54.21289062 53.99023438 C57.63000884 57.8330919 61.33458665 61.39608687 65 65 C69.92910718 69.84640404 74.68972211 74.72997619 79.1953125 79.97265625 C82.62009831 83.81998057 86.32854526 87.39014685 90 91 C94.92910718 95.84640404 99.68972211 100.72997619 104.1953125 105.97265625 C107.62009831 109.81998057 111.32854526 113.39014685 115 117 C123.56563834 125.42191957 123.56563834 125.42191957 127.46875 129.96875 C131.56202757 134.73166514 136.02646937 139.09714126 140.5 143.5 C145.59984131 148.51927509 150.55183483 153.56045625 155.21289062 158.99023438 C158.63000884 162.8330919 162.33458665 166.39608687 166 170 C174.56618661 178.42245864 174.56618661 178.42245864 178.4765625 182.984375 C183.25161903 188.54471203 188.58222856 193.55838406 193.85546875 198.640625 C194.63277344 199.40375 195.41007813 200.166875 196.2109375 200.953125 C196.91524902 201.63536133 197.61956055 202.31759766 198.34521484 203.02050781 C200 205 200 205 201 209 C149.85 209 98.7 209 46 209 C41.05 195.8 36.1 182.6 31 169 C27.1432077 158.87387164 27.1432077 158.87387164 23.26287842 148.75692749 C21.39797374 143.91104095 19.53905391 139.06285744 17.6796875 134.21484375 C17.29660431 133.21622818 16.91352112 132.21761261 16.51882935 131.18873596 C11.31613133 117.61880736 6.15519843 104.03289904 1.00976562 90.44116211 C-2.49513664 81.18802899 -6.01178197 71.94066266 -9.60617065 62.72184753 C-11.13288811 58.80552047 -12.65111878 54.88592606 -14.16912842 50.96621704 C-14.88329002 49.1302422 -15.60200147 47.29602996 -16.32550049 45.4637146 C-17.31683224 42.95269563 -18.29276892 40.43619145 -19.265625 37.91796875 C-19.56038727 37.18396851 -19.85514954 36.44996826 -20.15884399 35.69372559 C-21.66347512 31.74971787 -22.36052327 29.06622185 -21 25 C-20.01 24.67 -19.02 24.34 -18 24 C-7.73725558 30.23002873 1.87771797 42.26320141 9.6015625 51.37890625 C11.61638374 53.71452305 13.78641059 55.85348906 16 58 C14.06346759 51.18310911 11.7833646 44.59703308 9.171875 38.01171875 C8.44739024 36.15319992 7.72344734 34.29446978 7 32.43554688 C5.87091323 29.54546965 4.73796837 26.65711301 3.59570312 23.7722168 C2.48461766 20.96055331 1.38957831 18.14306765 0.296875 15.32421875 C-0.04885559 14.46269699 -0.39458618 13.60117523 -0.75079346 12.71354675 C-3.69853715 5.04625082 -3.69853715 5.04625082 -2 1 C-1.34 0.67 -0.68 0.34 0 0 Z " fill="#D81710" transform="translate(22,130)"/>
<path d="M0 0 C3.83621844 0.66860785 7.62036852 1.51760578 11.4113636 2.40436172 C12.74571559 2.71134381 12.74571559 2.71134381 14.10702419 3.02452755 C17.08101696 3.70971091 20.05366054 4.40057588 23.02635384 5.09137344 C25.17487937 5.58748408 27.32349228 6.0832164 29.47218513 6.57860184 C34.12825011 7.65282815 38.78373763 8.72951139 43.4387989 9.80807877 C50.96875484 11.55265739 58.49999259 13.29165567 66.03148079 15.02960587 C68.651526 15.63424719 71.27156525 16.23891436 73.89160347 16.84358597 C74.5485719 16.99519997 75.20554034 17.14681396 75.8824169 17.30302233 C80.63467023 18.39980214 85.38674766 19.49734205 90.13876534 20.59514236 C109.54718085 25.0784858 128.95928057 29.5456112 148.37401009 34.00152969 C149.0609494 34.15919555 149.74788871 34.31686141 150.45564437 34.47930503 C157.43769758 36.08179948 164.41981907 37.68399627 171.40198797 39.2859866 C186.32141235 42.70910938 201.24034849 46.13435833 216.15916634 49.56012344 C217.21870691 49.80341743 217.21870691 49.80341743 218.29965234 50.05162644 C250.95980452 57.55117639 283.61655184 65.06550142 316.27244759 72.58356094 C316.92637379 72.73410809 317.5803 72.88465523 318.25404215 73.0397644 C322.81657703 74.09015643 327.37910756 75.14056734 331.94163704 76.19098282 C335.76702592 77.07168857 339.59241488 77.95239394 343.41780472 78.83309555 C345.91991532 79.40914576 348.42202486 79.98520061 350.9241333 80.56126022 C376.49737583 86.44889532 402.07209362 92.3301052 427.64744759 98.20856094 C428.58892647 98.42496105 429.53040535 98.64136116 430.50041389 98.86431885 C441.42435863 101.37518893 452.34836076 103.88580913 463.27244759 106.39606094 C463.60244759 107.71606094 463.93244759 109.03606094 464.27244759 110.39606094 C428.03608778 102.32925923 391.83929231 94.10916788 355.67878914 85.70792007 C343.17577568 82.8031326 330.67090345 79.90635938 318.16606402 77.00944448 C316.16249201 76.54526892 314.15893653 76.08102209 312.15538406 75.61676216 C286.76571474 69.73381672 261.36574967 63.89640995 235.95994759 58.08356094 C234.01603857 57.6387585 232.07212988 57.19395463 230.12822151 56.74914932 C229.16663879 56.52912561 228.20505608 56.30910191 227.21433449 56.08241081 C223.33553441 55.19488613 219.45673794 54.30734566 215.57795143 53.41976166 C213.64556833 52.97757737 211.71318004 52.53541574 209.78078651 52.09327698 C194.63102852 48.62669523 179.48411161 45.14787408 164.33885384 41.66168594 C163.29474783 41.42135509 162.25064182 41.18102425 161.17489624 40.93341064 C155.89277926 39.71753178 150.61069727 38.50150096 145.32863045 37.28540421 C95.99080669 25.92642317 46.63585448 14.64330789 -2.72755241 3.39606094 C0.40307509 5.9348722 3.42065866 8.18448383 6.94822884 10.13824844 C7.8459803 10.63961319 8.74373177 11.14097794 9.66868782 11.65753555 C10.63105354 12.18999893 11.59341927 12.72246231 12.58494759 13.27106094 C20.83718777 17.88567534 29.04970453 22.55802902 37.20994759 27.33356094 C38.70062752 28.20549088 38.70062752 28.20549088 40.2214222 29.09503555 C42.23626531 30.27433291 44.25083274 31.45410141 46.26512337 32.63434219 C51.22314509 35.53879785 56.18482863 38.43696869 61.14744759 41.33356094 C62.13221077 41.90840225 63.11697395 42.48324356 64.13157845 43.0755043 C71.49883829 47.37172717 78.88269787 51.63865979 86.27244759 55.89606094 C99.62253937 63.58734933 112.92977801 71.35089004 126.23143196 79.12555313 C137.5609765 85.74627906 148.90221361 92.34541321 160.27244759 98.89606094 C173.62253937 106.58734933 186.92977801 114.35089004 200.23143196 122.12555313 C211.5609765 128.74627906 222.90221361 135.34541321 234.27244759 141.89606094 C247.62253937 149.58734933 260.92977801 157.35089004 274.23143196 165.12555313 C277.20310264 166.8621293 280.17514133 168.59807286 283.14744759 170.33356094 C284.62821785 171.1982399 284.62821785 171.1982399 286.13890266 172.08038712 C293.43856108 176.3380775 300.75945365 180.55802146 308.08494759 184.77106094 C316.98141819 189.88892307 325.82891472 195.08263602 334.64744759 200.33356094 C345.03282983 206.51515704 355.49005795 212.55459313 365.99363899 218.53204727 C376.48909922 224.50630885 386.92392285 230.58098979 397.34568977 236.68268204 C402.27752835 239.56987282 407.21207972 242.45240815 412.14744759 245.33356094 C413.12463753 245.90429337 414.10182747 246.47502579 415.10862923 247.06305313 C421.57645142 250.83625768 428.06076832 254.57989291 434.55247688 258.31183243 C461.92942458 274.05303793 461.92942458 274.05303793 464.27244759 276.39606094 C464.345165 278.74919649 464.35615626 281.10439763 464.33494759 283.45856094 C464.32592415 284.74891251 464.31690071 286.03926407 464.30760384 287.36871719 C464.29020149 288.86725235 464.29020149 288.86725235 464.27244759 290.39606094 C438.91299984 292.10385633 419.34072284 293.17520955 398.1625843 277.46979141 C393.38184181 274.03951377 388.26384081 271.22708623 383.14744759 268.33356094 C381.16119324 267.17793091 379.17680512 266.01908714 377.19432259 264.85699844 C376.21656868 264.28562149 375.23881477 263.71424454 374.23143196 263.12555313 C372.25877571 261.97255834 370.28611946 260.81956355 368.31346321 259.66656876 C365.34179254 257.92999258 362.36975384 256.19404902 359.39744759 254.45856094 C357.91667732 253.59388199 357.91667732 253.59388199 356.40599251 252.71173477 C349.10633409 248.45404439 341.78544153 244.23410043 334.45994759 240.02106094 C325.56347698 234.90319882 316.71598045 229.70948587 307.89744759 224.45856094 C297.51206534 218.27696485 287.05483722 212.23752876 276.55125618 206.26007462 C266.05579595 200.28581303 255.62097232 194.2111321 245.1992054 188.10943985 C240.26736699 185.22224916 235.33288942 182.33958677 230.39744759 179.45856094 C229.41228157 178.88347794 228.42711555 178.30839493 227.41209602 177.71588516 C220.04522419 173.41993895 212.66178618 169.15322524 205.27244759 164.89606094 C191.9223558 157.20477256 178.61511717 149.44123184 165.31346321 141.66656876 C153.98391867 135.04584283 142.64268156 128.44670868 131.27244759 121.89606094 C117.9223558 114.20477256 104.61511717 106.44123184 91.31346321 98.66656876 C88.34179254 96.92999258 85.36975384 95.19404902 82.39744759 93.45856094 C81.41026741 92.88210831 80.42308723 92.30565567 79.40599251 91.71173477 C72.10633409 87.45404439 64.78544153 83.23410043 57.45994759 79.02106094 C48.56347974 73.90320041 39.71587819 68.70965489 30.89744759 63.45856094 C22.09217675 58.21541949 13.24454475 53.06036945 4.33799934 47.99185562 C0.31873482 45.70435012 -3.69690118 43.4104778 -7.71290398 41.11725235 C-9.59952777 40.04009834 -11.48679448 38.96406873 -13.37501335 37.88971329 C-15.54081181 36.65281359 -17.69820498 35.40276361 -19.85255241 34.14606094 C-20.96888054 33.50152969 -22.08520866 32.85699844 -23.23536491 32.19293594 C-25.73868745 30.38803255 -26.69957892 29.26423391 -27.72755241 26.39606094 C-26.72755241 24.83356094 -26.72755241 24.83356094 -24.72755241 23.39606094 C-16.94294242 23.88133379 -9.36914127 25.99559026 -1.79786491 27.77496719 C-0.35687102 28.11025887 1.08422162 28.4451264 2.52540779 28.77959061 C6.2966483 29.65569 10.06683246 30.53624449 13.83671761 31.41815567 C19.89088752 32.8340309 25.94626125 34.24471597 32.00237083 35.65226936 C34.11565453 36.14438292 36.22823899 36.63941784 38.34077644 37.13472366 C40.25384087 37.58034904 40.25384087 37.58034904 42.20555305 38.03497696 C43.33170021 38.29843414 44.45784737 38.56189133 45.61812019 38.83333206 C48.14631299 39.46519254 48.14631299 39.46519254 50.27244759 39.39606094 C49.63033333 39.04003799 48.98821907 38.68401505 48.3266468 38.31720352 C34.01254808 30.36958682 19.77726845 22.31409352 5.74949837 13.86871719 C4.01020062 12.83466989 2.25716633 11.82354868 0.49461555 10.82965469 C-0.85479118 10.05815079 -0.85479118 10.05815079 -2.23145866 9.27106094 C-3.0455822 8.81473282 -3.85970573 8.35840469 -4.69849968 7.88824844 C-6.93011342 6.24709537 -7.72083681 4.9448119 -8.72755241 2.39606094 C-6.35237076 -1.31516039 -4.00816266 -0.58876219 0 0 Z " fill="#000000" transform="translate(201.72755241394043,48.603939056396484)"/>
<path d="M0 0 C0.99724374 0.01144578 1.99448748 0.02289156 3.02195072 0.03468418 C6.63393446 0.08803993 10.244056 0.17382968 13.85522461 0.26733398 C14.54848642 0.28527685 15.24174823 0.30321971 15.95601797 0.3217063 C27.86113135 0.6349249 39.7631889 1.03558323 51.66528201 1.44597697 C56.53939291 1.61339384 61.41363525 1.77690519 66.28785706 1.9410553 C74.44981348 2.21655413 82.6116556 2.49526043 90.7734375 2.77587891 C100.19223254 3.09966988 109.61120085 3.41799354 119.03027576 3.73352998 C128.13882392 4.03881375 137.2472284 4.34820205 146.35557747 4.6593647 C150.21457505 4.79110974 154.0736182 4.92137879 157.93270683 5.05042839 C162.46794067 5.20225402 167.00303788 5.35766715 171.53805542 5.51581764 C173.19721799 5.57310199 174.85642344 5.62915984 176.51567268 5.68387604 C178.78669771 5.75897133 181.05752244 5.8385857 183.32835388 5.91929626 C184.59636558 5.96262053 185.86437727 6.00594481 187.17081356 6.05058193 C191.07991929 6.28055266 194.96959898 6.78163078 198.85522461 7.26733398 C198.85522461 43.23733398 198.85522461 79.20733398 198.85522461 116.26733398 C191.87657967 114.1737405 185.02199223 112.01754362 178.15600586 109.61889648 C176.66185905 109.0976268 176.66185905 109.0976268 175.13752747 108.56582642 C165.38723136 105.14048066 155.72309722 101.50179626 146.07348633 97.80380249 C142.9055439 96.58976269 139.73604062 95.37987358 136.56616211 94.17089844 C133.16419142 92.87331948 129.7623273 91.57546747 126.3609314 90.27638245 C114.57289827 85.77429968 102.77455685 81.29952355 90.97525024 76.8270874 C87.34678405 75.4516344 83.71852332 74.07564085 80.09033203 72.69946289 C69.42422003 68.65382365 58.7577682 64.60908315 48.09049225 60.56651402 C42.89034731 58.59581631 37.69034932 56.6247312 32.49044037 54.65341091 C29.42230899 53.49029701 26.35406284 52.32748739 23.28564453 51.16513062 C10.65539817 46.38059983 -1.96961485 41.58243093 -14.58227539 36.75170898 C-15.68482666 36.33101135 -16.78737793 35.91031372 -17.92333984 35.47686768 C-18.94387451 35.08513367 -19.96440918 34.69339966 -21.01586914 34.28979492 C-22.36056274 33.77494537 -22.36056274 33.77494537 -23.73242188 33.24969482 C-28.30687577 31.38688146 -28.30687577 31.38688146 -30.14477539 30.26733398 C-30.47477539 29.27733398 -30.80477539 28.28733398 -31.14477539 27.26733398 C-29.5444382 25.34388231 -28.65844453 24.359263 -26.15307617 23.91088867 C-25.38979004 23.92023437 -24.62650391 23.92958008 -23.84008789 23.93920898 C-22.5212561 23.94597656 -22.5212561 23.94597656 -21.17578125 23.95288086 C-20.21679932 23.97415039 -19.25781738 23.99541992 -18.26977539 24.01733398 C-16.7665271 24.03376953 -16.7665271 24.03376953 -15.23291016 24.05053711 C-5.65964406 24.184868 3.91168267 24.52514823 13.4777832 24.91088867 C21.60816623 25.23304239 29.71871271 25.32293129 37.85522461 25.26733398 C37.0671492 24.97665291 37.0671492 24.97665291 36.26315308 24.68009949 C30.77831557 22.65625333 25.29527311 20.62760082 19.81323242 18.59619141 C17.76908964 17.83943123 15.72449754 17.08388359 13.67944336 16.32958984 C10.73423224 15.24304187 7.79068275 14.15209448 4.84741211 13.06030273 C3.48300491 12.55855782 3.48300491 12.55855782 2.09103394 12.04667664 C-7.30783421 8.55005655 -7.30783421 8.55005655 -11.14477539 6.26733398 C-11.47477539 5.27733398 -11.80477539 4.28733398 -12.14477539 3.26733398 C-8.71803649 -0.7654754 -4.96424504 -0.11011005 0 0 Z " fill="#010000" transform="translate(467.144775390625,-0.267333984375)"/>
<path d="M0 0 C10.54261119 -0.08110979 21.04893925 0.17091811 31.58349609 0.53491211 C33.30341448 0.59259754 35.02333962 0.65008168 36.74327087 0.7073822 C41.37361001 0.86226873 46.00384388 1.02010992 50.63405943 1.17864299 C55.50718114 1.34510816 60.38038209 1.50922434 65.25357056 1.67372131 C73.43570694 1.95029836 81.61777431 2.22885078 89.79980469 2.50854492 C99.22115019 2.830575 108.64260436 3.14926175 118.06412256 3.466196 C127.17311596 3.77271379 136.28201954 4.08183023 145.39088821 4.39203072 C149.24608121 4.52326195 153.10130373 4.65356931 156.95655441 4.78309441 C161.50888532 4.93614215 166.06113282 5.09147945 170.61332893 5.24848366 C172.27075243 5.30529242 173.9282019 5.36134977 175.58568001 5.41654205 C177.87404255 5.49287394 180.16228898 5.57210881 182.45053101 5.65196228 C183.72285772 5.69528655 184.99518444 5.73861082 186.30606651 5.78324795 C193.20860243 6.10198677 200.10356526 6.56897283 207 7 C207 30.76 207 54.52 207 79 C201.07964461 77.0265482 195.21087965 75.01560167 189.3671875 72.83984375 C188.55445374 72.53834915 187.74171997 72.23685455 186.90435791 71.92622375 C184.2271536 70.93199077 181.55098814 69.93500138 178.875 68.9375 C177.93750916 68.58852661 177.00001831 68.23955322 176.03411865 67.88000488 C160.38853309 62.05320983 144.78714014 56.11534441 129.20272827 50.12713623 C113.38520025 44.04962657 97.54463834 38.03588271 81.6875 32.0625 C63.44899053 25.19113491 45.21878581 18.29850838 27 11.375 C25.91512299 10.9629129 24.83024597 10.55082581 23.7124939 10.12625122 C20.66229075 8.9675189 17.61234018 7.80812479 14.5625 6.6484375 C13.66300125 6.30669998 12.7635025 5.96496246 11.83674622 5.61286926 C7.87808084 4.10648508 3.92498169 2.59276079 0 1 C0 0.67 0 0.34 0 0 Z " fill="#FCCE70" transform="translate(459,3)"/>
<path d="M0 0 C3.61739254 1.8221466 6.33836867 4.09081583 9.1796875 6.94921875 C10.32630859 8.09874023 10.32630859 8.09874023 11.49609375 9.27148438 C12.28113281 10.06876953 13.06617188 10.86605469 13.875 11.6875 C14.65230469 12.46544922 15.42960937 13.24339844 16.23046875 14.04492188 C19.76085885 17.6020124 23.21051801 21.18611964 26.4765625 24.98828125 C30.57045996 29.74086495 35.0317222 34.10231111 39.5 38.5 C44.59984131 43.51927509 49.55183483 48.56045625 54.21289062 53.99023438 C57.63000884 57.8330919 61.33458665 61.39608687 65 65 C69.92910718 69.84640404 74.68972211 74.72997619 79.1953125 79.97265625 C82.62009831 83.81998057 86.32854526 87.39014685 90 91 C94.92910718 95.84640404 99.68972211 100.72997619 104.1953125 105.97265625 C107.62009831 109.81998057 111.32854526 113.39014685 115 117 C123.56563834 125.42191957 123.56563834 125.42191957 127.46875 129.96875 C131.56202757 134.73166514 136.02646937 139.09714126 140.5 143.5 C145.59984131 148.51927509 150.55183483 153.56045625 155.21289062 158.99023438 C158.63000884 162.8330919 162.33458665 166.39608687 166 170 C174.56618661 178.42245864 174.56618661 178.42245864 178.4765625 182.984375 C183.25161903 188.54471203 188.58222856 193.55838406 193.85546875 198.640625 C194.63277344 199.40375 195.41007813 200.166875 196.2109375 200.953125 C196.91524902 201.63536133 197.61956055 202.31759766 198.34521484 203.02050781 C200.0591007 205.07069762 200.6064863 206.38776991 201 209 C196.75096527 208.50065953 194.75241007 206.11100696 191.82421875 203.15234375 C191.33597122 202.66222305 190.84772369 202.17210236 190.34468079 201.66712952 C189.31162945 200.62736182 188.28217932 199.5840055 187.25610352 198.53735352 C185.71016129 196.96061275 184.15414653 195.39445375 182.59570312 193.83007812 C177.81139275 189.00773223 173.16357349 184.11501515 168.74145508 178.95532227 C165.18135935 174.95801304 161.31352887 171.25328355 157.5 167.5 C152.40015869 162.48072491 147.44816517 157.43954375 142.78710938 152.00976562 C139.36999116 148.1669081 135.66541335 144.60391313 132 141 C127.07089282 136.15359596 122.31027789 131.27002381 117.8046875 126.02734375 C114.37990169 122.18001943 110.67145474 118.60985315 107 115 C102.07089282 110.15359596 97.31027789 105.27002381 92.8046875 100.02734375 C89.37990169 96.18001943 85.67145474 92.60985315 82 89 C73.43436166 80.57808043 73.43436166 80.57808043 69.53125 76.03125 C65.43797243 71.26833486 60.97353063 66.90285874 56.5 62.5 C51.40015869 57.48072491 46.44816517 52.43954375 41.78710938 47.00976562 C38.36999116 43.1669081 34.66541335 39.60391313 31 36 C26.03096481 31.11433788 21.22169539 26.19206373 16.67919922 20.90625 C13.94343325 17.80057093 11.00982576 14.90333583 8.0625 12 C7.47404297 11.41605469 6.88558594 10.83210937 6.27929688 10.23046875 C4.85520207 8.81795195 3.4279475 7.4086219 2 6 C8.13197182 22.96428143 14.43916001 39.85254616 20.93835449 56.67947388 C26.44431217 70.93497881 31.8920399 85.21177169 37.3125 99.5 C43.26433496 115.18454498 49.23304745 130.86240448 55.23599243 146.52746582 C56.36185942 149.46570628 57.48702145 152.4042159 58.61206055 155.34277344 C61.74500138 163.52339193 64.88172774 171.70243834 68.04196167 179.87255859 C69.28408876 183.08492 70.52277088 186.29860382 71.76104736 189.51245117 C72.33075825 190.987944 72.9022917 192.46273457 73.47576904 193.93676758 C74.25129191 195.93012673 75.02084201 197.92569266 75.7890625 199.921875 C76.21912598 201.03143555 76.64918945 202.14099609 77.09228516 203.28417969 C78 206 78 206 78 209 C67.44 209 56.88 209 46 209 C45.12601562 206.65777344 44.25203125 204.31554687 43.3515625 201.90234375 C36.39461081 183.2801934 29.37276043 164.68439317 22.25 146.125 C15.13205803 127.57803304 8.04329447 109.02033269 1.00976562 90.44116211 C-2.49513664 81.18802899 -6.01178197 71.94066266 -9.60617065 62.72184753 C-11.13288811 58.80552047 -12.65111878 54.88592606 -14.16912842 50.96621704 C-14.88329002 49.1302422 -15.60200147 47.29602996 -16.32550049 45.4637146 C-17.31683224 42.95269563 -18.29276892 40.43619145 -19.265625 37.91796875 C-19.56038727 37.18396851 -19.85514954 36.44996826 -20.15884399 35.69372559 C-21.66347512 31.74971787 -22.36052327 29.06622185 -21 25 C-20.01 24.67 -19.02 24.34 -18 24 C-7.73725558 30.23002873 1.87771797 42.26320141 9.6015625 51.37890625 C11.61638374 53.71452305 13.78641059 55.85348906 16 58 C14.06346759 51.18310911 11.7833646 44.59703308 9.171875 38.01171875 C8.44739024 36.15319992 7.72344734 34.29446978 7 32.43554688 C5.87091323 29.54546965 4.73796837 26.65711301 3.59570312 23.7722168 C2.48461766 20.96055331 1.38957831 18.14306765 0.296875 15.32421875 C-0.04885559 14.46269699 -0.39458618 13.60117523 -0.75079346 12.71354675 C-3.69853715 5.04625082 -3.69853715 5.04625082 -2 1 C-1.34 0.67 -0.68 0.34 0 0 Z " fill="#020000" transform="translate(22,130)"/>
</svg>
