<?xml version="1.0" encoding="UTF-8"?>
<svg version="1.1" xmlns="http://www.w3.org/2000/svg" width="1000" height="500">
<path d="M0 0 C2.81753306 4.22629959 1.93941059 7.16291518 1 12 C0.18008413 14.98385185 -0.85078606 17.85934789 -1.94140625 20.75390625 C-2.22853989 21.54022934 -2.51567352 22.32655243 -2.81150818 23.13670349 C-3.71910961 25.61554467 -4.64050979 28.08897954 -5.5625 30.5625 C-6.18516955 32.25551955 -6.80692294 33.94887634 -7.42773438 35.64257812 C-8.94127043 39.7656893 -10.46719257 43.88401637 -12 48 C-9.32836186 45.3622013 -6.68896257 42.75580855 -4.31640625 39.84375 C-3.86330078 39.29589844 -3.41019531 38.74804688 -2.94335938 38.18359375 C-2.02435542 37.06311085 -1.10767677 35.94071666 -0.19335938 34.81640625 C2.91440683 31.06945409 6.1768036 28.0180166 10 25 C10.95864669 28.05082255 10.99937079 30.03315642 10.2421875 33.12890625 C9.9320874 34.40109009 9.9320874 34.40109009 9.61572266 35.69897461 C9.37128418 36.64393799 9.1268457 37.58890137 8.875 38.5625 C8.61638184 39.57900635 8.35776367 40.5955127 8.09130859 41.64282227 C1.10280167 68.36550499 -7.45237888 94.74162042 -16 121 C-15.45400146 120.72073669 -14.90800293 120.44147339 -14.34545898 120.15374756 C-8.63498714 117.23308718 -2.92425648 114.31293336 2.78662109 111.39306641 C4.91461651 110.30497879 7.04254709 109.21676438 9.17041016 108.12841797 C12.238434 106.55923217 15.30669485 104.99051065 18.375 103.421875 C19.78954468 102.69819733 19.78954468 102.69819733 21.23266602 101.9598999 C23.00429983 101.05438496 24.77710368 100.1511542 26.55126953 99.25061035 C28.14668536 98.43580302 29.7365719 97.61004789 31.31982422 96.77185059 C36.6377622 93.99329189 36.6377622 93.99329189 40.375 94.0625 C43 95 43 95 45 98 C45.13525391 100.26831055 45.13525391 100.26831055 44.9765625 102.88671875 C44.925 103.82451172 44.8734375 104.76230469 44.8203125 105.72851562 C44.75585938 106.70498047 44.69140625 107.68144531 44.625 108.6875 C44.56828125 109.67556641 44.5115625 110.66363281 44.453125 111.68164062 C44.31166481 114.12182885 44.16025726 116.56098591 44 119 C44.69851074 118.17072998 44.69851074 118.17072998 45.41113281 117.32470703 C49.2190993 112.82878445 53.13684473 108.38752768 58 105 C58.66 105 59.32 105 60 105 C60.38087316 114.8952964 59.25709102 124.23514721 57.5 133.9375 C57.23525743 135.44275885 56.97069446 136.94804931 56.70629883 138.45336914 C53.34076428 157.36653698 49.66016696 176.35933216 45 195 C-10.44 195 -65.88 195 -123 195 C-123.495 173.83875 -123.99 152.6775 -124.5 130.875 C-124.71849609 124.21554199 -124.93699219 117.55608398 -125.16210938 110.69482422 C-125.27050781 102.50610352 -125.27050781 102.50610352 -125.29064941 98.66165161 C-125.32743917 95.98942547 -125.40178569 93.3452201 -125.53381348 90.67849731 C-126.39368237 72.52560371 -126.39368237 72.52560371 -123 65 C-117.22931738 58.71543765 -109.59951441 55.33484492 -101.81135368 52.16859722 C-98.20360743 50.66896298 -94.95473099 48.82935469 -91.59375 46.84375 C-89.56364619 45.72708035 -87.53242244 44.61244397 -85.5 43.5 C-75.89613369 38.20449439 -66.39065964 32.76626179 -56.93554688 27.21020508 C-48.62900557 22.33968911 -40.25348596 17.60007537 -31.83203125 12.93115234 C-27.22224212 10.37512092 -22.63301437 7.8052057 -18.1171875 5.0859375 C-17.39015625 4.65450439 -16.663125 4.22307129 -15.9140625 3.77856445 C-14.61034966 3.00105084 -13.31502549 2.20917922 -12.03125 1.39916992 C-7.70348119 -1.15820364 -4.81730646 -1.37216675 0 0 Z " fill="#D3D3D3" transform="translate(123,305)"/>
<path d="M0 0 C7.37056321 6.24603142 7.37056321 6.24603142 10.62109375 9.49169922 C11.23863525 10.10608856 11.85617676 10.72047791 12.49243164 11.35348511 C13.1343042 11.9973819 13.77617676 12.64127869 14.4375 13.3046875 C15.46315063 14.32890305 15.46315063 14.32890305 16.50952148 15.37380981 C17.94605274 16.8096647 19.38133852 18.24676662 20.81542969 19.68505859 C22.99042669 21.86540315 25.17069918 24.04036871 27.3515625 26.21484375 C28.75552897 27.61947126 30.15918508 29.02440906 31.5625 30.4296875 C32.20437256 31.06953583 32.84624512 31.70938416 33.50756836 32.36862183 C37.29993256 36.18034366 40.91047545 40.1016825 44.41665649 44.17854309 C46.98612551 47.13442542 49.6880131 49.96389911 52.375 52.8125 C57.04432104 57.8027618 61.49434923 62.89918654 65.765625 68.23828125 C67.79423559 70.74567231 69.87440252 73.1919067 71.98193359 75.63232422 C76.53271497 80.91684532 80.85744053 86.32625273 85 91.9375 C85.45681152 92.55206055 85.91362305 93.16662109 86.38427734 93.79980469 C93 102.88681827 93 102.88681827 93 107 C91.88625 106.835 90.7725 106.67 89.625 106.5 C86.27967967 105.9544542 86.27967967 105.9544542 84 106 C84.37125 107.60875 84.37125 107.60875 84.75 109.25 C85 113 85 113 83.34375 115.20703125 C79.03477603 118.50339634 74.18792041 117.49327768 69 117 C65.48547171 116.46260264 61.99871755 115.80376242 58.52050781 115.06811523 C54.9482424 114.31519023 51.65332034 113.83106033 48 114 C48.87140625 114.92039062 49.7428125 115.84078125 50.640625 116.7890625 C61.32854417 128.12523804 71.55278266 139.70177875 81.125 152 C81.68195557 152.70624512 82.23891113 153.41249023 82.81274414 154.14013672 C85.74841832 157.96824489 87.79519465 161.24027517 89 166 C82.375 166.125 82.375 166.125 79 165 C79.33 165.66 79.66 166.32 80 167 C80.57237204 174.09741332 80.57237204 174.09741332 78.375 177.5625 C75.1460303 179.51687639 73.62212499 178.84208904 70 178 C67.41723633 176.94360352 67.41723633 176.94360352 64.83203125 175.62890625 C63.38268188 174.89849121 63.38268188 174.89849121 61.90405273 174.15332031 C60.37373413 173.36586426 60.37373413 173.36586426 58.8125 172.5625 C57.75039307 172.02334961 56.68828613 171.48419922 55.59399414 170.92871094 C46.73072754 166.4150534 37.91366935 161.8135059 29.13574219 157.13623047 C27.06474897 156.03444693 24.99003023 154.94003228 22.9140625 153.84765625 C21.63011804 153.16944174 20.346259 152.49106549 19.0625 151.8125 C17.98097656 151.24144531 16.89945313 150.67039062 15.78515625 150.08203125 C15.21988346 149.75996736 14.65461067 149.43790346 14.0722084 149.10608006 C11.88960355 147.90178633 11.88960355 147.90178633 9.05324936 146.7484045 C0.66969257 142.77227826 0.66969257 142.77227826 -1.09210968 138.10983467 C-1.48136629 134.44456345 -1.48520882 130.9462036 -1.36230469 127.26196289 C-1.35891598 125.87178849 -1.36082733 124.48159263 -1.36761475 123.09143066 C-1.37104775 119.33180057 -1.30069831 115.57679763 -1.21672726 111.8182404 C-1.14152292 107.88537004 -1.13464841 103.95238407 -1.12042236 100.01890564 C-1.08317718 92.57722442 -0.98478453 85.13766785 -0.86422849 77.69692081 C-0.72992768 69.22321838 -0.66407929 60.74941245 -0.60388327 52.27491009 C-0.47857279 34.84871262 -0.26761446 17.42458118 0 0 Z " fill="#717171" transform="translate(0,120)"/>
<path d="M0 0 C28.71 0 57.42 0 87 0 C95.86861509 69.17519772 95.86861509 69.17519772 96.1875 100.1875 C96.20063232 100.96657715 96.21376465 101.7456543 96.22729492 102.54833984 C96.23416805 107.40922831 95.54585274 111.38688214 94 116 C90.78475695 114.59155282 88.67816132 112.89655214 86.25 110.375 C85.63640625 109.74335937 85.0228125 109.11171875 84.390625 108.4609375 C83.93171875 107.97882813 83.4728125 107.49671875 83 107 C83.2165625 107.94101563 83.433125 108.88203125 83.65625 109.8515625 C83.9346875 111.09679687 84.213125 112.34203125 84.5 113.625 C84.7784375 114.85476562 85.056875 116.08453125 85.34375 117.3515625 C86.85665722 125.76260623 86.85665722 125.76260623 84.3125 129.4375 C82 131 82 131 79.58203125 130.81640625 C69.8931214 127.75289315 63.10547509 112.20761276 58 104 C57.1018457 102.56527344 57.1018457 102.56527344 56.18554688 101.1015625 C46.08235675 84.94468063 36.39811568 68.57649129 27 52 C26.52868652 51.17064941 26.05737305 50.34129883 25.57177734 49.48681641 C19.88708195 39.4586154 14.488107 29.29289121 9.1965332 19.05200195 C6.53091517 13.89720376 3.80021379 8.80321943 0.89379883 3.77954102 C0 2 0 2 0 0 Z " fill="#111111" transform="translate(29,0)"/>
<path d="M0 0 C2.81753306 4.22629959 1.93941059 7.16291518 1 12 C0.18008413 14.98385185 -0.85078606 17.85934789 -1.94140625 20.75390625 C-2.22853989 21.54022934 -2.51567352 22.32655243 -2.81150818 23.13670349 C-3.71910961 25.61554467 -4.64050979 28.08897954 -5.5625 30.5625 C-6.18516955 32.25551955 -6.80692294 33.94887634 -7.42773438 35.64257812 C-8.94127043 39.7656893 -10.46719257 43.88401637 -12 48 C-9.32836186 45.3622013 -6.68896257 42.75580855 -4.31640625 39.84375 C-3.86330078 39.29589844 -3.41019531 38.74804688 -2.94335938 38.18359375 C-2.02435542 37.06311085 -1.10767677 35.94071666 -0.19335938 34.81640625 C2.91440683 31.06945409 6.1768036 28.0180166 10 25 C10.95864669 28.05082255 10.99937079 30.03315642 10.2421875 33.12890625 C9.9320874 34.40109009 9.9320874 34.40109009 9.61572266 35.69897461 C9.37128418 36.64393799 9.1268457 37.58890137 8.875 38.5625 C8.61638184 39.57900635 8.35776367 40.5955127 8.09130859 41.64282227 C1.10280167 68.36550499 -7.45237888 94.74162042 -16 121 C-15.45400146 120.72073669 -14.90800293 120.44147339 -14.34545898 120.15374756 C-8.63498714 117.23308718 -2.92425648 114.31293336 2.78662109 111.39306641 C4.91461651 110.30497879 7.04254709 109.21676438 9.17041016 108.12841797 C12.238434 106.55923217 15.30669485 104.99051065 18.375 103.421875 C19.78954468 102.69819733 19.78954468 102.69819733 21.23266602 101.9598999 C23.00429983 101.05438496 24.77710368 100.1511542 26.55126953 99.25061035 C28.14668536 98.43580302 29.7365719 97.61004789 31.31982422 96.77185059 C36.6377622 93.99329189 36.6377622 93.99329189 40.375 94.0625 C43 95 43 95 45 98 C45.13525391 100.26831055 45.13525391 100.26831055 44.9765625 102.88671875 C44.925 103.82451172 44.8734375 104.76230469 44.8203125 105.72851562 C44.75585938 106.70498047 44.69140625 107.68144531 44.625 108.6875 C44.56828125 109.67556641 44.5115625 110.66363281 44.453125 111.68164062 C44.31166481 114.12182885 44.16025726 116.56098591 44 119 C44.69851074 118.17072998 44.69851074 118.17072998 45.41113281 117.32470703 C49.2190993 112.82878445 53.13684473 108.38752768 58 105 C58.66 105 59.32 105 60 105 C60.38087316 114.8952964 59.25709102 124.23514721 57.5 133.9375 C57.23525743 135.44275885 56.97069446 136.94804931 56.70629883 138.45336914 C53.34076428 157.36653698 49.66016696 176.35933216 45 195 C37.41 195 29.82 195 22 195 C23.12473587 183.75264129 23.12473587 183.75264129 24.07568359 179.30102539 C24.28615326 178.30200699 24.49662292 177.30298859 24.71347046 176.2736969 C24.93950958 175.22560349 25.16554871 174.17751007 25.3984375 173.09765625 C25.75187729 171.42188759 25.75187729 171.42188759 26.11245728 169.71226501 C26.86163103 166.16126059 27.61750668 162.61173834 28.375 159.0625 C34.41370107 131.70834244 34.41370107 131.70834244 37.7890625 103.93359375 C38 102 38 102 39 100 C38.18269409 100.42744507 38.18269409 100.42744507 37.34887695 100.86352539 C34.67042392 102.2638336 31.99147172 103.66318435 29.3125 105.0625 C28.29027344 105.59689697 27.26804688 106.13129395 26.21484375 106.68188477 C20.42887558 109.70278106 14.63443692 112.70578686 8.82421875 115.6796875 C-9.76695571 125.20536661 -28.09299576 135.13636095 -45.98828125 145.92578125 C-48 147 -48 147 -50 147 C-49.38131966 140.24272507 -47.76248353 134.05162825 -45.8125 127.5625 C-45.29453857 125.82830811 -45.29453857 125.82830811 -44.76611328 124.05908203 C-40.1753927 108.95962452 -34.9699963 94.06281662 -29.81051636 79.15054321 C-27.59327608 72.73726182 -25.40504935 66.31457932 -23.23046875 59.88671875 C-22.60960957 58.05482592 -21.98867933 56.22295718 -21.36767578 54.39111328 C-20.48034449 51.77356004 -19.59391444 49.15572958 -18.71136475 46.53656006 C-15.47707334 36.94369412 -12.10436866 27.44065821 -8.33070374 18.04469299 C-6.61565551 13.74345247 -5.19788914 9.47424221 -4 5 C-15.13258301 11.00658337 -26.14061204 17.16367183 -36.93457031 23.76269531 C-41.91839478 26.79915594 -46.9703788 29.66058709 -52.10473633 32.43481445 C-69.9906885 42.1039973 -87.63804244 52.19018644 -105.22460938 62.390625 C-108.99994701 64.5798426 -112.77847549 66.76333453 -116.5625 68.9375 C-117.61566406 69.54464844 -118.66882813 70.15179688 -119.75390625 70.77734375 C-122 72 -122 72 -123 72 C-123.64453125 68.90625 -123.64453125 68.90625 -123 65 C-119.93422046 62.21547707 -116.33154313 60.43039459 -112.6875 58.5 C-111.61242187 57.90251953 -110.53734375 57.30503906 -109.4296875 56.68945312 C-106.54836286 55.09259443 -103.65590525 53.5187302 -100.75726318 51.95361328 C-96.77801186 49.79419462 -92.8293425 47.57909172 -88.8737793 45.37670898 C-86.61022461 44.117577 -84.34473319 42.8619209 -82.07739258 41.60961914 C-73.6210491 36.93476908 -65.26582583 32.10528179 -56.93554688 27.21020508 C-48.62900557 22.33968911 -40.25348596 17.60007537 -31.83203125 12.93115234 C-27.22224212 10.37512092 -22.63301437 7.8052057 -18.1171875 5.0859375 C-17.39015625 4.65450439 -16.663125 4.22307129 -15.9140625 3.77856445 C-14.61034966 3.00105084 -13.31502549 2.20917922 -12.03125 1.39916992 C-7.70348119 -1.15820364 -4.81730646 -1.37216675 0 0 Z " fill="#202020" transform="translate(123,305)"/>
<path d="M0 0 C3.4375 0.8125 3.4375 0.8125 5.4375 3.8125 C6.04844248 9.155658 5.33477967 14.54098197 4.4375 19.8125 C4.89640625 19.05324219 5.3553125 18.29398437 5.828125 17.51171875 C6.44171875 16.51785156 7.0553125 15.52398437 7.6875 14.5 C8.29078125 13.51386719 8.8940625 12.52773438 9.515625 11.51171875 C11.33847308 8.9515805 12.91071599 7.60192249 15.4375 5.8125 C15.65335357 19.86430109 15.11204548 33.64118576 13.75 47.625 C13.57244611 49.51561902 13.39495717 51.40624415 13.2175293 53.296875 C11.94083039 66.66093776 10.41955589 79.99215717 8.75 93.3125 C8.6417691 94.1760611 8.53353821 95.03962219 8.42202759 95.92935181 C8.11500483 98.35971773 7.80314006 100.78938786 7.48828125 103.21875 C7.35099609 104.29064827 7.35099609 104.29064827 7.2109375 105.38420105 C6.7848053 108.60844886 6.22834137 111.64913452 5.4375 114.8125 C-17.0025 114.8125 -39.4425 114.8125 -62.5625 114.8125 C-61.69522933 110.47614667 -60.45669651 106.92333078 -58.67578125 102.94140625 C-58.38248932 102.27547958 -58.08919739 101.60955292 -57.78701782 100.92344666 C-56.82211327 98.73802315 -55.84918122 96.5563027 -54.875 94.375 C-54.54025665 93.6221875 -54.20551331 92.869375 -53.86062622 92.09375 C-51.44400657 86.6593858 -49.00819845 81.23383264 -46.5625 75.8125 C-46.25042603 75.11985046 -45.93835205 74.42720093 -45.61682129 73.71356201 C-12.08065584 -0.63582399 -12.08065584 -0.63582399 0 0 Z " fill="#111111" transform="translate(315.5625,385.1875)"/>
<path d="M0 0 C5.04683531 4.2292415 9.79016664 8.64269815 14.4375 13.3046875 C15.46315063 14.32890305 15.46315063 14.32890305 16.50952148 15.37380981 C17.94605274 16.8096647 19.38133852 18.24676662 20.81542969 19.68505859 C22.99042669 21.86540315 25.17069918 24.04036871 27.3515625 26.21484375 C28.75552897 27.61947126 30.15918508 29.02440906 31.5625 30.4296875 C32.20437256 31.06953583 32.84624512 31.70938416 33.50756836 32.36862183 C37.29993256 36.18034366 40.91047545 40.1016825 44.41665649 44.17854309 C46.98612551 47.13442542 49.6880131 49.96389911 52.375 52.8125 C57.04432104 57.8027618 61.49434923 62.89918654 65.765625 68.23828125 C67.79423559 70.74567231 69.87440252 73.1919067 71.98193359 75.63232422 C76.53271497 80.91684532 80.85744053 86.32625273 85 91.9375 C85.45681152 92.55206055 85.91362305 93.16662109 86.38427734 93.79980469 C93 102.88681827 93 102.88681827 93 107 C91.88625 106.835 90.7725 106.67 89.625 106.5 C86.27967967 105.9544542 86.27967967 105.9544542 84 106 C84.37125 107.60875 84.37125 107.60875 84.75 109.25 C85 113 85 113 83.34375 115.20703125 C79.03477603 118.50339634 74.18792041 117.49327768 69 117 C65.48547171 116.46260264 61.99871755 115.80376242 58.52050781 115.06811523 C54.9482424 114.31519023 51.65332034 113.83106033 48 114 C48.87140625 114.92039062 49.7428125 115.84078125 50.640625 116.7890625 C61.32854417 128.12523804 71.55278266 139.70177875 81.125 152 C81.68195557 152.70624512 82.23891113 153.41249023 82.81274414 154.14013672 C85.74841832 157.96824489 87.79519465 161.24027517 89 166 C82.375 166.125 82.375 166.125 79 165 C79.33 165.66 79.66 166.32 80 167 C80.57237204 174.09741332 80.57237204 174.09741332 78.375 177.5625 C75.1460303 179.51687639 73.62212499 178.84208904 70 178 C67.41723633 176.94360352 67.41723633 176.94360352 64.83203125 175.62890625 C63.38268188 174.89849121 63.38268188 174.89849121 61.90405273 174.15332031 C60.37373413 173.36586426 60.37373413 173.36586426 58.8125 172.5625 C57.75039307 172.02334961 56.68828613 171.48419922 55.59399414 170.92871094 C46.73072754 166.4150534 37.91366935 161.8135059 29.13574219 157.13623047 C27.06474897 156.03444693 24.99003023 154.94003228 22.9140625 153.84765625 C20.42378451 152.53601869 17.94252497 151.20967541 15.46875 149.8671875 C13.12520588 148.60568515 10.78424949 147.38561028 8.40625 146.1953125 C0.35722135 141.96393061 0.35722135 141.96393061 -0.73828125 139.0078125 C-0.75 137.0625 -0.75 137.0625 0 134 C4.27559302 135.52987321 7.97912605 137.73419051 11.8125 140.125 C17.74193289 143.75465161 23.77427587 146.99490807 30.0168457 150.04931641 C34.5642268 152.274783 39.04557368 154.59410514 43.5 157 C51.24730746 161.17503522 59.11361446 165.09576303 67 169 C69.00045086 169.99909778 71.00061652 170.9987679 73 172 C72.46678815 167.80836243 71.20724237 165.58716456 68.5 162.375 C67.77167969 161.49972656 67.04335937 160.62445313 66.29296875 159.72265625 C65.53628906 158.82417969 64.77960938 157.92570313 64 157 C62.60313066 155.27167014 61.20731748 153.5424862 59.8125 151.8125 C56.12038005 147.3041601 52.32720551 142.89327848 48.5 138.5 C39.00592902 127.59722817 30.01294524 116.3004948 21 105 C22.25737 103.48310852 22.25737 103.48310852 24 102 C27.04760794 102.21216917 29.78767994 102.58996577 32.76953125 103.16796875 C33.64212082 103.32284256 34.51471039 103.47771637 35.41374207 103.63728333 C38.21648561 104.13806472 41.01428888 104.66203807 43.8125 105.1875 C46.56482569 105.68873615 49.31798847 106.18516389 52.07125854 106.68118286 C53.86095793 107.00405623 55.65029114 107.32896635 57.4392395 107.65597534 C64.60365903 108.95814777 71.77898702 110.05449077 79 111 C78.01 109.824375 78.01 109.824375 77 108.625 C75 106 75 106 75 104 C73.515 103.505 73.515 103.505 72 103 C70.5625 101.57421875 70.5625 101.57421875 69 99.6875 C65.98889927 96.13870271 62.90345954 92.67234629 59.75 89.25 C59.04713867 88.48562622 59.04713867 88.48562622 58.33007812 87.70581055 C57.36682807 86.65842315 56.40328415 85.61130593 55.43945312 84.56445312 C53.12257673 82.04638258 50.81152713 79.52298003 48.5 77 C47.58205334 75.99867766 46.66408457 74.9973756 45.74609375 73.99609375 C43.92516169 72.00968118 42.10490144 70.02265613 40.28515625 68.03515625 C39.37764888 67.04422989 38.4700967 66.05334455 37.5625 65.0625 C37.11277832 64.57152832 36.66305664 64.08055664 36.19970703 63.57470703 C33.27887323 60.38843714 30.34861706 57.21106177 27.41308594 54.03833008 C25.41337612 51.87578674 23.41736786 49.7098527 21.42236328 47.54296875 C20.48729037 46.52860885 19.55080637 45.5155476 18.61279297 44.50390625 C17.34151977 43.13176787 16.07682911 41.75353951 14.8125 40.375 C14.09707031 39.59898437 13.38164062 38.82296875 12.64453125 38.0234375 C11 36 11 36 10 33 C9.01 32.67 8.02 32.34 7 32 C3.17720381 29.02390492 0.37535573 25.92762494 -0.56591797 21.09375 C-0.68733365 17.86943305 -0.61283565 14.72155173 -0.4375 11.5 C-0.40591797 10.39140625 -0.37433594 9.2828125 -0.34179688 8.140625 C-0.25983829 5.42428324 -0.14518763 2.71357284 0 0 Z " fill="#4E4E4E" transform="translate(0,120)"/>
<path d="M0 0 C20.13 0 40.26 0 61 0 C58.48527442 18.86044186 55.70390861 37.52835355 52 56.1875 C51.83886719 57.01386963 51.67773438 57.84023926 51.51171875 58.69165039 C49.35054197 69.71606794 46.57631389 80.34892378 43 91 C42.34 91 41.68 91 41 91 C40.01 88.03 39.02 85.06 38 82 C37.82984375 82.68707031 37.6596875 83.37414062 37.484375 84.08203125 C37.24203125 84.98308594 36.9996875 85.88414063 36.75 86.8125 C36.40195312 88.15248047 36.40195312 88.15248047 36.046875 89.51953125 C34.82455303 92.41570457 33.70725624 93.45299643 31 95 C28.07696342 94.92870642 26.61514885 94.60905324 24.52172852 92.53637695 C22.24956435 88.74919365 21.3283281 84.73222955 20.21484375 80.48046875 C19.95729309 79.52531372 19.69974243 78.57015869 19.43438721 77.58605957 C18.59303248 74.45555171 17.76492446 71.32171598 16.9375 68.1875 C16.36095106 66.02761228 15.78387961 63.86786397 15.20629883 61.70825195 C13.45500447 55.14298178 11.72428063 48.57241056 10 42 C9.73437256 40.9884082 9.46874512 39.97681641 9.19506836 38.93457031 C7.51290447 32.52221006 5.84454272 26.10639504 4.1875 19.6875 C3.97108856 18.85221771 3.75467712 18.01693542 3.53170776 17.15634155 C2.92713347 14.81751034 2.32778692 12.47741221 1.73046875 10.13671875 C1.46426727 9.1088324 1.46426727 9.1088324 1.19268799 8.06018066 C0.48929142 5.27997472 0 2.88268849 0 0 Z " fill="#1C1C1C" transform="translate(257,0)"/>
<path d="M0 0 C14.52 0 29.04 0 44 0 C46.4907981 9.34049286 48.94683679 18.66765713 51.2421875 28.0546875 C51.6784697 29.83167526 51.6784697 29.83167526 52.12356567 31.64456177 C52.73428816 34.13331059 53.34429718 36.6222346 53.95361328 39.11132812 C54.86457927 42.83243348 55.77779154 46.55298168 56.69140625 50.2734375 C57.88474617 55.13521959 59.07275621 59.99825946 60.25683594 64.86230469 C61.41702644 69.62720431 62.5938459 74.38756495 63.78222656 79.14550781 C64.33674283 81.39123795 64.89111159 83.63700452 65.4453125 85.8828125 C65.70400116 86.90414276 65.96268982 87.92547302 66.22921753 88.97775269 C67.23023404 93.06478779 68.14866113 96.84582719 68.03466797 101.06982422 C68.01750732 102.52026123 68.01750732 102.52026123 68 104 C68.66 104.66 69.32 105.32 70 106 C70.81374968 108.66840886 71.53216161 111.29347611 72.1875 114 C72.47270508 115.10601562 72.47270508 115.10601562 72.76367188 116.234375 C74.1266598 121.7466804 74.1266598 121.7466804 73 124 C67.02289298 116.73522041 61.96730186 108.96924389 57 101 C56.43104004 100.09040527 55.86208008 99.18081055 55.27587891 98.24365234 C45.1536873 82.03185779 35.42683052 65.62713881 26 49 C25.52868652 48.17064941 25.05737305 47.34129883 24.57177734 46.48681641 C15.92597043 31.2350072 7.83975122 15.67950244 0 0 Z " fill="#515151" transform="translate(35,0)"/>
<path d="M0 0 C0.66 0 1.32 0 2 0 C1.4259492 7.16608268 0.59194382 14.2301675 -0.56640625 21.32421875 C-0.72104843 22.28947983 -0.87569061 23.25474091 -1.03501892 24.24925232 C-1.5403554 27.3959645 -2.05125998 30.54174202 -2.5625 33.6875 C-2.9168469 35.8845738 -3.27101076 38.08167714 -3.625 40.27880859 C-7.32668141 63.20073491 -11.15298729 86.10208925 -15 109 C-27.87 109 -40.74 109 -54 109 C-52.21839167 103.65517502 -50.59944246 98.81671212 -48.3203125 93.76171875 C-47.81056885 92.62645752 -47.3008252 91.49119629 -46.77563477 90.3215332 C-45.95857056 88.52268677 -45.95857056 88.52268677 -45.125 86.6875 C-44.5453879 85.40654103 -43.96588151 84.12553422 -43.38647461 82.84448242 C-42.18835413 80.19909801 -40.9864056 77.55549508 -39.78173828 74.91308594 C-38.63161938 72.3900384 -37.48643344 69.86488059 -36.34716797 67.33691406 C-26.97952506 46.5789716 -17.04135361 26.08615922 -4.75 6.875 C-4.29608887 6.16384033 -3.84217773 5.45268066 -3.37451172 4.7199707 C-2.30853123 3.10618897 -1.1625044 1.54570029 0 0 Z " fill="#717171" transform="translate(313,391)"/>
<path d="M0 0 C0.95864669 3.05082255 0.99937079 5.03315642 0.2421875 8.12890625 C0.03553467 8.97686768 -0.17111816 9.8248291 -0.3840332 10.69848633 C-0.62855225 11.64361084 -0.87307129 12.58873535 -1.125 13.5625 C-1.38434326 14.58045654 -1.64368652 15.59841309 -1.91088867 16.6472168 C-6.00900405 32.3032543 -10.80306277 47.77375044 -15.59880066 63.22732544 C-17.08461978 68.01611996 -18.54534137 72.81046345 -19.96418762 77.61952209 C-20.88944244 80.732957 -21.85347251 83.83433173 -22.8125 86.9375 C-23.12421143 88.02522705 -23.43592285 89.1129541 -23.75708008 90.23364258 C-25.32977739 95.16918791 -26.40461865 98.22670412 -31.13671875 100.69140625 C-33.26826175 101.54034447 -34.70626637 102 -37 102 C-37 102.66 -37 103.32 -37 104 C-39.97 104.99 -42.94 105.98 -46 107 C-46 107.66 -46 108.32 -46 109 C-48.475 109.495 -48.475 109.495 -51 110 C-49.77715788 104.07676061 -48.27156722 98.34543291 -46.3828125 92.6015625 C-46.00345047 91.43074883 -46.00345047 91.43074883 -45.61642456 90.23628235 C-43.32584616 83.18494763 -40.99324036 76.14712507 -38.65997314 69.1098175 C-36.94541188 63.92448081 -35.28148467 58.72728387 -33.67082214 53.5087738 C-24.1911046 22.86846711 -24.1911046 22.86846711 -11 11 C-9.62242908 9.43698684 -8.26374347 7.85679497 -6.9375 6.25 C-4.83511989 3.77398735 -2.64592689 1.8891349 0 0 Z " fill="#111111" transform="translate(133,330)"/>
<path d="M0 0 C1.98 0 3.96 0 6 0 C11.11222441 8.89475409 15.99701529 17.87542613 20.6875 27 C26.49141413 38.24024392 32.78328531 49.15393369 39.23876953 60.03027344 C40.99861002 62.99765627 42.74866312 65.97060751 44.49609375 68.9453125 C47.647783 74.30661488 50.81883471 79.65614527 54 85 C54.66902344 86.12792969 55.33804688 87.25585938 56.02734375 88.41796875 C60.61747859 96.02132121 65.52991855 103.41154947 70.4375 110.8125 C71.16106689 111.90675293 71.88463379 113.00100586 72.63012695 114.12841797 C73.307771 115.14436035 73.98541504 116.16030273 74.68359375 117.20703125 C75.29775146 118.1297583 75.91190918 119.05248535 76.54467773 120.00317383 C77.02493408 120.66212646 77.50519043 121.3210791 78 122 C78.33 122 78.66 122 79 122 C78.38221953 119.39392608 77.75612789 116.79034303 77.125 114.1875 C76.86396484 113.08051758 76.86396484 113.08051758 76.59765625 111.95117188 C75.75507489 108.50282963 74.98714425 105.98071638 73 103 C72.69799805 100.76000977 72.69799805 100.76000977 72.57421875 98.12890625 C72.06703978 91.50313745 70.50334825 85.34920339 68.8125 78.9375 C68.09468361 76.15376231 67.38504748 73.36795821 66.67578125 70.58203125 C66.47699371 69.80361877 66.27820618 69.0252063 66.07339478 68.22320557 C63.10445459 56.54892526 60.2929396 44.83540469 57.46640015 33.12600708 C56.66220271 29.79475314 55.85504862 26.46422328 55.04717731 23.13385868 C54.28980816 20.00900742 53.53570451 16.88336852 52.78125 13.7578125 C52.50037033 12.60089401 52.21949066 11.44397552 51.93009949 10.2519989 C51.67537369 9.19318008 51.42064789 8.13436127 51.15820312 7.04345703 C50.93362427 6.11405304 50.70904541 5.18464905 50.47766113 4.2270813 C50 2 50 2 50 0 C51.98 0 53.96 0 56 0 C58.01266389 4.53063245 59.09345094 9.16152576 60.21484375 13.96875 C60.53239876 15.30768814 60.53239876 15.30768814 60.85636902 16.67367554 C61.55345171 19.61499709 62.24545492 22.5574895 62.9375 25.5 C63.92098795 29.65937431 64.90738867 33.81805418 65.89453125 37.9765625 C66.27415009 39.57747238 66.27415009 39.57747238 66.66143799 41.21072388 C68.45111083 48.7405069 70.2814273 56.25957088 72.13671875 63.7734375 C72.38902756 64.79677185 72.64133636 65.8201062 72.90129089 66.87445068 C73.88114059 70.84625102 74.86155132 74.81788214 75.85079956 78.78735352 C76.53203596 81.52134896 77.20783474 84.25664134 77.8828125 86.9921875 C78.08335739 87.78926117 78.28390228 88.58633484 78.49052429 89.40756226 C79.68401162 94.267445 80.43186845 99.02842645 81 104 C81.63139949 106.41650128 81.63139949 106.41650128 82.4375 108.5 C86.82050433 120.98296822 86.82050433 120.98296822 86 127 C84.3125 129.4375 84.3125 129.4375 82 131 C77.90253181 130.68888368 76.04485844 129.55798764 73.375 126.5 C67.50862116 119.51050402 62.80940897 111.7316539 58 104 C57.1018457 102.56527344 57.1018457 102.56527344 56.18554688 101.1015625 C46.08235675 84.94468063 36.39811568 68.57649129 27 52 C26.52868652 51.17064941 26.05737305 50.34129883 25.57177734 49.48681641 C19.88708195 39.4586154 14.488107 29.29289121 9.1965332 19.05200195 C6.53091517 13.89720376 3.80021379 8.80321943 0.89379883 3.77954102 C0 2 0 2 0 0 Z " fill="#1C1C1C" transform="translate(29,0)"/>
<path d="M0 0 C5.04683531 4.2292415 9.79016664 8.64269815 14.4375 13.3046875 C15.46315063 14.32890305 15.46315063 14.32890305 16.50952148 15.37380981 C17.94605274 16.8096647 19.38133852 18.24676662 20.81542969 19.68505859 C22.99042669 21.86540315 25.17069918 24.04036871 27.3515625 26.21484375 C28.75552897 27.61947126 30.15918508 29.02440906 31.5625 30.4296875 C32.20437256 31.06953583 32.84624512 31.70938416 33.50756836 32.36862183 C37.29993256 36.18034366 40.91047545 40.1016825 44.41665649 44.17854309 C46.98612551 47.13442542 49.6880131 49.96389911 52.375 52.8125 C57.04432104 57.8027618 61.49434923 62.89918654 65.765625 68.23828125 C67.79423559 70.74567231 69.87440252 73.1919067 71.98193359 75.63232422 C76.53271497 80.91684532 80.85744053 86.32625273 85 91.9375 C85.45681152 92.55206055 85.91362305 93.16662109 86.38427734 93.79980469 C93 102.88681827 93 102.88681827 93 107 C84.39343432 106.46208965 78.77273832 102.24079818 73 96 C72.071875 95.13375 71.14375 94.2675 70.1875 93.375 C68 91 68 91 68 88 C67.41734375 87.74089844 66.8346875 87.48179687 66.234375 87.21484375 C63.83656162 85.91113752 62.18243206 84.48254467 60.25 82.5625 C59.32960938 81.66724609 59.32960938 81.66724609 58.390625 80.75390625 C57 79 57 79 57 76 C56.41734375 75.74089844 55.8346875 75.48179687 55.234375 75.21484375 C52.83656162 73.91113752 51.18243206 72.48254467 49.25 70.5625 C48.32960938 69.66724609 48.32960938 69.66724609 47.390625 68.75390625 C46 67 46 67 46 64 C45.42765625 63.75121094 44.8553125 63.50242188 44.265625 63.24609375 C41.66499322 61.81574627 39.85253401 60.15335326 37.75 58.0625 C37.04359375 57.37285156 36.3371875 56.68320313 35.609375 55.97265625 C34 54 34 54 34 51 C33.46375 50.79375 32.9275 50.5875 32.375 50.375 C29.09177059 48.47418297 26.30808253 46.02358811 24 43 C24 42.01 24 41.02 24 40 C23.443125 39.773125 22.88625 39.54625 22.3125 39.3125 C19.31958801 37.61382022 17.26472763 35.57927313 15 33 C15 32.01 15 31.02 15 30 C14.34 30 13.68 30 13 30 C10.32611961 27.60036375 8.25638577 25.45935783 6.5 22.3125 C4.93811335 19.41762513 4.93811335 19.41762513 0 18 C0 12.06 0 6.12 0 0 Z " fill="#121212" transform="translate(0,120)"/>
<path d="M0 0 C10.89 0 21.78 0 33 0 C33 10.11111111 33 10.11111111 32.44921875 14.29296875 C32.3291748 15.23906006 32.20913086 16.18515137 32.08544922 17.15991211 C31.95412598 18.15901611 31.82280273 19.15812012 31.6875 20.1875 C30.75817843 27.52869304 29.8880485 34.86983274 29.16796875 42.234375 C29.06753517 43.26145317 29.06753517 43.26145317 28.96507263 44.3092804 C28.63765263 47.68044102 28.31748793 51.05220023 28.00268555 54.42456055 C27.82733276 56.25434448 27.82733276 56.25434448 27.6484375 58.12109375 C27.54708496 59.2083374 27.44573242 60.29558105 27.34130859 61.41577148 C27 64 27 64 26 66 C25.7908629 68.75363842 25.62513156 71.49247124 25.5 74.25 C25.26872007 79.2439332 24.94093016 84.07579884 24 89 C22.6338261 86.40900613 21.59990477 83.95000029 20.83007812 81.12573242 C20.62191467 80.36964188 20.41375122 79.61355133 20.19927979 78.83454895 C19.97882996 78.01645248 19.75838013 77.19835602 19.53125 76.35546875 C19.29452576 75.48923386 19.05780151 74.62299896 18.81390381 73.73051453 C18.03787014 70.88410573 17.26858139 68.03592937 16.5 65.1875 C15.9658312 63.21825877 15.43165139 61.24902052 14.89746094 59.27978516 C11.26009071 45.83437428 7.71621923 32.36550093 4.25 18.875 C4.03190674 18.02835785 3.81381348 17.1817157 3.58911133 16.30941772 C2.97821866 13.93361106 2.37106922 11.55688776 1.765625 9.1796875 C1.58497498 8.4765593 1.40432495 7.77343109 1.21820068 7.04899597 C0 2.23214803 0 2.23214803 0 0 Z " fill="#515151" transform="translate(263,0)"/>
<path d="M0 0 C3.4375 0.8125 3.4375 0.8125 5.4375 3.8125 C5.703125 5.7578125 5.703125 5.7578125 5.6875 7.9375 C5.69523437 8.99324219 5.69523437 8.99324219 5.703125 10.0703125 C5.47400402 12.43564969 5.07073546 14.54544476 4.53125 16.8515625 C3.21511305 22.54040667 2.46871604 28.27991633 1.6875 34.0625 C-2.0747663 61.08257754 -6.64084397 87.98121681 -11.5625 114.8125 C-13.5425 114.8125 -15.5225 114.8125 -17.5625 114.8125 C-16.97370246 107.34802107 -16.06001532 99.99808335 -14.85546875 92.609375 C-14.68880203 91.56968567 -14.52213531 90.52999634 -14.35041809 89.45880127 C-13.9983032 87.26684842 -13.64441055 85.07518048 -13.28881836 82.88378906 C-12.75823429 79.61325634 -12.23309802 76.34188767 -11.70898438 73.0703125 C-9.8596055 61.56876356 -7.94481339 50.08076085 -5.92008972 38.60870361 C-4.57957585 31.00188672 -3.35890989 23.37879085 -2.17578125 15.74609375 C-1.65892134 12.43094769 -1.12170905 9.12071803 -0.5625 5.8125 C-1.2225 5.8125 -1.8825 5.8125 -2.5625 5.8125 C-2.80742187 6.50472656 -3.05234375 7.19695312 -3.3046875 7.91015625 C-4.47532189 10.61134058 -5.86389185 12.95771798 -7.47924805 15.41186523 C-22.41278015 38.13050804 -33.76941695 63.03417294 -44.69812012 87.85083008 C-45.55727017 89.80063115 -46.41925821 91.74915182 -47.28222656 93.69726562 C-50.39562622 100.72697797 -53.49153369 107.7641417 -56.5625 114.8125 C-58.5425 114.8125 -60.5225 114.8125 -62.5625 114.8125 C-61.90509008 110.55314662 -60.42309585 106.84820352 -58.67578125 102.94140625 C-58.38248932 102.27547958 -58.08919739 101.60955292 -57.78701782 100.92344666 C-56.82211327 98.73802315 -55.84918122 96.5563027 -54.875 94.375 C-54.54025665 93.6221875 -54.20551331 92.869375 -53.86062622 92.09375 C-51.44400657 86.6593858 -49.00819845 81.23383264 -46.5625 75.8125 C-46.25042603 75.11985046 -45.93835205 74.42720093 -45.61682129 73.71356201 C-12.08065584 -0.63582399 -12.08065584 -0.63582399 0 0 Z " fill="#1C1C1C" transform="translate(315.5625,385.1875)"/>
<path d="M0 0 C0.38087316 9.8952964 -0.74290898 19.23514721 -2.5 28.9375 C-2.76474257 30.44275885 -3.02930554 31.94804931 -3.29370117 33.45336914 C-6.65923572 52.36653698 -10.33983304 71.35933216 -15 90 C-20.61 90 -26.22 90 -32 90 C-30.38900821 77.13037242 -27.70258807 64.55179113 -25 51.875 C-24.31880317 48.66911136 -23.63900725 45.46294354 -22.9621582 42.25613403 C-22.54410714 40.27645959 -22.12357117 38.2973074 -21.69995117 36.31881714 C-20.45388836 30.4302888 -19.43227554 24.55017586 -18.59309387 18.58901978 C-17.67351595 14.57480629 -15.63397191 12.25473602 -12.6875 9.5 C-12.21376953 9.0153125 -11.74003906 8.530625 -11.25195312 8.03125 C-3.27526325 0 -3.27526325 0 0 0 Z " fill="#111111" transform="translate(183,410)"/>
<path d="M0 0 C3.10412761 1.35428461 4.91475724 2.77134253 7.0625 5.375 C10.12490577 8.99720037 13.28155711 12.51654102 16.5 16 C19.51984268 19.27800525 22.52203632 22.56582685 25.4375 25.9375 C29.97440307 31.16574069 34.70875788 36.21486383 39.41503906 41.29003906 C41.96783428 44.04416378 44.51534921 46.80315571 47.0625 49.5625 C47.5589502 50.1002002 48.05540039 50.63790039 48.56689453 51.19189453 C52.35997078 55.30198923 56.14550689 59.41894096 59.91943359 63.54663086 C62.22017502 66.06267787 64.52820531 68.57121248 66.8515625 71.06640625 C72.51571938 77.1658946 77.90943861 83.40706662 83 90 C81.25 93.875 81.25 93.875 79 95 C73.56096985 95.21240234 68.68319282 94.74722766 63.31640625 93.72265625 C62.26669899 93.52644936 62.26669899 93.52644936 61.19578552 93.32627869 C58.9833458 92.91179791 56.77287841 92.48782416 54.5625 92.0625 C51.64794515 91.50736193 48.73259464 90.95664746 45.81640625 90.41015625 C45.12592194 90.28049469 44.43543762 90.15083313 43.72402954 90.01724243 C38.82364831 89.11269244 33.96180098 88.44191914 29 88 C34.45860393 95.93229151 40.4923944 103.1454332 46.8359375 110.37109375 C50.21935673 114.22996077 53.45828018 118.19595172 56.68359375 122.1875 C58.92790758 124.91246788 61.2259066 127.57994458 63.54394531 130.24194336 C67.58710889 134.89757505 71.60085825 139.57336973 75.3125 144.5 C75.86550781 145.2321875 76.41851562 145.964375 76.98828125 146.71875 C78.34788266 149.78441495 77.78508058 151.80458432 77 155 C72.80027112 156.22347279 70.78369273 155.81922897 66.9296875 153.82421875 C65.96023193 153.33083008 64.99077637 152.83744141 63.99194336 152.32910156 C62.96335205 151.78737305 61.93476074 151.24564453 60.875 150.6875 C59.80838135 150.13932617 58.7417627 149.59115234 57.64282227 149.02636719 C54.42075047 147.36544099 51.20946536 145.68513314 48 144 C46.24106116 143.08429776 44.48196026 142.1689067 42.72265625 141.25390625 C38.85355493 139.23421597 34.99633054 137.19309354 31.14453125 135.140625 C29.04739874 134.02521026 26.9462268 132.91780209 24.84375 131.8125 C18.47198941 128.45358467 12.18043038 125.01657008 6.05078125 121.2265625 C4.07495438 120.04482986 2.07227501 119.00105384 0 118 C0 116.68 0 115.36 0 114 C4.27559302 115.52987321 7.97912605 117.73419051 11.8125 120.125 C17.74193289 123.75465161 23.77427587 126.99490807 30.0168457 130.04931641 C34.5642268 132.274783 39.04557368 134.59410514 43.5 137 C51.24730746 141.17503522 59.11361446 145.09576303 67 149 C69.00045086 149.99909778 71.00061652 150.9987679 73 152 C72.46678815 147.80836243 71.20724237 145.58716456 68.5 142.375 C67.77167969 141.49972656 67.04335937 140.62445313 66.29296875 139.72265625 C65.53628906 138.82417969 64.77960938 137.92570313 64 137 C62.60313066 135.27167014 61.20731748 133.5424862 59.8125 131.8125 C56.12038005 127.3041601 52.32720551 122.89327848 48.5 118.5 C39.00592902 107.59722817 30.01294524 96.3004948 21 85 C22.25737 83.48310852 22.25737 83.48310852 24 82 C27.04760794 82.21216917 29.78767994 82.58996577 32.76953125 83.16796875 C33.64212082 83.32284256 34.51471039 83.47771637 35.41374207 83.63728333 C38.21648561 84.13806472 41.01428888 84.66203807 43.8125 85.1875 C46.56482569 85.68873615 49.31798847 86.18516389 52.07125854 86.68118286 C53.86095793 87.00405623 55.65029114 87.32896635 57.4392395 87.65597534 C64.60365903 88.95814777 71.77898702 90.05449077 79 91 C78.01 89.824375 78.01 89.824375 77 88.625 C75 86 75 86 75 84 C73.515 83.505 73.515 83.505 72 83 C70.5625 81.57421875 70.5625 81.57421875 69 79.6875 C65.98889927 76.13870271 62.90345954 72.67234629 59.75 69.25 C59.04713867 68.48562622 59.04713867 68.48562622 58.33007812 67.70581055 C57.36682807 66.65842315 56.40328415 65.61130593 55.43945312 64.56445312 C53.12257673 62.04638258 50.81152713 59.52298003 48.5 57 C47.58205334 55.99867766 46.66408457 54.9973756 45.74609375 53.99609375 C43.92516169 52.00968118 42.10490144 50.02265613 40.28515625 48.03515625 C39.37764888 47.04422989 38.4700967 46.05334455 37.5625 45.0625 C37.11277832 44.57152832 36.66305664 44.08055664 36.19970703 43.57470703 C33.27887323 40.38843714 30.34861706 37.21106177 27.41308594 34.03833008 C25.41337612 31.87578674 23.41736786 29.7098527 21.42236328 27.54296875 C20.48729037 26.52860885 19.55080637 25.5155476 18.61279297 24.50390625 C17.34151977 23.13176787 16.07682911 21.75353951 14.8125 20.375 C14.09707031 19.59898437 13.38164062 18.82296875 12.64453125 18.0234375 C11 16 11 16 10 13 C9.01 12.67 8.02 12.34 7 12 C5.17578125 10.29296875 5.17578125 10.29296875 3.3125 8.1875 C2.68988281 7.50042969 2.06726563 6.81335938 1.42578125 6.10546875 C-0 4 -0 4 0 0 Z " fill="#1C1C1C" transform="translate(0,140)"/>
<path d="M0 0 C5.28 0 10.56 0 16 0 C13.550501 18.84230002 10.70026941 37.54668668 7 56.1875 C6.83886719 57.01386963 6.67773438 57.84023926 6.51171875 58.69165039 C4.35054197 69.71606794 1.57631389 80.34892378 -2 91 C-2.66 91 -3.32 91 -4 91 C-4.72277407 89.30628908 -5.40069459 87.59345065 -6.0625 85.875 C-6.63677734 84.44800781 -6.63677734 84.44800781 -7.22265625 82.9921875 C-8.76935916 77.11201549 -7.60273129 70.9602115 -7 65 C-6.82410966 63.17858225 -6.6485984 61.35712788 -6.47338867 59.53564453 C-5.96513562 54.31789396 -5.4352934 49.1025483 -4.89819336 43.88769531 C-4.563937 40.63896661 -4.23388021 37.38983074 -3.90429688 34.140625 C-2.74071749 22.73969995 -1.47727132 11.36468266 0 0 Z " fill="#111111" transform="translate(302,0)"/>
<path d="M0 0 C2.8208967 4.23134505 1.94724692 7.15650848 1 12 C0.1294743 15.15946129 -0.96355649 18.21072758 -2.10546875 21.28125 C-2.42109268 22.15559692 -2.73671661 23.02994385 -3.06190491 23.93078613 C-3.74130976 25.81035547 -4.4250277 27.68837041 -5.1126709 29.56494141 C-6.95965238 34.60853287 -8.77192595 39.66462701 -10.58984375 44.71875 C-10.96154694 45.74935547 -11.33325012 46.77996094 -11.71621704 47.84179688 C-15.32507983 57.86139727 -18.81502626 67.91961078 -22.25 78 C-22.53259674 78.82845428 -22.81519348 79.65690857 -23.10635376 80.51046753 C-29.27085911 98.60825391 -35.16880307 116.7924842 -41 135 C-39.35 134.67 -37.7 134.34 -36 134 C-36 133.34 -36 132.68 -36 132 C-30.375 129 -30.375 129 -27 129 C-27 128.34 -27 127.68 -27 127 C-26.28158936 126.6282666 -25.56317871 126.2565332 -24.82299805 125.87353516 C-21.44415108 124.1246942 -18.06571005 122.37507084 -14.6875 120.625 C-14.07353363 120.30698425 -13.45956726 119.98896851 -12.82699585 119.66131592 C-5.1398228 115.67860952 2.53447286 111.67302294 10.1875 107.625 C13.12267059 106.07886167 16.06033673 104.53757806 19 103 C19.74411133 102.61021973 20.48822266 102.22043945 21.25488281 101.81884766 C23.43590287 100.68201341 25.62294231 99.55778603 27.8125 98.4375 C28.45276123 98.10250488 29.09302246 97.76750977 29.75268555 97.42236328 C33.4762096 95.5369969 36.79264749 94.05281196 41 94 C43.375 95.515625 43.375 95.515625 45 98 C45.89721359 106.74783254 43.73786993 116.18646317 42.29296875 124.80859375 C42.12041061 125.83977829 41.94785248 126.87096283 41.77006531 127.93339539 C39.78311309 139.57821737 37.43833976 151.14822467 35.0534668 162.71704102 C34.29831409 166.38133555 33.55007006 170.04699455 32.80273438 173.71289062 C32.3233072 176.05476748 31.8435044 178.39656748 31.36328125 180.73828125 C31.14037918 181.82869217 30.91747711 182.91910309 30.68782043 184.04255676 C30.48057846 185.04598618 30.27333649 186.04941559 30.05981445 187.08325195 C29.78812187 188.40363213 29.78812187 188.40363213 29.51094055 189.75068665 C29 192 29 192 28 195 C27.34 195 26.68 195 26 195 C26.56594833 187.55228695 27.82503759 180.39316359 29.3984375 173.09765625 C29.75187729 171.42188759 29.75187729 171.42188759 30.11245728 169.71226501 C30.86163103 166.16126059 31.61750668 162.61173834 32.375 159.0625 C36.42176738 140.28594657 36.42176738 140.28594657 39.80859375 121.3828125 C39.9243576 120.6576796 40.04012146 119.93254669 40.15939331 119.18544006 C41.27203391 111.82585233 41.70267437 104.43314066 42 97 C37.01383439 97.5490191 33.0799455 99.21550972 28.69140625 101.51953125 C27.99793594 101.87513626 27.30446564 102.23074127 26.58998108 102.59712219 C25.12597759 103.34833161 23.66365508 104.1028251 22.20294189 104.8604126 C20.07163162 105.96294478 17.93382519 107.05138248 15.79248047 108.13427734 C11.50051639 110.3051502 7.21727703 112.49270766 2.9375 114.6875 C2.18418396 115.07374542 1.43086792 115.45999084 0.65472412 115.85794067 C-20.53530168 126.72205632 -20.53530168 126.72205632 -40.9765625 138.91015625 C-41.64429687 139.26980469 -42.31203125 139.62945312 -43 140 C-43.66 139.67 -44.32 139.34 -45 139 C-39.4800656 119.39568375 -33.05093859 100.17801467 -26.38682556 80.93899536 C-23.8525543 73.60760162 -21.42168103 66.24435705 -19 58.875 C-16.29557688 50.64819909 -13.47406406 42.48119695 -10.4921875 34.3515625 C-10.19217834 33.53170868 -9.89216919 32.71185486 -9.58306885 31.86715698 C-8.10721348 27.83945683 -6.61958144 23.81670585 -5.11328125 19.80029297 C-4.57263464 18.33571606 -4.03225681 16.87103989 -3.4921875 15.40625 C-3.23960175 14.74509186 -2.98701599 14.08393372 -2.72677612 13.40274048 C-1.28677606 9.46421746 -0.74299916 6.18613281 -1 2 C-8.46280709 2.22484785 -14.09510402 6.04316341 -20.4375 9.6875 C-21.64195455 10.369223 -22.8468778 11.05011853 -24.05224609 11.73022461 C-32.77781761 16.66829651 -41.43778192 21.72144132 -50.08227539 26.79980469 C-58.15248246 31.53439706 -66.30272713 36.11442696 -74.47802734 40.66455078 C-83.33532716 45.60342658 -92.12181265 50.65870165 -100.88427734 55.76342773 C-108.17763782 59.99864148 -115.55395053 64.04117868 -123 68 C-122.63942282 65.49577165 -122.40908416 64.32232372 -120.38378906 62.7265625 C-119.68479492 62.36304688 -118.98580078 61.99953125 -118.265625 61.625 C-117.47542969 61.20387939 -116.68523437 60.78275879 -115.87109375 60.34887695 C-115.00613281 59.90374756 -114.14117187 59.45861816 -113.25 59 C-111.40013784 58.01602021 -109.55120645 57.03028896 -107.703125 56.04296875 C-106.75115234 55.53813965 -105.79917969 55.03331055 -104.81835938 54.51318359 C-100.4986822 52.19393904 -96.24867163 49.75874247 -92 47.3125 C-90.24091542 46.30333311 -88.48179981 45.29422032 -86.72265625 44.28515625 C-85.80500488 43.75809082 -84.88735352 43.23102539 -83.94189453 42.68798828 C-78.44500045 39.53400275 -72.9406407 36.39306895 -67.4375 33.25 C-65.05331112 31.88815085 -62.66919883 30.52616774 -60.28515625 29.1640625 C-59.68775635 28.82274796 -59.09035645 28.48143341 -58.47485352 28.129776 C-53.57811718 25.33155289 -48.68399914 22.5287723 -43.79074097 19.72447205 C-40.81114858 18.01753107 -37.8299223 16.31358029 -34.84472656 14.61645508 C-29.70349087 11.6931007 -24.57342993 8.75831897 -19.48828125 5.73828125 C-18.66602051 5.25858887 -17.84375977 4.77889648 -16.99658203 4.28466797 C-15.51864241 3.4224063 -14.04862598 2.54632533 -12.58935547 1.65283203 C-8.0336938 -0.97302447 -5.06502476 -1.50377754 0 0 Z " fill="#D1D1D1" transform="translate(123,305)"/>
<path d="M0 0 C0.99 0 1.98 0 3 0 C3.35602295 0.69746338 3.7120459 1.39492676 4.07885742 2.11352539 C11.86556686 17.33453123 19.88645307 32.36321725 28.39990234 47.19384766 C30.01073017 50.01881791 31.59674494 52.85637054 33.17578125 55.69921875 C40.48479334 68.83151686 48.24875857 81.61532298 56.29882812 94.30566406 C57.84498925 96.75449215 59.37316143 99.2130066 60.890625 101.6796875 C68.69201112 115.38173844 68.69201112 115.38173844 79 127 C79.99 127 80.98 127 82 127 C83.41443492 122.51370577 82.08611306 119.0456429 80.75 114.6875 C79.1496279 109.21257149 77.67096261 103.80127399 76.625 98.1875 C75.27883278 91.03118878 73.58712335 83.97622856 71.86328125 76.90234375 C71.55623764 75.63625275 71.24919403 74.37016174 70.93284607 73.06570435 C70.12007801 69.71438512 69.30528697 66.36356149 68.48982239 63.01289749 C67.69793548 59.7586829 66.90711821 56.50420869 66.11621094 53.24975586 C65.80814514 51.98223984 65.50007935 50.71472382 65.18267822 49.40879822 C63.95081413 44.3383988 62.72040492 39.2676471 61.49047852 34.19677734 C60.86045294 31.60208638 60.229479 29.00764755 59.59692383 26.41357422 C58.66633892 22.59693433 57.74122401 18.77897912 56.81640625 14.9609375 C56.53213272 13.79871674 56.24785919 12.63649597 55.95497131 11.4390564 C55.69727463 10.37168243 55.43957794 9.30430847 55.17407227 8.20458984 C54.9464772 7.26835785 54.71888214 6.33212585 54.48439026 5.36752319 C54 3 54 3 54 0 C54.99 0.33 55.98 0.66 57 1 C57.74230957 2.71563721 57.74230957 2.71563721 58.26757812 4.98925781 C58.57493645 6.27523361 58.57493645 6.27523361 58.88850403 7.58718872 C59.1006102 8.53294769 59.31271637 9.47870667 59.53125 10.453125 C59.76377975 11.44037567 59.99630951 12.42762634 60.23588562 13.4447937 C61.00252342 16.71053465 61.75115592 19.98013731 62.5 23.25 C63.02633214 25.50667897 63.55409711 27.76302421 64.08325195 30.01904297 C64.90063807 33.503945 65.71720811 36.98900934 66.52912903 40.47518921 C68.36508827 48.34876763 70.25806997 56.20640719 72.19921875 64.0546875 C72.45297272 65.08182861 72.70672668 66.10896973 72.96817017 67.16723633 C73.94510656 71.11718424 74.92357038 75.06673342 75.90820312 79.01477051 C76.582145 81.71980704 77.25052101 84.42616753 77.91796875 87.1328125 C78.11533127 87.91719696 78.31269379 88.70158142 78.51603699 89.50973511 C79.70060372 94.33452325 80.43435805 99.06452296 81 104 C81.63139949 106.41650128 81.63139949 106.41650128 82.4375 108.5 C86.82050433 120.98296822 86.82050433 120.98296822 86 127 C84.3125 129.4375 84.3125 129.4375 82 131 C77.90253181 130.68888368 76.04485844 129.55798764 73.375 126.5 C67.50862116 119.51050402 62.80940897 111.7316539 58 104 C57.1018457 102.56527344 57.1018457 102.56527344 56.18554688 101.1015625 C46.08235675 84.94468063 36.39811568 68.57649129 27 52 C26.52868652 51.17064941 26.05737305 50.34129883 25.57177734 49.48681641 C19.88708195 39.4586154 14.488107 29.29289121 9.1965332 19.05200195 C6.53091517 13.89720376 3.80021379 8.80321943 0.89379883 3.77954102 C0 2 0 2 0 0 Z " fill="#424242" transform="translate(29,0)"/>
<path d="M0 0 C5.56294814 -0.39054944 10.51685449 0.08394384 14.99267578 3.53759766 C19.3696696 7.64680744 23.26703871 12.18498744 27.12792969 16.77539062 C28.79784569 18.75977698 30.49915683 20.70636386 32.2265625 22.640625 C37.77149402 28.89386055 42.99071739 35.40720318 48.125 42 C48.6821167 42.70640625 49.2392334 43.4128125 49.81323242 44.140625 C52.74860485 47.96861729 54.79526095 51.2405371 56 56 C49.85987454 56.36840753 45.94967697 55.35974158 41.125 51.5 C40 50 40 50 40 47 C39.360625 46.7525 38.72125 46.505 38.0625 46.25 C35.455699 44.67012061 35.70804922 43.83219689 35 41 C33.0162233 39.71563266 33.0162233 39.71563266 31 39 C31 38.01 31 37.02 31 36 C30.38125 35.71125 29.7625 35.4225 29.125 35.125 C27 34 27 34 25 32 C25 31.01 25 30.02 25 29 C24.38125 28.71125 23.7625 28.4225 23.125 28.125 C21 27 21 27 19 25 C19 24.01 19 23.02 19 22 C18.360625 21.7525 17.72125 21.505 17.0625 21.25 C14.455699 19.67012061 14.70804922 18.83219689 14 16 C12.08333333 14.83333333 12.08333333 14.83333333 10 14 C9.34 13.34 8.68 12.68 8 12 C8 11.01 8 10.02 8 9 C7.360625 8.7525 6.72125 8.505 6.0625 8.25 C4 7 4 7 3.4375 4.9375 C3.293125 4.298125 3.14875 3.65875 3 3 C2.01 2.67 1.02 2.34 0 2 C0 1.34 0 0.68 0 0 Z " fill="#121212" transform="translate(33,230)"/>
<path d="M0 0 C3.4375 0.8125 3.4375 0.8125 5.4375 3.8125 C5.703125 5.7578125 5.703125 5.7578125 5.6875 7.9375 C5.69523437 8.99324219 5.69523437 8.99324219 5.703125 10.0703125 C5.47400402 12.43564969 5.07073546 14.54544476 4.53125 16.8515625 C3.21511305 22.54040667 2.46871604 28.27991633 1.6875 34.0625 C-2.0747663 61.08257754 -6.64084397 87.98121681 -11.5625 114.8125 C-12.5525 114.8125 -13.5425 114.8125 -14.5625 114.8125 C-13.7297117 109.66657831 -12.89626817 104.520763 -12.0625 99.375 C-11.93266724 98.57360596 -11.80283447 97.77221191 -11.66906738 96.9465332 C-9.93798256 86.26389693 -8.19963835 75.58246884 -6.453125 64.90234375 C-6.27539551 63.81522598 -6.09766602 62.72810822 -5.91455078 61.60804749 C-5.03695152 56.24059838 -4.15863524 50.87326798 -3.27929688 45.50610352 C1.04472784 25.7245367 1.04472784 25.7245367 2.4375 5.8125 C1.0402874 4.03364752 1.0402874 4.03364752 -0.5625 2.8125 C-5.18406199 4.8166804 -7.11056911 8.14571729 -9.6875 12.3125 C-10.19756592 13.13218262 -10.70763184 13.95186523 -11.2331543 14.79638672 C-30.48884595 46.40345148 -45.91590569 80.46302359 -59.5625 114.8125 C-60.5525 114.8125 -61.5425 114.8125 -62.5625 114.8125 C-61.90509008 110.55314662 -60.42309585 106.84820352 -58.67578125 102.94140625 C-58.38248932 102.27547958 -58.08919739 101.60955292 -57.78701782 100.92344666 C-56.82211327 98.73802315 -55.84918122 96.5563027 -54.875 94.375 C-54.54025665 93.6221875 -54.20551331 92.869375 -53.86062622 92.09375 C-51.44400657 86.6593858 -49.00819845 81.23383264 -46.5625 75.8125 C-46.25042603 75.11985046 -45.93835205 74.42720093 -45.61682129 73.71356201 C-12.08065584 -0.63582399 -12.08065584 -0.63582399 0 0 Z " fill="#505050" transform="translate(315.5625,385.1875)"/>
<path d="M0 0 C0.99 0.33 1.98 0.66 3 1 C3.78700256 2.76947021 3.78700256 2.76947021 4.37524414 5.11621094 C4.60335785 5.99900223 4.83147156 6.88179352 5.0664978 7.79133606 C5.30365509 8.76253891 5.54081238 9.73374176 5.78515625 10.734375 C6.04261627 11.74372604 6.30007629 12.75307709 6.56533813 13.79301453 C7.11989595 15.97289042 7.66863913 18.15425193 8.21224976 20.33688354 C9.0627761 23.75110832 9.92802098 27.16126501 10.7980957 30.57055664 C11.67912109 34.02298265 12.5593896 37.47557473 13.43516541 40.92933655 C15.90154587 50.65488248 18.43706123 60.36034606 21.04562378 70.04870605 C21.67811568 72.40257551 22.30314762 74.7583452 22.92797852 77.11425781 C23.30954694 78.5333408 23.69159649 79.95229454 24.07421875 81.37109375 C24.39994873 82.58724365 24.72567871 83.80339355 25.0612793 85.05639648 C25.89693788 88.14405916 25.89693788 88.14405916 28 91 C29.98 90.505 29.98 90.505 32 90 C34.03848984 82.93210789 34.73792599 75.92505691 35.40234375 68.61328125 C35.59080852 66.6360761 35.77927925 64.65887149 35.96806431 62.68169689 C36.29630553 59.22577278 36.61642916 55.76909627 36.9375 52.3125 C38.56639606 34.81314674 40.2719677 17.36980778 43 0 C43.66 0 44.32 0 45 0 C45.12787389 6.62252143 44.64621115 12.93567882 43.8125 19.5 C42.68113652 28.76352249 41.67902858 38.03355337 40.7578125 47.3203125 C40.64940536 48.40830139 40.54099823 49.49629028 40.42930603 50.61724854 C39.98765544 55.05635928 39.5468075 59.49550654 39.11709595 63.93579102 C38.81107693 67.09574484 38.49785572 70.25491934 38.18359375 73.4140625 C38.04928452 74.83623581 38.04928452 74.83623581 37.91226196 76.28713989 C36.50204414 90.29077736 36.50204414 90.29077736 33.1875 94.0625 C30.28778416 95.30523536 28.93227258 95.12779715 26 94 C22.29514797 90.33185996 21.49327116 85.36205288 20.21484375 80.48046875 C19.95729309 79.52531372 19.69974243 78.57015869 19.43438721 77.58605957 C18.59303248 74.45555171 17.76492446 71.32171598 16.9375 68.1875 C16.36095106 66.02761228 15.78387961 63.86786397 15.20629883 61.70825195 C13.45500447 55.14298178 11.72428063 48.57241056 10 42 C9.73437256 40.9884082 9.46874512 39.97681641 9.19506836 38.93457031 C7.51290447 32.52221006 5.84454272 26.10639504 4.1875 19.6875 C3.97108856 18.85221771 3.75467712 18.01693542 3.53170776 17.15634155 C2.92713347 14.81751034 2.32778692 12.47741221 1.73046875 10.13671875 C1.46426727 9.1088324 1.46426727 9.1088324 1.19268799 8.06018066 C0.48929142 5.27997472 0 2.88268849 0 0 Z " fill="#424242" transform="translate(257,0)"/>
<path d="M0 0 C2.82537716 4.23806575 1.96384267 7.14814385 1 12 C0.04069438 15.42105662 -1.14566593 18.73553251 -2.37890625 22.06640625 C-2.87619484 23.44565529 -2.87619484 23.44565529 -3.38352966 24.85276794 C-4.43393033 27.75946773 -5.49794995 30.66095642 -6.5625 33.5625 C-7.28150851 35.54459217 -7.99961648 37.52701126 -8.71679688 39.50976562 C-10.46747672 44.34368539 -12.23037966 49.17298358 -14 54 C-16 51 -16 51 -15.71142578 49.08081055 C-15.4586084 48.35676025 -15.20579102 47.63270996 -14.9453125 46.88671875 C-14.66373291 46.06115479 -14.38215332 45.23559082 -14.09204102 44.38500977 C-13.77291748 43.49483154 -13.45379395 42.60465332 -13.125 41.6875 C-12.80781006 40.76702881 -12.49062012 39.84655762 -12.16381836 38.89819336 C-10.42279011 33.88432 -8.60033199 28.90267261 -6.74609375 23.9296875 C-6.19961182 22.45689331 -6.19961182 22.45689331 -5.64208984 20.9543457 C-4.93525714 19.06098673 -4.21849437 17.17129817 -3.49072266 15.28588867 C-1.76664819 10.69845155 -0.53148339 6.98929097 -1 2 C-8.46280709 2.22484785 -14.09510402 6.04316341 -20.4375 9.6875 C-21.64195455 10.369223 -22.8468778 11.05011853 -24.05224609 11.73022461 C-32.77781761 16.66829651 -41.43778192 21.72144132 -50.08227539 26.79980469 C-58.15248246 31.53439706 -66.30272713 36.11442696 -74.47802734 40.66455078 C-83.33532716 45.60342658 -92.12181265 50.65870165 -100.88427734 55.76342773 C-108.17763782 59.99864148 -115.55395053 64.04117868 -123 68 C-122.63942282 65.49577165 -122.40908416 64.32232372 -120.38378906 62.7265625 C-119.68479492 62.36304688 -118.98580078 61.99953125 -118.265625 61.625 C-117.47542969 61.20387939 -116.68523437 60.78275879 -115.87109375 60.34887695 C-115.00613281 59.90374756 -114.14117187 59.45861816 -113.25 59 C-111.40013784 58.01602021 -109.55120645 57.03028896 -107.703125 56.04296875 C-106.75115234 55.53813965 -105.79917969 55.03331055 -104.81835938 54.51318359 C-100.4986822 52.19393904 -96.24867163 49.75874247 -92 47.3125 C-90.24091542 46.30333311 -88.48179981 45.29422032 -86.72265625 44.28515625 C-85.80500488 43.75809082 -84.88735352 43.23102539 -83.94189453 42.68798828 C-78.44500045 39.53400275 -72.9406407 36.39306895 -67.4375 33.25 C-65.05331112 31.88815085 -62.66919883 30.52616774 -60.28515625 29.1640625 C-59.68775635 28.82274796 -59.09035645 28.48143341 -58.47485352 28.129776 C-53.57811718 25.33155289 -48.68399914 22.5287723 -43.79074097 19.72447205 C-40.81114858 18.01753107 -37.8299223 16.31358029 -34.84472656 14.61645508 C-29.70349087 11.6931007 -24.57342993 8.75831897 -19.48828125 5.73828125 C-18.66602051 5.25858887 -17.84375977 4.77889648 -16.99658203 4.28466797 C-15.51864241 3.4224063 -14.04862598 2.54632533 -12.58935547 1.65283203 C-8.0336938 -0.97302447 -5.06502476 -1.50377754 0 0 Z " fill="#D3D3D3" transform="translate(123,305)"/>
<path d="M0 0 C0.33 0 0.66 0 1 0 C0.45737531 5.56509385 -0.62879628 10.51957594 -2.51953125 15.79296875 C-2.77444336 16.52565475 -3.02935547 17.25834076 -3.29199219 18.01322937 C-3.8405981 19.58847873 -4.39258579 21.16255374 -4.94766235 22.73553467 C-6.43021024 26.9388161 -7.88646153 31.15118879 -9.34375 35.36328125 C-9.79497978 36.66519409 -9.79497978 36.66519409 -10.25532532 37.9934082 C-13.56650424 47.57982435 -16.70099606 57.22226213 -19.8125 66.875 C-20.07656647 67.6933432 -20.34063293 68.5116864 -20.61270142 69.35482788 C-22.07942788 73.90184651 -23.54185983 78.45022094 -25 83 C-22.525 82.505 -22.525 82.505 -20 82 C-20 81.34 -20 80.68 -20 80 C-14.375 77 -14.375 77 -11 77 C-11 76.34 -11 75.68 -11 75 C-5.375 72 -5.375 72 -2 72 C-2 72.66 -2 73.32 -2 74 C-5.55996182 75.96297379 -9.12339831 77.91955438 -12.6875 79.875 C-14.19860352 80.70837891 -14.19860352 80.70837891 -15.74023438 81.55859375 C-16.71669922 82.09355469 -17.69316406 82.62851562 -18.69921875 83.1796875 C-20.04246216 83.91807861 -20.04246216 83.91807861 -21.4128418 84.67138672 C-23.8975149 85.94736964 -26.39037217 87.00879384 -29 88 C-26.09705328 76.52848831 -22.62713965 65.30214535 -18.9375 54.0625 C-18.36684674 52.31567881 -17.79620894 50.56885256 -17.22558594 48.82202148 C-13.47760926 37.37596181 -9.6533389 25.95648894 -5.75 14.5625 C-5.51384979 13.87092804 -5.27769958 13.17935608 -5.03439331 12.46682739 C-4.3754117 10.54047772 -3.71129009 8.61588863 -3.046875 6.69140625 C-2.67401367 5.61060791 -2.30115234 4.52980957 -1.91699219 3.41625977 C-1 1 -1 1 0 0 Z " fill="#B0B0B0" transform="translate(107,357)"/>
<path d="M0 0 C0.99 0.33 1.98 0.66 3 1 C3.7490387 2.74928284 3.7490387 2.74928284 4.28344727 5.06860352 C4.49153519 5.94184265 4.69962311 6.81508179 4.91401672 7.71478271 C5.12930527 8.67644348 5.34459381 9.63810425 5.56640625 10.62890625 C5.80171555 11.62996399 6.03702484 12.63102173 6.27946472 13.66241455 C7.05224571 16.95982028 7.80725965 20.26103685 8.5625 23.5625 C9.35779326 26.97717592 10.15763932 30.39076262 10.95803833 33.804245 C11.50150317 36.12236543 12.04354382 38.4408202 12.584198 40.75959778 C14.32513349 48.20663513 16.13253994 55.63354705 18.01171875 63.046875 C18.24593033 63.97157089 18.48014191 64.89626678 18.72145081 65.84898376 C19.6129451 69.36020402 20.50733213 72.87062608 21.41116333 76.37869263 C22.02373592 78.75776717 22.6295015 81.13848988 23.234375 83.51953125 C23.41501999 84.21000549 23.59566498 84.90047974 23.78178406 85.61187744 C24.67604587 89.15132658 25.1983202 92.34731045 25 96 C24.34 96 23.68 96 23 96 C19.28422349 82.90631136 15.94512304 69.76282176 12.90380859 56.49633789 C11.10461891 48.67276786 9.24749193 40.86630206 7.33203125 33.0703125 C7.10307159 32.13776138 6.87411194 31.20521027 6.63821411 30.24440002 C5.49709579 25.60140804 4.35102227 20.95968625 3.20019531 16.3190918 C2.78049963 14.61509608 2.36089873 12.91107701 1.94140625 11.20703125 C1.74488968 10.42091461 1.54837311 9.63479797 1.34590149 8.82485962 C0.60590906 5.80912599 0 3.11797679 0 0 Z " fill="#3B3B3B" transform="translate(83,0)"/>
<path d="M0 0 C0.33 0 0.66 0 1 0 C0.40547544 7.47323719 -0.49679564 14.84317064 -1.671875 22.24609375 C-1.83471985 23.28828064 -1.9975647 24.33046753 -2.16534424 25.40423584 C-2.68956383 28.74930055 -3.21942587 32.0934378 -3.75 35.4375 C-3.92885742 36.57240875 -4.10771484 37.7073175 -4.29199219 38.87661743 C-6.9844122 55.95726112 -9.79600867 73.00706657 -13 90 C-13.99 90 -14.98 90 -16 90 C-15.8548999 89.10958008 -15.7097998 88.21916016 -15.56030273 87.30175781 C-14.98474359 83.7672372 -14.41000334 80.23258483 -13.83560181 76.69787598 C-13.57013854 75.06557702 -13.30433026 73.43333413 -13.03817749 71.80114746 C-11.36844067 61.56089706 -9.73229485 51.31640424 -8.1484375 41.0625 C-7.68697363 38.09429169 -7.22493194 35.12617387 -6.76272583 32.15808105 C-6.46440614 30.23118619 -6.16885895 28.30385989 -5.87619019 26.37609863 C-5.46221446 23.65064263 -5.03862955 20.92682598 -4.61328125 18.203125 C-4.49467743 17.40447021 -4.37607361 16.60581543 -4.25387573 15.78295898 C-3.38483266 10.29866015 -1.9003202 5.21474445 0 0 Z " fill="#484848" transform="translate(317,410)"/>
<path d="M0 0 C0.66 0 1.32 0 2 0 C2.14130044 6.86720158 1.60082067 13.44020571 0.75 20.25 C0.47643182 22.52326554 0.20439476 24.79671567 -0.06640625 27.0703125 C-0.21480957 28.31458008 -0.36321289 29.55884766 -0.51611328 30.84082031 C-1.46649456 38.92874391 -2.31822996 47.02804761 -3.1875 55.125 C-3.3681359 56.80371397 -3.54879937 58.48242497 -3.72949219 60.16113281 C-4.15397857 64.10731681 -4.57733507 68.05362052 -5 72 C-5.66 72 -6.32 72 -7 72 C-7.495 72.99 -7.495 72.99 -8 74 C-6.76277904 59.11517649 -5.35772092 44.25533983 -3.76782227 29.40405273 C-3.43063748 26.24827225 -3.09897638 23.09193973 -2.76757812 19.93554688 C-2.55240902 17.91142369 -2.33692674 15.88733376 -2.12109375 13.86328125 C-2.02316025 12.92801102 -1.92522675 11.99274078 -1.82432556 11.02912903 C-1.73075272 10.16269272 -1.63717987 9.29625641 -1.54077148 8.40356445 C-1.46020004 7.64686966 -1.3796286 6.89017487 -1.2966156 6.11054993 C-1.00293341 4.02087249 -0.55026147 2.03576751 0 0 Z " fill="#3C3C3C" transform="translate(300,0)"/>
<path d="M0 0 C0.33 0 0.66 0 1 0 C1.34936374 7.86727101 0.02418571 14.99571018 -1.58984375 22.6796875 C-1.98581505 24.61426315 -1.98581505 24.61426315 -2.38978577 26.58792114 C-2.94523418 29.30029896 -3.50626845 32.01143275 -4.07202148 34.72167969 C-4.79676914 38.19361478 -5.51217676 41.66738606 -6.22405148 45.14198112 C-7.40248398 50.89181486 -8.58695243 56.64043438 -9.78491211 62.38623047 C-9.99587021 63.40055145 -10.20682831 64.41487244 -10.42417908 65.45993042 C-11 68 -11 68 -12 71 C-12.66 71 -13.32 71 -14 71 C-13.42918226 63.41164873 -12.12213924 56.110954 -10.53125 48.67578125 C-10.29088013 47.53014206 -10.05051025 46.38450287 -9.80285645 45.20414734 C-9.04017369 41.57253764 -8.27052377 37.94245339 -7.5 34.3125 C-6.7305329 30.67162451 -5.96259575 27.03043939 -5.19714355 23.38871765 C-4.72226044 21.1310233 -4.24492093 18.8738438 -3.76477051 16.61726379 C-2.42032945 10.2463839 -2.42032945 10.2463839 -1.40820312 3.81713867 C-1 1 -1 1 0 0 Z " fill="#B3B3B3" transform="translate(163,429)"/>
<path d="M0 0 C0 0.66 0 1.32 0 2 C-3.55996182 3.96297379 -7.12339831 5.91955438 -10.6875 7.875 C-12.19860352 8.70837891 -12.19860352 8.70837891 -13.74023438 9.55859375 C-15.20493164 10.36103516 -15.20493164 10.36103516 -16.69921875 11.1796875 C-17.59471436 11.67194824 -18.49020996 12.16420898 -19.4128418 12.67138672 C-21.8975149 13.94736964 -24.39037217 15.00879384 -27 16 C-25.71034824 14.62437146 -24.37310707 13.29233607 -23 12 C-22.34 12 -21.68 12 -21 12 C-21 11.34 -21 10.68 -21 10 C-20.01 10 -19.02 10 -18 10 C-18 9.34 -18 8.68 -18 8 C-12.375 5 -12.375 5 -9 5 C-9 4.34 -9 3.68 -9 3 C-3.375 0 -3.375 0 0 0 Z " fill="#BEBEBE" transform="translate(105,429)"/>
<path d="M0 0 C0.33 0 0.66 0 1 0 C0.58846263 4.97093824 0.20399168 9.44508386 -2 14 C-2.66 14 -3.32 14 -4 14 C-4.33 14.66 -4.66 15.32 -5 16 C-4.39363767 10.23955788 -2.24341721 5.27985631 0 0 Z " fill="#B6B6B6" transform="translate(90,407)"/>
<path d="M0 0 C0.33 0 0.66 0 1 0 C1.10808032 7.09727428 0.93854006 13.96094956 0 21 C-2 19 -2 19 -2.23046875 17.08984375 C-2.11111111 11.11111111 -2.11111111 11.11111111 -1 10 C-0.76712992 8.31816052 -0.58735834 6.6287584 -0.4375 4.9375 C-0.35371094 4.01839844 -0.26992188 3.09929688 -0.18359375 2.15234375 C-0.12300781 1.44207031 -0.06242187 0.73179688 0 0 Z " fill="#373737" transform="translate(298,23)"/>
<path d="M0 0 C0 0.66 0 1.32 0 2 C-1.43011973 2.86646667 -2.86940619 3.71781829 -4.3125 4.5625 C-5.51326172 5.27599609 -5.51326172 5.27599609 -6.73828125 6.00390625 C-9 7 -9 7 -12 6 C-11.01 5.67 -10.02 5.34 -9 5 C-9 4.34 -9 3.68 -9 3 C-3.375 0 -3.375 0 0 0 Z " fill="#B3B3B3" transform="translate(105,429)"/>
<path d="M0 0 C0.66 0 1.32 0 2 0 C2 2.97 2 5.94 2 9 C1.01 9.33 0.02 9.66 -1 10 C-0.67 6.7 -0.34 3.4 0 0 Z " fill="#444444" transform="translate(300,0)"/>
<path d="M0 0 C0.33 0 0.66 0 1 0 C1.08159574 4.16138263 0.98248524 7.9472484 0 12 C-0.66 11.34 -1.32 10.68 -2 10 C-1.6875 7.6875 -1.6875 7.6875 -1 5 C-0.814375 4.071875 -0.62875 3.14375 -0.4375 2.1875 C-0.293125 1.465625 -0.14875 0.74375 0 0 Z " fill="#414141" transform="translate(311,446)"/>
<path d="M0 0 C0.33 0 0.66 0 1 0 C0.67 3.63 0.34 7.26 0 11 C-0.66 10.34 -1.32 9.68 -2 9 C-1.6875 6.625 -1.6875 6.625 -1 4 C-0.814375 3.236875 -0.62875 2.47375 -0.4375 1.6875 C-0.293125 1.130625 -0.14875 0.57375 0 0 Z " fill="#414141" transform="translate(317,410)"/>
<path d="M0 0 C0.33 0 0.66 0 1 0 C1.28571429 7.42857143 1.28571429 7.42857143 -1 11 C-2.26264601 6.70700357 -1.62950412 4.12168689 0 0 Z " fill="#404040" transform="translate(308,465)"/>
</svg>
