<?xml version="1.0" encoding="utf-8" ?>
<svg xmlns="http://www.w3.org/2000/svg" xmlns:xlink="http://www.w3.org/1999/xlink" width="1978" height="1245">
	<path d="M904.949 308.385C917.622 288.291 928.709 266.782 940.317 246.044C961.656 207.923 982.962 169.783 1004.35 131.691C1014.61 113.418 1024.08 93.4048 1035.69 76.0308C1037.03 74.0262 1038.75 72.5989 1041.12 72.0106C1043.59 71.3987 1046.48 71.9745 1048.59 73.3787C1050.6 74.7143 1051.7 76.6675 1052.28 78.9679C1058.83 104.975 1062.76 131.992 1067.29 158.402C1070.46 176.829 1074.29 195.164 1077.85 213.518C1093.44 293.775 1110.4 373.866 1125.04 454.299C1232.04 467.255 1339.14 479.491 1446.13 492.557C1476.79 496.302 1507.49 499.739 1538.16 503.385C1545.73 504.284 1554.29 503.419 1561.59 504.864C1563.38 505.218 1564.7 506.097 1566.08 507.235C1567.68 509.835 1567.89 511.298 1567.58 514.323C1567 515.844 1566.35 516.93 1565.04 517.941C1559.59 522.147 1552.42 525.234 1546.57 529.209C1526.6 542.793 1506.73 556.535 1486.75 570.115C1421.63 614.382 1356.6 658.791 1291.48 703.063C1269.78 717.813 1248.12 732.618 1226.42 747.363C1214.17 755.687 1201.34 763.674 1189.58 772.652C1194.82 805.389 1198.89 838.374 1203.49 871.21C1210.83 923.652 1218.36 976.069 1225.53 1028.53C1229.65 1058.7 1234.16 1088.81 1238.09 1119.01C1239.54 1130.15 1242.16 1141.51 1242.76 1152.73C1242.92 1155.85 1241.57 1158.55 1239.76 1161.02C1237.98 1163.44 1235.47 1165.26 1232.43 1165.64C1224.55 1166.63 1215.08 1157.45 1209.58 1152.66L964.658 948.086C929.509 974.874 815.176 1059.39 774.105 1054.51C762.452 1053.13 752.603 1045.35 743.939 1038.03C729.754 1026.04 716.766 1012.71 703.992 999.255C696.742 991.621 688.242 983.767 681.963 975.322L681.019 973.908C689.448 979.637 698.779 988.008 708.913 990.1C720.691 992.531 733.839 992.977 745.484 989.744C759.848 985.755 773.208 977.591 786.273 970.585C845.002 939.091 899.249 900.616 954.507 863.454C1006.71 908.155 1058.7 953.098 1110.78 997.947C1123.17 1008.62 1135.59 1019.26 1147.96 1029.96C1153.34 1034.61 1158.54 1041.58 1165.26 1044.07C1168.99 1044.16 1170.67 1043.35 1173.63 1041.36C1174.03 1040.44 1174.79 1039.18 1174.98 1038.22C1175.27 1036.75 1174.6 1033.98 1174.44 1032.4C1173.76 1025.94 1172.67 1019.52 1171.77 1013.09C1167.92 985.589 1164.04 958.097 1160.1 930.611C1151.18 868.389 1142.86 806.083 1134.04 743.847C1190.63 703.612 1246.99 663.046 1303.48 622.678C1322.98 608.751 1342.45 594.798 1361.94 580.864C1371.99 573.674 1382.52 566.806 1392.23 559.171C1393.77 557.959 1395.84 556.309 1396.29 554.362C1396.87 551.832 1396.35 547.536 1394.71 545.453C1392.33 542.432 1387.72 541.627 1384.17 541.014C1373.97 539.256 1363.81 538.857 1353.55 537.809C1336.13 536.028 1318.74 534.008 1301.33 532.124C1226.73 524.05 1151.64 517.566 1077.27 507.825C1064.27 432.113 1054.14 355.846 1041.96 279.989C1039.19 262.713 1036.66 245.399 1034 228.106C1032.4 217.764 1031.28 206.843 1028.41 196.766C1027.63 194.023 1026.4 190.544 1023.59 189.298C1022.16 188.663 1019.6 188.32 1018.13 188.867C1015.04 190.012 1012.51 191.572 1010.73 194.421C1007.78 199.143 1005.8 205.289 1003.5 210.429C998.371 221.836 993.289 233.262 988.183 244.678C970.05 285.221 951.993 325.8 933.679 366.261L904.949 308.385Z"/>
	<path fill="#FEFEFE" d="M933.679 366.261C951.993 325.8 970.05 285.221 988.183 244.678C993.289 233.262 998.371 221.836 1003.5 210.429C1005.8 205.289 1007.78 199.143 1010.73 194.421C1012.51 191.572 1015.04 190.012 1018.13 188.867C1019.6 188.32 1022.16 188.663 1023.59 189.298C1026.4 190.544 1027.63 194.023 1028.41 196.766C1031.28 206.843 1032.4 217.764 1034 228.106C1036.66 245.399 1039.19 262.713 1041.96 279.989C1054.14 355.846 1064.27 432.113 1077.27 507.825C1151.64 517.566 1226.73 524.05 1301.33 532.124C1318.74 534.008 1336.13 536.028 1353.55 537.809C1363.81 538.857 1373.97 539.256 1384.17 541.014C1387.72 541.627 1392.33 542.432 1394.71 545.453C1396.35 547.536 1396.87 551.832 1396.29 554.362C1395.84 556.309 1393.77 557.959 1392.23 559.171C1382.52 566.806 1371.99 573.674 1361.94 580.864C1342.45 594.798 1322.98 608.751 1303.48 622.678C1246.99 663.046 1190.63 703.612 1134.04 743.847C1142.86 806.083 1151.18 868.389 1160.1 930.611C1164.04 958.097 1167.92 985.589 1171.77 1013.09C1172.67 1019.52 1173.76 1025.94 1174.44 1032.4C1174.6 1033.98 1175.27 1036.75 1174.98 1038.22C1174.79 1039.18 1174.03 1040.44 1173.63 1041.36C1170.67 1043.35 1168.99 1044.16 1165.26 1044.07C1158.54 1041.58 1153.34 1034.61 1147.96 1029.96C1135.59 1019.26 1123.17 1008.62 1110.78 997.947C1058.7 953.098 1006.71 908.155 954.507 863.454C899.249 900.616 845.002 939.091 786.273 970.585C773.208 977.591 759.848 985.755 745.484 989.744C733.839 992.977 720.691 992.531 708.913 990.1C698.779 988.008 689.448 979.637 681.019 973.908C672.1 966.625 663.499 958.44 655.168 950.478C649.746 945.296 644.666 939.715 638.157 935.881C636.285 931.01 635.223 926.677 635.155 921.435C634.952 905.869 639.564 889.194 643.65 874.273C655.097 832.478 671.375 791.902 688.261 752.06C670.998 762.313 652.958 772.795 634.121 779.897C629.292 781.717 624.186 782.226 619.349 784.041C618.075 784.519 616.516 784.057 615.174 783.818C609.156 782.751 603.743 778.525 598.787 775.107C587.128 767.066 576.374 756.795 566.123 747.022C554.525 735.965 542.636 724.6 533.406 711.432C529.468 705.813 524.734 698.747 522.59 692.254C517.801 677.753 518.466 663.284 519.401 648.379C519.736 643.043 519.356 637.243 520.387 632.008C525.7 605.047 539.305 578.828 551.955 554.717C594.534 473.567 648.091 398.267 709.305 330.168C717.593 320.947 726.147 311.929 734.928 303.176C739.398 298.721 743.795 293.551 749.062 290.069C768.129 277.462 849.996 279.634 873.181 284.327C889.074 287.545 896.438 295.467 904.949 308.385L933.679 366.261Z"/>
	<path d="M732.702 638.503L733.21 638.818C733.475 642.221 729.427 649.624 728.026 653.041C722.553 666.393 717.108 679.754 711.882 693.204C706.43 707.238 701.444 721.464 696.242 735.593C684.871 742.827 673.075 749.382 661.151 755.654C646.672 763.271 632.647 770.154 616.385 772.776C601.685 766.64 589.146 753.576 577.452 743.017L543.374 707.386C584.637 715.897 629.01 691.167 664.804 673.487C687.654 662.201 710.237 650.535 732.702 638.503Z"/>
	<path d="M1018.31 203.157L1020.27 204.603L1020.29 205.203C1020.79 218.229 1023.97 232.155 1025.99 245.057C1029.7 268.815 1033.32 292.59 1037 316.354C1046.98 380.802 1055.33 445.906 1066.97 510.053C1067.35 512.182 1067.84 513.608 1069.47 515.055C1071.41 516.768 1073.26 517.897 1075.84 518.281C1098.32 521.633 1121.45 523.213 1144.07 525.652C1188.92 530.488 1233.77 535.407 1278.63 540.154C1300.63 542.481 1322.61 544.967 1344.6 547.369C1357.57 548.785 1371.08 551.297 1384.12 550.445C1383.76 551.549 1383.58 552.26 1382.78 553.132C1378.87 557.375 1371.16 561.394 1366.29 564.847C1352.5 574.627 1338.79 584.529 1325.05 594.374C1281.53 625.546 1238.01 656.713 1194.46 687.829C1170.68 704.819 1145.87 721.248 1122.97 739.366L1163.39 1029.44C1113.12 986.484 1063.14 943.165 1013.04 899.999C1000.89 889.534 988.738 879.071 976.602 868.594C970.307 863.16 963.513 855.917 956.162 852.033C954.501 851.885 953.151 852.145 951.697 852.969C939.209 860.044 927.229 869.186 915.281 877.21C878.107 902.174 841.351 929.212 802.046 950.702C791.023 956.534 779.954 962.285 768.854 967.968C756.151 974.472 743.881 981.215 729.215 981.338C721.151 981.405 713.466 980.691 705.987 977.53C697.728 974.04 689.656 967.167 682.758 961.462C669.622 950.597 657.258 939.043 645.144 927.064C644.661 904.158 652.37 881.254 659.201 859.634C668.5 830.2 679.178 801.009 691.236 772.586C695.49 762.558 700.73 752.95 704.817 742.788C714.789 717.992 723.215 692.511 732.97 667.602C737.859 655.12 744.126 642.309 748.028 629.59C748.876 626.826 748.309 625.895 747.14 623.466C744.621 621.969 744.168 621.698 741.267 621.763C724.785 632.065 705.964 640.857 688.592 649.656C665.704 661.249 642.676 673.232 619.062 683.274C602.485 690.323 584.497 697.127 566.454 698.736C553.662 699.877 543.86 698.604 533.815 690.186L532.915 689.425C527.866 675.95 528.132 662.807 529.195 648.721C529.456 645.258 529.154 641.328 529.731 637.954C530.827 631.554 533.657 624.392 535.517 618.1C542.743 593.642 555.662 569.912 567.883 547.645C609.107 472.537 658.853 402.843 715.659 338.746C722.733 330.765 730.004 322.958 737.294 315.176C740.348 311.916 743.759 307.361 747.723 305.283C752.653 302.699 756.137 296.949 761.753 295.925C786.063 291.495 867.866 285.975 886.322 301.68C893.07 307.423 897.508 317.103 901.694 324.808C909.242 338.703 916.606 352.906 923.269 367.243C926.074 373.276 928.64 382.696 934.431 386.129C937.27 385.404 937.425 385.269 939.26 382.977C939.08 376.673 944.165 368.49 946.758 362.685C952.718 349.337 958.698 335.997 964.66 322.649C976.337 296.505 988.026 270.365 999.74 244.237C1005.87 230.567 1011.61 216.547 1018.31 203.157Z"/>
	<path fill="#FEFEFE" d="M906.496 601.091L909.803 601.608C913.164 602.332 915.459 604.215 917.109 607.237C918.241 609.308 917.19 613.048 916.654 615.256C913.79 627.059 909.608 644.081 900.338 652.343C897.645 654.744 893.618 655.788 890.261 657.012C881.049 660.37 871.681 662.262 862.478 665.261C848.629 669.773 833.171 676.099 820.857 683.847C795.877 699.564 778.002 721.824 763.579 747.215C761.423 751.011 757.644 756.207 756.784 760.428C756.158 763.504 754.179 765.97 753.54 769.026L752.914 770.832C752.223 771.906 751.883 772.247 751.722 773.573C750.702 781.944 745.909 790.114 745.723 798.595C745.641 802.32 744.947 806.917 746.435 810.4L748.98 816.008C751.643 820.586 756.777 823.019 761.734 824.216C791.432 831.388 841.868 784.863 860.701 765.134C865.837 759.753 870.83 754.248 875.704 748.629C879.556 744.188 882.954 739.487 888.111 736.45C889.489 735.639 889.834 736.113 891.32 736.472C891.991 737.4 893.351 738.81 893.742 739.823C894.36 741.419 893.1 748.205 892.889 750.119C891.764 760.351 890.968 770.711 889.492 780.902C888.697 786.394 887.937 793.03 885.132 797.852C882.228 802.844 876.296 807.483 872.096 811.477C858.434 824.467 844.366 836.745 829.296 848.087C793.8 874.815 755.527 897.872 714.979 916.05C702.345 921.715 690.29 927.372 676.874 931.021C672.576 929.384 668.34 928.887 665.401 925.299C665.564 922.926 665.351 921.086 664.744 918.781L664.545 918.055C665.175 916.708 665.587 916.091 665.385 914.582C664.986 911.608 665.94 906.566 666.649 903.567C667.193 901.27 667.078 898.606 667.937 896.481C668.484 895.125 668.339 895.704 668.598 894.345C670.774 882.949 673.988 871.739 677.118 860.586C678.405 855.998 681.277 850.615 681.645 845.994C681.804 844.009 683.004 843.403 683.473 841.584C684.196 838.774 685.899 835.967 686.292 833.144C686.955 828.376 690.052 823.976 691.341 819.395C696.683 800.415 706.114 781.766 713.461 763.447C715.177 759.168 717.976 754.736 719.046 750.294C719.318 749.166 719.456 748.602 720.16 747.642C722.915 743.881 723.888 739.25 725.635 735.051C726.457 733.076 728.038 731.223 728.711 729.233C731.098 722.179 735.151 715.204 738.269 708.462C742.656 698.976 747.072 688.923 751.115 679.211C752.225 676.544 754.023 674.154 754.964 671.436C755.433 670.081 755.771 669.076 756.607 667.875C761.949 660.205 773.015 655.058 780.98 650.557C807.27 635.699 834.732 623.806 863.24 613.952C877.478 609.03 891.615 603.793 906.496 601.091Z"/>
	<path fill="#FEFEFE" d="M839.303 308.668C849.155 307.337 871.778 306.054 880.336 310.526C881.633 313.323 882.45 315.659 882.949 318.735C878.119 334.134 867.966 349.136 857.303 361.125C854.78 363.961 851.513 368.005 848.021 369.663C843.326 371.893 835.574 372.163 830.366 373.069C809.233 376.746 786.158 380.036 767.539 391.29C752.839 400.177 740.553 414.624 729.612 427.721C707.587 454.088 687.997 482.252 670.342 511.716C664.204 521.959 655.417 534.916 652.616 546.631C651.614 550.825 649.481 557.845 651.599 561.917C653.861 566.265 657.046 569.689 661.829 571.19C665.821 572.443 671.11 572.323 675.141 571.221C689.295 567.348 703.188 558.449 715.804 551.124C733.029 541.122 750.242 531.014 767.257 520.659C779.529 513.19 791.678 505.03 804.528 498.602L806.306 499.835L806.695 505.999C808.08 517.9 804.58 531.118 802.421 542.816L802.073 544.664C801.316 547.902 798.944 551.495 796.53 553.736C791.372 558.521 783.841 562.261 777.85 566.079C764.013 574.895 750.14 583.628 736.158 592.212C713.55 605.839 690.342 618.491 667.265 631.298C647.685 642.165 628.005 652.893 607.927 662.818C595.871 668.778 576.2 680.125 562.735 677.3L562.107 677.164C559.285 676.6 556.706 675.757 554.599 673.691C550.744 669.91 549.756 664.839 549.554 659.675C546.906 591.92 652.323 456.168 693.889 401.124C705.039 386.358 716.531 371.89 727.903 357.299C733.754 349.793 739.174 341.568 745.637 334.594C750.034 329.849 755.332 323.553 760.922 320.27C773.851 312.676 787.278 312.494 801.729 311.255C814.306 310.177 826.684 309.207 839.303 308.668Z"/>
</svg>
