<?xml version="1.0" encoding="UTF-8"?>
<svg version="1.1" xmlns="http://www.w3.org/2000/svg" width="1000" height="500">
<path d="M0 0 C1.70308625 1.62943327 3.36248041 3.3046873 5 5 C6.04322848 6.03817248 7.08935565 7.07343801 8.13793945 8.10620117 C11.20999316 11.14285473 14.27609602 14.1854379 17.34008789 17.23022461 C18.66222634 18.54221668 19.98614091 19.85242117 21.31176758 21.16088867 C23.22944426 23.05443769 25.14070408 24.95425812 27.05078125 26.85546875 C27.6475618 27.44192673 28.24434235 28.0283847 28.85920715 28.63261414 C30.27793655 30.05094989 31.64458583 31.52104029 33 33 C33 33.66 33 34.32 33 35 C33.556875 35.226875 34.11375 35.45375 34.6875 35.6875 C39.3018053 38.30643003 42.52978725 42.59500276 46.01171875 46.5234375 C51.01974227 52.09521127 56.29068647 57.36754978 61.625 62.625 C71.65522145 72.51193257 71.65522145 72.51193257 75.30859375 76.8046875 C80.65215796 83.04252589 86.61280299 88.71715048 92.4375 94.5 C93.6584369 95.71591114 94.87914192 96.93205516 96.09960938 98.1484375 C99.06374013 101.10164966 102.03098958 104.05169398 105 107 C105 103.04 105 99.08 105 95 C109 94 109 94 110.703125 94.99609375 C112.13541667 96.33072917 113.56770833 97.66536458 115 99 C114.81300537 98.46109131 114.62601074 97.92218262 114.43334961 97.36694336 C113.58569853 94.89553303 112.76152483 92.41688291 111.9375 89.9375 C111.49567383 88.66616211 111.49567383 88.66616211 111.04492188 87.36914062 C109.3627785 82.24355082 108.44628482 78.35787882 110 73 C113 71 113 71 116.359375 71.16796875 C120.12444004 72.02843962 122.14668098 73.0686331 125.25 75.3125 C126.28640625 76.03695312 127.3228125 76.76140625 128.390625 77.5078125 C128.96232422 77.90774414 129.53402344 78.30767578 130.12304688 78.71972656 C133.68143015 81.14690683 137.3483545 83.40419624 141 85.6875 C147.74436641 89.92481239 154.45117506 94.21492069 161.125 98.5625 C162.36479614 99.37001709 162.36479614 99.37001709 163.62963867 100.19384766 C166.08683846 101.79526657 168.54349116 103.39752145 171 105 C174.10238179 107.02359192 177.20666079 109.04421929 180.3125 111.0625 C180.98748535 111.50343994 181.6624707 111.94437988 182.35791016 112.39868164 C189.68111012 117.72481044 189.68111012 117.72481044 198 120 C219.45020072 141.45020072 199 180.66483522 199 211 C121.45 211 43.9 211 -36 211 C-42.94788874 179.73450067 -42.94788874 179.73450067 -44.90625 166.77148438 C-45.25519003 164.4657045 -45.61887849 162.16258318 -45.984375 159.859375 C-48.26153113 145.29962288 -50.43640047 130.58006825 -50.125 115.8125 C-50.11597656 114.94431641 -50.10695313 114.07613281 -50.09765625 113.18164062 C-50.07488633 111.12096244 -50.03908093 109.06043339 -50 107 C-45.50075472 107.83426965 -44.05573605 109.97280829 -41.25 113.5625 C-40.45078125 114.57441406 -39.6515625 115.58632813 -38.828125 116.62890625 C-38.22484375 117.41136719 -37.6215625 118.19382812 -37 119 C-38.86410153 111.28939821 -40.9512767 103.69865138 -43.328125 96.12890625 C-44.01946471 92.90935328 -44.03365144 91.10095432 -43 88 C-40.45225562 85.23387753 -39.04755138 84.04761597 -35.25 83.875 C-22.36040741 88.33678205 -10.71230107 100.52052921 -0.3046875 109.125 C1.7611029 110.80564304 3.86493915 112.40923643 6 114 C5.62560791 113.04802734 5.25121582 112.09605469 4.86547852 111.11523438 C0.96531148 101.05039074 -2.22447953 90.90975185 -5.0625 80.5 C-5.27622253 79.72395416 -5.48994507 78.94790833 -5.71014404 78.14834595 C-8.43985619 68.21741135 -11.00409387 58.26921008 -13.125 48.1875 C-13.32488525 47.24132812 -13.52477051 46.29515625 -13.73071289 45.3203125 C-14.69815709 40.45217272 -15.20308917 35.96214537 -15 31 C-9.73829306 32.41167747 -6.27828642 34.74850232 -2 38 C-2.95863463 33.32373351 -3.99928483 28.80008528 -5.54296875 24.28125 C-5.81173828 23.49363281 -6.08050781 22.70601563 -6.35742188 21.89453125 C-6.91207632 20.29451631 -7.47725263 18.69811124 -8.05273438 17.10546875 C-9.82674983 11.83090213 -11.08425391 6.38557991 -9 1 C-5.69752128 -1.17654716 -3.73217369 -1.3654294 0 0 Z " fill="#717171" transform="translate(801,289)"/>
<path d="M0 0 C54.45 0 108.9 0 165 0 C165 52.8 165 105.6 165 160 C159.06 162.475 159.06 162.475 153 165 C150.60691259 166.0546764 148.21914901 167.12162067 145.83984375 168.20703125 C145.21973419 168.48928558 144.59962463 168.77153992 143.96072388 169.06234741 C141.95212042 169.9771874 139.94478933 170.8947807 137.9375 171.8125 C136.49868362 172.46865299 135.05979854 173.12465534 133.62084961 173.78051758 C129.84382305 175.50271216 126.06795037 177.22742183 122.2923584 178.95275879 C119.26930652 180.33381007 116.2455316 181.71327421 113.22177124 183.09277344 C100.17537857 189.04540843 87.13182366 195.00358113 74.12011719 201.03173828 C69.98864852 202.94377759 65.85181854 204.84405112 61.71484375 206.74414062 C59.1666297 207.92291878 56.62953169 209.12289762 54.09375 210.328125 C52.66697953 210.99025792 51.23992193 211.65177268 49.8125 212.3125 C48.64332031 212.86550781 47.47414063 213.41851562 46.26953125 213.98828125 C42.39426198 215.18743865 39.91325 214.97472894 36 214 C34 211.9375 34 211.9375 33 209 C33.22621773 202.43968592 35.16596473 196.27493827 37 190 C36.39671875 190.433125 35.7934375 190.86625 35.171875 191.3125 C34.37265625 191.869375 33.5734375 192.42625 32.75 193 C31.96109375 193.556875 31.1721875 194.11375 30.359375 194.6875 C28 196 28 196 24 196 C24.4674532 187.00660686 27.33526683 178.79820326 30.125 170.3125 C30.38311462 169.51818573 30.64122925 168.72387146 30.90716553 167.90548706 C36.47290779 150.82898066 42.98619374 134.14403334 49.79296875 117.52850342 C51.3430821 113.72631385 52.7471075 109.91027976 54 106 C53.47535156 106.31710938 52.95070313 106.63421875 52.41015625 106.9609375 C45.73301006 110.9827793 39.02117778 114.94443989 32.296875 118.88671875 C28.81132313 120.93136593 25.33297627 122.98779775 21.85829163 125.05085754 C-2.1834938 139.32032344 -2.1834938 139.32032344 -11.375 144.125 C-13.08816406 145.02605469 -13.08816406 145.02605469 -14.8359375 145.9453125 C-18.69130922 147.23043641 -21.09606788 147.05434663 -25 146 C-27.52826571 142.20760144 -27.36444901 140.51916778 -27 136 C-26.157415 132.9364973 -25.13074848 129.96821475 -24 127 C-24.59167969 127.3609375 -25.18335938 127.721875 -25.79296875 128.09375 C-26.58316406 128.5578125 -27.37335937 129.021875 -28.1875 129.5 C-28.96480469 129.9640625 -29.74210938 130.428125 -30.54296875 130.90625 C-33.24103386 132.10729647 -35.0806982 132.20741043 -38 132 C-38.95226042 128.96350084 -39.00010996 126.98305117 -38.25 123.90136719 C-37.96123741 122.6899556 -37.96123741 122.6899556 -37.66664124 121.45407104 C-37.44664963 120.57719635 -37.22665802 119.70032166 -37 118.796875 C-36.77320053 117.86755157 -36.54640106 116.93822815 -36.31272888 115.98074341 C-35.55456259 112.90050144 -34.77913095 109.82500245 -34 106.75 C-33.73389923 105.69089417 -33.46779846 104.63178833 -33.19363403 103.54058838 C-14.26788888 28.53577775 -14.26788888 28.53577775 0 0 Z " fill="#D3D3D3" transform="translate(835,0)"/>
<path d="M0 0 C1.70308625 1.62943327 3.36248041 3.3046873 5 5 C6.04322848 6.03817248 7.08935565 7.07343801 8.13793945 8.10620117 C11.20999316 11.14285473 14.27609602 14.1854379 17.34008789 17.23022461 C18.66222634 18.54221668 19.98614091 19.85242117 21.31176758 21.16088867 C23.22944426 23.05443769 25.14070408 24.95425812 27.05078125 26.85546875 C27.6475618 27.44192673 28.24434235 28.0283847 28.85920715 28.63261414 C30.27793655 30.05094989 31.64458583 31.52104029 33 33 C33 33.66 33 34.32 33 35 C33.556875 35.226875 34.11375 35.45375 34.6875 35.6875 C39.3018053 38.30643003 42.52978725 42.59500276 46.01171875 46.5234375 C51.01974227 52.09521127 56.29068647 57.36754978 61.625 62.625 C71.65522145 72.51193257 71.65522145 72.51193257 75.30859375 76.8046875 C80.65215796 83.04252589 86.61280299 88.71715048 92.4375 94.5 C93.6584369 95.71591114 94.87914192 96.93205516 96.09960938 98.1484375 C99.06374013 101.10164966 102.03098958 104.05169398 105 107 C105 103.04 105 99.08 105 95 C109 94 109 94 110.703125 94.99609375 C112.13541667 96.33072917 113.56770833 97.66536458 115 99 C114.81300537 98.46109131 114.62601074 97.92218262 114.43334961 97.36694336 C113.58569853 94.89553303 112.76152483 92.41688291 111.9375 89.9375 C111.49567383 88.66616211 111.49567383 88.66616211 111.04492188 87.36914062 C109.3627785 82.24355082 108.44628482 78.35787882 110 73 C113 71 113 71 116.359375 71.16796875 C120.12444004 72.02843962 122.14668098 73.0686331 125.25 75.3125 C126.28640625 76.03695312 127.3228125 76.76140625 128.390625 77.5078125 C128.96232422 77.90774414 129.53402344 78.30767578 130.12304688 78.71972656 C133.68143015 81.14690683 137.3483545 83.40419624 141 85.6875 C147.74436641 89.92481239 154.45117506 94.21492069 161.125 98.5625 C162.36479614 99.37001709 162.36479614 99.37001709 163.62963867 100.19384766 C166.08683846 101.79526657 168.54349116 103.39752145 171 105 C174.10238179 107.02359192 177.20666079 109.04421929 180.3125 111.0625 C180.98748535 111.50343994 181.6624707 111.94437988 182.35791016 112.39868164 C189.68111012 117.72481044 189.68111012 117.72481044 198 120 C199 121 199 121 199.09765625 123.06640625 C199.08025391 124.30197266 199.08025391 124.30197266 199.0625 125.5625 C199.05347656 126.38878906 199.04445313 127.21507812 199.03515625 128.06640625 C199.01775391 129.02353516 199.01775391 129.02353516 199 130 C195.21438914 128.62023773 192.05699638 126.87418851 188.703125 124.6484375 C187.67413086 123.96974609 186.64513672 123.29105469 185.58496094 122.59179688 C185.04190308 122.23077881 184.49884521 121.86976074 183.93933105 121.49780273 C181.0386553 119.56988774 178.12808534 117.65699857 175.21875 115.7421875 C174.62124939 115.34839905 174.02374878 114.9546106 173.40814209 114.54888916 C167.22370825 110.47773547 160.99154289 106.48306167 154.75 102.5 C153.70384521 101.83202393 152.65769043 101.16404785 151.57983398 100.47583008 C149.59881977 99.21129561 147.61762902 97.94703763 145.63623047 96.68310547 C142.19050853 94.4831789 138.7502312 92.27488649 135.3125 90.0625 C134.27480469 89.39476562 133.23710938 88.72703125 132.16796875 88.0390625 C130.59982422 87.02972656 130.59982422 87.02972656 129 86 C126.37519444 84.31219749 123.75009672 82.62484961 121.125 80.9375 C119.94009912 80.1757891 118.75520278 79.41407114 117.5703125 78.65234375 C116.29800781 77.83443359 116.29800781 77.83443359 115 77 C115.30852905 77.90987671 115.30852905 77.90987671 115.62329102 78.83813477 C120.68882416 93.81284504 125.54318036 108.83234305 130 124 C130.23267578 124.78391113 130.46535156 125.56782227 130.70507812 126.37548828 C131.31736573 128.45498147 131.91273603 130.53832191 132.5 132.625 C132.8196875 133.75164062 133.139375 134.87828125 133.46875 136.0390625 C134.01352481 139.07538093 133.83220488 141.05443272 133 144 C126.86988634 138.95678592 121.25218459 133.43836272 115.64526367 127.83056641 C114.04688087 126.23440256 112.44061854 124.64644686 110.83398438 123.05859375 C109.81722113 122.04475921 108.80092728 121.03045365 107.78515625 120.015625 C106.86613525 119.10071289 105.94711426 118.18580078 105.00024414 117.24316406 C103 115 103 115 103 113 C102.1325415 112.63914307 102.1325415 112.63914307 101.24755859 112.27099609 C98.55646838 110.74918253 97.0456282 109.01551417 95.0390625 106.6640625 C91.45099982 102.57663784 87.75640544 98.66486139 83.8984375 94.8359375 C83.36776672 94.30856995 82.83709595 93.78120239 82.29034424 93.237854 C80.65387108 91.61489273 79.01489385 89.99450441 77.375 88.375 C75.19224841 86.21921181 73.01310599 84.05986248 70.8359375 81.8984375 C70.35345551 81.42425385 69.87097351 80.95007019 69.37387085 80.46151733 C66.6614517 77.76812334 64.09874953 74.99368388 61.60009766 72.10009766 C58.09108127 68.0505593 54.37462133 64.26283697 50.5625 60.5 C49.87873291 59.82001953 49.19496582 59.14003906 48.49047852 58.43945312 C46.32942945 56.29049074 44.16515274 54.14482721 42 52 C39.14283983 49.16966163 36.28916546 46.33587327 33.4375 43.5 C32.47469116 42.54963867 32.47469116 42.54963867 31.49243164 41.58007812 C27.70165812 37.80958141 24.13276637 33.91234527 20.6388855 29.8659668 C18.35811415 27.26917549 15.95545742 24.84329495 13.50390625 22.40625 C13.02549789 21.92925659 12.54708954 21.45226318 12.05418396 20.96081543 C10.55933486 19.47146305 9.06100941 17.98566851 7.5625 16.5 C6.5342702 15.47679861 5.50627374 14.45336267 4.47851562 13.4296875 C1.98835662 10.95042001 -0.50492833 8.47432462 -3 6 C-1.42331979 13.73403136 0.76754032 21.22144717 3.125 28.75 C3.33829956 29.43160187 3.55159912 30.11320374 3.7713623 30.81546021 C15.45640526 67.97052672 29.55344505 104.28773968 43.7144928 140.55221558 C45.84907238 146.020807 47.95419157 151.49755159 50 157 C45.67885281 157 45.50232808 156.98411266 42.625 154.25 C38.93747023 150.85610686 35.18880217 147.56265507 31.375 144.3125 C30.15732449 143.27109939 28.93988028 142.22942828 27.72265625 141.1875 C27.10793457 140.6615625 26.49321289 140.135625 25.85986328 139.59375 C24.02773092 138.02376312 22.19889523 136.45002569 20.37109375 134.875 C14.23486885 129.59142447 8.05895733 124.37496319 1.76953125 119.2734375 C-0.75754123 117.19902822 -3.24923202 115.09074386 -5.73339844 112.96557617 C-19.64090096 100.96474361 -19.64090096 100.96474361 -35 91 C-35.99 91.495 -35.99 91.495 -37 92 C-36.64533661 93.23192581 -36.64533661 93.23192581 -36.2835083 94.48873901 C-16.17400885 164.34174558 -16.17400885 164.34174558 -8.75 190.3125 C-8.50447388 191.17059265 -8.25894775 192.0286853 -8.00598145 192.91278076 C-7.33136356 195.27106774 -6.65766943 197.62961614 -5.984375 199.98828125 C-5.7937146 200.65460068 -5.6030542 201.3209201 -5.40661621 202.00743103 C-4.55487011 204.99619504 -3.75395173 207.98419307 -3 211 C-13.89 211 -24.78 211 -36 211 C-39.64747619 195.54164851 -42.77988987 180.1810011 -45.25 164.5 C-45.37433411 163.72009705 -45.49866821 162.94019409 -45.62677002 162.13665771 C-48.05266108 146.83225161 -50.45250919 131.34399359 -50.125 115.8125 C-50.11597656 114.94431641 -50.10695313 114.07613281 -50.09765625 113.18164062 C-50.07488633 111.12096244 -50.03908093 109.06043339 -50 107 C-45.50075472 107.83426965 -44.05573605 109.97280829 -41.25 113.5625 C-40.45078125 114.57441406 -39.6515625 115.58632813 -38.828125 116.62890625 C-38.22484375 117.41136719 -37.6215625 118.19382812 -37 119 C-38.86410153 111.28939821 -40.9512767 103.69865138 -43.328125 96.12890625 C-44.01946471 92.90935328 -44.03365144 91.10095432 -43 88 C-40.45225562 85.23387753 -39.04755138 84.04761597 -35.25 83.875 C-22.36040741 88.33678205 -10.71230107 100.52052921 -0.3046875 109.125 C1.7611029 110.80564304 3.86493915 112.40923643 6 114 C5.62560791 113.04802734 5.25121582 112.09605469 4.86547852 111.11523438 C0.96531148 101.05039074 -2.22447953 90.90975185 -5.0625 80.5 C-5.27622253 79.72395416 -5.48994507 78.94790833 -5.71014404 78.14834595 C-8.43985619 68.21741135 -11.00409387 58.26921008 -13.125 48.1875 C-13.32488525 47.24132812 -13.52477051 46.29515625 -13.73071289 45.3203125 C-14.69815709 40.45217272 -15.20308917 35.96214537 -15 31 C-9.73829306 32.41167747 -6.27828642 34.74850232 -2 38 C-2.95863463 33.32373351 -3.99928483 28.80008528 -5.54296875 24.28125 C-5.81173828 23.49363281 -6.08050781 22.70601563 -6.35742188 21.89453125 C-6.91207632 20.29451631 -7.47725263 18.69811124 -8.05273438 17.10546875 C-9.82674983 11.83090213 -11.08425391 6.38557991 -9 1 C-5.69752128 -1.17654716 -3.73217369 -1.3654294 0 0 Z " fill="#4F4F4F" transform="translate(801,289)"/>
<path d="M0 0 C8.91 0 17.82 0 27 0 C22.11265622 14.84920622 17.17871876 29.66843468 11.875 44.375 C7.75289927 55.81233313 3.83767094 67.30433653 0.03710938 78.85205078 C-1.90212624 84.73823347 -3.85724848 90.6191224 -5.8125 96.5 C-6.18576416 97.62801025 -6.55902832 98.75602051 -6.94360352 99.91821289 C-8.61278064 104.941652 -10.3259222 109.9289039 -12.21606445 114.87304688 C-13.99698073 119.70498167 -15.57061439 124.61133321 -17.1875 129.5 C-17.55552734 130.60859375 -17.92355469 131.7171875 -18.30273438 132.859375 C-19.20319915 135.57246367 -20.1022519 138.28601144 -21 141 C-6.53206088 134.15941851 7.1995763 126.08310531 21 118 C22.66393665 117.02973206 24.327986 116.05965735 25.9921875 115.08984375 C32.33472987 111.38451141 38.63485427 107.62545893 44.875 103.75 C49.55310076 100.84795238 54.30036097 98.1692648 59.16015625 95.5859375 C61.30090748 94.39041481 63.36520295 93.16232834 65.43359375 91.8515625 C66.01625 91.48289062 66.59890625 91.11421875 67.19921875 90.734375 C68.85545264 89.67736281 70.50411234 88.60851034 72.15234375 87.5390625 C75 86 75 86 79 86 C78.22275761 90.77884496 76.65245313 95.21661047 75.078125 99.77734375 C74.78187225 100.64371964 74.48561951 101.51009552 74.1803894 102.40272522 C73.20648125 105.24864865 72.22817565 108.09304086 71.25 110.9375 C70.56982213 112.92371597 69.88997572 114.91004547 69.21044922 116.89648438 C66.24418404 125.56333137 63.26665957 134.22630056 60.28642273 142.88835144 C55.02485382 158.18388885 49.77592374 173.47959255 44.8125 188.875 C44.44979004 189.99777344 44.08708008 191.12054688 43.71337891 192.27734375 C41.94497096 197.81681086 40.33003681 203.33881766 39 209 C50.47502902 204.4577232 50.47502902 204.4577232 61.625 199.1875 C67.3826072 196.21352934 73.29679424 193.67548272 79.25 191.125 C86.01914906 188.22184501 92.70216402 185.24940167 99.25 181.875 C105.69998274 178.55384586 112.28731462 175.70588973 118.98950195 172.93359375 C129.68767225 168.49848571 140.06658194 163.49165339 150.41015625 158.28515625 C155.17082593 155.92277265 159.69369724 153.80398527 165 153 C165 155.31 165 157.62 165 160 C164.30849854 160.28190186 163.61699707 160.56380371 162.90454102 160.85424805 C154.4938715 164.31705727 146.20818216 168.03119927 137.9375 171.8125 C136.49868362 172.46865299 135.05979854 173.12465534 133.62084961 173.78051758 C129.84382305 175.50271216 126.06795037 177.22742183 122.2923584 178.95275879 C119.26930652 180.33381007 116.2455316 181.71327421 113.22177124 183.09277344 C100.17537857 189.04540843 87.13182366 195.00358113 74.12011719 201.03173828 C69.98864852 202.94377759 65.85181854 204.84405112 61.71484375 206.74414062 C59.1666297 207.92291878 56.62953169 209.12289762 54.09375 210.328125 C52.66697953 210.99025792 51.23992193 211.65177268 49.8125 212.3125 C48.64332031 212.86550781 47.47414063 213.41851562 46.26953125 213.98828125 C42.39426198 215.18743865 39.91325 214.97472894 36 214 C34 211.9375 34 211.9375 33 209 C33.22621773 202.43968592 35.16596473 196.27493827 37 190 C36.39671875 190.433125 35.7934375 190.86625 35.171875 191.3125 C34.37265625 191.869375 33.5734375 192.42625 32.75 193 C31.96109375 193.556875 31.1721875 194.11375 30.359375 194.6875 C28 196 28 196 24 196 C24.4674532 187.00660686 27.33526683 178.79820326 30.125 170.3125 C30.38311462 169.51818573 30.64122925 168.72387146 30.90716553 167.90548706 C36.47290779 150.82898066 42.98619374 134.14403334 49.79296875 117.52850342 C51.3430821 113.72631385 52.7471075 109.91027976 54 106 C53.47535156 106.31710938 52.95070313 106.63421875 52.41015625 106.9609375 C45.73301006 110.9827793 39.02117778 114.94443989 32.296875 118.88671875 C28.81132313 120.93136593 25.33297627 122.98779775 21.85829163 125.05085754 C-2.1834938 139.32032344 -2.1834938 139.32032344 -11.375 144.125 C-13.08816406 145.02605469 -13.08816406 145.02605469 -14.8359375 145.9453125 C-18.69130922 147.23043641 -21.09606788 147.05434663 -25 146 C-27.52826571 142.20760144 -27.36444901 140.51916778 -27 136 C-26.157415 132.9364973 -25.13074848 129.96821475 -24 127 C-24.59167969 127.3609375 -25.18335938 127.721875 -25.79296875 128.09375 C-26.58316406 128.5578125 -27.37335937 129.021875 -28.1875 129.5 C-28.96480469 129.9640625 -29.74210938 130.428125 -30.54296875 130.90625 C-33.24103386 132.10729647 -35.0806982 132.20741043 -38 132 C-38.95226042 128.96350084 -39.00010996 126.98305117 -38.25 123.90136719 C-37.96123741 122.6899556 -37.96123741 122.6899556 -37.66664124 121.45407104 C-37.44664963 120.57719635 -37.22665802 119.70032166 -37 118.796875 C-36.77320053 117.86755157 -36.54640106 116.93822815 -36.31272888 115.98074341 C-35.55456259 112.90050144 -34.77913095 109.82500245 -34 106.75 C-33.73389923 105.69089417 -33.46779846 104.63178833 -33.19363403 103.54058838 C-14.26788888 28.53577775 -14.26788888 28.53577775 0 0 Z " fill="#1F1F1F" transform="translate(835,0)"/>
<path d="M0 0 C2.9914514 1.15055823 3.71752197 2.26875631 5.4375 4.9375 C6.27592468 7.17730713 6.27592468 7.17730713 6.9362793 9.65722656 C7.1907785 10.59577484 7.44527771 11.53432312 7.70748901 12.50131226 C8.10558273 14.02433456 8.10558273 14.02433456 8.51171875 15.578125 C8.7969339 16.64124908 9.08214905 17.70437317 9.37600708 18.79971313 C10.30147875 22.25994698 11.21363066 25.72352758 12.125 29.1875 C12.75497496 31.5575814 13.38542874 33.92753559 14.01635742 36.29736328 C26.76875964 84.32858862 26.76875964 84.32858862 28.4375 94.9375 C29.7575 95.2675 31.0775 95.5975 32.4375 95.9375 C32.4375 97.2575 32.4375 98.5775 32.4375 99.9375 C11.9775 99.9375 -8.4825 99.9375 -29.5625 99.9375 C-29.5625 91.61225271 -28.91673241 83.666401 -27.9375 75.4375 C-27.85113281 74.70316742 -27.76476562 73.96883484 -27.67578125 73.21224976 C-26.32166952 61.82694826 -24.61016233 50.53069227 -22.5625 39.25 C-22.38349152 38.25129883 -22.38349152 38.25129883 -22.2008667 37.23242188 C-20.46756691 27.64706878 -18.19171975 18.30910021 -15.5625 8.9375 C-14.2425 8.9375 -12.9225 8.9375 -11.5625 8.9375 C-10.9025 10.2575 -10.2425 11.5775 -9.5625 12.9375 C-9.39234375 12.25042969 -9.2221875 11.56335938 -9.046875 10.85546875 C-8.80453125 9.95441406 -8.5621875 9.05335938 -8.3125 8.125 C-8.08046875 7.23167969 -7.8484375 6.33835937 -7.609375 5.41796875 C-6.03906407 1.69726936 -4.10171303 -0.10004178 0 0 Z " fill="#1B1B1B" transform="translate(651.5625,400.0625)"/>
<path d="M0 0 C0.99261337 0.00222061 1.98522675 0.00444122 3.00791931 0.00672913 C4.12900589 0.00680466 5.25009247 0.00688019 6.40515137 0.00695801 C8.2348069 0.01469994 8.2348069 0.01469994 10.10142517 0.02259827 C11.96377052 0.02472069 11.96377052 0.02472069 13.86373901 0.02688599 C17.16982383 0.03154861 20.47584039 0.04053955 23.78190613 0.05158997 C27.15338042 0.06180625 30.52486175 0.06638407 33.89634705 0.07142639 C40.51550667 0.08248056 47.13463385 0.09923715 53.75376892 0.12025452 C53.01202857 4.13688492 51.84709067 7.48111115 50.16392517 11.21400452 C49.63218689 12.39857239 49.10044861 13.58314026 48.55259705 14.80360413 C47.9743357 16.07605495 47.39554759 17.3482665 46.81626892 18.62025452 C46.22051285 19.93476503 45.62481022 21.24929976 45.02915955 22.56385803 C43.54809098 25.8265291 42.05830569 29.08514472 40.56608582 32.34272766 C39.83028686 33.95281655 39.10005247 35.56544553 38.37046814 37.17835999 C33.69599926 47.50030557 28.59488694 57.4570418 22.87876892 67.24525452 C22.33091736 68.1887677 21.7830658 69.13228088 21.21861267 70.10438538 C20.69654236 70.97845032 20.17447205 71.85251526 19.63658142 72.75306702 C19.17654724 73.52537659 18.71651306 74.29768616 18.24253845 75.09339905 C16.60094823 77.32830919 15.13547201 78.70123457 12.75376892 80.12025452 C9.12876892 79.99525452 9.12876892 79.99525452 5.75376892 79.12025452 C3.49634612 75.73412031 3.57690541 75.28478312 4.17955017 71.47962952 C4.31683533 70.57341858 4.45412048 69.66720764 4.5955658 68.73353577 C4.75089783 67.78865295 4.90622986 66.84377014 5.06626892 65.87025452 C5.20999939 64.94084045 5.35372986 64.01142639 5.5018158 63.05384827 C5.78254556 61.24128258 6.06771948 59.42939847 6.35777283 57.61830139 C6.85893698 54.45682689 7.31151821 51.2904477 7.75376892 48.12025452 C7.15048767 48.9284967 6.54720642 49.73673889 5.92564392 50.56947327 C5.11839582 51.64893293 4.3111017 52.72835818 3.50376892 53.80775452 C2.71486267 54.8634967 1.92595642 55.91923889 1.11314392 57.00697327 C-4.94374638 64.99926064 -4.94374638 64.99926064 -7.43373108 65.99525452 C-8.03185608 66.03650452 -8.62998108 66.07775452 -9.24623108 66.12025452 C-11.36901423 63.99747136 -10.52119048 60.02293999 -10.52893066 57.16868591 C-10.37824778 47.4026338 -8.75006253 37.75039487 -7.31044006 28.10853577 C-6.80275451 24.70518968 -6.31138721 21.29977072 -5.82240295 17.89369202 C-5.50757811 15.73209798 -5.19185691 13.57063425 -4.87513733 11.40931702 C-4.72718216 10.38971893 -4.57922699 9.37012085 -4.42678833 8.31962585 C-4.2867186 7.38709991 -4.14664886 6.45457397 -4.00233459 5.49378967 C-3.88020096 4.67077362 -3.75806732 3.84775757 -3.63223267 2.99980164 C-3.07199116 0.27183278 -2.81839661 0.15088604 0 0 Z " fill="#202020" transform="translate(678.2462310791016,-0.1202545166015625)"/>
<path d="M0 0 C6.93 0 13.86 0 21 0 C20.34 2.97 19.68 5.94 19 9 C18.34 9 17.68 9 17 9 C16.85304688 9.680625 16.70609375 10.36125 16.5546875 11.0625 C15.05743425 17.53338759 13.08685477 23.62968568 10.68286133 29.81738281 C7.91055478 37.04977546 5.49162829 44.39725385 3.0625 51.75 C-2.96305599 69.95800843 -2.96305599 69.95800843 -6.10083008 78.77856445 C-7.87409824 83.76463732 -9.60267691 88.76373135 -11.29820251 93.77668762 C-12.44169798 97.15010747 -13.59739743 100.51929099 -14.75424194 103.88815308 C-15.33056116 105.57546174 -15.90178893 107.26451881 -16.46768188 108.95535278 C-17.26961978 111.34878934 -18.08988953 113.73523751 -18.9140625 116.12109375 C-19.15038895 116.84110565 -19.38671539 117.56111755 -19.63020325 118.302948 C-21.67515147 124.12714294 -24.63991716 127.57411662 -30 130.8125 C-32.95326793 131.98150189 -34.86633355 132.27649998 -38 132 C-38.95226042 128.96350084 -39.00010996 126.98305117 -38.25 123.90136719 C-37.96123741 122.6899556 -37.96123741 122.6899556 -37.66664124 121.45407104 C-37.44664963 120.57719635 -37.22665802 119.70032166 -37 118.796875 C-36.77320053 117.86755157 -36.54640106 116.93822815 -36.31272888 115.98074341 C-35.55456259 112.90050144 -34.77913095 109.82500245 -34 106.75 C-33.73389923 105.69089417 -33.46779846 104.63178833 -33.19363403 103.54058838 C-14.26788888 28.53577775 -14.26788888 28.53577775 0 0 Z " fill="#111111" transform="translate(835,0)"/>
<path d="M0 0 C3.4842046 0.29053145 5.47896957 0.54380971 8.14819336 2.88085938 C8.80956299 3.69361328 9.47093262 4.50636719 10.15234375 5.34375 C13.51669487 9.30729015 16.98112622 13.07926355 20.69140625 16.71875 C21.17233734 17.19376953 21.65326843 17.66878906 22.14877319 18.15820312 C24.12630963 20.10978504 26.10881398 22.05621601 28.0949707 23.99902344 C29.56890943 25.44297815 31.03673637 26.89292297 32.50390625 28.34375 C33.80050171 29.61508789 33.80050171 29.61508789 35.12329102 30.91210938 C37 33 37 33 37 35 C37.556875 35.226875 38.11375 35.45375 38.6875 35.6875 C43.3018053 38.30643003 46.52978725 42.59500276 50.01171875 46.5234375 C55.01974227 52.09521127 60.29068647 57.36754978 65.625 62.625 C67.43216294 64.40634633 69.23689755 66.19015993 71.0390625 67.9765625 C71.82490723 68.75080566 72.61075195 69.52504883 73.42041016 70.32275391 C75.46816005 72.44802603 77.40515902 74.59945483 79.33154297 76.83154297 C82.93253395 80.97981805 86.7490229 84.86037213 90.65625 88.71875 C91.36221313 89.42092651 92.06817627 90.12310303 92.79553223 90.84655762 C95.02791358 93.06684603 97.26352111 95.28383955 99.5 97.5 C102.45090378 100.42409479 105.39833203 103.35163057 108.34375 106.28125 C109.00749634 106.936698 109.67124268 107.592146 110.35510254 108.26745605 C114.24109546 112.13331557 117.92225872 116.11238325 121.48233032 120.28103638 C123.4531935 122.51330217 125.60547272 124.45100628 127.875 126.375 C131.89970501 129.79941003 131.89970501 129.79941003 133 132 C133.24387791 127.8540755 132.34733642 124.90227902 131 121 C130.24469398 118.55284258 129.49661745 116.10444761 128.7578125 113.65234375 C128.54816864 112.95919571 128.33852478 112.26604767 128.12252808 111.55189514 C127.45588802 109.34733681 126.7903774 107.14243972 126.125 104.9375 C125.25304736 102.05064719 124.38059157 99.16394681 123.5078125 96.27734375 C123.29650696 95.57829926 123.08520142 94.87925476 122.86749268 94.1590271 C120.93313351 87.76604195 118.97215325 81.38143334 117 75 C118.98 73.02 118.98 73.02 121 71 C127.37148472 74.30687325 133.33843288 77.84120724 139.1640625 82.03125 C142.56122821 84.38961297 146.04691261 86.57374456 149.5625 88.75 C155.22400702 92.25796407 160.85032582 95.81218511 166.4375 99.4375 C167.48997925 100.12017944 167.48997925 100.12017944 168.5637207 100.81665039 C171.44164474 102.68514595 174.31794687 104.55612656 177.19384766 106.42773438 C178.65696629 107.37955684 180.12050593 108.33073247 181.58447266 109.28125 C183.01359961 110.20929637 184.44168341 111.13895135 185.86865234 112.0703125 C189.19251901 114.22953872 192.53063143 116.33489517 195.95703125 118.328125 C196.56772461 118.68688721 197.17841797 119.04564941 197.80761719 119.4152832 C199.44912196 120.37145745 201.10116616 121.3094736 202.75390625 122.24609375 C203.49511719 122.82488281 204.23632812 123.40367187 205 124 C205 125.32 205 126.64 205 128 C201.21438914 126.62023773 198.05699638 124.87418851 194.703125 122.6484375 C193.67413086 121.96974609 192.64513672 121.29105469 191.58496094 120.59179688 C191.04190308 120.23077881 190.49884521 119.86976074 189.93933105 119.49780273 C187.0386553 117.56988774 184.12808534 115.65699857 181.21875 113.7421875 C180.62124939 113.34839905 180.02374878 112.9546106 179.40814209 112.54888916 C173.22370825 108.47773547 166.99154289 104.48306167 160.75 100.5 C159.70384521 99.83202393 158.65769043 99.16404785 157.57983398 98.47583008 C155.59881977 97.21129561 153.61762902 95.94703763 151.63623047 94.68310547 C148.19050853 92.4831789 144.7502312 90.27488649 141.3125 88.0625 C140.27480469 87.39476562 139.23710938 86.72703125 138.16796875 86.0390625 C136.59982422 85.02972656 136.59982422 85.02972656 135 84 C132.37519444 82.31219749 129.75009672 80.62484961 127.125 78.9375 C125.94009912 78.1757891 124.75520278 77.41407114 123.5703125 76.65234375 C122.29800781 75.83443359 122.29800781 75.83443359 121 75 C121.30852905 75.90987671 121.30852905 75.90987671 121.62329102 76.83813477 C126.68882416 91.81284504 131.54318036 106.83234305 136 122 C136.23267578 122.78391113 136.46535156 123.56782227 136.70507812 124.37548828 C137.31736573 126.45498147 137.91273603 128.53832191 138.5 130.625 C138.8196875 131.75164062 139.139375 132.87828125 139.46875 134.0390625 C140.01352481 137.07538093 139.83220488 139.05443272 139 142 C132.86988634 136.95678592 127.25218459 131.43836272 121.64526367 125.83056641 C120.04688087 124.23440256 118.44061854 122.64644686 116.83398438 121.05859375 C115.81722113 120.04475921 114.80092728 119.03045365 113.78515625 118.015625 C112.86613525 117.10071289 111.94711426 116.18580078 111.00024414 115.24316406 C109 113 109 113 109 111 C108.1325415 110.63914307 108.1325415 110.63914307 107.24755859 110.27099609 C104.55646838 108.74918253 103.0456282 107.01551417 101.0390625 104.6640625 C97.45099982 100.57663784 93.75640544 96.66486139 89.8984375 92.8359375 C89.36776672 92.30856995 88.83709595 91.78120239 88.29034424 91.237854 C86.65387108 89.61489273 85.01489385 87.99450441 83.375 86.375 C81.19224841 84.21921181 79.01310599 82.05986248 76.8359375 79.8984375 C76.35345551 79.42425385 75.87097351 78.95007019 75.37387085 78.46151733 C72.6614517 75.76812334 70.09874953 72.99368388 67.60009766 70.10009766 C64.09108127 66.0505593 60.37462133 62.26283697 56.5625 58.5 C55.87873291 57.82001953 55.19496582 57.14003906 54.49047852 56.43945312 C52.32942945 54.29049074 50.16515274 52.14482721 48 50 C45.14283983 47.16966163 42.28916546 44.33587327 39.4375 41.5 C38.47469116 40.54963867 38.47469116 40.54963867 37.49243164 39.58007812 C33.70165812 35.80958141 30.13276637 31.91234527 26.6388855 27.8659668 C24.35811415 25.26917549 21.95545742 22.84329495 19.50390625 20.40625 C19.02549789 19.92925659 18.54708954 19.45226318 18.05418396 18.96081543 C16.55933486 17.47146305 15.06100941 15.98566851 13.5625 14.5 C12.5342702 13.47679861 11.50627374 12.45336267 10.47851562 11.4296875 C7.98835662 8.95042001 5.49507167 6.47432462 3 4 C4.57668021 11.73403136 6.76754032 19.22144717 9.125 26.75 C9.33829956 27.43160187 9.55159912 28.11320374 9.7713623 28.81546021 C21.45640526 65.97052672 35.55344505 102.28773968 49.7144928 138.55221558 C51.84907238 144.020807 53.95419157 149.49755159 56 155 C51.67885281 155 51.50232808 154.98411266 48.625 152.25 C44.93747023 148.85610686 41.18880217 145.56265507 37.375 142.3125 C36.15732449 141.27109939 34.93988028 140.22942828 33.72265625 139.1875 C33.10793457 138.6615625 32.49321289 138.135625 31.85986328 137.59375 C30.02773092 136.02376312 28.19889523 134.45002569 26.37109375 132.875 C20.23486885 127.59142447 14.05895733 122.37496319 7.76953125 117.2734375 C5.24245877 115.19902822 2.75076798 113.09074386 0.26660156 110.96557617 C-13.64090096 98.96474361 -13.64090096 98.96474361 -29 89 C-29.99 89.495 -29.99 89.495 -31 90 C-30.76355774 90.82128387 -30.52711548 91.64256775 -30.2835083 92.48873901 C-10.17400885 162.34174558 -10.17400885 162.34174558 -2.75 188.3125 C-2.50447388 189.17059265 -2.25894775 190.0286853 -2.00598145 190.91278076 C-1.33136356 193.27106774 -0.65766943 195.62961614 0.015625 197.98828125 C0.2062854 198.65460068 0.3969458 199.3209201 0.59338379 200.00743103 C1.44451458 202.99403589 2.27309628 205.98051746 3 209 C1.35 208.67 -0.3 208.34 -2 208 C-2.16524673 207.40403519 -2.33049347 206.80807037 -2.50074768 206.19404602 C-7.3260614 188.81693418 -12.31277845 171.48875404 -17.35845947 154.17462158 C-18.31957019 150.87633112 -19.27999932 147.57784236 -20.24023438 144.27929688 C-20.42980021 143.6281447 -20.61936604 142.97699253 -20.81467628 142.30610847 C-22.50597143 136.49484679 -24.19101756 130.68178122 -25.87567139 124.86859131 C-26.83246798 121.5716158 -27.79755316 118.27711731 -28.76439953 114.98307705 C-29.3383376 113.02419425 -29.90924041 111.06445611 -30.47889709 109.10432434 C-31.1863267 106.67075895 -31.89866257 104.23861261 -32.61668396 101.80815125 C-33.08788414 100.178955 -33.08788414 100.178955 -33.56860352 98.5168457 C-33.98481712 97.09430229 -33.98481712 97.09430229 -34.40943909 95.64302063 C-35.1839242 92.17685808 -35.75019538 89.25032563 -33.875 86.125 C-31.02658573 84.41595144 -29.16137593 85.23290143 -26 86 C-23.5703125 87.390625 -23.5703125 87.390625 -21.125 89.25 C-20.17882812 89.96800781 -19.23265625 90.68601562 -18.2578125 91.42578125 C-12.39032012 96.03229352 -6.61000393 100.74635788 -0.84814453 105.48388672 C0.74282019 106.78902422 2.3413959 108.08487398 3.94140625 109.37890625 C9.88732385 114.19058025 15.67338519 119.16694001 21.44018555 124.18994141 C29.74032058 131.40551415 38.27677916 138.30142795 47 145 C47 143.02 47 141.04 47 139 C46.34 139 45.68 139 45 139 C44.70609375 138.13246094 44.4121875 137.26492188 44.109375 136.37109375 C41.01583697 127.37530058 37.66439945 118.49580295 34.19934082 109.63665771 C24.63712013 85.17186699 15.73737813 60.48391116 7.4375 35.5625 C7.1895166 34.81795563 6.9415332 34.07341125 6.68603516 33.30630493 C5.52854539 29.8231271 4.38124962 26.33713617 3.25341797 22.84423828 C2.43594887 20.3126056 1.58210862 17.80487786 0.70361328 15.29248047 C0.31802246 14.15311035 -0.06756836 13.01374023 -0.46484375 11.83984375 C-0.81023193 10.85234131 -1.15562012 9.86483887 -1.51147461 8.84741211 C-2.11247745 5.34441557 -1.3487708 3.24287886 0 0 Z " fill="#1C1C1C" transform="translate(795,291)"/>
<path d="M0 0 C5.88834858 1.12940072 8.87483581 5.8693057 12.25390625 10.484375 C17.10853719 17.86328144 18.98712197 26.48747005 21.18945312 34.94140625 C22.25275766 38.95377951 23.43363431 42.92685498 24.61743164 46.9050293 C28.32647801 59.386509 31.81875251 71.93204575 35.29150391 84.48095703 C35.90187911 86.65113325 36.54606967 88.80733379 37.19921875 90.96484375 C38 94 38 94 38 98 C38.66 98 39.32 98 40 98 C40 99.98 40 101.96 40 104 C31.42 104 22.84 104 14 104 C10.35252381 88.54164851 7.22011013 73.1810011 4.75 57.5 C4.62566589 56.72009705 4.50133179 55.94019409 4.37322998 55.13665771 C1.94733892 39.83225161 -0.45250919 24.34399359 -0.125 8.8125 C-0.11597656 7.94431641 -0.10695313 7.07613281 -0.09765625 6.18164062 C-0.07488633 4.12096244 -0.03908093 2.06043339 0 0 Z " fill="#111111" transform="translate(751,396)"/>
<path d="M0 0 C2.4375 0.625 2.4375 0.625 6 2 C6.68255859 2.25410645 7.36511719 2.50821289 8.06835938 2.77001953 C15.24032533 6.37657522 17.02479451 11.86586649 19.45336914 19.0453186 C20.03669389 20.83811005 20.61061769 22.63398224 21.17605591 24.43249512 C22.70047002 29.27774621 24.32828192 34.08865074 25.9375 38.90625 C26.26641739 39.90122498 26.59533478 40.89619995 26.93421936 41.92132568 C30.49850906 52.65042789 34.49969864 63.20164226 38.5625 73.75 C39.2235118 75.47553878 39.8844036 77.20112353 40.54516602 78.92675781 C41.17676409 80.57114876 41.8088318 82.21535941 42.44140625 83.859375 C42.74148087 84.63943909 43.04155548 85.41950317 43.35072327 86.22320557 C44.80200215 89.97540264 46.28393688 93.71023643 47.83154297 97.42382812 C48.11779037 98.11623596 48.40403778 98.8086438 48.69895935 99.52203369 C49.4733263 101.38562652 50.25954116 103.24428391 51.04663086 105.10253906 C52 108 52 108 51 111 C49.62437146 109.71034824 48.29233607 108.37310707 47 107 C47 106.34 47 105.68 47 105 C46.401875 104.896875 45.80375 104.79375 45.1875 104.6875 C42.68741714 103.90175967 41.62464918 103.03081147 40 101 C40 100.34 40 99.68 40 99 C39.38125 98.9175 38.7625 98.835 38.125 98.75 C35.33061257 97.76374561 35.283048 96.56609601 34 94 C33.34 93.835 32.68 93.67 32 93.5 C31.34 93.335 30.68 93.17 30 93 C29.33333333 91.66666667 28.66666667 90.33333333 28 89 C26.66923011 88.65657551 25.33568021 88.32380126 24 88 C21.47723925 85.14455401 20.23098651 82.34532989 19.01953125 78.7578125 C18.6639917 77.7066626 18.30845215 76.6555127 17.94213867 75.57250977 C17.56935791 74.43483154 17.19657715 73.29715332 16.8125 72.125 C16.42102783 70.93769287 16.02955566 69.75038574 15.6262207 68.52709961 C9.99504626 51.14361306 5.16066352 33.46869414 1.5 15.5625 C1.33975342 14.78269775 1.17950684 14.00289551 1.0144043 13.19946289 C0.15653852 8.72193128 -0.1441366 4.55832001 0 0 Z " fill="#111111" transform="translate(786,320)"/>
<path d="M0 0 C1.98876254 3.53817317 3.0008087 7.25201433 4.03125 11.1484375 C4.22335556 11.86126389 4.41546112 12.57409027 4.61338806 13.30851746 C5.24656805 15.6628793 5.87340013 18.01887911 6.5 20.375 C6.94121764 22.02212638 7.38270957 23.66917931 7.82446289 25.31616211 C9.22392662 30.5420913 10.6132575 35.77068253 12 41 C12.23128601 41.87186951 12.46257202 42.74373901 12.7008667 43.64202881 C14.28443697 49.61428364 15.86311541 55.58781726 17.4375 61.5625 C17.64632812 62.35493103 17.85515625 63.14736206 18.0703125 63.96380615 C19.38923437 68.97354411 20.69862015 73.98567859 22 79 C22.31340332 80.20253418 22.62680664 81.40506836 22.94970703 82.64404297 C23.22540527 83.71928223 23.50110352 84.79452148 23.78515625 85.90234375 C24.02242432 86.82394287 24.25969238 87.74554199 24.50415039 88.69506836 C25 91 25 91 25 94 C13.45 94 1.9 94 -10 94 C-5.196565 44.33169468 -5.196565 44.33169468 -2.75 21.6875 C-2.66745972 20.91854401 -2.58491943 20.14958801 -2.49987793 19.35733032 C-2.26774124 17.20021383 -2.03292849 15.04340977 -1.796875 12.88671875 C-1.66635742 11.69264404 -1.53583984 10.49856934 -1.40136719 9.26831055 C-1.01959551 6.15956512 -0.54045126 3.08473401 0 0 Z " fill="#515151" transform="translate(650,406)"/>
<path d="M0 0 C1 2 1 2 0.55561829 3.89645386 C0.28758896 4.67167389 0.01955963 5.44689392 -0.2565918 6.24560547 C-0.55870071 7.13151871 -0.86080963 8.01743195 -1.17207336 8.93019104 C-1.51103134 9.89939987 -1.84998932 10.8686087 -2.19921875 11.8671875 C-2.54579025 12.87776718 -2.89236176 13.88834686 -3.24943542 14.92955017 C-4.38861609 18.24709833 -5.53799377 21.56101695 -6.6875 24.875 C-7.86441768 28.29162937 -9.03884905 31.70910562 -10.21289062 35.12672424 C-11.00277325 37.4260232 -11.79346778 39.7250434 -12.58496094 42.02378845 C-15.00160316 49.0521122 -17.37630908 56.09250169 -19.69921875 63.15234375 C-19.97515366 63.98965027 -20.25108856 64.82695679 -20.53538513 65.68963623 C-21.566282 68.82130028 -22.59595796 71.95329422 -23.61434937 75.08905029 C-24.29772093 77.19257841 -24.98811443 79.2936882 -25.6796875 81.39453125 C-26.05851074 82.55831299 -26.43733398 83.72209473 -26.82763672 84.92114258 C-28.78203375 90.05377503 -30.82366283 93.30144606 -35.4375 96.3125 C-36.19933594 96.82425781 -36.96117187 97.33601563 -37.74609375 97.86328125 C-40 99 -40 99 -44 99 C-43.53255968 90.00685464 -40.66528124 81.79785669 -37.875 73.3125 C-37.48732956 72.12053009 -37.48732956 72.12053009 -37.09182739 70.90447998 C-30.12676444 49.55606952 -21.89723175 28.61517104 -13 8 C-12.34 8 -11.68 8 -11 8 C-11 7.34 -11 6.68 -11 6 C-9.35 5.67 -7.7 5.34 -6 5 C-6 4.34 -6 3.68 -6 3 C-5.01 3 -4.02 3 -3 3 C-3 2.34 -3 1.68 -3 1 C-2.01 0.67 -1.02 0.34 0 0 Z " fill="#111111" transform="translate(903,97)"/>
<path d="M0 0 C0.99 0.33 1.98 0.66 3 1 C2.70867188 1.58523437 2.41734375 2.17046875 2.1171875 2.7734375 C-0.83831784 8.96326943 -3.16607637 15.25088674 -5.27587891 21.76513672 C-8.26808689 30.94875715 -11.52123817 40.03929494 -14.76126099 49.13772583 C-17.82216206 57.73382393 -20.80761537 66.34865347 -23.67735291 75.01055908 C-26.45519199 83.39258995 -29.30460003 91.74988391 -32.15942383 100.10595703 C-33.06647367 102.76163417 -33.97175876 105.41790868 -34.87695312 108.07421875 C-35.47134168 109.81510843 -36.06574254 111.55599391 -36.66015625 113.296875 C-37.0885228 114.55643005 -37.0885228 114.55643005 -37.52554321 115.84143066 C-38.81799346 119.62530802 -40.1325291 123.39437747 -41.54638672 127.13476562 C-42.2330542 128.96297852 -42.2330542 128.96297852 -42.93359375 130.828125 C-43.33505615 131.86356445 -43.73651855 132.89900391 -44.15014648 133.96582031 C-45.11763413 137.41998189 -45.1480535 140.42992361 -45 144 C-38.72195401 143.5510671 -34.39132257 142.07101618 -28.9375 139 C-28.19636963 138.59483154 -27.45523926 138.18966309 -26.69165039 137.7722168 C-20.80097201 134.52325061 -15.02782747 131.08800348 -9.28515625 127.5859375 C-3.8617083 124.2904442 1.63680729 121.1234995 7.125 117.9375 C14.56815466 113.61290528 21.9471298 109.21893576 29.25390625 104.66796875 C33.74398416 101.94070948 38.37003138 99.4790933 43 97 C44.73102972 96.045036 46.46033289 95.08693238 48.1875 94.125 C48.92355469 93.71507813 49.65960937 93.30515625 50.41796875 92.8828125 C50.94003906 92.59148437 51.46210937 92.30015625 52 92 C51.37835474 95.40002044 50.54362448 98.5927039 49.42456055 101.86157227 C49.10257187 102.80738159 48.78058319 103.75319092 48.44883728 104.72766113 C48.09833817 105.74694702 47.74783905 106.76623291 47.38671875 107.81640625 C47.02087173 108.8887854 46.65502472 109.96116455 46.27809143 111.06604004 C45.49216369 113.36902819 44.70488128 115.67155441 43.91638184 117.97366333 C41.85255908 124.00086837 39.80016867 130.0319675 37.74609375 136.0625 C37.33751129 137.26117203 36.92892883 138.45984406 36.50796509 139.69483948 C26.58863138 168.73087639 26.58863138 168.73087639 17.1875 197.9375 C16.93838867 198.71295166 16.68927734 199.48840332 16.43261719 200.28735352 C15.24677691 204.20832083 14.74038239 207.05113744 16 211 C19.76930145 212.01679265 21.75087345 212.06136224 25.26171875 210.359375 C26.53535278 209.75778564 26.53535278 209.75778564 27.8347168 209.14404297 C28.77613525 208.68400879 29.71755371 208.22397461 30.6875 207.75 C32.85320367 206.72452627 35.01995578 205.70126512 37.1875 204.6796875 C37.78531784 204.39606354 38.38313568 204.11243958 38.99906921 203.82022095 C46.78120883 200.13549409 54.64143207 196.62282966 62.4927063 193.08859253 C78.94901949 185.6775396 95.36739745 178.18638793 111.74682617 170.60693359 C119.42898177 167.05832833 127.13729328 163.6102143 134.94042969 160.33520508 C138.01850637 158.99192377 141.00985161 157.52786828 144 156 C143.9296875 158.328125 143.9296875 158.328125 143 161 C140.64378978 162.19381318 138.62093639 162.98181542 136.125 163.75 C129.88164958 165.87962933 123.93523608 168.30797919 118 171.1875 C116.38289707 171.96762324 114.76570701 172.7475659 113.1484375 173.52734375 C111.89498535 174.13231689 111.89498535 174.13231689 110.61621094 174.74951172 C105.97601075 176.96742002 101.30129535 179.10949111 96.625 181.25 C95.62774902 181.70665039 94.63049805 182.16330078 93.60302734 182.63378906 C85.02097201 186.55277011 76.41016946 190.40695097 67.79589844 194.25445557 C57.62151 198.80023474 47.49108997 203.43410499 37.38525391 208.13061523 C34.59310965 209.42691978 31.79759942 210.71552008 29 212 C28.29294922 212.32967773 27.58589844 212.65935547 26.85742188 212.99902344 C22.45044907 214.9930972 19.71724631 215.4514604 15 214 C13 211.9375 13 211.9375 12 209 C12.43361447 202.39289139 14.23744198 196.5109333 16.3125 190.25 C16.66296387 189.17492187 17.01342773 188.09984375 17.37451172 186.9921875 C18.36147328 183.97494134 19.35587879 180.96028661 20.35491943 177.94702148 C21.01388748 175.95808397 21.67052333 173.9683888 22.32666016 171.97851562 C30.37272286 147.59182477 38.67018479 123.2909598 47 99 C45.515 98.505 45.515 98.505 44 98 C44 98.66 44 99.32 44 100 C43.01 100 42.02 100 41 100 C41 100.66 41 101.32 41 102 C39.35 102.33 37.7 102.66 36 103 C36 103.66 36 104.32 36 105 C35.34878174 105.35118896 34.69756348 105.70237793 34.02661133 106.06420898 C26.84886375 109.95467147 19.75442962 113.97470313 12.6875 118.0625 C11.56102051 118.71226807 10.43454102 119.36203613 9.27392578 120.03149414 C2.8642387 123.73364683 -3.51251682 127.48684637 -9.86376953 131.28833008 C-17.13855233 135.63326003 -24.43142693 139.93932101 -31.9375 143.875 C-32.5577002 144.21523193 -33.17790039 144.55546387 -33.81689453 144.90600586 C-38.20957702 147.13259141 -41.27033387 147.31153932 -46 146 C-48.50296023 142.24555965 -48.32144876 140.46067973 -48 136 C-47.02539062 132.46508789 -47.02539062 132.46508789 -45.65625 128.72265625 C-45.41181656 128.04365265 -45.16738312 127.36464905 -44.9155426 126.66506958 C-44.39195893 125.21412536 -43.86342728 123.76495859 -43.33035278 122.31747437 C-42.20046415 119.24905579 -41.09469323 116.17212854 -39.98780823 113.09535217 C-39.43139696 111.54897944 -38.87381235 110.00302838 -38.31504822 108.45750427 C-36.12847533 102.40009147 -34.06236699 96.30915086 -32.0625 90.1875 C-28.1366441 78.23359611 -23.94438833 66.37535409 -19.74243164 54.51635742 C-16.76515785 46.10158266 -13.85614163 37.66936295 -11.06161499 29.19192505 C-8.82604745 22.41822733 -6.43598154 15.70433856 -4 9 C-3.34 9 -2.68 9 -2 9 C-2.04125 8.071875 -2.0825 7.14375 -2.125 6.1875 C-2 3 -2 3 0 0 Z " fill="#B1B1B1" transform="translate(856,0)"/>
<path d="M0 0 C0.74886475 0.00523682 1.49772949 0.01047363 2.26928711 0.01586914 C3.07817383 0.0190918 3.88706055 0.02231445 4.72045898 0.02563477 C5.5705957 0.03401367 6.42073242 0.04239258 7.29663086 0.05102539 C8.15063477 0.05553711 9.00463867 0.06004883 9.88452148 0.06469727 C12.00108749 0.07652166 14.11761771 0.0944577 16.23413086 0.11352539 C15.66093134 8.75122466 14.6000054 17.27764848 13.2421875 25.82397461 C12.92011312 27.87318204 12.6171673 29.92469737 12.31420898 31.97680664 C10.098633 46.36624759 3.8232201 56.18625423 -6.76586914 66.11352539 C-7.75586914 65.78352539 -8.74586914 65.45352539 -9.76586914 65.11352539 C-10.40057308 52.56562087 -8.67985207 40.49065173 -6.83007812 28.10180664 C-6.32239257 24.69846056 -5.83102528 21.2930416 -5.34204102 17.88696289 C-5.02721618 15.72536885 -4.71149498 13.56390512 -4.39477539 11.40258789 C-4.24682022 10.38298981 -4.09886505 9.36339172 -3.94642639 8.31289673 C-3.80635666 7.38037079 -3.66628693 6.44784485 -3.52197266 5.48706055 C-3.39983902 4.66404449 -3.27770538 3.84102844 -3.15187073 2.99307251 C-2.65547162 0.57596973 -2.48498625 0.15975648 0 0 Z " fill="#111111" transform="translate(677.765869140625,-0.113525390625)"/>
<path d="M0 0 C3 1 3 1 4.71728516 3.96606445 C6.50592568 8.56650046 6.04811802 12.71845777 5.5234375 17.54296875 C5.43847519 18.45686874 5.35351288 19.37076874 5.26597595 20.31236267 C4.98632747 23.27271024 4.68107719 26.22977879 4.375 29.1875 C4.17716846 31.2256074 3.98080476 33.2638578 3.78588867 35.30224609 C3.21556011 41.20414481 2.61230483 47.10232777 2 53 C1.83965289 54.55712601 1.67933161 56.11425469 1.51904297 57.67138672 C0.90793557 63.57795128 0.27578282 69.48178237 -0.38671875 75.3828125 C-1.00499039 80.91552635 -1.51281367 86.45427154 -2 92 C-6.29 92 -10.58 92 -15 92 C-15.23727192 83.75023787 -14.34812858 75.677608 -13.375 67.5 C-13.28863281 66.76566742 -13.20226562 66.03133484 -13.11328125 65.27474976 C-11.75916952 53.88944826 -10.04766233 42.59319227 -8 31.3125 C-7.88066101 30.64669922 -7.76132202 29.98089844 -7.6383667 29.29492188 C-2.85779516 2.85779516 -2.85779516 2.85779516 0 0 Z " fill="#111111" transform="translate(637,408)"/>
<path d="M0 0 C8.25 0 16.5 0 25 0 C23.05875082 5.82374753 21.12448546 11.29315776 18.59375 16.83203125 C18.27243607 17.54269745 17.95112213 18.25336365 17.62007141 18.98556519 C16.58626314 21.26410403 15.54417924 23.53869682 14.5 25.8125 C14.14473236 26.58912994 13.78946472 27.36575989 13.4234314 28.16592407 C6.55857826 43.14183669 -0.50726004 58.46258651 -10 72 C-10.33 72 -10.66 72 -11 72 C-10.42146029 63.12884518 -9.21087053 54.46236798 -7.71484375 45.703125 C-7.49164087 44.37513318 -7.26887591 43.04706768 -7.04652405 41.71893311 C-6.4672597 38.26598084 -5.8821536 34.81404477 -5.29571533 31.36230469 C-4.69548076 27.82287413 -4.10092808 24.28248955 -3.50585938 20.7421875 C-2.34271659 13.82719334 -1.17285782 6.91335405 0 0 Z " fill="#717171" transform="translate(700,2)"/>
<path d="M0 0 C0.66 0 1.32 0 2 0 C2.34289062 1.07507813 2.68578125 2.15015625 3.0390625 3.2578125 C6.95835737 15.35594074 11.23494144 27.31645211 15.625 39.25 C15.92184692 40.05719482 16.21869385 40.86438965 16.52453613 41.69604492 C19.85062263 50.7194492 23.24789073 59.71016944 26.796875 68.6484375 C27.10019745 69.41269043 27.4035199 70.17694336 27.71603394 70.96435547 C29.16084197 74.59637924 30.61683192 78.22345524 32.08837891 81.84472656 C32.60842583 83.13866086 33.12844686 84.43260558 33.6484375 85.7265625 C34.10395996 86.84627441 34.55948242 87.96598633 35.02880859 89.11962891 C36 92 36 92 36 96 C36.66 96 37.32 96 38 96 C38.495 99.465 38.495 99.465 39 103 C32.98246574 99.29354774 27.77468604 95.13336403 22.5859375 90.34375 C19.15600435 87.23504926 15.56671546 84.34821363 11.96875 81.4375 C8.6823749 78.73921307 5.46546125 75.96939578 2.25 73.1875 C-5.01075775 66.92588326 -12.46117809 60.92250487 -20 55 C-20.61391602 54.51660156 -21.22783203 54.03320312 -21.86035156 53.53515625 C-23.63216844 52.14335119 -25.40861637 50.75775742 -27.1875 49.375 C-28.72470703 48.18003906 -28.72470703 48.18003906 -30.29296875 46.9609375 C-34.58169587 43.70082783 -34.58169587 43.70082783 -39.6875 43.3125 C-41.94160952 43.78284847 -41.94160952 43.78284847 -43 45 C-42.5374546 52.55240895 -40.25522285 59.62310591 -38.1328125 66.84765625 C-37.73729742 68.21073905 -37.34235689 69.57398867 -36.94795227 70.93739319 C-36.11222694 73.82247781 -35.27292004 76.70648475 -34.43063354 79.58966064 C-33.11953996 84.07801014 -31.8167398 88.56873692 -30.51586914 93.06005859 C-30.081806 94.55847273 -29.64773923 96.05688582 -29.21366882 97.55529785 C-28.99969641 98.29398605 -28.78572399 99.03267426 -28.56526756 99.79374695 C-27.91896003 102.02392319 -27.27188177 104.25387447 -26.62458801 106.48376465 C-23.18076443 118.35065479 -19.7863342 130.23093187 -16.4375 142.125 C-16.10603973 143.29858566 -16.10603973 143.29858566 -15.7678833 144.49588013 C-13.75018077 151.64078707 -11.73466963 158.7800237 -10 166 C-10.99 166 -11.98 166 -13 166 C-13 164.02 -13 162.04 -13 160 C-13.66 160 -14.32 160 -15 160 C-15.20568604 159.2471875 -15.41137207 158.494375 -15.62329102 157.71875 C-16.42507612 154.78813318 -17.2287284 151.85803513 -18.03344727 148.92822266 C-18.53730254 147.09183643 -19.03921045 145.25491624 -19.54101562 143.41796875 C-23.56739104 128.76963152 -27.87736665 114.20338787 -32.17016602 99.63134766 C-33.87957309 93.82733587 -35.5816373 88.02123995 -37.27552128 82.21267891 C-38.24329371 78.89544345 -39.21555467 75.5796416 -40.19677734 72.26635742 C-41.35198817 68.36474303 -42.48898084 64.45802691 -43.625 60.55078125 C-43.98005615 59.36132401 -44.3351123 58.17186676 -44.70092773 56.94636536 C-45.01876221 55.84298325 -45.33659668 54.73960114 -45.6640625 53.6027832 C-45.94717285 52.63814651 -46.2302832 51.67350983 -46.52197266 50.67964172 C-47.04789009 47.73154614 -46.89239705 45.84771082 -46 43 C-43.45225562 40.23387753 -42.04755138 39.04761597 -38.25 38.875 C-25.39349228 43.3253296 -13.79747837 55.45816498 -3.40234375 64.02734375 C-1.71636091 65.41176868 -0.01137064 66.77321373 1.70703125 68.1171875 C4 70 4 70 5.625 72.1875 C6.95882513 74.29998833 6.95882513 74.29998833 10 75 C11 76.33333333 12 77.66666667 13 79 C13.99 79.33 14.98 79.66 16 80 C17 81.33333333 18 82.66666667 19 84 C20.485 84.495 20.485 84.495 22 85 C23.33333333 86.66666667 24.66666667 88.33333333 26 90 C27.485 90.495 27.485 90.495 29 91 C30.38576923 92.62332967 31.72641268 94.28724465 33 96 C30.46925265 88.07570953 27.50101017 80.32902632 24.53189087 72.56188965 C19.16262893 58.50427764 13.91559883 44.40640693 8.8125 30.25 C8.53891663 29.49214203 8.26533325 28.73428406 7.98345947 27.95346069 C-0.44406463 4.58866787 -0.44406463 4.58866787 0 0 Z " fill="#4F4F4F" transform="translate(804,334)"/>
<path d="M0 0 C2.43011843 2.74964109 3.56047609 5.19598899 4.4987793 8.71972656 C4.7532785 9.65827484 5.00777771 10.59682312 5.26998901 11.56381226 C5.66808273 13.08683456 5.66808273 13.08683456 6.07421875 14.640625 C6.3594339 15.70374908 6.64464905 16.76687317 6.93850708 17.86221313 C7.86397875 21.32244698 8.77613066 24.78602758 9.6875 28.25 C10.31747496 30.6200814 10.94792874 32.99003559 11.57885742 35.35986328 C24.33125964 83.39108862 24.33125964 83.39108862 26 94 C27.32 94.33 28.64 94.66 30 95 C30 96.32 30 97.64 30 99 C28.35 99 26.7 99 25 99 C21.50583759 87.47789624 18.37051847 75.89633761 15.43478394 64.22021484 C11.89806519 50.17106104 8.30391407 36.13673149 4.51940918 22.15209961 C4.13390132 20.72635939 3.75033074 19.30009382 3.36877441 17.87329102 C2.84403804 15.91398092 2.31091339 13.95692303 1.77734375 12 C1.48077881 10.906875 1.18421387 9.81375 0.87866211 8.6875 C0.07465997 5.82092934 0.07465997 5.82092934 -2 3 C-3.32 3.33 -4.64 3.66 -6 4 C-8.34508442 11.92763052 -9.02810524 20.05808804 -9.875 28.25 C-10.04450298 29.8588066 -10.21401823 31.46761191 -10.38354492 33.07641602 C-10.93777329 38.38275264 -11.47205184 43.69099007 -12 49 C-12.09641785 49.96935486 -12.19283569 50.93870972 -12.29217529 51.93743896 C-12.88811819 57.95647448 -13.46959769 63.97671881 -14.03546143 69.99865723 C-14.21942309 71.95013423 -14.40572455 73.90139216 -14.59442139 75.85241699 C-14.85858746 78.59755702 -15.11238005 81.34346353 -15.36328125 84.08984375 C-15.44323837 84.90394211 -15.5231955 85.71804047 -15.60557556 86.55680847 C-15.99044056 90.90999534 -15.95317929 94.68590449 -15 99 C-16.32 99 -17.64 99 -19 99 C-19.3543841 88.96192975 -18.26844123 79.09345286 -17.25 69.125 C-17.06894092 67.32041717 -16.88811769 65.51581066 -16.70751953 63.71118164 C-16.24014137 59.06307417 -15.76420537 54.4158871 -15.28503418 49.76898193 C-15.00489056 47.04750962 -14.72725646 44.32579158 -14.45019531 41.60400391 C-14.01619221 37.34941661 -13.57486708 33.09565172 -13.12731934 28.84246826 C-12.96066191 27.25398194 -12.79567201 25.66531967 -12.63244629 24.07647705 C-12.40394112 21.8615309 -12.16785918 19.64751868 -11.9296875 17.43359375 C-11.73221924 15.56272095 -11.73221924 15.56272095 -11.53076172 13.65405273 C-10.00391111 3.14238161 -10.00391111 3.14238161 -7.1875 -0.0625 C-4.28778416 -1.30523536 -2.93227258 -1.12779715 0 0 Z " fill="#424242" transform="translate(654,401)"/>
<path d="M0 0 C0.99 0.33 1.98 0.66 3 1 C2.86219116 1.8363649 2.72438232 2.6727298 2.58239746 3.53443909 C1.28180803 11.43392466 -0.01340841 19.33426862 -1.30266571 27.23561192 C-1.96560043 31.29729406 -2.63057475 35.35861984 -3.30029297 39.41918945 C-3.94707452 43.34116715 -4.5883902 47.26400367 -5.22599792 51.18748283 C-5.46965403 52.68083188 -5.71524564 54.17386651 -5.96284485 55.66656685 C-6.31050802 57.76461165 -6.65114096 59.86369023 -6.99023438 61.96313477 C-7.2833551 63.75183739 -7.2833551 63.75183739 -7.58239746 65.57667542 C-8.01047321 69.08585486 -8.07283089 72.46845893 -8 76 C-7.01 76.33 -6.02 76.66 -5 77 C0.22530674 72.48634884 3.189724 66.93383912 6.5 60.9375 C7.10730957 59.84421387 7.71461914 58.75092773 8.34033203 57.62451172 C18.50378584 39.04194009 27.00964639 19.60171339 35 0 C35.99 0 36.98 0 38 0 C37.35759504 4.02604699 36.0835305 7.38257148 34.41015625 11.09375 C33.87841797 12.27831787 33.34667969 13.46288574 32.79882812 14.68334961 C32.22056678 15.95580044 31.64177867 17.22801199 31.0625 18.5 C30.46674393 19.81451051 29.8710413 21.12904524 29.27539062 22.44360352 C27.79432206 25.70627458 26.30453677 28.96489021 24.81231689 32.22247314 C24.07651794 33.83256203 23.34628355 35.44519101 22.61669922 37.05810547 C17.94223034 47.38005106 12.84111802 57.33678728 7.125 67.125 C6.57714844 68.06851318 6.02929688 69.01202637 5.46484375 69.98413086 C4.94277344 70.8581958 4.42070313 71.73226074 3.8828125 72.6328125 C3.19276123 73.79127686 3.19276123 73.79127686 2.48876953 74.97314453 C0.84717931 77.20805467 -0.61829691 78.58098005 -3 80 C-6.625 79.875 -6.625 79.875 -10 79 C-12.75076737 74.87384895 -11.67991609 71.76301318 -10.91796875 67.11328125 C-10.77699265 66.19573563 -10.63601654 65.27819 -10.49076843 64.33283997 C-10.00760614 61.21955838 -9.50496902 58.10981552 -9 55 C-8.63355685 52.70753063 -8.26718519 50.41504983 -7.90087891 48.12255859 C-6.72450226 40.80759272 -5.51973576 33.49742495 -4.3125 26.1875 C-3.89237707 23.63349661 -3.47245398 21.07946033 -3.05273438 18.52539062 C-2.03745275 12.34988061 -1.01973185 6.17477665 0 0 Z " fill="#505050" transform="translate(694,0)"/>
<path d="M0 0 C0.33 1.32 0.66 2.64 1 4 C-0.0372522 4.42285278 -0.0372522 4.42285278 -1.09545898 4.85424805 C-9.5061285 8.31705727 -17.79181784 12.03119927 -26.0625 15.8125 C-27.50131638 16.46865299 -28.94020146 17.12465534 -30.37915039 17.78051758 C-34.15617695 19.50271216 -37.93204963 21.22742183 -41.7076416 22.95275879 C-44.73069348 24.33381007 -47.7544684 25.71327421 -50.77822876 27.09277344 C-63.82462143 33.04540843 -76.86817634 39.00358113 -89.87988281 45.03173828 C-94.01135148 46.94377759 -98.14818146 48.84405112 -102.28515625 50.74414062 C-104.8333703 51.92291878 -107.37046831 53.12289762 -109.90625 54.328125 C-111.33302047 54.99025792 -112.76007807 55.65177268 -114.1875 56.3125 C-115.94126953 57.14201172 -115.94126953 57.14201172 -117.73046875 57.98828125 C-121.60573802 59.18743865 -124.08675 58.97472894 -128 58 C-130 55.9375 -130 55.9375 -131 53 C-130.54684426 47.26819221 -129.33928632 42.03699175 -127.625 36.5625 C-127.41617188 35.84384766 -127.20734375 35.12519531 -126.9921875 34.38476562 C-126.3515625 32.31640625 -126.3515625 32.31640625 -125 29 C-124.01 28.67 -123.02 28.34 -122 28 C-122.18175781 28.64324219 -122.36351562 29.28648437 -122.55078125 29.94921875 C-124.03342094 35.27911836 -125.44087069 40.6247271 -126.75 46 C-127.01296875 47.0725 -127.2759375 48.145 -127.546875 49.25 C-128.23257952 52.07935783 -128.23257952 52.07935783 -127 55 C-123.23069855 56.01679265 -121.24912655 56.06136224 -117.73828125 54.359375 C-116.88919189 53.95831543 -116.04010254 53.55725586 -115.1652832 53.14404297 C-114.22386475 52.68400879 -113.28244629 52.22397461 -112.3125 51.75 C-110.14679633 50.72452627 -107.98004422 49.70126512 -105.8125 48.6796875 C-104.91577324 48.25425156 -104.91577324 48.25425156 -104.00093079 47.82022095 C-96.21879117 44.13549409 -88.35856793 40.62282966 -80.5072937 37.08859253 C-64.05098051 29.6775396 -47.63260255 22.18638793 -31.25317383 14.60693359 C-29.83042375 13.94979925 -28.40749552 13.29305047 -26.984375 12.63671875 C-26.30799484 12.32476562 -25.63161469 12.0128125 -24.93473816 11.69140625 C-19.32628646 9.11937527 -13.66001492 6.70127282 -7.96191406 4.33520508 C-5.15705167 3.07079752 -2.59926828 1.64064513 0 0 Z " fill="#D2D2D2" transform="translate(999,156)"/>
<path d="M0 0 C3.76506504 0.86047087 5.78730598 1.90066435 8.890625 4.14453125 C9.92703125 4.86898438 10.9634375 5.5934375 12.03125 6.33984375 C12.60294922 6.73977539 13.17464844 7.13970703 13.76367188 7.55175781 C17.32205515 9.97893808 20.9889795 12.23622749 24.640625 14.51953125 C31.38499141 18.75684364 38.09180006 23.04695194 44.765625 27.39453125 C45.59215576 27.93287598 46.41868652 28.4712207 47.27026367 29.02587891 C49.72746346 30.62729782 52.18411616 32.2295527 54.640625 33.83203125 C57.74300679 35.85562317 60.84728579 37.87625054 63.953125 39.89453125 C64.96560303 40.55594116 64.96560303 40.55594116 65.99853516 41.23071289 C73.32173512 46.55684169 73.32173512 46.55684169 81.640625 48.83203125 C82.640625 49.83203125 82.640625 49.83203125 82.703125 52.39453125 C82.6825 53.19890625 82.661875 54.00328125 82.640625 54.83203125 C75.95787411 51.65172276 69.73020164 48.12604561 63.578125 44.01953125 C61.83526316 42.87144232 60.09174086 41.72435555 58.34765625 40.578125 C57.42936035 39.97339355 56.51106445 39.36866211 55.56494141 38.74560547 C50.32487068 35.31667958 45.04383715 31.95182671 39.765625 28.58203125 C37.6366787 27.22141683 35.50777122 25.86074167 33.37890625 24.5 C32.38713379 23.86626465 31.39536133 23.2325293 30.37353516 22.57958984 C27.45583462 20.7138671 24.54037256 18.84472998 21.62768555 16.97119141 C20.01889706 15.93681945 18.40793106 14.90583661 16.796875 13.875 C14.44859722 12.35501327 12.11913422 10.81656552 9.796875 9.2578125 C9.15451904 8.83169678 8.51216309 8.40558105 7.8503418 7.96655273 C6.61695837 7.14773597 5.38889657 6.32082595 4.16723633 5.48461914 C2.34261926 4.24608017 2.34261926 4.24608017 -0.359375 2.83203125 C-1.349375 3.16203125 -2.339375 3.49203125 -3.359375 3.83203125 C-4.65500023 7.71890695 -3.77420995 9.26196154 -2.453125 13.109375 C-2.03933594 14.34494141 -1.62554688 15.58050781 -1.19921875 16.85351562 C-0.53038442 18.81407003 0.1419501 20.77338246 0.81591797 22.73217773 C1.46403452 24.62581142 2.0993762 26.52380226 2.734375 28.421875 C3.12302734 29.55488037 3.51167969 30.68788574 3.91210938 31.85522461 C4.62087615 34.75133497 4.69904822 36.09791039 3.640625 38.83203125 C3.640625 38.17203125 3.640625 37.51203125 3.640625 36.83203125 C2.980625 36.83203125 2.320625 36.83203125 1.640625 36.83203125 C0.32129994 32.97886762 -0.97793097 29.1195456 -2.25952148 25.25366211 C-2.69750948 23.94163541 -3.14078802 22.63136179 -3.58959961 21.32299805 C-4.23665173 19.43366344 -4.86266877 17.53716678 -5.48828125 15.640625 C-5.87056885 14.50423584 -6.25285645 13.36784668 -6.64672852 12.19702148 C-7.46123205 8.35108035 -7.31602143 5.63684201 -6.359375 1.83203125 C-3.359375 -0.16796875 -3.359375 -0.16796875 0 0 Z " fill="#4F4F4F" transform="translate(917.359375,360.16796875)"/>
<path d="M0 0 C0.99 0.33 1.98 0.66 3 1 C2.70867188 1.58523437 2.41734375 2.17046875 2.1171875 2.7734375 C-0.83831784 8.96326943 -3.16607637 15.25088674 -5.27587891 21.76513672 C-8.26808689 30.94875715 -11.52123817 40.03929494 -14.76126099 49.13772583 C-18.36069151 59.24620601 -21.82541927 69.39140034 -25.19732666 79.57794189 C-27.53404624 86.62896791 -29.89283658 93.67247569 -32.26928711 100.71020508 C-32.89009791 102.55415016 -33.50752198 104.39923839 -34.12182617 106.24536133 C-35.02470026 108.95682504 -35.9388582 111.66424772 -36.85546875 114.37109375 C-37.12739548 115.19596786 -37.3993222 116.02084198 -37.67948914 116.87071228 C-37.94018692 117.63323807 -38.2008847 118.39576385 -38.46948242 119.18139648 C-38.69343185 119.84880356 -38.91738129 120.51621063 -39.14811707 121.20384216 C-40.12135844 123.25587895 -41.32026202 124.49131112 -43 126 C-44 124 -44 124 -43.07885742 120.83666992 C-42.59544213 119.46519265 -42.10363106 118.09665855 -41.60546875 116.73046875 C-41.34280212 115.9912468 -41.0801355 115.25202484 -40.80950928 114.49040222 C-40.24040423 112.89148655 -39.66784304 111.2937978 -39.09225464 109.69720459 C-38.17993296 107.16650974 -37.27632439 104.63286207 -36.37524414 102.09814453 C-35.45896023 99.5209151 -34.54217959 96.94387675 -33.62266541 94.36779785 C-31.01200054 87.05339999 -28.46017873 79.72026233 -25.9375 72.375 C-25.54626953 71.23820801 -25.15503906 70.10141602 -24.75195312 68.93017578 C-22.72787979 63.04412459 -20.71047925 57.15579772 -18.69468689 51.26690674 C-17.88916903 48.91371538 -17.08338214 46.56061626 -16.27758789 44.20751953 C-15.24945942 41.20502323 -14.22273964 38.20205094 -13.19702148 35.19873047 C-10.20195713 26.43976216 -7.13837032 17.7087419 -4 9 C-3.34 9 -2.68 9 -2 9 C-2.04125 8.071875 -2.0825 7.14375 -2.125 6.1875 C-2 3 -2 3 0 0 Z " fill="#B1B1B1" transform="translate(856,0)"/>
<path d="M0 0 C4.20437682 0.31143532 7.33965529 2.91443448 10 6 C11.66179574 9.36610003 12.73804595 12.84688795 13.8125 16.4375 C14.11091797 17.36626953 14.40933594 18.29503906 14.71679688 19.25195312 C16.15313099 23.80736943 17.3891256 28.24787317 18 33 C15.12206249 31.70989008 13.03816083 30.42638194 11 28 C10.67 27.01 10.34 26.02 10 25 C9.071875 24.566875 9.071875 24.566875 8.125 24.125 C5.31686383 22.63833968 4.56191332 20.716371 3 18 C2.01 17.34 1.02 16.68 0 16 C-1.10082848 10.9962342 -1.17571546 6.09574835 -1 1 C-0.67 0.67 -0.34 0.34 0 0 Z " fill="#111111" transform="translate(907,383)"/>
<path d="M0 0 C0.66 0 1.32 0 2 0 C2.34289062 1.07507813 2.68578125 2.15015625 3.0390625 3.2578125 C6.95838109 15.35601395 11.23610973 27.31597213 15.625 39.25 C15.92151459 40.05719482 16.21802917 40.86438965 16.52352905 41.69604492 C19.84761779 50.72589 23.250502 59.7173202 26.83203125 68.6484375 C27.13772034 69.41269043 27.44340942 70.17694336 27.75836182 70.96435547 C29.21431962 74.59823847 30.6839233 78.22563548 32.17626953 81.84472656 C32.69983116 83.13855582 33.22312168 84.43249483 33.74609375 85.7265625 C34.20685303 86.84627441 34.6676123 87.96598633 35.14233398 89.11962891 C36.00227532 92.00764139 36.0975108 93.24639767 35 96 C31.79007481 92.32041846 30.35011777 88.19409857 28.6640625 83.6875 C28.34812637 82.8578624 28.03219025 82.02822479 27.7066803 81.17344666 C26.67263603 78.4514918 25.64848607 75.72594068 24.625 73 C23.91143955 71.11262637 23.19765141 69.22533881 22.48364258 67.33813477 C-0.59796974 6.17902065 -0.59796974 6.17902065 0 0 Z " fill="#464646" transform="translate(804,334)"/>
<path d="M0 0 C-1.50370559 4.14877807 -3.81806944 5.32796435 -7.625 7.375 C-8.90201596 8.07635393 -10.17797703 8.77963054 -11.453125 9.484375 C-12.52916992 10.07508789 -12.52916992 10.07508789 -13.62695312 10.67773438 C-18.25129152 13.25442334 -22.80731515 15.94961541 -27.375 18.625 C-29.44659715 19.83336322 -31.51821205 21.04169601 -33.58984375 22.25 C-37.92198283 24.78056997 -42.24640813 27.32376432 -46.56640625 29.875 C-48.16766357 30.81738525 -48.16766357 30.81738525 -49.80126953 31.77880859 C-51.83451954 32.9757132 -53.86558786 34.17633477 -55.89404297 35.38134766 C-70.62389271 44.03771599 -70.62389271 44.03771599 -76.9375 43.9375 C-80 43 -80 43 -82 40 C-82.76391834 33.76133359 -80.87326927 28.47389255 -78 23 C-77.34 22.67 -76.68 22.34 -76 22 C-76.44755431 25.13288016 -76.9836039 27.9546696 -78.0625 30.9375 C-79.12831998 34.4191786 -79.14482941 37.37926472 -79 41 C-72.72195401 40.5510671 -68.39132257 39.07101618 -62.9375 36 C-62.19636963 35.59483154 -61.45523926 35.18966309 -60.69165039 34.7722168 C-54.80097201 31.52325061 -49.02782747 28.08800348 -43.28515625 24.5859375 C-37.86171431 21.29044785 -32.36333002 18.12325236 -26.875 14.9375 C-19.23251529 10.50121195 -11.64745374 6.00731052 -4.1953125 1.2578125 C-2 0 -2 0 0 0 Z " fill="#D4D4D4" transform="translate(890,103)"/>
<path d="M0 0 C0.33 0.66 0.66 1.32 1 2 C1.66 2 2.32 2 3 2 C8.90796081 21.72048748 14.78912785 41.44103163 20.25341797 61.29003906 C21.24794415 64.89999347 22.25229545 68.50718779 23.25634766 72.11450195 C24.17305726 75.40907085 25.08668462 78.70448873 26 82 C24.515 82.495 24.515 82.495 23 83 C23 81.02 23 79.04 23 77 C22.34 77 21.68 77 21 77 C20.79431396 76.2471875 20.58862793 75.494375 20.37670898 74.71875 C15.20621017 55.81998196 9.97240276 36.94203295 4.23046875 18.20703125 C3.94961426 17.28672119 3.66875977 16.36641113 3.37939453 15.41821289 C2.85044987 13.69052724 2.31658402 11.96433743 1.77685547 10.23999023 C1.54240723 9.47501221 1.30795898 8.71003418 1.06640625 7.921875 C0.85959229 7.25768555 0.65277832 6.59349609 0.43969727 5.90917969 C0 4 0 4 0 0 Z " fill="#464646" transform="translate(768,417)"/>
<path d="M0 0 C0.99 0 1.98 0 3 0 C2.56738866 5.08376281 2.12868104 10.16697569 1.6875 15.25 C1.62163696 16.01287323 1.55577393 16.77574646 1.48791504 17.56173706 C0.46287657 29.39107162 -0.71219659 41.19060637 -2.1730957 52.97558594 C-2.90120683 59.23990976 -2.96891015 64.76100422 -2 71 C-3.32 71 -4.64 71 -6 71 C-6.40270366 60.5953306 -5.18196627 50.33207913 -4.125 40 C-3.94873484 38.23572536 -3.77295087 36.47140258 -3.59765625 34.70703125 C-2.4427029 23.13341952 -1.22765842 11.56609551 0 0 Z " fill="#3B3B3B" transform="translate(641,429)"/>
<path d="M0 0 C0.99 0.33 1.98 0.66 3 1 C2.1897613 6.32143133 1.37167578 11.64157533 0.54638672 16.96069336 C0.26689666 18.76928225 -0.01046963 20.5782007 -0.28564453 22.38745117 C-0.68220211 24.99227614 -1.08645442 27.5958092 -1.4921875 30.19921875 C-1.6131076 31.00461594 -1.73402771 31.81001312 -1.85861206 32.63981628 C-2.49048791 36.64474651 -3.13097794 40.35093585 -5 44 C-5.99 44.495 -5.99 44.495 -7 45 C-6.16430544 39.55558915 -5.32810887 34.11125572 -4.49145508 28.66699219 C-4.20713866 26.81642725 -3.92295737 24.96584155 -3.63891602 23.11523438 C-3.22968846 20.44916346 -2.81996866 17.78316857 -2.41015625 15.1171875 C-2.28407486 14.29507782 -2.15799347 13.47296814 -2.02809143 12.62594604 C-1.37987067 8.41230719 -0.71239036 4.20339875 0 0 Z " fill="#454545" transform="translate(694,0)"/>
<path d="M0 0 C1.09880153 3.29640458 0.95777646 3.85718098 -0.14453125 6.9765625 C-0.40943359 7.729375 -0.67433594 8.4821875 -0.94726562 9.2578125 C-1.23279297 10.03898437 -1.51832031 10.82015625 -1.8125 11.625 C-2.08642578 12.41390625 -2.36035156 13.2028125 -2.64257812 14.015625 C-4.73986951 19.86993475 -4.73986951 19.86993475 -7 21 C-6.44854729 15.76119922 -5.57077907 11.02649303 -4 6 C-4.99 6 -5.98 6 -7 6 C-7 6.66 -7 7.32 -7 8 C-7.99 8 -8.98 8 -10 8 C-10 8.66 -10 9.32 -10 10 C-11.65 10.33 -13.3 10.66 -15 11 C-15 11.66 -15 12.32 -15 13 C-15.66 13 -16.32 13 -17 13 C-15.66316942 9.83597303 -14.4938082 8.35236405 -11.5234375 6.640625 C-10.853125 6.24746094 -10.1828125 5.85429688 -9.4921875 5.44921875 C-8.44417969 4.85560547 -8.44417969 4.85560547 -7.375 4.25 C-6.31539062 3.63318359 -6.31539062 3.63318359 -5.234375 3.00390625 C-3.49501553 1.99319737 -1.74820597 0.99532895 0 0 Z " fill="#B8B8B8" transform="translate(907,92)"/>
<path d="M0 0 C0.99 0.33 1.98 0.66 3 1 C2.67386719 1.67804688 2.34773437 2.35609375 2.01171875 3.0546875 C-0.62346542 8.66708564 -2.76167997 14.07081236 -4.2265625 20.1015625 C-4.48179687 20.72804688 -4.73703125 21.35453125 -5 22 C-5.99 22.33 -6.98 22.66 -8 23 C-7.52372025 21.04096255 -7.04388577 19.08278903 -6.5625 17.125 C-6.29566406 16.03445312 -6.02882813 14.94390625 -5.75390625 13.8203125 C-5 11 -5 11 -4 9 C-3.34 9 -2.68 9 -2 9 C-2.04125 8.071875 -2.0825 7.14375 -2.125 6.1875 C-2 3 -2 3 0 0 Z " fill="#B1B1B1" transform="translate(856,0)"/>
<path d="M0 0 C0.33 0.66 0.66 1.32 1 2 C1.66 2 2.32 2 3 2 C5.08989546 7.31329355 6.6112798 11.28728072 5 17 C3.54851359 14.2232434 2.38091317 11.46693581 1.375 8.5 C0.98441406 7.37078125 0.98441406 7.37078125 0.5859375 6.21875 C0 4 0 4 0 0 Z " fill="#444444" transform="translate(920,397)"/>
<path d="M0 0 C0.99 0.33 1.98 0.66 3 1 C2.01 3.97 1.02 6.94 0 10 C-0.99 9.34 -1.98 8.68 -3 8 C-2.25 2.25 -2.25 2.25 0 0 Z " fill="#292929" transform="translate(859,0)"/>
<path d="M0 0 C2 3 2 3 1.609375 5.2265625 C1.32578125 6.01804688 1.0421875 6.80953125 0.75 7.625 C0.47671875 8.42164063 0.2034375 9.21828125 -0.078125 10.0390625 C-1 12 -1 12 -3 13 C-2.68817931 11.58318366 -2.37551263 10.16655349 -2.0625 8.75 C-1.88847656 7.96109375 -1.71445312 7.1721875 -1.53515625 6.359375 C-1.052444 4.23121297 -0.53836822 2.11467158 0 0 Z " fill="#ABABAB" transform="translate(885,151)"/>
<path d="M0 0 C1.1875 1.5625 1.1875 1.5625 2 4 C-0.24489796 10.62244898 -0.24489796 10.62244898 -3 12 C-2.68950274 10.56206608 -2.3765224 9.1246682 -2.0625 7.6875 C-1.88847656 6.88699219 -1.71445312 6.08648437 -1.53515625 5.26171875 C-1 3 -1 3 0 0 Z " fill="#ACACAC" transform="translate(878,173)"/>
<path d="M0 0 C1 2 1 2 0.22265625 4.3828125 C-0.16019531 5.28773438 -0.54304687 6.19265625 -0.9375 7.125 C-1.31777344 8.03507813 -1.69804688 8.94515625 -2.08984375 9.8828125 C-2.39019531 10.58148438 -2.69054687 11.28015625 -3 12 C-3.33 12 -3.66 12 -4 12 C-3.125 4.375 -3.125 4.375 -2 1 C-1.34 0.67 -0.68 0.34 0 0 Z " fill="#B8B8B8" transform="translate(890,142)"/>
<path d="M0 0 C1 2 1 2 0.22265625 4.3828125 C-0.16019531 5.28773437 -0.54304687 6.19265625 -0.9375 7.125 C-1.31777344 8.03507812 -1.69804688 8.94515625 -2.08984375 9.8828125 C-2.39019531 10.58148438 -2.69054687 11.28015625 -3 12 C-3.33 12 -3.66 12 -4 12 C-3.125 4.375 -3.125 4.375 -2 1 C-1.34 0.67 -0.68 0.34 0 0 Z " fill="#B8B8B8" transform="translate(826,89)"/>
<path d="M0 0 C1 2 1 2 0.22265625 4.3828125 C-0.16019531 5.28773437 -0.54304687 6.19265625 -0.9375 7.125 C-1.31777344 8.03507812 -1.69804688 8.94515625 -2.08984375 9.8828125 C-2.39019531 10.58148438 -2.69054687 11.28015625 -3 12 C-3.33 12 -3.66 12 -4 12 C-3.125 4.375 -3.125 4.375 -2 1 C-1.34 0.67 -0.68 0.34 0 0 Z " fill="#B8B8B8" transform="translate(849,22)"/>
<path d="M0 0 C2 3 2 3 1.86328125 5.0078125 C1.68152344 5.70648438 1.49976563 6.40515625 1.3125 7.125 C1.14363281 7.82882813 0.97476563 8.53265625 0.80078125 9.2578125 C0.53652344 9.83273438 0.27226563 10.40765625 0 11 C-0.99 11.33 -1.98 11.66 -3 12 C-2.01 8.04 -1.02 4.08 0 0 Z " fill="#AAAAAA" transform="translate(844,31)"/>
<path d="M0 0 C1.2077558 3.62326739 0.54311128 4.64146369 -1 8 C-1.66 8 -2.32 8 -3 8 C-3.33 8.66 -3.66 9.32 -4 10 C-4.25 7.25 -4.25 7.25 -4 4 C-2 1.625 -2 1.625 0 0 Z " fill="#C3C3C3" transform="translate(907,92)"/>
<path d="M0 0 C1.125 1.625 1.125 1.625 2 4 C1.3125 7.1875 1.3125 7.1875 0 10 C-0.99 10.33 -1.98 10.66 -3 11 C-1.125 3.375 -1.125 3.375 0 0 Z " fill="#ABABAB" transform="translate(835,58)"/>
<path d="M0 0 C1.64350079 3.28700157 2.41321669 5.47930015 3 9 C1.02 9.99 1.02 9.99 -1 11 C-0.67 7.37 -0.34 3.74 0 0 Z " fill="#4B4B4B" transform="translate(650,406)"/>
<path d="M0 0 C0.99 0.33 1.98 0.66 3 1 C1.515 4.465 1.515 4.465 0 8 C-0.66 7.67 -1.32 7.34 -2 7 C-1.125 1.125 -1.125 1.125 0 0 Z " fill="#919191" transform="translate(856,0)"/>
<path d="M0 0 C0.99 0.33 1.98 0.66 3 1 C3 2.32 3 3.64 3 5 C1.68 5 0.36 5 -1 5 C-0.67 3.35 -0.34 1.7 0 0 Z " fill="#474747" transform="translate(636,495)"/>
<path d="M0 0 C0.33 0 0.66 0 1 0 C1.19622241 4.21878192 0.80230168 7.17010894 -1 11 C-1.66 11 -2.32 11 -3 11 C-2.690625 9.9275 -2.38125 8.855 -2.0625 7.75 C-1.33187904 5.17133778 -0.62517096 2.60487898 0 0 Z " fill="#B4B4B4" transform="translate(825,105)"/>
<path d="M0 0 C0.66 0 1.32 0 2 0 C2 0.99 2 1.98 2 3 C1.34 3 0.68 3 0 3 C0 2.01 0 1.02 0 0 Z " fill="#D3D3D3" transform="translate(998,165)"/>
</svg>
