<?xml version="1.0" encoding="UTF-8"?><svg id="Layer_2" xmlns="http://www.w3.org/2000/svg" viewBox="0 0 353.35 128.35"><defs><style>.cls-1{fill:#fff;stroke-width:0px;}.cls-2{fill:none;stroke:#000;stroke-miterlimit:10;stroke-width:3px;}</style></defs><g id="bw"><g id="our_team_-_small.svg"><g id="Layer_29_Image"><path class="cls-1" d="M350.67,126.64c-.72,0-.72-.05-1.43-.05s-.72-.03-1.43-.03-.72.15-1.43.15-.72-.07-1.43-.07-.72-.01-1.43-.01-.72-.03-1.44-.03-.72,0-1.44,0-.72-.07-1.44-.07-.72-.02-1.44-.02-.72.08-1.44.08-.72.14-1.44.14-.72-.12-1.44-.12-.72.16-1.44.16-.72-.17-1.44-.17-.72-.06-1.44-.06-.72.17-1.44.17-.72.02-1.44.02-.72-.22-1.44-.22-.72.29-1.44.29-.72-.05-1.44-.05-.72-.03-1.44-.03-.72-.21-1.44-.21-.72,0-1.44,0-.72.05-1.44.05-.72.12-1.44.12-.72-.04-1.44-.04-.72-.13-1.44-.13-.72.16-1.44.16-.72-.05-1.44-.05-.72.2-1.44.2-.72-.02-1.44-.02-.72-.1-1.44-.1-.72-.03-1.44-.03-.72-.02-1.44-.02-.72.14-1.44.14-.72-.04-1.44-.04-.72.03-1.44.03-.72-.2-1.44-.2-.72.24-1.44.24-.72-.25-1.44-.25-.72.16-1.44.16-.72-.16-1.44-.16-.72.19-1.44.19-.72-.08-1.44-.08-.72.1-1.44.1-.72-.05-1.44-.05-.72-.02-1.44-.02-.72-.12-1.44-.12-.72.2-1.44.2-.72-.03-1.44-.03-.72-.12-1.44-.12-.72.15-1.44.15-.72-.06-1.44-.06-.72.1-1.44.1-.72-.19-1.44-.19-.72-.12-1.44-.12-.72.13-1.44.13-.72-.13-1.44-.13-.72.33-1.44.33-.72-.09-1.44-.09-.72-.19-1.44-.19-.72.2-1.44.2-.72-.12-1.44-.12-.72-.14-1.44-.14-.72.32-1.44.32-.72-.28-1.44-.28-.72.18-1.44.18-.72-.12-1.44-.12-.72.06-1.44.06-.72.11-1.44.11-.72-.27-1.44-.27-.72.25-1.44.25-.72-.1-1.44-.1-.72,0-1.44,0-.72-.07-1.44-.07-.72,0-1.44,0-.72.22-1.44.22-.72-.12-1.44-.12-.72-.04-1.44-.04-.72-.14-1.44-.14-.72.06-1.44.06-.72,0-1.44,0-.72-.03-1.44-.03-.72-.02-1.44-.02-.72.11-1.44.11-.72.19-1.44.19-.72-.09-1.44-.09-.72-.18-1.44-.18-.72.05-1.44.05-.72.2-1.44.2-.72-.03-1.44-.03-.72,0-1.44,0-.72-.04-1.44-.04-.72-.18-1.44-.18-.72.05-1.44.05-.72-.02-1.44-.02-.72.12-1.44.12-.72.08-1.44.08-.72-.25-1.44-.25-.72.1-1.44.1-.72.06-1.44.06-.72-.01-1.44-.01-.72.03-1.44.03-.72-.01-1.44-.01-.72-.03-1.44-.03-.72-.14-1.44-.14-.72.08-1.44.08-.72.21-1.44.21-.72-.09-1.44-.09-.72.05-1.44.05-.72,0-1.44,0-.72-.1-1.44-.1-.72-.07-1.44-.07-.72-.01-1.44-.01-.72.02-1.44.02-.72-.07-1.44-.07-.72.28-1.43.28-.72-.26-1.43-.26-.72.08-1.43.08-.72-.11-1.43-.11-.72.12-1.43.12-.72.12-1.44.12-.72-.18-1.44-.18-.72.22-1.44.22-.72-.1-1.44-.1-.72.07-1.44.07-.72-.1-1.44-.1-.72.11-1.44.11-.72-.13-1.44-.13-.72.01-1.44.01-.72.05-1.44.05-.72.1-1.44.1-.72,0-1.44,0-.72-.31-1.44-.31-.72.18-1.44.18-.72.07-1.43.07-.72.08-1.43.08-.72-.14-1.43-.14-.72-.12-1.43-.12-.72.08-1.43.08-.72-.1-1.43-.1-.72-.02-1.43-.02-.72.2-1.43.2-.72-.06-1.43-.06-.72.1-1.43.1-.72-.19-1.44-.19-.72.15-1.44.15-.72-.12-1.44-.12-.72.22-1.44.22-.72-.04-1.44-.04-.72-.3-1.44-.3-.72.21-1.44.21-.72-.18-1.44-.18-.72,0-1.44,0-.72.17-1.44.17-.72-.19-1.44-.19-.72.19-1.44.19-.72.02-1.44.02-.72-.16-1.44-.16-.72.24-1.44.24-.72,0-1.44,0-.72-.01-1.44-.01-.72-.23-1.44-.23-.72.19-1.44.19-.72-.22-1.44-.22-.72-.02-1.44-.02-.72.23-1.44.23-.72,0-1.44,0-.72-.15-1.44-.15-.72.24-1.44.24-.72-.03-1.44-.03-.72-.06-1.44-.06-.72-.17-1.44-.17-.72.01-1.44.01-.72.24-1.44.24-.72.03-1.44.03-.72-.23-1.44-.23-.72.17-1.44.17-.72-.26-1.44-.26-.72.23-1.44.23-.72-.01-1.44-.01-.72.09-1.44.09-.72-.17-1.44-.17-.72.01-1.44.01-.72,0-1.44,0-.72-.06-1.44-.06-.72.21-1.44.21-.72-.11-1.44-.11-.72-.08-1.44-.08-.72-.1-1.44-.1-.72.23-1.44.23-.72-.2-1.44-.2-.72.23-1.44.23-.72-.1-1.44-.1-.72.02-1.44.02-.72.13-1.44.13-.72-.03-1.44-.03-.72-.02-1.44-.02-.72-.16-1.44-.16-.72.12-1.44.12-.72-.06-1.44-.06-.72-.01-1.44-.01-.72-.16-1.44-.16-.72.28-1.44.28-.72-.02-1.44-.02-.72-.08-1.44-.08-.72.11-1.44.11-.72,0-1.44,0-.72-.15-1.44-.15-.72.18-1.44.18-.72-.13-1.44-.13-.72.07-1.44.07-.72-.04-1.44-.04-.72-.14-1.44-.14-.72.13-1.44.13-.72.03-1.44.03-.72.07-1.44.07-.72-.13-1.44-.13-.72.15-1.44.15-.72-.06-1.44-.06-.72-.13-1.44-.13-.72.08-1.44.08-.72.01-1.44.01-.72.1-1.44.1-.72-.16-1.44-.16-.72.15-1.44.15-.72-.23-1.44-.23-.72.13-1.44.13-.72.06-1.44.06-.72,0-1.44,0-.72.02-1.44.02-.72-.17-1.45-.17-.72-.09-1.44-.09-.72.3-1.44.3-.72-.3-1.45-.3-.72-.04-1.44-.04-.72.28-1.45.28-.72-.04-1.45-.04-.72-.23-1.45-.23-.72.19-1.45.19-.73.13-1.45.13-.73-.26-1.45-.26c-.55,0-1.09-.35-1.09-.91,0-.72-.07-.72-.07-1.44s.25-.72.25-1.44-.17-.72-.17-1.44.18-.72.18-1.44-.1-.72-.1-1.44-.08-.72-.08-1.44.16-.72.16-1.44-.13-.72-.13-1.44.04-.72.04-1.44-.12-.72-.12-1.44,0-.72,0-1.44.2-.72.2-1.44-.12-.72-.12-1.45.14-.72.14-1.45-.19-.72-.19-1.45-.03-.72-.03-1.45.13-.72.13-1.45-.16-.72-.16-1.45.2-.72.2-1.44.01-.72.01-1.44-.07-.72-.07-1.44.03-.72.03-1.44-.05-.72-.05-1.44,0-.72,0-1.44-.07-.72-.07-1.45.14-.72.14-1.45-.18-.72-.18-1.45.16-.72.16-1.45,0-.72,0-1.45-.03-.72-.03-1.45.02-.72.02-1.45.06-.72.06-1.45.07-.72.07-1.45-.01-.72-.01-1.45.05-.72.05-1.45-.22-.72-.22-1.45.17-.72.17-1.45-.05-.72-.05-1.45-.02-.72-.02-1.45.08-.72.08-1.45-.03-.72-.03-1.45.04-.72.04-1.45-.29-.72-.29-1.45.16-.72.16-1.45-.02-.72-.02-1.45.16-.72.16-1.45-.31-.72-.31-1.45.31-.72.31-1.45-.17-.72-.17-1.45-.02-.72-.02-1.45.05-.72.05-1.44.02-.72.02-1.44-.18-.72-.18-1.44.06-.72.06-1.44-.03-.72-.03-1.45.18-.72.18-1.45-.08-.72-.08-1.45.05-.72.05-1.45-.05-.72-.05-1.44.18-.72.18-1.45,0-.72,0-1.45-.33-.72-.33-1.45-.02-.73-.02-1.45.26-.72.26-1.45-.22-.72-.22-1.45.08-.72.08-1.45-.02-.73-.02-1.45.24-.72.24-1.45,0-.72,0-1.45-.31-.72-.31-1.45.33-.73.33-1.45-.28-.72-.28-1.45-.06-.73-.06-1.45.29-.73.29-1.45.02-.73.02-1.45.02-.72.02-1.45-.12-.72-.12-1.45-.02-.73-.02-1.45.09-.73.09-1.45-.02-.73-.02-1.45-.27-.73-.27-1.45.32-.73.32-1.45-.09-.73-.09-1.46-.17-.73-.17-1.46.04-.73.04-1.46c0-.55.53-1.03,1.08-1.03.72,0,.72-.07,1.43-.07s.72.13,1.43.13.72.05,1.43.05.72.04,1.43.04.72-.21,1.43-.21.72.11,1.44.11.72-.2,1.44-.2.72,0,1.44,0,.72.17,1.44.17.72-.13,1.44-.13.72.13,1.44.13.72-.03,1.44-.03.72.07,1.44.07.72-.03,1.44-.03.72-.16,1.44-.16.72.27,1.44.27.72-.27,1.44-.27.72.15,1.44.15.72-.05,1.44-.05.72,0,1.44,0,.72.06,1.44.06.72-.01,1.44-.01.72-.13,1.44-.13.72.13,1.44.13.72.12,1.44.12.72-.16,1.44-.16.72.14,1.44.14.72-.19,1.44-.19.72-.03,1.44-.03.72,0,1.44,0,.72.3,1.44.3.72-.07,1.44-.07.72-.15,1.44-.15.72.18,1.44.18.72-.11,1.44-.11.72.03,1.44.03.72-.06,1.44-.06.72.18,1.44.18.72-.07,1.44-.07.72-.07,1.44-.07.72.14,1.44.14.72-.23,1.44-.23.72-.06,1.44-.06.72.2,1.44.2.72-.05,1.44-.05.72-.07,1.44-.07.72.06,1.44.06.72.05,1.44.05.72.05,1.44.05.72,0,1.44,0,.72-.18,1.44-.18.72,0,1.44,0,.72.19,1.44.19.72-.05,1.44-.05.72.07,1.44.07.72-.23,1.44-.23.72.14,1.44.14.72.09,1.44.09.72-.18,1.44-.18.72-.11,1.44-.11.72.32,1.44.32.72-.28,1.44-.28.72.18,1.44.18.72,0,1.44,0,.72-.04,1.44-.04.72.03,1.44.03.72-.09,1.44-.09.72-.02,1.44-.02.72.2,1.44.2.72-.06,1.44-.06.72-.22,1.44-.22.72.22,1.44.22.72,0,1.44,0,.72-.18,1.44-.18.72.02,1.44.02.72-.02,1.44-.02.72.15,1.44.15.72.03,1.44.03.72-.18,1.44-.18.72.24,1.44.24.72-.1,1.44-.1.72.04,1.44.04.72,0,1.44,0,.72-.26,1.44-.26.72.32,1.44.32.72-.14,1.44-.14.72.16,1.44.16.72-.15,1.44-.15.72.02,1.44.02.72-.07,1.44-.07.72.2,1.44.2.72-.05,1.44-.05.72-.13,1.44-.13.72,0,1.44,0,.72-.16,1.44-.16.72.28,1.44.28.72.03,1.44.03.72-.24,1.44-.24.72.13,1.44.13.72-.09,1.44-.09.72.22,1.44.22.72-.28,1.44-.28.72-.02,1.44-.02.72.27,1.44.27.72-.26,1.44-.26.72-.04,1.44-.04.72.34,1.44.34.72-.07,1.44-.07.72.04,1.44.04.72-.1,1.44-.1.72-.1,1.44-.1.72,0,1.44,0,.72.18,1.44.18.72.02,1.44.02.72.05,1.44.05.72-.22,1.44-.22.72.2,1.43.2.72-.32,1.43-.32.72,0,1.43,0,.72.33,1.43.33.72-.14,1.43-.14.72,0,1.44,0,.72.15,1.44.15.72-.22,1.44-.22.72.17,1.44.17.72-.2,1.44-.2.72-.02,1.44-.02.72.11,1.44.11.72.03,1.44.03.72-.16,1.44-.16.72.06,1.44.06.72.23,1.44.23.72-.12,1.44-.12.72-.15,1.44-.15.72,0,1.44,0,.72.22,1.43.22.72-.07,1.43-.07.72-.2,1.43-.2.72.03,1.43.03.72.03,1.43.03.72.25,1.43.25.72-.11,1.43-.11.72-.1,1.43-.1.72-.09,1.43-.09.72.29,1.43.29.72-.27,1.44-.27.72.13,1.44.13.72.04,1.44.04.72-.18,1.44-.18.72.14,1.44.14.72.03,1.44.03.72-.19,1.44-.19.72-.03,1.44-.03.72.3,1.44.3.72-.23,1.44-.23.72.25,1.44.25.72-.13,1.44-.13.72-.16,1.44-.16.72.15,1.44.15.72-.07,1.44-.07.72.15,1.44.15.72-.24,1.44-.24.72.13,1.44.13.72-.03,1.44-.03.72-.05,1.44-.05.72.05,1.44.05.72-.13,1.44-.13.72.28,1.44.28.72-.07,1.44-.07.72.04,1.44.04.72-.15,1.44-.15.72-.05,1.44-.05.72.21,1.44.21.72.07,1.44.07.72,0,1.44,0,.72-.07,1.44-.07.72-.16,1.44-.16.72.08,1.44.08.72-.07,1.44-.07.72.1,1.44.1.72.08,1.44.08.72-.08,1.44-.08.72-.12,1.44-.12.72.07,1.44.07.72-.15,1.44-.15.72.16,1.44.16.72.12,1.44.12.72-.18,1.44-.18.72-.07,1.44-.07.72.19,1.44.19.72.1,1.44.1.72-.12,1.44-.12.72.12,1.44.12.72-.27,1.44-.27.72-.03,1.44-.03.72,0,1.44,0,.72.07,1.44.07.72.04,1.44.04.72.18,1.44.18.72-.03,1.44-.03.72.05,1.44.05.72-.3,1.44-.3.72.07,1.44.07.72.12,1.44.12.72-.05,1.44-.05.72.19,1.44.19.72-.12,1.44-.12.72.03,1.44.03.72.04,1.44.04.72-.09,1.44-.09.72.03,1.44.03.72-.05,1.44-.05.72,0,1.44,0,.72.16,1.44.16.72-.28,1.44-.28.72.14,1.44.14.72-.11,1.44-.11.72-.02,1.44-.02.72,0,1.44,0,.72.17,1.44.17.72-.24,1.44-.24.72.29,1.44.29.72-.19,1.44-.19.72.14,1.44.14.72-.14,1.44-.14.72,0,1.44,0,.72.09,1.44.09.72.12,1.44.12.72-.31,1.44-.31.72.32,1.44.32.72,0,1.44,0,.72-.07,1.45-.07.72.09,1.44.09.72-.1,1.44-.1.72-.2,1.45-.2.72.28,1.44.28.72-.3,1.45-.3.72.04,1.45.04.72.16,1.45.16.72-.1,1.45-.1.73-.11,1.45-.11.73.18,1.45.18c.55,0,1.15.43,1.15.99,0,.72.02.72.02,1.44s-.22.72-.22,1.44.01.72.01,1.44.05.72.05,1.44-.15.72-.15,1.44-.03.72-.03,1.44.09.72.09,1.44.16.72.16,1.44-.19.72-.19,1.44-.06.72-.06,1.44.06.72.06,1.44.19.72.19,1.44-.24.72-.24,1.45.11.72.11,1.45.16.72.16,1.45-.19.72-.19,1.45.11.72.11,1.45.07.72.07,1.45,0,.72,0,1.44-.01.72-.01,1.44-.12.72-.12,1.44-.08.72-.08,1.44.24.72.24,1.44-.09.72-.09,1.44.1.72.1,1.45-.25.72-.25,1.45.18.72.18,1.45.09.72.09,1.45-.3.72-.3,1.45,0,.72,0,1.45.16.72.16,1.45-.03.72-.03,1.45.09.72.09,1.45-.2.72-.2,1.45.05.72.05,1.45.2.72.2,1.45-.27.72-.27,1.45.31.72.31,1.45-.09.72-.09,1.45.07.72.07,1.45-.24.72-.24,1.45,0,.72,0,1.45-.07.72-.07,1.45.17.72.17,1.45-.09.72-.09,1.45.15.72.15,1.45.07.72.07,1.45-.19.72-.19,1.45.07.72.07,1.45,0,.72,0,1.45-.03.72-.03,1.44-.08.72-.08,1.44.12.72.12,1.44.07.72.07,1.44-.14.72-.14,1.45-.12.72-.12,1.45.13.72.13,1.45.15.72.15,1.45-.1.72-.1,1.44-.18.72-.18,1.45.05.72.05,1.45.2.72.2,1.45.05.73.05,1.45-.12.72-.12,1.45.13.72.13,1.45-.3.72-.3,1.45.07.73.07,1.45-.11.72-.11,1.45.33.72.33,1.45-.28.72-.28,1.45-.03.73-.03,1.45.25.72.25,1.45-.02.73-.02,1.45,0,.73,0,1.45-.22.73-.22,1.45.21.72.21,1.45,0,.72,0,1.45-.01.73-.01,1.45.02.73.02,1.45-.21.73-.21,1.45.15.73.15,1.45-.03.73-.03,1.45.05.73.05,1.46.08.73.08,1.46-.29.73-.29,1.46c0,.55-.28.97-.83.97Z"/><path class="cls-2" d="M350.67,126.64c-.72,0-.72-.05-1.43-.05s-.72-.03-1.43-.03-.72.15-1.43.15-.72-.07-1.43-.07-.72-.01-1.43-.01-.72-.03-1.44-.03-.72,0-1.44,0-.72-.07-1.44-.07-.72-.02-1.44-.02-.72.08-1.44.08-.72.14-1.44.14-.72-.12-1.44-.12-.72.16-1.44.16-.72-.17-1.44-.17-.72-.06-1.44-.06-.72.17-1.44.17-.72.02-1.44.02-.72-.22-1.44-.22-.72.29-1.44.29-.72-.05-1.44-.05-.72-.03-1.44-.03-.72-.21-1.44-.21-.72,0-1.44,0-.72.05-1.44.05-.72.12-1.44.12-.72-.04-1.44-.04-.72-.13-1.44-.13-.72.16-1.44.16-.72-.05-1.44-.05-.72.2-1.44.2-.72-.02-1.44-.02-.72-.1-1.44-.1-.72-.03-1.44-.03-.72-.02-1.44-.02-.72.14-1.44.14-.72-.04-1.44-.04-.72.03-1.44.03-.72-.2-1.44-.2-.72.24-1.44.24-.72-.25-1.44-.25-.72.16-1.44.16-.72-.16-1.44-.16-.72.19-1.44.19-.72-.08-1.44-.08-.72.1-1.44.1-.72-.05-1.44-.05-.72-.02-1.44-.02-.72-.12-1.44-.12-.72.2-1.44.2-.72-.03-1.44-.03-.72-.12-1.44-.12-.72.15-1.44.15-.72-.06-1.44-.06-.72.1-1.44.1-.72-.19-1.44-.19-.72-.12-1.44-.12-.72.13-1.44.13-.72-.13-1.44-.13-.72.33-1.44.33-.72-.09-1.44-.09-.72-.19-1.44-.19-.72.2-1.44.2-.72-.12-1.44-.12-.72-.14-1.44-.14-.72.32-1.44.32-.72-.28-1.44-.28-.72.18-1.44.18-.72-.12-1.44-.12-.72.06-1.44.06-.72.11-1.44.11-.72-.27-1.44-.27-.72.25-1.44.25-.72-.1-1.44-.1-.72,0-1.44,0-.72-.07-1.44-.07-.72,0-1.44,0-.72.22-1.44.22-.72-.12-1.44-.12-.72-.04-1.44-.04-.72-.14-1.44-.14-.72.06-1.44.06-.72,0-1.44,0-.72-.03-1.44-.03-.72-.02-1.44-.02-.72.11-1.44.11-.72.19-1.44.19-.72-.09-1.44-.09-.72-.18-1.44-.18-.72.05-1.44.05-.72.2-1.44.2-.72-.03-1.44-.03-.72,0-1.44,0-.72-.04-1.44-.04-.72-.18-1.44-.18-.72.05-1.44.05-.72-.02-1.44-.02-.72.12-1.44.12-.72.08-1.44.08-.72-.25-1.44-.25-.72.1-1.44.1-.72.06-1.44.06-.72-.01-1.44-.01-.72.03-1.44.03-.72-.01-1.44-.01-.72-.03-1.44-.03-.72-.14-1.44-.14-.72.08-1.44.08-.72.21-1.44.21-.72-.09-1.44-.09-.72.05-1.44.05-.72,0-1.44,0-.72-.1-1.44-.1-.72-.07-1.44-.07-.72-.01-1.44-.01-.72.02-1.44.02-.72-.07-1.44-.07-.72.28-1.43.28-.72-.26-1.43-.26-.72.08-1.43.08-.72-.11-1.43-.11-.72.12-1.43.12-.72.12-1.44.12-.72-.18-1.44-.18-.72.22-1.44.22-.72-.1-1.44-.1-.72.07-1.44.07-.72-.1-1.44-.1-.72.11-1.44.11-.72-.13-1.44-.13-.72.01-1.44.01-.72.05-1.44.05-.72.1-1.44.1-.72,0-1.44,0-.72-.31-1.44-.31-.72.18-1.44.18-.72.07-1.43.07-.72.08-1.43.08-.72-.14-1.43-.14-.72-.12-1.43-.12-.72.08-1.43.08-.72-.1-1.43-.1-.72-.02-1.43-.02-.72.2-1.43.2-.72-.06-1.43-.06-.72.1-1.43.1-.72-.19-1.44-.19-.72.15-1.44.15-.72-.12-1.44-.12-.72.22-1.44.22-.72-.04-1.44-.04-.72-.3-1.44-.3-.72.21-1.44.21-.72-.18-1.44-.18-.72,0-1.44,0-.72.17-1.44.17-.72-.19-1.44-.19-.72.19-1.44.19-.72.02-1.44.02-.72-.16-1.44-.16-.72.24-1.44.24-.72,0-1.44,0-.72-.01-1.44-.01-.72-.23-1.44-.23-.72.19-1.44.19-.72-.22-1.44-.22-.72-.02-1.44-.02-.72.23-1.44.23-.72,0-1.44,0-.72-.15-1.44-.15-.72.24-1.44.24-.72-.03-1.44-.03-.72-.06-1.44-.06-.72-.17-1.44-.17-.72.01-1.44.01-.72.24-1.44.24-.72.03-1.44.03-.72-.23-1.44-.23-.72.17-1.44.17-.72-.26-1.44-.26-.72.23-1.44.23-.72-.01-1.44-.01-.72.09-1.44.09-.72-.17-1.44-.17-.72.01-1.44.01-.72,0-1.44,0-.72-.06-1.44-.06-.72.21-1.44.21-.72-.11-1.44-.11-.72-.08-1.44-.08-.72-.1-1.44-.1-.72.23-1.44.23-.72-.2-1.44-.2-.72.23-1.44.23-.72-.1-1.44-.1-.72.02-1.44.02-.72.13-1.44.13-.72-.03-1.44-.03-.72-.02-1.44-.02-.72-.16-1.44-.16-.72.12-1.44.12-.72-.06-1.44-.06-.72-.01-1.44-.01-.72-.16-1.44-.16-.72.28-1.44.28-.72-.02-1.44-.02-.72-.08-1.44-.08-.72.11-1.44.11-.72,0-1.44,0-.72-.15-1.44-.15-.72.18-1.44.18-.72-.13-1.44-.13-.72.07-1.44.07-.72-.04-1.44-.04-.72-.14-1.44-.14-.72.13-1.44.13-.72.03-1.44.03-.72.07-1.44.07-.72-.13-1.44-.13-.72.15-1.44.15-.72-.06-1.44-.06-.72-.13-1.44-.13-.72.08-1.44.08-.72.01-1.44.01-.72.1-1.44.1-.72-.16-1.44-.16-.72.15-1.44.15-.72-.23-1.44-.23-.72.13-1.44.13-.72.06-1.44.06-.72,0-1.44,0-.72.02-1.44.02-.72-.17-1.45-.17-.72-.09-1.44-.09-.72.3-1.44.3-.72-.3-1.45-.3-.72-.04-1.44-.04-.72.28-1.45.28-.72-.04-1.45-.04-.72-.23-1.45-.23-.72.19-1.45.19-.73.13-1.45.13-.73-.26-1.45-.26c-.55,0-1.09-.35-1.09-.91,0-.72-.07-.72-.07-1.44s.25-.72.25-1.44-.17-.72-.17-1.44.18-.72.18-1.44-.1-.72-.1-1.44-.08-.72-.08-1.44.16-.72.16-1.44-.13-.72-.13-1.44.04-.72.04-1.44-.12-.72-.12-1.44,0-.72,0-1.44.2-.72.2-1.44-.12-.72-.12-1.45.14-.72.14-1.45-.19-.72-.19-1.45-.03-.72-.03-1.45.13-.72.13-1.45-.16-.72-.16-1.45.2-.72.2-1.44.01-.72.01-1.44-.07-.72-.07-1.44.03-.72.03-1.44-.05-.72-.05-1.44,0-.72,0-1.44-.07-.72-.07-1.45.14-.72.14-1.45-.18-.72-.18-1.45.16-.72.16-1.45,0-.72,0-1.45-.03-.72-.03-1.45.02-.72.02-1.45.06-.72.06-1.45.07-.72.07-1.45-.01-.72-.01-1.45.05-.72.05-1.45-.22-.72-.22-1.45.17-.72.17-1.45-.05-.72-.05-1.45-.02-.72-.02-1.45.08-.72.08-1.45-.03-.72-.03-1.45.04-.72.04-1.45-.29-.72-.29-1.45.16-.72.16-1.45-.02-.72-.02-1.45.16-.72.16-1.45-.31-.72-.31-1.45.31-.72.31-1.45-.17-.72-.17-1.45-.02-.72-.02-1.45.05-.72.05-1.44.02-.72.02-1.44-.18-.72-.18-1.44.06-.72.06-1.44-.03-.72-.03-1.45.18-.72.18-1.45-.08-.72-.08-1.45.05-.72.05-1.45-.05-.72-.05-1.44.18-.72.18-1.45,0-.72,0-1.45-.33-.72-.33-1.45-.02-.73-.02-1.45.26-.72.26-1.45-.22-.72-.22-1.45.08-.72.08-1.45-.02-.73-.02-1.45.24-.72.24-1.45,0-.72,0-1.45-.31-.72-.31-1.45.33-.73.33-1.45-.28-.72-.28-1.45-.06-.73-.06-1.45.29-.73.29-1.45.02-.73.02-1.45.02-.72.02-1.45-.12-.72-.12-1.45-.02-.73-.02-1.45.09-.73.09-1.45-.02-.73-.02-1.45-.27-.73-.27-1.45.32-.73.32-1.45-.09-.73-.09-1.46-.17-.73-.17-1.46.04-.73.04-1.46c0-.55.53-1.03,1.08-1.03.72,0,.72-.07,1.43-.07s.72.13,1.43.13.72.05,1.43.05.72.04,1.43.04.72-.21,1.43-.21.72.11,1.44.11.72-.2,1.44-.2.72,0,1.44,0,.72.17,1.44.17.72-.13,1.44-.13.72.13,1.44.13.72-.03,1.44-.03.72.07,1.44.07.72-.03,1.44-.03.72-.16,1.44-.16.72.27,1.44.27.72-.27,1.44-.27.72.15,1.44.15.72-.05,1.44-.05.72,0,1.44,0,.72.06,1.44.06.72-.01,1.44-.01.72-.13,1.44-.13.72.13,1.44.13.72.12,1.44.12.72-.16,1.44-.16.72.14,1.44.14.72-.19,1.44-.19.72-.03,1.44-.03.72,0,1.44,0,.72.3,1.44.3.72-.07,1.44-.07.72-.15,1.44-.15.72.18,1.44.18.72-.11,1.44-.11.72.03,1.44.03.72-.06,1.44-.06.72.18,1.44.18.72-.07,1.44-.07.72-.07,1.44-.07.72.14,1.44.14.72-.23,1.44-.23.72-.06,1.44-.06.72.2,1.44.2.72-.05,1.44-.05.72-.07,1.44-.07.72.06,1.44.06.72.05,1.44.05.72.05,1.44.05.72,0,1.44,0,.72-.18,1.44-.18.72,0,1.44,0,.72.19,1.44.19.72-.05,1.44-.05.72.07,1.44.07.72-.23,1.44-.23.72.14,1.44.14.72.09,1.44.09.72-.18,1.44-.18.72-.11,1.44-.11.72.32,1.44.32.72-.28,1.44-.28.72.18,1.44.18.72,0,1.44,0,.72-.04,1.44-.04.72.03,1.44.03.72-.09,1.44-.09.72-.02,1.44-.02.72.2,1.44.2.72-.06,1.44-.06.72-.22,1.44-.22.72.22,1.44.22.72,0,1.44,0,.72-.18,1.44-.18.72.02,1.44.02.72-.02,1.44-.02.72.15,1.44.15.72.03,1.44.03.72-.18,1.44-.18.72.24,1.44.24.72-.1,1.44-.1.72.04,1.44.04.72,0,1.44,0,.72-.26,1.44-.26.72.32,1.44.32.72-.14,1.44-.14.72.16,1.44.16.72-.15,1.44-.15.72.02,1.44.02.72-.07,1.44-.07.72.2,1.44.2.72-.05,1.44-.05.72-.13,1.44-.13.72,0,1.44,0,.72-.16,1.44-.16.72.28,1.44.28.72.03,1.44.03.72-.24,1.44-.24.72.13,1.44.13.72-.09,1.44-.09.72.22,1.44.22.72-.28,1.44-.28.72-.02,1.44-.02.72.27,1.44.27.72-.26,1.44-.26.72-.04,1.44-.04.72.34,1.44.34.72-.07,1.44-.07.72.04,1.44.04.72-.1,1.44-.1.72-.1,1.44-.1.72,0,1.44,0,.72.18,1.44.18.72.02,1.44.02.72.05,1.44.05.72-.22,1.44-.22.72.2,1.43.2.72-.32,1.43-.32.72,0,1.43,0,.72.33,1.43.33.72-.14,1.43-.14.72,0,1.44,0,.72.15,1.44.15.72-.22,1.44-.22.72.17,1.44.17.72-.2,1.44-.2.72-.02,1.44-.02.72.11,1.44.11.72.03,1.44.03.72-.16,1.44-.16.72.06,1.44.06.72.23,1.44.23.72-.12,1.44-.12.72-.15,1.44-.15.72,0,1.44,0,.72.22,1.43.22.72-.07,1.43-.07.72-.2,1.43-.2.72.03,1.43.03.72.03,1.43.03.72.25,1.43.25.72-.11,1.43-.11.72-.1,1.43-.1.72-.09,1.43-.09.72.29,1.43.29.72-.27,1.44-.27.72.13,1.44.13.72.04,1.44.04.72-.18,1.44-.18.72.14,1.44.14.72.03,1.44.03.72-.19,1.44-.19.72-.03,1.44-.03.72.3,1.44.3.72-.23,1.44-.23.72.25,1.44.25.72-.13,1.44-.13.72-.16,1.44-.16.72.15,1.44.15.72-.07,1.44-.07.72.15,1.44.15.72-.24,1.44-.24.72.13,1.44.13.72-.03,1.44-.03.72-.05,1.44-.05.72.05,1.44.05.72-.13,1.44-.13.72.28,1.44.28.72-.07,1.44-.07.72.04,1.44.04.72-.15,1.44-.15.72-.05,1.44-.05.72.21,1.44.21.72.07,1.44.07.72,0,1.44,0,.72-.07,1.44-.07.72-.16,1.44-.16.72.08,1.44.08.72-.07,1.44-.07.72.1,1.44.1.72.08,1.44.08.72-.08,1.44-.08.72-.12,1.44-.12.72.07,1.44.07.72-.15,1.44-.15.72.16,1.44.16.72.12,1.44.12.72-.18,1.44-.18.72-.07,1.44-.07.72.19,1.44.19.72.1,1.44.1.72-.12,1.44-.12.72.12,1.44.12.72-.27,1.44-.27.72-.03,1.44-.03.72,0,1.44,0,.72.07,1.44.07.72.04,1.44.04.72.18,1.44.18.72-.03,1.44-.03.72.05,1.44.05.72-.3,1.44-.3.72.07,1.44.07.72.12,1.44.12.72-.05,1.44-.05.72.19,1.44.19.72-.12,1.44-.12.72.03,1.44.03.72.04,1.44.04.72-.09,1.44-.09.72.03,1.44.03.72-.05,1.44-.05.72,0,1.44,0,.72.16,1.44.16.72-.28,1.44-.28.72.14,1.44.14.72-.11,1.44-.11.72-.02,1.44-.02.72,0,1.44,0,.72.17,1.44.17.72-.24,1.44-.24.72.29,1.44.29.72-.19,1.44-.19.72.14,1.44.14.72-.14,1.44-.14.72,0,1.44,0,.72.09,1.44.09.72.12,1.44.12.72-.31,1.44-.31.72.32,1.44.32.72,0,1.44,0,.72-.07,1.45-.07.72.09,1.44.09.72-.1,1.44-.1.72-.2,1.45-.2.72.28,1.44.28.72-.3,1.45-.3.72.04,1.45.04.72.16,1.45.16.72-.1,1.45-.1.73-.11,1.45-.11.73.18,1.45.18c.55,0,1.15.43,1.15.99,0,.72.02.72.02,1.44s-.22.72-.22,1.44.01.72.01,1.44.05.72.05,1.44-.15.72-.15,1.44-.03.72-.03,1.44.09.72.09,1.44.16.72.16,1.44-.19.72-.19,1.44-.06.72-.06,1.44.06.72.06,1.44.19.72.19,1.44-.24.72-.24,1.45.11.72.11,1.45.16.72.16,1.45-.19.72-.19,1.45.11.72.11,1.45.07.72.07,1.45,0,.72,0,1.44-.01.72-.01,1.44-.12.72-.12,1.44-.08.72-.08,1.44.24.72.24,1.44-.09.72-.09,1.44.1.72.1,1.45-.25.72-.25,1.45.18.72.18,1.45.09.72.09,1.45-.3.72-.3,1.45,0,.72,0,1.45.16.72.16,1.45-.03.72-.03,1.45.09.72.09,1.45-.2.72-.2,1.45.05.72.05,1.45.2.72.2,1.45-.27.72-.27,1.45.31.72.31,1.45-.09.72-.09,1.45.07.72.07,1.45-.24.72-.24,1.45,0,.72,0,1.45-.07.72-.07,1.45.17.72.17,1.45-.09.72-.09,1.45.15.72.15,1.45.07.72.07,1.45-.19.72-.19,1.45.07.72.07,1.45,0,.72,0,1.45-.03.72-.03,1.44-.08.72-.08,1.44.12.72.12,1.44.07.72.07,1.44-.14.72-.14,1.45-.12.72-.12,1.45.13.72.13,1.45.15.72.15,1.45-.1.72-.1,1.44-.18.72-.18,1.45.05.72.05,1.45.2.72.2,1.45.05.73.05,1.45-.12.72-.12,1.45.13.72.13,1.45-.3.72-.3,1.45.07.73.07,1.45-.11.72-.11,1.45.33.72.33,1.45-.28.72-.28,1.45-.03.73-.03,1.45.25.72.25,1.45-.02.73-.02,1.45,0,.73,0,1.45-.22.73-.22,1.45.21.72.21,1.45,0,.72,0,1.45-.01.73-.01,1.45.02.73.02,1.45-.21.73-.21,1.45.15.73.15,1.45-.03.73-.03,1.45.05.73.05,1.46.08.73.08,1.46-.29.73-.29,1.46c0,.55-.28.97-.83.97Z"/></g></g></g></svg>