<?xml version="1.0" encoding="utf-8" ?>
<svg xmlns="http://www.w3.org/2000/svg" xmlns:xlink="http://www.w3.org/1999/xlink" width="1978" height="1245">
	<path d="M1377.16 255.948L1377.65 255.719C1382.02 253.479 1386.01 247.084 1389.16 243.312C1397.98 232.726 1406.76 222.108 1415.6 211.544C1455.22 164.211 1494.78 116.826 1534.28 69.3856C1541.92 60.199 1549.66 51.086 1557.27 41.8708C1561.31 36.9832 1565.54 30.4995 1570.64 26.8298C1575.37 23.4277 1581.55 22.5398 1587.11 24.0904C1592.58 25.6163 1598.2 30.705 1600.86 35.6555C1601.7 37.2362 1602.08 38.8247 1602.42 40.5663L1602.64 41.6701C1603.21 44.9095 1602.67 47.8453 1601.96 51.0159C1594.51 84.3312 1585.41 117.413 1577.24 150.564C1559.56 222.245 1541.8 293.913 1523.88 365.529C1518.74 386.074 1513.66 406.645 1508.67 427.226C1507.47 432.183 1506.55 442.403 1503.67 446.079C1503.17 446.726 1502.61 447.291 1501.99 447.825C1589.52 460.373 1676.74 475.202 1764.34 487.222C1800.85 492.232 1837.38 497.022 1873.92 501.823C1891.12 504.084 1909.52 505.195 1926.4 508.877C1930.94 509.866 1935.28 512.45 1938.09 516.172C1941.51 520.693 1943.38 528.23 1942.53 533.788C1941.68 539.3 1938.36 542.967 1933.91 545.987C1925.01 552.021 1913.63 556.17 1903.78 560.398C1876.77 571.984 1848.95 581.672 1822.13 593.586C1757.26 622.404 1692.53 651.8 1628.05 681.474C1607.41 690.973 1586.68 700.287 1565.97 709.653C1557.01 713.708 1546.92 719.61 1537.43 722.099C1541.64 727.046 1543.7 737.067 1545.8 743.305C1550.16 756.216 1554.65 769.087 1559.06 781.979C1573.77 824.933 1588.52 867.874 1603.27 910.811C1618.43 954.93 1633.63 999.037 1648.69 1043.19C1655.29 1062.53 1662.54 1081.81 1668.63 1101.3C1670.01 1105.72 1671.78 1111.71 1671.4 1116.3C1670.93 1121.93 1668.08 1126.64 1663.63 1130.03C1658.92 1133.61 1652.56 1134.49 1646.84 1133.54C1637.22 1131.95 1627.24 1124 1618.68 1119.27C1600.72 1109.37 1582.74 1099.5 1564.78 1089.61C1495.83 1051.65 1426.98 1013.52 1357.96 975.686C1344.85 968.499 1331.75 961.288 1318.65 954.084C1312.51 950.707 1305.54 945.735 1298.79 943.971C1296.42 949.984 1112.82 1144.95 1096.88 1161.35C1094.52 1163.79 1092.05 1166.16 1088.96 1167.66C1084.46 1169.84 1079.3 1169.98 1074.66 1168.19C1072.29 1167.28 1069.99 1165.76 1067.88 1164.37C1055.61 1123.24 1045.93 1080.76 1035.56 1039.08C1031.11 1021.18 1026.74 1003.3 1022.61 985.326C1020.25 975.034 1017.38 964.524 1016.11 954.051C982.26 972.624 945.229 986.628 909.412 1000.95C889.867 1008.76 869.651 1018.2 849.164 1023.02C841.917 1024.73 834.175 1025.75 826.892 1023.65C818.287 1021.18 811.716 1016.28 807.358 1008.38C800.677 996.273 800.531 980.607 799.989 967.14C775.953 988.17 728.813 1034.62 695.945 1032.67C688.456 1032.23 680.568 1028.19 675.723 1022.49C667.647 1012.97 666.477 1001.63 665.298 989.686C644.681 1008.44 623.588 1027.62 599.466 1041.79C585.445 1050.03 570.891 1056.56 554.24 1055.64C543.175 1055.04 532.415 1049.24 525.093 1041.06C514.247 1028.94 508.574 1010.43 507.531 994.391C450.921 1043.08 383.55 1078.7 312.83 1102.32C298.952 1106.95 281.24 1113.92 266.478 1112.66C253.962 1111.59 243.548 1100.41 236.052 1091.24L225.043 1076.5L242.006 1077.16C274.628 1077.22 308.701 1063.68 338.222 1050.73C367.694 1037.79 396.136 1022.61 423.719 1006.05C459.31 984.675 492.892 961.135 522.316 931.671C529.911 943.003 535.73 956.038 544.284 966.638C549.303 972.857 555.689 977.011 563.743 977.715C579.988 979.135 597.744 971.086 612.069 964.17C648.197 946.728 682.023 923.422 712.43 897.318C714.591 904.819 716.459 913.119 721.308 919.398C724.019 922.908 728.101 925.71 732.583 926.167C742.956 927.226 752.476 924.187 761.97 920.371C785.636 910.861 807.367 895.933 826.907 879.755L831.517 908.275C831.948 911.144 832.57 913.144 834.952 915.022C839.878 918.909 847.719 918.732 853.625 918.284C869.377 917.088 885.798 912.326 901.084 908.506C931.081 901.009 960.934 892.96 990.932 885.455C1004.67 882.017 1019.14 877.362 1033.17 875.434C1044.81 881.851 1043.37 895.161 1049.41 905.444C1052.43 910.581 1052.88 916.442 1054.09 922.206C1055.69 929.775 1057.51 937.311 1059.24 944.851C1067.61 981.281 1076.42 1017.63 1085.07 1053.99C1087.17 1062.84 1089.23 1071.69 1091.36 1080.52C1092.17 1083.88 1092.93 1089.28 1094.57 1092.25C1095 1093.03 1096.51 1094.14 1097.19 1094.81C1098.33 1094.9 1099.69 1095.29 1100.69 1094.71C1107.98 1090.5 1115.44 1080.76 1121.44 1074.59C1135.41 1060.22 1149.37 1045.84 1163.33 1031.47C1211.83 981.569 1261.67 932.474 1309.04 881.523C1310.08 880.409 1310.39 879.511 1310.8 878.082C1316.81 879.796 1322.56 883.648 1328.03 886.625C1338.04 892.064 1348.08 897.464 1358.11 902.862C1378.23 913.692 1550.5 1008.48 1555.77 1008.66C1557.71 1008.73 1558.63 1008.47 1560.04 1007.15C1561.82 1005.47 1563.66 1002.01 1563.71 999.565C1563.79 996.136 1562.03 992.156 1560.99 988.896C1558.74 981.834 1556.45 974.787 1554.22 967.721C1544.5 936.943 1534.71 906.188 1524.99 875.411C1512.18 834.859 1499.35 794.314 1486.51 753.77C1480.47 734.687 1475.03 715.098 1468.39 696.245C1467.59 693.974 1466.44 692.387 1464.73 690.709C1475.49 688.514 1487.4 681.239 1497.47 676.638C1520.39 666.165 1543.29 655.636 1566.21 645.153C1622.06 619.603 1678 594.249 1733.8 568.571C1743.39 564.154 1752.99 559.739 1762.62 555.389C1765.97 553.875 1771.77 552.083 1774.36 549.584C1776.34 547.68 1776.06 546.881 1776.2 544.265C1774.62 542.139 1774.22 541.384 1771.59 540.628C1759.95 537.292 1746.58 536.027 1734.59 533.866C1710.67 529.555 1686.79 525.003 1662.87 520.74C1592.45 508.197 1522.15 495.02 1451.74 482.48L1452.15 482.089C1453.14 481.056 1453.75 480.11 1454.12 478.732C1457.56 465.914 1459.38 452.218 1462.06 439.178C1468.69 407.004 1475.12 374.793 1481.65 342.599C1489.84 302.224 1498.15 261.873 1506.26 221.481C1507.83 213.648 1509.41 205.81 1511.03 197.988C1511.71 194.71 1513.27 189.93 1512.96 186.634C1512.7 183.809 1510.92 182.871 1508.92 181.212C1506.31 180.809 1505.78 180.472 1503.47 181.93C1500.76 183.643 1498.03 187.442 1495.85 189.849C1490.31 195.986 1484.8 202.161 1479.29 208.331C1452.82 237.968 1426.32 267.58 1399.82 297.19C1392.03 305.902 1384.29 314.669 1376.49 323.378C1372.29 328.069 1367.94 334.116 1362.46 337.235L1361.65 337.679C1362.72 336.494 1363.75 335.128 1364.19 333.563C1365.21 330.012 1365.23 325.789 1365.73 322.116C1366.64 315.422 1367.79 308.735 1368.92 302.073C1370.54 292.471 1372.27 282.876 1374.24 273.34C1375.41 267.715 1377.31 261.715 1377.16 255.948Z"/>
	<path fill="#FEFEFE" d="M1240.98 284.72C1239.87 254.119 1240.79 223.213 1241.56 192.606C1241.93 177.883 1242.3 163.079 1243.79 148.421C1244.43 142.095 1244.85 135.019 1247.5 129.136C1248.79 126.284 1250.83 123.8 1253.38 122.005C1261.91 116.014 1272.9 112.098 1282.38 107.692C1304.89 97.23 1327.69 86.6257 1350.78 77.4824C1366.61 71.2125 1383.21 64.387 1400.09 61.6568C1404.95 60.8706 1409.68 60.4245 1414.27 62.7164C1416.89 64.0291 1419.26 66.681 1420.09 69.5181C1421.9 75.7505 1420.21 85.7426 1419.01 92.1205C1411.35 132.811 1398.43 173.109 1388.05 213.237C1385.87 221.653 1383.74 230.105 1381.87 238.593C1380.58 244.404 1379.79 250.567 1377.16 255.948C1377.31 261.715 1375.41 267.715 1374.24 273.34C1372.27 282.876 1370.54 292.471 1368.92 302.073C1367.79 308.735 1366.64 315.422 1365.73 322.116C1365.23 325.789 1365.21 330.012 1364.19 333.563C1363.75 335.128 1362.72 336.494 1361.65 337.679L1362.46 337.235C1367.94 334.116 1372.29 328.069 1376.49 323.378C1384.29 314.669 1392.03 305.902 1399.82 297.19C1426.32 267.58 1452.82 237.968 1479.29 208.331C1484.8 202.161 1490.31 195.986 1495.85 189.849C1498.03 187.442 1500.76 183.643 1503.47 181.93C1505.78 180.472 1506.31 180.809 1508.92 181.212C1510.92 182.871 1512.7 183.809 1512.96 186.634C1513.27 189.93 1511.71 194.71 1511.03 197.988C1509.41 205.81 1507.83 213.648 1506.26 221.481C1498.15 261.873 1489.84 302.224 1481.65 342.599C1475.12 374.793 1468.69 407.004 1462.06 439.178C1459.38 452.218 1457.56 465.914 1454.12 478.732C1453.75 480.11 1453.14 481.056 1452.15 482.089L1451.74 482.48C1522.15 495.02 1592.45 508.197 1662.87 520.74C1686.79 525.003 1710.67 529.555 1734.59 533.866C1746.58 536.027 1759.95 537.292 1771.59 540.628C1774.22 541.384 1774.62 542.139 1776.2 544.265C1776.06 546.881 1776.34 547.68 1774.36 549.584C1771.77 552.083 1765.97 553.875 1762.62 555.389C1752.99 559.739 1743.39 564.154 1733.8 568.571C1678 594.249 1622.06 619.603 1566.21 645.153C1543.29 655.636 1520.39 666.165 1497.47 676.638C1487.4 681.239 1475.49 688.514 1464.73 690.709C1466.44 692.387 1467.59 693.974 1468.39 696.245C1475.03 715.098 1480.47 734.687 1486.51 753.77C1499.35 794.314 1512.18 834.859 1524.99 875.411C1534.71 906.188 1544.5 936.943 1554.22 967.721C1556.45 974.787 1558.74 981.834 1560.99 988.896C1562.03 992.156 1563.79 996.136 1563.71 999.565C1563.66 1002.01 1561.82 1005.47 1560.04 1007.15C1558.63 1008.47 1557.71 1008.73 1555.77 1008.66C1550.5 1008.48 1378.23 913.692 1358.11 902.862C1348.08 897.464 1338.04 892.064 1328.03 886.625C1322.56 883.648 1316.81 879.796 1310.8 878.082C1310.39 879.511 1310.08 880.409 1309.04 881.523C1261.67 932.474 1211.83 981.569 1163.33 1031.47C1149.37 1045.84 1135.41 1060.22 1121.44 1074.59C1115.44 1080.76 1107.98 1090.5 1100.69 1094.71C1099.69 1095.29 1098.33 1094.9 1097.19 1094.81C1096.51 1094.14 1095 1093.03 1094.57 1092.25C1092.93 1089.28 1092.17 1083.88 1091.36 1080.52C1089.23 1071.69 1087.17 1062.84 1085.07 1053.99C1076.42 1017.63 1067.61 981.281 1059.24 944.851C1057.51 937.311 1055.69 929.775 1054.09 922.206C1052.88 916.442 1052.43 910.581 1049.41 905.444C1043.37 895.161 1044.81 881.851 1033.17 875.434C1019.14 877.362 1004.67 882.017 990.932 885.455C960.934 892.96 931.081 901.009 901.084 908.506C885.798 912.326 869.377 917.088 853.625 918.284C847.719 918.732 839.878 918.909 834.952 915.022C832.57 913.144 831.948 911.144 831.517 908.275L826.907 879.755C807.367 895.933 785.636 910.861 761.97 920.371C752.476 924.187 742.956 927.226 732.583 926.167C728.101 925.71 724.019 922.908 721.308 919.398C716.459 913.119 714.591 904.819 712.43 897.318C682.023 923.422 648.197 946.728 612.069 964.17C597.744 971.086 579.988 979.135 563.743 977.715C555.689 977.011 549.303 972.857 544.284 966.638C535.73 956.038 529.911 943.003 522.316 931.671C492.892 961.135 459.31 984.675 423.719 1006.05C396.136 1022.61 367.694 1037.79 338.222 1050.73C308.701 1063.68 274.628 1077.22 242.006 1077.16L225.043 1076.5C218.685 1069.68 211.895 1062.89 206.197 1055.51C193.688 1039.31 182.428 1019.83 173.096 1001.64C170.764 997.1 167.54 992.467 165.967 987.611C162.907 978.162 165.398 962.885 167.6 953.463C172.813 931.151 182.065 909.443 190.075 888.027C209.714 835.521 230.792 784.179 254.681 733.452C233.698 745.804 213.853 755.037 190.307 761.285C182.909 763.248 174.835 765.617 167.127 764.748C156.533 763.553 146.927 754.143 140.498 746.044C130.546 733.507 122.747 718.904 115.002 704.946C94.0985 667.271 75.2767 628.552 80.6778 584.145C85.6029 543.652 107.598 503.128 126.493 467.479C188.228 351.005 265.213 242.213 352.844 143.778C363.039 132.327 373.365 121.005 383.993 109.954C389.863 103.85 395.58 97.3458 402.268 92.1206C409.99 91.3242 417.624 90.0488 425.397 89.8757C461.484 89.0719 496.873 91.9312 532.65 96.5239C543.042 97.8578 560.513 98.4218 568.903 104.779C573.301 108.112 577.592 113.253 580.092 118.146C589.755 137.058 593.9 160.604 598.207 181.244C604.754 212.619 610.355 244.273 614.628 276.037C643.893 266.161 675.667 262.389 706.332 266.659C719.822 268.538 732.848 272.725 741.249 283.935C763.147 268.865 787.377 259.766 813.577 255.479C846.411 250.107 880.405 252.728 908.087 272.583L923.014 255.841C934.625 244.335 951.113 227.233 968.778 227.558C975.305 227.678 979.92 229.686 984.365 234.407C995.281 246.003 997.973 266.058 997.363 281.312C1003.48 275.959 1010.9 270.282 1019.51 270.722C1028.61 271.188 1033.41 276.939 1039.1 283.281C1046.05 271.552 1054.16 253.204 1067.65 248.511C1073.8 246.371 1080.9 246.548 1087.32 246.907C1104.71 247.878 1126.42 251.392 1142.17 258.846C1152.29 263.633 1158.85 270.285 1162.74 280.871L1163.38 280.506C1167.92 277.971 1172.33 275.423 1177.32 273.86C1199.57 266.896 1221.28 274.375 1240.98 284.72Z"/>
	<path d="M1399.02 70.9879C1402.62 70.4725 1405.99 70.5435 1409.61 70.6869L1411.23 72.9228C1411.67 89.8013 1405.42 108.367 1401.08 124.604C1395.64 144.908 1390.03 165.165 1384.66 185.486C1374.18 225.16 1364.49 265.224 1358.13 305.794C1351.24 349.775 1341.67 392.451 1339.42 437.094C1338.83 448.918 1338.63 460.631 1338.87 472.467C1338.98 477.938 1341.24 488.532 1338.32 493.093L1338.22 494.292C1337.38 500.153 1326.52 507.659 1321.91 510.959C1304.16 523.645 1284.02 533.754 1264.86 544.183C1259 547.371 1249.17 554.039 1242.6 554.921C1241.81 555.026 1240.12 554.617 1239.34 554.456C1227.56 552.024 1230.05 494.764 1230.47 482.518C1230.7 476.09 1232.79 459.393 1229.34 454.499C1228.4 453.155 1227.16 452.673 1225.55 452.437C1207.08 449.715 1151.56 478.269 1133.89 486.928C1127.93 489.846 1120.18 492.355 1115.04 496.361C1113.99 499.399 1114.13 499.37 1115.45 502.325C1118.2 503.657 1119.16 504.162 1122.28 503.362C1130.48 501.263 1139.69 495.338 1147.33 491.6C1170.65 480.196 1195.3 467.203 1220.8 461.621C1221.08 482.203 1219.51 502.358 1220.87 523.028C1221.54 533.182 1222.43 543.564 1225.79 553.239C1227.67 558.627 1230.47 561.326 1235.59 563.761C1239.61 565.67 1243.28 565.609 1247.46 564.081C1267.03 556.936 1339.86 516.155 1347.53 499.509C1348.13 498.791 1348.63 498.183 1348.98 497.305C1350.44 493.622 1349.7 489.185 1349.52 485.347C1349.23 478.818 1349.07 472.265 1349.03 465.728C1348.88 441.899 1350.29 418.512 1353.16 394.858C1354.06 387.424 1354.98 379.962 1356.23 372.577C1356.96 368.211 1358.69 362.774 1357.13 358.519C1361.69 356.034 1365.65 350.41 1369.13 346.529C1377.09 337.657 1385.03 328.768 1392.96 319.872C1417.87 291.935 1442.9 264.101 1467.85 236.195C1475.34 227.818 1482.87 219.483 1490.38 211.121C1493.22 207.956 1497.72 204.066 1498.99 199.996C1500.63 206.085 1497.59 214.345 1496.32 220.43C1494.07 231.214 1491.86 242.005 1489.68 252.804C1478.55 307.947 1467.4 363.087 1456.21 418.22C1452.87 434.723 1449.86 451.254 1446.64 467.761C1445.6 473.117 1442.82 480.967 1443.38 486.313C1443.49 487.393 1444.52 489.319 1445.15 490.176C1447.3 493.127 1451.51 494.446 1454.91 495.163C1467.14 497.742 1479.98 497.729 1492.33 499.98C1551.19 510.71 1610.06 521.346 1668.91 532.131C1696.92 537.264 1725.63 541.174 1753.35 547.642C1751.39 550.945 1539.96 646.09 1517.29 656.449C1504.61 662.246 1491.94 668.081 1479.24 673.837C1472.11 677.07 1463.5 680.018 1457.26 684.659C1456.05 687.452 1455.52 688.203 1456.23 691.232C1458.38 700.448 1462.09 709.897 1464.95 718.945C1470.6 736.799 1476.15 754.686 1481.81 772.538C1499.24 827.527 1516.62 882.534 1534.09 937.509C1538.17 950.335 1542.2 963.176 1546.35 975.98C1548.19 981.673 1552.02 989.939 1551.46 995.844L1551.37 996.542C1549.05 992.868 1402.18 915.257 1385.06 906.008C1369.58 897.643 1354.08 889.312 1338.63 880.908C1329.13 875.743 1319.3 869.283 1309 865.972C1306.49 872.37 1121.51 1060.09 1101.74 1080.48C1090.59 1035.12 1080.23 989.56 1069.41 944.122C1064.72 924.411 1060.99 903.821 1055.12 884.493C1053.41 878.859 1051.61 871.202 1047.33 866.974C1043.92 863.611 1039.76 862.895 1035.11 863.052C1024.94 863.394 1012.71 868.118 1002.7 870.586C974.575 877.516 946.525 884.719 918.516 892.092C904.585 895.759 890.674 899.563 876.682 902.991C867.897 905.143 857.339 908.007 848.266 907.814C845.722 907.759 842.831 907.838 841.179 905.498C840.078 903.939 839.63 899.737 839.273 897.794C837.863 890.113 837.214 873.443 832.054 868.112C828.475 867.207 825.83 868.954 822.662 870.808C816.327 874.517 810.854 880.021 804.905 884.342C791.043 894.411 775.991 903.265 760.312 910.182C753.767 913.069 746.463 916.255 739.262 916.717C719.481 917.988 725.981 891.569 715.677 882.318C713.16 881.784 713.096 881.882 710.912 882.917C710.109 884.687 709.131 886.253 707.791 887.667C684.493 912.259 602.078 966.952 568.306 967.914C546.533 968.535 538.673 933.61 524.923 920.523C516.866 919.087 509.494 930.422 503.891 935.551C478.132 959.129 449.671 978.572 419.856 996.626C389.966 1014.73 358.666 1031.36 326.405 1044.85C301.73 1055.17 272.843 1066.78 245.816 1067.93C241.84 1068.1 236.361 1068.62 232.702 1066.97L231.797 1066.52L230.834 1066.1C226.88 1064.22 223.487 1059.97 220.561 1056.78C212.352 1047.83 206.023 1037.37 199.387 1027.25C191.405 1015.07 182.05 1001.68 177.004 987.982C174.068 980.008 174.675 969.962 176.243 961.751C181.105 936.292 192.181 911.32 201.364 887.136C218.322 842.479 235.756 798.092 255.494 754.58C260.285 743.673 264.984 731.091 271.951 721.436L272.257 721.018C272.202 717.753 272.228 717.669 270.08 715.223C269.148 715.095 267.437 714.61 266.566 714.741C264.6 715.038 261.077 717.553 259.367 718.592C253.493 722.166 247.67 725.834 241.743 729.321C234.356 733.669 226.69 737.745 218.843 741.203C202.901 748.227 184.902 754.22 167.552 755.943C143.219 740.133 130.645 712.9 117.322 687.996L117.958 688.102C133.799 690.308 150.05 683.783 164.465 677.742C188.553 667.648 211.542 654.997 234.176 642.018C294.696 607.315 354.853 569.24 410.733 527.409C408.98 532.976 406.526 539.021 407.617 544.917C407.989 546.926 409.829 549.101 411.633 550.109C414.673 551.808 420.651 550.702 423.932 550.079C440.463 546.941 457.032 541.895 473.349 537.726C495.284 532.121 517.333 527.031 539.202 521.159C543.272 520.066 547.382 518.83 551.566 518.263C555.311 517.756 561.813 518.167 565.051 516.175C569.107 513.681 572.655 506.176 575.654 502.25C591.337 481.722 612.185 463.392 638.014 458.225C637.534 471.76 639.086 486.607 644.718 499.016C649.133 508.744 655.939 516.292 666.151 519.985C704.656 533.911 788.379 485.729 820.49 465.984C833.833 457.78 846.998 449.288 860.279 440.985C868.496 435.847 876.042 430.547 884.893 426.484C891.436 448.655 895.726 471.062 903.762 492.898C906.433 500.157 909.576 509.431 915.115 514.929C917.516 517.313 920.334 518.822 923.787 518.594C936.717 517.739 970.758 479.095 980.494 468.096C985.856 483.995 992.506 505.223 1003.55 518.143C1005.81 520.793 1008.79 523.244 1012.47 523.232C1015.7 523.222 1018.44 521.665 1020.73 519.527C1025.79 514.785 1033.24 505.679 1033.4 498.869C1031.48 496.643 1031.28 496.609 1028.39 496.004C1023.37 497.709 1016.35 509.244 1012.62 513.768C1003.45 502.204 997.568 488.128 992.558 474.341C990.921 469.835 989.731 464.396 987.543 460.204C986.626 458.445 984.71 457.217 983.097 456.146C980.422 455.757 979.32 455.382 977.001 457.158C972.394 460.687 968.026 467.027 964.037 471.393C952.752 483.743 938.213 499.859 924.044 508.613L923.019 509.233C912.856 495.757 907.548 474.499 902.876 458.5C900.829 451.488 895.64 424.975 892.066 421.874L891.314 421.288L889.562 419.931C887.007 418.221 884.007 417.774 881.073 418.69C868.581 422.59 856.479 433.306 845.179 439.952C813.915 458.336 783.02 477.368 749.919 492.335C733.227 499.882 715.419 507.111 697.385 510.613C686.25 512.775 672.576 514.03 662.807 507.175C652.596 500.011 648.097 482.677 647.397 470.859C647.131 466.363 647.9 460.867 646.887 456.542C646.281 453.95 644.474 452.354 642.271 451.008C639.092 449.066 632.298 449.781 628.785 450.538C600.768 456.572 574.717 484.722 559.699 507.557L556.795 507.749C544.271 507.755 530.987 513.026 518.811 516.132C498.75 521.251 478.591 525.963 458.541 531.127C444.536 534.734 430.534 539.251 416.282 541.654L425.298 515.289C425.952 512.896 425.101 512.012 423.838 510.165C421.122 509.191 418.676 508.755 416.187 510.735C381.341 538.454 343.522 562.533 305.966 586.501C260.299 615.646 212.733 646.184 162.828 667.559C152.629 671.928 134.183 680.262 123.169 678.738C118.912 678.149 113.991 675.632 109.976 674.032C94.5682 642.506 84.6693 608.309 92.9281 573.191C101.903 535.027 121.208 498.724 139.659 464.422C198.722 354.616 271.23 253.461 352.699 159.19C363.391 146.819 374.246 134.622 385.301 122.575C390.486 116.924 396.149 109.465 402.712 105.497C405.393 103.876 407.391 102.049 410.569 101.327C430.665 96.7619 547.269 102.539 562.128 112.79C565.917 115.404 568.81 118.525 571.005 122.579C578.27 136.001 581.531 153.176 584.909 167.989C591.933 198.788 597.518 230.007 603.006 261.111C604.401 269.017 604.98 277.085 606.539 284.93C607.611 286.138 608.256 287.348 609.885 287.722C614.159 288.704 628.066 282.332 633.229 281.018C659.692 274.283 697.685 270.379 723.265 281.846C727.175 283.599 731.054 285.869 732.543 290.108C733.271 292.179 734.011 293.449 735.393 295.149C743.617 296.76 748.133 291.443 754.581 287.345C758.965 284.558 763.644 282.065 768.343 279.854C802.076 263.981 847.28 256.298 882.949 270.065C887.563 271.846 892.274 273.99 896.383 276.77C899.952 279.184 903.299 283.127 907.373 284.482C908.072 284.715 907.773 284.658 908.611 284.41C909.287 284.211 910.674 283.986 911.251 283.631C913.724 282.108 917.29 275.987 919.48 273.529C929.733 262.021 942.712 248.335 956.471 241.074C960.909 238.732 967.157 236.246 972.17 238.114C976.731 239.813 979.501 244.198 981.496 248.389C986.406 258.706 987.892 271.182 987.05 282.516C986.611 288.431 983.961 294.335 986.427 299.901C988.22 300.845 989.858 301.84 991.897 300.566C993.674 299.456 995.875 296.472 997.29 294.897C1001.84 289.833 1008.39 282.58 1015.29 280.976C1029.62 277.643 1030.34 295.065 1038.74 300.171C1041.63 298.869 1042.81 296.062 1044.52 293.439C1048.71 287.015 1052.6 280.409 1056.63 273.887C1060.61 267.435 1065.19 259.135 1073.26 257.446C1080.9 255.847 1090.25 257.119 1097.9 258.185C1112.86 260.268 1137.49 263.049 1148.2 274.269C1153.39 279.71 1154.15 290.191 1159.47 293.766C1165.95 293.508 1169.89 287.949 1175.69 285.308C1193.75 277.089 1215.23 281.613 1232.12 290.63C1236.44 292.938 1239.88 296.569 1244.46 298.31C1247.76 297.174 1248.34 296.049 1250.42 293.379C1252.96 281.526 1250.73 266.72 1250.78 254.454C1250.86 228.302 1251.28 202.077 1252.28 175.944C1252.66 165.971 1253.15 155.987 1254.19 146.058C1254.67 141.423 1256.76 136.295 1256.11 131.709C1302.35 109.533 1349.66 85.2859 1399.02 70.9879Z"/>
	<path fill="#FEFEFE" d="M1066.53 666.603C1069.05 667.146 1069.89 667.882 1071.58 669.794C1073.77 677.269 1064.49 694.94 1062.08 702.661C1056.13 721.728 1050.5 740.887 1044.35 759.895C1038.73 777.242 1032.37 794.666 1028.24 812.425L976.665 826.805C975.132 826.986 973.629 826.735 972.098 826.582L970.462 824.366C970.266 815.862 972.824 808.156 974.952 800.02C977.938 788.607 980.973 777.207 983.971 765.797C991.028 738.931 997.636 711.796 1005.43 685.138L1066.53 666.603Z"/>
	<path fill="#FEFEFE" d="M1055.46 471.083C1056.73 471.64 1058.67 472.216 1059.79 472.975C1063.77 475.659 1084.01 523.421 1087.59 531.391L1147.88 526.606C1150.51 526.694 1151.92 527.911 1153.73 529.703C1154.67 530.63 1154.3 532.343 1154.32 533.64C1151.06 539.257 1143.04 544.561 1138.1 548.832C1126.86 558.535 1115.66 568.273 1104.46 578.026L1113.16 638.421C1113.28 641.937 1111.77 645.225 1109.46 647.799C1108.61 647.888 1107.14 648.257 1106.35 648.127C1102.04 647.423 1065.53 616.114 1059.43 611.196L1057.47 609.662C1053.53 609.568 1048.37 615.093 1045.17 617.681C1035.64 625.384 1026.14 633.116 1016.6 640.818C1013.07 643.671 1008.53 648.34 1004.45 650.256C1002.07 651.374 1000.58 650.254 998.476 649.248C995.542 643.318 998.803 632.09 999.848 625.422C1001.91 612.249 1003.89 599.062 1005.91 585.881C994.776 577.541 983.615 569.234 972.656 560.669C969.908 558.522 964.169 554.918 962.293 552.153C962.011 551.736 961.915 549.703 961.822 549.094C962.135 548.634 962.838 547.272 963.24 547.007C966.995 544.535 976.557 543.624 981.087 542.672C997.659 539.189 1014.24 535.735 1030.83 532.348C1035.39 518.98 1040.06 505.657 1044.91 492.388C1047.47 485.373 1049.42 475.82 1055.46 471.083Z"/>
	<path fill="#FEFEFE" d="M1241.89 624.122C1245.78 629.514 1243.97 666.438 1243.03 674.658L1235.08 676.61C1213.79 681.536 1190.4 692.084 1171.73 703.45C1168.41 705.477 1163.01 708.079 1161.13 711.491C1153.6 725.22 1132.88 773.548 1137.26 787.682C1138.27 790.933 1139.87 793.005 1143.05 794.313C1146.65 795.797 1151.81 795.283 1155.6 794.93C1184.38 792.245 1208.63 772.865 1234.93 761.978C1233.9 774.097 1231.62 786.317 1229.11 798.218C1227.99 803.512 1226.87 809.857 1223.97 814.496C1219.46 821.69 1208.03 823.396 1200.27 825.156C1178.48 829.663 1156.37 832.614 1134.36 835.83C1118.92 838.086 1103.12 841.265 1087.51 841.252C1084.62 839.64 1082.84 835.863 1081.81 832.801C1073.13 806.986 1108.02 718.904 1119.93 694.532C1123.32 687.608 1128.5 674.768 1134.04 669.56C1140.28 663.705 1151.53 659.87 1159.36 656.42C1186.17 644.61 1214.19 633.631 1241.89 624.122Z"/>
	<path fill="#FEFEFE" d="M952.158 281.736C952.942 281.749 953.942 281.699 954.713 281.93C956.76 282.542 957.241 283.708 958.151 285.413L957.518 290.819C957.002 297.318 957.71 304.006 957.819 310.526C958.03 323.137 958.086 335.753 958.236 348.366C958.303 353.963 958.301 359.569 958.648 365.156C958.744 366.691 958.55 369.606 959.057 370.892C959.289 371.481 960.447 372.514 960.9 373.043C961.413 373.099 961.975 373.437 962.44 373.212C963.989 372.459 967.287 367.733 968.574 366.281C977.02 356.749 999.454 327.68 1010.73 323.874C1012.5 324.009 1015.43 324.289 1016.51 325.996C1017.7 327.867 1018.43 331.787 1019.14 334.058C1021.65 342.058 1023.57 350.223 1025.71 358.325C1026.94 363 1027.68 367.314 1031.74 370.409C1041.22 365.123 1047.18 349.393 1052.34 340.283C1063.05 321.36 1073.86 303.768 1081.86 283.395L1131.11 299.773L1077.74 390.648C1065.24 412.049 1052.63 433.388 1040.11 454.775C1036.53 460.882 1033.59 469.251 1029.08 474.428C1026.76 475.639 1025.35 475.432 1022.8 475.094C1016.57 470.729 1013.73 460.276 1011.06 453.365C1005.36 438.65 1000.23 423.751 994.227 409.154L941.192 471.591C939.296 473.423 936.499 473.924 933.948 473.574C931.894 473.293 930.413 471.955 929.292 470.32C925.285 464.477 924.285 451.473 922.966 444.434C917.392 414.687 913.633 384.938 910.868 354.812C909.951 344.817 907.75 329.511 909.941 319.81C912.24 309.636 942.384 287.715 952.158 281.736Z"/>
	<path fill="#FEFEFE" d="M573.477 276.091L574.707 276.005C578.104 275.958 578.69 276.451 581.071 278.652C582.45 285.862 579.574 295.133 578.28 302.307C575.696 316.633 573.164 330.984 570.067 345.209C594.781 326.932 623.1 311.492 653.273 304.73C665.971 301.885 678.111 300.999 691.044 301.257C695.021 301.337 698.482 300.372 701.913 302.529C702.629 304.174 703.33 305.929 703.137 307.758C702.475 314.027 699.077 321.505 697.01 327.476C691.37 343.772 685.229 359.898 679.22 376.062C671.598 372.576 663.708 369.656 655.158 370.352C624.722 372.832 594.945 396.232 575.801 418.647C561.307 436.932 552.252 455.956 546.038 478.359L455.016 487.233C480.724 432.306 503.185 372.577 517.575 313.658C533.775 298.804 553.985 286.139 573.477 276.091Z"/>
	<path fill="#FEFEFE" d="M833.166 290.077C843.78 288.606 856.284 289.826 865.904 294.645C873.796 298.599 880.296 305.2 882.978 313.745C888.468 331.237 882.613 351.301 874.204 366.836C856.793 399.001 825.339 423.158 795.152 442.689C772.91 457.081 748.845 470.273 723.33 477.807L712.731 480.397C703.301 482.15 690.998 483.194 682.75 477.281C677.729 473.682 675.423 467.412 674.622 461.503C671.942 441.723 683.279 416.698 693.574 400.186C695.183 397.605 697.385 395.457 698.995 392.908C700.601 390.367 701.643 387.466 703.257 384.897C709.071 375.643 715.946 366.674 722.559 357.965C730.662 347.292 740.444 338.465 750.797 330.015C774.389 310.76 802.616 294.235 833.166 290.077Z"/>
	<path d="M802.437 346.004C805.567 346.048 809.255 346.242 812.154 347.49C816.218 349.239 819.347 352.771 820.872 356.887C822.752 361.961 821.587 367.622 819.323 372.37C811.397 388.992 793.937 402.624 776.841 408.485C772.062 408.808 767.738 408.695 763.599 405.842C760.072 403.411 758.16 399.934 757.444 395.742C756.12 387.991 760.928 379.438 765.177 373.307C774.279 360.173 786.242 348.938 802.437 346.004Z"/>
	<path fill="#FEFEFE" d="M693.132 649.428L699.737 649.531C702.214 651.407 702.953 652.226 703.638 655.353C705.876 665.579 704.435 678.663 703.072 688.926C698.355 724.431 687.046 759.327 674.862 792.881C670.881 803.844 667.281 816.254 660.941 826.1C646.238 848.936 568.122 870.818 540.124 876.765L529.871 877.853C525.17 858.466 530.478 835.118 534.572 815.911C537.823 800.656 541.217 785.439 544.635 770.221C550.346 744.8 555.151 719.049 563.678 694.367C580.537 683.131 601.329 676.347 620.321 669.629C643.784 661.331 668.31 652.329 693.132 649.428Z"/>
	<path d="M630.203 709.066C633.214 708.844 636.91 708.462 639.824 709.304C644.103 710.541 647.989 714.125 649.92 718.121C653.822 726.195 651.253 736.227 648.338 744.228C641.587 762.752 629.082 786.113 610.558 794.731C606.914 795.65 603.714 795.857 600.093 794.656C595.97 793.289 592.367 790.046 590.609 786.061C585.83 775.231 591.004 761.077 594.807 750.68C598.898 739.494 607.094 723.015 616.929 715.759C620.683 712.989 625.949 711.036 630.203 709.066Z"/>
	<path fill="#FEFEFE" d="M788.864 638.273C791.881 638.44 792.568 638.543 795.102 640.15C799.62 646.629 794.63 688.993 794.027 698.858L818.217 673.382C826.647 665.078 843.675 646.201 856.2 646.868C859.072 647.021 861.565 648.297 863.419 650.51C872.987 661.933 864.464 689.539 862.821 702.935C862.513 705.441 862.139 706.53 863.771 708.585C866.523 708.881 868.347 709.507 870.687 707.651C875.365 703.941 880.063 696.272 884.158 691.576C897.814 675.914 924.308 646.153 944.462 639.393C947.742 638.293 952.066 637.699 955.196 639.485C958.189 641.192 959.862 643.869 960.678 647.13C962.238 653.367 961.389 662.04 960.562 668.397C955.132 710.128 943.706 751.451 933.684 792.263C931.609 800.713 929.537 809.163 927.451 817.609C925.657 824.867 925.267 829.682 921.234 836.29L891.692 846.567L881.922 849.686C878.142 850.661 876.177 850.089 872.959 848.137C870.533 844.949 870.06 842.345 869.962 838.384C869.809 832.133 871.431 825.223 872.157 818.959C874.316 800.345 876.881 781.363 875.072 762.629C860.844 770.402 852.556 782.958 840.425 793.152C837.051 795.987 833.885 796.561 829.607 796.124C827.247 795.882 824.155 795.006 822.155 793.671C820.107 792.304 819.066 787.094 818.378 784.751C815.282 774.209 813.429 756.948 806.654 748.351C803.818 746.833 803.739 746.658 800.624 747.33C799.925 748.145 798.749 749.186 798.25 750.097C796.525 753.253 796.375 760.832 795.83 764.73C792.845 786.083 790.725 807.404 788.814 828.876C777.594 833.809 766.359 838.752 755.294 844.024C750.754 846.187 743.416 850.969 738.7 851.23L738.077 850.316C736.668 848.002 736.838 843.891 736.872 841.268C737.436 798.465 740.055 755.379 741.769 712.587C742.233 701.029 742.543 689.467 743.02 677.911C743.218 673.101 742.784 667.014 744.273 662.506C745.231 659.607 746.5 657.822 749.192 656.385C753.622 654.019 757.895 651.284 762.482 649.223C771.255 645.279 780.18 642.667 788.864 638.273Z"/>
	<path fill="#FEFEFE" d="M1373.94 101.89C1374.99 102.506 1375.5 102.966 1376.32 103.83C1345.58 180.129 1321.95 258.017 1312.01 339.898C1307.73 375.191 1306.23 411.126 1306.07 446.664C1306.02 455.673 1306.22 464.764 1306.76 473.757C1307.13 479.724 1309.57 489.308 1307.39 494.622C1307.2 495.614 1307.09 496.35 1306.49 497.196C1300.32 505.923 1289.27 510.688 1280.01 515.244C1268.54 520.888 1257.47 526.376 1244.94 529.226C1246.01 520.694 1244.88 511.766 1245.34 503.131C1246.44 482.765 1249.37 461.973 1248.82 441.622C1248.72 437.921 1248.22 433.769 1246.52 430.413C1244.89 427.19 1241.62 424.352 1238.16 423.36C1235.23 422.518 1231.52 422.87 1228.67 423.802C1220.33 426.532 1212.06 432.142 1204.25 436.297C1191.01 443.345 1177.61 450.123 1164.26 456.963C1153.21 462.459 1106.4 487.143 1095.72 483.578C1094.83 480.717 1095.66 477.141 1096.16 474.24C1098.13 462.825 1102.74 451.142 1107.44 440.575C1122.91 405.859 1143.94 372.338 1165.95 341.325C1171.28 333.812 1180.17 319.931 1188.55 315.882C1197 311.8 1240.03 327.005 1251.03 329.531C1254.05 330.224 1259.13 332.133 1262.09 330.761C1264.48 329.655 1267.23 327.552 1267.86 324.847C1268.97 319.996 1268.11 313.62 1268.23 308.594C1268.42 300.71 1269.16 292.757 1269.67 284.883C1270.75 268.074 1281.18 150.015 1278.67 145.34C1278.58 145.171 1278.47 145.013 1278.37 144.849C1285.05 143.727 1291.85 140.414 1298.14 137.917C1314.3 131.504 1330.04 124.04 1345.71 116.541C1354.5 112.333 1366.34 107.836 1373.94 101.89Z"/>
	<path d="M1205.48 360.579C1208.27 360.809 1211.29 360.99 1213.92 361.994C1218.36 363.697 1221.31 367.287 1223.02 371.647C1224.95 376.575 1223.73 383.175 1221.49 387.795C1215.43 400.291 1202.62 411.829 1189.62 416.41C1186.2 416.57 1182.39 416.857 1179.32 415.1C1175.74 413.056 1172.56 409.801 1171.71 405.663C1169.9 396.929 1174.77 388.114 1179.62 381.239C1186.13 372.029 1193.85 362.504 1205.48 360.579Z"/>
	<path fill="#FEFEFE" d="M529.899 551.851C533.626 552.129 537.126 552.851 539.828 555.64C542.063 557.948 542.823 560.507 542.833 563.631C542.859 571.693 538.553 579.323 535.624 586.635C530.848 598.557 525.683 618.147 514.286 625.537C502.084 633.449 484.127 635.451 470.122 638.452C455.863 641.506 441.537 647.687 428.567 654.171C425.196 655.857 421.475 656.761 418.117 658.458C410.72 662.197 404.021 668.237 397.435 673.184C394.898 675.09 392.005 676.613 389.6 678.682C383.136 684.242 376.756 691.124 370.87 697.322C350.782 718.474 332.903 747.278 321.44 774.053C318.982 779.795 317.357 785.869 315.191 791.728C310.961 803.171 306.207 815.182 306.746 827.603C307.087 835.484 309.225 843.205 315.34 848.599C347.348 876.832 426.213 803.847 448.789 781.443C455.234 775.047 461.556 768.553 467.642 761.813C471.647 757.377 475.519 752.203 480.035 748.303C482.351 746.303 485.148 744.829 488.222 744.621L488.952 745.376C490.984 747.675 490.989 750.918 490.605 753.783C488.467 769.731 484.011 785.8 480.369 801.484C478.165 810.975 476.767 823.488 471.819 831.943C467.698 838.986 460.152 844.704 454.134 850.173C438.346 864.518 422.278 878.024 405.249 890.879C354.268 927.745 299.092 959.179 239.867 980.751C231.104 983.943 220.167 988.908 210.898 989.835C206.395 990.286 204.086 988.897 200.775 986.15L199.856 985.377C197.998 985.212 196.944 985.157 195.475 983.856C195.184 981.72 194.827 979.481 194.925 977.322C195.587 962.842 200.615 948.229 204.742 934.474C216.189 896.323 231.576 859.214 247.893 822.908C270.18 773.32 294.528 724.977 319.169 676.551C326.087 662.956 333.024 649.402 340.264 636.022C341.75 633.275 342.758 629.313 345.141 627.253C347.8 624.954 350.12 622.166 353.007 620.126C362.799 613.21 374.935 607.534 385.649 601.995C420.717 583.868 458.364 569.546 496.523 559.455C507.646 556.513 518.46 553.336 529.899 551.851Z"/>
	<path fill="#FEFEFE" d="M501.368 125.144C517.372 123.964 535.942 124.48 551.297 129.139L554.104 139.912C547.326 157.414 537.553 173.166 526.105 188.012C520.497 195.284 511.066 208.922 502.815 212.913C497.4 215.531 487.703 215.646 481.52 216.578C459.802 219.849 435.692 222.549 415.64 232.005C405.448 236.812 396.296 243.523 388.019 251.133C371.526 266.296 356.941 283.637 342.886 301.049C319.157 330.448 297.39 361.373 276.958 393.139C265.96 410.238 252.995 429.094 246.295 448.422C243.688 455.943 241.299 466.054 244.951 473.573C247.109 478.017 250.453 481.396 255.233 482.924C261.661 484.98 268.481 483.444 274.67 481.301C291.238 475.562 307.242 465.403 322.357 456.622C344.767 443.602 366.974 430.226 389.165 416.836C402.882 408.559 416.466 399.774 430.712 392.445C430.905 412.263 425.95 432.227 420.175 451.059C418.623 456.122 417.253 462.812 413.913 466.999C406.271 476.579 392.876 482.901 382.48 489.343C368.337 498.108 354.242 506.947 340.059 515.649C308.053 534.921 275.095 552.644 242.222 570.387C224.643 579.876 206.988 589.216 189.168 598.246C172.586 606.65 151.431 618.977 132.68 619.842C127.525 620.08 122.145 618.901 118.356 615.205C114.199 611.15 113.225 604.863 113.192 599.319C113.103 584.451 117.727 568.732 122.562 554.772C131.359 529.37 143.027 504.776 156 481.266C173.8 449.007 194.612 418.052 215.443 387.676C250.438 336.645 287.551 287.083 325.312 238.076C339.063 220.23 353.014 202.542 366.945 184.836C377.9 170.911 388.243 157.113 400.624 144.38C415.36 129.225 431.478 128.582 451.101 126.938C467.849 125.535 484.571 125.393 501.368 125.144Z"/>
</svg>
