<!DOCTYPE svg PUBLIC "-//W3C//DTD SVG 1.1//EN" "http://www.w3.org/Graphics/SVG/1.1/DTD/svg11.dtd">
<!-- Uploaded to: SVG Repo, www.svgrepo.com, Transformed by: SVG Repo Mixer Tools -->
<svg width="800px" height="800px" viewBox="-0.02 0 20.238 20.238" xmlns="http://www.w3.org/2000/svg" fill="#000000" transform="matrix(-1, 0, 0, 1, 0, 0)">
<g id="SVGRepo_bgCarrier" stroke-width="0"/>
<g id="SVGRepo_tracerCarrier" stroke-linecap="round" stroke-linejoin="round"/>
<g id="SVGRepo_iconCarrier"> <g id="eraser-2" transform="translate(-1.926 -1.881)"> <path id="secondary" fill="#ffffff" d="M17.17,10.1,10.36,3.29A1,1,0,0,0,9,3.29L3.29,9a1,1,0,0,0,0,1.41l6.82,6.81Z"/> <path id="primary" d="M3.29,10.36A1,1,0,0,1,3.29,9L9,3.29a1,1,0,0,1,1.41,0l10.3,10.35a1,1,0,0,1,0,1.41l-5.66,5.66a1,1,0,0,1-1.41,0Zm17.42,4.69-5.66,5.66a1,1,0,0,1-1.41,0l-3.53-3.54,7.06-7.07,3.54,3.54a1,1,0,0,1,0,1.41ZM6,21h8" fill="none" stroke="#000000" stroke-linecap="round" stroke-linejoin="round" stroke-width="2"/> </g> </g>
</svg>