<svg xmlns="http://www.w3.org/2000/svg"  viewBox="0 0 64 64" width="192px" height="192px"><path d="M 32 10 C 19.85 10 10 19.85 10 32 C 10 44.15 19.85 54 32 54 C 44.15 54 54 44.15 54 32 C 54 19.85 44.15 10 32 10 z M 32 14 C 41.941 14 50 22.059 50 32 C 50 41.941 41.941 50 32 50 C 22.059 50 14 41.941 14 32 C 14 22.059 22.059 14 32 14 z M 32 21 C 30.343 21 29 22.343 29 24 C 29 25.657 30.343 27 32 27 C 33.657 27 35 25.657 35 24 C 35 22.343 33.657 21 32 21 z M 32 30 C 30.895 30 30 30.896 30 32 L 30 42 C 30 43.104 30.895 44 32 44 C 33.105 44 34 43.104 34 42 L 34 32 C 34 30.896 33.105 30 32 30 z"/></svg>