<?xml version="1.0" encoding="utf-8"?><!-- Uploaded to: SVG Repo, www.svgrepo.com, Generator: SVG Repo Mixer Tools -->
<svg fill="#000000" width="800px" height="800px" viewBox="0 0 32 32" xmlns="http://www.w3.org/2000/svg">
    <path d="M27,3H5A1,1,0,0,0,5,5H27a1,1,0,0,0,0-2Z"/>
    <path d="M27,7H15a1,1,0,0,0,0,2H27a1,1,0,0,0,0-2Z"/>
    <path d="M27,11H5a1,1,0,0,0,0,2H27a1,1,0,0,0,0-2Z"/>
    <path d="M27,15H15a1,1,0,0,0,0,2H27a1,1,0,0,0,0-2Z"/>
    <path d="M27,19H5a1,1,0,0,0,0,2H27a1,1,0,0,0,0-2Z"/>
    <path d="M27,23H15a1,1,0,0,0,0,2H27a1,1,0,0,0,0-2Z"/>
    <path d="M27,27H5a1,1,0,0,0,0,2H27a1,1,0,0,0,0-2Z"/>
</svg>