<!DOCTYPE svg PUBLIC "-//W3C//DTD SVG 1.1//EN" "http://www.w3.org/Graphics/SVG/1.1/DTD/svg11.dtd">
<!-- Uploaded to: SVG Repo, www.svgrepo.com, Transformed by: SVG Repo Mixer Tools -->
<svg fill="#ffffff" width="800px" height="800px" viewBox="0 0 32 32" version="1.1" xmlns="http://www.w3.org/2000/svg" stroke="#ffffff">
<g id="SVGRepo_bgCarrier" stroke-width="0"/>
<g id="SVGRepo_tracerCarrier" stroke-linecap="round" stroke-linejoin="round"/>
<g id="SVGRepo_iconCarrier"> <title>shapes</title> <path d="M9.072 15.25h13.855c0.69-0 1.249-0.56 1.249-1.25 0-0.23-0.062-0.446-0.171-0.631l0.003 0.006-6.927-12c-0.237-0.352-0.633-0.58-1.083-0.58s-0.846 0.228-1.080 0.575l-0.003 0.005-6.928 12c-0.105 0.179-0.167 0.395-0.167 0.625 0 0.69 0.56 1.25 1.25 1.25 0 0 0 0 0.001 0h-0zM16 4.5l4.764 8.25h-9.526zM7.838 16.75c-0.048-0.001-0.104-0.002-0.161-0.002-4.005 0-7.252 3.247-7.252 7.252s3.247 7.252 7.252 7.252c0.056 0 0.113-0.001 0.169-0.002l-0.008 0c0.048 0.001 0.104 0.002 0.161 0.002 4.005 0 7.252-3.247 7.252-7.252s-3.247-7.252-7.252-7.252c-0.056 0-0.113 0.001-0.169 0.002l0.008-0zM7.838 28.75c-0.048 0.002-0.103 0.003-0.16 0.003-2.625 0-4.753-2.128-4.753-4.753s2.128-4.753 4.753-4.753c0.056 0 0.112 0.001 0.168 0.003l-0.008-0c0.048-0.002 0.103-0.003 0.16-0.003 2.625 0 4.753 2.128 4.753 4.753s-2.128 4.753-4.753 4.753c-0.056 0-0.112-0.001-0.168-0.003l0.008 0zM28 16.75h-8c-1.794 0.001-3.249 1.456-3.25 3.25v8c0.001 1.794 1.456 3.249 3.25 3.25h8c1.794-0.001 3.249-1.456 3.25-3.25v-8c-0.001-1.794-1.456-3.249-3.25-3.25h-0zM28.75 28c-0 0.414-0.336 0.75-0.75 0.75h-8c-0.414-0-0.75-0.336-0.75-0.75v0-8c0-0.414 0.336-0.75 0.75-0.75h8c0.414 0 0.75 0.336 0.75 0.75v0z"/> </g>
</svg>