<?xml version="1.0" encoding="UTF-8"?>
<svg version="1.1" xmlns="http://www.w3.org/2000/svg" width="587" height="268">
<path d="M0 0 C0.79666077 0.00045822 1.59332153 0.00091644 2.41412354 0.00138855 C4.08127349 0.00438408 5.74842133 0.01218811 7.41552734 0.0246582 C9.96071309 0.0430235 12.50553581 0.04516666 15.05078125 0.04492188 C16.67969063 0.0498345 18.30859757 0.0556617 19.9375 0.0625 C21.07043488 0.06416924 21.07043488 0.06416924 22.22625732 0.06587219 C26.02177974 0.09991335 29.49914263 0.43645896 33.203125 1.23046875 C35.20719978 0.92258017 37.20693165 0.58588854 39.203125 0.23046875 C41.96451228 0.13769487 44.69321007 0.08850648 47.453125 0.10546875 C48.20311768 0.10667725 48.95311035 0.10788574 49.72583008 0.10913086 C54.54307647 0.14291968 59.25537032 0.40273908 64.02734375 1.109375 C66.30798819 1.31947419 66.30798819 1.31947419 68.93994141 0.74633789 C72.21578728 0.228467 75.27582539 0.1011153 78.58984375 0.09765625 C79.77513672 0.09636719 80.96042969 0.09507813 82.18164062 0.09375 C83.40560547 0.09761719 84.62957031 0.10148437 85.890625 0.10546875 C87.74397461 0.09966797 87.74397461 0.09966797 89.63476562 0.09375 C91.4069043 0.09568359 91.4069043 0.09568359 93.21484375 0.09765625 C94.83072388 0.09934814 94.83072388 0.09934814 96.47924805 0.10107422 C99.203125 0.23046875 99.203125 0.23046875 102.203125 1.23046875 C102.863125 0.90046875 103.523125 0.57046875 104.203125 0.23046875 C105.89498102 0.13478792 107.59059744 0.10251443 109.28515625 0.10107422 C110.87952515 0.09634598 110.87952515 0.09634598 112.50610352 0.09152222 C114.24331665 0.09455856 114.24331665 0.09455856 116.015625 0.09765625 C117.2130835 0.09669952 118.41054199 0.0957428 119.64428711 0.09475708 C122.19319714 0.09407474 124.7421089 0.09593278 127.29101562 0.10009766 C131.1315521 0.10537048 134.97196756 0.10019385 138.8125 0.09375 C150.18275275 0.09134345 161.52198613 0.1025599 172.86755371 0.92501831 C177.0057765 1.22046757 180.76593267 1.06974098 184.84765625 0.41796875 C189.53595798 0.0447706 194.2710165 0.65872577 198.9453125 1.07421875 C202.21386864 1.42761689 202.21386864 1.42761689 205.203125 0.23046875 C207.7192214 0.13375897 210.20671291 0.09047718 212.72265625 0.09765625 C213.45884689 0.09669952 214.19503754 0.0957428 214.95353699 0.09475708 C216.51109909 0.09407693 218.06866405 0.09591975 219.6262207 0.10009766 C221.99632236 0.10542536 224.36623254 0.10015899 226.73632812 0.09375 C228.25260458 0.09441126 229.76888092 0.09569341 231.28515625 0.09765625 C231.98848587 0.09563202 232.69181549 0.09360779 233.41645813 0.09152222 C237.45559146 0.11050906 241.2348214 0.50690141 245.203125 1.23046875 C249.48855125 1.37331629 253.51561191 1.21560977 257.765625 0.69140625 C263.38420874 0.11262816 268.82738914 0.37847586 274.453125 0.73046875 C282.20126837 1.15227145 289.57466439 1.15291447 297.30078125 0.41796875 C299.97823828 0.2449971 302.30317822 0.37297171 304.953125 0.73046875 C309.66209097 1.34131984 314.17086872 1.09936313 318.890625 0.79296875 C324.78841344 0.41503186 330.66734777 0.09519839 336.578125 0.04296875 C337.76148438 0.02878906 338.94484375 0.01460938 340.1640625 0 C343.156464 0.22693019 344.61890475 0.84626439 347.203125 2.23046875 C349.91458817 1.9926211 352.51990439 1.6481613 355.203125 1.23046875 C365.27718824 -0.01445614 376.17368727 -0.81196715 386.265625 0.73046875 C394.89163987 1.82583572 403.62756211 1.5444931 412.23046875 0.38671875 C414.95547516 0.17087666 417.47265072 0.55592389 420.1640625 0.96875 C424.73118335 1.55495134 429.3527185 1.6023459 433.86962891 0.69458008 C437.60319909 0.17476779 441.0798632 0.37188781 444.8125 0.671875 C452.78811763 1.21027902 460.7264491 1.30071197 468.71875 1.2578125 C469.91286499 1.25222321 471.10697998 1.24663391 472.33728027 1.24087524 C477.29492261 1.21362956 482.25243977 1.1786585 487.20996094 1.13452148 C522.58717389 0.84086749 522.58717389 0.84086749 528.01904297 5.80273438 C530.75705909 9.43201695 530.86287961 13.02838983 530.7265625 17.4453125 C530.72185944 18.21927872 530.71715637 18.99324493 530.71231079 19.79066467 C530.69107999 22.25069507 530.63458634 24.70852247 530.578125 27.16796875 C530.56160036 28.8157346 530.54725683 30.46352385 530.53515625 32.11132812 C530.40301387 43.99434051 530.40301387 43.99434051 529.62353516 48.81469727 C529.16399958 52.54835711 529.66613844 55.51511058 530.203125 59.23046875 C530.28922121 61.41954926 530.3309393 63.61074131 530.33251953 65.80151367 C530.33724777 67.69464546 530.33724777 67.69464546 530.34207153 69.62602234 C530.34028042 70.98766108 530.33822914 72.34929951 530.3359375 73.7109375 C530.33661256 75.12950151 530.33758427 76.54806541 530.33883667 77.96662903 C530.34030651 80.93455104 530.3381837 83.90244285 530.33349609 86.87036133 C530.32782539 90.64117715 530.33106543 94.41192135 530.33706856 98.18273449 C530.34071589 101.11272196 530.33951617 104.04269302 530.33694077 106.97268105 C530.33628162 108.36109743 530.33706378 109.74951538 530.33942032 111.13792992 C530.34956122 118.79654664 530.14383729 126.3247358 529.31954956 133.94258118 C529.01343518 136.26116571 529.01343518 136.26116571 530.203125 138.23046875 C530.66825491 146.01455456 530.05279585 153.85292857 529.47119141 161.61743164 C529.08419612 165.54426213 529.08419612 165.54426213 530.203125 169.23046875 C530.13973523 171.50385626 530.00382456 173.77549467 529.828125 176.04296875 C529.69277344 177.87794922 529.69277344 177.87794922 529.5546875 179.75 C529.203125 183.23046875 529.203125 183.23046875 528.5390625 185.9921875 C527.90468591 188.51086764 527.90468591 188.51086764 530.203125 191.23046875 C530.54391159 192.69909667 530.8323032 194.18049602 531.078125 195.66796875 C531.91054377 199.72519095 532.99725655 201.51033795 536.203125 204.23046875 C538.05641301 206.973335 539.36053181 209.60687634 540.640625 212.66796875 C542.18145709 216.18106592 544.06541359 219.05838084 546.203125 222.23046875 C546.66525391 223.42349609 546.66525391 223.42349609 547.13671875 224.640625 C548.22164577 227.27544775 549.52599074 229.24948765 551.203125 231.54296875 C553.27430464 234.54467837 554.59452811 236.96835117 555.328125 240.54296875 C555.85296974 244.22843391 555.85296974 244.22843391 558.140625 246.10546875 C561.37446673 249.43730569 562.45593492 253.69844669 563.203125 258.23046875 C562.70749312 262.58313333 561.55365681 264.38759327 558.203125 267.23046875 C551.74828052 270.45789099 542.46571831 267.74994916 535.765625 266.29296875 C534.88197266 266.11056641 533.99832031 265.92816406 533.08789062 265.74023438 C529.71717977 265.03533286 526.47333656 264.32053927 523.203125 263.23046875 C521.49764996 263.05432952 519.78851009 262.9123546 518.078125 262.79296875 C505.43745251 261.72002042 505.43745251 261.72002042 500.203125 258.23046875 C498.03364596 257.82277165 498.03364596 257.82277165 495.6328125 257.703125 C494.28703125 257.59774414 494.28703125 257.59774414 492.9140625 257.49023438 C491.04703118 257.36036512 489.17984482 257.23270278 487.3125 257.10742188 C482.93542402 256.761371 479.14710783 256.33095923 475.06640625 254.671875 C468.22587283 252.1750803 460.69298869 252.95677187 453.515625 253.10546875 C451.28397487 253.14074221 449.05238813 253.1715249 446.82060242 253.19680786 C444.80386105 253.22129105 442.78728538 253.25846449 440.77075195 253.29638672 C437.45822649 253.23518218 434.45763535 252.79947259 431.203125 252.23046875 C428.88051211 252.18075674 428.88051211 252.18075674 426.60546875 252.3515625 C425.73510986 252.40006348 424.86475098 252.44856445 423.96801758 252.49853516 C423.03497803 252.55444824 422.10193848 252.61036133 421.140625 252.66796875 C411.5960703 253.16161208 402.07274803 253.34650951 392.515625 253.35546875 C391.2567749 253.3598999 389.9979248 253.36433105 388.70092773 253.36889648 C387.52216064 253.36704346 386.34339355 253.36519043 385.12890625 253.36328125 C384.08130127 253.36215332 383.03369629 253.36102539 381.9543457 253.35986328 C379.203125 253.23046875 379.203125 253.23046875 376.95776367 252.65966797 C375.11039724 252.00728044 375.11039724 252.00728044 373.203125 253.23046875 C371.46360874 253.32626122 369.72042273 253.35842435 367.97827148 253.35986328 C366.88630966 253.36301544 365.79434784 253.3661676 364.66929626 253.36941528 C363.48292068 253.36739105 362.2965451 253.36536682 361.07421875 253.36328125 C359.85541519 253.36423798 358.63661163 253.3651947 357.38087463 253.36618042 C354.7941991 253.3668623 352.20752187 253.3650075 349.62084961 253.36083984 C345.68143806 253.35552382 341.74214221 253.36076791 337.80273438 253.3671875 C335.28906225 253.36652609 332.7753902 253.36524363 330.26171875 253.36328125 C329.08951279 253.36530548 327.91730682 253.36732971 326.70957947 253.36941528 C321.92290518 253.3558713 317.23079471 253.30575082 312.47949219 252.69555664 C307.83815101 252.10510138 303.37962562 252.34567971 298.72265625 252.65625 C287.52040979 253.29096542 276.34171469 253.41662557 265.12329102 253.41577148 C261.84834507 253.41799749 258.57371669 253.4363617 255.29882812 253.45507812 C253.18750113 253.45800648 251.07617257 253.459995 248.96484375 253.4609375 C248.00019699 253.46812302 247.03555023 253.47530853 246.04167175 253.48271179 C241.73790094 253.46820307 237.93007373 253.28294743 233.78051758 252.09106445 C229.76364136 251.12474434 229.56042285 251.36982167 226.203125 253.23046875 C223.24175965 253.54335264 220.28384112 253.48662234 217.30859375 253.4609375 C216.44301346 253.46047928 215.57743317 253.46002106 214.68562317 253.45954895 C212.8557498 253.45653124 211.0258789 253.44865934 209.19604492 253.4362793 C206.4112017 253.41810305 203.62669306 253.41576924 200.84179688 253.41601562 C199.05989299 253.4110967 197.27799134 253.40526675 195.49609375 253.3984375 C194.25668282 253.39676826 194.25668282 253.39676826 192.99223328 253.39506531 C189.39801732 253.36594308 186.06106453 253.20850315 182.49731445 252.6574707 C179.33394327 252.07387403 179.33394327 252.07387403 176.74726868 252.69569397 C171.56649113 253.47741995 166.43477614 253.36922235 161.20263672 253.35986328 C159.99874298 253.3616156 158.79484924 253.36336792 157.55447388 253.36517334 C154.26539561 253.36881211 150.97635781 253.36797106 147.68728018 253.36479425 C144.24050406 253.36225589 140.79373057 253.3646122 137.34695435 253.36618042 C131.56186439 253.36799731 125.77678723 253.36560788 119.99169922 253.36083984 C113.30584499 253.355393 106.62002124 253.35716487 99.93416774 253.36266625 C94.18795698 253.36720491 88.44175539 253.36784439 82.69554341 253.36522758 C79.26600655 253.36366962 75.83648402 253.36345799 72.40694809 253.36676407 C68.58621901 253.36929724 64.7655489 253.36544075 60.94482422 253.35986328 C59.80914001 253.36188751 58.67345581 253.36391174 57.50335693 253.36599731 C56.46317413 253.36317749 55.42299133 253.36035767 54.35128784 253.35745239 C53.44834929 253.35707537 52.54541073 253.35669834 51.6151104 253.35630989 C49.33056272 253.23711759 47.40780542 252.79906165 45.203125 252.23046875 C42.78904481 252.31045551 40.37703164 252.45916511 37.96875 252.64453125 C27.68852481 253.34782011 17.4168379 253.52112817 7.11474609 253.58056641 C4.9854048 253.59733805 2.85612432 253.62489498 0.72705078 253.66259766 C-2.39058684 253.71717648 -5.5069504 253.73918032 -8.625 253.75390625 C-9.57393127 253.77657562 -10.52286255 253.799245 -11.50054932 253.82260132 C-15.8875536 253.80848509 -18.16545168 253.64638346 -21.89990234 251.18652344 C-24.25405053 247.51805159 -24.45538958 244.63174991 -24.3203125 240.41015625 C-24.31560944 239.66968048 -24.31090637 238.92920471 -24.30606079 238.16629028 C-24.28479641 235.81171809 -24.22823144 233.45943406 -24.171875 231.10546875 C-24.15535821 229.51564628 -24.14101263 227.92579967 -24.12890625 226.3359375 C-23.99477468 214.82416779 -23.99477468 214.82416779 -22.796875 211.23046875 C-22.78119284 209.7013705 -22.82959803 208.17115432 -22.91796875 206.64453125 C-22.96646973 205.72349609 -23.0149707 204.80246094 -23.06494141 203.85351562 C-23.12085449 202.86416016 -23.17676758 201.87480469 -23.234375 200.85546875 C-23.63558271 192.81093577 -23.91103084 184.78551049 -23.921875 176.73046875 C-23.92852173 175.45163818 -23.92852173 175.45163818 -23.93530273 174.14697266 C-23.92698126 170.51953463 -23.78194345 167.12714679 -23.26171875 163.52734375 C-22.78905422 160.17500036 -22.89247477 157.34037719 -23.234375 153.98046875 C-24.59872094 138.63600658 -24.59872094 138.63600658 -22.796875 133.23046875 C-23.03079422 131.35911501 -23.26893136 129.48812544 -23.53515625 127.62109375 C-24.17828276 121.74656507 -24.24176967 115.96106795 -22.796875 110.23046875 C-22.961875 109.40546875 -23.126875 108.58046875 -23.296875 107.73046875 C-23.83943696 105.01765894 -23.49163462 103.85511619 -22.796875 101.23046875 C-22.796875 100.01359375 -22.796875 98.79671875 -22.796875 97.54296875 C-22.796875 94.23046875 -22.796875 94.23046875 -21.796875 93.23046875 C-21.85169458 90.78669983 -21.97039225 88.37833859 -22.13671875 85.94140625 C-22.18252579 85.20475739 -22.22833282 84.46810852 -22.27552795 83.70913696 C-22.42351715 81.34090314 -22.57855902 78.97319947 -22.734375 76.60546875 C-22.88557392 74.25911231 -23.03523508 71.91267659 -23.18251038 69.56607056 C-23.27457834 68.1044631 -23.36903749 66.6430036 -23.46629333 65.18173218 C-24.18410673 53.95149865 -24.18410673 53.95149865 -23.234375 49.73046875 C-22.65124589 46.39830239 -23.30320398 43.57646122 -23.796875 40.23046875 C-24.10636818 34.73696484 -24.17070557 30.29464063 -21.796875 25.23046875 C-22.126875 24.57046875 -22.456875 23.91046875 -22.796875 23.23046875 C-23.34922412 16.23050592 -23.28594485 10.40343849 -19.796875 4.23046875 C-14.99601398 -0.57039227 -6.42653154 -0.0618019 0 0 Z " fill="#FFFFFF" transform="translate(23.796875,-0.23046875)"/>
<path d="M0 0 C0.79666077 0.00045822 1.59332153 0.00091644 2.41412354 0.00138855 C4.08127349 0.00438408 5.74842133 0.01218811 7.41552734 0.0246582 C9.96071309 0.0430235 12.50553581 0.04516666 15.05078125 0.04492188 C16.67969063 0.0498345 18.30859757 0.0556617 19.9375 0.0625 C21.07043488 0.06416924 21.07043488 0.06416924 22.22625732 0.06587219 C26.02177974 0.09991335 29.49914263 0.43645896 33.203125 1.23046875 C35.20719978 0.92258017 37.20693165 0.58588854 39.203125 0.23046875 C41.96451228 0.13769487 44.69321007 0.08850648 47.453125 0.10546875 C48.20311768 0.10667725 48.95311035 0.10788574 49.72583008 0.10913086 C54.54307647 0.14291968 59.25537032 0.40273908 64.02734375 1.109375 C66.30798819 1.31947419 66.30798819 1.31947419 68.93994141 0.74633789 C72.21578728 0.228467 75.27582539 0.1011153 78.58984375 0.09765625 C79.77513672 0.09636719 80.96042969 0.09507813 82.18164062 0.09375 C83.40560547 0.09761719 84.62957031 0.10148437 85.890625 0.10546875 C87.74397461 0.09966797 87.74397461 0.09966797 89.63476562 0.09375 C91.4069043 0.09568359 91.4069043 0.09568359 93.21484375 0.09765625 C94.83072388 0.09934814 94.83072388 0.09934814 96.47924805 0.10107422 C99.203125 0.23046875 99.203125 0.23046875 102.203125 1.23046875 C102.863125 0.90046875 103.523125 0.57046875 104.203125 0.23046875 C105.89498102 0.13478792 107.59059744 0.10251443 109.28515625 0.10107422 C110.87952515 0.09634598 110.87952515 0.09634598 112.50610352 0.09152222 C114.24331665 0.09455856 114.24331665 0.09455856 116.015625 0.09765625 C117.2130835 0.09669952 118.41054199 0.0957428 119.64428711 0.09475708 C122.19319714 0.09407474 124.7421089 0.09593278 127.29101562 0.10009766 C131.1315521 0.10537048 134.97196756 0.10019385 138.8125 0.09375 C150.18275275 0.09134345 161.52198613 0.1025599 172.86755371 0.92501831 C177.0057765 1.22046757 180.76593267 1.06974098 184.84765625 0.41796875 C189.53595798 0.0447706 194.2710165 0.65872577 198.9453125 1.07421875 C202.21386864 1.42761689 202.21386864 1.42761689 205.203125 0.23046875 C207.7192214 0.13375897 210.20671291 0.09047718 212.72265625 0.09765625 C213.45884689 0.09669952 214.19503754 0.0957428 214.95353699 0.09475708 C216.51109909 0.09407693 218.06866405 0.09591975 219.6262207 0.10009766 C221.99632236 0.10542536 224.36623254 0.10015899 226.73632812 0.09375 C228.25260458 0.09441126 229.76888092 0.09569341 231.28515625 0.09765625 C231.98848587 0.09563202 232.69181549 0.09360779 233.41645813 0.09152222 C237.45559146 0.11050906 241.2348214 0.50690141 245.203125 1.23046875 C249.48855125 1.37331629 253.51561191 1.21560977 257.765625 0.69140625 C263.38420874 0.11262816 268.82738914 0.37847586 274.453125 0.73046875 C282.20126837 1.15227145 289.57466439 1.15291447 297.30078125 0.41796875 C299.97823828 0.2449971 302.30317822 0.37297171 304.953125 0.73046875 C309.66209097 1.34131984 314.17086872 1.09936313 318.890625 0.79296875 C324.78841344 0.41503186 330.66734777 0.09519839 336.578125 0.04296875 C337.76148438 0.02878906 338.94484375 0.01460938 340.1640625 0 C343.156464 0.22693019 344.61890475 0.84626439 347.203125 2.23046875 C349.91458817 1.9926211 352.51990439 1.6481613 355.203125 1.23046875 C365.27718824 -0.01445614 376.17368727 -0.81196715 386.265625 0.73046875 C394.89163987 1.82583572 403.62756211 1.5444931 412.23046875 0.38671875 C414.95547516 0.17087666 417.47265072 0.55592389 420.1640625 0.96875 C424.73118335 1.55495134 429.3527185 1.6023459 433.86962891 0.69458008 C437.60319909 0.17476779 441.0798632 0.37188781 444.8125 0.671875 C452.78811763 1.21027902 460.7264491 1.30071197 468.71875 1.2578125 C469.91286499 1.25222321 471.10697998 1.24663391 472.33728027 1.24087524 C477.29492261 1.21362956 482.25243977 1.1786585 487.20996094 1.13452148 C522.58717389 0.84086749 522.58717389 0.84086749 528.01904297 5.80273438 C530.75705909 9.43201695 530.86287961 13.02838983 530.7265625 17.4453125 C530.72185944 18.21927872 530.71715637 18.99324493 530.71231079 19.79066467 C530.69107999 22.25069507 530.63458634 24.70852247 530.578125 27.16796875 C530.56160036 28.8157346 530.54725683 30.46352385 530.53515625 32.11132812 C530.40301387 43.99434051 530.40301387 43.99434051 529.62353516 48.81469727 C529.16399958 52.54835711 529.66613844 55.51511058 530.203125 59.23046875 C530.28922121 61.41954926 530.3309393 63.61074131 530.33251953 65.80151367 C530.33724777 67.69464546 530.33724777 67.69464546 530.34207153 69.62602234 C530.34028042 70.98766108 530.33822914 72.34929951 530.3359375 73.7109375 C530.33661256 75.12950151 530.33758427 76.54806541 530.33883667 77.96662903 C530.34030651 80.93455104 530.3381837 83.90244285 530.33349609 86.87036133 C530.32782539 90.64117715 530.33106543 94.41192135 530.33706856 98.18273449 C530.34071589 101.11272196 530.33951617 104.04269302 530.33694077 106.97268105 C530.33628162 108.36109743 530.33706378 109.74951538 530.33942032 111.13792992 C530.34956122 118.79654664 530.14383729 126.3247358 529.31954956 133.94258118 C529.01343518 136.26116571 529.01343518 136.26116571 530.203125 138.23046875 C530.66825491 146.01455456 530.05279585 153.85292857 529.47119141 161.61743164 C529.08419612 165.54426213 529.08419612 165.54426213 530.203125 169.23046875 C530.13973523 171.50385626 530.00382456 173.77549467 529.828125 176.04296875 C529.69277344 177.87794922 529.69277344 177.87794922 529.5546875 179.75 C529.203125 183.23046875 529.203125 183.23046875 528.5390625 185.9921875 C527.90468591 188.51086764 527.90468591 188.51086764 530.203125 191.23046875 C530.54391159 192.69909667 530.8323032 194.18049602 531.078125 195.66796875 C531.91054377 199.72519095 532.99725655 201.51033795 536.203125 204.23046875 C538.05641301 206.973335 539.36053181 209.60687634 540.640625 212.66796875 C542.18145709 216.18106592 544.06541359 219.05838084 546.203125 222.23046875 C546.66525391 223.42349609 546.66525391 223.42349609 547.13671875 224.640625 C548.22164577 227.27544775 549.52599074 229.24948765 551.203125 231.54296875 C553.27430464 234.54467837 554.59452811 236.96835117 555.328125 240.54296875 C555.85296974 244.22843391 555.85296974 244.22843391 558.140625 246.10546875 C561.37446673 249.43730569 562.45593492 253.69844669 563.203125 258.23046875 C562.70749312 262.58313333 561.55365681 264.38759327 558.203125 267.23046875 C551.74828052 270.45789099 542.46571831 267.74994916 535.765625 266.29296875 C534.88197266 266.11056641 533.99832031 265.92816406 533.08789062 265.74023438 C529.71717977 265.03533286 526.47333656 264.32053927 523.203125 263.23046875 C521.49764996 263.05432952 519.78851009 262.9123546 518.078125 262.79296875 C505.43745251 261.72002042 505.43745251 261.72002042 500.203125 258.23046875 C498.03364596 257.82277165 498.03364596 257.82277165 495.6328125 257.703125 C494.28703125 257.59774414 494.28703125 257.59774414 492.9140625 257.49023438 C491.04703118 257.36036512 489.17984482 257.23270278 487.3125 257.10742188 C482.93542402 256.761371 479.14710783 256.33095923 475.06640625 254.671875 C468.22587283 252.1750803 460.69298869 252.95677187 453.515625 253.10546875 C451.28397487 253.14074221 449.05238813 253.1715249 446.82060242 253.19680786 C444.80386105 253.22129105 442.78728538 253.25846449 440.77075195 253.29638672 C437.45822649 253.23518218 434.45763535 252.79947259 431.203125 252.23046875 C428.88051211 252.18075674 428.88051211 252.18075674 426.60546875 252.3515625 C425.73510986 252.40006348 424.86475098 252.44856445 423.96801758 252.49853516 C423.03497803 252.55444824 422.10193848 252.61036133 421.140625 252.66796875 C411.5960703 253.16161208 402.07274803 253.34650951 392.515625 253.35546875 C391.2567749 253.3598999 389.9979248 253.36433105 388.70092773 253.36889648 C387.52216064 253.36704346 386.34339355 253.36519043 385.12890625 253.36328125 C384.08130127 253.36215332 383.03369629 253.36102539 381.9543457 253.35986328 C379.203125 253.23046875 379.203125 253.23046875 376.95776367 252.65966797 C375.11039724 252.00728044 375.11039724 252.00728044 373.203125 253.23046875 C371.46360874 253.32626122 369.72042273 253.35842435 367.97827148 253.35986328 C366.88630966 253.36301544 365.79434784 253.3661676 364.66929626 253.36941528 C363.48292068 253.36739105 362.2965451 253.36536682 361.07421875 253.36328125 C359.85541519 253.36423798 358.63661163 253.3651947 357.38087463 253.36618042 C354.7941991 253.3668623 352.20752187 253.3650075 349.62084961 253.36083984 C345.68143806 253.35552382 341.74214221 253.36076791 337.80273438 253.3671875 C335.28906225 253.36652609 332.7753902 253.36524363 330.26171875 253.36328125 C329.08951279 253.36530548 327.91730682 253.36732971 326.70957947 253.36941528 C321.92290518 253.3558713 317.23079471 253.30575082 312.47949219 252.69555664 C307.83815101 252.10510138 303.37962562 252.34567971 298.72265625 252.65625 C287.52040979 253.29096542 276.34171469 253.41662557 265.12329102 253.41577148 C261.84834507 253.41799749 258.57371669 253.4363617 255.29882812 253.45507812 C253.18750113 253.45800648 251.07617257 253.459995 248.96484375 253.4609375 C248.00019699 253.46812302 247.03555023 253.47530853 246.04167175 253.48271179 C241.73790094 253.46820307 237.93007373 253.28294743 233.78051758 252.09106445 C229.76364136 251.12474434 229.56042285 251.36982167 226.203125 253.23046875 C223.24175965 253.54335264 220.28384112 253.48662234 217.30859375 253.4609375 C216.44301346 253.46047928 215.57743317 253.46002106 214.68562317 253.45954895 C212.8557498 253.45653124 211.0258789 253.44865934 209.19604492 253.4362793 C206.4112017 253.41810305 203.62669306 253.41576924 200.84179688 253.41601562 C199.05989299 253.4110967 197.27799134 253.40526675 195.49609375 253.3984375 C194.25668282 253.39676826 194.25668282 253.39676826 192.99223328 253.39506531 C189.39801732 253.36594308 186.06106453 253.20850315 182.49731445 252.6574707 C179.33394327 252.07387403 179.33394327 252.07387403 176.74726868 252.69569397 C171.56649113 253.47741995 166.43477614 253.36922235 161.20263672 253.35986328 C159.99874298 253.3616156 158.79484924 253.36336792 157.55447388 253.36517334 C154.26539561 253.36881211 150.97635781 253.36797106 147.68728018 253.36479425 C144.24050406 253.36225589 140.79373057 253.3646122 137.34695435 253.36618042 C131.56186439 253.36799731 125.77678723 253.36560788 119.99169922 253.36083984 C113.30584499 253.355393 106.62002124 253.35716487 99.93416774 253.36266625 C94.18795698 253.36720491 88.44175539 253.36784439 82.69554341 253.36522758 C79.26600655 253.36366962 75.83648402 253.36345799 72.40694809 253.36676407 C68.58621901 253.36929724 64.7655489 253.36544075 60.94482422 253.35986328 C59.80914001 253.36188751 58.67345581 253.36391174 57.50335693 253.36599731 C56.46317413 253.36317749 55.42299133 253.36035767 54.35128784 253.35745239 C53.44834929 253.35707537 52.54541073 253.35669834 51.6151104 253.35630989 C49.33056272 253.23711759 47.40780542 252.79906165 45.203125 252.23046875 C42.78904481 252.31045551 40.37703164 252.45916511 37.96875 252.64453125 C27.68852481 253.34782011 17.4168379 253.52112817 7.11474609 253.58056641 C4.9854048 253.59733805 2.85612432 253.62489498 0.72705078 253.66259766 C-2.39058684 253.71717648 -5.5069504 253.73918032 -8.625 253.75390625 C-9.57393127 253.77657562 -10.52286255 253.799245 -11.50054932 253.82260132 C-15.8875536 253.80848509 -18.16545168 253.64638346 -21.89990234 251.18652344 C-24.25405053 247.51805159 -24.45538958 244.63174991 -24.3203125 240.41015625 C-24.31560944 239.66968048 -24.31090637 238.92920471 -24.30606079 238.16629028 C-24.28479641 235.81171809 -24.22823144 233.45943406 -24.171875 231.10546875 C-24.15535821 229.51564628 -24.14101263 227.92579967 -24.12890625 226.3359375 C-23.99477468 214.82416779 -23.99477468 214.82416779 -22.796875 211.23046875 C-22.78119284 209.7013705 -22.82959803 208.17115432 -22.91796875 206.64453125 C-22.96646973 205.72349609 -23.0149707 204.80246094 -23.06494141 203.85351562 C-23.12085449 202.86416016 -23.17676758 201.87480469 -23.234375 200.85546875 C-23.63558271 192.81093577 -23.91103084 184.78551049 -23.921875 176.73046875 C-23.92852173 175.45163818 -23.92852173 175.45163818 -23.93530273 174.14697266 C-23.92698126 170.51953463 -23.78194345 167.12714679 -23.26171875 163.52734375 C-22.78905422 160.17500036 -22.89247477 157.34037719 -23.234375 153.98046875 C-24.59872094 138.63600658 -24.59872094 138.63600658 -22.796875 133.23046875 C-23.03079422 131.35911501 -23.26893136 129.48812544 -23.53515625 127.62109375 C-24.17828276 121.74656507 -24.24176967 115.96106795 -22.796875 110.23046875 C-22.961875 109.40546875 -23.126875 108.58046875 -23.296875 107.73046875 C-23.83943696 105.01765894 -23.49163462 103.85511619 -22.796875 101.23046875 C-22.796875 100.01359375 -22.796875 98.79671875 -22.796875 97.54296875 C-22.796875 94.23046875 -22.796875 94.23046875 -21.796875 93.23046875 C-21.85169458 90.78669983 -21.97039225 88.37833859 -22.13671875 85.94140625 C-22.18252579 85.20475739 -22.22833282 84.46810852 -22.27552795 83.70913696 C-22.42351715 81.34090314 -22.57855902 78.97319947 -22.734375 76.60546875 C-22.88557392 74.25911231 -23.03523508 71.91267659 -23.18251038 69.56607056 C-23.27457834 68.1044631 -23.36903749 66.6430036 -23.46629333 65.18173218 C-24.18410673 53.95149865 -24.18410673 53.95149865 -23.234375 49.73046875 C-22.65124589 46.39830239 -23.30320398 43.57646122 -23.796875 40.23046875 C-24.10636818 34.73696484 -24.17070557 30.29464063 -21.796875 25.23046875 C-22.126875 24.57046875 -22.456875 23.91046875 -22.796875 23.23046875 C-23.34922412 16.23050592 -23.28594485 10.40343849 -19.796875 4.23046875 C-14.99601398 -0.57039227 -6.42653154 -0.0618019 0 0 Z M27.203125 17.23046875 C24.7620474 17.31500745 22.35053287 17.34652661 19.91015625 17.328125 C18.85111336 17.32600258 18.85111336 17.32600258 17.77067566 17.32383728 C15.51894874 17.31824639 13.26732179 17.30569563 11.015625 17.29296875 C9.48763165 17.28795257 7.95963673 17.28338987 6.43164062 17.27929688 C2.68876365 17.26827995 -1.05403873 17.25102162 -4.796875 17.23046875 C-5.35495589 18.66167619 -5.89283962 20.1007723 -6.421875 21.54296875 C-6.72351563 22.34347656 -7.02515625 23.14398438 -7.3359375 23.96875 C-7.48804687 24.71511719 -7.64015625 25.46148437 -7.796875 26.23046875 C-6.806875 27.71546875 -6.806875 27.71546875 -5.796875 29.23046875 C-5.627892 31.77380612 -5.56344092 34.19200668 -5.609375 36.73046875 C-5.61001953 37.40722656 -5.61066406 38.08398438 -5.61132812 38.78125 C-5.63865897 41.86052478 -5.81654991 44.28949349 -6.796875 47.23046875 C-6.48100491 49.23330104 -6.14550917 51.23307912 -5.796875 53.23046875 C-5.77125293 55.2539468 -5.80226216 57.27874477 -5.8828125 59.30078125 C-5.92664063 60.44546875 -5.97046875 61.59015625 -6.015625 62.76953125 C-6.0671875 63.95289063 -6.11875 65.13625 -6.171875 66.35546875 C-6.21570313 67.515625 -6.25953125 68.67578125 -6.3046875 69.87109375 C-6.57455862 76.57289311 -7.01498183 83.22504949 -7.69775391 89.89794922 C-7.98671043 92.2547854 -7.98671043 92.2547854 -6.796875 94.23046875 C-6.796875 96.56380208 -6.796875 98.89713542 -6.796875 101.23046875 C-6.61125 101.91109375 -6.425625 102.59171875 -6.234375 103.29296875 C-5.60926007 106.06133488 -6.31511869 108.46036998 -6.796875 111.23046875 C-6.466875 111.89046875 -6.136875 112.55046875 -5.796875 113.23046875 C-5.69838849 115.86643119 -5.65788172 118.47006731 -5.671875 121.10546875 C-5.66800781 121.82605469 -5.66414063 122.54664062 -5.66015625 123.2890625 C-5.66657444 126.77414141 -5.86883042 129.87703034 -6.796875 133.23046875 C-6.56230306 134.83896204 -6.32359292 136.44702002 -6.05859375 138.05078125 C-5.21237953 145.09835637 -5.60209976 152.29415605 -6.67578125 159.29296875 C-6.90373093 161.21384801 -6.90373093 161.21384801 -6.31274414 162.93408203 C-5.63270227 165.96128213 -5.66700657 168.80752711 -5.6640625 171.91015625 C-5.66310577 172.55937042 -5.66214905 173.20858459 -5.66116333 173.87747192 C-5.66048382 175.2542531 -5.66232211 176.63103751 -5.66650391 178.0078125 C-5.67176851 180.06388038 -5.66659692 182.11972094 -5.66015625 184.17578125 C-5.65757203 191.97566704 -5.96301209 199.67168884 -6.68017578 207.44189453 C-6.96601151 210.31575589 -6.96601151 210.31575589 -5.796875 213.23046875 C-5.71509386 214.93063719 -5.68937999 216.63383172 -5.69921875 218.3359375 C-5.70405273 219.81030273 -5.70405273 219.81030273 -5.70898438 221.31445312 C-5.71736328 222.33861328 -5.72574219 223.36277344 -5.734375 224.41796875 C-5.73888672 225.45373047 -5.74339844 226.48949219 -5.74804688 227.55664062 C-5.7598349 230.11464141 -5.77628985 232.67252608 -5.796875 235.23046875 C-2.24211188 236.33867352 1.03317229 236.32996128 4.7421875 236.29296875 C6.68496582 236.28052124 6.68496582 236.28052124 8.66699219 236.26782227 C9.34741577 236.26162872 10.02783936 236.25543518 10.72888184 236.24905396 C21.21027815 236.15625913 31.65413686 236.13971205 42.11181641 236.96289062 C45.20346059 237.19505414 47.2168375 237.22589792 50.203125 236.23046875 C51.87036559 236.13847044 53.5410692 236.10418463 55.21084595 236.10348511 C56.2453186 236.10066528 57.27979126 236.09784546 58.34561157 236.09494019 C59.48017792 236.09696442 60.61474426 236.09898865 61.78369141 236.10107422 C63.5768277 236.09844574 63.5768277 236.09844574 65.40618896 236.09576416 C68.68751631 236.09211249 71.96880343 236.09297576 75.25013018 236.09614325 C78.68924576 236.09867586 82.12835867 236.09632647 85.56747437 236.09475708 C91.34951255 236.09293655 97.13153797 236.0953371 102.91357422 236.10009766 C109.58165727 236.10552463 116.24970967 236.10378857 122.91779196 236.09827125 C128.65128166 236.09371833 134.38476218 236.09310068 140.11825311 236.09570992 C143.53849245 236.09726272 146.95871744 236.09749425 150.37895584 236.09417343 C154.20138849 236.09162442 158.02376306 236.09551994 161.84619141 236.10107422 C162.96861237 236.09904999 164.09103333 236.09702576 165.24746704 236.09494019 C171.32176722 236.11123141 177.17446621 236.50840803 183.203125 237.23046875 C184.87863727 236.94490346 186.54658857 236.61096307 188.203125 236.23046875 C191.17348441 236.06359837 194.14268169 236.06654727 197.1171875 236.0625 C197.96864349 236.0591716 198.82009949 236.0558432 199.69735718 236.05241394 C201.49094098 236.04736602 203.28453411 236.04500495 205.078125 236.04516602 C207.82567636 236.04297071 210.57283163 236.02476857 213.3203125 236.00585938 C215.0651028 236.0029268 216.80989499 236.0009411 218.5546875 236 C219.37659576 235.99281448 220.19850403 235.98562897 221.0453186 235.97822571 C224.95078035 235.99394387 226.87913909 236.01447814 230.203125 238.23046875 C232.09938644 238.03853794 232.09938644 238.03853794 234.12329102 237.36987305 C239.92402254 235.91379148 245.52652841 235.96111207 251.48046875 236 C253.22850548 236.00068733 253.22850548 236.00068733 255.01185608 236.00138855 C257.47186301 236.00439834 259.93186825 236.01224629 262.3918457 236.0246582 C266.09789029 236.04276002 269.80368167 236.0451685 273.50976562 236.04492188 C284.59371684 236.06270297 295.64907358 236.10002013 306.70457458 236.97212219 C309.60175292 237.18456376 312.19288056 237.23220443 315.06428528 236.74571228 C318.09643402 236.24798218 320.89273263 236.1035926 323.96142578 236.10107422 C325.62312302 236.09634598 325.62312302 236.09634598 327.31838989 236.09152222 C328.4998056 236.09354645 329.68122131 236.09557068 330.8984375 236.09765625 C332.12343964 236.09669952 333.34844177 236.0957428 334.61056519 236.09475708 C337.19431612 236.09407784 339.77806877 236.09591423 342.36181641 236.10009766 C346.32067684 236.10545866 350.27942429 236.10013922 354.23828125 236.09375 C356.75000025 236.09441065 359.26171918 236.09569153 361.7734375 236.09765625 C362.95890167 236.09563202 364.14436584 236.09360779 365.36575317 236.09152222 C366.46724701 236.09467438 367.56874084 236.09782654 368.70361328 236.10107422 C369.67146759 236.10186981 370.6393219 236.10266541 371.63650513 236.10348511 C374.203125 236.23046875 374.203125 236.23046875 376.42184448 236.80105591 C378.29227974 237.45438037 378.29227974 237.45438037 380.203125 236.23046875 C382.87214525 236.13115114 385.51439101 236.09067395 388.18359375 236.09765625 C388.98863846 236.09669952 389.79368317 236.0957428 390.62312317 236.09475708 C392.33720985 236.0940751 394.0512991 236.09593065 395.76538086 236.10009766 C398.33518647 236.10535533 400.9048099 236.10020117 403.47460938 236.09375 C411.09922694 236.0917163 418.65080464 236.20147455 426.25390625 236.80078125 C431.47731194 237.20068615 436.32726823 237.09564664 441.52294922 236.49707031 C446.42774894 236.00918169 451.34114569 236.08634456 456.265625 236.10546875 C457.29623047 236.10160156 458.32683594 236.09773437 459.38867188 236.09375 C460.86110352 236.09568359 460.86110352 236.09568359 462.36328125 236.09765625 C463.24636963 236.09878418 464.12945801 236.09991211 465.03930664 236.10107422 C467.203125 236.23046875 467.203125 236.23046875 469.203125 237.23046875 C472.77130808 237.46317634 476.33299457 237.62514128 479.90625 237.74804688 C483.86896066 237.92972825 486.72971125 238.16519571 490.203125 240.23046875 C491.64894794 240.6326704 493.10907515 240.98627238 494.578125 241.29296875 C495.67253906 241.52693359 495.67253906 241.52693359 496.7890625 241.765625 C501.71917786 242.71495142 506.49882012 243.34819671 511.515625 243.60546875 C516.41419334 243.94981256 520.42853338 244.79231116 524.9921875 246.53125 C528.95881909 247.78571476 533.06898451 247.98017632 537.203125 248.23046875 C535.03531011 240.74165368 531.30532367 233.82965791 527.203125 227.23046875 C526.18406849 225.46052849 525.17694849 223.68416409 524.171875 221.90625 C523.38936983 220.55264227 522.55397405 219.22969437 521.703125 217.91796875 C520.27755074 215.36381486 519.29255409 212.90111855 518.265625 210.16796875 C517.0696941 207.02807296 516.45798098 205.46408673 513.953125 203.16796875 C511.46504709 200.41331107 511.80455974 198.14797121 511.8671875 194.546875 C512.203125 192.23046875 512.203125 192.23046875 513.28125 189.78515625 C514.40641514 186.66711387 514.06427305 184.99657601 513.328125 181.79296875 C511.43239362 172.69345815 511.43239362 172.69345815 512.7421875 168.5078125 C513.38504111 165.33167986 513.03772966 162.45541286 512.765625 159.23046875 C511.46345102 142.31874258 511.46345102 142.31874258 512.73828125 136.99609375 C513.29904306 133.65979658 513.05584638 130.76977997 512.7734375 127.39453125 C511.88262006 114.89761504 512.05211719 102.36457099 512.07275391 89.84326172 C512.07850595 86.2874721 512.07512295 82.7317571 512.06918144 79.17597008 C512.06555841 76.40662071 512.06672147 73.63728891 512.06930923 70.867939 C512.07028904 68.92541708 512.06728264 66.98289444 512.06417847 65.04037476 C512.09014526 55.27130116 512.09014526 55.27130116 512.77392578 51.00244141 C513.46922182 48.28032451 513.46922182 48.28032451 512.203125 46.23046875 C512.14191352 44.37859311 512.14307885 42.52447339 512.17578125 40.671875 C512.18802734 39.56392578 512.20027344 38.45597656 512.21289062 37.31445312 C512.24798932 34.97064041 512.28703892 32.62688347 512.33007812 30.28320312 C512.34103516 29.17396484 512.35199219 28.06472656 512.36328125 26.921875 C512.38011963 25.90295166 512.39695801 24.88402832 512.41430664 23.83422852 C512.39605376 20.99377255 512.39605376 20.99377255 510.203125 18.23046875 C507.5429303 17.90252361 507.5429303 17.90252361 504.515625 18.10546875 C500.95023135 18.20391299 497.5973415 18.27062528 494.078125 17.66796875 C491.2682021 16.95764554 491.2682021 16.95764554 489.203125 18.23046875 C486.56954928 18.32875395 483.96243887 18.36676945 481.32861328 18.35986328 C480.51544647 18.3616156 479.70227966 18.36336792 478.86447144 18.36517334 C476.16743862 18.36958638 473.47047102 18.36665523 470.7734375 18.36328125 C468.90257759 18.36395458 467.03171776 18.36492485 465.16085815 18.36618042 C461.23499724 18.36765676 457.30915905 18.36550537 453.38330078 18.36083984 C448.35043078 18.35515046 443.3176142 18.35841695 438.28474617 18.36441231 C434.41917519 18.36802635 430.55361686 18.36687531 426.6880455 18.36428452 C424.83248768 18.36361718 422.97692871 18.36443695 421.12137222 18.36676407 C418.52635916 18.36930351 415.93143242 18.36543135 413.33642578 18.35986328 C412.56848694 18.36188751 411.8005481 18.36391174 411.00933838 18.36599731 C407.58231564 18.35237504 404.49223588 18.21845842 401.203125 17.23046875 C399.20454445 17.32052145 399.20454445 17.32052145 397.0625 17.65625 C389.99775019 18.46094729 382.9249209 18.41650879 375.82470703 18.41577148 C373.44415895 18.41797706 371.06406143 18.43624763 368.68359375 18.45507812 C367.1536474 18.45800963 365.62369887 18.45999605 364.09375 18.4609375 C363.03888397 18.47171577 363.03888397 18.47171577 361.96270752 18.48271179 C357.64389822 18.4628204 354.24483855 17.68809366 350.203125 16.23046875 C347.50018298 16.53762125 345.62555008 17.01925621 343.203125 18.23046875 C341.65079527 18.32683028 340.09437883 18.36122045 338.5390625 18.36328125 C337.11376221 18.36606079 337.11376221 18.36606079 335.65966797 18.36889648 C334.64275879 18.36446533 333.62584961 18.36003418 332.578125 18.35546875 C331.54445801 18.35426025 330.51079102 18.35305176 329.44580078 18.35180664 C322.05649145 18.31456791 314.74359164 17.98181949 307.3828125 17.3515625 C304.30370983 17.10828907 304.30370983 17.10828907 301.73828125 17.734375 C298.35604735 18.39622971 295.16770993 18.02898876 291.765625 17.73046875 C283.74881744 17.12468709 275.88440138 17.38700809 267.86743164 17.91210938 C262.45417808 18.24099586 257.56670124 18.02892994 252.203125 17.23046875 C247.70421236 16.98134329 243.29802218 17.18725208 238.828125 17.73046875 C232.08337689 18.42622704 225.35228362 18.37620597 218.578125 18.35546875 C217.30710938 18.35933594 216.03609375 18.36320312 214.7265625 18.3671875 C204.39255754 18.35642291 204.39255754 18.35642291 199.828125 17.69140625 C195.70785751 17.16749293 191.94696947 17.36726858 187.828125 17.73046875 C180.46010174 18.35895712 180.46010174 18.35895712 178.203125 17.23046875 C171.2568294 16.85137718 164.37832642 17.28892497 157.48046875 18.109375 C155.203125 18.23046875 155.203125 18.23046875 152.203125 17.23046875 C149.32978455 17.22604539 146.48668498 17.28096531 143.6171875 17.38671875 C141.86328289 17.44015798 140.10937658 17.49354152 138.35546875 17.546875 C135.60653086 17.63702808 132.85768626 17.72945489 130.10888672 17.82373047 C120.87153041 18.13382136 111.82337588 18.35875429 102.60888672 17.47949219 C95.77016538 16.97945665 88.90799111 17.0832515 82.05419922 17.10009766 C79.44362663 17.10548836 76.83322385 17.10010412 74.22265625 17.09375 C72.53385379 17.09441042 70.84505144 17.09569084 69.15625 17.09765625 C68.00748383 17.0946199 68.00748383 17.0946199 66.83551025 17.09152222 C63.00495863 17.10787959 59.28319482 17.29843644 55.47900391 17.76220703 C52.17085085 18.16288145 49.16112538 18.24535016 45.8359375 17.85546875 C44.93101563 17.7575 44.02609375 17.65953125 43.09375 17.55859375 C42.18109375 17.4503125 41.2684375 17.34203125 40.328125 17.23046875 C38.47722664 17.01631522 36.62567375 16.80772443 34.7734375 16.60546875 C33.56324951 16.46238281 33.56324951 16.46238281 32.32861328 16.31640625 C30.01285277 16.09706208 30.01285277 16.09706208 27.203125 17.23046875 Z " fill="#000000" transform="translate(23.796875,-0.23046875)"/>
</svg>
