<?xml version="1.0" encoding="UTF-8"?>
<svg version="1.1" xmlns="http://www.w3.org/2000/svg" width="1604" height="713">
<path d="M0 0 C5.37943809 0.39654111 10.43370887 0.51098285 15.8125 -0.125 C20.4424937 -0.62039027 23.23901635 -0.36335638 27.125 2.5 C29.48916572 6.04624858 29.42575624 7.72786586 29.5390625 11.94140625 C29.57789551 13.23900879 29.61672852 14.53661133 29.65673828 15.87353516 C29.68833719 17.26984529 29.71941455 18.6661673 29.75 20.0625 C29.78712114 21.48227165 29.82472015 22.90203089 29.86279297 24.32177734 C30.21104752 37.8622876 30.52044106 51.28137315 29.27734375 64.78515625 C29.086481 68.18642839 29.54354312 71.15662297 30.125 74.5 C29.795 75.49 29.465 76.48 29.125 77.5 C28.96745296 79.45677555 28.96745296 79.45677555 29 81.5 C28.99742188 82.180625 28.99484375 82.86125 28.9921875 83.5625 C29.05868874 85.71874781 29.05868874 85.71874781 30.125 88.5 C29.96 89.263125 29.795 90.02625 29.625 90.8125 C28.964747 93.50825541 28.964747 93.50825541 29.58544922 96.25463867 C30.14212867 99.60302781 30.25441511 102.72098975 30.2578125 106.11328125 C30.25910156 107.36173828 30.26039062 108.61019531 30.26171875 109.89648438 C30.25785156 111.18876953 30.25398438 112.48105469 30.25 113.8125 C30.25580078 115.73352539 30.25580078 115.73352539 30.26171875 117.69335938 C30.25558477 123.65252378 30.22021037 129.47539156 29.24169922 135.36401367 C29.04171853 137.64306574 29.04171853 137.64306574 29.59423828 140.43798828 C30.4799075 146.09041593 30.22701384 151.80664405 30.1875 157.51171875 C30.18371338 158.75750198 30.17992676 160.00328522 30.17602539 161.28681946 C30.16384104 165.25374329 30.14540704 169.22061238 30.125 173.1875 C30.0981573 178.42056284 30.07844303 183.65361087 30.0625 188.88671875 C30.05005249 190.6930201 30.05005249 190.6930201 30.03735352 192.53581238 C30.03405029 193.65409927 30.03074707 194.77238617 30.02734375 195.92456055 C30.01948853 197.39846504 30.01948853 197.39846504 30.01147461 198.90214539 C30.1153583 201.27936443 30.49581576 203.21959962 31.125 205.5 C32.08925251 215.74964704 32.6103086 226.20860298 32.125 236.5 C31.795 236.83 31.465 237.16 31.125 237.5 C31.05233028 240.54304432 31.12883691 243.57403966 31.1875 246.6171875 C31.125 249.5 31.125 249.5 30.125 252.5 C30.04060935 254.61575537 30.01775801 256.73414647 30.02734375 258.8515625 C30.03064697 260.16302246 30.0339502 261.47448242 30.03735352 262.82568359 C30.04353195 263.87644073 30.04353195 263.87644073 30.04983521 264.94842529 C30.06260021 267.14222179 30.06911473 269.33595782 30.07397461 271.52978516 C30.08540353 276.18655054 30.10464505 280.84326619 30.125 285.5 C30.14858658 290.89605356 30.16898502 296.29207843 30.18093872 301.68817139 C30.18742577 303.85025853 30.19993361 306.0122582 30.21264648 308.17431641 C30.21594971 309.48577637 30.21925293 310.79723633 30.22265625 312.1484375 C30.22789307 313.30520996 30.23312988 314.46198242 30.23852539 315.65380859 C30.125 318.5 30.125 318.5 29.125 321.5 C29.02891392 323.33128771 28.99517421 325.16619959 29 327 C28.99742188 327.9590625 28.99484375 328.918125 28.9921875 329.90625 C29.09244336 332.61905568 29.31612777 335.18250269 29.625 337.86962891 C30.49026145 347.27778847 30.26849995 356.74100708 30.2578125 366.1796875 C30.25848707 368.28191133 30.25945838 370.38413508 30.26071167 372.48635864 C30.26217948 376.87209828 30.26006238 381.25781744 30.25537109 385.64355469 C30.24965315 391.26234997 30.25297164 396.88109771 30.25894356 402.49989128 C30.26255594 406.8321468 30.26140782 411.16439102 30.25881577 415.49664688 C30.25814947 417.56908295 30.25896453 419.64152006 30.26129532 421.71395493 C30.26383523 424.60474117 30.25996323 427.49544999 30.25439453 430.38623047 C30.25743088 431.6658239 30.25743088 431.6658239 30.26052856 432.9712677 C30.24629956 436.95927663 30.06938992 440.60122132 29.125 444.5 C29.03948093 445.9147759 28.99448414 447.33264363 28.9921875 448.75 C28.99089844 449.5234375 28.98960938 450.296875 28.98828125 451.09375 C28.99408203 452.28484375 28.99408203 452.28484375 29 453.5 C28.99613281 454.2940625 28.99226563 455.088125 28.98828125 455.90625 C28.9949757 459.92292178 29.21999156 463.56886957 30.125 467.5 C30.29558375 472.61751252 30.05956924 477.6453524 29.71435547 482.74829102 C29.66424316 483.49135498 29.61413086 484.23441895 29.5625 485 C29.5123877 485.74241943 29.46227539 486.48483887 29.41064453 487.24975586 C29.09377379 492.47812309 29.42043589 497.30383965 30.125 502.5 C29.80751683 503.83719607 29.47315297 505.17045933 29.125 506.5 C29.03566933 508.0396403 28.99484207 509.582779 29 511.125 C28.99742188 511.90101563 28.99484375 512.67703125 28.9921875 513.4765625 C28.99826631 515.56959248 28.99826631 515.56959248 30.125 517.5 C30.22435045 520.39615943 30.26479598 523.26772405 30.2578125 526.1640625 C30.25876923 527.03010101 30.25972595 527.89613953 30.26071167 528.78842163 C30.26139318 530.62603833 30.25954092 532.46365743 30.25537109 534.30126953 C30.25006119 537.09282979 30.25529684 539.88422628 30.26171875 542.67578125 C30.2610572 544.46354202 30.25977446 546.25130269 30.2578125 548.0390625 C30.26084885 549.28014267 30.26084885 549.28014267 30.26394653 550.54629517 C30.24884031 554.35031182 30.10296826 558.01187197 29.55419922 561.77880859 C29.15291186 565.25800191 29.39656557 567.16066712 30.125 570.5 C30.28367915 573.78836199 30.2650971 577.07552708 30.2578125 580.3671875 C30.25876923 581.32013702 30.25972595 582.27308655 30.26071167 583.25491333 C30.26139092 585.26711086 30.25955445 587.27931061 30.25537109 589.29150391 C30.2500311 592.35714699 30.25531867 595.42264278 30.26171875 598.48828125 C30.26105769 600.44791699 30.25977596 602.40755263 30.2578125 604.3671875 C30.26084885 605.73313553 30.26084885 605.73313553 30.26394653 607.12667847 C30.24607378 612.02695338 29.8274216 616.64244474 29.125 621.5 C29.20755622 624.3119884 29.20755622 624.3119884 29.5546875 627.06640625 C30.21393444 633.86767256 30.27267501 640.60854191 30.25 647.4375 C30.25580078 649.22510742 30.25580078 649.22510742 30.26171875 651.04882812 C30.26042969 652.19673828 30.25914063 653.34464844 30.2578125 654.52734375 C30.25612061 656.07023071 30.25612061 656.07023071 30.25439453 657.64428711 C30.125 660.5 30.125 660.5 29.55419922 662.99829102 C29.02666409 666.07317864 29.57587518 668.43348331 30.125 671.5 C30.20490728 674.11167917 30.2421568 676.6944293 30.22265625 679.3046875 C30.2212413 680.0286673 30.21982635 680.75264709 30.21836853 681.49856567 C30.21281075 683.79075407 30.20026633 686.08284157 30.1875 688.375 C30.18247953 689.93749858 30.17791759 691.49999871 30.17382812 693.0625 C30.16285519 696.87503835 30.1456201 700.68750212 30.125 704.5 C27.14632116 705.98933942 24.1132965 705.62137076 20.84887695 705.59765625 C20.09905045 705.59619598 19.34922394 705.59473572 18.57667542 705.5932312 C16.94518186 705.58942057 15.31369247 705.58329914 13.68221474 705.57516479 C11.09674377 705.56241847 8.51132405 705.55588926 5.92582703 705.55102539 C-0.50050485 705.53763984 -6.92678851 705.51351832 -13.35308838 705.48962402 C-18.77490277 705.46985333 -24.19669864 705.45422402 -29.61853981 705.44406128 C-32.15935702 705.43760135 -34.70009815 705.42508903 -37.2408905 705.41235352 C-38.81122777 705.40871797 -40.38156573 705.40536662 -41.9519043 705.40234375 C-42.65295288 705.39717743 -43.35400146 705.39201111 -44.07629395 705.38668823 C-47.15615418 705.38636077 -50.07880094 705.53134943 -53.12547302 706 C-58.35638194 706.69754251 -63.51944747 706.62218458 -68.79052734 706.59765625 C-69.97770859 706.59619598 -71.16488983 706.59473572 -72.38804626 706.5932312 C-75.64550765 706.58843247 -78.90292348 706.57923435 -82.1603694 706.56846237 C-85.63438309 706.55836109 -89.10840275 706.55493957 -92.58242798 706.55102539 C-102.9358078 706.53810982 -113.28915918 706.51410799 -123.64251709 706.48962402 C-133.72781877 706.46596365 -143.81311255 706.44753044 -153.8984375 706.4375 C-154.97242939 706.43631605 -154.97242939 706.43631605 -156.0681181 706.43510818 C-177.7612444 706.41298265 -199.43860536 706.63188837 -221.1280632 707.07147217 C-237.50405408 707.40232446 -253.87054453 707.58713061 -270.25 707.5625 C-271.24459858 707.56105988 -272.23919716 707.55961975 -273.26393509 707.55813599 C-280.13431774 707.5462498 -287.00465093 707.52405882 -293.875 707.5 C-300.92994829 707.47605245 -307.9848765 707.45599525 -315.03985596 707.44406128 C-317.79011298 707.43769645 -320.54029442 707.42524454 -323.29052734 707.41235352 C-324.96451762 707.40872471 -326.63850853 707.40537252 -328.3125 707.40234375 C-329.0508609 707.39717743 -329.7892218 707.39201111 -330.54995728 707.38668823 C-334.11520264 707.38633127 -337.56434902 707.54886351 -341.10215759 708 C-346.99616085 708.71004576 -352.87400502 708.62355689 -358.80297852 708.59765625 C-360.75371611 708.59541362 -362.7044537 708.59317136 -364.6551913 708.59094238 C-366.74229532 708.58758447 -368.82937904 708.58173134 -370.9164753 708.57516479 C-375.32842379 708.56145286 -379.74036246 708.5557045 -384.15232849 708.55102539 C-395.14561527 708.53811279 -406.13887461 708.51392376 -417.13214111 708.48962402 C-427.86022465 708.46611813 -438.58830128 708.44762632 -449.31640625 708.4375 C-450.44861933 708.43631605 -450.44861933 708.43631605 -451.60370541 708.43510818 C-471.59078684 708.41574384 -491.55981346 708.56765951 -511.54171562 709.07147217 C-527.9072408 709.48030746 -544.26234019 709.58283613 -560.6328125 709.5625 C-561.84192984 709.56105988 -563.05104717 709.55961975 -564.29680443 709.55813599 C-572.86455722 709.54602977 -581.43227319 709.52387531 -590 709.5 C-598.72752483 709.47620364 -607.45503324 709.45603089 -616.18258286 709.44406128 C-619.62265271 709.43763572 -623.06266496 709.42516418 -626.50271606 709.41235352 C-628.59051465 709.4087253 -630.67831374 709.40537304 -632.76611328 709.40234375 C-633.70706345 709.39717743 -634.64801361 709.39201111 -635.61747742 709.38668823 C-640.18027693 709.38631972 -644.36696278 709.73905172 -648.875 710.5 C-649.865 710.17 -650.855 709.84 -651.875 709.5 C-653.9829108 709.59565372 -653.9829108 709.59565372 -656.29542542 709.93139648 C-662.26011649 710.60253023 -668.15119219 710.62582665 -674.14819336 710.59765625 C-675.33523361 710.59619598 -676.52227386 710.59473572 -677.74528503 710.5932312 C-680.97782858 710.58845636 -684.21032503 710.57928915 -687.44285274 710.56846237 C-690.86282061 710.5583777 -694.2827945 710.55494674 -697.70277405 710.55102539 C-707.13764771 710.53903943 -716.57249326 710.51716363 -726.00734711 710.49479675 C-734.61928245 710.47443494 -743.23120696 710.45638026 -751.84316164 710.44658184 C-756.51606881 710.44093168 -761.18891292 710.42742259 -765.86180115 710.41235352 C-778.86692312 710.38655996 -791.82413733 710.59407997 -804.81774807 711.14071655 C-816.35692697 711.60478036 -827.88486768 711.61479755 -839.43180847 711.57516479 C-843.27636258 711.56209156 -847.1208812 711.55581069 -850.9654541 711.55102539 C-859.10198584 711.54011675 -867.23848767 711.52050204 -875.375 711.5 C-884.87434251 711.47618223 -894.37366538 711.45597661 -903.87303162 711.44406128 C-907.64132974 711.43763209 -911.40957534 711.42513832 -915.17785645 711.41235352 C-917.49552364 711.40872011 -919.8131913 711.40536849 -922.13085938 711.40234375 C-923.16163101 711.39717743 -924.19240265 711.39201111 -925.25440979 711.38668823 C-931.02804778 711.3862718 -936.69056123 711.66937676 -942.43364143 712.27204704 C-946.27631516 712.6308427 -950.10435662 712.64301817 -953.9609375 712.6328125 C-954.77720108 712.63408646 -955.59346466 712.63536041 -956.4344635 712.63667297 C-959.03968055 712.63845369 -961.64479353 712.63217986 -964.25 712.625 C-965.1387381 712.62444611 -966.0274762 712.62389221 -966.94314575 712.62332153 C-977.85822363 712.61531883 -988.7555056 712.55829805 -999.64794922 711.76806641 C-1003.09332912 711.53370271 -1006.11407669 711.53139562 -1009.56441593 711.98449516 C-1016.97892435 712.84770186 -1024.45742252 712.63772201 -1031.91075134 712.62698364 C-1033.652058 712.62813671 -1035.39336441 712.62972549 -1037.13467032 712.63171089 C-1041.9065008 712.63587868 -1046.67831124 712.63382502 -1051.45014179 712.63072467 C-1056.60155362 712.6284604 -1061.75296202 712.63195532 -1066.90437317 712.63470459 C-1076.991096 712.63915034 -1087.07781138 712.63819109 -1097.1645345 712.63529195 C-1105.36312924 712.63303311 -1113.56172189 712.63272748 -1121.76031685 712.63381577 C-1122.92741265 712.633969 -1124.09450846 712.63412223 -1125.2969708 712.63428011 C-1127.66795369 712.63459984 -1130.03893657 712.63492405 -1132.40991945 712.6352527 C-1154.64110809 712.63810402 -1176.87229262 712.63482597 -1199.10348058 712.62945233 C-1218.17470201 712.6249852 -1237.24591735 712.62576016 -1256.31713867 712.63037109 C-1278.46750713 712.63572399 -1300.61787197 712.63782875 -1322.76824099 712.63475883 C-1325.13078312 712.63444028 -1327.49332525 712.63412591 -1329.85586739 712.63381577 C-1331.59945617 712.63358435 -1331.59945617 712.63358435 -1333.37826897 712.63334826 C-1341.56554931 712.63248522 -1349.75282736 712.63394144 -1357.94010735 712.63629532 C-1367.91982678 712.63910147 -1377.89953836 712.63833784 -1387.8792569 712.63301457 C-1392.97005755 712.63038851 -1398.0608451 712.62935398 -1403.15164566 712.63266373 C-1407.81426793 712.63564922 -1412.47686496 712.63399634 -1417.13948495 712.62868617 C-1418.82377007 712.6275716 -1420.50805734 712.62813183 -1422.19234108 712.63056196 C-1437.47614853 712.65091761 -1437.47614853 712.65091761 -1444.83921725 711.72038925 C-1448.51058914 711.32293481 -1452.18770173 711.43380075 -1455.875 711.5 C-1463.60877704 711.63311148 -1463.60877704 711.63311148 -1465.875 710.5 C-1468.29002939 710.4017811 -1470.70797881 710.37026074 -1473.125 710.375 C-1474.42953125 710.37242187 -1475.7340625 710.36984375 -1477.078125 710.3671875 C-1480.7224033 710.40256315 -1480.7224033 710.40256315 -1483.65234375 711.0078125 C-1489.45873318 711.89460652 -1495.34031488 711.53690454 -1501.20117188 711.4609375 C-1505.55049724 711.42666836 -1509.79752828 711.41845825 -1514.11328125 711.9921875 C-1520.9546794 712.85894326 -1527.86595653 712.64897308 -1534.75 712.625 C-1535.47822968 712.62411377 -1536.20645935 712.62322754 -1536.95675659 712.62231445 C-1548.28625807 712.6061083 -1559.57312608 712.32516941 -1570.875 711.5 C-1570.95806993 706.47888421 -1571.03526717 701.60406271 -1570.3125 696.625 C-1569.82332153 693.24151561 -1570.00076967 690.15305612 -1570.3125 686.75 C-1570.84335354 680.86235168 -1570.99188919 675.03182973 -1571 669.125 C-1571.00443115 668.28098633 -1571.0088623 667.43697266 -1571.01342773 666.56738281 C-1571.00251849 661.7768021 -1570.59452329 657.24643517 -1569.875 652.5 C-1570.20078384 650.49875639 -1570.53555205 648.49897128 -1570.875 646.5 C-1571.08950667 640.6685964 -1571.03101373 635.22178226 -1569.875 629.5 C-1570.19356451 627.49759451 -1570.52921232 625.49788438 -1570.875 623.5 C-1571.19057739 617.5274056 -1570.64829161 611.70900369 -1569.8984375 605.78515625 C-1569.89070313 605.03105469 -1569.88296875 604.27695312 -1569.875 603.5 C-1570.535 602.84 -1571.195 602.18 -1571.875 601.5 C-1572.83481498 594.00497418 -1571.40702509 586.37510989 -1570.21484375 578.98046875 C-1569.73216076 575.60588221 -1569.73216076 575.60588221 -1570.34567261 572.7131958 C-1570.91011808 569.28682142 -1571.00207086 566.08008009 -1571.00439453 562.60839844 C-1571.00614685 561.94749207 -1571.00789917 561.28658569 -1571.00970459 560.60565186 C-1571.01407499 558.44019885 -1571.01120355 556.2748287 -1571.0078125 554.109375 C-1571.0084866 552.59816472 -1571.00945751 551.08695454 -1571.01071167 549.57574463 C-1571.01218184 546.41864991 -1571.0100548 543.26158359 -1571.00537109 540.10449219 C-1570.99965459 536.05353429 -1571.00296921 532.00264237 -1571.00894356 527.95168686 C-1571.01255089 524.83595275 -1571.01141013 521.72023439 -1571.00881577 518.60449982 C-1571.00814799 517.11013023 -1571.00896974 515.61575922 -1571.01129532 514.1213913 C-1571.01382676 512.03889653 -1571.0099752 509.95651011 -1571.00439453 507.87402344 C-1571.00359894 506.68854919 -1571.00280334 505.50307495 -1571.00198364 504.28167725 C-1570.875 501.5 -1570.875 501.5 -1569.875 499.5 C-1570.04989282 497.27448883 -1570.38894305 495.09417661 -1570.71875 492.88671875 C-1570.875 490.5 -1570.875 490.5 -1570.35791016 488.45141602 C-1569.66545862 484.21933986 -1570.04711741 480.15822167 -1570.3046875 475.890625 C-1571.06085608 461.22265442 -1571.02756966 446.55950765 -1571.00537109 431.87695312 C-1570.99957256 427.96894938 -1571.00303434 424.06101282 -1571.00894356 420.15301132 C-1571.01254641 417.11447637 -1571.01141361 414.0759576 -1571.00881577 411.03742218 C-1571.00815094 409.59411867 -1571.00895932 408.15081367 -1571.01129532 406.7075119 C-1571.01382815 404.7109327 -1571.0092848 402.71434826 -1571.00439453 400.71777344 C-1571.00359894 399.58579529 -1571.00280334 398.45381714 -1571.00198364 397.28753662 C-1570.875 394.5 -1570.875 394.5 -1569.875 391.5 C-1569.77891392 389.66871229 -1569.74517421 387.83380041 -1569.75 386 C-1569.74742188 385.0409375 -1569.74484375 384.081875 -1569.7421875 383.09375 C-1569.84244336 380.38094432 -1570.06612777 377.81749731 -1570.375 375.13037109 C-1571.24026145 365.72221153 -1571.01849995 356.25899292 -1571.0078125 346.8203125 C-1571.00848707 344.71808867 -1571.00945838 342.61586492 -1571.01071167 340.51364136 C-1571.01217948 336.12790172 -1571.01006238 331.74218256 -1571.00537109 327.35644531 C-1570.99965315 321.73765003 -1571.00297164 316.11890229 -1571.00894356 310.50010872 C-1571.01255594 306.1678532 -1571.01140782 301.83560898 -1571.00881577 297.50335312 C-1571.00814947 295.43091705 -1571.00896453 293.35847994 -1571.01129532 291.28604507 C-1571.01383523 288.39525883 -1571.00996323 285.50455001 -1571.00439453 282.61376953 C-1571.00641876 281.76070724 -1571.00844299 280.90764496 -1571.01052856 280.0287323 C-1570.99629956 276.04072337 -1570.81938992 272.39877868 -1569.875 268.5 C-1569.78948093 267.0852241 -1569.74448414 265.66735637 -1569.7421875 264.25 C-1569.74025391 263.08984375 -1569.74025391 263.08984375 -1569.73828125 261.90625 C-1569.74214844 261.1121875 -1569.74601562 260.318125 -1569.75 259.5 C-1569.74613281 258.7059375 -1569.74226563 257.911875 -1569.73828125 257.09375 C-1569.7449757 253.07707822 -1569.96999156 249.43113043 -1570.875 245.5 C-1571.04558375 240.38248748 -1570.80956924 235.3546476 -1570.46435547 230.25170898 C-1570.41424316 229.50864502 -1570.36413086 228.76558105 -1570.3125 228 C-1570.2623877 227.25758057 -1570.21227539 226.51516113 -1570.16064453 225.75024414 C-1569.84377379 220.52187691 -1570.17043589 215.69616035 -1570.875 210.5 C-1570.55751683 209.16280393 -1570.22315297 207.82954067 -1569.875 206.5 C-1569.78566933 204.9603597 -1569.74484207 203.417221 -1569.75 201.875 C-1569.74742188 201.09898437 -1569.74484375 200.32296875 -1569.7421875 199.5234375 C-1569.74826631 197.43040752 -1569.74826631 197.43040752 -1570.875 195.5 C-1570.97435045 192.60384057 -1571.01479598 189.73227595 -1571.0078125 186.8359375 C-1571.00876923 185.96989899 -1571.00972595 185.10386047 -1571.01071167 184.21157837 C-1571.01139318 182.37396167 -1571.00954092 180.53634257 -1571.00537109 178.69873047 C-1571.00006119 175.90717021 -1571.00529684 173.11577372 -1571.01171875 170.32421875 C-1571.0110572 168.53645798 -1571.00977446 166.74869731 -1571.0078125 164.9609375 C-1571.00983673 164.13355072 -1571.01186096 163.30616394 -1571.01394653 162.45370483 C-1570.99884031 158.64968818 -1570.85296826 154.98812803 -1570.30419922 151.22119141 C-1569.90291186 147.74199809 -1570.14656557 145.83933288 -1570.875 142.5 C-1571.03367915 139.21163801 -1571.0150971 135.92447292 -1571.0078125 132.6328125 C-1571.00876923 131.67986298 -1571.00972595 130.72691345 -1571.01071167 129.74508667 C-1571.01139092 127.73288914 -1571.00955445 125.72068939 -1571.00537109 123.70849609 C-1571.0000311 120.64285301 -1571.00531867 117.57735722 -1571.01171875 114.51171875 C-1571.01105769 112.55208301 -1571.00977596 110.59244737 -1571.0078125 108.6328125 C-1571.00983673 107.72218048 -1571.01186096 106.81154846 -1571.01394653 105.87332153 C-1570.99607378 100.97304662 -1570.5774216 96.35755526 -1569.875 91.5 C-1569.95755622 88.6880116 -1569.95755622 88.6880116 -1570.3046875 85.93359375 C-1570.96393444 79.13232744 -1571.02267501 72.39145809 -1571 65.5625 C-1571.00386719 64.37076172 -1571.00773437 63.17902344 -1571.01171875 61.95117188 C-1571.00978516 60.22930664 -1571.00978516 60.22930664 -1571.0078125 58.47265625 C-1571.00668457 57.44406494 -1571.00555664 56.41547363 -1571.00439453 55.35571289 C-1570.875 52.5 -1570.875 52.5 -1570.30419922 50.00170898 C-1569.77666409 46.92682136 -1570.32587518 44.56651669 -1570.875 41.5 C-1570.95490728 38.88832083 -1570.9921568 36.3055707 -1570.97265625 33.6953125 C-1570.9712413 32.9713327 -1570.96982635 32.24735291 -1570.96836853 31.50143433 C-1570.96281075 29.20924593 -1570.95026633 26.91715843 -1570.9375 24.625 C-1570.93247953 23.06250142 -1570.92791759 21.50000129 -1570.92382812 19.9375 C-1570.91285519 16.12496165 -1570.8956201 12.31249788 -1570.875 8.5 C-1566.80534461 6.98143141 -1563.43984337 6.25091921 -1559.10182476 6.25669765 C-1557.96680859 6.25333226 -1556.83179242 6.24996686 -1555.66238183 6.24649948 C-1554.42533071 6.25300728 -1553.18827958 6.25951508 -1551.91374207 6.26622009 C-1550.57854227 6.26606396 -1549.24334234 6.26502459 -1547.90814382 6.26317984 C-1544.24491684 6.26065078 -1540.58181346 6.27057543 -1536.91860902 6.2825278 C-1532.96554392 6.2932273 -1529.01247963 6.29232824 -1525.05940247 6.2928009 C-1518.21032572 6.29516263 -1511.36128965 6.30473859 -1504.51222801 6.31910515 C-1494.59985544 6.33979798 -1484.68750027 6.34846934 -1474.77510897 6.3540265 C-1458.67973223 6.36328261 -1442.58437583 6.3807381 -1426.48901367 6.40405273 C-1425.0442056 6.4061427 -1425.0442056 6.4061427 -1423.57020948 6.4082749 C-1422.60581491 6.40967043 -1421.64142034 6.41106596 -1420.6478017 6.41250378 C-1406.98256974 6.43226121 -1393.31733711 6.45009571 -1379.65209961 6.46557617 C-1378.21041721 6.46721245 -1378.21041721 6.46721245 -1376.73960992 6.46888178 C-1360.70789316 6.48691193 -1344.67617434 6.50087122 -1328.64445192 6.51274782 C-1318.758692 6.52033354 -1308.87295248 6.53207333 -1298.98720441 6.54920948 C-1292.21161189 6.56078922 -1285.43602102 6.56896253 -1278.66042086 6.57447498 C-1274.7525149 6.57780201 -1270.84462955 6.58281937 -1266.93673325 6.59228897 C-1263.35592824 6.60095023 -1259.77514877 6.60494733 -1256.19433359 6.60532434 C-1254.29249963 6.60674021 -1252.39067138 6.61314583 -1250.48884839 6.61975712 C-1244.18966573 6.61558104 -1238.12370545 6.27896869 -1231.875 5.5 C-1229.70421521 5.59957728 -1227.53477641 5.76002484 -1225.375 6 C-1220.79841065 6.4242493 -1216.79063308 6.36106816 -1212.26489258 5.70166016 C-1209.73428085 5.48812606 -1207.5072276 5.67564295 -1204.984375 5.9609375 C-1196.22363421 6.7536681 -1187.45413161 6.64925778 -1178.6652832 6.63037109 C-1175.68370524 6.62499316 -1172.70227663 6.63035258 -1169.72070312 6.63671875 C-1167.79947884 6.63605818 -1165.87825464 6.63477746 -1163.95703125 6.6328125 C-1162.63950615 6.63584885 -1162.63950615 6.63584885 -1161.29536438 6.63894653 C-1156.42244658 6.62069317 -1151.70213313 6.33847157 -1146.87382507 5.66525269 C-1144.16613316 5.4413945 -1141.60206571 5.89740057 -1138.92887199 6.31010342 C-1136.70576503 6.5156471 -1134.7879368 6.32885423 -1132.57554817 6.03834534 C-1125.59304135 5.28155301 -1118.61862665 5.36820609 -1111.60372925 5.38647461 C-1110.06637452 5.38675501 -1108.52901966 5.3865909 -1106.99166501 5.38602352 C-1102.78830629 5.3857293 -1098.58497611 5.39164373 -1094.38162398 5.39859343 C-1089.84036531 5.40498805 -1085.2991055 5.40553817 -1080.75784302 5.4067688 C-1072.89500346 5.40965099 -1065.03217334 5.41608289 -1057.16933823 5.42483521 C-1045.7923852 5.43740593 -1034.41543566 5.44346979 -1023.03847684 5.44776857 C-1004.56715237 5.45483079 -986.09583229 5.46562913 -967.62451172 5.47949219 C-966.51975652 5.48032 -965.41500133 5.48114781 -964.2767687 5.48200071 C-956.43451239 5.48790147 -948.59225618 5.49393576 -940.75 5.5 C-931.78824877 5.50692911 -922.82649749 5.5137963 -913.86474609 5.52050781 C-912.7607342 5.52133594 -911.6567223 5.52216407 -910.5192555 5.52301729 C-892.11325958 5.53670169 -873.70726359 5.54646127 -855.30126393 5.55341816 C-843.95193385 5.55789883 -832.60261681 5.56593782 -821.25329281 5.57856297 C-813.47976787 5.58698713 -805.70624592 5.5918791 -797.93271671 5.59398818 C-793.44770851 5.59533333 -788.96271717 5.59834279 -784.47771454 5.60574722 C-780.37098324 5.61250158 -776.26427631 5.61463117 -772.15753998 5.61311162 C-770.6731828 5.61338275 -769.18882473 5.61535143 -767.70447253 5.6192044 C-758.97737129 5.70073319 -758.97737129 5.70073319 -750.29506111 4.96606636 C-747.05065748 4.5239376 -744.37581094 4.56230203 -741.13671875 4.92941284 C-734.96933174 5.53079552 -728.88077226 5.64122049 -722.6875 5.62939453 C-720.95814209 5.63202301 -720.95814209 5.63202301 -719.19384766 5.63470459 C-715.42088267 5.6390697 -711.64796538 5.63620404 -707.875 5.6328125 C-705.23046817 5.63348707 -702.58593773 5.63445717 -699.94140625 5.63571167 C-694.41405734 5.63752301 -688.88672186 5.63515436 -683.359375 5.63037109 C-676.99960758 5.62493048 -670.63987224 5.62669387 -664.28010559 5.6321975 C-658.78672514 5.63675827 -653.29335427 5.63736475 -647.79997253 5.63475883 C-644.5334716 5.63321228 -641.26698876 5.63335904 -638.00048828 5.63629532 C-634.35447059 5.63885403 -630.70851324 5.63493617 -627.0625 5.62939453 C-625.47236084 5.63243088 -625.47236084 5.63243088 -623.85009766 5.63552856 C-617.69970159 5.61833771 -611.67554607 5.28417892 -605.55981445 4.61654472 C-602.79750462 4.49663601 -600.56081854 4.89234339 -597.875 5.5 C-595.4526702 5.59128243 -593.02805256 5.62789653 -590.60400391 5.62939453 C-589.88919357 5.63114685 -589.17438324 5.63289917 -588.43791199 5.63470459 C-586.07577066 5.63910068 -583.71370459 5.63618736 -581.3515625 5.6328125 C-579.68744899 5.63348751 -578.02333558 5.63445917 -576.35922241 5.63571167 C-572.86056587 5.63718672 -569.36193483 5.63504515 -565.86328125 5.63037109 C-561.45003972 5.6247536 -557.0368601 5.62790238 -552.62362099 5.63394356 C-549.17590909 5.63762332 -545.72821091 5.63637601 -542.2804985 5.63381577 C-540.65834928 5.63316255 -539.03619867 5.63391653 -537.41405106 5.63629532 C-529.33375066 5.64552279 -521.27841732 5.54922783 -513.20740473 5.13948619 C-499.23456199 4.43623256 -485.28700913 4.35802762 -471.29931641 4.37060547 C-468.72255428 4.36924656 -466.14579234 4.3674639 -463.56903076 4.36529541 C-457.35876845 4.36089837 -451.14851837 4.3617865 -444.93825562 4.36470805 C-439.88507891 4.36698505 -434.83190557 4.36726477 -429.77872849 4.36618423 C-429.05405767 4.366031 -428.32938686 4.36587777 -427.58275633 4.36571989 C-426.10976105 4.36540011 -424.63676576 4.36507589 -423.16377048 4.3647473 C-409.42290991 4.36191062 -395.68205607 4.36515155 -381.94119661 4.37054767 C-370.18979829 4.37501977 -358.43840986 4.3742329 -346.68701172 4.36962891 C-332.97926845 4.36426083 -319.27153103 4.36217918 -305.56378686 4.36524117 C-304.09865022 4.36555966 -302.63351357 4.36587404 -301.16837692 4.36618423 C-300.08755449 4.36641565 -300.08755449 4.36641565 -298.98489726 4.36665174 C-293.94364125 4.36750977 -288.902389 4.36606961 -283.86113358 4.36370468 C-277.06310347 4.36058509 -270.2650922 4.36284898 -263.4670639 4.36859894 C-260.98439693 4.36991238 -258.50172837 4.36955673 -256.01906204 4.36733627 C-243.967213 4.35755711 -231.99891878 4.43632352 -219.97971153 5.38345528 C-216.8395684 5.68351826 -216.8395684 5.68351826 -213.875 4.5 C-212.885 4.83 -211.895 5.16 -210.875 5.5 C-210.875 4.84 -210.875 4.18 -210.875 3.5 C-209.93406494 3.50523682 -208.99312988 3.51047363 -208.02368164 3.51586914 C-203.66162201 3.53696253 -199.29959688 3.5521314 -194.9375 3.5625 C-194.1572345 3.56444366 -193.37696899 3.56638733 -192.57305908 3.56838989 C-182.73976489 3.58555829 -172.98191933 3.48978169 -163.1796875 2.62109375 C-160.06003226 2.50678014 -157.20328867 2.81573684 -154.12011719 3.25317383 C-149.61604802 3.74834716 -145.08834734 3.64285344 -140.5625 3.625 C-139.59376953 3.62886719 -138.62503906 3.63273438 -137.62695312 3.63671875 C-131.86560857 3.62903183 -126.22438354 3.30019958 -120.4934082 2.72705078 C-116.5339202 2.38371056 -112.59688975 2.35409532 -108.625 2.375 C-107.87476563 2.37113281 -107.12453125 2.36726562 -106.3515625 2.36328125 C-105.24167969 2.36521484 -105.24167969 2.36521484 -104.109375 2.3671875 C-103.13822754 2.36887939 -103.13822754 2.36887939 -102.14746094 2.37060547 C-99.875 2.5 -99.875 2.5 -96.86450195 3 C-91.54004589 3.79256326 -86.17959136 3.64265725 -80.80859375 3.6328125 C-79.65633804 3.63376923 -78.50408234 3.63472595 -77.31690979 3.63571167 C-74.88876287 3.63639017 -72.46061411 3.63455894 -70.0324707 3.63037109 C-66.32173585 3.62501334 -62.61112176 3.63032983 -58.90039062 3.63671875 C-56.53645807 3.63605801 -54.17252558 3.63477692 -51.80859375 3.6328125 C-50.70221054 3.63483673 -49.59582733 3.63686096 -48.45591736 3.63894653 C-43.46790684 3.6237999 -38.78596537 3.47195164 -33.875 2.5 C-31.9331719 2.60482203 -29.99380021 2.77248404 -28.0625 3 C-24.16701248 3.3880934 -20.63373204 3.50193629 -16.75 3 C-12.875 2.5 -12.875 2.5 -10.875 3.5 C-10.545 2.51 -10.215 1.52 -9.875 0.5 C-6.72157197 -1.07671401 -3.42781557 -0.27588202 0 0 Z " fill="#676767" transform="translate(1571.875,0.5)"/>
<path d="M0 0 C5.37943809 0.39654111 10.43370887 0.51098285 15.8125 -0.125 C20.4424937 -0.62039027 23.23901635 -0.36335638 27.125 2.5 C29.48916572 6.04624858 29.42575624 7.72786586 29.5390625 11.94140625 C29.57789551 13.23900879 29.61672852 14.53661133 29.65673828 15.87353516 C29.68833719 17.26984529 29.71941455 18.6661673 29.75 20.0625 C29.78712114 21.48227165 29.82472015 22.90203089 29.86279297 24.32177734 C30.21104752 37.8622876 30.52044106 51.28137315 29.27734375 64.78515625 C29.086481 68.18642839 29.54354312 71.15662297 30.125 74.5 C29.795 75.49 29.465 76.48 29.125 77.5 C28.96745296 79.45677555 28.96745296 79.45677555 29 81.5 C28.99742188 82.180625 28.99484375 82.86125 28.9921875 83.5625 C29.05868874 85.71874781 29.05868874 85.71874781 30.125 88.5 C29.96 89.263125 29.795 90.02625 29.625 90.8125 C28.964747 93.50825541 28.964747 93.50825541 29.58544922 96.25463867 C30.14212867 99.60302781 30.25441511 102.72098975 30.2578125 106.11328125 C30.25910156 107.36173828 30.26039062 108.61019531 30.26171875 109.89648438 C30.25785156 111.18876953 30.25398438 112.48105469 30.25 113.8125 C30.25580078 115.73352539 30.25580078 115.73352539 30.26171875 117.69335938 C30.25558477 123.65252378 30.22021037 129.47539156 29.24169922 135.36401367 C29.04171853 137.64306574 29.04171853 137.64306574 29.59423828 140.43798828 C30.4799075 146.09041593 30.22701384 151.80664405 30.1875 157.51171875 C30.18371338 158.75750198 30.17992676 160.00328522 30.17602539 161.28681946 C30.16384104 165.25374329 30.14540704 169.22061238 30.125 173.1875 C30.0981573 178.42056284 30.07844303 183.65361087 30.0625 188.88671875 C30.05005249 190.6930201 30.05005249 190.6930201 30.03735352 192.53581238 C30.03405029 193.65409927 30.03074707 194.77238617 30.02734375 195.92456055 C30.01948853 197.39846504 30.01948853 197.39846504 30.01147461 198.90214539 C30.1153583 201.27936443 30.49581576 203.21959962 31.125 205.5 C32.08925251 215.74964704 32.6103086 226.20860298 32.125 236.5 C31.795 236.83 31.465 237.16 31.125 237.5 C31.05233028 240.54304432 31.12883691 243.57403966 31.1875 246.6171875 C31.125 249.5 31.125 249.5 30.125 252.5 C30.04060935 254.61575537 30.01775801 256.73414647 30.02734375 258.8515625 C30.03064697 260.16302246 30.0339502 261.47448242 30.03735352 262.82568359 C30.04353195 263.87644073 30.04353195 263.87644073 30.04983521 264.94842529 C30.06260021 267.14222179 30.06911473 269.33595782 30.07397461 271.52978516 C30.08540353 276.18655054 30.10464505 280.84326619 30.125 285.5 C30.14858658 290.89605356 30.16898502 296.29207843 30.18093872 301.68817139 C30.18742577 303.85025853 30.19993361 306.0122582 30.21264648 308.17431641 C30.21594971 309.48577637 30.21925293 310.79723633 30.22265625 312.1484375 C30.22789307 313.30520996 30.23312988 314.46198242 30.23852539 315.65380859 C30.125 318.5 30.125 318.5 29.125 321.5 C29.02891392 323.33128771 28.99517421 325.16619959 29 327 C28.99742188 327.9590625 28.99484375 328.918125 28.9921875 329.90625 C29.09244336 332.61905568 29.31612777 335.18250269 29.625 337.86962891 C30.49026145 347.27778847 30.26849995 356.74100708 30.2578125 366.1796875 C30.25848707 368.28191133 30.25945838 370.38413508 30.26071167 372.48635864 C30.26217948 376.87209828 30.26006238 381.25781744 30.25537109 385.64355469 C30.24965315 391.26234997 30.25297164 396.88109771 30.25894356 402.49989128 C30.26255594 406.8321468 30.26140782 411.16439102 30.25881577 415.49664688 C30.25814947 417.56908295 30.25896453 419.64152006 30.26129532 421.71395493 C30.26383523 424.60474117 30.25996323 427.49544999 30.25439453 430.38623047 C30.25743088 431.6658239 30.25743088 431.6658239 30.26052856 432.9712677 C30.24629956 436.95927663 30.06938992 440.60122132 29.125 444.5 C29.03948093 445.9147759 28.99448414 447.33264363 28.9921875 448.75 C28.99089844 449.5234375 28.98960938 450.296875 28.98828125 451.09375 C28.99408203 452.28484375 28.99408203 452.28484375 29 453.5 C28.99613281 454.2940625 28.99226563 455.088125 28.98828125 455.90625 C28.9949757 459.92292178 29.21999156 463.56886957 30.125 467.5 C30.29558375 472.61751252 30.05956924 477.6453524 29.71435547 482.74829102 C29.66424316 483.49135498 29.61413086 484.23441895 29.5625 485 C29.5123877 485.74241943 29.46227539 486.48483887 29.41064453 487.24975586 C29.09377379 492.47812309 29.42043589 497.30383965 30.125 502.5 C29.80751683 503.83719607 29.47315297 505.17045933 29.125 506.5 C29.03566933 508.0396403 28.99484207 509.582779 29 511.125 C28.99742188 511.90101563 28.99484375 512.67703125 28.9921875 513.4765625 C28.99826631 515.56959248 28.99826631 515.56959248 30.125 517.5 C30.22435045 520.39615943 30.26479598 523.26772405 30.2578125 526.1640625 C30.25876923 527.03010101 30.25972595 527.89613953 30.26071167 528.78842163 C30.26139318 530.62603833 30.25954092 532.46365743 30.25537109 534.30126953 C30.25006119 537.09282979 30.25529684 539.88422628 30.26171875 542.67578125 C30.2610572 544.46354202 30.25977446 546.25130269 30.2578125 548.0390625 C30.26084885 549.28014267 30.26084885 549.28014267 30.26394653 550.54629517 C30.24884031 554.35031182 30.10296826 558.01187197 29.55419922 561.77880859 C29.15291186 565.25800191 29.39656557 567.16066712 30.125 570.5 C30.28367915 573.78836199 30.2650971 577.07552708 30.2578125 580.3671875 C30.25876923 581.32013702 30.25972595 582.27308655 30.26071167 583.25491333 C30.26139092 585.26711086 30.25955445 587.27931061 30.25537109 589.29150391 C30.2500311 592.35714699 30.25531867 595.42264278 30.26171875 598.48828125 C30.26105769 600.44791699 30.25977596 602.40755263 30.2578125 604.3671875 C30.26084885 605.73313553 30.26084885 605.73313553 30.26394653 607.12667847 C30.24607378 612.02695338 29.8274216 616.64244474 29.125 621.5 C29.20755622 624.3119884 29.20755622 624.3119884 29.5546875 627.06640625 C30.21393444 633.86767256 30.27267501 640.60854191 30.25 647.4375 C30.25580078 649.22510742 30.25580078 649.22510742 30.26171875 651.04882812 C30.26042969 652.19673828 30.25914063 653.34464844 30.2578125 654.52734375 C30.25612061 656.07023071 30.25612061 656.07023071 30.25439453 657.64428711 C30.125 660.5 30.125 660.5 29.55419922 662.99829102 C29.02666409 666.07317864 29.57587518 668.43348331 30.125 671.5 C30.20490728 674.11167917 30.2421568 676.6944293 30.22265625 679.3046875 C30.2212413 680.0286673 30.21982635 680.75264709 30.21836853 681.49856567 C30.21281075 683.79075407 30.20026633 686.08284157 30.1875 688.375 C30.18247953 689.93749858 30.17791759 691.49999871 30.17382812 693.0625 C30.16285519 696.87503835 30.1456201 700.68750212 30.125 704.5 C27.14632116 705.98933942 24.1132965 705.62137076 20.84887695 705.59765625 C20.09905045 705.59619598 19.34922394 705.59473572 18.57667542 705.5932312 C16.94518186 705.58942057 15.31369247 705.58329914 13.68221474 705.57516479 C11.09674377 705.56241847 8.51132405 705.55588926 5.92582703 705.55102539 C-0.50050485 705.53763984 -6.92678851 705.51351832 -13.35308838 705.48962402 C-18.77490277 705.46985333 -24.19669864 705.45422402 -29.61853981 705.44406128 C-32.15935702 705.43760135 -34.70009815 705.42508903 -37.2408905 705.41235352 C-38.81122777 705.40871797 -40.38156573 705.40536662 -41.9519043 705.40234375 C-42.65295288 705.39717743 -43.35400146 705.39201111 -44.07629395 705.38668823 C-47.15615418 705.38636077 -50.07880094 705.53134943 -53.12547302 706 C-58.35638194 706.69754251 -63.51944747 706.62218458 -68.79052734 706.59765625 C-69.97770859 706.59619598 -71.16488983 706.59473572 -72.38804626 706.5932312 C-75.64550765 706.58843247 -78.90292348 706.57923435 -82.1603694 706.56846237 C-85.63438309 706.55836109 -89.10840275 706.55493957 -92.58242798 706.55102539 C-102.9358078 706.53810982 -113.28915918 706.51410799 -123.64251709 706.48962402 C-133.72781877 706.46596365 -143.81311255 706.44753044 -153.8984375 706.4375 C-154.97242939 706.43631605 -154.97242939 706.43631605 -156.0681181 706.43510818 C-177.7612444 706.41298265 -199.43860536 706.63188837 -221.1280632 707.07147217 C-237.50405408 707.40232446 -253.87054453 707.58713061 -270.25 707.5625 C-271.24459858 707.56105988 -272.23919716 707.55961975 -273.26393509 707.55813599 C-280.13431774 707.5462498 -287.00465093 707.52405882 -293.875 707.5 C-300.92994829 707.47605245 -307.9848765 707.45599525 -315.03985596 707.44406128 C-317.79011298 707.43769645 -320.54029442 707.42524454 -323.29052734 707.41235352 C-324.96451762 707.40872471 -326.63850853 707.40537252 -328.3125 707.40234375 C-329.0508609 707.39717743 -329.7892218 707.39201111 -330.54995728 707.38668823 C-334.11520264 707.38633127 -337.56434902 707.54886351 -341.10215759 708 C-346.99616085 708.71004576 -352.87400502 708.62355689 -358.80297852 708.59765625 C-360.75371611 708.59541362 -362.7044537 708.59317136 -364.6551913 708.59094238 C-366.74229532 708.58758447 -368.82937904 708.58173134 -370.9164753 708.57516479 C-375.32842379 708.56145286 -379.74036246 708.5557045 -384.15232849 708.55102539 C-395.14561527 708.53811279 -406.13887461 708.51392376 -417.13214111 708.48962402 C-427.86022465 708.46611813 -438.58830128 708.44762632 -449.31640625 708.4375 C-450.44861933 708.43631605 -450.44861933 708.43631605 -451.60370541 708.43510818 C-471.59078684 708.41574384 -491.55981346 708.56765951 -511.54171562 709.07147217 C-527.9072408 709.48030746 -544.26234019 709.58283613 -560.6328125 709.5625 C-561.84192984 709.56105988 -563.05104717 709.55961975 -564.29680443 709.55813599 C-572.86455722 709.54602977 -581.43227319 709.52387531 -590 709.5 C-598.72752483 709.47620364 -607.45503324 709.45603089 -616.18258286 709.44406128 C-619.62265271 709.43763572 -623.06266496 709.42516418 -626.50271606 709.41235352 C-628.59051465 709.4087253 -630.67831374 709.40537304 -632.76611328 709.40234375 C-633.70706345 709.39717743 -634.64801361 709.39201111 -635.61747742 709.38668823 C-640.18027693 709.38631972 -644.36696278 709.73905172 -648.875 710.5 C-649.865 710.17 -650.855 709.84 -651.875 709.5 C-653.9829108 709.59565372 -653.9829108 709.59565372 -656.29542542 709.93139648 C-662.26011649 710.60253023 -668.15119219 710.62582665 -674.14819336 710.59765625 C-675.33523361 710.59619598 -676.52227386 710.59473572 -677.74528503 710.5932312 C-680.97782858 710.58845636 -684.21032503 710.57928915 -687.44285274 710.56846237 C-690.86282061 710.5583777 -694.2827945 710.55494674 -697.70277405 710.55102539 C-707.13764771 710.53903943 -716.57249326 710.51716363 -726.00734711 710.49479675 C-734.61928245 710.47443494 -743.23120696 710.45638026 -751.84316164 710.44658184 C-756.51606881 710.44093168 -761.18891292 710.42742259 -765.86180115 710.41235352 C-778.86692312 710.38655996 -791.82413733 710.59407997 -804.81774807 711.14071655 C-816.35692697 711.60478036 -827.88486768 711.61479755 -839.43180847 711.57516479 C-843.27636258 711.56209156 -847.1208812 711.55581069 -850.9654541 711.55102539 C-859.10198584 711.54011675 -867.23848767 711.52050204 -875.375 711.5 C-884.87434251 711.47618223 -894.37366538 711.45597661 -903.87303162 711.44406128 C-907.64132974 711.43763209 -911.40957534 711.42513832 -915.17785645 711.41235352 C-917.49552364 711.40872011 -919.8131913 711.40536849 -922.13085938 711.40234375 C-923.16163101 711.39717743 -924.19240265 711.39201111 -925.25440979 711.38668823 C-931.02804778 711.3862718 -936.69056123 711.66937676 -942.43364143 712.27204704 C-946.27631516 712.6308427 -950.10435662 712.64301817 -953.9609375 712.6328125 C-954.77720108 712.63408646 -955.59346466 712.63536041 -956.4344635 712.63667297 C-959.03968055 712.63845369 -961.64479353 712.63217986 -964.25 712.625 C-965.1387381 712.62444611 -966.0274762 712.62389221 -966.94314575 712.62332153 C-977.85822363 712.61531883 -988.7555056 712.55829805 -999.64794922 711.76806641 C-1003.09332912 711.53370271 -1006.11407669 711.53139562 -1009.56441593 711.98449516 C-1016.97892435 712.84770186 -1024.45742252 712.63772201 -1031.91075134 712.62698364 C-1033.652058 712.62813671 -1035.39336441 712.62972549 -1037.13467032 712.63171089 C-1041.9065008 712.63587868 -1046.67831124 712.63382502 -1051.45014179 712.63072467 C-1056.60155362 712.6284604 -1061.75296202 712.63195532 -1066.90437317 712.63470459 C-1076.991096 712.63915034 -1087.07781138 712.63819109 -1097.1645345 712.63529195 C-1105.36312924 712.63303311 -1113.56172189 712.63272748 -1121.76031685 712.63381577 C-1122.92741265 712.633969 -1124.09450846 712.63412223 -1125.2969708 712.63428011 C-1127.66795369 712.63459984 -1130.03893657 712.63492405 -1132.40991945 712.6352527 C-1154.64110809 712.63810402 -1176.87229262 712.63482597 -1199.10348058 712.62945233 C-1218.17470201 712.6249852 -1237.24591735 712.62576016 -1256.31713867 712.63037109 C-1278.46750713 712.63572399 -1300.61787197 712.63782875 -1322.76824099 712.63475883 C-1325.13078312 712.63444028 -1327.49332525 712.63412591 -1329.85586739 712.63381577 C-1331.59945617 712.63358435 -1331.59945617 712.63358435 -1333.37826897 712.63334826 C-1341.56554931 712.63248522 -1349.75282736 712.63394144 -1357.94010735 712.63629532 C-1367.91982678 712.63910147 -1377.89953836 712.63833784 -1387.8792569 712.63301457 C-1392.97005755 712.63038851 -1398.0608451 712.62935398 -1403.15164566 712.63266373 C-1407.81426793 712.63564922 -1412.47686496 712.63399634 -1417.13948495 712.62868617 C-1418.82377007 712.6275716 -1420.50805734 712.62813183 -1422.19234108 712.63056196 C-1437.47614853 712.65091761 -1437.47614853 712.65091761 -1444.83921725 711.72038925 C-1448.51058914 711.32293481 -1452.18770173 711.43380075 -1455.875 711.5 C-1463.60877704 711.63311148 -1463.60877704 711.63311148 -1465.875 710.5 C-1468.29002939 710.4017811 -1470.70797881 710.37026074 -1473.125 710.375 C-1474.42953125 710.37242187 -1475.7340625 710.36984375 -1477.078125 710.3671875 C-1480.7224033 710.40256315 -1480.7224033 710.40256315 -1483.65234375 711.0078125 C-1489.45873318 711.89460652 -1495.34031488 711.53690454 -1501.20117188 711.4609375 C-1505.55049724 711.42666836 -1509.79752828 711.41845825 -1514.11328125 711.9921875 C-1520.9546794 712.85894326 -1527.86595653 712.64897308 -1534.75 712.625 C-1535.47822968 712.62411377 -1536.20645935 712.62322754 -1536.95675659 712.62231445 C-1548.28625807 712.6061083 -1559.57312608 712.32516941 -1570.875 711.5 C-1570.95806993 706.47888421 -1571.03526717 701.60406271 -1570.3125 696.625 C-1569.82332153 693.24151561 -1570.00076967 690.15305612 -1570.3125 686.75 C-1570.84335354 680.86235168 -1570.99188919 675.03182973 -1571 669.125 C-1571.00443115 668.28098633 -1571.0088623 667.43697266 -1571.01342773 666.56738281 C-1571.00251849 661.7768021 -1570.59452329 657.24643517 -1569.875 652.5 C-1570.20078384 650.49875639 -1570.53555205 648.49897128 -1570.875 646.5 C-1571.08950667 640.6685964 -1571.03101373 635.22178226 -1569.875 629.5 C-1570.19356451 627.49759451 -1570.52921232 625.49788438 -1570.875 623.5 C-1571.19057739 617.5274056 -1570.64829161 611.70900369 -1569.8984375 605.78515625 C-1569.89070313 605.03105469 -1569.88296875 604.27695312 -1569.875 603.5 C-1570.535 602.84 -1571.195 602.18 -1571.875 601.5 C-1572.83481498 594.00497418 -1571.40702509 586.37510989 -1570.21484375 578.98046875 C-1569.73216076 575.60588221 -1569.73216076 575.60588221 -1570.34567261 572.7131958 C-1570.91011808 569.28682142 -1571.00207086 566.08008009 -1571.00439453 562.60839844 C-1571.00614685 561.94749207 -1571.00789917 561.28658569 -1571.00970459 560.60565186 C-1571.01407499 558.44019885 -1571.01120355 556.2748287 -1571.0078125 554.109375 C-1571.0084866 552.59816472 -1571.00945751 551.08695454 -1571.01071167 549.57574463 C-1571.01218184 546.41864991 -1571.0100548 543.26158359 -1571.00537109 540.10449219 C-1570.99965459 536.05353429 -1571.00296921 532.00264237 -1571.00894356 527.95168686 C-1571.01255089 524.83595275 -1571.01141013 521.72023439 -1571.00881577 518.60449982 C-1571.00814799 517.11013023 -1571.00896974 515.61575922 -1571.01129532 514.1213913 C-1571.01382676 512.03889653 -1571.0099752 509.95651011 -1571.00439453 507.87402344 C-1571.00359894 506.68854919 -1571.00280334 505.50307495 -1571.00198364 504.28167725 C-1570.875 501.5 -1570.875 501.5 -1569.875 499.5 C-1570.04989282 497.27448883 -1570.38894305 495.09417661 -1570.71875 492.88671875 C-1570.875 490.5 -1570.875 490.5 -1570.35791016 488.45141602 C-1569.66545862 484.21933986 -1570.04711741 480.15822167 -1570.3046875 475.890625 C-1571.06085608 461.22265442 -1571.02756966 446.55950765 -1571.00537109 431.87695312 C-1570.99957256 427.96894938 -1571.00303434 424.06101282 -1571.00894356 420.15301132 C-1571.01254641 417.11447637 -1571.01141361 414.0759576 -1571.00881577 411.03742218 C-1571.00815094 409.59411867 -1571.00895932 408.15081367 -1571.01129532 406.7075119 C-1571.01382815 404.7109327 -1571.0092848 402.71434826 -1571.00439453 400.71777344 C-1571.00359894 399.58579529 -1571.00280334 398.45381714 -1571.00198364 397.28753662 C-1570.875 394.5 -1570.875 394.5 -1569.875 391.5 C-1569.77891392 389.66871229 -1569.74517421 387.83380041 -1569.75 386 C-1569.74742188 385.0409375 -1569.74484375 384.081875 -1569.7421875 383.09375 C-1569.84244336 380.38094432 -1570.06612777 377.81749731 -1570.375 375.13037109 C-1571.24026145 365.72221153 -1571.01849995 356.25899292 -1571.0078125 346.8203125 C-1571.00848707 344.71808867 -1571.00945838 342.61586492 -1571.01071167 340.51364136 C-1571.01217948 336.12790172 -1571.01006238 331.74218256 -1571.00537109 327.35644531 C-1570.99965315 321.73765003 -1571.00297164 316.11890229 -1571.00894356 310.50010872 C-1571.01255594 306.1678532 -1571.01140782 301.83560898 -1571.00881577 297.50335312 C-1571.00814947 295.43091705 -1571.00896453 293.35847994 -1571.01129532 291.28604507 C-1571.01383523 288.39525883 -1571.00996323 285.50455001 -1571.00439453 282.61376953 C-1571.00641876 281.76070724 -1571.00844299 280.90764496 -1571.01052856 280.0287323 C-1570.99629956 276.04072337 -1570.81938992 272.39877868 -1569.875 268.5 C-1569.78948093 267.0852241 -1569.74448414 265.66735637 -1569.7421875 264.25 C-1569.74025391 263.08984375 -1569.74025391 263.08984375 -1569.73828125 261.90625 C-1569.74214844 261.1121875 -1569.74601562 260.318125 -1569.75 259.5 C-1569.74613281 258.7059375 -1569.74226563 257.911875 -1569.73828125 257.09375 C-1569.7449757 253.07707822 -1569.96999156 249.43113043 -1570.875 245.5 C-1571.04558375 240.38248748 -1570.80956924 235.3546476 -1570.46435547 230.25170898 C-1570.41424316 229.50864502 -1570.36413086 228.76558105 -1570.3125 228 C-1570.2623877 227.25758057 -1570.21227539 226.51516113 -1570.16064453 225.75024414 C-1569.84377379 220.52187691 -1570.17043589 215.69616035 -1570.875 210.5 C-1570.55751683 209.16280393 -1570.22315297 207.82954067 -1569.875 206.5 C-1569.78566933 204.9603597 -1569.74484207 203.417221 -1569.75 201.875 C-1569.74742188 201.09898437 -1569.74484375 200.32296875 -1569.7421875 199.5234375 C-1569.74826631 197.43040752 -1569.74826631 197.43040752 -1570.875 195.5 C-1570.97435045 192.60384057 -1571.01479598 189.73227595 -1571.0078125 186.8359375 C-1571.00876923 185.96989899 -1571.00972595 185.10386047 -1571.01071167 184.21157837 C-1571.01139318 182.37396167 -1571.00954092 180.53634257 -1571.00537109 178.69873047 C-1571.00006119 175.90717021 -1571.00529684 173.11577372 -1571.01171875 170.32421875 C-1571.0110572 168.53645798 -1571.00977446 166.74869731 -1571.0078125 164.9609375 C-1571.00983673 164.13355072 -1571.01186096 163.30616394 -1571.01394653 162.45370483 C-1570.99884031 158.64968818 -1570.85296826 154.98812803 -1570.30419922 151.22119141 C-1569.90291186 147.74199809 -1570.14656557 145.83933288 -1570.875 142.5 C-1571.03367915 139.21163801 -1571.0150971 135.92447292 -1571.0078125 132.6328125 C-1571.00876923 131.67986298 -1571.00972595 130.72691345 -1571.01071167 129.74508667 C-1571.01139092 127.73288914 -1571.00955445 125.72068939 -1571.00537109 123.70849609 C-1571.0000311 120.64285301 -1571.00531867 117.57735722 -1571.01171875 114.51171875 C-1571.01105769 112.55208301 -1571.00977596 110.59244737 -1571.0078125 108.6328125 C-1571.00983673 107.72218048 -1571.01186096 106.81154846 -1571.01394653 105.87332153 C-1570.99607378 100.97304662 -1570.5774216 96.35755526 -1569.875 91.5 C-1569.95755622 88.6880116 -1569.95755622 88.6880116 -1570.3046875 85.93359375 C-1570.96393444 79.13232744 -1571.02267501 72.39145809 -1571 65.5625 C-1571.00386719 64.37076172 -1571.00773437 63.17902344 -1571.01171875 61.95117188 C-1571.00978516 60.22930664 -1571.00978516 60.22930664 -1571.0078125 58.47265625 C-1571.00668457 57.44406494 -1571.00555664 56.41547363 -1571.00439453 55.35571289 C-1570.875 52.5 -1570.875 52.5 -1570.30419922 50.00170898 C-1569.77666409 46.92682136 -1570.32587518 44.56651669 -1570.875 41.5 C-1570.95490728 38.88832083 -1570.9921568 36.3055707 -1570.97265625 33.6953125 C-1570.9712413 32.9713327 -1570.96982635 32.24735291 -1570.96836853 31.50143433 C-1570.96281075 29.20924593 -1570.95026633 26.91715843 -1570.9375 24.625 C-1570.93247953 23.06250142 -1570.92791759 21.50000129 -1570.92382812 19.9375 C-1570.91285519 16.12496165 -1570.8956201 12.31249788 -1570.875 8.5 C-1566.80534461 6.98143141 -1563.43984337 6.25091921 -1559.10182476 6.25669765 C-1557.96680859 6.25333226 -1556.83179242 6.24996686 -1555.66238183 6.24649948 C-1554.42533071 6.25300728 -1553.18827958 6.25951508 -1551.91374207 6.26622009 C-1550.57854227 6.26606396 -1549.24334234 6.26502459 -1547.90814382 6.26317984 C-1544.24491684 6.26065078 -1540.58181346 6.27057543 -1536.91860902 6.2825278 C-1532.96554392 6.2932273 -1529.01247963 6.29232824 -1525.05940247 6.2928009 C-1518.21032572 6.29516263 -1511.36128965 6.30473859 -1504.51222801 6.31910515 C-1494.59985544 6.33979798 -1484.68750027 6.34846934 -1474.77510897 6.3540265 C-1458.67973223 6.36328261 -1442.58437583 6.3807381 -1426.48901367 6.40405273 C-1425.0442056 6.4061427 -1425.0442056 6.4061427 -1423.57020948 6.4082749 C-1422.60581491 6.40967043 -1421.64142034 6.41106596 -1420.6478017 6.41250378 C-1406.98256974 6.43226121 -1393.31733711 6.45009571 -1379.65209961 6.46557617 C-1378.21041721 6.46721245 -1378.21041721 6.46721245 -1376.73960992 6.46888178 C-1360.70789316 6.48691193 -1344.67617434 6.50087122 -1328.64445192 6.51274782 C-1318.758692 6.52033354 -1308.87295248 6.53207333 -1298.98720441 6.54920948 C-1292.21161189 6.56078922 -1285.43602102 6.56896253 -1278.66042086 6.57447498 C-1274.7525149 6.57780201 -1270.84462955 6.58281937 -1266.93673325 6.59228897 C-1263.35592824 6.60095023 -1259.77514877 6.60494733 -1256.19433359 6.60532434 C-1254.29249963 6.60674021 -1252.39067138 6.61314583 -1250.48884839 6.61975712 C-1244.18966573 6.61558104 -1238.12370545 6.27896869 -1231.875 5.5 C-1229.70421521 5.59957728 -1227.53477641 5.76002484 -1225.375 6 C-1220.79841065 6.4242493 -1216.79063308 6.36106816 -1212.26489258 5.70166016 C-1209.73428085 5.48812606 -1207.5072276 5.67564295 -1204.984375 5.9609375 C-1196.22363421 6.7536681 -1187.45413161 6.64925778 -1178.6652832 6.63037109 C-1175.68370524 6.62499316 -1172.70227663 6.63035258 -1169.72070312 6.63671875 C-1167.79947884 6.63605818 -1165.87825464 6.63477746 -1163.95703125 6.6328125 C-1162.63950615 6.63584885 -1162.63950615 6.63584885 -1161.29536438 6.63894653 C-1156.42244658 6.62069317 -1151.70213313 6.33847157 -1146.87382507 5.66525269 C-1144.16613316 5.4413945 -1141.60206571 5.89740057 -1138.92887199 6.31010342 C-1136.70576503 6.5156471 -1134.7879368 6.32885423 -1132.57554817 6.03834534 C-1125.59304135 5.28155301 -1118.61862665 5.36820609 -1111.60372925 5.38647461 C-1110.06637452 5.38675501 -1108.52901966 5.3865909 -1106.99166501 5.38602352 C-1102.78830629 5.3857293 -1098.58497611 5.39164373 -1094.38162398 5.39859343 C-1089.84036531 5.40498805 -1085.2991055 5.40553817 -1080.75784302 5.4067688 C-1072.89500346 5.40965099 -1065.03217334 5.41608289 -1057.16933823 5.42483521 C-1045.7923852 5.43740593 -1034.41543566 5.44346979 -1023.03847684 5.44776857 C-1004.56715237 5.45483079 -986.09583229 5.46562913 -967.62451172 5.47949219 C-966.51975652 5.48032 -965.41500133 5.48114781 -964.2767687 5.48200071 C-956.43451239 5.48790147 -948.59225618 5.49393576 -940.75 5.5 C-931.78824877 5.50692911 -922.82649749 5.5137963 -913.86474609 5.52050781 C-912.7607342 5.52133594 -911.6567223 5.52216407 -910.5192555 5.52301729 C-892.11325958 5.53670169 -873.70726359 5.54646127 -855.30126393 5.55341816 C-843.95193385 5.55789883 -832.60261681 5.56593782 -821.25329281 5.57856297 C-813.47976787 5.58698713 -805.70624592 5.5918791 -797.93271671 5.59398818 C-793.44770851 5.59533333 -788.96271717 5.59834279 -784.47771454 5.60574722 C-780.37098324 5.61250158 -776.26427631 5.61463117 -772.15753998 5.61311162 C-770.6731828 5.61338275 -769.18882473 5.61535143 -767.70447253 5.6192044 C-758.97737129 5.70073319 -758.97737129 5.70073319 -750.29506111 4.96606636 C-747.05065748 4.5239376 -744.37581094 4.56230203 -741.13671875 4.92941284 C-734.96933174 5.53079552 -728.88077226 5.64122049 -722.6875 5.62939453 C-720.95814209 5.63202301 -720.95814209 5.63202301 -719.19384766 5.63470459 C-715.42088267 5.6390697 -711.64796538 5.63620404 -707.875 5.6328125 C-705.23046817 5.63348707 -702.58593773 5.63445717 -699.94140625 5.63571167 C-694.41405734 5.63752301 -688.88672186 5.63515436 -683.359375 5.63037109 C-676.99960758 5.62493048 -670.63987224 5.62669387 -664.28010559 5.6321975 C-658.78672514 5.63675827 -653.29335427 5.63736475 -647.79997253 5.63475883 C-644.5334716 5.63321228 -641.26698876 5.63335904 -638.00048828 5.63629532 C-634.35447059 5.63885403 -630.70851324 5.63493617 -627.0625 5.62939453 C-625.47236084 5.63243088 -625.47236084 5.63243088 -623.85009766 5.63552856 C-617.69970159 5.61833771 -611.67554607 5.28417892 -605.55981445 4.61654472 C-602.79750462 4.49663601 -600.56081854 4.89234339 -597.875 5.5 C-595.4526702 5.59128243 -593.02805256 5.62789653 -590.60400391 5.62939453 C-589.88919357 5.63114685 -589.17438324 5.63289917 -588.43791199 5.63470459 C-586.07577066 5.63910068 -583.71370459 5.63618736 -581.3515625 5.6328125 C-579.68744899 5.63348751 -578.02333558 5.63445917 -576.35922241 5.63571167 C-572.86056587 5.63718672 -569.36193483 5.63504515 -565.86328125 5.63037109 C-561.45003972 5.6247536 -557.0368601 5.62790238 -552.62362099 5.63394356 C-549.17590909 5.63762332 -545.72821091 5.63637601 -542.2804985 5.63381577 C-540.65834928 5.63316255 -539.03619867 5.63391653 -537.41405106 5.63629532 C-529.33375066 5.64552279 -521.27841732 5.54922783 -513.20740473 5.13948619 C-499.23456199 4.43623256 -485.28700913 4.35802762 -471.29931641 4.37060547 C-468.72255428 4.36924656 -466.14579234 4.3674639 -463.56903076 4.36529541 C-457.35876845 4.36089837 -451.14851837 4.3617865 -444.93825562 4.36470805 C-439.88507891 4.36698505 -434.83190557 4.36726477 -429.77872849 4.36618423 C-429.05405767 4.366031 -428.32938686 4.36587777 -427.58275633 4.36571989 C-426.10976105 4.36540011 -424.63676576 4.36507589 -423.16377048 4.3647473 C-409.42290991 4.36191062 -395.68205607 4.36515155 -381.94119661 4.37054767 C-370.18979829 4.37501977 -358.43840986 4.3742329 -346.68701172 4.36962891 C-332.97926845 4.36426083 -319.27153103 4.36217918 -305.56378686 4.36524117 C-304.09865022 4.36555966 -302.63351357 4.36587404 -301.16837692 4.36618423 C-300.08755449 4.36641565 -300.08755449 4.36641565 -298.98489726 4.36665174 C-293.94364125 4.36750977 -288.902389 4.36606961 -283.86113358 4.36370468 C-277.06310347 4.36058509 -270.2650922 4.36284898 -263.4670639 4.36859894 C-260.98439693 4.36991238 -258.50172837 4.36955673 -256.01906204 4.36733627 C-243.967213 4.35755711 -231.99891878 4.43632352 -219.97971153 5.38345528 C-216.8395684 5.68351826 -216.8395684 5.68351826 -213.875 4.5 C-212.885 4.83 -211.895 5.16 -210.875 5.5 C-210.875 4.84 -210.875 4.18 -210.875 3.5 C-209.93406494 3.50523682 -208.99312988 3.51047363 -208.02368164 3.51586914 C-203.66162201 3.53696253 -199.29959688 3.5521314 -194.9375 3.5625 C-194.1572345 3.56444366 -193.37696899 3.56638733 -192.57305908 3.56838989 C-182.73976489 3.58555829 -172.98191933 3.48978169 -163.1796875 2.62109375 C-160.06003226 2.50678014 -157.20328867 2.81573684 -154.12011719 3.25317383 C-149.61604802 3.74834716 -145.08834734 3.64285344 -140.5625 3.625 C-139.59376953 3.62886719 -138.62503906 3.63273438 -137.62695312 3.63671875 C-131.86560857 3.62903183 -126.22438354 3.30019958 -120.4934082 2.72705078 C-116.5339202 2.38371056 -112.59688975 2.35409532 -108.625 2.375 C-107.87476563 2.37113281 -107.12453125 2.36726562 -106.3515625 2.36328125 C-105.24167969 2.36521484 -105.24167969 2.36521484 -104.109375 2.3671875 C-103.13822754 2.36887939 -103.13822754 2.36887939 -102.14746094 2.37060547 C-99.875 2.5 -99.875 2.5 -96.86450195 3 C-91.54004589 3.79256326 -86.17959136 3.64265725 -80.80859375 3.6328125 C-79.65633804 3.63376923 -78.50408234 3.63472595 -77.31690979 3.63571167 C-74.88876287 3.63639017 -72.46061411 3.63455894 -70.0324707 3.63037109 C-66.32173585 3.62501334 -62.61112176 3.63032983 -58.90039062 3.63671875 C-56.53645807 3.63605801 -54.17252558 3.63477692 -51.80859375 3.6328125 C-50.70221054 3.63483673 -49.59582733 3.63686096 -48.45591736 3.63894653 C-43.46790684 3.6237999 -38.78596537 3.47195164 -33.875 2.5 C-31.9331719 2.60482203 -29.99380021 2.77248404 -28.0625 3 C-24.16701248 3.3880934 -20.63373204 3.50193629 -16.75 3 C-12.875 2.5 -12.875 2.5 -10.875 3.5 C-10.545 2.51 -10.215 1.52 -9.875 0.5 C-6.72157197 -1.07671401 -3.42781557 -0.27588202 0 0 Z M-628.08203125 19.46875 C-632.14930649 20.97051317 -635.79276771 20.40918068 -640.0625 20.0625 C-647.71674533 19.54452238 -655.14072044 19.53838117 -662.78588867 20.18188477 C-666.32450877 20.45812463 -669.57070464 20.48944873 -673.09375 20 C-676.24553176 19.58323547 -678.53477729 19.50375986 -681.625 20 C-683.8929307 20.35895306 -685.47487018 20.60881475 -687.69921875 20.00390625 C-690.85116647 19.27392195 -693.7214584 19.66811079 -696.9375 19.9375 C-707.43064065 20.73272177 -717.59754299 20.45995456 -728.078125 19.62109375 C-731.78001425 19.3868752 -731.78001425 19.3868752 -735.02441406 19.98413086 C-739.47881771 20.58089442 -743.79420425 20.64364167 -748.28125 20.6328125 C-749.16478149 20.63376923 -750.04831299 20.63472595 -750.95861816 20.63571167 C-752.81762768 20.636389 -754.67663962 20.63456604 -756.53564453 20.63037109 C-759.36626545 20.62501652 -762.19672771 20.63033132 -765.02734375 20.63671875 C-766.84114618 20.63605789 -768.65494851 20.63477656 -770.46875 20.6328125 C-771.30748657 20.63483673 -772.14622314 20.63686096 -773.01037598 20.63894653 C-776.65533041 20.62454378 -780.03414746 20.47593852 -783.65039062 19.92919922 C-786.81526005 19.50795146 -788.80650794 19.80773557 -791.875 20.5 C-794.3059082 20.38330078 -794.3059082 20.38330078 -796.86328125 20.0703125 C-803.27379918 19.40185615 -809.6219128 19.35259796 -816.0625 19.375 C-817.18591797 19.37113281 -818.30933594 19.36726563 -819.46679688 19.36328125 C-825.38072227 19.37022655 -831.02209483 19.69616753 -836.875 20.5 C-848.98755047 20.9471517 -848.98755047 20.9471517 -854.875 19.9375 C-858.18373199 19.45497658 -860.58897481 19.94587633 -863.875 20.5 C-865.80304836 20.58595792 -867.73353454 20.62624019 -869.66349792 20.62698364 C-871.36061165 20.63121338 -871.36061165 20.63121338 -873.0920105 20.63552856 C-874.31872467 20.63350433 -875.54543884 20.6314801 -876.80932617 20.62939453 C-878.11236191 20.63114685 -879.41539764 20.63289917 -880.75791931 20.63470459 C-884.31964484 20.63925059 -887.8813413 20.63750139 -891.44306731 20.6343255 C-895.17325273 20.63178886 -898.9034357 20.63414293 -902.63362122 20.63571167 C-908.89369147 20.63752887 -915.1537499 20.63513812 -921.41381836 20.63037109 C-928.65295995 20.6249222 -935.8920734 20.62669748 -943.13121432 20.6321975 C-949.34959218 20.63673291 -955.56796156 20.63737729 -961.78634053 20.63475883 C-965.4992143 20.63319934 -969.21207482 20.63299349 -972.92494774 20.63629532 C-977.05960132 20.63971578 -981.1942062 20.63497732 -985.32885742 20.62939453 C-986.56164429 20.63141876 -987.79443115 20.63344299 -989.0645752 20.63552856 C-990.18752487 20.63270874 -991.31047455 20.62988892 -992.467453 20.62698364 C-993.44505679 20.62660662 -994.42266058 20.62622959 -995.42988873 20.62584114 C-997.875 20.5 -997.875 20.5 -1000.875 19.5 C-1002.88268821 19.73982577 -1004.89010533 19.98206296 -1006.89639282 20.2333374 C-1013.6958352 20.84206385 -1020.56444936 20.64238011 -1027.38671875 20.6328125 C-1029.085841 20.6334872 -1030.78496316 20.63445861 -1032.48408508 20.63571167 C-1036.03017097 20.63717962 -1039.57623153 20.63506244 -1043.12231445 20.63037109 C-1047.65818377 20.62466124 -1052.19399408 20.62796648 -1056.72986126 20.63394356 C-1060.23263491 20.63756244 -1063.73539464 20.6364047 -1067.23816872 20.63381577 C-1068.91065287 20.63315085 -1070.5831383 20.63395964 -1072.25562096 20.63629532 C-1074.59321813 20.63884511 -1076.93072041 20.63494913 -1079.26831055 20.62939453 C-1079.95260635 20.63141876 -1080.63690216 20.63344299 -1081.3419342 20.63552856 C-1085.29543397 20.61819436 -1088.98581528 20.16333599 -1092.875 19.5 C-1095.21012959 19.82050798 -1097.54322025 20.15596692 -1099.875 20.5 C-1104.5099536 20.6301547 -1109.14558862 20.52324478 -1113.78125 20.4609375 C-1117.70170516 20.42862606 -1121.39637591 20.4252665 -1125.27734375 21.03125 C-1130.68778565 21.73619357 -1136.0008198 21.28478944 -1141.4375 21 C-1152.00332478 20.51914891 -1162.3850933 20.5984394 -1172.9375 21.24609375 C-1180.36342494 21.68207419 -1187.53677554 21.78418928 -1194.875 20.5 C-1196.36 20.995 -1196.36 20.995 -1197.875 21.5 C-1199.83276367 21.50585938 -1199.83276367 21.50585938 -1202.04296875 21.34375 C-1203.26016602 21.26447266 -1203.26016602 21.26447266 -1204.50195312 21.18359375 C-1206.1895536 21.06259112 -1207.87705713 20.94022766 -1209.56445312 20.81640625 C-1214.85842079 20.47432166 -1219.62721838 20.729581 -1224.875 21.5 C-1226.3942683 21.58058521 -1227.91610695 21.63077379 -1229.4375 21.625 C-1230.46037109 21.62886719 -1230.46037109 21.62886719 -1231.50390625 21.6328125 C-1233.875 21.5 -1233.875 21.5 -1236.92602539 21 C-1241.46107679 20.4257938 -1245.86499041 20.35637208 -1250.4296875 20.3671875 C-1251.33067169 20.36623077 -1252.23165588 20.36527405 -1253.15994263 20.36428833 C-1255.05763825 20.36361075 -1256.95533624 20.36543547 -1258.85302734 20.36962891 C-1261.73410336 20.37497053 -1264.61502261 20.36967598 -1267.49609375 20.36328125 C-1269.34895867 20.36394235 -1271.2018235 20.36522417 -1273.0546875 20.3671875 C-1273.90497528 20.36516327 -1274.75526306 20.36313904 -1275.63131714 20.36105347 C-1276.85771408 20.36578171 -1276.85771408 20.36578171 -1278.10888672 20.37060547 C-1278.81391327 20.37140106 -1279.51893982 20.37219666 -1280.24533081 20.37301636 C-1282.53013399 20.48334682 -1284.73412472 20.71872307 -1287.0020752 21 C-1292.21208584 21.59935733 -1297.36827182 21.64047531 -1302.60791016 21.62939453 C-1303.6416124 21.63114685 -1304.67531464 21.63289917 -1305.74034119 21.63470459 C-1309.13159908 21.63907892 -1312.52280415 21.63620116 -1315.9140625 21.6328125 C-1318.2833965 21.63348671 -1320.65273044 21.63445771 -1323.02206421 21.63571167 C-1327.97630474 21.63718257 -1332.9305272 21.63505324 -1337.88476562 21.63037109 C-1344.22758736 21.62466794 -1350.57036683 21.62796039 -1356.91318703 21.63394356 C-1361.801405 21.63756025 -1366.68961299 21.63640558 -1371.57783127 21.63381577 C-1373.91655863 21.63314989 -1376.25528692 21.63396304 -1378.59401321 21.63629532 C-1381.86299284 21.63884069 -1385.13190434 21.63495491 -1388.40087891 21.62939453 C-1389.36210159 21.63141876 -1390.32332428 21.63344299 -1391.31367493 21.63552856 C-1395.12887673 21.62353411 -1398.69058341 21.52929339 -1402.46713257 20.92941284 C-1406.01715898 20.48208707 -1408.89909263 20.77345533 -1412.41723251 21.23556519 C-1417.01694253 21.73045474 -1421.62933955 21.62100228 -1426.25048828 21.59765625 C-1427.90345413 21.59546585 -1427.90345413 21.59546585 -1429.58981323 21.5932312 C-1431.96819639 21.58944311 -1434.34657678 21.58334565 -1436.72494888 21.57516479 C-1440.49135147 21.56234327 -1444.25771863 21.55587099 -1448.0241394 21.55102539 C-1456.01610901 21.53962722 -1464.00804992 21.52042874 -1472 21.5 C-1481.27085053 21.47631709 -1490.54168188 21.45600036 -1499.81255722 21.44406128 C-1503.51895141 21.43758968 -1507.22529394 21.4250837 -1510.93167114 21.41235352 C-1513.2072139 21.40872043 -1515.48275713 21.40536877 -1517.75830078 21.40234375 C-1519.29831757 21.39459427 -1519.29831757 21.39459427 -1520.8694458 21.38668823 C-1525.98431601 21.38631099 -1530.83492622 21.6126233 -1535.875 22.5 C-1536.2373444 25.26998822 -1536.59017517 28.04062381 -1536.9375 30.8125 C-1537.04126953 31.59818359 -1537.14503906 32.38386719 -1537.25195312 33.19335938 C-1537.34541016 33.95068359 -1537.43886719 34.70800781 -1537.53515625 35.48828125 C-1537.62418213 36.18477783 -1537.71320801 36.88127441 -1537.80493164 37.59887695 C-1537.99467781 39.72589064 -1537.99467781 39.72589064 -1536.875 42.5 C-1536.61282679 46.98007742 -1536.65186933 51.33972051 -1537.5 55.75 C-1538.10473624 58.527385 -1538.10473624 58.527385 -1536.87109375 61.08984375 C-1535.57716912 65.51963276 -1535.94046108 69.25677813 -1536.3125 73.8125 C-1536.82407426 81.33041735 -1536.83774096 88.61046531 -1536.19311523 96.1184082 C-1535.9132004 99.53438247 -1536.00535829 102.21019261 -1536.875 105.5 C-1536.78678349 107.50336847 -1536.6318098 109.50412649 -1536.4375 111.5 C-1535.93569253 117.6976481 -1535.75850333 123.84486227 -1535.75 130.0625 C-1535.74556885 130.91908203 -1535.7411377 131.77566406 -1535.73657227 132.65820312 C-1535.74592318 136.77260565 -1536.02264881 140.4629548 -1536.875 144.5 C-1536.545 145.16 -1536.215 145.82 -1535.875 146.5 C-1535.72381914 149.75038852 -1535.90175734 152.66054406 -1536.4375 155.875 C-1536.84646633 159.26357814 -1536.64018948 162.0844819 -1536.13671875 165.4453125 C-1535.56833279 169.90756648 -1535.44175345 174.20026035 -1536.875 178.5 C-1537.16754875 185.98803947 -1536.87834889 193.49236426 -1536.51928711 200.97393799 C-1535.81925644 215.88275522 -1535.79235159 230.7808263 -1535.8125 245.703125 C-1535.81394012 246.83159348 -1535.81538025 247.96006195 -1535.81686401 249.12272644 C-1535.82916067 257.33183846 -1535.85122906 265.5409144 -1535.875 273.75 C-1535.89873141 282.03477473 -1535.91900425 290.3195312 -1535.93093872 298.60433197 C-1535.93737248 301.88804226 -1535.94986142 305.17169253 -1535.96264648 308.4553833 C-1535.96627833 310.46667429 -1535.96963015 312.47796582 -1535.97265625 314.48925781 C-1535.97782257 315.38898315 -1535.98298889 316.2887085 -1535.98831177 317.21569824 C-1535.98864284 321.18697512 -1535.86269338 325.0146073 -1535.30639648 328.94989014 C-1534.85239496 332.68602464 -1535.352343 334.16918782 -1536.875 337.5 C-1536.38 338.985 -1536.38 338.985 -1535.875 340.5 C-1535.53418442 343.44846858 -1535.41017581 346.41174746 -1535.25 349.375 C-1535.1984375 350.17808594 -1535.146875 350.98117187 -1535.09375 351.80859375 C-1534.8613122 355.95829205 -1535.05858942 359.41794711 -1535.875 363.5 C-1535.64586914 364.78861938 -1535.64586914 364.78861938 -1535.41210938 366.10327148 C-1534.77103419 370.15748921 -1534.73153335 374.05603347 -1534.7421875 378.15234375 C-1534.74123077 378.97070206 -1534.74027405 379.78906036 -1534.73928833 380.63221741 C-1534.73861053 382.35596799 -1534.74043684 384.07972118 -1534.74462891 385.8034668 C-1534.74997589 388.42567753 -1534.74467387 391.04771646 -1534.73828125 393.66992188 C-1534.73894224 395.35156287 -1534.74022382 397.03320377 -1534.7421875 398.71484375 C-1534.74016327 399.49109604 -1534.73813904 400.26734833 -1534.73605347 401.06712341 C-1534.73920563 401.80801712 -1534.74235779 402.54891083 -1534.74560547 403.31225586 C-1534.74640106 403.95368027 -1534.74719666 404.59510468 -1534.74801636 405.25596619 C-1534.875 407.5 -1534.875 407.5 -1535.40991211 410.64492798 C-1535.97233972 415.30684025 -1535.73581228 419.69485105 -1535.44580078 424.36889648 C-1534.783233 436.78297526 -1534.72927721 449.16866017 -1534.7421875 461.59765625 C-1534.74151139 463.93403636 -1534.74053883 466.27041639 -1534.73928833 468.60679626 C-1534.7378284 473.45816734 -1534.73991207 478.30951979 -1534.74462891 483.16088867 C-1534.75035407 489.34692632 -1534.74701877 495.53292083 -1534.74105644 501.71895695 C-1534.73742895 506.52589743 -1534.73859896 511.3328278 -1534.74118423 516.1397686 C-1534.74184596 518.42050621 -1534.74105179 520.70124478 -1534.73870468 522.98198128 C-1534.72134752 544.55799683 -1534.72134752 544.55799683 -1535.75857544 554.39891052 C-1535.79699554 555.09227005 -1535.83541565 555.78562958 -1535.875 556.5 C-1535.545 556.83 -1535.215 557.16 -1534.875 557.5 C-1533.78626237 564.04776009 -1533.72445059 570.49918528 -1533.75 577.125 C-1533.74613281 578.135625 -1533.74226563 579.14625 -1533.73828125 580.1875 C-1533.7447368 585.10662797 -1534.06025776 589.6457794 -1534.875 594.5 C-1534.78898485 597.08322912 -1534.64682714 599.61546454 -1534.4375 602.1875 C-1533.98615367 608.73093164 -1533.73243891 615.2533177 -1533.6875 621.8125 C-1533.67468994 622.61840576 -1533.66187988 623.42431152 -1533.64868164 624.25463867 C-1533.64142377 628.26994995 -1533.91422557 631.01333107 -1535.875 634.5 C-1536.41089957 639.5752842 -1536.30000566 644.60236231 -1534.8125 649.5 C-1533.59095587 653.67360912 -1534.13558163 657.28788151 -1534.65234375 661.55859375 C-1534.9673977 665.72062224 -1534.48589433 669.71759393 -1534.06640625 673.859375 C-1533.8455857 676.90579726 -1534.30180133 679.50662915 -1534.875 682.5 C-1534.96708801 686.16817221 -1534.9337496 689.83141357 -1534.875 693.5 C-1531.14636674 694.36957222 -1527.73457597 694.60579191 -1523.91015625 694.5625 C-1522.78029297 694.55476562 -1521.65042969 694.54703125 -1520.48632812 694.5390625 C-1518.12434848 694.51306382 -1515.76236932 694.4870223 -1513.40039062 694.4609375 C-1512.26923828 694.45320312 -1511.13808594 694.44546875 -1509.97265625 694.4375 C-1508.43363647 694.42009766 -1508.43363647 694.42009766 -1506.86352539 694.40234375 C-1503.78664487 694.50288719 -1500.90333256 694.96816803 -1497.875 695.5 C-1495.2679271 695.4116526 -1495.2679271 695.4116526 -1492.6875 695.0625 C-1477.8748586 693.5000707 -1477.8748586 693.5000707 -1473.875 695.5 C-1471.95769814 695.59753983 -1470.03696777 695.63077111 -1468.1171875 695.6328125 C-1466.34021484 695.63474609 -1466.34021484 695.63474609 -1464.52734375 695.63671875 C-1462.65755859 695.63091797 -1462.65755859 695.63091797 -1460.75 695.625 C-1459.55761719 695.62886719 -1458.36523438 695.63273438 -1457.13671875 695.63671875 C-1450.92061507 695.63005626 -1444.79295457 695.45497609 -1438.59326172 694.99560547 C-1430.17683763 694.42781885 -1421.78938066 694.38301481 -1413.35681915 694.42483521 C-1410.67404897 694.43794759 -1407.99133007 694.44420315 -1405.30853271 694.44897461 C-1398.63254137 694.4621453 -1391.95659812 694.48602267 -1385.28063965 694.51037598 C-1378.73397481 694.53385086 -1372.18732492 694.55237597 -1365.640625 694.5625 C-1364.70543093 694.56397915 -1363.77023685 694.5654583 -1362.80670357 694.56698227 C-1350.94720127 694.57875176 -1339.11369038 694.41509343 -1327.26171875 694.0078125 C-1300.89200827 693.11336152 -1274.49211841 693.3498993 -1248.11041558 693.37143159 C-1242.11701287 693.37580149 -1236.12363096 693.3726478 -1230.13022953 693.3678025 C-1224.28233763 693.36326696 -1218.43445472 693.36262062 -1212.58656162 693.36524117 C-1209.12222768 693.3667914 -1205.65790791 693.36703073 -1202.19357491 693.36370468 C-1198.36674948 693.36028176 -1194.53995817 693.36502247 -1190.71313477 693.37060547 C-1189.01556786 693.36756912 -1189.01556786 693.36756912 -1187.28370667 693.36447144 C-1186.24343323 693.36729126 -1185.20315979 693.37011108 -1184.13136292 693.37301636 C-1182.78147703 693.3735819 -1182.78147703 693.3735819 -1181.40432072 693.37415886 C-1178.875 693.5 -1178.875 693.5 -1176.26132107 694.03918648 C-1173.47661029 694.57693154 -1171.17846697 694.11377612 -1168.40234375 693.6875 C-1163.86745684 693.35106326 -1159.36857577 693.91816417 -1154.8515625 694.34375 C-1151.94716508 694.74170158 -1151.94716508 694.74170158 -1149.875 693.5 C-1147.95838194 693.40831296 -1146.03849568 693.38249133 -1144.11968994 693.38647461 C-1142.27951294 693.38658035 -1142.27951294 693.38658035 -1140.40216064 693.38668823 C-1139.0340573 693.39182369 -1137.66595428 693.39704513 -1136.29785156 693.40234375 C-1134.86169486 693.4042627 -1133.42553749 693.40572661 -1131.98937988 693.4067688 C-1128.884654 693.40993906 -1125.77995507 693.41622374 -1122.67523956 693.42483521 C-1117.7247183 693.43840679 -1112.77420597 693.44426583 -1107.82366943 693.44897461 C-1096.3724847 693.46102867 -1084.92132219 693.48276004 -1073.47015381 693.50520325 C-1063.06744857 693.52557785 -1052.66475266 693.54365655 -1042.26203132 693.55341816 C-1038.16847098 693.55749982 -1034.0749385 693.56360733 -1029.98139191 693.57516479 C-1010.99144558 693.6282817 -992.03276057 693.45647111 -973.05221939 692.80860901 C-959.23132582 692.35809606 -945.49247106 692.78922061 -931.68530273 693.50585938 C-928.93204486 693.50011894 -926.55763032 693.07169865 -923.875 692.5 C-921.56492086 692.91533957 -919.40421442 693.55380768 -917.15625 694.22265625 C-914.82693247 694.70242149 -914.82693247 694.70242149 -912.66796875 693.53125 C-908.60069351 692.02948683 -904.95723229 692.59081932 -900.6875 692.9375 C-893.03325467 693.45547762 -885.60927956 693.46161883 -877.96411133 692.81811523 C-874.42549123 692.54187537 -871.17929536 692.51055127 -867.65625 693 C-864.50446824 693.41676453 -862.21522271 693.49624014 -859.125 693 C-856.8570693 692.64104694 -855.27512982 692.39118525 -853.05078125 692.99609375 C-849.89883353 693.72607805 -847.0285416 693.33188921 -843.8125 693.0625 C-833.31935935 692.26727823 -823.15245701 692.54004544 -812.671875 693.37890625 C-808.96998575 693.6131248 -808.96998575 693.6131248 -805.72558594 693.01586914 C-801.27118229 692.41910558 -796.95579575 692.35635833 -792.46875 692.3671875 C-791.58521851 692.36623077 -790.70168701 692.36527405 -789.79138184 692.36428833 C-787.93237232 692.363611 -786.07336038 692.36543396 -784.21435547 692.36962891 C-781.38373455 692.37498348 -778.55327229 692.36966868 -775.72265625 692.36328125 C-773.90885382 692.36394211 -772.09505149 692.36522344 -770.28125 692.3671875 C-769.44251343 692.36516327 -768.60377686 692.36313904 -767.73962402 692.36105347 C-764.09466959 692.37545622 -760.71585254 692.52406148 -757.09960938 693.07080078 C-753.93473995 693.49204854 -751.94349206 693.19226443 -748.875 692.5 C-746.4440918 692.61669922 -746.4440918 692.61669922 -743.88671875 692.9296875 C-737.47620082 693.59814385 -731.1280872 693.64740204 -724.6875 693.625 C-723.56408203 693.62886719 -722.44066406 693.63273438 -721.28320312 693.63671875 C-715.36927773 693.62977345 -709.72790517 693.30383247 -703.875 692.5 C-691.76244953 692.0528483 -691.76244953 692.0528483 -685.875 693.0625 C-682.56626801 693.54502342 -680.16102519 693.05412367 -676.875 692.5 C-674.94695164 692.41404208 -673.01646546 692.37375981 -671.08650208 692.37301636 C-669.95509293 692.37019653 -668.82368378 692.36737671 -667.6579895 692.36447144 C-666.43127533 692.36649567 -665.20456116 692.3685199 -663.94067383 692.37060547 C-662.63763809 692.36885315 -661.33460236 692.36710083 -659.99208069 692.36529541 C-656.43035516 692.36074941 -652.8686587 692.36249861 -649.30693269 692.3656745 C-645.57674727 692.36821114 -641.8465643 692.36585707 -638.11637878 692.36428833 C-631.85630853 692.36247113 -625.5962501 692.36486188 -619.33618164 692.36962891 C-612.09704005 692.3750778 -604.8579266 692.37330252 -597.61878568 692.3678025 C-591.40040782 692.36326709 -585.18203844 692.36262271 -578.96365947 692.36524117 C-575.2507857 692.36680066 -571.53792518 692.36700651 -567.82505226 692.36370468 C-563.69039868 692.36028422 -559.5557938 692.36502268 -555.42114258 692.37060547 C-554.18835571 692.36858124 -552.95556885 692.36655701 -551.6854248 692.36447144 C-550.56247513 692.36729126 -549.43952545 692.37011108 -548.282547 692.37301636 C-547.30494321 692.37339338 -546.32733942 692.37377041 -545.32011127 692.37415886 C-542.875 692.5 -542.875 692.5 -539.875 693.5 C-537.86731179 693.26017423 -535.85989467 693.01793704 -533.85360718 692.7666626 C-527.0541648 692.15793615 -520.18555064 692.35761989 -513.36328125 692.3671875 C-511.664159 692.3665128 -509.96503684 692.36554139 -508.26591492 692.36428833 C-504.71982903 692.36282038 -501.17376847 692.36493756 -497.62768555 692.36962891 C-493.09181623 692.37533876 -488.55600592 692.37203352 -484.02013874 692.36605644 C-480.51736509 692.36243756 -477.01460536 692.3635953 -473.51183128 692.36618423 C-471.83934713 692.36684915 -470.1668617 692.36604036 -468.49437904 692.36370468 C-466.15678187 692.36115489 -463.81927959 692.36505087 -461.48168945 692.37060547 C-460.79739365 692.36858124 -460.11309784 692.36655701 -459.4080658 692.36447144 C-455.45456603 692.38180564 -451.76418472 692.83666401 -447.875 693.5 C-445.53987041 693.17949202 -443.20677975 692.84403308 -440.875 692.5 C-436.2400464 692.3698453 -431.60441138 692.47675522 -426.96875 692.5390625 C-423.04829484 692.57137394 -419.35362409 692.5747335 -415.47265625 691.96875 C-410.06221435 691.26380643 -404.7491802 691.71521056 -399.3125 692 C-388.74667522 692.48085109 -378.3649067 692.4015606 -367.8125 691.75390625 C-360.38657506 691.31792581 -353.21322446 691.21581072 -345.875 692.5 C-344.885 692.17 -343.895 691.84 -342.875 691.5 C-340.91723633 691.49414062 -340.91723633 691.49414062 -338.70703125 691.65625 C-337.89556641 691.70910156 -337.08410156 691.76195312 -336.24804688 691.81640625 C-334.5604464 691.93740888 -332.87294287 692.05977234 -331.18554688 692.18359375 C-325.89157921 692.52567834 -321.12278162 692.270419 -315.875 691.5 C-314.3557317 691.41941479 -312.83389305 691.36922621 -311.3125 691.375 C-310.63058594 691.37242187 -309.94867187 691.36984375 -309.24609375 691.3671875 C-306.875 691.5 -306.875 691.5 -303.82397461 692 C-299.28892321 692.5742062 -294.88500959 692.64362792 -290.3203125 692.6328125 C-289.41932831 692.63376923 -288.51834412 692.63472595 -287.59005737 692.63571167 C-285.69236175 692.63638925 -283.79466376 692.63456453 -281.89697266 692.63037109 C-279.01589664 692.62502947 -276.13497739 692.63032402 -273.25390625 692.63671875 C-271.40104133 692.63605765 -269.5481765 692.63477583 -267.6953125 692.6328125 C-266.84502472 692.63483673 -265.99473694 692.63686096 -265.11868286 692.63894653 C-264.3010849 692.63579437 -263.48348694 692.63264221 -262.64111328 692.62939453 C-261.58357346 692.62820114 -261.58357346 692.62820114 -260.50466919 692.62698364 C-258.21986601 692.51665318 -256.01587528 692.28127693 -253.7479248 692 C-248.53791416 691.40064267 -243.38172818 691.35952469 -238.14208984 691.37060547 C-237.1083876 691.36885315 -236.07468536 691.36710083 -235.00965881 691.36529541 C-231.61840092 691.36092108 -228.22719585 691.36379884 -224.8359375 691.3671875 C-222.4666035 691.36651329 -220.09726956 691.36554229 -217.72793579 691.36428833 C-212.77369526 691.36281743 -207.8194728 691.36494676 -202.86523438 691.36962891 C-196.52241264 691.37533206 -190.17963317 691.37203961 -183.83681297 691.36605644 C-178.948595 691.36243975 -174.06038701 691.36359442 -169.17216873 691.36618423 C-166.83344137 691.36685011 -164.49471308 691.36603696 -162.15598679 691.36370468 C-158.88700716 691.36115931 -155.61809566 691.36504509 -152.34912109 691.37060547 C-150.90728706 691.36756912 -150.90728706 691.36756912 -149.43632507 691.36447144 C-145.62112327 691.37646589 -142.05941659 691.47070661 -138.28286743 692.07058716 C-134.73284102 692.51791293 -131.85090737 692.22654467 -128.33276749 691.76443481 C-123.73305747 691.26954526 -119.12066045 691.37899772 -114.49951172 691.40234375 C-113.39753448 691.40380402 -112.29555725 691.40526428 -111.16018677 691.4067688 C-108.78180361 691.41055689 -106.40342322 691.41665435 -104.02505112 691.42483521 C-100.25864853 691.43765673 -96.49228137 691.44412901 -92.7258606 691.44897461 C-84.73389099 691.46037278 -76.74195008 691.47957126 -68.75 691.5 C-59.47914947 691.52368291 -50.20831812 691.54399964 -40.93744278 691.55593872 C-37.23104859 691.56241032 -33.52470606 691.5749163 -29.81832886 691.58764648 C-27.5427861 691.59127957 -25.26724287 691.59463123 -22.99169922 691.59765625 C-21.96502136 691.60282257 -20.93834351 691.60798889 -19.8805542 691.61331177 C-14.76568399 691.61368901 -9.91507378 691.3873767 -4.875 690.5 C-4.5126556 687.73001178 -4.15982483 684.95937619 -3.8125 682.1875 C-3.6568457 681.00897461 -3.6568457 681.00897461 -3.49804688 679.80664062 C-3.40458984 679.04931641 -3.31113281 678.29199219 -3.21484375 677.51171875 C-3.12581787 676.81522217 -3.03679199 676.11872559 -2.94506836 675.40112305 C-2.75532219 673.27410936 -2.75532219 673.27410936 -3.875 670.5 C-4.13717321 666.01992258 -4.09813067 661.66027949 -3.25 657.25 C-2.64526376 654.472615 -2.64526376 654.472615 -3.87890625 651.91015625 C-5.17283088 647.48036724 -4.80953892 643.74322187 -4.4375 639.1875 C-3.92592574 631.66958265 -3.91225904 624.38953469 -4.55688477 616.8815918 C-4.8367996 613.46561753 -4.74464171 610.78980739 -3.875 607.5 C-3.96321651 605.49663153 -4.1181902 603.49587351 -4.3125 601.5 C-4.81430747 595.3023519 -4.99149667 589.15513773 -5 582.9375 C-5.00443115 582.08091797 -5.0088623 581.22433594 -5.01342773 580.34179688 C-5.00407682 576.22739435 -4.72735119 572.5370452 -3.875 568.5 C-4.205 567.84 -4.535 567.18 -4.875 566.5 C-5.02618086 563.24961148 -4.84824266 560.33945594 -4.3125 557.125 C-3.90353367 553.73642186 -4.10981052 550.9155181 -4.61328125 547.5546875 C-5.18166721 543.09243352 -5.30824655 538.79973965 -3.875 534.5 C-3.58245125 527.01196053 -3.87165111 519.50763574 -4.23071289 512.02606201 C-4.93074356 497.11724478 -4.95764841 482.2191737 -4.9375 467.296875 C-4.93605988 466.16840652 -4.93461975 465.03993805 -4.93313599 463.87727356 C-4.92083933 455.66816154 -4.89877094 447.4590856 -4.875 439.25 C-4.85126859 430.96522527 -4.83099575 422.6804688 -4.81906128 414.39566803 C-4.81262752 411.11195774 -4.80013858 407.82830747 -4.78735352 404.5446167 C-4.78372167 402.53332571 -4.78036985 400.52203418 -4.77734375 398.51074219 C-4.77217743 397.61101685 -4.76701111 396.7112915 -4.76168823 395.78430176 C-4.76135716 391.81302488 -4.88730662 387.9853927 -5.44360352 384.05010986 C-5.89760504 380.31397536 -5.397657 378.83081218 -3.875 375.5 C-4.205 374.51 -4.535 373.52 -4.875 372.5 C-5.21581558 369.55153142 -5.33982419 366.58825254 -5.5 363.625 C-5.5515625 362.82191406 -5.603125 362.01882813 -5.65625 361.19140625 C-5.8886878 357.04170795 -5.69141058 353.58205289 -4.875 349.5 C-5.02775391 348.64092041 -5.18050781 347.78184082 -5.33789062 346.89672852 C-5.97896581 342.84251079 -6.01846665 338.94396653 -6.0078125 334.84765625 C-6.00876923 334.02929794 -6.00972595 333.21093964 -6.01071167 332.36778259 C-6.01138947 330.64403201 -6.00956316 328.92027882 -6.00537109 327.1965332 C-6.00002411 324.57432247 -6.00532613 321.95228354 -6.01171875 319.33007812 C-6.01105776 317.64843713 -6.00977618 315.96679623 -6.0078125 314.28515625 C-6.01084885 313.12077782 -6.01084885 313.12077782 -6.01394653 311.93287659 C-6.01079437 311.19198288 -6.00764221 310.45108917 -6.00439453 309.68774414 C-6.00320114 308.72560753 -6.00320114 308.72560753 -6.00198364 307.74403381 C-5.875 305.5 -5.875 305.5 -5.34008789 302.35411072 C-4.77813428 297.69728891 -5.01420364 293.31537929 -5.30419922 288.64648438 C-5.97174772 276.14555638 -6.02068968 263.67219361 -6.0078125 251.15625 C-6.0084883 248.80310048 -6.00946061 246.44995104 -6.01071167 244.09680176 C-6.01217103 239.21605755 -6.01008846 234.33533187 -6.00537109 229.45458984 C-5.99962376 223.20508635 -6.00299524 216.95562535 -6.00894356 210.70612335 C-6.01255391 205.86944253 -6.01140926 201.03277183 -6.00881577 196.1960907 C-6.00815043 193.89002986 -6.00896113 191.58396808 -6.01129532 189.27790833 C-6.01383514 186.07001285 -6.0099647 182.86218715 -6.00439453 179.65429688 C-6.00743088 178.23770531 -6.00743088 178.23770531 -6.01052856 176.79249573 C-5.99587964 172.23770133 -5.75905696 167.98692361 -4.875 163.5 C-4.78818138 161.64994429 -4.74445048 159.7974028 -4.7421875 157.9453125 C-4.74089844 156.91792969 -4.73960938 155.89054688 -4.73828125 154.83203125 C-4.74408203 153.24455078 -4.74408203 153.24455078 -4.75 151.625 C-4.74419922 150.04912109 -4.74419922 150.04912109 -4.73828125 148.44140625 C-4.7465957 141.79815943 -5.26201382 135.52465676 -6.26171875 128.9609375 C-6.36097656 128.27257812 -6.46023438 127.58421875 -6.5625 126.875 C-6.66949219 126.18148437 -6.77648438 125.48796875 -6.88671875 124.7734375 C-6.875 122.5 -6.875 122.5 -5.88427734 120.05566406 C-4.48055363 115.11037326 -4.64790991 110.44960305 -4.71484375 105.3359375 C-4.72004532 104.26630768 -4.72524689 103.19667786 -4.73060608 102.09463501 C-4.74837044 98.68794976 -4.77954096 95.28156946 -4.8125 91.875 C-4.84013822 88.46131962 -4.86484187 85.04768222 -4.88368225 81.63394165 C-4.89591742 79.51262564 -4.91349953 77.39133225 -4.93699646 75.27011108 C-4.94352737 74.30876251 -4.95005829 73.34741394 -4.95678711 72.35693359 C-4.96504013 71.51343353 -4.97329315 70.66993347 -4.98179626 69.8008728 C-4.875 67.5 -4.875 67.5 -4.30738831 65.32144165 C-3.64938772 63.41646908 -3.64938772 63.41646908 -4.875 61.5 C-4.96211775 58.43757679 -4.9904846 55.39813535 -4.97265625 52.3359375 C-4.9712413 51.42872955 -4.96982635 50.52152161 -4.96836853 49.58682251 C-4.96276096 46.68284845 -4.95020718 43.77895085 -4.9375 40.875 C-4.93248598 38.90885528 -4.9279229 36.94270935 -4.92382812 34.9765625 C-4.91278906 30.1510121 -4.89551935 25.32551903 -4.875 20.5 C-6.30549683 20.50785522 -6.30549683 20.50785522 -7.76489258 20.51586914 C-11.30394553 20.53397265 -14.84299438 20.54545161 -18.38208008 20.55493164 C-19.9136626 20.5599596 -21.44524033 20.56678284 -22.97680664 20.57543945 C-25.17856022 20.58757229 -27.38025033 20.59324367 -29.58203125 20.59765625 C-30.26650833 20.60281754 -30.95098541 20.60797882 -31.65620422 20.61329651 C-34.68406242 20.6136536 -36.97650142 20.46616619 -39.875 19.5 C-42.21211197 19.80571752 -44.54525871 20.14242335 -46.875 20.5 C-49.0435135 20.58736796 -51.21417495 20.63038977 -53.38444519 20.63371277 C-54.65041031 20.63797775 -55.91637543 20.64224274 -57.22070312 20.64663696 C-58.60571292 20.64628753 -59.99072269 20.64582605 -61.37573242 20.64526367 C-62.84808944 20.64825884 -64.32044568 20.6516622 -65.7928009 20.65544128 C-69.77600323 20.66424452 -73.75918405 20.66661772 -77.74239516 20.66725707 C-80.23182825 20.66796914 -82.7212559 20.67010633 -85.21068764 20.67275429 C-93.8972165 20.6819923 -102.58373006 20.68609071 -111.27026367 20.68530273 C-119.36659255 20.68470088 -127.46285503 20.69527777 -135.55916709 20.7110464 C-142.51557961 20.72411214 -149.47197039 20.72948711 -156.42839509 20.72884732 C-160.58116992 20.72859225 -164.73388558 20.73144931 -168.88664818 20.74202538 C-172.78793824 20.75169124 -176.68911232 20.751796 -180.59040642 20.74450874 C-182.02229735 20.74346133 -183.45419546 20.74583504 -184.88607407 20.7518692 C-186.83953673 20.75956897 -188.79303877 20.75375407 -190.74650574 20.74723816 C-192.38656476 20.74805531 -192.38656476 20.74805531 -194.05975628 20.74888897 C-196.875 20.5 -196.875 20.5 -198.86460114 19.4833746 C-201.72162374 18.08587906 -204.00742014 18.37345616 -207.1698761 18.51876831 C-208.43978236 18.56972719 -209.70968863 18.62068607 -211.0180769 18.67318916 C-211.69429132 18.7048254 -212.37050574 18.73646164 -213.06721151 18.76905656 C-216.69640877 18.93701849 -220.32701449 19.06626963 -223.95767212 19.19818115 C-224.70428461 19.22596606 -225.45089709 19.25375097 -226.2201342 19.28237784 C-238.14346761 19.71001638 -250.0743903 19.64602811 -262.00380111 19.6343255 C-265.51802237 19.63171805 -269.0322416 19.63416053 -272.54646301 19.63571167 C-278.40736374 19.63750327 -284.26825163 19.63520117 -290.12915039 19.63037109 C-296.88823579 19.62486494 -303.64729131 19.62674846 -310.40637606 19.6321975 C-316.27117232 19.63673377 -322.1359596 19.63737871 -328.00075704 19.63475883 C-331.47856439 19.63320767 -334.95635763 19.63297167 -338.43416405 19.63629532 C-342.28058423 19.63971925 -346.1269705 19.63497626 -349.97338867 19.62939453 C-351.11138412 19.63141876 -352.24937958 19.63344299 -353.42185974 19.63552856 C-354.46791382 19.63270874 -355.5139679 19.62988892 -356.59172058 19.62698364 C-357.49683978 19.62660662 -358.40195898 19.62622959 -359.33450603 19.62584114 C-361.875 19.5 -361.875 19.5 -364.49036121 18.96081352 C-367.27433828 18.42283088 -369.57221676 18.88632887 -372.34765625 19.3125 C-376.88254316 19.64893674 -381.38142423 19.08183583 -385.8984375 18.65625 C-388.80283492 18.25829842 -388.80283492 18.25829842 -390.875 19.5 C-392.79161806 19.59168704 -394.71150432 19.61750867 -396.63031006 19.61352539 C-398.47048706 19.61341965 -398.47048706 19.61341965 -400.34783936 19.61331177 C-401.7159427 19.60817631 -403.08404572 19.60295487 -404.45214844 19.59765625 C-405.88830514 19.5957373 -407.32446251 19.59427339 -408.76062012 19.5932312 C-411.865346 19.59006094 -414.97004493 19.58377626 -418.07476044 19.57516479 C-423.0252817 19.56159321 -427.97579403 19.55573417 -432.92633057 19.55102539 C-444.3775153 19.53897133 -455.82867781 19.51723996 -467.27984619 19.49479675 C-477.68255143 19.47442215 -488.08524734 19.45634345 -498.48796868 19.44658184 C-502.58152902 19.44250018 -506.6750615 19.43639267 -510.76860809 19.42483521 C-529.75855442 19.3717183 -548.71723943 19.54352889 -567.69778061 20.19139099 C-581.51867418 20.64190394 -595.25752894 20.21077939 -609.06469727 19.49414062 C-611.81795514 19.49988106 -614.19236968 19.92830135 -616.875 20.5 C-619.18507914 20.08466043 -621.34578558 19.44619232 -623.59375 18.77734375 C-625.92306753 18.29757851 -625.92306753 18.29757851 -628.08203125 19.46875 Z " fill="#000000" transform="translate(1571.875,0.5)"/>
</svg>
