<?xml version="1.0" encoding="UTF-8"?>
<!DOCTYPE svg PUBLIC "-//W3C//DTD SVG 1.1//EN" "http://www.w3.org/Graphics/SVG/1.1/DTD/svg11.dtd">
<svg xmlns="http://www.w3.org/2000/svg" version="1.1" width="1947px" height="1223px" style="shape-rendering:geometricPrecision; text-rendering:geometricPrecision; image-rendering:optimizeQuality; fill-rule:evenodd; clip-rule:evenodd" xmlns:xlink="http://www.w3.org/1999/xlink">
<g><path style="opacity:1" fill="#000000" d="M 1775.5,-0.5 C 1776.83,-0.5 1778.17,-0.5 1779.5,-0.5C 1781.81,0.977392 1783.64,2.97739 1785,5.5C 1785.42,19.1534 1784.58,32.9867 1782.5,47C 1783.33,49.712 1783,52.3787 1781.5,55C 1782.03,58.1634 1782.36,61.3301 1782.5,64.5C 1780.83,73.0535 1780,81.7202 1780,90.5C 1778.92,92.0672 1778.09,93.7338 1777.5,95.5C 1778.26,99.4822 1778.93,103.482 1779.5,107.5C 1779.41,109.689 1778.74,111.689 1777.5,113.5C 1778.36,117.169 1778.69,121.002 1778.5,125C 1777.41,134.404 1776.08,143.738 1774.5,153C 1775.82,156.921 1775.49,160.754 1773.5,164.5C 1774.26,170.363 1774.59,176.196 1774.5,182C 1772.14,191.148 1771.31,200.314 1772,209.5C 1800.29,206.001 1828.62,201.668 1857,196.5C 1862.89,197.115 1868.73,196.282 1874.5,194C 1896.31,192.056 1917.64,188.223 1938.5,182.5C 1941.7,182.892 1944.37,184.226 1946.5,186.5C 1946.5,186.833 1946.5,187.167 1946.5,187.5C 1883.31,244.507 1820.48,302.174 1758,360.5C 1757.15,364.084 1757.65,367.417 1759.5,370.5C 1758.26,374.49 1758.26,378.49 1759.5,382.5C 1759.02,386.216 1758.35,389.882 1757.5,393.5C 1758.59,395.183 1759.26,397.016 1759.5,399C 1759.83,418.022 1759.49,437.022 1758.5,456C 1758.74,457.984 1759.41,459.817 1760.5,461.5C 1759.45,466.045 1759.78,470.545 1761.5,475C 1760.88,479.909 1760.88,484.909 1761.5,490C 1759.39,494.475 1759.06,499.142 1760.5,504C 1759.63,506.955 1758.96,509.955 1758.5,513C 1758.61,532.641 1758.95,552.141 1759.5,571.5C 1759.6,573.926 1758.93,576.093 1757.5,578C 1756.9,585.175 1757.57,592.342 1759.5,599.5C 1759.02,630.814 1759.02,661.981 1759.5,693C 1758.83,697 1758.17,701 1757.5,705C 1756.95,713.043 1757.61,721.043 1759.5,729C 1759.04,734.548 1758.38,740.048 1757.5,745.5C 1757.74,749.379 1758.4,753.379 1759.5,757.5C 1756.84,764.528 1756.84,771.528 1759.5,778.5C 1758.83,788.496 1758.83,798.496 1759.5,808.5C 1759.6,811.999 1758.93,815.332 1757.5,818.5C 1757.37,823.009 1758.04,827.509 1759.5,832C 1759.43,844.172 1759.43,856.339 1759.5,868.5C 1759.1,871.761 1758.43,874.928 1757.5,878C 1758.66,885.236 1759.33,892.569 1759.5,900C 1758.92,905.54 1758.92,910.707 1759.5,915.5C 1758.98,917.383 1758.31,919.216 1757.5,921C 1758.49,924.942 1759.16,928.942 1759.5,933C 1758.23,940.054 1758.23,947.387 1759.5,955C 1759.61,957.7 1759.11,960.2 1758,962.5C 1687.36,962.96 1616.19,962.96 1544.5,962.5C 1524.61,963.137 1504.78,963.804 1485,964.5C 1454.34,964.496 1423.84,964.163 1393.5,963.5C 1390.3,964.127 1387.13,964.794 1384,965.5C 1338.72,965.031 1293.56,964.698 1248.5,964.5C 1231.61,965.131 1214.78,965.798 1198,966.5C 1160.77,966.762 1123.94,966.429 1087.5,965.5C 1084.25,967.885 1081.08,967.885 1078,965.5C 1074.67,966.167 1071.33,966.833 1068,967.5C 1025.25,967.681 983.418,967.348 942.5,966.5C 935.833,967.167 929.167,967.833 922.5,968.5C 880.311,967.62 838.311,967.287 796.5,967.5C 793.687,968.219 790.854,968.886 788,969.5C 774.433,968.459 760.433,968.459 746,969.5C 739.347,968.792 732.68,968.125 726,967.5C 722.459,968.029 718.959,968.696 715.5,969.5C 620.677,969.396 525.511,969.063 430,968.5C 423.581,969.313 417.081,969.813 410.5,970C 406.779,973.943 403.945,978.443 402,983.5C 393.553,993.794 386.053,1004.79 379.5,1016.5C 374.528,1020.32 371.361,1025.32 370,1031.5C 364.582,1037.08 360.248,1043.42 357,1050.5C 354.667,1054.17 351.667,1057.17 348,1059.5C 345.876,1063.3 344.209,1067.3 343,1071.5C 338.419,1075.73 335.086,1080.73 333,1086.5C 321.078,1103.42 309.578,1120.58 298.5,1138C 296.413,1138.79 294.579,1139.96 293,1141.5C 285.667,1109.51 278.334,1077.51 271,1045.5C 269.255,1046.96 267.422,1048.29 265.5,1049.5C 264.531,1052.3 262.698,1054.3 260,1055.5C 259.667,1056.83 259.333,1058.17 259,1059.5C 248.242,1066.6 238.408,1074.76 229.5,1084C 215.92,1093.25 203.253,1103.58 191.5,1115C 189.323,1116.2 186.989,1116.7 184.5,1116.5C 183.874,1119.31 182.54,1121.81 180.5,1124C 170.625,1128.89 162.292,1135.56 155.5,1144C 152.146,1146.03 148.813,1148.03 145.5,1150C 143.411,1152.88 141.077,1155.55 138.5,1158C 133.521,1160.67 128.855,1163.67 124.5,1167C 122.126,1169.04 120.126,1171.37 118.5,1174C 105.852,1183.65 93.519,1193.65 81.5,1204C 78.3823,1205.15 75.3823,1206.48 72.5,1208C 69.9723,1213.87 65.6389,1217.53 59.5,1219C 58.2695,1220.4 56.9361,1221.57 55.5,1222.5C 52.8333,1222.5 50.1667,1222.5 47.5,1222.5C 78.017,1149.78 109.017,1077.28 140.5,1005C 138.503,1004.83 136.503,1003.83 134.5,1002C 130.971,1001.38 127.471,1001.54 124,1002.5C 121.157,1001.2 118.157,1000.2 115,999.5C 97.0982,999.393 79.0982,999.726 61,1000.5C 57.4831,1000.64 54.1497,999.976 51,998.5C 47.6817,999.99 44.1817,1000.66 40.5,1000.5C 30.4806,1000.14 20.314,1000.14 10,1000.5C 5.87026,1000.63 2.37026,999.293 -0.5,996.5C -0.5,995.833 -0.5,995.167 -0.5,994.5C 30.7377,964.761 61.4043,934.594 91.5,904C 113.888,883.615 135.722,862.448 157,840.5C 158.167,838.167 159.333,835.833 160.5,833.5C 159.408,831.817 158.741,829.984 158.5,828C 159.141,806.792 159.141,785.292 158.5,763.5C 158.288,760.989 158.955,758.822 160.5,757C 157.878,752.534 157.878,748.034 160.5,743.5C 159.669,737.042 159.002,730.542 158.5,724C 158.661,701.024 158.661,678.19 158.5,655.5C 158.404,653.074 159.07,650.907 160.5,649C 161.098,641.825 160.431,634.658 158.5,627.5C 158.981,596.186 158.981,565.019 158.5,534C 159.167,530 159.833,526 160.5,522C 161.053,513.957 160.386,505.957 158.5,498C 158.958,492.452 159.625,486.952 160.5,481.5C 160.264,477.621 159.597,473.621 158.5,469.5C 161.161,462.472 161.161,455.472 158.5,448.5C 159.171,438.504 159.171,428.504 158.5,418.5C 158.401,415.001 159.068,411.668 160.5,408.5C 160.628,403.991 159.961,399.491 158.5,395C 158.566,382.828 158.566,370.661 158.5,358.5C 158.903,355.239 159.57,352.072 160.5,349C 159.341,341.764 158.674,334.431 158.5,327C 159.084,321.46 159.084,316.293 158.5,311.5C 159.024,309.617 159.691,307.784 160.5,306C 159.51,302.058 158.843,298.058 158.5,294C 159.037,284.554 159.37,274.887 159.5,265C 161.101,264.727 162.601,264.227 164,263.5C 272.231,263.956 379.731,264.29 486.5,264.5C 493.388,262.06 500.222,262.06 507,264.5C 509.526,264.37 512.193,263.703 515,262.5C 519.722,262.643 524.555,263.309 529.5,264.5C 544.909,264.204 560.076,264.204 575,264.5C 576.441,263.74 577.941,263.074 579.5,262.5C 583.605,261.851 587.605,262.517 591.5,264.5C 593.382,263.907 595.215,263.24 597,262.5C 721.451,263.217 845.285,263.55 968.5,263.5C 976.656,261.646 984.656,261.646 992.5,263.5C 1032.25,263.112 1072.42,263.112 1113,263.5C 1117.38,262.892 1121.71,262.225 1126,261.5C 1127.19,262.43 1128.53,263.097 1130,263.5C 1155.32,263.482 1180.82,263.482 1206.5,263.5C 1214.72,262.878 1222.88,262.212 1231,261.5C 1319.64,262.523 1407.64,262.523 1495,261.5C 1500.47,262.188 1505.97,262.855 1511.5,263.5C 1512.75,262.96 1513.91,262.293 1515,261.5C 1516.01,262.337 1517.18,262.67 1518.5,262.5C 1527.71,235.009 1535.37,207.009 1541.5,178.5C 1553.91,177.876 1563.91,182.376 1571.5,192C 1576.62,194.777 1581.95,197.11 1587.5,199C 1596.88,206.715 1607.05,213.215 1618,218.5C 1640.15,186.885 1662.82,155.552 1686,124.5C 1688.12,118.377 1691.79,113.377 1697,109.5C 1698,107.5 1699,105.5 1700,103.5C 1725.9,69.3827 1751.06,34.7161 1775.5,-0.5 Z M 1740.5,555.5 C 1741.77,556.077 1741.77,556.743 1740.5,557.5C 1739.54,557.03 1739.54,556.363 1740.5,555.5 Z M 176.5,669.5 C 179.001,669.511 179.168,670.178 177,671.5C 176.536,670.906 176.369,670.239 176.5,669.5 Z"/></g>
<g><path style="opacity:1" fill="#fefffe" d="M 1763.5,37.5 C 1764.82,46.0695 1764.49,54.7362 1762.5,63.5C 1764.72,66.9554 1764.72,70.2887 1762.5,73.5C 1762.83,74.1667 1763.17,74.8333 1763.5,75.5C 1761.15,81.3854 1761.15,87.2188 1763.5,93C 1760.87,98.9993 1759.87,105.166 1760.5,111.5C 1759.44,120.703 1758.44,129.869 1757.5,139C 1757.77,142.835 1758.1,146.668 1758.5,150.5C 1755.9,154.335 1755.9,158.169 1758.5,162C 1756.73,165.075 1755.73,168.408 1755.5,172C 1754.23,179.932 1754.23,187.932 1755.5,196C 1754.41,203.311 1753.41,210.644 1752.5,218C 1752.2,222.732 1754.2,226.065 1758.5,228C 1762.28,228.218 1765.94,228.384 1769.5,228.5C 1776.31,227.354 1782.97,225.687 1789.5,223.5C 1790.61,224.022 1791.77,224.355 1793,224.5C 1803.03,223.283 1812.87,221.283 1822.5,218.5C 1823.45,218.987 1824.45,219.32 1825.5,219.5C 1831.37,217.565 1837.37,216.232 1843.5,215.5C 1844.61,216.022 1845.77,216.355 1847,216.5C 1854.51,215.098 1862.01,213.598 1869.5,212C 1882.69,211.227 1895.69,209.56 1908.5,207C 1897.49,216.011 1886.83,225.344 1876.5,235C 1874.03,236.798 1872.36,239.132 1871.5,242C 1865.29,244.871 1860.29,249.204 1856.5,255C 1851.01,256.987 1846.84,260.487 1844,265.5C 1836.39,270.271 1829.89,276.271 1824.5,283.5C 1823.21,284.098 1821.87,284.598 1820.5,285C 1817.44,288.726 1813.77,291.726 1809.5,294C 1802.5,302.333 1794.83,310 1786.5,317C 1780.34,319.79 1775.84,324.29 1773,330.5C 1755.78,346.876 1738.61,363.376 1721.5,380C 1722.5,385.661 1723.5,391.328 1724.5,397C 1723.22,402.466 1723.22,408.133 1724.5,414C 1724.27,419.057 1723.6,424.057 1722.5,429C 1722.93,466.083 1722.93,503.25 1722.5,540.5C 1723.14,546.009 1723.81,551.509 1724.5,557C 1723.91,559.196 1723.24,561.362 1722.5,563.5C 1723.35,576.053 1723.35,588.886 1722.5,602C 1724.71,605.551 1724.71,609.218 1722.5,613C 1722.93,619.805 1723.93,626.471 1725.5,633C 1723.93,634.684 1722.93,636.684 1722.5,639C 1723.23,641.816 1723.9,644.65 1724.5,647.5C 1723.74,683.858 1723.41,720.192 1723.5,756.5C 1724.45,767.097 1725.12,777.597 1725.5,788C 1725.34,790.637 1724.68,793.137 1723.5,795.5C 1724.68,798.636 1724.68,801.803 1723.5,805C 1724.17,807.667 1724.83,810.333 1725.5,813C 1724.69,815.46 1724.02,817.96 1723.5,820.5C 1723.49,822.593 1724.15,824.426 1725.5,826C 1724.68,827.923 1724.02,829.923 1723.5,832C 1724.55,838.652 1724.55,845.486 1723.5,852.5C 1724.07,856.726 1724.74,860.892 1725.5,865C 1724.74,866.441 1724.07,867.941 1723.5,869.5C 1725.49,881.615 1725.49,893.782 1723.5,906C 1724.13,908.343 1725.13,910.51 1726.5,912.5C 1723.92,918.714 1723.92,924.88 1726.5,931C 1725.07,936.367 1724.4,941.867 1724.5,947.5C 1683.66,948.046 1642.49,948.046 1601,947.5C 1598.29,948.01 1595.63,948.677 1593,949.5C 1589.92,948.437 1586.75,947.771 1583.5,947.5C 1547.92,947.956 1512.75,947.956 1478,947.5C 1475.29,948.01 1472.63,948.677 1470,949.5C 1455.44,948.464 1440.78,948.464 1426,949.5C 1423.54,948.112 1420.87,947.446 1418,947.5C 1413.13,947.962 1408.3,948.629 1403.5,949.5C 1396.27,947.341 1389.11,947.341 1382,949.5C 1380.13,948.932 1378.3,948.265 1376.5,947.5C 1365.88,946.901 1354.88,947.567 1343.5,949.5C 1334.35,948.82 1325.18,948.153 1316,947.5C 1313.07,948.483 1310.07,949.149 1307,949.5C 1297.93,948.046 1289.27,948.38 1281,950.5C 1275.82,949.011 1270.49,948.345 1265,948.5C 1242.21,949.319 1219.54,949.319 1197,948.5C 1192.15,950.448 1187.48,950.448 1183,948.5C 1141.97,948.503 1101.14,948.503 1060.5,948.5C 1055.52,948.443 1050.69,949.11 1046,950.5C 1043.54,949.782 1041.04,949.115 1038.5,948.5C 1032.86,948.561 1027.19,948.561 1021.5,948.5C 1019.94,949.074 1018.44,949.74 1017,950.5C 1008.35,949.613 999.513,949.613 990.5,950.5C 986.966,949.869 983.466,949.202 980,948.5C 978.333,949.167 976.667,949.833 975,950.5C 971.769,949.516 968.436,948.849 965,948.5C 951.896,949.458 938.729,949.458 925.5,948.5C 923.303,949.066 921.136,949.732 919,950.5C 913.509,949.808 908.009,949.141 902.5,948.5C 894.257,948.047 886.09,948.714 878,950.5C 876.293,949.541 874.459,948.875 872.5,948.5C 866.798,950.913 861.132,950.913 855.5,948.5C 847.664,950.364 839.83,951.03 832,950.5C 825.472,948.084 819.139,948.418 813,951.5C 808.345,948.643 803.678,948.309 799,950.5C 785.284,949.146 771.784,948.48 758.5,948.5C 749.303,949.154 740.136,949.821 731,950.5C 681.605,949.594 632.272,949.261 583,949.5C 575.904,951.69 568.737,951.69 561.5,949.5C 558.978,950.089 556.478,950.755 554,951.5C 551.355,950.084 548.521,949.417 545.5,949.5C 500.583,950.455 455.75,950.455 411,949.5C 407.21,950.136 403.377,950.803 399.5,951.5C 392.248,960.782 386.415,970.449 382,980.5C 381,981.167 380,981.833 379,982.5C 375,989.167 371,995.833 367,1002.5C 363.832,1004.16 362.165,1006.83 362,1010.5C 356.116,1015.73 351.782,1022.06 349,1029.5C 342.56,1036.04 337.893,1043.71 335,1052.5C 328.733,1057.1 324.4,1063.1 322,1070.5C 317.41,1073.75 314.41,1078.09 313,1083.5C 312,1084.17 311,1084.83 310,1085.5C 306.395,1092.1 302.395,1098.43 298,1104.5C 293.838,1088.68 290.338,1072.85 287.5,1057C 287.735,1056.13 288.069,1055.29 288.5,1054.5C 288.022,1049.7 287.022,1045.04 285.5,1040.5C 287.652,1034.31 285.985,1029.48 280.5,1026C 276.428,1025.34 272.428,1025.68 268.5,1027C 261.355,1034.26 253.355,1040.59 244.5,1046C 236.486,1054.51 227.486,1061.85 217.5,1068C 205.422,1079.74 192.422,1090.41 178.5,1100C 174.176,1104.69 169.176,1108.69 163.5,1112C 158.675,1119.16 152.341,1124.49 144.5,1128C 138.711,1133.8 132.377,1138.8 125.5,1143C 121.025,1147.73 116.359,1152.23 111.5,1156.5C 99.0345,1165.48 86.8678,1174.81 75,1184.5C 75.9122,1180.43 77.2455,1176.43 79,1172.5C 82.5181,1166.29 85.8514,1159.96 89,1153.5C 89.3151,1148.84 90.9818,1144.84 94,1141.5C 94.7167,1137.44 96.3834,1133.77 99,1130.5C 99.8385,1123.95 102.505,1118.28 107,1113.5C 109.657,1103.81 113.657,1094.81 119,1086.5C 119.317,1082.2 120.983,1078.53 124,1075.5C 124.333,1073.5 124.667,1071.5 125,1069.5C 127.732,1065.76 130.066,1061.76 132,1057.5C 138.332,1042.59 144.666,1027.59 151,1012.5C 156.766,1005.01 158.432,996.672 156,987.5C 154.457,985.622 152.624,984.122 150.5,983C 120.278,983.314 90.1113,983.147 60,982.5C 56.4831,982.358 53.1497,983.024 50,984.5C 48.5,984 47,983.5 45.5,983C 39.4391,982.845 33.4391,982.678 27.5,982.5C 32.0153,978.152 36.3487,973.652 40.5,969C 49.9748,962.484 58.4748,954.984 66,946.5C 68.6009,941.704 72.4342,938.204 77.5,936C 80.218,932.256 83.218,928.756 86.5,925.5C 91.5724,923.761 94.9058,920.428 96.5,915.5C 98.8273,915.753 100.827,915.086 102.5,913.5C 110.797,905.373 119.297,897.373 128,889.5C 129.448,885.512 132.281,883.012 136.5,882C 142.464,876.036 148.297,870.203 154,864.5C 154.402,863.128 154.902,861.795 155.5,860.5C 167.814,846.768 180.314,833.434 193,820.5C 193.243,812.93 194.076,805.43 195.5,798C 195.067,760.917 195.067,723.75 195.5,686.5C 194.859,680.991 194.192,675.491 193.5,670C 194.09,667.804 194.757,665.638 195.5,663.5C 194.654,650.947 194.654,638.114 195.5,625C 193.286,621.449 193.286,617.782 195.5,614C 195.073,607.195 194.073,600.529 192.5,594C 194.066,592.316 195.066,590.316 195.5,588C 194.77,585.184 194.103,582.35 193.5,579.5C 194.258,543.142 194.591,506.808 194.5,470.5C 193.551,459.903 192.884,449.403 192.5,439C 192.657,436.363 193.323,433.863 194.5,431.5C 193.324,428.364 193.324,425.197 194.5,422C 193.833,419.333 193.167,416.667 192.5,414C 193.313,411.54 193.98,409.04 194.5,406.5C 194.514,404.407 193.848,402.574 192.5,401C 193.316,399.077 193.983,397.077 194.5,395C 193.446,388.348 193.446,381.514 194.5,374.5C 193.93,370.274 193.263,366.108 192.5,362C 193.26,360.559 193.926,359.059 194.5,357.5C 192.513,345.385 192.513,333.218 194.5,321C 193.873,318.657 192.873,316.49 191.5,314.5C 194.076,308.286 194.076,302.12 191.5,296C 192.93,290.633 193.597,285.133 193.5,279.5C 234.341,278.954 275.508,278.954 317,279.5C 319.706,278.99 322.373,278.323 325,277.5C 328.084,278.563 331.251,279.229 334.5,279.5C 370.079,279.044 405.246,279.044 440,279.5C 442.706,278.99 445.373,278.323 448,277.5C 462.558,278.536 477.224,278.536 492,277.5C 494.46,278.888 497.127,279.554 500,279.5C 504.865,279.038 509.698,278.371 514.5,277.5C 521.726,279.659 528.893,279.659 536,277.5C 537.872,278.068 539.705,278.735 541.5,279.5C 552.122,280.099 563.122,279.433 574.5,277.5C 583.654,278.18 592.82,278.847 602,279.5C 604.93,278.517 607.93,277.851 611,277.5C 620.067,278.954 628.734,278.62 637,276.5C 642.181,277.989 647.515,278.655 653,278.5C 675.79,277.681 698.457,277.681 721,278.5C 725.85,276.552 730.517,276.552 735,278.5C 776.027,278.497 816.86,278.497 857.5,278.5C 862.476,278.557 867.309,277.89 872,276.5C 874.461,277.218 876.961,277.885 879.5,278.5C 885.141,278.439 890.807,278.439 896.5,278.5C 898.059,277.926 899.559,277.26 901,276.5C 909.654,277.387 918.487,277.387 927.5,276.5C 931.034,277.131 934.534,277.798 938,278.5C 939.667,277.833 941.333,277.167 943,276.5C 946.231,277.484 949.564,278.151 953,278.5C 966.104,277.542 979.271,277.542 992.5,278.5C 994.697,277.934 996.864,277.268 999,276.5C 1004.49,277.192 1009.99,277.859 1015.5,278.5C 1023.74,278.953 1031.91,278.286 1040,276.5C 1041.71,277.459 1043.54,278.125 1045.5,278.5C 1051.2,276.087 1056.87,276.087 1062.5,278.5C 1070.34,276.636 1078.17,275.97 1086,276.5C 1092.53,278.916 1098.86,278.582 1105,275.5C 1109.66,278.357 1114.32,278.691 1119,276.5C 1132.72,277.854 1146.22,278.52 1159.5,278.5C 1168.7,277.846 1177.86,277.179 1187,276.5C 1236.39,277.406 1285.73,277.739 1335,277.5C 1342.1,275.31 1349.26,275.31 1356.5,277.5C 1359.02,276.911 1361.52,276.245 1364,275.5C 1366.65,276.916 1369.48,277.583 1372.5,277.5C 1417.42,276.545 1462.25,276.545 1507,277.5C 1516.41,276.359 1525.91,275.692 1535.5,275.5C 1536.94,261.646 1539.27,247.979 1542.5,234.5C 1542.43,233.228 1542.1,232.062 1541.5,231C 1544.37,228.468 1545.37,225.468 1544.5,222C 1545.83,218.333 1547.17,214.667 1548.5,211C 1548.28,206.031 1549.45,201.198 1552,196.5C 1553.17,197.667 1554.33,198.833 1555.5,200C 1564.74,202.571 1572.41,207.571 1578.5,215C 1587.82,219.661 1596.49,225.327 1604.5,232C 1607.25,233.75 1610.25,234.75 1613.5,235C 1622.65,242.353 1628.48,240.186 1631,228.5C 1633.12,225.887 1635.46,223.554 1638,221.5C 1644.77,211.739 1651.1,201.739 1657,191.5C 1660.8,189.259 1663.13,185.926 1664,181.5C 1670.07,175.004 1675.4,168.004 1680,160.5C 1681.04,158.285 1681.71,155.952 1682,153.5C 1695.31,138.871 1706.64,122.871 1716,105.5C 1719.01,104.159 1720.51,101.825 1720.5,98.5C 1721.82,98.67 1722.99,98.3366 1724,97.5C 1734.01,79.4685 1745.68,62.4685 1759,46.5C 1760.35,43.3569 1761.85,40.3569 1763.5,37.5 Z"/></g>
<g><path style="opacity:1" fill="#000000" d="M 276.5,1135.5 C 277.573,1136.25 277.74,1137.25 277,1138.5C 276.517,1137.55 276.351,1136.55 276.5,1135.5 Z"/></g>
</svg>
