<?xml version="1.0" encoding="UTF-8"?>
<!DOCTYPE svg PUBLIC "-//W3C//DTD SVG 1.1//EN" "http://www.w3.org/Graphics/SVG/1.1/DTD/svg11.dtd">
<svg xmlns="http://www.w3.org/2000/svg" version="1.1" width="1947px" height="1223px" style="shape-rendering:geometricPrecision; text-rendering:geometricPrecision; image-rendering:optimizeQuality; fill-rule:evenodd; clip-rule:evenodd" xmlns:xlink="http://www.w3.org/1999/xlink">
<g><path style="opacity:1" fill="#000000" d="M 166.5,-0.5 C 167.833,-0.5 169.167,-0.5 170.5,-0.5C 220.156,67.84 269.489,136.507 318.5,205.5C 322.63,209.13 325.797,213.463 328,218.5C 338.95,213.215 349.117,206.715 358.5,199C 366.951,196.867 373.951,192.534 379.5,186C 383.922,183.262 388.588,180.929 393.5,179C 397.152,178.501 400.818,178.335 404.5,178.5C 410.625,207.009 418.292,235.009 427.5,262.5C 428.822,262.67 429.989,262.337 431,261.5C 432.085,262.293 433.252,262.96 434.5,263.5C 440.032,262.855 445.532,262.188 451,261.5C 538.364,262.523 626.364,262.523 715,261.5C 723.116,262.212 731.282,262.878 739.5,263.5C 765.176,263.482 790.676,263.482 816,263.5C 817.473,263.097 818.806,262.43 820,261.5C 824.285,262.225 828.619,262.892 833,263.5C 873.581,263.112 913.748,263.112 953.5,263.5C 961.344,261.646 969.344,261.646 977.5,263.5C 1100.72,263.55 1224.55,263.217 1349,262.5C 1350.78,263.24 1352.62,263.907 1354.5,264.5C 1358.39,262.517 1362.39,261.851 1366.5,262.5C 1368.06,263.074 1369.56,263.74 1371,264.5C 1385.92,264.204 1401.09,264.204 1416.5,264.5C 1421.44,263.309 1426.28,262.643 1431,262.5C 1436.67,264.934 1442.67,264.934 1449,262.5C 1452.44,263.286 1455.94,263.953 1459.5,264.5C 1566.27,264.29 1673.77,263.956 1782,263.5C 1783.4,264.227 1784.9,264.727 1786.5,265C 1786.63,274.887 1786.96,284.554 1787.5,294C 1787.16,298.058 1786.49,302.058 1785.5,306C 1786.31,307.784 1786.98,309.617 1787.5,311.5C 1786.92,316.293 1786.92,321.46 1787.5,327C 1787.33,334.431 1786.66,341.764 1785.5,349C 1786.43,352.072 1787.1,355.239 1787.5,358.5C 1787.43,370.661 1787.43,382.828 1787.5,395C 1786.04,399.491 1785.37,403.991 1785.5,408.5C 1786.93,411.668 1787.6,415.001 1787.5,418.5C 1786.83,428.504 1786.83,438.504 1787.5,448.5C 1784.84,455.472 1784.84,462.472 1787.5,469.5C 1786.4,473.621 1785.74,477.621 1785.5,481.5C 1786.38,486.952 1787.04,492.452 1787.5,498C 1785.61,505.957 1784.95,513.957 1785.5,522C 1786.17,526 1786.83,530 1787.5,534C 1787.02,565.019 1787.02,596.186 1787.5,627.5C 1785.57,634.658 1784.9,641.825 1785.5,649C 1786.93,650.907 1787.6,653.074 1787.5,655.5C 1787.34,678.19 1787.34,701.024 1787.5,724C 1787,730.542 1786.33,737.042 1785.5,743.5C 1788.12,748.034 1788.12,752.534 1785.5,757C 1787.05,758.822 1787.71,760.989 1787.5,763.5C 1786.86,785.292 1786.86,806.792 1787.5,828C 1787.26,829.984 1786.59,831.817 1785.5,833.5C 1786.67,835.833 1787.83,838.167 1789,840.5C 1841.59,891.591 1894.09,942.925 1946.5,994.5C 1946.5,995.167 1946.5,995.833 1946.5,996.5C 1943.63,999.293 1940.13,1000.63 1936,1000.5C 1925.69,1000.14 1915.52,1000.14 1905.5,1000.5C 1901.82,1000.66 1898.32,999.99 1895,998.5C 1891.85,999.976 1888.52,1000.64 1885,1000.5C 1866.9,999.726 1848.9,999.393 1831,999.5C 1827.84,1000.2 1824.84,1001.2 1822,1002.5C 1818.53,1001.54 1815.03,1001.38 1811.5,1002C 1809.5,1003.83 1807.5,1004.83 1805.5,1005C 1836.98,1077.28 1867.98,1149.78 1898.5,1222.5C 1895.83,1222.5 1893.17,1222.5 1890.5,1222.5C 1887.91,1219.5 1884.58,1217.66 1880.5,1217C 1877.4,1214.57 1875.07,1211.57 1873.5,1208C 1870.62,1206.48 1867.62,1205.15 1864.5,1204C 1852.48,1193.65 1840.15,1183.65 1827.5,1174C 1825.87,1171.37 1823.87,1169.04 1821.5,1167C 1817.15,1163.67 1812.48,1160.67 1807.5,1158C 1804.92,1155.55 1802.59,1152.88 1800.5,1150C 1793.02,1147.09 1787.35,1142.09 1783.5,1135C 1777.5,1131.33 1771.5,1127.67 1765.5,1124C 1763.46,1121.81 1762.13,1119.31 1761.5,1116.5C 1759.01,1116.7 1756.68,1116.2 1754.5,1115C 1742.75,1103.58 1730.08,1093.25 1716.5,1084C 1707.59,1074.76 1697.76,1066.6 1687,1059.5C 1686.67,1058.17 1686.33,1056.83 1686,1055.5C 1683.3,1054.3 1681.47,1052.3 1680.5,1049.5C 1678.58,1048.29 1676.74,1046.96 1675,1045.5C 1667.67,1077.51 1660.33,1109.51 1653,1141.5C 1651.42,1139.96 1649.59,1138.79 1647.5,1138C 1636.42,1120.58 1624.92,1103.42 1613,1086.5C 1610.91,1080.73 1607.58,1075.73 1603,1071.5C 1601.79,1067.3 1600.12,1063.3 1598,1059.5C 1590.96,1053.89 1585.79,1046.89 1582.5,1038.5C 1577.53,1034.68 1574.36,1029.68 1573,1023.5C 1564.34,1012.86 1556.68,1001.53 1550,989.5C 1548,987.5 1546,985.5 1544,983.5C 1542.05,978.443 1539.22,973.943 1535.5,970C 1528.92,969.813 1522.42,969.313 1516,968.5C 1420.49,969.063 1325.32,969.396 1230.5,969.5C 1227.04,968.696 1223.54,968.029 1220,967.5C 1213.32,968.125 1206.65,968.792 1200,969.5C 1185.57,968.459 1171.57,968.459 1158,969.5C 1155.15,968.886 1152.31,968.219 1149.5,967.5C 1107.69,967.287 1065.69,967.62 1023.5,968.5C 1016.83,967.833 1010.17,967.167 1003.5,966.5C 962.582,967.348 920.748,967.681 878,967.5C 874.667,966.833 871.333,966.167 868,965.5C 864.92,967.885 861.753,967.885 858.5,965.5C 822.059,966.429 785.226,966.762 748,966.5C 731.223,965.798 714.389,965.131 697.5,964.5C 652.443,964.698 607.276,965.031 562,965.5C 558.869,964.794 555.702,964.127 552.5,963.5C 522.163,964.163 491.663,964.496 461,964.5C 441.223,963.804 421.389,963.137 401.5,962.5C 329.806,962.96 258.639,962.96 188,962.5C 186.891,960.2 186.391,957.7 186.5,955C 187.772,947.387 187.772,940.054 186.5,933C 186.843,928.942 187.51,924.942 188.5,921C 187.691,919.216 187.024,917.383 186.5,915.5C 187.084,910.707 187.084,905.54 186.5,900C 186.674,892.569 187.341,885.236 188.5,878C 187.57,874.928 186.903,871.761 186.5,868.5C 186.566,856.339 186.566,844.172 186.5,832C 187.961,827.509 188.628,823.009 188.5,818.5C 187.068,815.332 186.401,811.999 186.5,808.5C 187.171,798.496 187.171,788.496 186.5,778.5C 189.161,771.528 189.161,764.528 186.5,757.5C 187.597,753.379 188.264,749.379 188.5,745.5C 187.625,740.048 186.958,734.548 186.5,729C 188.386,721.043 189.053,713.043 188.5,705C 187.833,701 187.167,697 186.5,693C 186.981,661.981 186.981,630.814 186.5,599.5C 188.431,592.342 189.098,585.175 188.5,578C 187.07,576.093 186.404,573.926 186.5,571.5C 187.053,552.141 187.387,532.641 187.5,513C 186.53,505.257 185.53,497.59 184.5,490C 185.121,484.909 185.121,479.909 184.5,475C 186.22,470.545 186.553,466.045 185.5,461.5C 186.592,459.817 187.259,457.984 187.5,456C 186.508,437.022 186.174,418.022 186.5,399C 186.741,397.016 187.408,395.183 188.5,393.5C 187.649,389.882 186.983,386.216 186.5,382.5C 187.741,378.49 187.741,374.49 186.5,370.5C 188.346,367.417 188.846,364.084 188,360.5C 125.519,302.174 62.6853,244.507 -0.5,187.5C -0.5,187.167 -0.5,186.833 -0.5,186.5C 1.63255,184.226 4.29922,182.892 7.5,182.5C 28.3591,188.223 49.6924,192.056 71.5,194C 77.2745,196.282 83.1078,197.115 89,196.5C 117.381,201.668 145.715,206.001 174,209.5C 174.694,200.314 173.861,191.148 171.5,182C 171.411,176.196 171.745,170.363 172.5,164.5C 170.51,160.754 170.176,156.921 171.5,153C 169.925,143.738 168.592,134.404 167.5,125C 167.31,121.002 167.643,117.169 168.5,113.5C 167.261,111.689 166.594,109.689 166.5,107.5C 167.074,103.482 167.741,99.4822 168.5,95.5C 167.909,93.7338 167.076,92.0672 166,90.5C 166.004,81.7202 165.171,73.0535 163.5,64.5C 163.638,61.3301 163.971,58.1634 164.5,55C 163,52.3787 162.666,49.712 163.5,47C 161.417,32.9867 160.584,19.1534 161,5.5C 162.36,2.97739 164.193,0.977392 166.5,-0.5 Z M 204.5,555.5 C 205.289,555.783 205.956,556.283 206.5,557C 205.184,557.528 204.517,557.028 204.5,555.5 Z M 1767.5,670.5 C 1768.08,669.227 1768.74,669.227 1769.5,670.5C 1769.03,671.463 1768.36,671.463 1767.5,670.5 Z"/></g>
<g><path style="opacity:1" fill="#fefffe" d="M 181.5,37.5 C 186.938,46.1432 193.105,54.4766 200,62.5C 202.968,67.4797 205.968,72.4797 209,77.5C 210,78.1667 211,78.8333 212,79.5C 214.798,85.7585 218.131,91.7585 222,97.5C 223.011,98.3366 224.178,98.67 225.5,98.5C 225.494,101.825 226.994,104.159 230,105.5C 239.356,122.871 250.689,138.871 264,153.5C 264.29,155.952 264.956,158.285 266,160.5C 270.595,168.004 275.928,175.004 282,181.5C 282.871,185.926 285.204,189.259 289,191.5C 294.895,201.739 301.229,211.739 308,221.5C 310.544,223.554 312.877,225.887 315,228.5C 317.517,240.186 323.35,242.353 332.5,235C 339.413,233.747 345.08,230.413 349.5,225C 360.095,219.594 369.762,212.927 378.5,205C 382.333,203.036 386.333,201.369 390.5,200C 391.667,198.833 392.833,197.667 394,196.5C 396.551,201.198 397.718,206.031 397.5,211C 398.833,214.667 400.167,218.333 401.5,222C 400.626,225.468 401.626,228.468 404.5,231C 403.903,232.062 403.57,233.228 403.5,234.5C 406.728,247.979 409.061,261.646 410.5,275.5C 420.086,275.692 429.586,276.359 439,277.5C 483.75,276.545 528.583,276.545 573.5,277.5C 576.521,277.583 579.355,276.916 582,275.5C 588.754,277.395 595.587,277.395 602.5,275.5C 605.297,276.314 608.13,276.981 611,277.5C 660.272,277.739 709.605,277.406 759,276.5C 768.136,277.179 777.303,277.846 786.5,278.5C 799.784,278.52 813.284,277.854 827,276.5C 831.678,278.691 836.345,278.357 841,275.5C 847.139,278.582 853.472,278.916 860,276.5C 867.83,275.97 875.664,276.636 883.5,278.5C 889.132,276.087 894.798,276.087 900.5,278.5C 902.459,278.125 904.293,277.459 906,276.5C 910.267,277.296 914.601,277.962 919,278.5C 928.313,278.451 937.646,277.784 947,276.5C 949.136,277.268 951.303,277.934 953.5,278.5C 966.729,277.542 979.896,277.542 993,278.5C 996.436,278.151 999.769,277.484 1003,276.5C 1004.67,277.167 1006.33,277.833 1008,278.5C 1011.47,277.798 1014.97,277.131 1018.5,276.5C 1027.51,277.387 1036.35,277.387 1045,276.5C 1046.44,277.26 1047.94,277.926 1049.5,278.5C 1055.19,278.439 1060.86,278.439 1066.5,278.5C 1069.04,277.885 1071.54,277.218 1074,276.5C 1078.69,277.89 1083.52,278.557 1088.5,278.5C 1129.14,278.497 1169.97,278.497 1211,278.5C 1215.48,276.552 1220.15,276.552 1225,278.5C 1247.54,277.681 1270.21,277.681 1293,278.5C 1298.49,278.655 1303.82,277.989 1309,276.5C 1317.27,278.62 1325.93,278.954 1335,277.5C 1338.07,277.851 1341.07,278.517 1344,279.5C 1358.91,277.72 1373.75,277.72 1388.5,279.5C 1393.98,278.539 1399.32,278.539 1404.5,279.5C 1408.93,277.343 1413.43,277.343 1418,279.5C 1422.52,278.956 1427.02,278.289 1431.5,277.5C 1436.3,278.371 1441.13,279.038 1446,279.5C 1448.87,279.554 1451.54,278.888 1454,277.5C 1468.78,278.536 1483.44,278.536 1498,277.5C 1500.63,278.323 1503.29,278.99 1506,279.5C 1540.75,279.044 1575.92,279.044 1611.5,279.5C 1614.75,279.229 1617.92,278.563 1621,277.5C 1623.63,278.323 1626.29,278.99 1629,279.5C 1670.49,278.954 1711.66,278.954 1752.5,279.5C 1752.4,285.133 1753.07,290.633 1754.5,296C 1751.92,302.12 1751.92,308.286 1754.5,314.5C 1753.13,316.49 1752.13,318.657 1751.5,321C 1753.49,333.218 1753.49,345.385 1751.5,357.5C 1752.07,359.059 1752.74,360.559 1753.5,362C 1752.74,366.108 1752.07,370.274 1751.5,374.5C 1752.55,381.514 1752.55,388.348 1751.5,395C 1752.02,397.077 1752.68,399.077 1753.5,401C 1752.15,402.574 1751.49,404.407 1751.5,406.5C 1752.02,409.04 1752.69,411.54 1753.5,414C 1752.83,416.667 1752.17,419.333 1751.5,422C 1752.68,425.197 1752.68,428.364 1751.5,431.5C 1752.68,433.863 1753.34,436.363 1753.5,439C 1753.12,449.403 1752.45,459.903 1751.5,470.5C 1751.41,506.808 1751.74,543.142 1752.5,579.5C 1751.9,582.35 1751.23,585.184 1750.5,588C 1750.93,590.316 1751.93,592.316 1753.5,594C 1751.93,600.529 1750.93,607.195 1750.5,614C 1752.71,617.782 1752.71,621.449 1750.5,625C 1751.35,638.114 1751.35,650.947 1750.5,663.5C 1751.24,665.638 1751.91,667.804 1752.5,670C 1751.81,675.491 1751.14,680.991 1750.5,686.5C 1750.93,723.75 1750.93,760.917 1750.5,798C 1751.92,805.43 1752.76,812.93 1753,820.5C 1769.49,836.649 1784.83,853.649 1799,871.5C 1803.78,876.936 1809.28,881.436 1815.5,885C 1816.46,886.419 1817.29,887.919 1818,889.5C 1826.7,897.373 1835.2,905.373 1843.5,913.5C 1845.17,915.086 1847.17,915.753 1849.5,915.5C 1851.09,920.428 1854.43,923.761 1859.5,925.5C 1864.05,932.545 1870.05,938.045 1877.5,942C 1878.46,943.419 1879.29,944.919 1880,946.5C 1887.53,954.984 1896.03,962.484 1905.5,969C 1909.65,973.652 1913.98,978.152 1918.5,982.5C 1912.56,982.678 1906.56,982.845 1900.5,983C 1899,983.5 1897.5,984 1896,984.5C 1892.85,983.024 1889.52,982.358 1886,982.5C 1855.89,983.147 1825.72,983.314 1795.5,983C 1790.41,985.337 1788.07,989.337 1788.5,995C 1788.7,1001.61 1790.87,1007.45 1795,1012.5C 1804.58,1035.93 1814.91,1058.93 1826,1081.5C 1826.99,1086.83 1829.32,1091.49 1833,1095.5C 1835.4,1101.35 1837.4,1107.35 1839,1113.5C 1843.49,1118.28 1846.16,1123.95 1847,1130.5C 1849.62,1133.77 1851.28,1137.44 1852,1141.5C 1855.02,1144.84 1856.68,1148.84 1857,1153.5C 1860.15,1159.96 1863.48,1166.29 1867,1172.5C 1868.75,1176.43 1870.09,1180.43 1871,1184.5C 1859.13,1174.81 1846.97,1165.48 1834.5,1156.5C 1829.64,1152.23 1824.97,1147.73 1820.5,1143C 1813.62,1138.8 1807.29,1133.8 1801.5,1128C 1793.66,1124.49 1787.33,1119.16 1782.5,1112C 1766.63,1099.7 1750.63,1087.37 1734.5,1075C 1732.87,1072.37 1730.87,1070.04 1728.5,1068C 1718.51,1061.85 1709.51,1054.51 1701.5,1046C 1692.64,1040.59 1684.64,1034.26 1677.5,1027C 1671.94,1024.51 1666.77,1025.01 1662,1028.5C 1659.49,1032.27 1658.99,1036.27 1660.5,1040.5C 1658.98,1045.04 1657.98,1049.7 1657.5,1054.5C 1657.93,1055.29 1658.26,1056.13 1658.5,1057C 1655.66,1072.85 1652.16,1088.68 1648,1104.5C 1641.9,1095.1 1635.9,1085.77 1630,1076.5C 1625.07,1072.05 1621.4,1066.72 1619,1060.5C 1616,1058.17 1613.33,1055.5 1611,1052.5C 1608.11,1043.71 1603.44,1036.04 1597,1029.5C 1594.22,1022.06 1589.88,1015.73 1584,1010.5C 1583.83,1006.83 1582.17,1004.16 1579,1002.5C 1575,995.833 1571,989.167 1567,982.5C 1563.91,979.964 1561.91,976.63 1561,972.5C 1556.31,965.877 1551.48,958.877 1546.5,951.5C 1542.62,950.803 1538.79,950.136 1535,949.5C 1490.25,950.455 1445.42,950.455 1400.5,949.5C 1397.48,949.417 1394.65,950.084 1392,951.5C 1385.25,949.605 1378.41,949.605 1371.5,951.5C 1368.7,950.686 1365.87,950.019 1363,949.5C 1313.73,949.261 1264.39,949.594 1215,950.5C 1205.86,949.821 1196.7,949.154 1187.5,948.5C 1174.22,948.48 1160.72,949.146 1147,950.5C 1142.32,948.309 1137.66,948.643 1133,951.5C 1126.86,948.418 1120.53,948.084 1114,950.5C 1106.17,951.03 1098.34,950.364 1090.5,948.5C 1084.87,950.913 1079.2,950.913 1073.5,948.5C 1071.54,948.875 1069.71,949.541 1068,950.5C 1063.73,949.704 1059.4,949.038 1055,948.5C 1045.69,948.549 1036.35,949.216 1027,950.5C 1024.86,949.732 1022.7,949.066 1020.5,948.5C 1007.27,949.458 994.104,949.458 981,948.5C 977.564,948.849 974.231,949.516 971,950.5C 969.333,949.833 967.667,949.167 966,948.5C 962.534,949.202 959.034,949.869 955.5,950.5C 946.487,949.613 937.654,949.613 929,950.5C 927.559,949.74 926.059,949.074 924.5,948.5C 918.807,948.561 913.141,948.561 907.5,948.5C 904.961,949.115 902.461,949.782 900,950.5C 895.309,949.11 890.476,948.443 885.5,948.5C 844.86,948.503 804.027,948.503 763,948.5C 758.517,950.448 753.85,950.448 749,948.5C 726.457,949.319 703.79,949.319 681,948.5C 675.515,948.345 670.181,949.011 665,950.5C 656.734,948.38 648.067,948.046 639,949.5C 635.93,949.149 632.93,948.483 630,947.5C 615.087,949.28 600.253,949.28 585.5,947.5C 580.018,948.461 574.685,948.461 569.5,947.5C 565.073,949.657 560.573,949.657 556,947.5C 551.478,948.044 546.978,948.711 542.5,949.5C 537.698,948.629 532.865,947.962 528,947.5C 525.127,947.446 522.46,948.112 520,949.5C 505.224,948.464 490.558,948.464 476,949.5C 473.373,948.677 470.706,948.01 468,947.5C 433.246,947.956 398.079,947.956 362.5,947.5C 359.251,947.771 356.084,948.437 353,949.5C 350.373,948.677 347.706,948.01 345,947.5C 303.508,948.046 262.341,948.046 221.5,947.5C 221.597,941.867 220.93,936.367 219.5,931C 222.076,924.88 222.076,918.714 219.5,912.5C 220.873,910.51 221.873,908.343 222.5,906C 220.513,893.782 220.513,881.615 222.5,869.5C 221.926,867.941 221.26,866.441 220.5,865C 221.263,860.892 221.93,856.726 222.5,852.5C 221.446,845.486 221.446,838.652 222.5,832C 221.983,829.923 221.316,827.923 220.5,826C 221.848,824.426 222.514,822.593 222.5,820.5C 221.98,817.96 221.313,815.46 220.5,813C 221.167,810.333 221.833,807.667 222.5,805C 221.324,801.803 221.324,798.636 222.5,795.5C 221.323,793.137 220.657,790.637 220.5,788C 220.884,777.597 221.551,767.097 222.5,756.5C 222.591,720.192 222.258,683.858 221.5,647.5C 222.103,644.65 222.77,641.816 223.5,639C 223.066,636.684 222.066,634.684 220.5,633C 222.073,626.471 223.073,619.805 223.5,613C 221.286,609.218 221.286,605.551 223.5,602C 222.654,588.886 222.654,576.053 223.5,563.5C 222.757,561.362 222.09,559.196 221.5,557C 222.192,551.509 222.859,546.009 223.5,540.5C 223.067,503.25 223.067,466.083 223.5,429C 222.398,424.057 221.732,419.057 221.5,414C 222.78,408.133 222.78,402.466 221.5,397C 222.497,391.328 223.497,385.661 224.5,380C 207.387,363.376 190.221,346.876 173,330.5C 170.157,324.29 165.657,319.79 159.5,317C 151.167,310 143.5,302.333 136.5,294C 132.228,291.726 128.561,288.726 125.5,285C 124.128,284.598 122.795,284.098 121.5,283.5C 116.106,276.271 109.606,270.271 102,265.5C 99.1615,260.487 94.9948,256.987 89.5,255C 85.7084,249.204 80.7084,244.871 74.5,242C 73.6392,239.132 71.9725,236.798 69.5,235C 59.1737,225.344 48.507,216.011 37.5,207C 50.3131,209.56 63.3131,211.227 76.5,212C 83.985,213.598 91.485,215.098 99,216.5C 100.226,216.355 101.393,216.022 102.5,215.5C 108.631,216.232 114.631,217.565 120.5,219.5C 121.554,219.32 122.554,218.987 123.5,218.5C 133.134,221.283 142.967,223.283 153,224.5C 154.226,224.355 155.393,224.022 156.5,223.5C 163.026,225.687 169.693,227.354 176.5,228.5C 180.058,228.384 183.725,228.218 187.5,228C 191.802,226.065 193.802,222.732 193.5,218C 192.592,210.644 191.592,203.311 190.5,196C 191.767,187.932 191.767,179.932 190.5,172C 190.27,168.408 189.27,165.075 187.5,162C 190.099,158.169 190.099,154.335 187.5,150.5C 187.899,146.668 188.232,142.835 188.5,139C 187.559,129.869 186.559,120.703 185.5,111.5C 186.127,105.166 185.127,98.9993 182.5,93C 184.848,87.2188 184.848,81.3854 182.5,75.5C 183.378,73.2518 183.045,71.0851 181.5,69C 182.459,67.2927 183.125,65.4594 183.5,63.5C 181.858,54.9147 181.191,46.2481 181.5,37.5 Z"/></g>
<g><path style="opacity:1" fill="#000000" d="M 1668.5,1135.5 C 1669.57,1136.25 1669.74,1137.25 1669,1138.5C 1668.52,1137.55 1668.35,1136.55 1668.5,1135.5 Z"/></g>
</svg>
