<?xml version="1.0" encoding="UTF-8"?>
<!DOCTYPE svg PUBLIC "-//W3C//DTD SVG 1.1//EN" "http://www.w3.org/Graphics/SVG/1.1/DTD/svg11.dtd">
<svg xmlns="http://www.w3.org/2000/svg" version="1.1" width="1947px" height="1223px" style="shape-rendering:geometricPrecision; text-rendering:geometricPrecision; image-rendering:optimizeQuality; fill-rule:evenodd; clip-rule:evenodd" xmlns:xlink="http://www.w3.org/1999/xlink">
<g><path style="opacity:1" fill="#000000" d="M 1890.5,-0.5 C 1893.17,-0.5 1895.83,-0.5 1898.5,-0.5C 1867.98,72.2213 1836.98,144.721 1805.5,217C 1807.5,217.165 1809.5,218.165 1811.5,220C 1815.03,220.622 1818.53,220.455 1822,219.5C 1824.84,220.798 1827.84,221.798 1831,222.5C 1848.9,222.607 1866.9,222.274 1885,221.5C 1888.52,221.358 1891.85,222.024 1895,223.5C 1898.32,222.01 1901.82,221.344 1905.5,221.5C 1915.52,221.856 1925.69,221.856 1936,221.5C 1940.13,221.374 1943.63,222.707 1946.5,225.5C 1946.5,226.167 1946.5,226.833 1946.5,227.5C 1915.26,257.239 1884.6,287.406 1854.5,318C 1832.11,338.385 1810.28,359.552 1789,381.5C 1787.83,383.833 1786.67,386.167 1785.5,388.5C 1786.59,390.183 1787.26,392.016 1787.5,394C 1786.86,415.208 1786.86,436.708 1787.5,458.5C 1787.71,461.011 1787.05,463.178 1785.5,465C 1788.12,469.466 1788.12,473.966 1785.5,478.5C 1786.33,484.958 1787,491.458 1787.5,498C 1787.34,520.976 1787.34,543.81 1787.5,566.5C 1787.6,568.926 1786.93,571.093 1785.5,573C 1784.9,580.175 1785.57,587.342 1787.5,594.5C 1787.02,625.814 1787.02,656.981 1787.5,688C 1786.83,692 1786.17,696 1785.5,700C 1784.95,708.043 1785.61,716.043 1787.5,724C 1787.04,729.548 1786.38,735.048 1785.5,740.5C 1785.74,744.379 1786.4,748.379 1787.5,752.5C 1784.84,759.528 1784.84,766.528 1787.5,773.5C 1786.83,783.496 1786.83,793.496 1787.5,803.5C 1787.6,806.999 1786.93,810.332 1785.5,813.5C 1785.37,818.009 1786.04,822.509 1787.5,827C 1787.43,839.172 1787.43,851.339 1787.5,863.5C 1787.1,866.761 1786.43,869.928 1785.5,873C 1786.66,880.236 1787.33,887.569 1787.5,895C 1786.92,900.54 1786.92,905.707 1787.5,910.5C 1786.98,912.383 1786.31,914.216 1785.5,916C 1786.49,919.942 1787.16,923.942 1787.5,928C 1786.96,937.446 1786.63,947.113 1786.5,957C 1784.9,957.273 1783.4,957.773 1782,958.5C 1673.77,958.044 1566.27,957.71 1459.5,957.5C 1452.61,959.94 1445.78,959.94 1439,957.5C 1436.47,957.63 1433.81,958.297 1431,959.5C 1426.28,959.357 1421.44,958.691 1416.5,957.5C 1401.09,957.796 1385.92,957.796 1371,957.5C 1369.56,958.26 1368.06,958.926 1366.5,959.5C 1362.39,960.149 1358.39,959.483 1354.5,957.5C 1352.62,958.093 1350.78,958.76 1349,959.5C 1224.55,958.783 1100.72,958.45 977.5,958.5C 969.344,960.354 961.344,960.354 953.5,958.5C 913.748,958.888 873.581,958.888 833,958.5C 828.619,959.108 824.285,959.775 820,960.5C 818.806,959.57 817.473,958.903 816,958.5C 790.676,958.518 765.176,958.518 739.5,958.5C 731.282,959.122 723.116,959.788 715,960.5C 626.364,959.477 538.364,959.477 451,960.5C 445.532,959.812 440.032,959.145 434.5,958.5C 433.252,959.04 432.085,959.707 431,960.5C 429.989,959.663 428.822,959.33 427.5,959.5C 418.292,986.991 410.625,1014.99 404.5,1043.5C 392.09,1044.12 382.09,1039.62 374.5,1030C 369.38,1027.22 364.047,1024.89 358.5,1023C 349.117,1015.29 338.95,1008.79 328,1003.5C 305.846,1035.11 283.18,1066.45 260,1097.5C 257.878,1103.62 254.212,1108.62 249,1112.5C 248,1114.5 247,1116.5 246,1118.5C 220.105,1152.62 194.938,1187.28 170.5,1222.5C 169.167,1222.5 167.833,1222.5 166.5,1222.5C 164.193,1221.02 162.36,1219.02 161,1216.5C 160.584,1202.85 161.417,1189.01 163.5,1175C 162.666,1172.29 163,1169.62 164.5,1167C 163.971,1163.84 163.638,1160.67 163.5,1157.5C 165.171,1148.95 166.004,1140.28 166,1131.5C 167.076,1129.93 167.909,1128.27 168.5,1126.5C 167.741,1122.52 167.074,1118.52 166.5,1114.5C 166.594,1112.31 167.261,1110.31 168.5,1108.5C 167.643,1104.83 167.31,1101 167.5,1097C 168.592,1087.6 169.925,1078.26 171.5,1069C 170.176,1065.08 170.51,1061.25 172.5,1057.5C 171.745,1051.64 171.411,1045.8 171.5,1040C 173.861,1030.85 174.694,1021.69 174,1012.5C 145.715,1016 117.381,1020.33 89,1025.5C 83.1078,1024.88 77.2745,1025.72 71.5,1028C 49.6924,1029.94 28.3591,1033.78 7.5,1039.5C 4.29922,1039.11 1.63255,1037.77 -0.5,1035.5C -0.5,1035.17 -0.5,1034.83 -0.5,1034.5C 62.6853,977.493 125.519,919.826 188,861.5C 188.846,857.916 188.346,854.583 186.5,851.5C 187.741,847.51 187.741,843.51 186.5,839.5C 186.983,835.784 187.649,832.118 188.5,828.5C 187.408,826.817 186.741,824.984 186.5,823C 186.174,803.978 186.508,784.978 187.5,766C 187.259,764.016 186.592,762.183 185.5,760.5C 186.553,755.955 186.22,751.455 184.5,747C 185.121,742.091 185.121,737.091 184.5,732C 186.611,727.525 186.945,722.858 185.5,718C 186.374,715.045 187.041,712.045 187.5,709C 187.387,689.359 187.053,669.859 186.5,650.5C 186.404,648.074 187.07,645.907 188.5,644C 189.098,636.825 188.431,629.658 186.5,622.5C 186.981,591.186 186.981,560.019 186.5,529C 187.167,525 187.833,521 188.5,517C 189.053,508.957 188.386,500.957 186.5,493C 186.958,487.452 187.625,481.952 188.5,476.5C 188.264,472.621 187.597,468.621 186.5,464.5C 189.161,457.472 189.161,450.472 186.5,443.5C 187.171,433.504 187.171,423.504 186.5,413.5C 186.401,410.001 187.068,406.668 188.5,403.5C 188.628,398.991 187.961,394.491 186.5,390C 186.566,377.828 186.566,365.661 186.5,353.5C 186.903,350.239 187.57,347.072 188.5,344C 187.341,336.764 186.674,329.431 186.5,322C 187.084,316.46 187.084,311.293 186.5,306.5C 187.024,304.617 187.691,302.784 188.5,301C 187.51,297.058 186.843,293.058 186.5,289C 187.772,281.946 187.772,274.613 186.5,267C 186.391,264.3 186.891,261.8 188,259.5C 258.639,259.04 329.806,259.04 401.5,259.5C 421.389,258.863 441.223,258.196 461,257.5C 491.663,257.504 522.163,257.837 552.5,258.5C 555.702,257.873 558.869,257.206 562,256.5C 607.276,256.969 652.443,257.302 697.5,257.5C 714.389,256.869 731.223,256.202 748,255.5C 785.226,255.238 822.059,255.571 858.5,256.5C 861.753,254.115 864.92,254.115 868,256.5C 871.333,255.833 874.667,255.167 878,254.5C 920.748,254.319 962.582,254.652 1003.5,255.5C 1010.17,254.833 1016.83,254.167 1023.5,253.5C 1065.69,254.38 1107.69,254.713 1149.5,254.5C 1152.31,253.781 1155.15,253.114 1158,252.5C 1171.57,253.541 1185.57,253.541 1200,252.5C 1206.65,253.208 1213.32,253.875 1220,254.5C 1223.54,253.971 1227.04,253.304 1230.5,252.5C 1325.32,252.604 1420.49,252.937 1516,253.5C 1522.42,252.687 1528.92,252.187 1535.5,252C 1539.22,248.057 1542.05,243.557 1544,238.5C 1552.45,228.206 1559.95,217.206 1566.5,205.5C 1571.47,201.685 1574.64,196.685 1576,190.5C 1581.42,184.917 1585.75,178.584 1589,171.5C 1591.33,167.833 1594.33,164.833 1598,162.5C 1600.12,158.703 1601.79,154.703 1603,150.5C 1607.58,146.267 1610.91,141.267 1613,135.5C 1624.92,118.585 1636.42,101.418 1647.5,84C 1649.59,83.2078 1651.42,82.0412 1653,80.5C 1660.33,112.493 1667.67,144.493 1675,176.5C 1676.74,175.044 1678.58,173.711 1680.5,172.5C 1681.47,169.698 1683.3,167.698 1686,166.5C 1686.33,165.167 1686.67,163.833 1687,162.5C 1697.76,155.405 1707.59,147.238 1716.5,138C 1730.08,128.75 1742.75,118.416 1754.5,107C 1756.68,105.798 1759.01,105.298 1761.5,105.5C 1762.13,102.685 1763.46,100.185 1765.5,98C 1775.37,93.111 1783.71,86.4443 1790.5,78C 1793.85,75.9682 1797.19,73.9682 1800.5,72C 1802.59,69.1215 1804.92,66.4548 1807.5,64C 1812.48,61.3295 1817.15,58.3295 1821.5,55C 1823.87,52.961 1825.87,50.6277 1827.5,48C 1840.15,38.3488 1852.48,28.3488 1864.5,18C 1867.62,16.8529 1870.62,15.5196 1873.5,14C 1876.03,8.1345 1880.36,4.46783 1886.5,3C 1887.73,1.59524 1889.06,0.428572 1890.5,-0.5 Z M 1768.5,550.5 C 1769.77,551.077 1769.77,551.743 1768.5,552.5C 1767.54,552.03 1767.54,551.363 1768.5,550.5 Z M 204.5,664.5 C 207.001,664.511 207.168,665.178 205,666.5C 204.536,665.906 204.369,665.239 204.5,664.5 Z"/></g>
<g><path style="opacity:1" fill="#fefffe" d="M 1870.5,37.5 C 1871.04,37.56 1871.38,37.8933 1871.5,38.5C 1869.89,42.1716 1868.39,45.8382 1867,49.5C 1863.48,55.7083 1860.15,62.0416 1857,68.5C 1856.68,73.1639 1855.02,77.1639 1852,80.5C 1851.28,84.5648 1849.62,88.2315 1847,91.5C 1846.16,98.0504 1843.49,103.717 1839,108.5C 1836.34,118.19 1832.34,127.19 1827,135.5C 1826.68,139.799 1825.02,143.465 1822,146.5C 1821.67,148.5 1821.33,150.5 1821,152.5C 1818.27,156.241 1815.93,160.241 1814,164.5C 1807.67,179.414 1801.33,194.414 1795,209.5C 1789.23,216.994 1787.57,225.328 1790,234.5C 1791.54,236.378 1793.38,237.878 1795.5,239C 1825.72,238.686 1855.89,238.853 1886,239.5C 1889.52,239.642 1892.85,238.976 1896,237.5C 1897.5,238 1899,238.5 1900.5,239C 1906.56,239.155 1912.56,239.322 1918.5,239.5C 1913.98,243.848 1909.65,248.348 1905.5,253C 1896.03,259.516 1887.53,267.016 1880,275.5C 1877.4,280.296 1873.57,283.796 1868.5,286C 1865.78,289.744 1862.78,293.244 1859.5,296.5C 1854.43,298.239 1851.09,301.572 1849.5,306.5C 1847.17,306.247 1845.17,306.914 1843.5,308.5C 1835.2,316.627 1826.7,324.627 1818,332.5C 1816.55,336.488 1813.72,338.988 1809.5,340C 1803.54,345.964 1797.7,351.797 1792,357.5C 1791.6,358.872 1791.1,360.205 1790.5,361.5C 1778.19,375.232 1765.69,388.566 1753,401.5C 1752.76,409.07 1751.92,416.57 1750.5,424C 1750.93,461.083 1750.93,498.25 1750.5,535.5C 1751.14,541.009 1751.81,546.509 1752.5,552C 1751.91,554.196 1751.24,556.362 1750.5,558.5C 1751.35,571.053 1751.35,583.886 1750.5,597C 1752.71,600.551 1752.71,604.218 1750.5,608C 1750.93,614.805 1751.93,621.471 1753.5,628C 1751.93,629.684 1750.93,631.684 1750.5,634C 1751.23,636.816 1751.9,639.65 1752.5,642.5C 1751.74,678.858 1751.41,715.192 1751.5,751.5C 1752.45,762.097 1753.12,772.597 1753.5,783C 1753.34,785.637 1752.68,788.137 1751.5,790.5C 1752.68,793.636 1752.68,796.803 1751.5,800C 1752.17,802.667 1752.83,805.333 1753.5,808C 1752.69,810.46 1752.02,812.96 1751.5,815.5C 1751.49,817.593 1752.15,819.426 1753.5,821C 1752.68,822.923 1752.02,824.923 1751.5,827C 1752.55,833.652 1752.55,840.486 1751.5,847.5C 1752.07,851.726 1752.74,855.892 1753.5,860C 1752.74,861.441 1752.07,862.941 1751.5,864.5C 1753.49,876.615 1753.49,888.782 1751.5,901C 1752.13,903.343 1753.13,905.51 1754.5,907.5C 1751.92,913.714 1751.92,919.88 1754.5,926C 1753.07,931.367 1752.4,936.867 1752.5,942.5C 1711.66,943.046 1670.49,943.046 1629,942.5C 1626.29,943.01 1623.63,943.677 1621,944.5C 1617.92,943.437 1614.75,942.771 1611.5,942.5C 1575.92,942.956 1540.75,942.956 1506,942.5C 1503.29,943.01 1500.63,943.677 1498,944.5C 1483.44,943.464 1468.78,943.464 1454,944.5C 1451.54,943.112 1448.87,942.446 1446,942.5C 1441.13,942.962 1436.3,943.629 1431.5,944.5C 1424.27,942.341 1417.11,942.341 1410,944.5C 1408.13,943.932 1406.3,943.265 1404.5,942.5C 1393.88,941.901 1382.88,942.567 1371.5,944.5C 1362.35,943.82 1353.18,943.153 1344,942.5C 1341.07,943.483 1338.07,944.149 1335,944.5C 1325.93,943.046 1317.27,943.38 1309,945.5C 1303.82,944.011 1298.49,943.345 1293,943.5C 1270.21,944.319 1247.54,944.319 1225,943.5C 1220.15,945.448 1215.48,945.448 1211,943.5C 1169.97,943.503 1129.14,943.503 1088.5,943.5C 1083.52,943.443 1078.69,944.11 1074,945.5C 1071.54,944.782 1069.04,944.115 1066.5,943.5C 1060.86,943.561 1055.19,943.561 1049.5,943.5C 1047.94,944.074 1046.44,944.74 1045,945.5C 1036.35,944.613 1027.51,944.613 1018.5,945.5C 1014.97,944.869 1011.47,944.202 1008,943.5C 1006.33,944.167 1004.67,944.833 1003,945.5C 999.769,944.516 996.436,943.849 993,943.5C 979.896,944.458 966.729,944.458 953.5,943.5C 951.303,944.066 949.136,944.732 947,945.5C 941.509,944.808 936.009,944.141 930.5,943.5C 922.257,943.047 914.09,943.714 906,945.5C 904.293,944.541 902.459,943.875 900.5,943.5C 894.798,945.913 889.132,945.913 883.5,943.5C 875.664,945.364 867.83,946.03 860,945.5C 853.472,943.084 847.139,943.418 841,946.5C 836.345,943.643 831.678,943.309 827,945.5C 813.284,944.146 799.784,943.48 786.5,943.5C 777.303,944.154 768.136,944.821 759,945.5C 709.605,944.594 660.272,944.261 611,944.5C 603.904,946.69 596.737,946.69 589.5,944.5C 586.978,945.089 584.478,945.755 582,946.5C 579.355,945.084 576.521,944.417 573.5,944.5C 528.583,945.455 483.75,945.455 439,944.5C 429.586,945.641 420.086,946.308 410.5,946.5C 409.061,960.354 406.728,974.021 403.5,987.5C 403.57,988.772 403.903,989.938 404.5,991C 401.626,993.532 400.626,996.532 401.5,1000C 400.167,1003.67 398.833,1007.33 397.5,1011C 397.718,1015.97 396.551,1020.8 394,1025.5C 392.833,1024.33 391.667,1023.17 390.5,1022C 381.26,1019.43 373.594,1014.43 367.5,1007C 358.18,1002.34 349.513,996.673 341.5,990C 338.754,988.25 335.754,987.25 332.5,987C 323.35,979.647 317.517,981.814 315,993.5C 312.877,996.113 310.544,998.446 308,1000.5C 301.229,1010.26 294.895,1020.26 289,1030.5C 285.204,1032.74 282.871,1036.07 282,1040.5C 275.928,1047 270.595,1054 266,1061.5C 264.956,1063.71 264.29,1066.05 264,1068.5C 250.689,1083.13 239.356,1099.13 230,1116.5C 226.994,1117.84 225.494,1120.17 225.5,1123.5C 224.178,1123.33 223.011,1123.66 222,1124.5C 218.131,1130.24 214.798,1136.24 212,1142.5C 211,1143.17 210,1143.83 209,1144.5C 199.973,1157.91 190.973,1171.24 182,1184.5C 181.191,1175.76 181.691,1167.09 183.5,1158.5C 181.278,1155.04 181.278,1151.71 183.5,1148.5C 183.167,1147.83 182.833,1147.17 182.5,1146.5C 184.848,1140.61 184.848,1134.78 182.5,1129C 185.127,1123 186.127,1116.83 185.5,1110.5C 186.559,1101.3 187.559,1092.13 188.5,1083C 188.232,1079.17 187.899,1075.33 187.5,1071.5C 190.099,1067.66 190.099,1063.83 187.5,1060C 189.27,1056.93 190.27,1053.59 190.5,1050C 191.767,1042.07 191.767,1034.07 190.5,1026C 192.183,1017.23 193.016,1008.4 193,999.5C 192.215,997.714 191.049,996.214 189.5,995C 185.18,993.602 180.847,993.102 176.5,993.5C 169.693,994.646 163.026,996.313 156.5,998.5C 155.393,997.978 154.226,997.645 153,997.5C 142.967,998.717 133.134,1000.72 123.5,1003.5C 122.554,1003.01 121.554,1002.68 120.5,1002.5C 114.631,1004.43 108.631,1005.77 102.5,1006.5C 101.393,1005.98 100.226,1005.64 99,1005.5C 91.485,1006.9 83.985,1008.4 76.5,1010C 63.3131,1010.77 50.3131,1012.44 37.5,1015C 48.507,1005.99 59.1737,996.656 69.5,987C 71.9725,985.202 73.6392,982.868 74.5,980C 80.7084,977.129 85.7084,972.796 89.5,967C 94.9948,965.013 99.1615,961.513 102,956.5C 109.606,951.729 116.106,945.729 121.5,938.5C 122.795,937.902 124.128,937.402 125.5,937C 128.561,933.274 132.228,930.274 136.5,928C 143.5,919.667 151.167,912 159.5,905C 165.657,902.21 170.157,897.71 173,891.5C 190.221,875.124 207.387,858.624 224.5,842C 223.497,836.339 222.497,830.672 221.5,825C 222.78,819.534 222.78,813.867 221.5,808C 221.732,802.943 222.398,797.943 223.5,793C 223.067,755.917 223.067,718.75 223.5,681.5C 222.859,675.991 222.192,670.491 221.5,665C 222.09,662.804 222.757,660.638 223.5,658.5C 222.654,645.947 222.654,633.114 223.5,620C 221.286,616.449 221.286,612.782 223.5,609C 223.073,602.195 222.073,595.529 220.5,589C 222.066,587.316 223.066,585.316 223.5,583C 222.77,580.184 222.103,577.35 221.5,574.5C 222.258,538.142 222.591,501.808 222.5,465.5C 221.551,454.903 220.884,444.403 220.5,434C 220.657,431.363 221.323,428.863 222.5,426.5C 221.324,423.364 221.324,420.197 222.5,417C 221.833,414.333 221.167,411.667 220.5,409C 221.313,406.54 221.98,404.04 222.5,401.5C 222.514,399.407 221.848,397.574 220.5,396C 221.316,394.077 221.983,392.077 222.5,390C 221.446,383.348 221.446,376.514 222.5,369.5C 221.93,365.274 221.263,361.108 220.5,357C 221.26,355.559 221.926,354.059 222.5,352.5C 220.513,340.385 220.513,328.218 222.5,316C 221.873,313.657 220.873,311.49 219.5,309.5C 222.076,303.286 222.076,297.12 219.5,291C 220.93,285.633 221.597,280.133 221.5,274.5C 262.341,273.954 303.508,273.954 345,274.5C 347.706,273.99 350.373,273.323 353,272.5C 356.084,273.563 359.251,274.229 362.5,274.5C 398.079,274.044 433.246,274.044 468,274.5C 470.706,273.99 473.373,273.323 476,272.5C 490.558,273.536 505.224,273.536 520,272.5C 522.46,273.888 525.127,274.554 528,274.5C 532.865,274.038 537.698,273.371 542.5,272.5C 549.726,274.659 556.893,274.659 564,272.5C 565.872,273.068 567.705,273.735 569.5,274.5C 580.122,275.099 591.122,274.433 602.5,272.5C 611.654,273.18 620.82,273.847 630,274.5C 632.93,273.517 635.93,272.851 639,272.5C 648.067,273.954 656.734,273.62 665,271.5C 670.181,272.989 675.515,273.655 681,273.5C 703.79,272.681 726.457,272.681 749,273.5C 753.85,271.552 758.517,271.552 763,273.5C 804.027,273.497 844.86,273.497 885.5,273.5C 890.476,273.557 895.309,272.89 900,271.5C 902.461,272.218 904.961,272.885 907.5,273.5C 913.141,273.439 918.807,273.439 924.5,273.5C 926.059,272.926 927.559,272.26 929,271.5C 937.654,272.387 946.487,272.387 955.5,271.5C 959.034,272.131 962.534,272.798 966,273.5C 967.667,272.833 969.333,272.167 971,271.5C 974.231,272.484 977.564,273.151 981,273.5C 994.104,272.542 1007.27,272.542 1020.5,273.5C 1022.7,272.934 1024.86,272.268 1027,271.5C 1032.49,272.192 1037.99,272.859 1043.5,273.5C 1051.74,273.953 1059.91,273.286 1068,271.5C 1069.71,272.459 1071.54,273.125 1073.5,273.5C 1079.2,271.087 1084.87,271.087 1090.5,273.5C 1098.34,271.636 1106.17,270.97 1114,271.5C 1120.53,273.916 1126.86,273.582 1133,270.5C 1137.66,273.357 1142.32,273.691 1147,271.5C 1160.72,272.854 1174.22,273.52 1187.5,273.5C 1196.7,272.846 1205.86,272.179 1215,271.5C 1264.39,272.406 1313.73,272.739 1363,272.5C 1370.1,270.31 1377.26,270.31 1384.5,272.5C 1387.02,271.911 1389.52,271.245 1392,270.5C 1394.65,271.916 1397.48,272.583 1400.5,272.5C 1445.42,271.545 1490.25,271.545 1535,272.5C 1538.79,271.864 1542.62,271.197 1546.5,270.5C 1553.75,261.218 1559.59,251.551 1564,241.5C 1565,240.833 1566,240.167 1567,239.5C 1571,232.833 1575,226.167 1579,219.5C 1582.17,217.842 1583.83,215.175 1584,211.5C 1589.88,206.273 1594.22,199.94 1597,192.5C 1603.44,185.96 1608.11,178.293 1611,169.5C 1617.27,164.899 1621.6,158.899 1624,151.5C 1628.59,148.247 1631.59,143.914 1633,138.5C 1634,137.833 1635,137.167 1636,136.5C 1639.6,129.9 1643.6,123.566 1648,117.5C 1652.16,133.321 1655.66,149.154 1658.5,165C 1658.26,165.873 1657.93,166.707 1657.5,167.5C 1657.98,172.298 1658.98,176.965 1660.5,181.5C 1658.35,187.689 1660.02,192.522 1665.5,196C 1669.57,196.658 1673.57,196.325 1677.5,195C 1684.64,187.739 1692.64,181.406 1701.5,176C 1709.51,167.488 1718.51,160.155 1728.5,154C 1740.58,142.259 1753.58,131.593 1767.5,122C 1771.82,117.315 1776.82,113.315 1782.5,110C 1787.33,102.839 1793.66,97.5052 1801.5,94C 1807.29,88.1994 1813.62,83.1994 1820.5,79C 1824.97,74.2699 1829.64,69.7699 1834.5,65.5C 1846.96,56.6218 1858.96,47.2885 1870.5,37.5 Z"/></g>
<g><path style="opacity:1" fill="#000000" d="M 1668.5,83.5 C 1669.57,84.2506 1669.74,85.2506 1669,86.5C 1668.52,85.552 1668.35,84.552 1668.5,83.5 Z"/></g>
</svg>
