<?xml version="1.0" encoding="UTF-8"?>
<!DOCTYPE svg PUBLIC "-//W3C//DTD SVG 1.1//EN" "http://www.w3.org/Graphics/SVG/1.1/DTD/svg11.dtd">
<svg xmlns="http://www.w3.org/2000/svg" version="1.1" width="1947px" height="579px" style="shape-rendering:geometricPrecision; text-rendering:geometricPrecision; image-rendering:optimizeQuality; fill-rule:evenodd; clip-rule:evenodd" xmlns:xlink="http://www.w3.org/1999/xlink">
<g><path style="opacity:1" fill="#000000" d="M 4.5,-0.5 C 7.16667,-0.5 9.83333,-0.5 12.5,-0.5C 28.6941,0.220444 45.0275,1.22044 61.5,2.5C 64.4901,2.37711 67.3234,1.71044 70,0.5C 219.663,0.988433 369.163,0.988433 518.5,0.5C 523.212,0.812723 527.712,1.81272 532,3.5C 534.224,1.80466 536.724,0.804663 539.5,0.5C 572.375,1.3748 605.541,1.3748 639,0.5C 642.995,0.353167 646.828,1.01983 650.5,2.5C 654.456,1.6715 658.456,1.00483 662.5,0.5C 678.154,1.80782 693.654,1.80782 709,0.5C 712.537,0.973978 716.037,1.64064 719.5,2.5C 725.74,1.0311 732.073,0.364436 738.5,0.5C 767.306,1.80758 795.64,1.80758 823.5,0.5C 826.083,1.47902 828.749,2.14569 831.5,2.5C 838.433,1.13936 845.433,0.472698 852.5,0.5C 860.684,1.45032 868.851,1.45032 877,0.5C 882.13,0.518971 887.13,1.18564 892,2.5C 895.806,0.976735 899.806,0.310069 904,0.5C 909.25,1.11763 914.416,1.11763 919.5,0.5C 923.106,0.609842 926.606,1.27651 930,2.5C 932.166,1.25045 934.499,0.583787 937,0.5C 1125.08,1.51274 1313.25,1.51274 1501.5,0.5C 1506.14,0.483295 1510.64,1.14996 1515,2.5C 1518.64,0.986268 1522.47,0.319602 1526.5,0.5C 1545.92,1.33534 1565.08,1.33534 1584,0.5C 1586.53,0.565076 1588.86,1.23174 1591,2.5C 1605.01,0.182834 1619.01,0.182834 1633,2.5C 1641.68,-0.165332 1650.34,-0.165332 1659,2.5C 1660.99,1.33582 1663.16,0.669153 1665.5,0.5C 1672.98,1.40402 1680.48,1.40402 1688,0.5C 1693.15,0.364071 1698.15,1.03074 1703,2.5C 1704.91,1.07022 1707.07,0.403549 1709.5,0.5C 1713.51,1.70393 1717.51,1.70393 1721.5,0.5C 1726.24,1.00807 1730.9,1.84141 1735.5,3C 1737.05,4.21398 1738.22,5.71398 1739,7.5C 1738.87,15.3833 1739.37,23.3833 1740.5,31.5C 1739.31,33.359 1739.31,35.1923 1740.5,37C 1739.98,39.4133 1738.98,41.5799 1737.5,43.5C 1738.14,48.563 1739.14,53.563 1740.5,58.5C 1739.2,63.3406 1739.2,68.174 1740.5,73C 1739.83,75.6667 1739.17,78.3333 1738.5,81C 1738.78,95.3514 1738.78,109.685 1738.5,124C 1738.44,131.571 1739.1,139.071 1740.5,146.5C 1739.96,158.599 1739.96,170.599 1740.5,182.5C 1740.47,185.967 1739.8,189.3 1738.5,192.5C 1739.82,198.364 1739.82,204.197 1738.5,210C 1739.23,214.285 1739.89,218.619 1740.5,223C 1740.31,232.857 1740.31,242.524 1740.5,252C 1738.27,264.647 1738.27,277.314 1740.5,290C 1740.26,291.984 1739.59,293.817 1738.5,295.5C 1739.27,297.295 1739.93,299.128 1740.5,301C 1740.35,304.815 1740.35,308.648 1740.5,312.5C 1739.67,315.62 1739.01,318.787 1738.5,322C 1740.29,334.321 1742.79,346.487 1746,358.5C 1753.94,371.945 1760.94,385.945 1767,400.5C 1784.96,423.791 1803.63,446.458 1823,468.5C 1851.89,498.185 1881.72,526.852 1912.5,554.5C 1913.91,555.806 1915.58,556.64 1917.5,557C 1923.75,563.419 1930.75,568.919 1938.5,573.5C 1937.19,573.824 1936.35,574.491 1936,575.5C 1930.92,573.939 1925.76,572.772 1920.5,572C 1904.44,567.219 1888.44,562.553 1872.5,558C 1837.89,545.357 1803.55,532.357 1769.5,519C 1767.73,517.302 1765.73,515.969 1763.5,515C 1737.24,504.475 1711.57,492.809 1686.5,480C 1679.58,479.317 1672.75,477.817 1666,475.5C 1635.72,476.353 1604.72,476.686 1573,476.5C 1569.83,476.333 1566.67,476.167 1563.5,476C 1560.95,474.767 1558.29,474.934 1555.5,476.5C 1551.32,473.922 1547.15,473.922 1543,476.5C 1540.87,476.038 1538.54,476.038 1536,476.5C 1532.18,476.469 1528.52,475.802 1525,474.5C 1523.26,475.894 1521.26,476.561 1519,476.5C 1515.25,475.847 1511.42,475.847 1507.5,476.5C 1504.15,476.626 1500.98,475.959 1498,474.5C 1494.36,475.259 1490.69,475.926 1487,476.5C 1478.91,475.865 1470.57,475.865 1462,476.5C 1454.95,476.678 1448.28,476.011 1442,474.5C 1439.86,475.768 1437.53,476.435 1435,476.5C 1388.82,476.081 1342.82,476.081 1297,476.5C 1291.29,476.162 1285.63,475.495 1280,474.5C 1277.61,474.963 1275.28,475.63 1273,476.5C 1248.57,475.422 1224.07,475.422 1199.5,476.5C 1197.81,476.24 1196.31,475.573 1195,474.5C 1192.12,475.544 1189.12,476.21 1186,476.5C 1174.26,475.491 1162.59,475.491 1151,476.5C 1148.36,476.343 1145.86,475.677 1143.5,474.5C 1137.95,475.981 1132.29,476.648 1126.5,476.5C 1105.28,475.991 1084.11,475.991 1063,476.5C 1059.83,476.333 1056.67,476.167 1053.5,476C 1052.58,475.626 1051.75,475.126 1051,474.5C 1045.06,475.699 1039.06,475.699 1033,474.5C 1029.6,475.613 1026.1,476.28 1022.5,476.5C 987.664,475.201 952.664,475.201 917.5,476.5C 912.698,476.642 908.031,475.976 903.5,474.5C 901.5,475.167 899.5,475.833 897.5,476.5C 839.716,476.246 782.216,476.246 725,476.5C 722.739,476.561 720.739,475.894 719,474.5C 717.43,475.358 715.763,476.025 714,476.5C 704.858,476.043 695.691,476.043 686.5,476.5C 681.83,476.661 677.33,475.995 673,474.5C 670.782,475.472 668.449,476.139 666,476.5C 627.346,476.431 588.68,476.431 550,476.5C 548.215,475.76 546.382,475.093 544.5,474.5C 540.324,476.012 535.99,476.679 531.5,476.5C 518.861,475.84 506.361,475.84 494,476.5C 488.012,474.27 482.012,474.27 476,476.5C 463.284,475.888 450.45,475.888 437.5,476.5C 426.91,474.606 416.41,474.606 406,476.5C 310.268,476.034 214.102,476.034 117.5,476.5C 113.46,476.199 109.627,475.199 106,473.5C 105.25,474.126 104.416,474.626 103.5,475C 96.2534,475.185 89.0867,475.685 82,476.5C 55.101,475.854 28.2677,475.854 1.5,476.5C 1.88934,473.447 1.22267,470.78 -0.5,468.5C -0.5,465.167 -0.5,461.833 -0.5,458.5C 0.833333,456.5 0.833333,454.5 -0.5,452.5C -0.5,446.5 -0.5,440.5 -0.5,434.5C 0.833333,433.5 0.833333,432.5 -0.5,431.5C -0.5,421.5 -0.5,411.5 -0.5,401.5C 0.833333,399.833 0.833333,398.167 -0.5,396.5C -0.5,395.5 -0.5,394.5 -0.5,393.5C 0.833333,392.5 0.833333,391.5 -0.5,390.5C -0.5,388.833 -0.5,387.167 -0.5,385.5C 0.833333,383.833 0.833333,382.167 -0.5,380.5C -0.5,375.833 -0.5,371.167 -0.5,366.5C 2.16667,363.833 2.16667,361.167 -0.5,358.5C -0.5,356.833 -0.5,355.167 -0.5,353.5C 0.833333,352.167 0.833333,350.833 -0.5,349.5C -0.5,347.167 -0.5,344.833 -0.5,342.5C 0.833333,339.833 0.833333,337.167 -0.5,334.5C -0.5,331.833 -0.5,329.167 -0.5,326.5C 0.833333,324.833 0.833333,323.167 -0.5,321.5C -0.5,319.833 -0.5,318.167 -0.5,316.5C 0.833333,314.833 0.833333,313.167 -0.5,311.5C -0.5,310.5 -0.5,309.5 -0.5,308.5C 0.833333,306.833 0.833333,305.167 -0.5,303.5C -0.5,296.167 -0.5,288.833 -0.5,281.5C 0.833333,278.167 0.833333,274.833 -0.5,271.5C -0.5,271.167 -0.5,270.833 -0.5,270.5C 0.833333,266.167 0.833333,261.833 -0.5,257.5C -0.5,255.5 -0.5,253.5 -0.5,251.5C 0.833333,250.833 0.833333,250.167 -0.5,249.5C -0.5,246.833 -0.5,244.167 -0.5,241.5C 0.833333,240.833 0.833333,240.167 -0.5,239.5C -0.5,238.833 -0.5,238.167 -0.5,237.5C 0.833333,237.167 0.833333,236.833 -0.5,236.5C -0.5,232.5 -0.5,228.5 -0.5,224.5C 0.833333,223.5 0.833333,222.5 -0.5,221.5C -0.5,217.833 -0.5,214.167 -0.5,210.5C 0.833333,208.5 0.833333,206.5 -0.5,204.5C -0.5,199.833 -0.5,195.167 -0.5,190.5C 0.390917,189.739 1.05758,188.739 1.5,187.5C 0.932936,185.018 0.266269,182.684 -0.5,180.5C -0.5,178.5 -0.5,176.5 -0.5,174.5C 0.267389,173.828 0.934056,172.995 1.5,172C 0.876708,169.393 0.210041,166.893 -0.5,164.5C -0.5,161.833 -0.5,159.167 -0.5,156.5C 0.833333,153.833 0.833333,151.167 -0.5,148.5C -0.5,145.833 -0.5,143.167 -0.5,140.5C 2.16667,138.833 2.16667,137.167 -0.5,135.5C -0.5,134.167 -0.5,132.833 -0.5,131.5C 0.833333,130.833 0.833333,130.167 -0.5,129.5C -0.5,123.5 -0.5,117.5 -0.5,111.5C 0.833333,111.167 0.833333,110.833 -0.5,110.5C -0.5,109.833 -0.5,109.167 -0.5,108.5C 0.833333,107.833 0.833333,107.167 -0.5,106.5C -0.5,103.5 -0.5,100.5 -0.5,97.5C 0.833333,96.5 0.833333,95.5 -0.5,94.5C -0.5,92.1667 -0.5,89.8333 -0.5,87.5C 0.833333,86.5 0.833333,85.5 -0.5,84.5C -0.5,82.8333 -0.5,81.1667 -0.5,79.5C 0.833333,77.1667 0.833333,74.8333 -0.5,72.5C -0.5,72.1667 -0.5,71.8333 -0.5,71.5C 0.833333,68.8333 0.833333,66.1667 -0.5,63.5C -0.5,61.8333 -0.5,60.1667 -0.5,58.5C 0.368899,56.016 1.03557,53.3493 1.5,50.5C 1.33179,48.8295 0.665127,47.4961 -0.5,46.5C -0.5,44.1667 -0.5,41.8333 -0.5,39.5C 2.07937,35.5303 2.07937,31.5303 -0.5,27.5C -0.5,26.5 -0.5,25.5 -0.5,24.5C 0.833333,23.8333 0.833333,23.1667 -0.5,22.5C -0.5,19.1667 -0.5,15.8333 -0.5,12.5C 0.833333,12.1667 0.833333,11.8333 -0.5,11.5C -0.5,9.16667 -0.5,6.83333 -0.5,4.5C 0.833333,2.5 2.5,0.833333 4.5,-0.5 Z"/></g>
<g><path style="opacity:1" fill="#fefffe" d="M 59.5,16.5 C 63.4501,16.4639 67.2835,17.1306 71,18.5C 73.3249,17.8155 75.6583,18.1489 78,19.5C 88.1365,18.822 98.3031,18.1553 108.5,17.5C 120.282,18.1231 132.116,18.1231 144,17.5C 149.394,18.0665 154.728,18.7332 160,19.5C 161.785,18.7599 163.618,18.0933 165.5,17.5C 173.167,18.1667 180.833,18.8333 188.5,19.5C 195.03,18.1819 201.53,18.1819 208,19.5C 210.068,18.6064 212.235,17.9397 214.5,17.5C 227.387,17.6589 240.221,17.6589 253,17.5C 257.976,19.3385 263.143,19.3385 268.5,17.5C 285.425,18.6132 302.425,18.6132 319.5,17.5C 322.251,17.8543 324.917,18.521 327.5,19.5C 330.334,18.1159 333.334,17.4492 336.5,17.5C 346.089,18.249 355.589,18.249 365,17.5C 367.637,17.6568 370.137,18.3235 372.5,19.5C 374.059,18.9264 375.559,18.2598 377,17.5C 387.618,17.5088 398.285,17.5088 409,17.5C 413.56,17.8821 418.06,18.5488 422.5,19.5C 425.167,18.8333 427.833,18.1667 430.5,17.5C 460.346,18.4483 490.179,18.7816 520,18.5C 524.366,18.0501 528.7,17.3834 533,16.5C 535.46,17.3134 537.96,17.9801 540.5,18.5C 549.007,17.5983 557.674,17.265 566.5,17.5C 568.167,18.1667 569.833,18.8333 571.5,19.5C 578.031,18.8515 584.531,18.1848 591,17.5C 607.596,18.1152 624.096,18.4486 640.5,18.5C 644.362,18.7004 648.029,18.0337 651.5,16.5C 655.616,17.3693 659.783,18.036 664,18.5C 678.387,18.452 692.72,18.452 707,18.5C 711.602,18.4273 716.102,17.7606 720.5,16.5C 721.795,17.0983 723.128,17.5983 724.5,18C 732.216,18.1986 739.882,18.6986 747.5,19.5C 749.432,18.6339 751.432,17.9672 753.5,17.5C 777.297,17.8002 800.963,18.1335 824.5,18.5C 827.167,17.8333 829.833,17.1667 832.5,16.5C 839.596,17.874 846.762,18.5406 854,18.5C 866.149,18.319 878.316,17.9857 890.5,17.5C 896.744,17.9402 902.911,18.6069 909,19.5C 912.415,17.4848 916.082,17.1515 920,18.5C 923.818,18.4691 927.485,17.8025 931,16.5C 933.294,17.8522 935.794,18.5189 938.5,18.5C 1090.07,17.6826 1241.91,17.3493 1394,17.5C 1397.39,18.0873 1400.72,18.7539 1404,19.5C 1406.8,18.2054 1409.63,18.2054 1412.5,19.5C 1414.98,18.771 1417.48,18.1043 1420,17.5C 1438.79,18.7279 1457.79,18.7279 1477,17.5C 1480.91,19.7423 1484.75,19.7423 1488.5,17.5C 1493.02,17.7698 1497.69,18.1031 1502.5,18.5C 1507.14,18.5167 1511.64,17.85 1516,16.5C 1517.07,17.1905 1518.23,17.6905 1519.5,18C 1527.83,18.1667 1536.17,18.3333 1544.5,18.5C 1569.02,17.8087 1593.52,17.8087 1618,18.5C 1623.64,18.6391 1629.14,17.9725 1634.5,16.5C 1643.01,19.1399 1651.51,19.1399 1660,16.5C 1662.14,17.7683 1664.47,18.4349 1667,18.5C 1684.55,18.4122 1702.05,18.2455 1719.5,18C 1722.13,22.7507 1722.8,27.7507 1721.5,33C 1721.36,36.5169 1722.02,39.8503 1723.5,43C 1722.28,45.384 1722.28,47.7174 1723.5,50C 1722.5,52.3333 1721.5,54.6667 1720.5,57C 1721.23,64.6103 1721.9,72.277 1722.5,80C 1721.56,89.3523 1721.22,98.8523 1721.5,108.5C 1722.11,110.709 1722.77,112.876 1723.5,115C 1722.19,121.062 1722.19,127.062 1723.5,133C 1722.64,134.57 1721.98,136.237 1721.5,138C 1721.4,142.124 1721.73,146.291 1722.5,150.5C 1721.83,152.833 1721.17,155.167 1720.5,157.5C 1720.6,166.352 1720.6,175.185 1720.5,184C 1721.47,186.218 1722.14,188.551 1722.5,191C 1722.04,211.003 1721.37,230.837 1720.5,250.5C 1720.88,256.595 1721.88,262.762 1723.5,269C 1721.98,275.547 1720.98,282.214 1720.5,289C 1721.17,291 1721.83,293 1722.5,295C 1721.93,308.03 1721.6,320.863 1721.5,333.5C 1722.72,339.786 1723.72,346.119 1724.5,352.5C 1724.39,353.442 1724.06,354.275 1723.5,355C 1726.67,361.5 1729.83,368 1733,374.5C 1741.42,387.672 1750.09,400.672 1759,413.5C 1762.21,420.914 1766.21,427.914 1771,434.5C 1780.23,445.277 1789.23,456.277 1798,467.5C 1802.02,469.853 1805.02,473.187 1807,477.5C 1825.16,497.993 1843.66,518.159 1862.5,538C 1862.17,538.167 1861.83,538.333 1861.5,538.5C 1853.02,536.438 1844.68,533.938 1836.5,531C 1833.28,527.521 1829.28,525.521 1824.5,525C 1817.96,520.178 1810.62,516.845 1802.5,515C 1770.85,500.702 1739.19,486.369 1707.5,472C 1702.13,468.663 1696.8,465.329 1691.5,462C 1684.2,460.198 1677.04,459.031 1670,458.5C 1631.32,458.609 1592.82,458.609 1554.5,458.5C 1552.43,458.967 1550.43,459.634 1548.5,460.5C 1540.6,458.29 1532.6,457.957 1524.5,459.5C 1514.43,457.433 1504.43,457.433 1494.5,459.5C 1488.31,458.357 1482.14,458.357 1476,459.5C 1472.67,458.833 1469.33,458.167 1466,457.5C 1462.09,458.247 1458.09,458.247 1454,457.5C 1450.27,458.487 1446.43,459.154 1442.5,459.5C 1435.8,458.965 1429.13,458.298 1422.5,457.5C 1406.82,458.743 1391.32,459.41 1376,459.5C 1369.8,457.245 1363.46,457.245 1357,459.5C 1350.22,458.226 1343.55,457.559 1337,457.5C 1333.38,458.382 1329.71,459.048 1326,459.5C 1312.64,459.574 1299.31,459.241 1286,458.5C 1282.16,460.436 1278.32,460.603 1274.5,459C 1262.49,458.389 1250.49,458.556 1238.5,459.5C 1231.57,459.34 1224.73,458.673 1218,457.5C 1212.67,458.167 1207.33,458.833 1202,459.5C 1167.63,458.324 1133.13,458.324 1098.5,459.5C 1084.69,458.807 1070.86,458.14 1057,457.5C 1047.62,458.766 1038.45,459.766 1029.5,460.5C 1027.25,459.305 1024.92,458.305 1022.5,457.5C 1018.5,458.167 1014.5,458.833 1010.5,459.5C 1006.96,456.92 1003.46,456.92 1000,459.5C 998,458.833 996,458.167 994,457.5C 985.893,458.245 977.726,458.912 969.5,459.5C 955.171,458.786 940.838,458.786 926.5,459.5C 921.302,458.857 916.135,458.19 911,457.5C 906.387,460.288 901.72,460.621 897,458.5C 895.893,458.585 894.893,458.919 894,459.5C 888.865,458.81 883.698,458.143 878.5,457.5C 873.562,459.386 868.729,459.386 864,457.5C 855.973,459.987 847.973,459.987 840,457.5C 826.376,458.818 812.709,458.818 799,457.5C 795.692,458.274 792.359,458.94 789,459.5C 784.172,458.764 779.506,458.764 775,459.5C 766.927,457.574 758.76,457.574 750.5,459.5C 745.858,457.512 741.358,457.512 737,459.5C 732.612,458.999 728.279,458.665 724,458.5C 721.648,458.305 719.648,458.972 718,460.5C 716.426,459.152 714.593,458.486 712.5,458.5C 668.047,458.757 623.547,459.09 579,459.5C 577.215,458.76 575.382,458.093 573.5,457.5C 565.139,459.011 556.972,459.344 549,458.5C 547.016,458.741 545.183,459.408 543.5,460.5C 542.5,460 541.5,459.5 540.5,459C 537.167,458.833 533.833,458.667 530.5,458.5C 516.64,458.581 502.64,458.747 488.5,459C 485.562,460.335 482.562,460.168 479.5,458.5C 476.913,458.562 474.247,458.895 471.5,459.5C 462.97,458.847 454.47,458.18 446,457.5C 444.215,458.24 442.382,458.907 440.5,459.5C 435.013,459.209 429.513,458.876 424,458.5C 422,459.167 420,459.833 418,460.5C 413.769,459.187 409.436,458.521 405,458.5C 396.956,458.333 388.79,458.667 380.5,459.5C 377.334,459.551 374.334,458.884 371.5,457.5C 368.833,458.167 366.167,458.833 363.5,459.5C 334.947,458.632 306.947,458.632 279.5,459.5C 275.395,457.401 271.395,457.401 267.5,459.5C 251.089,458.48 234.756,458.48 218.5,459.5C 209.993,458.848 201.493,458.182 193,457.5C 189.814,458.121 186.648,458.788 183.5,459.5C 174.872,458.437 166.205,458.437 157.5,459.5C 152.712,459.577 148.045,458.91 143.5,457.5C 141.137,458.677 138.637,459.343 136,459.5C 129.16,459.122 122.327,458.788 115.5,458.5C 112.041,458.542 108.708,459.209 105.5,460.5C 94.8129,458.889 84.1463,457.889 73.5,457.5C 71.5683,458.366 69.5683,459.033 67.5,459.5C 63.4731,458.905 59.4731,458.239 55.5,457.5C 43.8043,458.305 32.3043,458.972 21,459.5C 20.5358,448.103 19.7025,436.77 18.5,425.5C 20.8585,421.067 20.8585,416.567 18.5,412C 18.8592,387.884 19.1925,363.551 19.5,339C 19.4659,330.426 18.7993,321.926 17.5,313.5C 18.4681,307.055 19.1348,300.555 19.5,294C 18.3782,284.397 18.3782,274.897 19.5,265.5C 18.9264,263.941 18.2598,262.441 17.5,261C 18.3044,194.133 18.6378,127.8 18.5,62C 16.6112,56.0535 16.6112,50.2202 18.5,44.5C 18.0394,41.7842 17.3727,39.1175 16.5,36.5C 18.3054,30.4996 18.9721,24.4996 18.5,18.5C 32.3693,18.8153 46.036,18.1487 59.5,16.5 Z"/></g>
<g><path style="opacity:1" fill="#000000" d="M 1938.5,573.5 C 1941.19,574.847 1943.86,576.18 1946.5,577.5C 1946.5,577.833 1946.5,578.167 1946.5,578.5C 1945.5,578.5 1944.5,578.5 1943.5,578.5C 1942.22,577.069 1940.55,576.402 1938.5,576.5C 1938.5,575.5 1938.5,574.5 1938.5,573.5 Z"/></g>
</svg>
