<?xml version="1.0" encoding="UTF-8"?>
<svg version="1.1" xmlns="http://www.w3.org/2000/svg" width="837" height="330">
<path d="M0 0 C1.65817749 -0.00461494 1.65817749 -0.00461494 3.34985352 -0.00932312 C4.54666748 -0.0021376 5.74348145 0.00504791 6.9765625 0.01245117 C8.21140381 0.01290939 9.44624512 0.01336761 10.71850586 0.01383972 C14.00888866 0.01763963 17.29907922 0.03063953 20.5894165 0.04730225 C23.89944708 0.06065603 27.20947803 0.05757836 30.51953125 0.05737305 C33.06771032 0.06229421 35.61588782 0.06812511 38.1640625 0.07495117 C39.34468262 0.076064 40.52530273 0.07717682 41.74169922 0.07832336 C47.94799728 0.11334269 54.0162358 0.37425457 60.17944336 1.12773132 C62.82751726 1.25366564 65.02454153 0.82786484 67.6015625 0.24291992 C72.39643327 0.00561918 77.11601109 -0.01419474 81.8515625 0.80541992 C84.66427197 1.39391289 84.66427197 1.39391289 87.73754883 0.77856445 C91.93121423 0.19722232 95.95128579 0.09881746 100.17578125 0.11010742 C101.38340874 0.10867233 101.38340874 0.10867233 102.61543274 0.10720825 C104.31222614 0.10653102 106.0090222 0.10835325 107.70581055 0.11254883 C110.2642215 0.11786827 112.82245407 0.11260642 115.38085938 0.10620117 C123.29698246 0.10408191 131.09868465 0.17874181 138.97192383 1.1262207 C141.68170721 1.33974573 141.68170721 1.33974573 144.63568115 0.72311401 C149.40845425 0.14522041 153.89988703 0.38241185 158.68530273 0.67651367 C168.94771233 1.22259322 179.16739292 1.36464194 189.4424305 1.31808472 C192.35660141 1.30499369 195.27072547 1.29872709 198.18492126 1.29394531 C204.34465676 1.28270226 210.50435169 1.26338688 216.6640625 1.24291992 C223.87185305 1.21922247 231.07962283 1.19893688 238.28744316 1.1869812 C241.15081101 1.180529 244.01411103 1.16803868 246.87745667 1.15527344 C248.62541649 1.15164273 250.37337692 1.14829077 252.12133789 1.14526367 C252.91036499 1.14009735 253.69939209 1.13493103 254.5123291 1.12960815 C258.34827621 1.12923891 261.86538278 1.37804669 265.6015625 2.24291992 C267.72670264 2.16146308 267.72670264 2.16146308 269.8203125 1.81713867 C274.59784414 1.20313885 279.28851471 1.05934574 284.1015625 1.05541992 C285.28685547 1.03705078 285.28685547 1.03705078 286.49609375 1.01831055 C291.41377607 1.00623768 295.6683979 1.57181018 300.38085938 3.00732422 C302.74114487 3.4138684 302.74114487 3.4138684 305.41699219 2.29541016 C309.11911574 1.07187024 311.94756964 1.10287494 315.8359375 1.26635742 C316.51400452 1.29138336 317.19207153 1.3164093 317.89068604 1.3421936 C320.04487235 1.42371423 322.19805366 1.52025293 324.3515625 1.61791992 C326.48538711 1.7050148 328.61931491 1.78896441 330.7532959 1.87213135 C332.13235665 1.92624782 333.51134777 1.98217176 334.89025879 2.03997803 C339.4971724 2.22677528 344.08333576 2.27366016 348.69238281 2.16723633 C350.6015625 2.24291992 350.6015625 2.24291992 353.6015625 3.24291992 C355.0865625 2.74791992 355.0865625 2.74791992 356.6015625 2.24291992 C359.17627598 2.14682112 361.72365103 2.10647073 364.29833984 2.11352539 C365.08078568 2.11177307 365.86323151 2.11002075 366.66938782 2.10821533 C369.25878104 2.10381034 371.84810607 2.10673064 374.4375 2.11010742 C376.2372743 2.10943386 378.03704852 2.10846339 379.83682251 2.10720825 C383.61127589 2.105733 387.38570562 2.10787981 391.16015625 2.11254883 C395.99448219 2.11823782 400.82875251 2.11497128 405.6630764 2.10897636 C409.38113828 2.10535913 413.09918702 2.10651484 416.8172493 2.10910416 C418.59941235 2.10977063 420.3815766 2.10895477 422.16373825 2.1066246 C424.65785621 2.10407995 427.15188478 2.10796463 429.64599609 2.11352539 C430.3807164 2.11150116 431.11543671 2.10947693 431.87242126 2.10739136 C435.59257654 2.12272599 438.96675553 2.50936903 442.6015625 3.24291992 C443.2615625 2.91291992 443.9215625 2.58291992 444.6015625 2.24291992 C446.72474314 2.14563132 448.85115941 2.11314374 450.9765625 2.11791992 C452.11867188 2.1153418 453.26078125 2.11276367 454.4375 2.11010742 C457.07820567 2.22095186 459.08018612 2.59092764 461.6015625 3.24291992 C467.42253276 3.53699569 473.18888903 3.34064341 478.9765625 2.68041992 C483.25772145 2.23074423 487.25095419 2.37106421 491.5390625 2.74291992 C497.02488564 3.21501146 502.1086784 3.06953345 507.57421875 2.50463867 C514.22180889 1.92994378 521.12049147 1.49275728 527.6015625 3.24291992 C531.98632795 3.39411873 536.12463559 3.20730416 540.4765625 2.68041992 C544.93224718 2.17924121 548.98700625 2.5027883 553.421875 3.05541992 C555.98152367 3.27560475 558.10243687 2.78327141 560.6015625 2.24291992 C561.60683487 2.39592056 562.61210724 2.5489212 563.64784241 2.70655823 C568.2011392 3.3242585 572.58703541 3.36025487 577.17358398 3.32470703 C578.10785217 3.32164047 579.04212036 3.31857391 580.00469971 3.31541443 C582.02352708 3.3082879 584.04234752 3.29891302 586.06115532 3.28751945 C589.26058794 3.27005664 592.45997011 3.25980698 595.65943909 3.25160217 C604.75290697 3.22721195 613.84630668 3.19160022 622.93969727 3.14697266 C628.51094682 3.12013399 634.08215736 3.10312824 639.65345955 3.09210396 C641.77087917 3.08591232 643.88829134 3.07592986 646.00567436 3.06202507 C648.97054834 3.04272556 651.93521797 3.03590125 654.90014648 3.03173828 C655.7674086 3.02297668 656.63467072 3.01421509 657.5282135 3.00518799 C662.89909057 3.0137609 667.42845442 3.80209601 672.6015625 5.24291992 C675.802125 5.43887273 678.56460654 5.24882087 681.7308197 4.74325562 C686.01065112 4.19004076 690.16211385 4.07306148 694.47094727 4.05004883 C695.76012558 4.03778259 695.76012558 4.03778259 697.0753479 4.02526855 C699.89788135 4.00060715 702.72036546 3.98395517 705.54296875 3.96948242 C706.51095839 3.96415874 707.47894802 3.95883507 708.47627068 3.95335007 C713.59248942 3.92671212 718.70868447 3.90730095 723.82495117 3.89282227 C728.05303411 3.87944845 732.2806384 3.85151915 736.50854492 3.81079102 C741.6259896 3.76150761 746.74299824 3.73670824 751.86067009 3.72959518 C753.80672923 3.72288371 755.75277865 3.70766436 757.69870186 3.68370438 C760.42017678 3.65208512 763.1399619 3.65201 765.86157227 3.65942383 C766.66121902 3.64301849 767.46086578 3.62661316 768.28474426 3.60971069 C772.3645687 3.65514353 774.8595116 4.04853189 778.08531189 6.65438843 C781.39948422 10.06376245 781.7402572 11.50280763 781.7265625 16.11791992 C781.72914063 16.9815918 781.73171875 17.84526367 781.734375 18.73510742 C781.61145619 21.05610382 781.16421016 23.00178553 780.6015625 25.24291992 C780.92012701 27.24532542 781.25577482 29.24503554 781.6015625 31.24291992 C781.76952186 36.36568031 781.44966981 41.19130722 780.72265625 46.26245117 C780.46482206 48.45525934 780.46482206 48.45525934 781.6015625 51.24291992 C781.74419219 54.87997691 781.60277549 58.23477394 781.0662384 61.83795166 C780.43105041 66.78050114 780.74623341 71.57452778 781.04174805 76.53491211 C781.54581997 86.62369584 781.68935414 96.68853969 781.65161133 106.78686523 C781.64891184 107.52468656 781.64621236 108.26250789 781.64343107 109.02268744 C781.62778857 112.91158574 781.60757709 116.80044423 781.58503151 120.68930817 C781.55659411 125.68703804 781.54000534 130.68476867 781.52555847 135.68255615 C781.52041821 137.41092305 781.51526158 139.1392899 781.51008892 140.86765671 C781.50750336 141.73163747 781.5049178 142.59561824 781.50225389 143.48578024 C781.46652799 155.07612742 781.42072225 166.66637642 781.35473633 178.2565918 C781.30995118 186.13977147 781.2798982 194.02286695 781.26587886 201.90616298 C781.25789628 206.05149582 781.24278423 210.19650197 781.20920753 214.34171295 C779.63519725 241.88974073 779.63519725 241.88974073 787.6015625 267.24291992 C788.39979023 270.0931362 789.06019391 272.95993211 789.72265625 275.84448242 C790.01269531 276.6359668 790.30273438 277.42745117 790.6015625 278.24291992 C791.5915625 278.57291992 792.5815625 278.90291992 793.6015625 279.24291992 C794.62890625 281.38745117 794.62890625 281.38745117 795.5390625 284.05541992 C797.02501012 288.04819521 798.35262934 290.41320394 801.6015625 293.24291992 C802.04113281 293.97639648 802.48070312 294.70987305 802.93359375 295.46557617 C805.49534419 299.73116063 808.60659056 303.56336086 811.640625 307.50073242 C813.6015625 310.24291992 813.6015625 310.24291992 814.6015625 313.24291992 C815.49875 313.67604492 815.49875 313.67604492 816.4140625 314.11791992 C819.86940276 315.89495205 821.94737051 318.47145623 823.296875 322.12573242 C823.78317912 323.8175228 824.19838519 325.52941637 824.6015625 327.24291992 C822.85521085 327.77585827 821.10428598 328.29382655 819.3515625 328.80541992 C818.37703125 329.09545898 817.4025 329.38549805 816.3984375 329.68432617 C813.55972719 330.2512753 812.30033693 330.05593983 809.6015625 329.24291992 C807.68965882 329.47366692 805.77800859 329.70841639 803.87109375 329.97729492 C797.3342655 330.7423626 791.23803897 330.41650224 784.8671875 328.80151367 C782.538566 328.22738803 780.21569594 327.83079736 777.8515625 327.43041992 C769.18079641 325.70981478 760.69440046 322.56254839 753.6015625 317.24291992 C752.8384375 316.79948242 752.0753125 316.35604492 751.2890625 315.89916992 C748.3507297 314.08833691 745.76601242 312.06085202 743.1015625 309.86791992 C742.18375 309.11768555 741.2659375 308.36745117 740.3203125 307.59448242 C736.63333303 304.40545708 733.31882887 301.47251941 730.8515625 297.24291992 C728.15986141 293.65398514 725.47500231 292.21983138 721.52734375 290.22338867 C719.6015625 289.24291992 719.6015625 289.24291992 718.6015625 288.24291992 C717.15674054 288.16797131 715.70833529 288.15972317 714.26171875 288.18041992 C713.36259766 288.1881543 712.46347656 288.19588867 711.53710938 288.20385742 C709.65689448 288.22942119 707.77668577 288.25544465 705.89648438 288.28198242 C700.54375141 288.32744088 695.38875006 288.105445 690.08374023 287.36401367 C687.49681325 287.15557108 687.49681325 287.15557108 684.54760742 287.70727539 C679.25754763 288.42535936 674.05099687 288.38567483 668.71875 288.37573242 C667.58631866 288.37668915 666.45388733 288.37764587 665.28713989 288.37863159 C662.90187525 288.37930997 660.51660872 288.37747964 658.13134766 288.37329102 C654.48205426 288.36792799 650.83288339 288.37325278 647.18359375 288.37963867 C644.8619789 288.37897802 642.54036412 288.37769714 640.21875 288.37573242 C638.58424393 288.37876877 638.58424393 288.37876877 636.91671753 288.38186646 C635.89860992 288.37871429 634.88050232 288.37556213 633.83154297 288.37231445 C632.93998505 288.37151886 632.04842712 288.37072327 631.12985229 288.36990356 C628.53167316 288.23940972 626.14428435 287.7734162 623.6015625 287.24291992 C621.51628057 287.23882344 619.43038639 287.29595828 617.34765625 287.39916992 C616.16365234 287.45202148 614.97964844 287.50487305 613.75976562 287.55932617 C612.53193359 287.61991211 611.30410156 287.68049805 610.0390625 287.74291992 C607.60051845 287.86286924 605.16171455 287.97767658 602.72265625 288.08666992 C601.6442749 288.14016602 600.56589355 288.19366211 599.45483398 288.2487793 C596.9079948 288.2435492 595.0281332 287.91114862 592.6015625 287.24291992 C589.15417847 287.4127418 585.73983733 287.75374791 582.3046875 288.08666992 C578.6015625 288.24291992 578.6015625 288.24291992 575.01977539 287.7565918 C570.07432992 287.10245376 565.18815714 287.1358381 560.20703125 287.18041992 C559.22019852 287.18420654 558.23336578 287.18799316 557.21662903 287.19189453 C553.03637319 287.20803921 548.85621941 287.23588979 544.67602539 287.26342773 C533.29710311 287.33179662 521.97360855 287.32021181 510.61515808 286.56018066 C505.90433083 286.2527918 501.47177542 286.35351086 496.80078125 286.98120117 C491.74462188 287.58291108 486.60697342 287.61893447 481.6015625 286.68041992 C478.83548331 286.27703337 476.95265961 286.36713207 474.21484375 286.70776367 C468.06722597 287.3669553 461.96663886 287.38991723 455.7890625 287.36791992 C454.68369141 287.37178711 453.57832031 287.3756543 452.43945312 287.37963867 C451.37275391 287.37834961 450.30605469 287.37706055 449.20703125 287.37573242 C447.77073364 287.37404053 447.77073364 287.37404053 446.30541992 287.37231445 C443.6015625 287.24291992 443.6015625 287.24291992 440.9543457 286.70727539 C437.69022714 286.06305483 434.88492889 286.75041496 431.6015625 287.24291992 C427.35490633 287.44951401 423.31610743 287.3454316 419.10105896 286.74072266 C414.09721198 286.10804235 409.14298695 286.11782002 404.10571289 286.14526367 C403.08512283 286.14672394 402.06453278 286.1481842 401.01301575 286.14968872 C398.80868606 286.15347851 396.60435936 286.1595778 394.40004158 286.16775513 C390.90620947 286.18057777 387.41241557 286.18704954 383.91856384 286.19189453 C375.24262518 286.20522947 366.56672303 286.22943822 357.89080811 286.2532959 C350.55228821 286.27306183 343.21378189 286.2886876 335.87524223 286.29885864 C332.4426058 286.30531481 329.01002583 286.31782243 325.57740784 286.33056641 C323.46054126 286.33420107 321.34367418 286.33755254 319.22680664 286.34057617 C318.2805542 286.34574249 317.33430176 286.35090881 316.359375 286.35623169 C311.38584868 286.35662444 306.55220303 286.1181381 301.61905575 285.47120667 C298.05642254 285.06808168 294.49531339 285.09611687 290.9140625 285.11791992 C289.75656494 285.11973267 289.75656494 285.11973267 288.57568359 285.12158203 C282.48885338 285.16236166 276.48255417 285.54154838 270.421875 286.12182617 C267.83563923 286.23286954 266.05549714 285.95356163 263.6015625 285.24291992 C263.0240625 285.38729492 262.4465625 285.53166992 261.8515625 285.68041992 C257.54793487 286.75632683 253.1471486 286.52038839 248.81640625 285.74291992 C245.18153659 285.1775939 241.71668834 285.11049787 238.0390625 285.11791992 C236.11900391 285.11405273 236.11900391 285.11405273 234.16015625 285.11010742 C230.76266387 285.13224159 230.76266387 285.13224159 228.14453125 285.77807617 C224.55565338 286.43410761 221.08854082 286.07837724 217.4765625 285.80541992 C209.90326151 285.29644885 202.38534983 285.16362572 194.79638672 285.28027344 C188.98127965 285.34438776 188.98127965 285.34438776 186.48193359 284.67651367 C184.52607893 284.01534927 184.52607893 284.01534927 182.6015625 285.24291992 C174.16331401 285.69544429 165.73501676 285.04633655 157.328125 284.36401367 C153.58472469 284.24237278 150.30242699 284.70809035 146.6015625 285.24291992 C142.97586231 285.39049001 139.35480267 285.38268888 135.7265625 285.36791992 C134.31310547 285.3737207 134.31310547 285.3737207 132.87109375 285.37963867 C127.71384791 285.37250555 122.70914114 285.13630916 117.6003418 284.41455078 C114.68819108 284.16449069 111.94671272 284.59157945 109.0625 284.98120117 C103.42828296 285.58039568 97.49364816 285.7893896 91.9140625 284.73510742 C86.27668985 283.89747894 80.6073006 284.20455044 74.91992188 284.28198242 C70.37881692 284.31948639 65.97585445 284.23748912 61.46484375 283.68041992 C60.18996094 283.53604492 58.91507812 283.39166992 57.6015625 283.24291992 C57.2715625 283.57291992 56.9415625 283.90291992 56.6015625 284.24291992 C54.75477764 284.50885694 52.897777 284.70507885 51.0390625 284.86791992 C49.52119141 285.01100586 49.52119141 285.01100586 47.97265625 285.15698242 C44.6015625 285.24291992 44.6015625 285.24291992 40.98706055 284.74560547 C36.32413504 284.13492747 31.75644989 284.18653849 27.0625 284.28588867 C25.24740655 284.30826036 23.43230164 284.32971755 21.6171875 284.3503418 C18.78841695 284.38749771 15.96024092 284.4307603 13.13183594 284.48974609 C10.37947005 284.54432626 7.62777232 284.57333834 4.875 284.59838867 C4.0342392 284.62217087 3.19347839 284.64595306 2.32723999 284.67045593 C-3.06665607 284.69441771 -6.1289475 283.85876234 -10.3984375 280.24291992 C-12.08474392 276.87030708 -11.54083379 273.07333029 -11.5234375 269.36791992 C-11.52730469 268.55194336 -11.53117188 267.7359668 -11.53515625 266.89526367 C-11.53386719 266.10506836 -11.53257813 265.31487305 -11.53125 264.50073242 C-11.53012207 263.78030762 -11.52899414 263.05988281 -11.52783203 262.31762695 C-11.3984375 260.24291992 -11.3984375 260.24291992 -10.82763672 258.22680664 C-10.24778664 256.26948829 -10.24778664 256.26948829 -10.86550903 254.45690918 C-11.49369409 251.84718752 -11.51089141 249.51986981 -11.49609375 246.83520508 C-11.49279053 245.75373199 -11.4894873 244.67225891 -11.48608398 243.55801392 C-11.47778564 242.39442352 -11.4694873 241.23083313 -11.4609375 240.03198242 C-11.45525757 238.23064346 -11.45525757 238.23064346 -11.44946289 236.39291382 C-11.43310802 231.2533555 -11.4050001 226.11387649 -11.37792969 220.97436523 C-11.35984269 217.22274137 -11.34774827 213.47113045 -11.3359375 209.71948242 C-11.32763916 208.55994049 -11.31934082 207.40039856 -11.31079102 206.20571899 C-11.30748779 205.11794159 -11.30418457 204.03016418 -11.30078125 202.90942383 C-11.29554443 201.95774323 -11.29030762 201.00606262 -11.28491211 200.02554321 C-11.34303447 197.16599232 -11.34303447 197.16599232 -11.93249512 194.07728577 C-12.46323738 190.84873693 -11.99152989 188.44441379 -11.3984375 185.24291992 C-11.39448031 183.32945463 -11.44807602 181.41513575 -11.5546875 179.50463867 C-11.60753906 178.43665039 -11.66039062 177.36866211 -11.71484375 176.26831055 C-11.83659697 174.05473344 -11.95898599 171.84119121 -12.08203125 169.62768555 C-12.39263692 163.32845106 -12.19462645 157.49424719 -11.3984375 151.24291992 C-11.5634375 150.08791992 -11.7284375 148.93291992 -11.8984375 147.74291992 C-12.42194995 144.07833277 -12.13955062 141.1736773 -11.5546875 137.55151367 C-11.30158493 135.18144279 -11.30158493 135.18144279 -11.859375 132.62963867 C-12.604406 127.94890041 -12.54304287 123.34934945 -12.5234375 118.61791992 C-12.52730469 117.6769043 -12.53117188 116.73588867 -12.53515625 115.76635742 C-12.53386719 114.85885742 -12.53257813 113.95135742 -12.53125 113.01635742 C-12.53012207 112.19570801 -12.52899414 111.37505859 -12.52783203 110.52954102 C-12.3984375 108.24291992 -12.3984375 108.24291992 -11.8984375 106.44311523 C-11.133477 103.07699021 -11.25621417 99.70046635 -11.265625 96.26635742 C-11.26466827 95.49989899 -11.26371155 94.73344055 -11.26272583 93.9437561 C-11.26204687 92.32830727 -11.26388132 90.71285567 -11.26806641 89.09741211 C-11.2734334 86.61981119 -11.26810431 84.14239033 -11.26171875 81.66479492 C-11.26237929 80.09448202 -11.26365996 78.52416923 -11.265625 76.95385742 C-11.26360077 76.21114594 -11.26157654 75.46843445 -11.25949097 74.70321655 C-11.20659327 70.84587524 -11.20659327 70.84587524 -12.3984375 67.24291992 C-12.49548739 65.37773082 -12.52920047 63.50906855 -12.53125 61.64135742 C-12.53253906 60.51084961 -12.53382812 59.3803418 -12.53515625 58.21557617 C-12.53128906 57.02834961 -12.52742187 55.84112305 -12.5234375 54.61791992 C-12.52730469 53.45389648 -12.53117188 52.28987305 -12.53515625 51.09057617 C-12.52963179 46.21248111 -12.51634755 41.42974375 -11.828125 36.59448242 C-11.15332738 33.25441829 -11.15332738 33.25441829 -12.3984375 30.24291992 C-12.67837367 26.83117366 -12.67592415 23.41489101 -12.7109375 19.99291992 C-12.73994141 19.06350586 -12.76894531 18.1340918 -12.79882812 17.17651367 C-12.85593483 10.96506091 -12.10030862 7.28546869 -8.3984375 2.24291992 C-5.03386878 -0.00012589 -3.93248931 -0.0057608 0 0 Z " fill="#FFFFFF" transform="translate(12.3984375,-0.242919921875)"/>
<path d="M0 0 C1.65817749 -0.00461494 1.65817749 -0.00461494 3.34985352 -0.00932312 C4.54666748 -0.0021376 5.74348145 0.00504791 6.9765625 0.01245117 C8.21140381 0.01290939 9.44624512 0.01336761 10.71850586 0.01383972 C14.00888866 0.01763963 17.29907922 0.03063953 20.5894165 0.04730225 C23.89944708 0.06065603 27.20947803 0.05757836 30.51953125 0.05737305 C33.06771032 0.06229421 35.61588782 0.06812511 38.1640625 0.07495117 C39.34468262 0.076064 40.52530273 0.07717682 41.74169922 0.07832336 C47.94799728 0.11334269 54.0162358 0.37425457 60.17944336 1.12773132 C62.82751726 1.25366564 65.02454153 0.82786484 67.6015625 0.24291992 C72.39643327 0.00561918 77.11601109 -0.01419474 81.8515625 0.80541992 C84.66427197 1.39391289 84.66427197 1.39391289 87.73754883 0.77856445 C91.93121423 0.19722232 95.95128579 0.09881746 100.17578125 0.11010742 C101.38340874 0.10867233 101.38340874 0.10867233 102.61543274 0.10720825 C104.31222614 0.10653102 106.0090222 0.10835325 107.70581055 0.11254883 C110.2642215 0.11786827 112.82245407 0.11260642 115.38085938 0.10620117 C123.29698246 0.10408191 131.09868465 0.17874181 138.97192383 1.1262207 C141.68170721 1.33974573 141.68170721 1.33974573 144.63568115 0.72311401 C149.40845425 0.14522041 153.89988703 0.38241185 158.68530273 0.67651367 C168.94771233 1.22259322 179.16739292 1.36464194 189.4424305 1.31808472 C192.35660141 1.30499369 195.27072547 1.29872709 198.18492126 1.29394531 C204.34465676 1.28270226 210.50435169 1.26338688 216.6640625 1.24291992 C223.87185305 1.21922247 231.07962283 1.19893688 238.28744316 1.1869812 C241.15081101 1.180529 244.01411103 1.16803868 246.87745667 1.15527344 C248.62541649 1.15164273 250.37337692 1.14829077 252.12133789 1.14526367 C252.91036499 1.14009735 253.69939209 1.13493103 254.5123291 1.12960815 C258.34827621 1.12923891 261.86538278 1.37804669 265.6015625 2.24291992 C267.72670264 2.16146308 267.72670264 2.16146308 269.8203125 1.81713867 C274.59784414 1.20313885 279.28851471 1.05934574 284.1015625 1.05541992 C285.28685547 1.03705078 285.28685547 1.03705078 286.49609375 1.01831055 C291.41377607 1.00623768 295.6683979 1.57181018 300.38085938 3.00732422 C302.74114487 3.4138684 302.74114487 3.4138684 305.41699219 2.29541016 C309.11911574 1.07187024 311.94756964 1.10287494 315.8359375 1.26635742 C316.51400452 1.29138336 317.19207153 1.3164093 317.89068604 1.3421936 C320.04487235 1.42371423 322.19805366 1.52025293 324.3515625 1.61791992 C326.48538711 1.7050148 328.61931491 1.78896441 330.7532959 1.87213135 C332.13235665 1.92624782 333.51134777 1.98217176 334.89025879 2.03997803 C339.4971724 2.22677528 344.08333576 2.27366016 348.69238281 2.16723633 C350.6015625 2.24291992 350.6015625 2.24291992 353.6015625 3.24291992 C355.0865625 2.74791992 355.0865625 2.74791992 356.6015625 2.24291992 C359.17627598 2.14682112 361.72365103 2.10647073 364.29833984 2.11352539 C365.08078568 2.11177307 365.86323151 2.11002075 366.66938782 2.10821533 C369.25878104 2.10381034 371.84810607 2.10673064 374.4375 2.11010742 C376.2372743 2.10943386 378.03704852 2.10846339 379.83682251 2.10720825 C383.61127589 2.105733 387.38570562 2.10787981 391.16015625 2.11254883 C395.99448219 2.11823782 400.82875251 2.11497128 405.6630764 2.10897636 C409.38113828 2.10535913 413.09918702 2.10651484 416.8172493 2.10910416 C418.59941235 2.10977063 420.3815766 2.10895477 422.16373825 2.1066246 C424.65785621 2.10407995 427.15188478 2.10796463 429.64599609 2.11352539 C430.3807164 2.11150116 431.11543671 2.10947693 431.87242126 2.10739136 C435.59257654 2.12272599 438.96675553 2.50936903 442.6015625 3.24291992 C443.2615625 2.91291992 443.9215625 2.58291992 444.6015625 2.24291992 C446.72474314 2.14563132 448.85115941 2.11314374 450.9765625 2.11791992 C452.11867188 2.1153418 453.26078125 2.11276367 454.4375 2.11010742 C457.07820567 2.22095186 459.08018612 2.59092764 461.6015625 3.24291992 C467.42253276 3.53699569 473.18888903 3.34064341 478.9765625 2.68041992 C483.25772145 2.23074423 487.25095419 2.37106421 491.5390625 2.74291992 C497.02488564 3.21501146 502.1086784 3.06953345 507.57421875 2.50463867 C514.22180889 1.92994378 521.12049147 1.49275728 527.6015625 3.24291992 C531.98632795 3.39411873 536.12463559 3.20730416 540.4765625 2.68041992 C544.93224718 2.17924121 548.98700625 2.5027883 553.421875 3.05541992 C555.98152367 3.27560475 558.10243687 2.78327141 560.6015625 2.24291992 C561.60683487 2.39592056 562.61210724 2.5489212 563.64784241 2.70655823 C568.2011392 3.3242585 572.58703541 3.36025487 577.17358398 3.32470703 C578.10785217 3.32164047 579.04212036 3.31857391 580.00469971 3.31541443 C582.02352708 3.3082879 584.04234752 3.29891302 586.06115532 3.28751945 C589.26058794 3.27005664 592.45997011 3.25980698 595.65943909 3.25160217 C604.75290697 3.22721195 613.84630668 3.19160022 622.93969727 3.14697266 C628.51094682 3.12013399 634.08215736 3.10312824 639.65345955 3.09210396 C641.77087917 3.08591232 643.88829134 3.07592986 646.00567436 3.06202507 C648.97054834 3.04272556 651.93521797 3.03590125 654.90014648 3.03173828 C655.7674086 3.02297668 656.63467072 3.01421509 657.5282135 3.00518799 C662.89909057 3.0137609 667.42845442 3.80209601 672.6015625 5.24291992 C675.802125 5.43887273 678.56460654 5.24882087 681.7308197 4.74325562 C686.01065112 4.19004076 690.16211385 4.07306148 694.47094727 4.05004883 C695.76012558 4.03778259 695.76012558 4.03778259 697.0753479 4.02526855 C699.89788135 4.00060715 702.72036546 3.98395517 705.54296875 3.96948242 C706.51095839 3.96415874 707.47894802 3.95883507 708.47627068 3.95335007 C713.59248942 3.92671212 718.70868447 3.90730095 723.82495117 3.89282227 C728.05303411 3.87944845 732.2806384 3.85151915 736.50854492 3.81079102 C741.6259896 3.76150761 746.74299824 3.73670824 751.86067009 3.72959518 C753.80672923 3.72288371 755.75277865 3.70766436 757.69870186 3.68370438 C760.42017678 3.65208512 763.1399619 3.65201 765.86157227 3.65942383 C766.66121902 3.64301849 767.46086578 3.62661316 768.28474426 3.60971069 C772.3645687 3.65514353 774.8595116 4.04853189 778.08531189 6.65438843 C781.39948422 10.06376245 781.7402572 11.50280763 781.7265625 16.11791992 C781.72914063 16.9815918 781.73171875 17.84526367 781.734375 18.73510742 C781.61145619 21.05610382 781.16421016 23.00178553 780.6015625 25.24291992 C780.92012701 27.24532542 781.25577482 29.24503554 781.6015625 31.24291992 C781.76952186 36.36568031 781.44966981 41.19130722 780.72265625 46.26245117 C780.46482206 48.45525934 780.46482206 48.45525934 781.6015625 51.24291992 C781.74419219 54.87997691 781.60277549 58.23477394 781.0662384 61.83795166 C780.43105041 66.78050114 780.74623341 71.57452778 781.04174805 76.53491211 C781.54581997 86.62369584 781.68935414 96.68853969 781.65161133 106.78686523 C781.64891184 107.52468656 781.64621236 108.26250789 781.64343107 109.02268744 C781.62778857 112.91158574 781.60757709 116.80044423 781.58503151 120.68930817 C781.55659411 125.68703804 781.54000534 130.68476867 781.52555847 135.68255615 C781.52041821 137.41092305 781.51526158 139.1392899 781.51008892 140.86765671 C781.50750336 141.73163747 781.5049178 142.59561824 781.50225389 143.48578024 C781.46652799 155.07612742 781.42072225 166.66637642 781.35473633 178.2565918 C781.30995118 186.13977147 781.2798982 194.02286695 781.26587886 201.90616298 C781.25789628 206.05149582 781.24278423 210.19650197 781.20920753 214.34171295 C779.63519725 241.88974073 779.63519725 241.88974073 787.6015625 267.24291992 C788.39979023 270.0931362 789.06019391 272.95993211 789.72265625 275.84448242 C790.01269531 276.6359668 790.30273438 277.42745117 790.6015625 278.24291992 C791.5915625 278.57291992 792.5815625 278.90291992 793.6015625 279.24291992 C794.62890625 281.38745117 794.62890625 281.38745117 795.5390625 284.05541992 C797.02501012 288.04819521 798.35262934 290.41320394 801.6015625 293.24291992 C802.04113281 293.97639648 802.48070312 294.70987305 802.93359375 295.46557617 C805.49534419 299.73116063 808.60659056 303.56336086 811.640625 307.50073242 C813.6015625 310.24291992 813.6015625 310.24291992 814.6015625 313.24291992 C815.49875 313.67604492 815.49875 313.67604492 816.4140625 314.11791992 C819.86940276 315.89495205 821.94737051 318.47145623 823.296875 322.12573242 C823.78317912 323.8175228 824.19838519 325.52941637 824.6015625 327.24291992 C822.85521085 327.77585827 821.10428598 328.29382655 819.3515625 328.80541992 C818.37703125 329.09545898 817.4025 329.38549805 816.3984375 329.68432617 C813.55972719 330.2512753 812.30033693 330.05593983 809.6015625 329.24291992 C807.68965882 329.47366692 805.77800859 329.70841639 803.87109375 329.97729492 C797.3342655 330.7423626 791.23803897 330.41650224 784.8671875 328.80151367 C782.538566 328.22738803 780.21569594 327.83079736 777.8515625 327.43041992 C769.18079641 325.70981478 760.69440046 322.56254839 753.6015625 317.24291992 C752.8384375 316.79948242 752.0753125 316.35604492 751.2890625 315.89916992 C748.3507297 314.08833691 745.76601242 312.06085202 743.1015625 309.86791992 C742.18375 309.11768555 741.2659375 308.36745117 740.3203125 307.59448242 C736.63333303 304.40545708 733.31882887 301.47251941 730.8515625 297.24291992 C728.15986141 293.65398514 725.47500231 292.21983138 721.52734375 290.22338867 C719.6015625 289.24291992 719.6015625 289.24291992 718.6015625 288.24291992 C717.15674054 288.16797131 715.70833529 288.15972317 714.26171875 288.18041992 C713.36259766 288.1881543 712.46347656 288.19588867 711.53710938 288.20385742 C709.65689448 288.22942119 707.77668577 288.25544465 705.89648438 288.28198242 C700.54375141 288.32744088 695.38875006 288.105445 690.08374023 287.36401367 C687.49681325 287.15557108 687.49681325 287.15557108 684.54760742 287.70727539 C679.25754763 288.42535936 674.05099687 288.38567483 668.71875 288.37573242 C667.58631866 288.37668915 666.45388733 288.37764587 665.28713989 288.37863159 C662.90187525 288.37930997 660.51660872 288.37747964 658.13134766 288.37329102 C654.48205426 288.36792799 650.83288339 288.37325278 647.18359375 288.37963867 C644.8619789 288.37897802 642.54036412 288.37769714 640.21875 288.37573242 C638.58424393 288.37876877 638.58424393 288.37876877 636.91671753 288.38186646 C635.89860992 288.37871429 634.88050232 288.37556213 633.83154297 288.37231445 C632.93998505 288.37151886 632.04842712 288.37072327 631.12985229 288.36990356 C628.53167316 288.23940972 626.14428435 287.7734162 623.6015625 287.24291992 C621.51628057 287.23882344 619.43038639 287.29595828 617.34765625 287.39916992 C616.16365234 287.45202148 614.97964844 287.50487305 613.75976562 287.55932617 C612.53193359 287.61991211 611.30410156 287.68049805 610.0390625 287.74291992 C607.60051845 287.86286924 605.16171455 287.97767658 602.72265625 288.08666992 C601.6442749 288.14016602 600.56589355 288.19366211 599.45483398 288.2487793 C596.9079948 288.2435492 595.0281332 287.91114862 592.6015625 287.24291992 C589.15417847 287.4127418 585.73983733 287.75374791 582.3046875 288.08666992 C578.6015625 288.24291992 578.6015625 288.24291992 575.01977539 287.7565918 C570.07432992 287.10245376 565.18815714 287.1358381 560.20703125 287.18041992 C559.22019852 287.18420654 558.23336578 287.18799316 557.21662903 287.19189453 C553.03637319 287.20803921 548.85621941 287.23588979 544.67602539 287.26342773 C533.29710311 287.33179662 521.97360855 287.32021181 510.61515808 286.56018066 C505.90433083 286.2527918 501.47177542 286.35351086 496.80078125 286.98120117 C491.74462188 287.58291108 486.60697342 287.61893447 481.6015625 286.68041992 C478.83548331 286.27703337 476.95265961 286.36713207 474.21484375 286.70776367 C468.06722597 287.3669553 461.96663886 287.38991723 455.7890625 287.36791992 C454.68369141 287.37178711 453.57832031 287.3756543 452.43945312 287.37963867 C451.37275391 287.37834961 450.30605469 287.37706055 449.20703125 287.37573242 C447.77073364 287.37404053 447.77073364 287.37404053 446.30541992 287.37231445 C443.6015625 287.24291992 443.6015625 287.24291992 440.9543457 286.70727539 C437.69022714 286.06305483 434.88492889 286.75041496 431.6015625 287.24291992 C427.35490633 287.44951401 423.31610743 287.3454316 419.10105896 286.74072266 C414.09721198 286.10804235 409.14298695 286.11782002 404.10571289 286.14526367 C403.08512283 286.14672394 402.06453278 286.1481842 401.01301575 286.14968872 C398.80868606 286.15347851 396.60435936 286.1595778 394.40004158 286.16775513 C390.90620947 286.18057777 387.41241557 286.18704954 383.91856384 286.19189453 C375.24262518 286.20522947 366.56672303 286.22943822 357.89080811 286.2532959 C350.55228821 286.27306183 343.21378189 286.2886876 335.87524223 286.29885864 C332.4426058 286.30531481 329.01002583 286.31782243 325.57740784 286.33056641 C323.46054126 286.33420107 321.34367418 286.33755254 319.22680664 286.34057617 C318.2805542 286.34574249 317.33430176 286.35090881 316.359375 286.35623169 C311.38584868 286.35662444 306.55220303 286.1181381 301.61905575 285.47120667 C298.05642254 285.06808168 294.49531339 285.09611687 290.9140625 285.11791992 C289.75656494 285.11973267 289.75656494 285.11973267 288.57568359 285.12158203 C282.48885338 285.16236166 276.48255417 285.54154838 270.421875 286.12182617 C267.83563923 286.23286954 266.05549714 285.95356163 263.6015625 285.24291992 C263.0240625 285.38729492 262.4465625 285.53166992 261.8515625 285.68041992 C257.54793487 286.75632683 253.1471486 286.52038839 248.81640625 285.74291992 C245.18153659 285.1775939 241.71668834 285.11049787 238.0390625 285.11791992 C236.11900391 285.11405273 236.11900391 285.11405273 234.16015625 285.11010742 C230.76266387 285.13224159 230.76266387 285.13224159 228.14453125 285.77807617 C224.55565338 286.43410761 221.08854082 286.07837724 217.4765625 285.80541992 C209.90326151 285.29644885 202.38534983 285.16362572 194.79638672 285.28027344 C188.98127965 285.34438776 188.98127965 285.34438776 186.48193359 284.67651367 C184.52607893 284.01534927 184.52607893 284.01534927 182.6015625 285.24291992 C174.16331401 285.69544429 165.73501676 285.04633655 157.328125 284.36401367 C153.58472469 284.24237278 150.30242699 284.70809035 146.6015625 285.24291992 C142.97586231 285.39049001 139.35480267 285.38268888 135.7265625 285.36791992 C134.31310547 285.3737207 134.31310547 285.3737207 132.87109375 285.37963867 C127.71384791 285.37250555 122.70914114 285.13630916 117.6003418 284.41455078 C114.68819108 284.16449069 111.94671272 284.59157945 109.0625 284.98120117 C103.42828296 285.58039568 97.49364816 285.7893896 91.9140625 284.73510742 C86.27668985 283.89747894 80.6073006 284.20455044 74.91992188 284.28198242 C70.37881692 284.31948639 65.97585445 284.23748912 61.46484375 283.68041992 C60.18996094 283.53604492 58.91507812 283.39166992 57.6015625 283.24291992 C57.2715625 283.57291992 56.9415625 283.90291992 56.6015625 284.24291992 C54.75477764 284.50885694 52.897777 284.70507885 51.0390625 284.86791992 C49.52119141 285.01100586 49.52119141 285.01100586 47.97265625 285.15698242 C44.6015625 285.24291992 44.6015625 285.24291992 40.98706055 284.74560547 C36.32413504 284.13492747 31.75644989 284.18653849 27.0625 284.28588867 C25.24740655 284.30826036 23.43230164 284.32971755 21.6171875 284.3503418 C18.78841695 284.38749771 15.96024092 284.4307603 13.13183594 284.48974609 C10.37947005 284.54432626 7.62777232 284.57333834 4.875 284.59838867 C4.0342392 284.62217087 3.19347839 284.64595306 2.32723999 284.67045593 C-3.06665607 284.69441771 -6.1289475 283.85876234 -10.3984375 280.24291992 C-12.08474392 276.87030708 -11.54083379 273.07333029 -11.5234375 269.36791992 C-11.52730469 268.55194336 -11.53117188 267.7359668 -11.53515625 266.89526367 C-11.53386719 266.10506836 -11.53257813 265.31487305 -11.53125 264.50073242 C-11.53012207 263.78030762 -11.52899414 263.05988281 -11.52783203 262.31762695 C-11.3984375 260.24291992 -11.3984375 260.24291992 -10.82763672 258.22680664 C-10.24778664 256.26948829 -10.24778664 256.26948829 -10.86550903 254.45690918 C-11.49369409 251.84718752 -11.51089141 249.51986981 -11.49609375 246.83520508 C-11.49279053 245.75373199 -11.4894873 244.67225891 -11.48608398 243.55801392 C-11.47778564 242.39442352 -11.4694873 241.23083313 -11.4609375 240.03198242 C-11.45525757 238.23064346 -11.45525757 238.23064346 -11.44946289 236.39291382 C-11.43310802 231.2533555 -11.4050001 226.11387649 -11.37792969 220.97436523 C-11.35984269 217.22274137 -11.34774827 213.47113045 -11.3359375 209.71948242 C-11.32763916 208.55994049 -11.31934082 207.40039856 -11.31079102 206.20571899 C-11.30748779 205.11794159 -11.30418457 204.03016418 -11.30078125 202.90942383 C-11.29554443 201.95774323 -11.29030762 201.00606262 -11.28491211 200.02554321 C-11.34303447 197.16599232 -11.34303447 197.16599232 -11.93249512 194.07728577 C-12.46323738 190.84873693 -11.99152989 188.44441379 -11.3984375 185.24291992 C-11.39448031 183.32945463 -11.44807602 181.41513575 -11.5546875 179.50463867 C-11.60753906 178.43665039 -11.66039062 177.36866211 -11.71484375 176.26831055 C-11.83659697 174.05473344 -11.95898599 171.84119121 -12.08203125 169.62768555 C-12.39263692 163.32845106 -12.19462645 157.49424719 -11.3984375 151.24291992 C-11.5634375 150.08791992 -11.7284375 148.93291992 -11.8984375 147.74291992 C-12.42194995 144.07833277 -12.13955062 141.1736773 -11.5546875 137.55151367 C-11.30158493 135.18144279 -11.30158493 135.18144279 -11.859375 132.62963867 C-12.604406 127.94890041 -12.54304287 123.34934945 -12.5234375 118.61791992 C-12.52730469 117.6769043 -12.53117188 116.73588867 -12.53515625 115.76635742 C-12.53386719 114.85885742 -12.53257813 113.95135742 -12.53125 113.01635742 C-12.53012207 112.19570801 -12.52899414 111.37505859 -12.52783203 110.52954102 C-12.3984375 108.24291992 -12.3984375 108.24291992 -11.8984375 106.44311523 C-11.133477 103.07699021 -11.25621417 99.70046635 -11.265625 96.26635742 C-11.26466827 95.49989899 -11.26371155 94.73344055 -11.26272583 93.9437561 C-11.26204687 92.32830727 -11.26388132 90.71285567 -11.26806641 89.09741211 C-11.2734334 86.61981119 -11.26810431 84.14239033 -11.26171875 81.66479492 C-11.26237929 80.09448202 -11.26365996 78.52416923 -11.265625 76.95385742 C-11.26360077 76.21114594 -11.26157654 75.46843445 -11.25949097 74.70321655 C-11.20659327 70.84587524 -11.20659327 70.84587524 -12.3984375 67.24291992 C-12.49548739 65.37773082 -12.52920047 63.50906855 -12.53125 61.64135742 C-12.53253906 60.51084961 -12.53382812 59.3803418 -12.53515625 58.21557617 C-12.53128906 57.02834961 -12.52742187 55.84112305 -12.5234375 54.61791992 C-12.52730469 53.45389648 -12.53117188 52.28987305 -12.53515625 51.09057617 C-12.52963179 46.21248111 -12.51634755 41.42974375 -11.828125 36.59448242 C-11.15332738 33.25441829 -11.15332738 33.25441829 -12.3984375 30.24291992 C-12.67837367 26.83117366 -12.67592415 23.41489101 -12.7109375 19.99291992 C-12.73994141 19.06350586 -12.76894531 18.1340918 -12.79882812 17.17651367 C-12.85593483 10.96506091 -12.10030862 7.28546869 -8.3984375 2.24291992 C-5.03386878 -0.00012589 -3.93248931 -0.0057608 0 0 Z M5.6015625 18.24291992 C5.61316406 19.21874023 5.62476562 20.19456055 5.63671875 21.19995117 C5.64574219 22.47225586 5.65476562 23.74456055 5.6640625 25.05541992 C5.67566406 26.31999023 5.68726562 27.58456055 5.69921875 28.88745117 C5.6015625 32.24291992 5.6015625 32.24291992 4.6015625 35.24291992 C4.69003365 36.95626189 4.84518435 38.66632114 5.03125 40.37182617 C5.87725361 50.17703524 5.75074538 59.99415498 5.73193359 69.82910156 C5.72653608 73.19690369 5.73192461 76.56457477 5.73828125 79.93237305 C5.73762106 82.08667021 5.73634114 84.2409673 5.734375 86.39526367 C5.73639923 87.39532944 5.73842346 88.3953952 5.74050903 89.42576599 C5.72460691 94.16086466 5.49719382 98.57606261 4.6015625 103.24291992 C4.90151356 105.32940859 4.90151356 105.32940859 5.5390625 107.36791992 C6.75762763 112.75266041 6.79750743 117.99974101 6.7890625 123.49291992 C6.78962646 124.35675293 6.79019043 125.22058594 6.79077148 126.1105957 C6.75285123 130.61482456 6.35456045 134.79572691 5.6015625 139.24291992 C5.72326119 141.75744809 5.72326119 141.75744809 6.1015625 144.18041992 C6.61011672 148.4141338 6.26399817 152.0198925 5.6015625 156.24291992 C5.92183664 157.9121453 6.25620621 159.57870301 6.6015625 161.24291992 C7.02332817 168.53698503 6.44343245 175.86779296 5.86962891 183.14038086 C5.55050985 187.67165938 5.89351004 191.73257002 6.6015625 196.24291992 C6.30406304 197.9163544 5.98029184 199.58597907 5.6015625 201.24291992 C5.9315625 201.90291992 6.2615625 202.56291992 6.6015625 203.24291992 C6.69945701 205.53161966 6.73233913 207.82322217 6.734375 210.11401367 C6.73533173 210.79214615 6.73628845 211.47027863 6.73727417 212.16896057 C6.7379549 213.60385226 6.73610804 215.03874703 6.73193359 216.47363281 C6.72659204 218.66828352 6.73187784 220.86272879 6.73828125 223.05737305 C6.73762029 224.45125371 6.73633875 225.84513424 6.734375 227.23901367 C6.73324707 228.5093042 6.73211914 229.77959473 6.73095703 231.08837891 C6.6015625 234.24291992 6.6015625 234.24291992 5.6015625 237.24291992 C5.7459375 238.08854492 5.8903125 238.93416992 6.0390625 239.80541992 C6.94621701 245.3491419 7.0593467 250.90822048 5.9765625 256.43041992 C5.48842832 260.09142627 6.42500832 262.78246645 7.6015625 266.24291992 C8.47039063 266.30350586 9.33921875 266.3640918 10.234375 266.42651367 C11.38679688 266.51030273 12.53921875 266.5940918 13.7265625 266.68041992 C15.43199219 266.80223633 15.43199219 266.80223633 17.171875 266.92651367 C20.6015625 267.24291992 20.6015625 267.24291992 23.65625 267.84057617 C26.94570649 268.28993163 29.33369707 267.81411638 32.6015625 267.24291992 C36.12259972 267.06588453 39.63911414 267.0578661 43.1640625 267.05541992 C44.09669922 267.04317383 45.02933594 267.03092773 45.99023438 267.01831055 C50.78197668 267.00806448 54.16321137 267.33962701 58.6015625 269.24291992 C61.10565483 269.01185269 61.10565483 269.01185269 63.7265625 268.30541992 C70.17716026 267.04715517 76.10777121 267.39990131 82.60766602 267.85644531 C87.04403347 268.15202694 91.22948945 268.24250326 95.6640625 267.74291992 C101.51846055 267.08512239 107.15801286 267.49803214 113.01293945 267.90698242 C118.24713195 268.24542643 123.19477226 268.06741339 128.41015625 267.43041992 C131.25268937 267.18720853 133.80938142 267.72344437 136.6015625 268.24291992 C137.5296875 268.07791992 138.4578125 267.91291992 139.4140625 267.74291992 C144.60122113 266.92924798 149.63362365 267.5869403 154.6015625 269.24291992 C156.54250933 269.15404348 158.48070095 268.99851768 160.4140625 268.80541992 C177.84073261 267.30109974 177.84073261 267.30109974 183.87890625 268.81323242 C185.69849495 269.46544792 185.69849495 269.46544792 187.6015625 268.24291992 C189.85223747 268.14571807 192.10587007 268.11494835 194.35864258 268.11352539 C195.05316025 268.11177307 195.74767792 268.11002075 196.46324158 268.10821533 C198.76588418 268.10380396 201.06845032 268.10673326 203.37109375 268.11010742 C204.97051508 268.10943395 206.56993632 268.10846356 208.1693573 268.10720825 C211.52608207 268.10573206 214.88278027 268.10788247 218.23950195 268.11254883 C222.53689865 268.11823228 226.83423271 268.11497542 231.13162708 268.10897636 C234.43707244 268.10535685 237.74250303 268.10651597 241.04794884 268.10910416 C242.63194473 268.10977029 244.21594198 268.10895595 245.79993629 268.1066246 C248.01875968 268.10407683 250.23748288 268.10796921 252.45629883 268.11352539 C253.71823563 268.11432098 254.98017242 268.11511658 256.28034973 268.11593628 C259.19517912 268.22738221 261.7586178 268.65849996 264.6015625 269.24291992 C266.21392049 268.97419359 267.82620143 268.70499232 269.43798828 268.43286133 C272.09730842 268.19939811 274.56104237 268.44388764 277.21875 268.70385742 C285.7252945 269.40897707 294.19757034 269.39364629 302.7265625 269.36791992 C303.54748383 269.36736603 304.36840515 269.36681213 305.21420288 269.36624146 C317.35102104 269.37167182 317.35102104 269.37167182 329.47338867 268.84179688 C330.27881104 268.78854248 331.0842334 268.73528809 331.9140625 268.68041992 C333.88705322 268.54821045 333.88705322 268.54821045 335.89990234 268.41333008 C340.90772363 268.16746324 345.84595514 268.4399592 350.84765625 268.71557617 C361.34893463 269.22037541 371.82559498 269.32814251 382.3359375 269.30541992 C383.10710592 269.30394014 383.87827435 269.30246037 384.67281151 269.30093575 C390.23242693 269.28875031 395.79198657 269.26673447 401.3515625 269.24291992 C406.98492279 269.21917228 412.61825703 269.19894214 418.25165558 269.1869812 C420.48077726 269.18054313 422.70981087 269.16806199 424.93890381 269.15527344 C426.29618252 269.15164385 427.653462 269.14829175 429.01074219 269.14526367 C430.1907782 269.14002686 431.37081421 269.13479004 432.58660889 269.12939453 C435.14051468 269.22555958 437.15330331 269.62638463 439.6015625 270.24291992 C440.2615625 269.91291992 440.9215625 269.58291992 441.6015625 269.24291992 C443.31163211 269.1460373 445.02547067 269.11215957 446.73828125 269.11010742 C447.78395264 269.10825439 448.82962402 269.10640137 449.90698242 269.10449219 C451.02306885 269.10892334 452.13915527 269.11335449 453.2890625 269.11791992 C454.98542847 269.11973267 454.98542847 269.11973267 456.71606445 269.12158203 C464.05846198 269.15568391 471.3017755 269.42590142 478.61328125 270.12182617 C481.76783869 270.24965791 484.49592036 269.76593276 487.6015625 269.24291992 C489.66705619 269.30007824 491.7318066 269.4249707 493.7890625 269.61791992 C494.81386719 269.7081543 495.83867187 269.79838867 496.89453125 269.89135742 C499.6015625 270.24291992 499.6015625 270.24291992 502.6015625 271.24291992 C503.42229248 271.10128418 504.24302246 270.95964844 505.08862305 270.8137207 C510.0027778 270.01524313 514.83813293 270.10038149 519.80859375 270.11010742 C521.428545 270.10867233 521.428545 270.10867233 523.08122253 270.10720825 C525.361522 270.10652917 527.64182342 270.1083645 529.92211914 270.11254883 C533.39148363 270.11788519 536.86071773 270.11260266 540.33007812 270.10620117 C542.55208362 270.10686231 544.77408903 270.1081442 546.99609375 270.11010742 C548.02450882 270.10808319 549.05292389 270.10605896 550.11250305 270.10397339 C554.59133831 270.11836496 558.94608371 270.22931553 563.3894043 270.8137207 C567.31575604 271.310101 570.68015628 270.86737488 574.6015625 270.24291992 C578.05200991 270.09286071 581.49983515 270.10261122 584.953125 270.11010742 C586.41871353 270.10867233 586.41871353 270.10867233 587.91390991 270.10720825 C589.9696255 270.10653055 592.02534327 270.10835613 594.08105469 270.11254883 C597.22335613 270.11791445 600.3655154 270.11258396 603.5078125 270.10620117 C605.51041698 270.1068618 607.51302137 270.10814265 609.515625 270.11010742 C610.45217926 270.10808319 611.38873352 270.10605896 612.35366821 270.10397339 C616.60457819 270.11923549 620.43286093 270.34590923 624.6015625 271.24291992 C625.2615625 270.91291992 625.9215625 270.58291992 626.6015625 270.24291992 C628.09003001 270.14719273 629.58267762 270.11217921 631.07421875 270.11010742 C631.97462891 270.10881836 632.87503906 270.1075293 633.80273438 270.10620117 C634.74697266 270.11006836 635.69121094 270.11393555 636.6640625 270.11791992 C637.58123047 270.11405273 638.49839844 270.11018555 639.44335938 270.10620117 C644.57007298 270.11346795 649.52687279 270.41882137 654.61157227 271.05151367 C657.30753421 271.31082347 659.85266335 271.11060692 662.5390625 270.80541992 C676.89568015 269.38997875 676.89568015 269.38997875 680.6015625 271.24291992 C682.20444763 271.3180015 683.81052696 271.32930445 685.41503906 271.30883789 C686.4165802 271.29907928 687.41812134 271.28932068 688.45001221 271.27926636 C689.53643005 271.26469391 690.6228479 271.25012146 691.7421875 271.23510742 C694.0325476 271.21758475 696.32291248 271.20067709 698.61328125 271.18432617 C702.23206706 271.15339638 705.85061589 271.11793206 709.46923828 271.0715332 C712.9560846 271.02913269 716.44265342 271.00573017 719.9296875 270.98510742 C721.00800842 270.96648651 722.08632935 270.9478656 723.19732666 270.92868042 C728.73576039 270.90981602 732.87176921 270.99645177 737.6015625 274.24291992 C739.4375 276.69604492 739.4375 276.69604492 740.9765625 279.49291992 C744.18311227 284.85840497 747.68399375 288.45022014 752.6015625 292.24291992 C758.5169152 296.81387428 758.5169152 296.81387428 759 299.26245117 C759.41168661 301.41010286 759.41168661 301.41010286 761.45703125 302.36791992 C762.22660156 302.65666992 762.99617187 302.94541992 763.7890625 303.24291992 C766.7736645 304.43676072 768.94549117 305.48653606 771.6015625 307.36791992 C774.92014176 309.44203196 777.57254121 310.03229263 781.3671875 310.73901367 C783.53080917 311.22696332 785.29252793 311.91824087 787.2890625 312.86791992 C790.69613211 314.28217523 792.95827104 314.50950222 796.6015625 314.24291992 C793.80544856 310.42553032 791.045253 306.68153006 787.7890625 303.24291992 C784.16701686 299.10073719 781.69811638 294.31042457 779.07250977 289.50634766 C776.60512295 284.99329177 773.99702453 280.6393596 771.2265625 276.30541992 C768.16071437 271.363637 766.02781821 266.86236744 764.6015625 261.24291992 C764.32570313 260.28514648 764.04984375 259.32737305 763.765625 258.34057617 C761.85478485 251.38967599 760.04809433 244.47612835 762.60716248 237.50265503 C764.34574645 231.45473661 763.85369004 225.09145054 763.81274414 218.85668945 C763.81054035 217.39557499 763.8092369 215.93445894 763.8087616 214.4733429 C763.80583593 211.33479493 763.79661397 208.19635185 763.78245735 205.05783463 C763.76008139 200.07907507 763.75208158 195.1003538 763.74595642 190.12155151 C763.73458444 182.23008014 763.71387583 174.33866595 763.68905872 166.44722641 C763.64480478 152.35874341 763.61136775 138.27024259 763.58881468 124.18170822 C763.58048888 119.24978848 763.56654667 114.31792801 763.54784214 109.38603711 C763.53705766 106.29213402 763.53056536 103.19823131 763.52504158 100.1043148 C763.52162495 98.68916838 763.51647317 97.27402467 763.50927353 95.85889244 C763.4712669 88.20753294 763.61891027 80.58896526 764.04417419 72.95040894 C764.08308936 72.22522131 764.12200453 71.50003369 764.16209894 70.75287068 C764.3490719 67.70998293 764.63241905 65.15035029 765.6015625 62.24291992 C765.2921875 61.50041992 764.9828125 60.75791992 764.6640625 59.99291992 C762.95085657 55.55873986 763.39246709 51.49749236 764.1640625 46.86791992 C764.61128617 43.16235236 764.34383137 40.1157004 763.86328125 36.44604492 C763.28379718 31.56799993 763.44545706 27.01185486 764.6015625 22.24291992 C759.98250445 21.49936245 755.58632444 21.13207008 750.91015625 21.18041992 C749.646875 21.18879883 748.38359375 21.19717773 747.08203125 21.20581055 C746.42251465 21.21201416 745.76299805 21.21821777 745.08349609 21.22460938 C734.20586366 21.32203264 723.37658727 21.20485435 712.51245117 20.59838867 C704.61678089 20.18043089 696.73891331 20.18281658 688.83398438 20.2800293 C687.45823242 20.29259766 687.45823242 20.29259766 686.0546875 20.30541992 C685.24161133 20.31702148 684.42853516 20.32862305 683.59082031 20.34057617 C681.6015625 20.24291992 681.6015625 20.24291992 679.6015625 19.24291992 C675.75830123 19.01232425 672.72262078 19.20930721 669 20.24291992 C664.10291819 21.51213588 659.3849003 21.50310185 654.3515625 21.43041992 C653.42641846 21.42469971 652.50127441 21.41897949 651.5480957 21.41308594 C645.66429623 21.35070622 639.86669645 20.99207906 634.01171875 20.39916992 C631.2281187 20.21870963 628.61298367 20.53732887 625.86328125 20.98120117 C619.44768313 21.72359336 612.67724264 21.71018013 606.2959137 20.74072266 C602.81154014 20.27121378 599.53891853 20.12859499 596.02709961 20.14526367 C594.76566635 20.14856689 593.50423309 20.15187012 592.20457458 20.15527344 C591.54052549 20.1593924 590.8764764 20.16351135 590.19230461 20.16775513 C588.09397748 20.18063431 585.99571431 20.18706337 583.89735413 20.19189453 C579.44456137 20.20326489 574.9918218 20.22250929 570.5390625 20.24291992 C565.37201359 20.26658431 560.20499527 20.28695162 555.03790474 20.29885864 C552.97842919 20.30530405 550.91904855 20.31780891 548.85960388 20.33056641 C546.97218224 20.33552124 546.97218224 20.33552124 545.04663086 20.34057617 C543.39285683 20.3484314 543.39285683 20.3484314 541.70567322 20.35644531 C538.5899888 20.24249664 535.66729189 19.78781166 532.6015625 19.24291992 C530.33685972 19.32919609 530.33685972 19.32919609 528.046875 19.67260742 C519.82432483 20.53799257 511.5799752 20.3918616 503.32177734 20.37329102 C500.47618311 20.36791921 497.63074577 20.37326831 494.78515625 20.37963867 C492.95052049 20.378978 491.11588483 20.37769708 489.28125 20.37573242 C488.02464066 20.37876877 488.02464066 20.37876877 486.74264526 20.38186646 C481.94108427 20.36305754 477.26355369 20.06935544 472.49856567 19.4699707 C467.04998718 18.81783473 461.58673309 19.0611318 456.1640625 19.80541992 C452.9789255 20.20443764 450.17369593 20.16210268 446.99145508 19.77416992 C439.47647084 19.03604724 431.97861977 19.13113861 424.43585777 19.16775513 C421.74912603 19.18066819 419.06244439 19.18707128 416.37568665 19.19189453 C410.68012251 19.20324148 404.9846004 19.22250538 399.2890625 19.24291992 C392.66652025 19.26657733 386.04400141 19.2869285 379.42142677 19.29885864 C376.78138156 19.30531453 374.14140975 19.3178161 371.50138855 19.33056641 C369.87942569 19.33419962 368.25746216 19.33755127 366.63549805 19.34057617 C365.90759064 19.34574249 365.17968323 19.35090881 364.42971802 19.35623169 C360.3715171 19.35665098 356.5896818 18.95866999 352.6015625 18.24291992 C350.18204226 18.32933136 347.7645297 18.48259569 345.3515625 18.68041992 C337.47571695 19.24618762 329.62134828 19.3597529 321.7265625 19.36791992 C320.00518066 19.37456665 320.00518066 19.37456665 318.24902344 19.38134766 C317.17168945 19.37949463 316.09435547 19.3776416 314.984375 19.37573242 C314.01902832 19.37460449 313.05368164 19.37347656 312.05908203 19.37231445 C309.6015625 19.24291992 309.6015625 19.24291992 306.6015625 18.24291992 C305.10382232 18.15066781 303.60213276 18.11291802 302.1015625 18.11791992 C301.328125 18.1153418 300.5546875 18.11276367 299.7578125 18.11010742 C297.41709233 18.16146179 297.41709233 18.16146179 294.6015625 19.24291992 C292.99557396 19.3359749 291.38602455 19.37361035 289.77734375 19.37573242 C288.83052734 19.37702148 287.88371094 19.37831055 286.90820312 19.37963867 C285.42610352 19.37383789 285.42610352 19.37383789 283.9140625 19.36791992 C282.94533203 19.37178711 281.97660156 19.3756543 280.97851562 19.37963867 C280.02525391 19.37834961 279.07199219 19.37706055 278.08984375 19.37573242 C277.22915283 19.37460449 276.36846191 19.37347656 275.48168945 19.37231445 C272.6015625 19.24291992 272.6015625 19.24291992 268.80932617 18.74291992 C264.4573186 18.16973883 260.17390164 18.09850212 255.7890625 18.11010742 C254.97590576 18.1091507 254.16274902 18.10819397 253.32495117 18.10720825 C251.61734947 18.10653219 249.90974511 18.10834611 248.20214844 18.11254883 C245.60866448 18.11790525 243.01535366 18.11258421 240.421875 18.10620117 C238.75260379 18.10686206 237.08333269 18.10814343 235.4140625 18.11010742 C234.64924561 18.10808319 233.88442871 18.10605896 233.09643555 18.10397339 C229.50611246 18.1193844 226.03142285 18.27003114 222.47241211 18.75878906 C218.83437936 19.21380129 215.51175958 19.27753194 211.85546875 19.12182617 C210.61321533 19.07348633 209.37096191 19.02514648 208.09106445 18.9753418 C206.14719849 18.89123047 206.14719849 18.89123047 204.1640625 18.80541992 C194.28793528 18.41112388 184.44298922 18.14518656 174.55859375 18.30541992 C171.6015625 18.24291992 171.6015625 18.24291992 168.6015625 17.24291992 C167.033226 17.32826502 165.46817965 17.48111583 163.90917969 17.67211914 C156.50400553 18.42786368 149.11353356 18.3875316 141.6796875 18.37573242 C140.16518132 18.3764078 138.65067525 18.37737978 137.13616943 18.37863159 C133.98285883 18.38009574 130.82957679 18.37799443 127.67626953 18.37329102 C123.64948904 18.36757478 119.62277495 18.37089283 115.59599686 18.37686348 C112.47663884 18.38048715 109.35729643 18.37932255 106.23793793 18.37673569 C104.7532831 18.37607243 103.26862682 18.37687363 101.78397369 18.37921524 C99.70783255 18.38177378 97.63179737 18.37785731 95.55566406 18.37231445 C93.79008148 18.37112106 93.79008148 18.37112106 91.98883057 18.36990356 C88.4687386 18.23794055 85.08468236 17.74803144 81.6015625 17.24291992 C79.49176228 17.65198347 79.49176228 17.65198347 77.6015625 18.24291992 C76.03299453 18.24699589 74.46358343 18.19030543 72.8984375 18.08666992 C71.55072266 18.00739258 71.55072266 18.00739258 70.17578125 17.92651367 C68.30852772 17.80512928 66.44133855 17.68275041 64.57421875 17.55932617 C60.3753854 17.31374533 56.41278118 17.16326606 52.2421875 17.77416992 C48.85018837 18.21090801 46.8634836 17.97739222 43.6015625 17.24291992 C41.68079649 17.35267798 39.76308317 17.52502637 37.8515625 17.74291992 C31.70154574 18.30264841 25.82396731 18.09214854 19.69042969 17.5612793 C14.82623588 17.17585869 10.42977142 17.50760479 5.6015625 18.24291992 Z " fill="#000000" transform="translate(12.3984375,-0.242919921875)"/>
</svg>
