<?xml version="1.0" encoding="utf-8" ?>
<svg xmlns="http://www.w3.org/2000/svg" xmlns:xlink="http://www.w3.org/1999/xlink" width="1221" height="1164">
	<path fill="#009BC5" d="M537.892 289.719C546.589 274.168 553.174 257.365 561.116 241.425L607.589 146.096L624.024 111.931C626.502 106.789 628.719 101.25 631.539 96.3043C632.296 94.9758 633.154 93.783 634.505 93.0042C637.193 91.4536 640.556 91.1012 643.589 91.253C645.568 92.2892 646.886 93.2326 648.387 94.8863C652.912 99.8701 655.908 103.384 657.066 110.318C657.55 113.216 658.038 116.076 659.052 118.838C661.833 126.411 663.756 134.616 666.244 142.305C667.09 144.921 668.34 147.335 669.087 150.021C670.119 153.729 669.852 156.868 671.557 160.474C672.847 163.203 673.152 167.028 674.047 170C674.72 172.234 675.828 174.297 676.538 176.508L685.129 206.117L728.587 342.879L741.807 384.245C744.116 391.543 745.981 399.314 748.907 406.364L784.29 410.11L940.79 426.223L1030.81 435.386L1057.63 438.079C1060.74 438.361 1063.92 438.181 1067 438.62C1069.53 438.979 1071.99 439.486 1073.67 441.569C1075.02 443.233 1076.19 445.316 1075.98 447.532C1075.79 449.624 1074.67 451.518 1073.23 453.001C1071.15 455.153 1068.33 456.88 1066.07 458.928L1045.38 478.154C1026.1 496.019 834.01 673.995 833.706 675.063C833.443 675.99 834.899 680.619 835.155 681.794L843.353 717.578L908.838 1004.44C909.895 1009.1 912.286 1016.87 907.757 1020.14C906.627 1020.95 905.717 1021.08 904.422 1021.49L902.723 1022.23C901.51 1022.75 898.336 1024.26 897.108 1024.21C895.399 1024.15 890.32 1021.6 888.623 1020.81L884.39 1018.75C880.249 1017.1 876.211 1014.56 872.214 1012.54L829.707 989.39L788.219 967.038L687.31 908.492L633.121 877.056C596.918 914.203 560.175 951.241 519.247 983.241L483.518 1008.93C480.875 1010.74 478.464 1012.91 475.795 1014.67L465.8 1020.72C463.779 1021.87 461.434 1022.67 459.736 1024.24C457.868 1025.97 454.001 1026.25 451.597 1027.75C449.484 1029.08 446.258 1029.22 443.856 1030.4C441.417 1031.6 438.401 1031.76 435.77 1032.46C421.312 1036.27 406.932 1030.29 394.729 1022.97L350.262 994.088C340.154 987.205 328.929 980.244 320.855 970.987C332.274 975.607 343.722 978.92 356.227 977.72C367.871 976.602 379.197 974.778 390.254 970.844C394.44 969.355 398.146 966.87 402.383 965.658L403.025 965.482C403.979 964.383 404.713 963.378 406.127 962.877C411.132 961.101 417.774 956.757 421.851 953.348L449.348 933.983L620.819 791.271C624.306 792.319 628.519 795.838 631.657 797.819L657.112 813.729L783.957 893.08L800.634 903.589C802.795 905.032 805.567 907.835 807.995 908.584C811.149 909.557 813.14 912.806 816.103 913.481C818.465 914.019 820.322 916.151 822.418 917.359C825.256 918.994 827.689 921.277 830.186 923.388L831.389 922.806C833.682 924.082 836.153 925.474 838.841 924.988C840.528 924.684 841.711 923.673 842.618 922.254C843.202 921.34 843.688 919.788 843.345 918.748C842.633 916.585 841.522 914.594 840.86 912.432C838.066 903.299 836.278 893.599 834.072 884.293L820.817 828.33L780.19 657.767C787.752 652.506 794.537 644.708 801.243 638.351L841.818 600.019L926.005 520.356L960.196 488.009C961.994 486.236 963.462 484.496 964.716 482.3C963.973 479.515 963.328 476.57 961.483 474.273C960.208 472.685 958.851 472.122 956.872 471.793C948.332 470.375 938.98 470.446 930.302 469.9L883.567 466.722L710.412 454.86L662.313 270.12L657.967 251.407L648.898 218.071C647.618 213.179 647.103 207.671 644.712 203.175C642.882 199.734 639.13 199.135 635.682 198.085C632.81 199.498 630.373 201.07 628.589 203.806C625.856 207.998 624.078 213.228 622.06 217.83L610.659 243.895L569.242 338.85L538.217 290.329L537.892 289.719Z"/>
	<path fill="#FED376" d="M537.892 289.719L538.217 290.329L569.242 338.85L610.659 243.895L622.06 217.83C624.078 213.228 625.856 207.998 628.589 203.806C630.373 201.07 632.81 199.498 635.682 198.085C639.13 199.135 642.882 199.734 644.712 203.175C647.103 207.671 647.618 213.179 648.898 218.071L657.967 251.407L662.313 270.12L710.412 454.86L883.567 466.722L930.302 469.9C938.98 470.446 948.332 470.375 956.872 471.793C958.851 472.122 960.208 472.685 961.483 474.273C963.328 476.57 963.973 479.515 964.716 482.3C963.462 484.496 961.994 486.236 960.196 488.009L926.005 520.356L841.818 600.019L801.243 638.351C794.537 644.708 787.752 652.506 780.19 657.767L820.817 828.33L834.072 884.293C836.278 893.599 838.066 903.299 840.86 912.432C841.522 914.594 842.633 916.585 843.345 918.748C843.688 919.788 843.202 921.34 842.618 922.254C841.711 923.673 840.528 924.684 838.841 924.988C836.153 925.474 833.682 924.082 831.389 922.806L830.186 923.388C827.689 921.277 825.256 918.994 822.418 917.359C820.322 916.151 818.465 914.019 816.103 913.481C813.14 912.806 811.149 909.557 807.995 908.584C805.567 907.835 802.795 905.032 800.634 903.589L783.957 893.08L657.112 813.729L631.657 797.819C628.519 795.838 624.306 792.319 620.819 791.271L449.348 933.983L421.851 953.348C417.774 956.757 411.132 961.101 406.127 962.877C404.713 963.378 403.979 964.383 403.025 965.482L402.383 965.658C398.146 966.87 394.44 969.355 390.254 970.844C379.197 974.778 367.871 976.602 356.227 977.72C343.722 978.92 332.274 975.607 320.855 970.987L290.601 952.907C282.614 948.087 274.188 943.802 266.791 938.084C264.974 936.68 262.642 935.158 261.301 933.317C259.094 930.287 256.982 925.703 256.475 921.975C255.155 912.263 256.74 901.425 258.632 891.87C262.811 870.769 270.365 850.266 277.53 830.039L286.038 805.066L305.476 753.91C306.357 751.324 306.738 748.593 307.563 745.986C308.824 741.997 311.444 737.341 312.102 733.317C294.147 744.677 242.326 773.458 220.87 769.109C213.685 767.653 206.328 762.482 199.998 758.829L147.551 725.227C139.626 719.577 131.65 714.049 124.27 707.646C117.324 701.619 109.934 693.691 104.855 686.007C102.721 682.78 101.526 678.824 100.257 675.195C93.7034 656.465 95.8227 637.924 99.8024 618.95C101.71 609.854 105.158 600.76 108.574 592.137C114.917 576.125 122.804 560.423 131.703 545.673L149.637 518.386L182.031 468.877C223.676 409.992 273.103 355.82 327.519 308.508L360.098 281.757C366.092 277.02 371.781 272.098 378.212 267.934C393.018 258.346 413.955 259.35 430.919 259.281C453.993 259.186 478.327 260.091 500.927 265.08C508.952 266.851 521.048 269.325 526.972 275.265C528.926 277.224 530.08 279.873 531.757 282.055C533.809 284.727 536.026 286.81 537.892 289.719Z"/>
	<path fill="#0A1633" d="M362.072 610.317C359.377 619.13 355.101 627.876 351.504 636.379L336.351 671.83C335.321 674.072 333.766 675.995 332.774 678.254L324.65 698.218C323.457 701.045 322.279 704.666 320.567 707.166C318.345 710.413 313.872 713.301 310.769 715.783C292.223 730.617 271.321 743.375 247.992 748.857C241.039 750.491 234.557 751.045 227.447 751.376C226.065 751.44 223.838 751.98 222.537 751.773C219.881 751.35 215.155 747.876 212.634 746.439L175.779 724.46L148.177 707.096C150.711 706.269 153.026 704.881 155.552 704.046C160.5 702.411 166.123 701.87 171.225 700.576C181.887 697.872 192.331 694.491 202.68 690.776C258.634 670.69 311.684 641.622 362.072 610.317Z"/>
	<path fill="#0A1633" d="M636.295 218.61L700.741 465.773C708.95 467.273 717.66 467.242 725.98 467.789L770.067 470.804L947.936 483.092C947.425 484.438 944.832 486.276 943.743 487.288L931.253 499L836.08 588.496L800.531 622.357L784.272 637.422C778.451 642.539 772.038 646.973 767.674 653.47C767.329 656.104 768.471 659.576 769.083 662.148L773.228 679.497L787.86 741.019L826.977 905.566L622.801 778.147L614.673 781.065C611.248 782.391 609.394 785.14 606.86 787.682L597.047 797.013L576.552 815.228C574.589 816.997 572.864 819.054 570.853 820.762C569.195 822.17 567.207 823.154 565.575 824.592L554.604 834.544C553.066 835.826 551.261 836.676 549.75 837.936C548.545 838.942 547.66 840.526 546.605 841.694C545.029 843.439 542.941 844.509 540.861 845.527L540.15 845.868L540.112 847.06C504.45 878.091 467.031 907.087 427.973 933.721C415.488 942.233 402.41 951.917 388.781 958.412C385.782 959.841 382.407 961.007 379.178 961.776C377.296 962.225 375.052 962.188 373.278 962.869C370.252 964.03 367.05 963.124 364.199 964.229C363.219 964.61 363.834 964.559 362.819 964.508L362.186 964.467C361.76 964.55 361.419 964.903 360.994 964.99C359.077 965.382 356.88 964.766 355.195 963.891C354.089 963.316 351.557 964.476 350.486 964.621C349.228 964.792 346.11 962.941 344.532 962.756C341.641 962.418 339.41 960.644 336.882 959.31L316.582 948.21L290.96 933.293C286.874 930.845 282.226 928.557 278.652 925.433C275.803 922.942 273.421 919.861 271.084 916.9C271.26 910.489 272.965 904.203 274.384 897.976L281.812 868.222L297.905 810.41L327.46 731.216L361.5 642.803L378.677 602.783L384.267 590.908C385.58 588.276 387.258 585.733 388.062 582.894L386.63 580.814C384.73 581.067 382.554 581.239 380.851 582.19C375.326 585.276 369.885 590.126 364.633 593.786L331.461 615.47C294.7 637.945 255.061 658.205 214.183 672.004L181.154 681.882C165.436 686.02 144.312 692.115 129.018 684.104C122.901 680.9 117.302 669.605 115.274 663.011C111.598 651.057 113.676 638.425 116.354 626.437C120.341 608.598 126.708 590.761 134.534 574.233C136.463 570.159 139.077 566.499 141.13 562.499C141.917 560.965 142.404 560.675 141.876 559.042C142.531 558.268 142.972 557.887 143.877 557.373L144.707 556.932L144.796 555.839L144.433 554.868L164.822 523.917C168.601 518.324 172.031 511.423 176.862 506.653C177.575 505.949 177.755 506.136 177.634 505.084L177.373 504.181C181.271 500.691 183.394 495.958 186.069 491.568C190.798 483.809 197.58 476.717 202.829 469.172C228.834 431.791 257.222 396.408 288.9 363.663L331.258 322.605C344.062 310.229 356.682 298.21 370.951 287.494C377.761 282.38 384.735 276.949 393.165 274.904C421.821 267.955 454.578 271.324 483.592 274.555C491.055 275.386 499.16 275.831 506.394 277.813C510.781 279.015 514.989 281.193 518.873 283.521C524.898 294.664 533.04 304.847 539.939 315.502L558.412 346.053C559.855 348.686 560.69 351.598 562.106 354.209C563.093 356.03 564.803 357.415 566.68 358.241C568.821 359.183 570.692 359.843 572.94 358.987C574.426 358.42 575.525 357.315 576.315 355.956C578.718 351.824 580.422 346.842 582.338 342.44L594.204 315.262L636.295 218.61Z"/>
	<path fill="#FED376" d="M555.905 548.191C558.876 548.37 564.586 548.252 566.746 550.39C567.631 551.266 569.844 553.756 570.217 554.87C570.882 556.858 569.605 561 569.465 563.216L569.272 572.459C568.867 583.339 567.122 595.776 559.142 603.91C552.535 610.645 543.086 613.117 534.364 615.904L507.976 624.671C486.993 632.6 464.924 643.217 448.382 658.59C431.659 674.131 419.761 693.477 410.095 713.989C401.596 732.024 394.821 751.456 394.034 771.529C395.194 774.274 396.949 777.196 399.17 779.23C402.699 782.46 407.197 782.95 411.769 782.589C440.758 780.303 465.47 758.134 484.667 738.121C489.967 732.596 495.577 727.183 500.521 721.343C505.804 715.102 510.615 708.258 515.305 701.561L529.597 680.155C532.454 675.681 535.172 670.508 538.706 666.576C540.282 664.821 542.085 663.651 544.5 663.633C546.598 663.617 548.131 664.455 549.528 665.976C554.417 671.298 556.392 699.105 556.21 707.369C556.068 713.807 555.526 721.316 553.432 727.408C551.653 732.583 548.194 737.462 545.366 742.11C530.482 766.573 512.669 786.849 491.905 806.517L458.488 836.923C428.941 863.289 399.233 887.302 364.556 906.69C358.527 910.061 352.246 913.907 345.65 915.991C341.421 917.328 336.608 917.862 332.214 918.352C328.264 918.793 323.979 919.114 320.134 917.84C316.764 916.723 309.2 911.253 307.938 907.639C307.462 906.277 307.611 904.162 307.542 902.695L307.458 888.274C307.962 866.948 311.74 845.364 316.967 824.729C327.9 781.575 345.042 739.26 362.58 698.403C373.423 673.143 383.662 647.757 399.708 625.233C411.714 608.38 429.831 596.492 447.62 586.472C469.163 574.338 491.784 564.377 515.48 557.255C528.638 553.299 542.355 550.435 555.905 548.191Z"/>
	<path fill="#DB0F00" d="M444.282 288.361C453.387 287.412 462.926 287.701 472.071 287.856C483.994 288.057 496.789 288.284 508.552 290.295C514.114 291.246 515.589 293.839 518.621 298.191L506.832 315.851C503.428 320.708 488.285 342.35 483.917 342.976C459.976 346.41 438.167 352.566 415.378 360.502C405.008 364.114 394.986 367.299 385.692 373.315C370.474 383.165 357.449 394.975 344.748 407.845C324.083 428.784 305.32 452.685 290.896 478.384C284.765 489.309 278.435 501.718 275.921 514.082C274.97 518.759 275.089 524.025 277.99 528.033C281.636 533.071 287.91 533.664 293.568 532.924C298.471 532.283 303.409 530.278 307.991 528.516C320.168 523.832 331.069 517.711 342.382 511.321L373.42 493.827L414.949 470.527C423.105 465.756 431.223 459.785 439.711 455.765C441.368 454.98 443.105 454.287 444.966 454.657C446.644 454.992 448.205 456.242 449.051 457.717C450.019 459.404 450.061 461.697 450.409 463.583C452.764 476.385 450.21 489.356 447.486 501.896C447.103 503.661 446.675 506.712 445.686 508.163C444.689 509.627 442.172 511.065 440.767 512.289C417.945 532.175 391.691 547.876 366.279 564.185C313.326 597.81 261.792 632.888 201.715 652.814C189.62 656.826 174.839 661.764 161.985 659.847C159.66 659.5 157.143 658.976 154.796 658.988C152.642 658.999 151.167 658.3 149.346 657.142C146.339 655.23 144.026 652.569 143.353 649.014C143.153 647.958 143.046 647.113 142.585 646.128L141.492 643.847C140.932 642.18 141.528 640.66 142.223 639.148L142.462 638.65L141.352 637.457C142.208 635.666 142.7 634.025 143.094 632.09L141.963 630.599C142.211 628.528 142.134 628.08 143.516 626.425C143.456 624.121 144.713 622.231 144.591 620.183L144.482 619.568C146.433 617.518 147.444 612.795 147.844 610.027C148.586 604.891 150.802 599.885 153.707 595.517C154.507 594.315 155.105 593.684 154.747 592.137L154.594 591.592C156.54 589.221 158.012 586.093 158.571 583.06L158.681 582.298L159.779 582.383L160.798 581.404L160.142 579.615C160.729 578.631 161.108 577.967 161.294 576.812L161.388 575.977C164.259 574.905 163.573 572.186 165.009 570.229C166.057 568.801 167.56 567.131 167.607 565.269L167.592 564.409C169.933 562.491 170.202 559.956 172.21 557.998C172.999 557.229 172.901 557.495 173.288 556.684C174.915 553.28 177.403 550.177 179.216 546.818L178.526 545.482L179.963 544.878C181.306 541.17 183.573 538.368 185.612 535.059L194.609 520.051C215.838 485.35 241.025 453.013 266.941 421.722C285.323 399.527 303.758 377.372 323.827 356.663C337.275 342.786 351.8 329.692 366.436 317.089L378.565 306.91C380.9 305.002 383.419 302.608 386.153 301.337C390.042 299.53 393.978 297.266 397.958 295.741C412.054 290.339 429.301 289.296 444.282 288.361Z"/>
</svg>
